<svg xmlns="http://www.w3.org/2000/svg" viewBox="0 0 24 24"><title>bold</title><g id="bold"><g id="bold-2" data-name="bold"><path d="M7.55,6h3.74a7.12,7.12,0,0,1,3.7.73A2.52,2.52,0,0,1,16.15,9a2.89,2.89,0,0,1-.51,1.76,2,2,0,0,1-1.34.83v.08a2.64,2.64,0,0,1,1.64.95,3.1,3.1,0,0,1,.51,1.86,3.06,3.06,0,0,1-1.19,2.56A5.14,5.14,0,0,1,12,18H7.55Zm2.55,4.75h1.47a2.65,2.65,0,0,0,1.5-.32,1.18,1.18,0,0,0,.46-1.06,1.05,1.05,0,0,0-.5-1,3.26,3.26,0,0,0-1.6-.3H10.1Zm0,2V15.9h1.65a2.56,2.56,0,0,0,1.56-.4,1.5,1.5,0,0,0,.5-1.23c0-1-.72-1.5-2.14-1.5Z"/></g></g></svg>