<svg xmlns="http://www.w3.org/2000/svg" viewBox="0 0 24 24"><title>configurações</title><g id="Configurações"><path d="M21.9,13.34a10.11,10.11,0,0,0,0-2.46A3,3,0,0,1,19.42,9,3,3,0,0,1,20,6a9.62,9.62,0,0,0-1.72-1.77A3,3,0,0,1,13.34,2.1a10.11,10.11,0,0,0-2.46,0A3,3,0,0,1,9,4.58,3,3,0,0,1,6,4.05,9.62,9.62,0,0,0,4.18,5.77,3,3,0,0,1,2.1,10.66a10.11,10.11,0,0,0,0,2.46A3,3,0,0,1,4.58,15a3,3,0,0,1-.53,3.07,9.62,9.62,0,0,0,1.72,1.77,3,3,0,0,1,4.89,2.08,10.11,10.11,0,0,0,2.46,0A3,3,0,0,1,15,19.42a3,3,0,0,1,3.07.53,9.62,9.62,0,0,0,1.77-1.72,3,3,0,0,1,2.08-4.89Zm-7.67,4.23a6,6,0,1,1,3.34-7.8A6,6,0,0,1,14.23,17.57Z"/><path d="M12,8a4,4,0,1,0,4,4A4,4,0,0,0,12,8Zm0,6a2,2,0,1,1,2-2A2,2,0,0,1,12,14Z"/></g></svg>