<svg width="24" height="24" viewBox="0 0 24 24" fill="none" xmlns="http://www.w3.org/2000/svg">
<path d="M12.9091 16.5C12.9091 16.9971 12.5021 17.4 12 17.4C11.4979 17.4 11.0909 16.9971 11.0909 16.5C11.0909 16.0029 11.4979 15.6 12 15.6C12.5021 15.6 12.9091 16.0029 12.9091 16.5Z" fill="#3A3A47"/>
<path fill-rule="evenodd" clip-rule="evenodd" d="M21.9708 11.5552C22.0965 12.0364 21.8044 12.5274 21.3183 12.6518C21.0109 12.7305 20.709 12.806 20.4118 12.8783C19.9243 12.9969 19.4319 12.7017 19.3121 12.219C19.1923 11.7363 19.4904 11.2489 19.978 11.1303C20.2674 11.0599 20.5623 10.9862 20.8631 10.9091C21.3492 10.7847 21.8452 11.074 21.9708 11.5552ZM18.3894 12.4244C18.4829 12.9128 18.1588 13.3837 17.6655 13.4763C17.0292 13.5957 16.4091 13.6966 15.7983 13.7785C15.3007 13.8451 14.8428 13.4999 14.7755 13.0073C14.7082 12.5147 15.0569 12.0614 15.5545 11.9947C16.1303 11.9176 16.7186 11.8219 17.3269 11.7077C17.8202 11.6152 18.2959 11.936 18.3894 12.4244ZM13.8316 13.0904C13.8483 13.5872 13.455 14.0033 12.9532 14.0198C12.3202 14.0406 11.6867 14.0387 11.0444 14.0136C10.5428 13.9941 10.1521 13.5756 10.1719 13.0789C10.1917 12.5822 10.6144 12.1955 11.1161 12.215C11.7146 12.2384 12.304 12.2401 12.8928 12.2208C13.3946 12.2043 13.8149 12.5936 13.8316 13.0904ZM9.22844 12.9916C9.16066 13.4841 8.70243 13.829 8.20496 13.7619C7.60123 13.6804 6.98217 13.5806 6.34201 13.4623C5.84847 13.3711 5.52306 12.9011 5.61519 12.4124C5.70732 11.9238 6.1821 11.6017 6.67564 11.6929C7.2893 11.8063 7.87887 11.9013 8.45043 11.9784C8.9479 12.0455 9.29623 12.4991 9.22844 12.9916ZM4.69 12.2112C4.57242 12.6945 4.08142 12.9918 3.59331 12.8754C3.29596 12.8045 2.99343 12.7303 2.68532 12.6527C2.19873 12.5303 1.90454 12.0405 2.02824 11.5588C2.15194 11.077 2.64667 10.7858 3.13326 10.9082C3.43447 10.984 3.7296 11.0564 4.01912 11.1255C4.50722 11.2419 4.80759 11.728 4.69 12.2112Z" fill="#3A3A47"/>
<path fill-rule="evenodd" clip-rule="evenodd" d="M4.72743 3H19.2726C19.1642 3.61894 19.0875 4.21623 19.0383 4.8C18.871 6.78609 19.022 8.61567 19.3274 10.6087C18.7138 10.7415 18.1208 10.8586 17.5423 10.9601C17.2227 8.89681 17.0493 6.93968 17.2144 4.8H6.7855C6.97032 6.99999 6.83643 8.96474 6.5527 10.923C5.97742 10.8266 5.38251 10.7168 4.76364 10.5934C5.03178 8.71615 5.14801 6.86773 4.96061 4.8C4.90797 4.21914 4.83136 3.62097 4.72743 3ZM4.20101 13.7969C4.13467 14.1345 4.06639 14.477 3.99689 14.8255C3.72873 16.1703 3.44262 17.6051 3.1814 19.2C3.08675 19.7779 2.99537 20.3768 2.90929 21H21.0907C21.0077 20.3759 20.9215 19.7767 20.8335 19.2C20.5417 17.2889 20.2297 15.6238 19.9459 14.1098C19.9253 13.9996 19.9047 13.8901 19.8844 13.7814C19.2679 13.9084 18.6742 14.0223 18.0983 14.1231C18.1236 14.2581 18.1491 14.3938 18.1748 14.5304C18.4398 15.9406 18.7231 17.4487 18.9949 19.2H5.02276C5.26173 17.77 5.51471 16.5072 5.75906 15.2874C5.8367 14.8999 5.91347 14.5167 5.98864 14.1338C5.4128 14.0346 4.81848 13.9223 4.20101 13.7969Z" fill="#3A3A47"/>
</svg>
