<svg width="24" height="24" viewBox="0 0 24 24" fill="none" xmlns="http://www.w3.org/2000/svg">
<path fill-rule="evenodd" clip-rule="evenodd" d="M19.2734 3C19.1651 3.61894 19.0884 4.21623 19.0392 4.8C18.8718 6.78609 19.0229 8.61567 19.3282 10.6087C19.4934 11.5568 19.8361 13.5187 19.8853 13.7814L19.9468 14.1098C20.2305 15.6238 20.5426 17.2889 20.8343 19.2C20.9224 19.7767 21.0086 20.3759 21.0916 21H2.91016C2.99623 20.3768 3.08762 19.7779 3.18226 19.2C3.44348 17.6051 3.72959 16.1703 3.99776 14.8255C4.06725 14.477 4.13554 14.1345 4.20188 13.7969C4.36288 12.9268 4.70082 11.0681 4.7645 10.5934C5.03264 8.71615 5.14887 6.86773 4.96147 4.8C4.90883 4.21914 4.83223 3.62097 4.7283 3H19.2734ZM12.0009 17.4C12.5029 17.4 12.9099 16.9971 12.9099 16.5C12.9099 16.0029 12.5029 15.6 12.0009 15.6C11.4988 15.6 11.0918 16.0029 11.0918 16.5C11.0918 16.9971 11.4988 17.4 12.0009 17.4Z" fill="#3A3A47"/>
</svg>
