<svg width="24" height="24" viewBox="0 0 24 24" fill="none" xmlns="http://www.w3.org/2000/svg">
<path d="M17 7C17 7.37904 16.9578 7.74823 16.8779 8.10313C16.6334 8.03591 16.3759 8 16.11 8H15.89C14.2939 8 13 9.2939 13 10.89V11.9C12.6769 11.9656 12.3425 12 12 12C9.23858 12 7 9.76142 7 7C7 4.23858 9.23858 2 12 2C14.7614 2 17 4.23858 17 7Z" fill="#3A3A47"/>
<path d="M15 10.89C15 10.3985 15.3985 10 15.89 10H16.11C16.6015 10 17 10.3985 17 10.89V15H21.11C21.6015 15 22 15.3985 22 15.89V16.11C22 16.6015 21.6015 17 21.11 17H17V21.11C17 21.6015 16.6015 22 16.11 22H15.89C15.3985 22 15 21.6015 15 21.11V17H10.89C10.3985 17 10 16.6015 10 16.11V15.89C10 15.4292 10.3502 15.0502 10.799 15.0046C10.8289 15.0016 10.8593 15 10.89 15H15V10.89Z" fill="#3A3A47"/>
<path d="M8 15.89C8 15.1827 8.25407 14.5348 8.67593 14.0325L8.63818 14.0326L7.3764 14.0132L7.30168 14.0172L7.22993 14.0703C6.61389 14.5264 6.27861 14.7747 6.27861 15.5572V16.2426C7.42892 16.4678 7.7037 17.5793 7.7037 18.309V19.8862C7.70366 20.2253 7.4251 20.5001 7.08149 20.5001C6.73785 20.5001 6.45927 20.2252 6.45927 19.8861C6.45927 19.6077 6.64708 19.3725 6.90451 19.2973V18.309C6.90451 17.6436 6.4266 17.1041 5.83706 17.1041C5.24752 17.1041 4.76961 17.6436 4.76961 18.309V19.2973C5.02701 19.3725 5.2148 19.6077 5.2148 19.8861C5.2148 20.2252 4.93622 20.5001 4.59258 20.5001C4.24894 20.5001 3.97037 20.2252 3.97037 19.8861L3.97042 19.8786V18.309C3.97042 17.5794 4.24513 16.4681 5.39506 16.2427V15.5572C5.39506 15.0502 5.52674 14.637 5.91869 14.2078C3.30605 14.8136 2 16.7443 2 20.0001C2 21.3331 2.65712 22.0001 3.97037 22.0001H13.1397C13.049 21.7197 13 21.4206 13 21.11V19H10.89C9.2939 19 8 17.7061 8 16.11V15.89Z" fill="#3A3A47"/>
</svg>
