<svg width="24" height="24" viewBox="0 0 24 24" fill="none" xmlns="http://www.w3.org/2000/svg">
<path fill-rule="evenodd" clip-rule="evenodd" d="M16.8769 8.10285C16.9581 7.74374 17 7.37403 17 7C17 5.67392 16.4732 4.40215 15.5355 3.46447C14.5979 2.52678 13.3261 2 12 2C10.6739 2 9.40215 2.52678 8.46447 3.46447C7.52678 4.40215 7 5.67392 7 7C7 8.32608 7.52678 9.59785 8.46447 10.5355C9.40215 11.4732 10.6739 12 12 12C12.3384 12 12.6733 11.9667 13 11.9V10.89C13.0185 10.41 13.0754 10.1581 13.2396 9.73193C12.8539 9.90694 12.4317 10 12 10C11.2044 10 10.4413 9.68393 9.87868 9.12132C9.31607 8.55871 9 7.79565 9 7C9 6.20435 9.31607 5.44129 9.87868 4.87868C10.4413 4.31607 11.2044 4 12 4C12.7956 4 13.5587 4.31607 14.1213 4.87868C14.6839 5.44129 15 6.20435 15 7C15 7.43858 14.904 7.86726 14.7235 8.25792C14.909 8.17195 15.402 8 15.89 8H16.11C16.3755 8 16.6327 8.03581 16.8769 8.10285Z" fill="#3A3A47"/>
<path d="M15 10.89C15 10.3985 15.3985 10 15.89 10H16.11C16.6015 10 17 10.3985 17 10.89V15H21.11C21.6015 15 22 15.3985 22 15.89V16.11C22 16.6015 21.6015 17 21.11 17H17V21.11C17 21.6015 16.6015 22 16.11 22H15.89C15.3985 22 15 21.6015 15 21.11V17H10.89C10.3985 17 10 16.6015 10 16.11V15.89C10 15.4292 10.3502 15.0502 10.799 15.0046C10.8289 15.0016 10.8593 15 10.89 15H15V10.89Z" fill="#3A3A47"/>
<path d="M8 15.8768C8 15.1695 8.25407 14.5216 8.67593 14.0193L7.3764 14L7.30168 14.004L7.22993 14.0571C6.61389 14.5133 6.27861 14.7615 6.27861 15.544V16.2294C7.42892 16.4546 7.7037 17.5661 7.7037 18.2959V19.873C7.70366 20.2121 7.4251 20.487 7.08149 20.487C6.73785 20.487 6.45927 20.2121 6.45927 19.8729C6.45927 19.5945 6.64708 19.3593 6.90451 19.2841V18.2959C6.90451 17.6304 6.4266 17.0909 5.83706 17.0909C5.24752 17.0909 4.76961 17.6304 4.76961 18.2959V19.2841C5.02701 19.3594 5.2148 19.5945 5.2148 19.8729C5.2148 20.2121 4.93622 20.487 4.59258 20.487C4.24894 20.487 3.97037 20.2121 3.97037 19.8729L3.97042 19.8654V18.2959C3.97042 17.5662 4.24513 16.4549 5.39506 16.2295V15.544C5.39506 15.037 5.52674 14.6239 5.91869 14.1946C3.30605 14.8004 2 16.7312 2 19.987C2 21.32 2.65712 21.987 3.97037 21.987H13.1397C13.049 21.7066 13 21.4074 13 21.0968V18.9868H10.89C9.2939 18.9868 8 17.6929 8 16.0968V15.8768Z" fill="#3A3A47"/>
</svg>
