<svg xmlns="http://www.w3.org/2000/svg" width="24" height="24" viewBox="0 0 24 24">
    <path fill="#686A75" fill-rule="evenodd" d="M16.001 12a4.002 4.002 0 0 1-3.871-2.99c0-.007-2.377-.007-7.131 0-.667.005-1-.329-.999-1.001C4.001 7.336 4.335 7 5.001 7l7.121.018A4.002 4.002 0 0 1 20.001 8a4 4 0 0 1-4 4zM8 12c1.86 0 3.424 1.27 3.871 2.99 0 .007 2.377.007 7.131 0 .667-.005 1 .329.999 1.001C20 16.664 19.666 17 19 17l-7.121-.018A4.002 4.002 0 0 1 4 16a4 4 0 0 1 4-4zm8.001-2a2 2 0 1 0 0-4 2 2 0 0 0 0 4zm-8 8a2 2 0 1 0 0-4 2 2 0 0 0 0 4z"/>
</svg>
