<svg width="24" height="24" viewBox="0 0 24 24" fill="none" xmlns="http://www.w3.org/2000/svg">
<path fill-rule="evenodd" clip-rule="evenodd" d="M16.001 12C15.116 11.9998 14.256 11.7062 13.5556 11.1652C12.8551 10.6242 12.3538 9.86627 12.13 9.01C12.13 9.003 9.753 9.003 4.999 9.01C4.332 9.015 3.999 8.681 4 8.009C4.001 7.336 4.335 7 5.001 7L12.122 7.018C12.3635 6.07452 12.9407 5.25148 13.7456 4.7031C14.5504 4.15472 15.5276 3.91863 16.494 4.03908C17.4604 4.15953 18.3497 4.62825 18.9953 5.3574C19.6409 6.08656 19.9985 7.02611 20.001 8C20.001 9.06087 19.5796 10.0783 18.8294 10.8284C18.0793 11.5786 17.0619 12 16.001 12ZM8 12C9.86 12 11.424 13.27 11.871 14.99C11.871 14.997 14.248 14.997 19.002 14.99C19.669 14.985 20.002 15.319 20.001 15.991C20 16.664 19.666 17 19 17L11.879 16.982C11.6375 17.9255 11.0603 18.7485 10.2554 19.2969C9.45062 19.8453 8.47344 20.0814 7.50703 19.9609C6.54061 19.8405 5.65128 19.3718 5.00568 18.6426C4.36008 17.9134 4.00252 16.9739 4 16C4 14.9391 4.42143 13.9217 5.17157 13.1716C5.92172 12.4214 6.93914 12 8 12ZM16.001 10C16.5314 10 17.0401 9.78929 17.4152 9.41421C17.7903 9.03914 18.001 8.53043 18.001 8C18.001 7.46957 17.7903 6.96086 17.4152 6.58579C17.0401 6.21071 16.5314 6 16.001 6C15.4706 6 14.9619 6.21071 14.5868 6.58579C14.2117 6.96086 14.001 7.46957 14.001 8C14.001 8.53043 14.2117 9.03914 14.5868 9.41421C14.9619 9.78929 15.4706 10 16.001 10ZM8.001 18C8.53144 18 9.04014 17.7893 9.41522 17.4142C9.79029 17.0391 10.001 16.5304 10.001 16C10.001 15.4696 9.79029 14.9609 9.41522 14.5858C9.04014 14.2107 8.53144 14 8.001 14C7.47057 14 6.96186 14.2107 6.58679 14.5858C6.21172 14.9609 6.001 15.4696 6.001 16C6.001 16.5304 6.21172 17.0391 6.58679 17.4142C6.96186 17.7893 7.47057 18 8.001 18Z" fill="#3A3A47"/>
</svg>
