<svg xmlns="http://www.w3.org/2000/svg" width="24" height="24" viewBox="0 0 24 24">
    <path fill="#3A3A47" fill-rule="evenodd" d="M8 12c1.86 0 3.424 1.27 3.871 2.99 0 .007 2.377.007 7.131 0 .667-.005 1 .329.999 1.001C20 16.664 19.666 17 19 17l-6.998-.018h-.123A4.002 4.002 0 0 1 4 16a4 4 0 0 1 4-4zm.001 2a2 2 0 1 0 0 4 2 2 0 0 0 0-4zm8-10a4 4 0 1 1-3.871 5.01c0-.007-2.377-.007-7.131 0-.667.005-1-.329-.999-1.001C4.001 7.336 4.335 7 5.001 7L12 7.018h.123A4.002 4.002 0 0 1 16.001 4zm0 2a2 2 0 1 0 0 4 2 2 0 0 0 0-4z"/>
</svg>
