<svg width="24" height="24" viewBox="0 0 24 24" fill="none" xmlns="http://www.w3.org/2000/svg">
<path fill-rule="evenodd" clip-rule="evenodd" d="M19.6899 8.0024C19.6899 8.0024 19.9873 10.8548 20.0516 11.1513C20.1409 11.5634 20.298 11.9392 20.8437 13.0253C20.9486 13.2341 21.0148 13.4805 20.9972 13.7508C20.9796 14.0199 20.8835 14.2434 20.772 14.4146C20.5758 14.7156 20.2847 14.9178 20.1416 15.017C20.0713 15.0657 20.0145 15.1039 19.9659 15.1365C19.8726 15.1992 19.81 15.2413 19.7417 15.2975C19.7208 15.3146 19.7064 15.3278 19.6969 15.3371C19.6794 15.3959 19.6524 15.5055 19.6159 15.6866C19.5884 15.8229 19.5618 15.9664 19.5321 16.1263L19.5318 16.1277C19.5129 16.2294 19.4928 16.3378 19.4705 16.4551C19.3632 17.0183 19.2156 17.732 18.9782 18.3327C18.5659 19.3763 17.5144 19.6888 16.7594 19.6888H14.2649L13.4928 21.9855L7.90829 22C7.50432 22.001 7.07929 21.967 6.70873 21.817C6.27209 21.6402 5.9231 21.3039 5.78583 20.812C5.67402 20.4113 5.73659 20.0118 5.79861 19.7296C5.86486 19.4282 5.97368 19.0875 6.08065 18.7544C6.30224 18.0644 6.29 16.5976 4.90934 13.6178C4.67384 13.167 4.46922 12.7438 4.32296 12.2483C4.11273 11.536 4 10.7826 4 10.0032C4 5.58315 7.03675 2 12.098 2C16.3702 2 19.6899 5.5014 19.6899 8.0024ZM8.01028 19.3597C8.46904 17.9313 8.17203 15.923 6.73975 12.8317C6.59641 12.567 6.47256 12.2905 6.3701 12.004C6.14628 11.3782 6.0245 10.7047 6.0245 10.0032C6.0245 6.71317 8.51709 4.04136 12.018 4.00126C12.0446 4.00095 12.0713 4.0008 12.098 4.0008C15.1348 4.00081 17.7666 6.68157 17.7666 8.95279C17.7666 9.44829 17.9846 11.1672 18.072 11.5706C18.2008 12.1646 18.4208 12.6824 18.8176 13.488C18.7053 13.5643 18.5651 13.6622 18.4474 13.759C18.2451 13.9252 17.9663 14.195 17.8142 14.5955C17.7335 14.8077 17.6756 15.0714 17.6304 15.2956C17.6005 15.4439 17.5685 15.6161 17.5363 15.7894C17.5178 15.8889 17.4992 15.9888 17.4809 16.085C17.3724 16.6544 17.2529 17.1986 17.0924 17.605L17.0913 17.6073C17.0913 17.6073 17.0809 17.6178 17.0567 17.6304C17.0031 17.6582 16.9017 17.688 16.7594 17.688H13.8409C13.7358 17.588 13.6341 17.4344 13.5483 17.2137C13.4241 16.8941 13.3828 16.554 13.3828 16.3692H11.3583C11.3583 16.7643 11.4334 17.3519 11.6584 17.931C11.798 18.2903 12.0154 18.6952 12.3489 19.0426L12.0309 19.9885L7.90297 19.9992C7.87201 19.9993 7.84283 19.999 7.81534 19.9985C7.86015 19.8313 7.92477 19.626 8.01028 19.3597Z" fill="#3A3A47"/>
<path d="M12.6 6.8C12.6 7.24183 12.2418 7.6 11.8 7.6C11.3582 7.6 11 7.24183 11 6.8C11 6.35817 11.3582 6 11.8 6C12.2418 6 12.6 6.35817 12.6 6.8Z" fill="#3A3A47"/>
<path d="M12.6 10C12.6 10.4418 12.2418 10.8 11.8 10.8C11.3582 10.8 11 10.4418 11 10C11 9.55818 11.3582 9.20001 11.8 9.20001C12.2418 9.20001 12.6 9.55818 12.6 10Z" fill="#3A3A47"/>
<path d="M15.6 7.8C15.6 8.24183 15.2418 8.6 14.8 8.6C14.3582 8.6 14 8.24183 14 7.8C14 7.35817 14.3582 7 14.8 7C15.2418 7 15.6 7.35817 15.6 7.8Z" fill="#3A3A47"/>
<path d="M15.6 10.2C15.6 10.6419 15.2418 11 14.8 11C14.3582 11 14 10.6419 14 10.2C14 9.7582 14.3582 9.40002 14.8 9.40002C15.2418 9.40002 15.6 9.7582 15.6 10.2Z" fill="#3A3A47"/>
<path d="M15.6 12.6C15.6 13.0418 15.2418 13.4 14.8 13.4C14.3582 13.4 14 13.0418 14 12.6C14 12.1582 14.3582 11.8 14.8 11.8C15.2418 11.8 15.6 12.1582 15.6 12.6Z" fill="#3A3A47"/>
<path d="M12.6 13.2C12.6 13.6418 12.2418 14 11.8 14C11.3582 14 11 13.6418 11 13.2C11 12.7582 11.3582 12.4 11.8 12.4C12.2418 12.4 12.6 12.7582 12.6 13.2Z" fill="#3A3A47"/>
<path d="M9.6 12.4C9.6 12.8418 9.24183 13.2 8.8 13.2C8.35817 13.2 8 12.8418 8 12.4C8 11.9582 8.35817 11.6 8.8 11.6C9.24183 11.6 9.6 11.9582 9.6 12.4Z" fill="#3A3A47"/>
<path d="M9.6 10C9.6 10.4418 9.24183 10.8 8.8 10.8C8.35817 10.8 8 10.4418 8 10C8 9.55819 8.35817 9.20002 8.8 9.20002C9.24183 9.20002 9.6 9.55819 9.6 10Z" fill="#3A3A47"/>
<path d="M9.6 7.59999C9.6 8.04182 9.24183 8.39999 8.8 8.39999C8.35817 8.39999 8 8.04182 8 7.59999C8 7.15816 8.35817 6.79999 8.8 6.79999C9.24183 6.79999 9.6 7.15816 9.6 7.59999Z" fill="#3A3A47"/>
</svg>
