<svg width="24" height="24" viewBox="0 0 24 24" fill="none" xmlns="http://www.w3.org/2000/svg">
<g clip-path="url(#clip0_101581_95)">
<path fill-rule="evenodd" clip-rule="evenodd" d="M20.0516 11.1513C19.9873 10.8548 19.6899 8.0024 19.6899 8.0024C19.6899 5.5014 16.3702 2 12.098 2C7.03675 2 4 5.58315 4 10.0032C4 10.7826 4.11273 11.536 4.32296 12.2483C4.46922 12.7438 4.67384 13.167 4.90934 13.6178C6.29 16.5976 6.30224 18.0644 6.08065 18.7544C5.97368 19.0875 5.86486 19.4282 5.79861 19.7296C5.73659 20.0118 5.67402 20.4113 5.78583 20.812C5.9231 21.3039 6.27209 21.6402 6.70873 21.817C7.07929 21.967 7.50432 22.001 7.90829 22L13.4928 21.9855L14.2649 19.6888H16.7594C17.5144 19.6888 18.5659 19.3763 18.9782 18.3327C19.2156 17.732 19.3632 17.0183 19.4705 16.4551C19.4928 16.3378 19.5129 16.2294 19.5318 16.1277L19.5321 16.1263C19.5618 15.9664 19.5884 15.8229 19.6159 15.6866C19.6524 15.5055 19.6794 15.3959 19.6969 15.3371C19.7064 15.3278 19.7208 15.3146 19.7417 15.2975C19.81 15.2413 19.8726 15.1992 19.9659 15.1365C20.0145 15.1039 20.0713 15.0657 20.1416 15.017C20.2847 14.9178 20.5758 14.7156 20.772 14.4146C20.8835 14.2434 20.9796 14.0199 20.9972 13.7508C21.0148 13.4805 20.9486 13.2341 20.8437 13.0253C20.298 11.9392 20.1409 11.5634 20.0516 11.1513ZM11.8 7.6C12.2418 7.6 12.6 7.24183 12.6 6.8C12.6 6.35817 12.2418 6 11.8 6C11.3582 6 11 6.35817 11 6.8C11 7.24183 11.3582 7.6 11.8 7.6ZM12.6 10C12.6 10.4418 12.2418 10.8 11.8 10.8C11.3582 10.8 11 10.4418 11 10C11 9.55818 11.3582 9.20001 11.8 9.20001C12.2418 9.20001 12.6 9.55818 12.6 10ZM14.8 8.6C15.2418 8.6 15.6 8.24183 15.6 7.8C15.6 7.35817 15.2418 7 14.8 7C14.3582 7 14 7.35817 14 7.8C14 8.24183 14.3582 8.6 14.8 8.6ZM15.6 10.2C15.6 10.6419 15.2418 11 14.8 11C14.3582 11 14 10.6419 14 10.2C14 9.7582 14.3582 9.40002 14.8 9.40002C15.2418 9.40002 15.6 9.7582 15.6 10.2ZM14.8 13.4C15.2418 13.4 15.6 13.0418 15.6 12.6C15.6 12.1582 15.2418 11.8 14.8 11.8C14.3582 11.8 14 12.1582 14 12.6C14 13.0418 14.3582 13.4 14.8 13.4ZM12.6 13.2C12.6 13.6418 12.2418 14 11.8 14C11.3582 14 11 13.6418 11 13.2C11 12.7582 11.3582 12.4 11.8 12.4C12.2418 12.4 12.6 12.7582 12.6 13.2ZM8.8 13.2C9.24183 13.2 9.6 12.8418 9.6 12.4C9.6 11.9582 9.24183 11.6 8.8 11.6C8.35817 11.6 8 11.9582 8 12.4C8 12.8418 8.35817 13.2 8.8 13.2ZM9.6 10C9.6 10.4418 9.24183 10.8 8.8 10.8C8.35817 10.8 8 10.4418 8 10C8 9.55819 8.35817 9.20002 8.8 9.20002C9.24183 9.20002 9.6 9.55819 9.6 10ZM8.8 8.39999C9.24183 8.39999 9.6 8.04182 9.6 7.59999C9.6 7.15816 9.24183 6.79999 8.8 6.79999C8.35817 6.79999 8 7.15816 8 7.59999C8 8.04182 8.35817 8.39999 8.8 8.39999Z" fill="#3A3A47"/>
</g>
<defs>
<clipPath id="clip0_101581_95">
<rect width="24" height="24" fill="white"/>
</clipPath>
</defs>
</svg>
