<svg width="24" height="24" viewBox="0 0 24 24" fill="none" xmlns="http://www.w3.org/2000/svg">
<path d="M9 5.5V3.5L5 6.5L9 9.5V7.5C11.0137 7.5 13 9.11621 13.0002 11.5C13.0005 13.8838 11.0139 15.5 9 15.5H2V17.5H9C11.9861 17.5 15.0007 15.1162 15.0002 11.5C14.9998 7.88379 11.9863 5.5 9 5.5Z" fill="#24252E"/>
<path d="M2.8811 10.5828C3.02539 9.21143 3.60303 7.98364 4.2937 7.29297L5.70801 8.70728C5.39844 9.0166 4.97583 9.78857 4.86987 10.7925C4.76831 11.7561 4.96826 12.8591 5.78149 13.8752L6.28931 14.5103H3.78271C2.99707 13.1467 2.75269 11.8018 2.8811 10.5828Z" fill="#24252E"/>
<path d="M17 12.5L22 16.5L17 20.5V17.5H12.5C14.5 16.5 15 15.5 15 15.5H17V12.5Z" fill="#24252E"/>
</svg>
