<svg width="24" height="24" viewBox="0 0 24 24" fill="none" xmlns="http://www.w3.org/2000/svg">
<path d="M5 7C4.334 7 4 6.667 4 6C4 5.333 4.333 5 5 5H18.995C19.664 5 19.998 5.333 20 6C20.002 6.667 19.668 7 19 7H5ZM13 11C12.334 11 12.001 10.667 12 10C11.999 9.333 12.331 9 12.997 9H19C19.667 9 20 9.332 20 10C20 10.668 19.667 11 19 11H13ZM5 15C4.334 15 4 14.668 4 14C4 13.332 4.332 13 4.998 13H19C19.667 13 20 13.333 20 14C20 14.667 19.667 15 19 15H5ZM13 19C12.332 19 11.999 18.667 12 18C12.001 17.333 12.336 17 13.003 17H19C19.667 17.006 20 17.341 20 18.005C20 18.668 19.667 19 19 19H13Z" fill="#3A3A47"/>
</svg>
