<svg xmlns="http://www.w3.org/2000/svg" xmlns:xlink="http://www.w3.org/1999/xlink" width="24" height="24" viewBox="0 0 24 24">
    <defs>
        <path id="a" d="M7 12c.667.006 1 .341 1 1.005 0 .663-.333.995-1 .995H1c-.668 0-1.001-.333-1-1 .001-.667.336-1 1.003-1zM.998 8H15c.667 0 1 .333 1 1 0 .619-.287.95-.862.995L15 10H1c-.666 0-1-.332-1-1 0-.62.286-.952.86-.995L.998 8H15zM7 4c.667 0 1 .332 1 1 0 .62-.287.952-.862.995L7 6H1c-.666 0-.999-.333-1-1 0-.619.286-.95.86-.995L.996 4H7zm7.995-4c.669 0 1.003.333 1.005 1 .001.619-.286.95-.862.995L15 2H1c-.666 0-1-.333-1-1C0 .381.287.05.862.005L.999 0h13.996z"/>
    </defs>
    <use fill="#3A3A47" fill-rule="evenodd" transform="translate(4 5)" xlink:href="#a"/>
</svg>
