<svg xmlns="http://www.w3.org/2000/svg" width="24" height="24" viewBox="0 0 24 24">
    <path fill="#3A3A47" fill-rule="evenodd" d="M15 17c.667.006 1 .341 1 1.005 0 .663-.333.995-1 .995H9c-.668 0-1.001-.333-1-1 .001-.667.336-1 1.003-1zM4.998 13H19c.667 0 1 .333 1 1 0 .619-.287.95-.862.995L19 15H5c-.666 0-1-.332-1-1 0-.62.286-.952.86-.995L4.998 13H19zM15 9c.667 0 1 .332 1 1 0 .62-.287.952-.862.995L15 11H9c-.666 0-.999-.333-1-1 0-.619.286-.95.86-.995L8.996 9H15zm3.995-4c.669 0 1.003.333 1.005 1 .001.619-.286.95-.862.995L19 7H5c-.666 0-1-.333-1-1 0-.619.287-.95.862-.995L4.999 5h13.996z"/>
</svg>
