<svg width="24" height="24" viewBox="0 0 24 24" fill="none" xmlns="http://www.w3.org/2000/svg">
<path d="M5 7C4.334 7 4 6.667 4 6C4 5.333 4.333 5 5 5H18.995C19.664 5 19.998 5.333 20 6C20.002 6.667 19.668 7 19 7H5ZM5 11C4.334 11 4.001 10.667 4 10C3.999 9.333 4.331 9 4.997 9H11C11.667 9 12 9.332 12 10C12 10.668 11.667 11 11 11H5ZM5 15C4.334 15 4 14.668 4 14C4 13.332 4.332 13 4.998 13H19C19.667 13 20 13.333 20 14C20 14.667 19.667 15 19 15H5ZM5 19C4.332 19 3.999 18.667 4 18C4.001 17.333 4.336 17 5.003 17H11C11.667 17.006 12 17.341 12 18.005C12 18.668 11.667 19 11 19H5Z" fill="#3A3A47"/>
</svg>
