<svg width="24" height="24" viewBox="0 0 24 24" fill="none" xmlns="http://www.w3.org/2000/svg">
<path d="M5 7C4.334 7 4 6.667 4 6C4 5.333 4.333 5 5 5H18.995C19.664 5 19.998 5.333 20 6C20.002 6.667 19.668 7 19 7H5ZM9 11C8.334 11 8.001 10.667 8 10C7.999 9.333 8.331 9 8.997 9H15C15.667 9 16 9.332 16 10C16 10.668 15.667 11 15 11H9ZM5 15C4.334 15 4 14.668 4 14C4 13.332 4.332 13 4.998 13H19C19.667 13 20 13.333 20 14C20 14.667 19.667 15 19 15H5ZM9 19C8.332 19 7.999 18.667 8 18C8.001 17.333 8.336 17 9.003 17H15C15.667 17.006 16 17.341 16 18.005C16 18.668 15.667 19 15 19H9Z" fill="#3A3A47"/>
</svg>
