<svg xmlns="http://www.w3.org/2000/svg" xmlns:xlink="http://www.w3.org/1999/xlink" width="24" height="24" viewBox="0 0 24 24">
    <defs>
        <path id="a" d="M5 7c-.666 0-1-.333-1-1s.333-1 1-1h13.995c.669 0 1.003.333 1.005 1 .002.667-.332 1-1 1H5zm0 4c-.666 0-.999-.333-1-1-.001-.667.331-1 .997-1H19c.667 0 1 .332 1 1 0 .668-.333 1-1 1H5zm0 4c-.666 0-1-.332-1-1 0-.668.332-1 .998-1H19c.667 0 1 .333 1 1s-.333 1-1 1H5zm0 4c-.668 0-1.001-.333-1-1 .001-.667.336-1 1.003-1H19c.667.006 1 .341 1 1.005 0 .663-.333.995-1 .995H5z"/>
    </defs>
    <use fill="#686A75" fill-rule="evenodd" xlink:href="#a"/>
</svg>
