<svg width="24" height="24" viewBox="0 0 24 24" fill="none" xmlns="http://www.w3.org/2000/svg">
<path fill-rule="evenodd" clip-rule="evenodd" d="M14.707 16.294C14.8025 16.3863 14.8787 16.4966 14.9311 16.6186C14.9835 16.7406 15.0111 16.8718 15.0123 17.0046C15.0134 17.1374 14.9881 17.2691 14.9378 17.392C14.8875 17.5149 14.8133 17.6265 14.7194 17.7204C14.6255 17.8143 14.5139 17.8886 14.391 17.9388C14.2681 17.9891 14.1364 18.0144 14.0036 18.0133C13.8708 18.0121 13.7396 17.9845 13.6176 17.9321C13.4956 17.8797 13.3852 17.8035 13.293 17.708L8.293 12.708C8.10553 12.5205 8.00021 12.2662 8.00021 12.001C8.00021 11.7358 8.10553 11.4815 8.293 11.294L13.294 6.29301C13.4826 6.11085 13.7352 6.01006 13.9974 6.01234C14.2596 6.01461 14.5104 6.11978 14.6958 6.30519C14.8812 6.4906 14.9864 6.74141 14.9887 7.00361C14.991 7.26581 14.8902 7.51841 14.708 7.70701L10.414 12.001L14.707 16.294Z" fill="#3A3A47"/>
</svg>
