<svg width="24" height="24" viewBox="0 0 24 24" fill="none" xmlns="http://www.w3.org/2000/svg">
<path fill-rule="evenodd" clip-rule="evenodd" d="M8.294 7.70699C8.19849 7.61474 8.1223 7.5044 8.0699 7.38239C8.01749 7.26039 7.9899 7.12917 7.98875 6.99639C7.98759 6.86361 8.01289 6.73193 8.06317 6.60904C8.11346 6.48614 8.18771 6.37449 8.2816 6.28059C8.37549 6.1867 8.48715 6.11245 8.61004 6.06217C8.73294 6.01189 8.86462 5.98659 8.9974 5.98774C9.13018 5.98889 9.2614 6.01648 9.3834 6.06889C9.50541 6.1213 9.61575 6.19748 9.708 6.29299L14.708 11.293C14.8955 11.4805 15.0008 11.7348 15.0008 12C15.0008 12.2652 14.8955 12.5195 14.708 12.707L9.708 17.708C9.52049 17.8956 9.26612 18.0011 9.00085 18.0012C8.73558 18.0013 8.48114 17.896 8.2935 17.7085C8.10586 17.521 8.00039 17.2666 8.00029 17.0013C8.0002 16.7361 8.10549 16.4816 8.293 16.294L12.587 12L8.294 7.70699Z" fill="#3A3A47"/>
</svg>
