<svg width="24" height="24" viewBox="0 0 24 24" fill="none" xmlns="http://www.w3.org/2000/svg">
<path fill-rule="evenodd" clip-rule="evenodd" d="M12.707 16.294C12.8892 16.4826 12.99 16.7352 12.9877 16.9974C12.9854 17.2596 12.8802 17.5104 12.6948 17.6958C12.5094 17.8812 12.2586 17.9864 11.9964 17.9887C11.7342 17.991 11.4816 17.8902 11.293 17.708L6.293 12.708C6.10553 12.5205 6.00021 12.2662 6.00021 12.001C6.00021 11.7358 6.10553 11.4815 6.293 11.294L11.294 6.29301C11.4826 6.11085 11.7352 6.01006 11.9974 6.01234C12.2596 6.01461 12.5104 6.11978 12.6958 6.30519C12.8812 6.4906 12.9864 6.74141 12.9887 7.00361C12.991 7.26581 12.8902 7.51841 12.708 7.70701L8.414 12.001L12.707 16.294ZM17.707 16.294C17.8892 16.4826 17.99 16.7352 17.9877 16.9974C17.9854 17.2596 17.8802 17.5104 17.6948 17.6958C17.5094 17.8812 17.2586 17.9864 16.9964 17.9887C16.7342 17.991 16.4816 17.8902 16.293 17.708L11.293 12.708C11.1055 12.5205 11.0002 12.2662 11.0002 12.001C11.0002 11.7358 11.1055 11.4815 11.293 11.294L16.294 6.29301C16.4826 6.11085 16.7352 6.01006 16.9974 6.01234C17.2596 6.01461 17.5104 6.11978 17.6958 6.30519C17.8812 6.4906 17.9864 6.74141 17.9887 7.00361C17.991 7.26581 17.8902 7.51841 17.708 7.70701L13.414 12.001L17.707 16.294Z" fill="#3A3A47"/>
</svg>
