<svg width="24" height="24" viewBox="0 0 24 24" fill="none" xmlns="http://www.w3.org/2000/svg">
<path fill-rule="evenodd" clip-rule="evenodd" d="M7.70699 14.707C7.61474 14.8025 7.5044 14.8787 7.38239 14.9311C7.26039 14.9835 7.12917 15.0111 6.99639 15.0123C6.86361 15.0134 6.73193 14.9881 6.60904 14.9378C6.48614 14.8875 6.37449 14.8133 6.28059 14.7194C6.1867 14.6255 6.11245 14.5139 6.06217 14.391C6.01189 14.2681 5.98659 14.1364 5.98774 14.0036C5.98889 13.8708 6.01648 13.7396 6.06889 13.6176C6.1213 13.4956 6.19748 13.3852 6.29299 13.293L11.293 8.293C11.4805 8.10553 11.7348 8.00021 12 8.00021C12.2652 8.00021 12.5195 8.10553 12.707 8.293L17.708 13.294C17.8901 13.4826 17.9909 13.7352 17.9887 13.9974C17.9864 14.2596 17.8812 14.5104 17.6958 14.6958C17.5104 14.8812 17.2596 14.9864 16.9974 14.9887C16.7352 14.991 16.4826 14.8902 16.294 14.708L12 10.414L7.70699 14.707Z" fill="#3A3A47"/>
</svg>
