<svg width="24" height="24" viewBox="0 0 24 24" fill="none" xmlns="http://www.w3.org/2000/svg">
<path fill-rule="evenodd" clip-rule="evenodd" d="M11.294 7.70701C11.1118 7.51841 11.011 7.26581 11.0133 7.00361C11.0156 6.74141 11.1208 6.4906 11.3062 6.30519C11.4916 6.11978 11.7424 6.01461 12.0046 6.01234C12.2668 6.01006 12.5194 6.11085 12.708 6.29301L17.708 11.293C17.8955 11.4805 18.0008 11.7348 18.0008 12C18.0008 12.2652 17.8955 12.5195 17.708 12.707L12.708 17.708C12.5205 17.8957 12.2661 18.0011 12.0009 18.0012C11.7356 18.0013 11.4811 17.896 11.2935 17.7085C11.1059 17.521 11.0004 17.2666 11.0003 17.0014C11.0002 16.7361 11.1055 16.4817 11.293 16.294L15.587 12L11.294 7.70701ZM6.294 7.70701C6.11184 7.51841 6.01105 7.26581 6.01333 7.00361C6.0156 6.74141 6.12077 6.4906 6.30618 6.30519C6.49159 6.11978 6.7424 6.01461 7.0046 6.01234C7.2668 6.01006 7.5194 6.11085 7.708 6.29301L12.708 11.293C12.8955 11.4805 13.0008 11.7348 13.0008 12C13.0008 12.2652 12.8955 12.5195 12.708 12.707L7.708 17.708C7.61516 17.8009 7.50492 17.8746 7.38359 17.9249C7.26226 17.9752 7.1322 18.0012 7.00085 18.0012C6.73558 18.0013 6.48114 17.896 6.2935 17.7085C6.10586 17.521 6.00039 17.2666 6.0003 17.0014C6.0002 16.7361 6.10549 16.4817 6.293 16.294L10.587 12L6.294 7.70701Z" fill="#3A3A47"/>
</svg>
