<svg width="24" height="24" viewBox="0 0 24 24" fill="none" xmlns="http://www.w3.org/2000/svg">
<path fill-rule="evenodd" clip-rule="evenodd" d="M16.294 8.294C16.3862 8.19849 16.4966 8.1223 16.6186 8.0699C16.7406 8.01749 16.8718 7.9899 17.0046 7.98875C17.1374 7.98759 17.2691 8.01289 17.392 8.06317C17.5148 8.11346 17.6265 8.18771 17.7204 8.2816C17.8143 8.37549 17.8885 8.48715 17.9388 8.61004C17.9891 8.73294 18.0144 8.86462 18.0132 8.9974C18.0121 9.13018 17.9845 9.2614 17.9321 9.3834C17.8797 9.50541 17.8035 9.61575 17.708 9.708L12.708 14.708C12.5205 14.8955 12.2662 15.0008 12.001 15.0008C11.7358 15.0008 11.4815 14.8955 11.294 14.708L6.293 9.708C6.10536 9.52049 5.99989 9.26612 5.99979 9.00085C5.99975 8.8695 6.02557 8.73943 6.07579 8.61806C6.12602 8.49669 6.19965 8.38641 6.2925 8.2935C6.38534 8.20059 6.49558 8.12687 6.61691 8.07657C6.73824 8.02626 6.86829 8.00034 6.99964 8.00029C7.26491 8.0002 7.51936 8.10549 7.707 8.293L12.001 12.587L16.294 8.294Z" fill="#3A3A47"/>
</svg>
