<svg width="24" height="24" viewBox="0 0 24 24" fill="none" xmlns="http://www.w3.org/2000/svg">
<path fill-rule="evenodd" clip-rule="evenodd" d="M13.0303 2.21937C13.3234 2.5121 13.3237 2.98697 13.0309 3.28003C12.5613 3.75016 12.2193 4.7332 12.0831 6.07766C11.9513 7.37858 12.028 8.85404 12.2401 10.1267C12.3082 10.5353 12.0322 10.9217 11.6236 10.9898C11.215 11.0579 10.8286 10.7819 10.7605 10.3733C10.53 8.99024 10.4435 7.37963 10.5907 5.92644C10.7336 4.5168 11.1129 3.0777 11.9697 2.21997C12.2624 1.92691 12.7373 1.92664 13.0303 2.21937Z" fill="#3A3A47"/>
<path fill-rule="evenodd" clip-rule="evenodd" d="M13.0303 2.21937C13.3234 2.5121 13.3237 2.98697 13.0309 3.28003C12.5613 3.75016 12.2193 4.7332 12.0831 6.07766C11.9513 7.37858 12.028 8.85404 12.2401 10.1267C12.3082 10.5353 12.0322 10.9217 11.6236 10.9898C11.215 11.0579 10.8286 10.7819 10.7605 10.3733C10.53 8.99024 10.4435 7.37963 10.5907 5.92644C10.7336 4.5168 11.1129 3.0777 11.9697 2.21997C12.2624 1.92691 12.7373 1.92664 13.0303 2.21937Z" fill="#3A3A47"/>
<path fill-rule="evenodd" clip-rule="evenodd" d="M15.3992 9.62455C15.6066 9.98308 15.4841 10.4419 15.1256 10.6493C11.5567 12.714 8.97504 11.4075 8.18257 10.4905C7.91172 10.1771 7.94621 9.70353 8.2596 9.43268C8.57299 9.16183 9.04661 9.19632 9.31746 9.50971C9.61589 9.85502 11.3979 11.073 14.3744 9.35094C14.733 9.14351 15.1918 9.26601 15.3992 9.62455Z" fill="#3A3A47"/>
<path d="M14.599 4.04652C14.1823 4.32034 13.8423 4.69386 13.5966 5.12771C13.3424 5.57646 13.0782 6.13408 12.8119 6.76276C12.2543 8.0789 13.3551 7.94983 14.7704 7.75C15.4197 7.54896 16.7107 7.29742 17.2462 7.01159C19.8899 5.60044 17.7782 1.95754 14.599 4.04652Z" fill="#3A3A47"/>
<path d="M16.927 8.19751C17.1515 8.11396 17.3701 8.02626 17.5822 7.93476C18.102 7.71056 18.5851 7.42584 18.9809 7.07932C20.8329 8.36116 22 10.3449 22 12.9384C22 16.7087 19.5157 20.6139 15.8231 22.0206C14.6762 22.4575 13.5951 22.1605 13.0713 22.0138C12.9081 21.968 12.7737 21.9295 12.6614 21.8973C12.2799 21.7878 12.1511 21.7509 12.0002 21.7509C12.0002 21.7509 11.9932 21.751 11.9782 21.7521C11.9619 21.7534 11.9389 21.7558 11.9083 21.76C11.8451 21.7687 11.7641 21.7832 11.6586 21.8058C11.5091 21.8378 11.3805 21.8696 11.2246 21.9081C11.1224 21.9334 11.0085 21.9616 10.8692 21.9946C10.5723 22.0651 10.1877 22.1497 9.78913 22.1889C9.40099 22.2271 8.85788 22.2385 8.28879 22.0595C4.15357 20.7588 2 16.7595 2 12.9384C2 10.231 3.27187 8.18804 5.26703 6.91446C6.53788 6.10323 8.05238 5.62992 9.64477 5.40719C9.62592 5.54873 9.60973 5.68847 9.59583 5.82562C9.54213 6.35559 9.51754 6.90251 9.51807 7.45096C6.31477 8.00615 4 9.73579 4 12.9384C4 16.0894 5.7657 19.1693 8.88889 20.1516C9.37409 20.3043 10.0448 20.139 10.7028 19.9768C11.1642 19.8631 11.6193 19.7509 12 19.7509C12.4576 19.7509 12.9062 19.8825 13.3428 20.0105C13.959 20.1912 14.5513 20.3649 15.1111 20.1516C17.9839 19.0572 20 15.9272 20 12.9384C20 10.6303 18.7977 9.08723 16.927 8.19751Z" fill="#3A3A47"/>
</svg>
