<svg width="24" height="24" viewBox="0 0 24 24" fill="none" xmlns="http://www.w3.org/2000/svg">
<path fill-rule="evenodd" clip-rule="evenodd" d="M13.0303 2.21937C13.3234 2.5121 13.3237 2.98697 13.0309 3.28003C12.5613 3.75016 12.2193 4.7332 12.0831 6.07766C11.9513 7.37858 12.028 8.85404 12.2401 10.1267C12.3082 10.5353 12.0322 10.9217 11.6236 10.9898C11.215 11.0579 10.8286 10.7819 10.7605 10.3733C10.53 8.99024 10.4435 7.37963 10.5907 5.92644C10.7336 4.5168 11.1129 3.0777 11.9697 2.21997C12.2624 1.92691 12.7373 1.92664 13.0303 2.21937Z" fill="#3A3A47"/>
<path d="M14.599 4.04652C14.1823 4.32034 13.8423 4.69386 13.5966 5.12771C13.3424 5.57646 13.0782 6.13408 12.8119 6.76276C12.2543 8.0789 13.3551 7.94982 14.7704 7.75C15.4197 7.54896 16.7107 7.29742 17.2462 7.01159C19.8899 5.60044 17.7782 1.95754 14.599 4.04652Z" fill="#3A3A47"/>
<path fill-rule="evenodd" clip-rule="evenodd" d="M19.6321 7.58382C21.1023 8.85822 22 10.6638 22 12.9384C22 16.7087 19.5157 20.6139 15.8231 22.0206C14.6762 22.4575 13.5951 22.1605 13.0713 22.0138C12.9081 21.968 12.7737 21.9295 12.6614 21.8973C12.2799 21.7878 12.1511 21.7509 12.0002 21.7509C12.0002 21.7509 11.9932 21.751 11.9782 21.7521C11.9619 21.7534 11.9389 21.7558 11.9083 21.76C11.8451 21.7687 11.7641 21.7832 11.6586 21.8058C11.5091 21.8378 11.3805 21.8696 11.2246 21.9081C11.1224 21.9334 11.0085 21.9616 10.8692 21.9946C10.5723 22.0651 10.1877 22.1497 9.78913 22.1889C9.40099 22.2271 8.85788 22.2385 8.28879 22.0595C4.15357 20.7588 2 16.7595 2 12.9384C2 10.231 3.27187 8.18804 5.26703 6.91446C6.21458 6.30961 7.38147 5.67935 8.57142 5.31179C9.15415 5.13179 9.66379 5.59686 9.62306 6.2054C9.55855 7.16923 9.50294 8.4417 9.69746 9.05152C9.98304 9.94683 11.7811 10.9339 13.2434 9.3597C13.4182 9.17145 13.6412 9.02885 13.8938 8.98208C15.3526 8.71196 17.1796 8.23255 18.3191 7.56609C18.7323 7.32446 19.2705 7.27032 19.6321 7.58382Z" fill="#3A3A47"/>
</svg>
