<svg width="24" height="24" viewBox="0 0 24 24" fill="none" xmlns="http://www.w3.org/2000/svg">
<path fill-rule="evenodd" clip-rule="evenodd" d="M3 7.994C2.333 7.994 2 7.661 2 6.995V3.998C2 2.666 2.68 2 4.038 2H20C21.333 2 22 2.666 22 3.998V6.995C22 7.661 21.67 7.995 21.007 7.995H21V19.983C21 21.29 20.333 21.956 19 21.981C17.667 22.006 13 22.006 5 21.981C3.667 21.981 3 21.315 3 19.983V7.994ZM4 3.998V5.996H20V3.998H4ZM5 7.994V19.984H19V7.993H5V7.994ZM9 9.993H15C15.667 9.993 16 10.326 16 10.992C16 11.658 15.667 11.991 15 11.991H9C8.333 11.991 8 11.658 8 10.991C8 10.326 8.333 9.993 9 9.993Z" fill="#3A3A47"/>
</svg>
