<svg width="24" height="24" viewBox="0 0 24 24" fill="none" xmlns="http://www.w3.org/2000/svg">
<path fill-rule="evenodd" clip-rule="evenodd" d="M7.414 11.001H19C19.667 11.001 20 11.335 20 12.001C20 12.668 19.667 13.001 19 13.001H7.414L10.707 16.294C10.8025 16.3862 10.8787 16.4966 10.9311 16.6186C10.9835 16.7406 11.0111 16.8718 11.0123 17.0046C11.0134 17.1374 10.9881 17.269 10.9378 17.3919C10.8875 17.5148 10.8133 17.6265 10.7194 17.7204C10.6255 17.8143 10.5139 17.8885 10.391 17.9388C10.2681 17.9891 10.1364 18.0144 10.0036 18.0132C9.87082 18.0121 9.7396 17.9845 9.6176 17.9321C9.49559 17.8797 9.38525 17.8035 9.293 17.708L4.293 12.708C4.10553 12.5205 4.00021 12.2662 4.00021 12.001C4.00021 11.7358 4.10553 11.4815 4.293 11.294L9.294 6.29299C9.38625 6.19748 9.49659 6.1213 9.6186 6.06889C9.7406 6.01648 9.87182 5.98889 10.0046 5.98774C10.1374 5.98659 10.2691 6.01189 10.392 6.06217C10.5149 6.11245 10.6265 6.1867 10.7204 6.28059C10.8143 6.37449 10.8885 6.48614 10.9388 6.60904C10.9891 6.73193 11.0144 6.86361 11.0133 6.99639C11.0121 7.12917 10.9845 7.26039 10.9321 7.38239C10.8797 7.5044 10.8035 7.61474 10.708 7.70699L7.414 11.001Z" fill="#3A3A47"/>
</svg>
