<svg width="24" height="24" viewBox="0 0 24 24" fill="none" xmlns="http://www.w3.org/2000/svg">
<path fill-rule="evenodd" clip-rule="evenodd" d="M13 7.414V19C13 19.667 12.667 20 12 20C11.333 20 11 19.667 11 19V7.414L7.70699 10.707C7.61474 10.8025 7.5044 10.8787 7.38239 10.9311C7.26039 10.9835 7.12917 11.0111 6.99639 11.0123C6.86361 11.0134 6.73193 10.9881 6.60904 10.9378C6.48614 10.8875 6.37449 10.8133 6.28059 10.7194C6.1867 10.6255 6.11245 10.5139 6.06217 10.391C6.01189 10.2681 5.98659 10.1364 5.98774 10.0036C5.98889 9.87082 6.01648 9.7396 6.06889 9.6176C6.1213 9.49559 6.19748 9.38525 6.29299 9.293L11.293 4.293C11.4805 4.10553 11.7348 4.00021 12 4.00021C12.2652 4.00021 12.5195 4.10553 12.707 4.293L17.708 9.294C17.8035 9.38625 17.8797 9.49659 17.9321 9.6186C17.9845 9.7406 18.0121 9.87182 18.0132 10.0046C18.0144 10.1374 17.9891 10.2691 17.9388 10.392C17.8885 10.5149 17.8143 10.6265 17.7204 10.7204C17.6265 10.8143 17.5148 10.8885 17.3919 10.9388C17.269 10.9891 17.1374 11.0144 17.0046 11.0133C16.8718 11.0121 16.7406 10.9845 16.6186 10.9321C16.4966 10.8797 16.3862 10.8035 16.294 10.708L13 7.414Z" fill="#3A3A47"/>
</svg>
