<svg width="24" height="24" viewBox="0 0 24 24" fill="none" xmlns="http://www.w3.org/2000/svg">
<path fill-rule="evenodd" clip-rule="evenodd" d="M11.001 16.586V5.005C11.002 4.336 11.336 4.002 12.001 4C12.667 3.999 13.001 4.332 13.001 5V16.586L16.294 13.293C16.3862 13.1975 16.4966 13.1213 16.6186 13.0689C16.7406 13.0165 16.8718 12.9889 17.0046 12.9878C17.1374 12.9866 17.269 13.0119 17.3919 13.0622C17.5148 13.1125 17.6265 13.1867 17.7204 13.2806C17.8143 13.3745 17.8885 13.4862 17.9388 13.609C17.9891 13.7319 18.0144 13.8636 18.0132 13.9964C18.0121 14.1292 17.9845 14.2604 17.9321 14.3824C17.8797 14.5044 17.8035 14.6148 17.708 14.707L12.708 19.707C12.5205 19.8945 12.2662 19.9998 12.001 19.9998C11.7358 19.9998 11.4815 19.8945 11.294 19.707L6.29299 14.706C6.19748 14.6138 6.1213 14.5034 6.06889 14.3814C6.01648 14.2594 5.98889 14.1282 5.98774 13.9954C5.98659 13.8626 6.01189 13.7309 6.06217 13.608C6.11245 13.4852 6.1867 13.3735 6.28059 13.2796C6.37449 13.1857 6.48614 13.1115 6.60904 13.0612C6.73193 13.0109 6.86361 12.9856 6.99639 12.9868C7.12917 12.9879 7.26039 13.0155 7.38239 13.0679C7.5044 13.1203 7.61474 13.1965 7.70699 13.292L11.001 16.586Z" fill="#3A3A47"/>
</svg>
