<svg width="24" height="24" viewBox="0 0 24 24" fill="none" xmlns="http://www.w3.org/2000/svg">
<path fill-rule="evenodd" clip-rule="evenodd" d="M16.586 13H5C4.333 13 4 12.668 4 12C4 11.332 4.333 11 5 11H16.586L13.293 7.70699C13.1975 7.61474 13.1213 7.5044 13.0689 7.38239C13.0165 7.26039 12.9889 7.12917 12.9877 6.99639C12.9866 6.86361 13.0119 6.73193 13.0622 6.60904C13.1125 6.48614 13.1867 6.37449 13.2806 6.28059C13.3745 6.1867 13.4861 6.11245 13.609 6.06217C13.7319 6.01189 13.8636 5.98659 13.9964 5.98774C14.1292 5.98889 14.2604 6.01648 14.3824 6.06889C14.5044 6.1213 14.6148 6.19748 14.707 6.29299L19.707 11.293C19.8945 11.4805 19.9998 11.7348 19.9998 12C19.9998 12.2652 19.8945 12.5195 19.707 12.707L14.706 17.708C14.6138 17.8035 14.5034 17.8797 14.3814 17.9321C14.2594 17.9845 14.1282 18.0121 13.9954 18.0132C13.8626 18.0144 13.7309 17.9891 13.608 17.9388C13.4851 17.8885 13.3735 17.8143 13.2796 17.7204C13.1857 17.6265 13.1115 17.5148 13.0612 17.3919C13.0109 17.269 12.9856 17.1374 12.9867 17.0046C12.9879 16.8718 13.0155 16.7406 13.0679 16.6186C13.1203 16.4966 13.1965 16.3862 13.292 16.294L16.586 13Z" fill="#3A3A47"/>
</svg>
