<svg width="24" height="24" viewBox="0 0 24 24" fill="none" xmlns="http://www.w3.org/2000/svg">
<path fill-rule="evenodd" clip-rule="evenodd" d="M20.1753 8.66255C19.9062 6.80671 18.5678 5.40681 16.9447 4.73846C15.9789 3.01921 14.022 2 12.001 2C9.97997 2 8.02301 3.01921 7.05729 4.73846C5.43521 5.40637 4.09753 6.80488 3.82721 8.6589C2.7516 9.54577 2 10.8546 2 12.4117C2 15.4775 4.78043 17.4705 7.55567 17.4705C7.70401 17.4705 7.85133 17.4652 7.99737 17.4547C8.8074 18.22 9.86085 18.7286 11 18.9176V20H3C2.44772 20 2 20.4477 2 21C2 21.5523 2.44772 22 3 22H21C21.5523 22 22 21.5523 22 21C22 20.4477 21.5523 20 21 20H13V18.918C14.1398 18.7292 15.1939 18.2206 16.0043 17.455C16.1492 17.4653 16.2953 17.4705 16.4424 17.4705C19.2176 17.4705 21.9981 15.4775 21.9981 12.4117C21.9981 10.8567 21.2485 9.54935 20.1753 8.66255ZM13 16.8776C13.9681 16.6343 14.7652 16.0463 15.1997 15.2785C15.5865 15.4026 16.0053 15.4705 16.4424 15.4705C18.4061 15.4705 19.9981 14.101 19.9981 12.4117C19.9981 11.2705 19.2717 10.2753 18.195 9.74961C18.2145 9.61974 18.2246 9.48731 18.2246 9.35286C18.2246 7.8994 17.0462 6.68271 15.4665 6.37128C15.1038 5.01301 13.6899 4 12.001 4C10.312 4 8.89814 5.01301 8.53549 6.37128C6.95575 6.68271 5.77734 7.8994 5.77734 9.35286C5.77734 9.4867 5.78734 9.61853 5.80671 9.74783C4.72802 10.2731 4 11.2692 4 12.4117C4 14.101 5.59193 15.4705 7.55567 15.4705C7.99404 15.4705 8.41389 15.4022 8.80163 15.2774C9.23576 16.0452 10.0324 16.6334 11 16.8771V15.8714C10.9758 15.8133 10.9441 15.7404 10.9051 15.6561C10.7953 15.4191 10.6321 15.1032 10.418 14.782C9.96082 14.0963 9.40989 13.591 8.82112 13.4839C8.27774 13.3851 7.91734 12.8646 8.01613 12.3212C8.11493 11.7778 8.63551 11.4174 9.17889 11.5162C10.4377 11.7451 11.3288 12.6336 11.8919 13.4007C11.9297 13.332 11.9689 13.2625 12.0096 13.1922C12.6884 12.0197 13.822 10.5734 15.5862 9.77152C16.089 9.54298 16.6818 9.7653 16.9104 10.2681C17.1389 10.7709 16.9166 11.3637 16.4138 11.5923C15.178 12.154 14.3116 13.2077 13.7404 14.1943C13.4591 14.6802 13.2616 15.129 13.1353 15.4543C13.0726 15.616 13.028 15.7454 13 15.8316V16.8776Z" fill="#3A3A47"/>
</svg>
