<svg width="24" height="24" viewBox="0 0 24 24" fill="none" xmlns="http://www.w3.org/2000/svg">
<path fill-rule="evenodd" clip-rule="evenodd" d="M16.9447 4.73846C18.5678 5.40681 19.9062 6.80671 20.1753 8.66255C21.2485 9.54935 21.9981 10.8567 21.9981 12.4117C21.9981 15.4775 19.2176 17.4705 16.4424 17.4705C16.2953 17.4705 16.1492 17.4653 16.0043 17.455C15.1939 18.2206 14.1398 18.7292 13 18.918V20H21C21.5523 20 22 20.4477 22 21C22 21.5523 21.5523 22 21 22H3C2.44772 22 2 21.5523 2 21C2 20.4477 2.44772 20 3 20H11V18.9176C9.86085 18.7286 8.8074 18.22 7.99737 17.4547C7.85133 17.4652 7.70401 17.4705 7.55567 17.4705C4.78043 17.4705 2 15.4775 2 12.4117C2 10.8546 2.7516 9.54577 3.82721 8.6589C4.09753 6.80488 5.43521 5.40637 7.05729 4.73846C8.02301 3.01921 9.97997 2 12.001 2C14.022 2 15.9789 3.01921 16.9447 4.73846ZM15.5864 9.77152C16.0892 9.54298 16.6821 9.7653 16.9106 10.2681C17.1391 10.7709 16.9168 11.3637 16.414 11.5923C15.1782 12.154 14.3119 13.2077 13.7407 14.1943C13.4593 14.6802 13.2619 15.129 13.1356 15.4543C13.0728 15.616 13.0283 15.7454 13.0002 15.8316V16C13.0002 16.5523 12.5525 17 12.0002 17C11.448 17 11.0002 16.5523 11.0002 16V15.8714C10.976 15.8133 10.9444 15.7404 10.9053 15.6561C10.7956 15.4191 10.6323 15.1032 10.4182 14.782C9.96106 14.0963 9.41013 13.591 8.82136 13.4839C8.27798 13.3851 7.91758 12.8646 8.01637 12.3212C8.11517 11.7778 8.63575 11.4174 9.17913 11.5162C10.438 11.7451 11.3291 12.6336 11.8921 13.4007C11.9299 13.332 11.9692 13.2625 12.0098 13.1922C12.6886 12.0197 13.8223 10.5734 15.5864 9.77152Z" fill="#3A3A47"/>
</svg>
