<svg width="24" height="24" viewBox="0 0 24 24" fill="none" xmlns="http://www.w3.org/2000/svg">
<path fill-rule="evenodd" clip-rule="evenodd" d="M10.9999 5.99988V4.38269C10.9999 3.83041 11.4476 3.38269 11.9999 3.38269C12.5522 3.38269 12.9999 3.83041 12.9999 4.38269V5.99988H10.9999ZM10.9999 7.99988H12.9999V11.3827H19.3334C19.8857 11.3827 20.3334 11.8304 20.3334 12.3827V15.9999H18.3334V13.3827H12.9999V15.9999H10.9999V13.3827H5.66638L5.66638 15.9999H3.66638V12.3827C3.66638 11.8304 4.1141 11.3827 4.66638 11.3827H10.9999V7.99988Z" fill="#3A3A47"/>
<path fill-rule="evenodd" clip-rule="evenodd" d="M4.66654 1.99988C4.29835 1.99988 3.99988 2.29835 3.99988 2.66654V5.33321C3.99988 5.7014 4.29836 5.99988 4.66654 5.99988H19.3332C19.7014 5.99988 19.9999 5.7014 19.9999 5.33321V2.66654C19.9999 2.29835 19.7014 1.99988 19.3332 1.99988H4.66654ZM3.33256 17.9999C2.96437 17.9999 2.66589 18.2984 2.66589 18.6665V21.3332C2.66589 21.7014 2.96437 21.9999 3.33256 21.9999H5.99923C6.36742 21.9999 6.66589 21.7014 6.66589 21.3332V18.6665C6.66589 18.2984 6.36742 17.9999 5.99923 17.9999H3.33256ZM9.99988 18.6665C9.99988 18.2984 10.2984 17.9999 10.6665 17.9999H13.3332C13.7014 17.9999 13.9999 18.2984 13.9999 18.6665V21.3332C13.9999 21.7014 13.7014 21.9999 13.3332 21.9999H10.6665C10.2984 21.9999 9.99988 21.7014 9.99988 21.3332V18.6665ZM17.9996 17.9999C17.6314 17.9999 17.3329 18.2984 17.3329 18.6665V21.3332C17.3329 21.7014 17.6314 21.9999 17.9996 21.9999H20.6662C21.0344 21.9999 21.3329 21.7014 21.3329 21.3332V18.6665C21.3329 18.2984 21.0344 17.9999 20.6662 17.9999H17.9996Z" fill="#3A3A47"/>
</svg>
