<svg width="24" height="24" viewBox="0 0 24 24" fill="none" xmlns="http://www.w3.org/2000/svg">
<path d="M9.74925 11.8441C9.85269 10.735 10.8863 9.83545 11.9997 9.83545C13.0922 9.83545 14.1001 10.7038 14.2533 11.872C14.3072 12.2827 14.6838 12.5719 15.0945 12.518C15.5052 12.4642 15.7945 12.0875 15.7406 11.6768C15.4922 9.78355 13.8666 8.33545 11.9997 8.33545C10.1539 8.33545 8.43494 9.7833 8.25573 11.7048C8.21727 12.1172 8.52042 12.4827 8.93284 12.5212C9.34527 12.5596 9.71078 12.2565 9.74925 11.8441Z" fill="#3A3A47"/>
<path d="M8.06055 16.0322C8.06055 15.4799 8.50826 15.0322 9.06055 15.0322H14.9398C15.4921 15.0322 15.9398 15.4799 15.9398 16.0322V17.7363C15.9398 18.2886 15.4921 18.7363 14.9398 18.7363H9.06055C8.50826 18.7363 8.06055 18.2886 8.06055 17.7363V16.0322Z" fill="#3A3A47"/>
<path fill-rule="evenodd" clip-rule="evenodd" d="M8 4.93333C8 3.3133 9.3133 2 10.9333 2H13.0667C14.6867 2 16 3.3133 16 4.93333V6.07465C18.3912 7.45789 20 10.0433 20 13.0044V20.7411C20 21.4364 19.4364 22 18.7411 22H5.25893C4.56364 22 4 21.4364 4 20.7411V13.0044C4 10.0433 5.60879 7.45789 8 6.07465V4.93333ZM14.4 4.93333V5.37064C13.6424 5.13268 12.8362 5.00439 12 5.00439C11.1638 5.00439 10.3576 5.13268 9.6 5.37064V4.93333C9.6 4.19695 10.197 3.6 10.9333 3.6H13.0667C13.803 3.6 14.4 4.19695 14.4 4.93333ZM18 20V13.0044C18 9.69069 15.3137 7.00439 12 7.00439C8.68629 7.00439 6 9.69069 6 13.0044V20H18Z" fill="#3A3A47"/>
<path d="M5.35763 2.08987L3.22444 3.59388C3.04723 3.71882 2.96342 3.94808 3.01508 4.16659L3.92111 7.99937C4.64496 6.83241 5.6146 5.83389 6.75771 5.07611L6.12607 2.40406C6.04154 2.04651 5.64759 1.88543 5.35763 2.08987Z" fill="#3A3A47"/>
<path d="M17.2423 5.07611C18.3854 5.83389 19.355 6.83241 20.0789 7.99937L20.9849 4.16659C21.0366 3.94808 20.9528 3.71882 20.7756 3.59388L18.6424 2.08987C18.3524 1.88543 17.9585 2.04651 17.8739 2.40406L17.2423 5.07611Z" fill="#3A3A47"/>
</svg>
