<svg width="24" height="24" viewBox="0 0 24 24" fill="none" xmlns="http://www.w3.org/2000/svg">
<path d="M5.35763 2.08987L3.22444 3.59388C3.04723 3.71882 2.96342 3.94808 3.01508 4.16659L3.92111 7.99937C4.64496 6.83241 5.6146 5.83389 6.75771 5.07611L6.12607 2.40406C6.04154 2.04651 5.64759 1.88543 5.35763 2.08987Z" fill="#3A3A47"/>
<path d="M17.2423 5.07611C18.3854 5.83389 19.355 6.83241 20.0789 7.99937L20.9849 4.16659C21.0366 3.94808 20.9528 3.71882 20.7756 3.59388L18.6424 2.08987C18.3524 1.88543 17.9585 2.04651 17.8739 2.40406L17.2423 5.07611Z" fill="#3A3A47"/>
<path fill-rule="evenodd" clip-rule="evenodd" d="M10.9333 2C9.3133 2 8 3.3133 8 4.93333V6.07026C5.60879 7.4535 4 10.0389 4 13V20.7407C4 21.4362 4.56379 22 5.25926 22H18.7407C19.4362 22 20 21.4362 20 20.7407V13C20 10.0389 18.3912 7.4535 16 6.07026V4.93333C16 3.3133 14.6867 2 13.0667 2H10.9333ZM14.4 5.36624V4.93333C14.4 4.19695 13.803 3.6 13.0667 3.6H10.9333C10.197 3.6 9.6 4.19695 9.6 4.93333V5.36624C10.3576 5.12828 11.1638 5 12 5C12.8362 5 13.6424 5.12828 14.4 5.36624ZM11.9997 9.83545C10.8863 9.83545 9.85269 10.735 9.74925 11.8441C9.71078 12.2565 9.34527 12.5596 8.93284 12.5212C8.52042 12.4827 8.21727 12.1172 8.25573 11.7048C8.43494 9.7833 10.1539 8.33545 11.9997 8.33545C13.8666 8.33545 15.4922 9.78355 15.7406 11.6768C15.7945 12.0875 15.5052 12.4642 15.0945 12.518C14.6838 12.5719 14.3072 12.2827 14.2533 11.872C14.1001 10.7038 13.0922 9.83545 11.9997 9.83545ZM8.06055 16.0322C8.06055 15.4799 8.50826 15.0322 9.06055 15.0322H14.9398C15.4921 15.0322 15.9398 15.4799 15.9398 16.0322V17.7363C15.9398 18.2886 15.4921 18.7363 14.9398 18.7363H9.06055C8.50826 18.7363 8.06055 18.2886 8.06055 17.7363V16.0322Z" fill="#3A3A47"/>
</svg>
