<svg width="24" height="24" viewBox="0 0 24 24" fill="none" xmlns="http://www.w3.org/2000/svg">
<path fill-rule="evenodd" clip-rule="evenodd" d="M12 2C8.68652 2 6.00233 4.11879 6.00196 7H2V20.1084C2 21.3573 2.667 21.9817 4 21.9817C13.333 22.0052 18.667 22.0052 20 21.9817C21.333 21.9583 22 21.3338 22 20.1084V7H18.0019C18.0016 4.11879 15.3135 2 12 2ZM12.0016 3.89648C14.1103 3.89648 15.8219 5.16633 15.8219 7H8.18555C8.18555 5.16633 9.89285 3.89648 12.0016 3.89648ZM15.8219 8.87512H18.0019C17.999 11.9795 15.3138 14.4953 12.002 14.4953C8.69009 14.4953 6.00495 11.9795 6.00196 8.87512H8.18555C8.18901 10.8494 9.89714 12.4489 12.0037 12.4489C14.1103 12.4489 15.8184 10.8494 15.8219 8.87512Z" fill="#3A3A47"/>
</svg>
