<svg width="24" height="24" viewBox="0 0 24 24" fill="none" xmlns="http://www.w3.org/2000/svg">
<g clip-path="url(#clip0_101562_359)">
<path d="M6.00196 7C6.00233 4.11879 8.68652 2 12 2C15.3135 2 18.0016 4.11879 18.0019 7H15.8219C15.8219 5.16633 14.1103 3.89648 12.0016 3.89648C9.89285 3.89648 8.18555 5.16633 8.18555 7H6.00196Z" fill="#3A3A47"/>
<path fill-rule="evenodd" clip-rule="evenodd" d="M2 7H22V20.1084C22 21.3338 21.333 21.9583 20 21.9817C18.667 22.0052 13.333 22.0052 4 21.9817C2.667 21.9817 2 21.3573 2 20.1084V7ZM15.8219 8.87512H18.0019C17.999 11.9795 15.3138 14.4953 12.002 14.4953C8.69009 14.4953 6.00495 11.9795 6.00196 8.87512H8.18555C8.18901 10.8494 9.89714 12.4489 12.0037 12.4489C14.1103 12.4489 15.8184 10.8494 15.8219 8.87512Z" fill="#3A3A47"/>
</g>
<defs>
<clipPath id="clip0_101562_359">
<rect width="20" height="20" fill="white" transform="translate(2 2)"/>
</clipPath>
</defs>
</svg>
