<svg width="24" height="24" viewBox="0 0 24 24" fill="none" xmlns="http://www.w3.org/2000/svg">
<path fill-rule="evenodd" clip-rule="evenodd" d="M4 2C2.89543 2 2 2.89543 2 4V20C2 21.1046 2.89543 22 4 22H12.8096C11.6888 20.8321 11 19.2465 11 17.5C11 15.0647 12.3393 12.9422 14.3215 11.8288C14.2013 11.2417 14.0109 10.8389 13.8343 10.4652C13.6056 9.98126 13.4 9.54629 13.4 8.82353C13.4 7.26414 14.6642 6 16.2235 6C17.7829 6 19.0471 7.26414 19.0471 8.82353C19.0471 9.35776 18.9642 10.1887 18.8269 11.1355C20.0438 11.388 21.1362 11.9806 22 12.8096V4C22 2.89543 21.1046 2 20 2H4ZM10.2128 10.4652C10.4415 9.98126 10.6471 9.54629 10.6471 8.82353C10.6471 7.26414 9.38292 6 7.82353 6C6.26414 6 5 7.26414 5 8.82353C5 9.95097 5.36898 12.4 5.84018 14.4706H9.67651C9.43029 12.1209 9.85056 11.2316 10.2128 10.4652ZM9.87729 15.8824H6.19618C6.26754 16.135 6.33965 16.3719 6.41176 16.5882C6.56838 17.0581 7.11765 18 8.17647 18C9.23529 18 9.9827 16.9412 9.94118 16.2353C9.91861 16.115 9.89733 15.9973 9.87729 15.8824Z" fill="#3A3A47"/>
<path fill-rule="evenodd" clip-rule="evenodd" d="M17.5 22C19.9853 22 22 19.9853 22 17.5C22 15.0147 19.9853 13 17.5 13C15.0147 13 13 15.0147 13 17.5C13 19.9853 15.0147 22 17.5 22ZM18.25 19.75C18.25 20.1642 17.9142 20.5 17.5 20.5C17.0858 20.5 16.75 20.1642 16.75 19.75V18.25H15.25C14.8358 18.25 14.5 17.9142 14.5 17.5C14.5 17.0858 14.8358 16.75 15.25 16.75H16.75V15.25C16.75 14.8358 17.0858 14.5 17.5 14.5C17.9142 14.5 18.25 14.8358 18.25 15.25V16.75H19.75C20.1642 16.75 20.5 17.0858 20.5 17.5C20.5 17.9142 20.1642 18.25 19.75 18.25H18.25V19.75Z" fill="#3A3A47"/>
</svg>
