<svg width="24" height="24" viewBox="0 0 24 24" fill="none" xmlns="http://www.w3.org/2000/svg">
<path fill-rule="evenodd" clip-rule="evenodd" d="M4 2C2.89543 2 2 2.89543 2 4V20C2 21.1046 2.89543 22 4 22H20C21.1046 22 22 21.1046 22 20V4C22 2.89543 21.1046 2 20 2H4ZM20 4H4V20H20V4Z" fill="#3A3A47"/>
<path d="M10.2128 10.4652C10.4415 9.98126 10.6471 9.54629 10.6471 8.82353C10.6471 7.26414 9.38292 6 7.82353 6C6.26414 6 5 7.26414 5 8.82353C5 9.95097 5.36898 12.4 5.84018 14.4706H9.67651C9.43029 12.1209 9.85056 11.2316 10.2128 10.4652Z" fill="#3A3A47"/>
<path d="M9.87729 15.8824H6.19618C6.26754 16.135 6.33965 16.3719 6.41176 16.5882C6.56838 17.0581 7.11765 18 8.17647 18C9.23529 18 9.9827 16.9412 9.94118 16.2353C9.91861 16.115 9.89733 15.9973 9.87729 15.8824Z" fill="#3A3A47"/>
<path d="M13.8343 10.4652C13.6056 9.98126 13.4 9.54629 13.4 8.82353C13.4 7.26414 14.6642 6 16.2235 6C17.7829 6 19.0471 7.26414 19.0471 8.82353C19.0471 9.95097 18.6781 12.4 18.2069 14.4706H14.3706C14.6168 12.1209 14.1965 11.2316 13.8343 10.4652Z" fill="#3A3A47"/>
<path d="M14.1698 15.8824H17.8509C17.7795 16.135 17.7074 16.3719 17.6353 16.5882C17.4787 17.0581 16.9294 18 15.8706 18C14.8118 18 14.0644 16.9412 14.1059 16.2353C14.1285 16.115 14.1497 15.9973 14.1698 15.8824Z" fill="#3A3A47"/>
</svg>
