<svg xmlns="http://www.w3.org/2000/svg" xmlns:xlink="http://www.w3.org/1999/xlink" width="24" height="24" viewBox="0 0 24 24">
    <defs>
        <path id="a" d="M20 12a7.948 7.948 0 0 1-1.688 4.897L7.103 5.688A7.954 7.954 0 0 1 12 4c4.411 0 8 3.589 8 8M4 12c0-1.846.634-3.542 1.688-4.897l11.209 11.209A7.954 7.954 0 0 1 12 20c-4.411 0-8-3.589-8-8m-2 0c0 5.514 4.486 10 10 10s10-4.486 10-10S17.514 2 12 2 2 6.486 2 12"/>
    </defs>
    <use fill="#686A75" fill-rule="evenodd" xlink:href="#a"/>
</svg>
