<svg width="24" height="24" viewBox="0 0 24 24" fill="none" xmlns="http://www.w3.org/2000/svg">
<path fill-rule="evenodd" clip-rule="evenodd" d="M11.41 3.64611L20.349 12.5361C22.116 14.3031 22.824 17.8381 20.349 20.3131C17.874 22.7881 14.303 22.1171 12.57 20.3131L3.63201 11.4241C1.86601 9.66011 1.16001 6.12311 3.63401 3.64811C6.10901 1.17311 9.64401 1.88011 11.41 3.64611ZM4.99301 5.11711C3.58001 6.53211 3.70801 8.66711 5.20001 10.1601C5.22501 10.1851 10.137 5.20211 10.137 5.20211C8.65501 3.72011 6.53501 3.57611 5.12001 4.99011C3.70601 6.40411 6.40701 3.70211 4.99301 5.11611V5.11711ZM13.684 18.6451C15.06 20.0211 17.402 20.4311 18.816 19.0171C20.231 17.6031 17.561 20.2731 18.975 18.8591C20.389 17.4451 20.009 15.0731 18.633 13.6971L13.684 18.6451ZM12.278 10.1521C12.3709 10.0592 12.4445 9.94892 12.4947 9.82755C12.5449 9.70618 12.5708 9.57611 12.5707 9.44476C12.5707 9.31341 12.5447 9.18336 12.4944 9.06203C12.4441 8.94069 12.3704 8.83046 12.2775 8.73761C12.1846 8.64477 12.0743 8.57113 11.9529 8.52091C11.8316 8.47069 11.7015 8.44486 11.5702 8.44491C11.4388 8.44496 11.3088 8.47087 11.1874 8.52118C11.0661 8.57149 10.9559 8.6452 10.863 8.73811C10.6755 8.92575 10.5702 9.1802 10.5703 9.44547C10.5704 9.71074 10.6759 9.9651 10.8635 10.1526C11.0511 10.3401 11.3056 10.4454 11.5709 10.4453C11.8361 10.4452 12.0905 10.3398 12.278 10.1521ZM10.156 12.2741C10.2515 12.1819 10.3277 12.0715 10.3801 11.9495C10.4325 11.8275 10.4601 11.6963 10.4613 11.5635C10.4624 11.4307 10.4371 11.2991 10.3868 11.1762C10.3365 11.0533 10.2623 10.9416 10.1684 10.8477C10.0745 10.7538 9.96286 10.6796 9.83996 10.6293C9.71707 10.579 9.58539 10.5537 9.45261 10.5549C9.31983 10.556 9.18861 10.5836 9.0666 10.636C8.9446 10.6884 8.83425 10.7646 8.74201 10.8601C8.55985 11.0487 8.45905 11.3013 8.46133 11.5635C8.46361 11.8257 8.56878 12.0765 8.75419 12.2619C8.9396 12.4473 9.19041 12.5525 9.45261 12.5548C9.7148 12.5571 9.96741 12.4563 10.156 12.2741ZM15.106 12.9811C15.2015 12.8889 15.2777 12.7785 15.3301 12.6565C15.3825 12.5345 15.4101 12.4033 15.4113 12.2705C15.4124 12.1377 15.3871 12.0061 15.3368 11.8832C15.2865 11.7603 15.2123 11.6486 15.1184 11.5547C15.0245 11.4608 14.9129 11.3866 14.79 11.3363C14.6671 11.286 14.5354 11.2607 14.4026 11.2619C14.2698 11.263 14.1386 11.2906 14.0166 11.343C13.8946 11.3954 13.7843 11.4716 13.692 11.5671C13.5098 11.7557 13.4091 12.0083 13.4113 12.2705C13.4136 12.5327 13.5188 12.7835 13.7042 12.9689C13.8896 13.1543 14.1404 13.2595 14.4026 13.2618C14.6648 13.2641 14.9174 13.1633 15.106 12.9811ZM12.985 15.1021C13.1725 14.9145 13.2778 14.66 13.2777 14.3948C13.2776 14.1295 13.1721 13.8751 12.9845 13.6876C12.7969 13.5001 12.5424 13.3948 12.2772 13.3949C12.0119 13.395 11.7575 13.5005 11.57 13.6881C11.3825 13.8758 11.2772 14.1302 11.2773 14.3955C11.2774 14.5268 11.3033 14.6569 11.3536 14.7782C11.4039 14.8995 11.4776 15.0098 11.5705 15.1026C11.6634 15.1955 11.7737 15.2691 11.8951 15.3193C12.0164 15.3695 12.1465 15.3954 12.2779 15.3953C12.5431 15.3952 12.7975 15.2898 12.985 15.1021Z" fill="#3A3A47"/>
</svg>
