<svg xmlns="http://www.w3.org/2000/svg" width="24" height="24" viewBox="0 0 24 24">
    <path fill="#3A3A47" fill-rule="evenodd" d="M3.63 3.644c2.474-2.475 6.01-1.768 7.775-.002l.201.2 8.738 8.689c1.767 1.768 2.475 5.303 0 7.778-2.475 2.475-6.046 1.803-7.778 0L3.627 11.42C1.861 9.654 1.154 6.12 3.63 3.644zm14.998 10.049l-4.949 4.948c1.332 1.332 3.568 1.759 4.993.503l.14-.131.158-.159c1.414-1.414 1.034-3.785-.342-5.161zm-7.062-7.08l-4.95 4.95 5.657 5.656 4.95-4.95-5.657-5.656zm2.12 4.95a1 1 0 1 1 1.415 1.414 1 1 0 0 1-1.414-1.415zm-2.12 2.12a1 1 0 1 1 1.414 1.415 1 1 0 0 1-1.414-1.414zm-.708-4.95a1 1 0 1 1 1.415 1.415 1 1 0 0 1-1.415-1.414zm-2.12 2.122a1 1 0 1 1 1.413 1.414 1 1 0 0 1-1.414-1.414zM5.114 4.986l-.127.127c-1.414 1.414-1.285 3.55.207 5.041.025.025 4.937-4.957 4.937-4.957C8.65 3.715 6.53 3.572 5.115 4.986z"/>
</svg>
