<svg width="24" height="24" viewBox="0 0 24 24" fill="none" xmlns="http://www.w3.org/2000/svg">
<path fill-rule="evenodd" clip-rule="evenodd" d="M11.405 3.64196L20.344 12.531C22.111 14.299 22.819 17.834 20.344 20.309C17.869 22.784 14.298 22.112 12.566 20.309L3.627 11.42C1.861 9.65396 1.154 6.11996 3.63 3.64396C6.105 1.16896 9.64 1.87596 11.406 3.64196H11.405ZM4.988 5.11296C3.574 6.52696 3.703 8.66296 5.195 10.154C5.22 10.179 10.132 5.19696 10.132 5.19696C8.65 3.71496 6.53 3.57196 5.115 4.98596L4.988 5.11296ZM13.679 18.641C15.055 20.017 17.397 20.427 18.812 19.013C20.226 17.599 17.556 20.269 18.97 18.854C20.384 17.44 20.004 15.069 18.628 13.693L13.679 18.641ZM6.616 11.562L12.273 17.219L17.223 12.269L11.566 6.61296L6.616 11.563V11.562ZM12.273 10.148C12.1802 10.2409 12.0699 10.3146 11.9486 10.3649C11.8273 10.4152 11.6972 10.4411 11.5659 10.4412C11.4345 10.4412 11.3044 10.4154 11.1831 10.3652C11.0617 10.3149 10.9514 10.2413 10.8585 10.1485C10.7656 10.0556 10.6919 9.94538 10.6416 9.82405C10.5913 9.70272 10.5653 9.57266 10.5653 9.44132C10.5653 9.30997 10.5911 9.1799 10.6413 9.05853C10.6915 8.93716 10.7652 8.82687 10.858 8.73396C11.0455 8.54632 11.2999 8.44085 11.5651 8.44076C11.8304 8.44067 12.0849 8.54595 12.2725 8.73346C12.4601 8.92097 12.5656 9.17534 12.5657 9.44061C12.5658 9.70588 12.4605 9.96032 12.273 10.148ZM10.15 12.27C10.0578 12.3655 9.94741 12.4417 9.82541 12.4941C9.7034 12.5465 9.57218 12.5741 9.4394 12.5752C9.30663 12.5764 9.17495 12.5511 9.05205 12.5008C8.92915 12.4505 8.8175 12.3763 8.72361 12.2824C8.62972 12.1885 8.55546 12.0768 8.50518 11.9539C8.4549 11.831 8.4296 11.6993 8.43075 11.5666C8.43191 11.4338 8.45949 11.3026 8.5119 11.1806C8.56431 11.0586 8.64049 10.9482 8.736 10.856C8.92461 10.6738 9.17721 10.573 9.4394 10.5753C9.7016 10.5776 9.95241 10.6827 10.1378 10.8681C10.3232 11.0536 10.4284 11.3044 10.4307 11.5666C10.433 11.8288 10.3322 12.0814 10.15 12.27ZM15.1 12.978C14.9124 13.1655 14.6579 13.2708 14.3926 13.2707C14.1274 13.2706 13.873 13.1651 13.6855 12.9775C13.498 12.7898 13.3927 12.5354 13.3928 12.2701C13.3929 12.0048 13.4984 11.7505 13.686 11.563C13.8736 11.3755 14.1281 11.2702 14.3934 11.2703C14.6586 11.2704 14.913 11.3758 15.1005 11.5635C15.288 11.7511 15.3933 12.0055 15.3932 12.2708C15.3931 12.5361 15.2876 12.7905 15.1 12.978ZM12.979 15.098C12.8873 15.1957 12.777 15.274 12.6545 15.3283C12.5319 15.3825 12.3998 15.4116 12.2658 15.4138C12.1318 15.416 11.9988 15.3912 11.8745 15.341C11.7503 15.2907 11.6375 15.216 11.5427 15.1213C11.4479 15.0266 11.3731 14.9138 11.3228 14.7896C11.2725 14.6654 11.2476 14.5324 11.2497 14.3984C11.2518 14.2644 11.2807 14.1322 11.3349 14.0097C11.3891 13.8871 11.4673 13.7767 11.565 13.685C11.7536 13.5028 12.0062 13.402 12.2684 13.4043C12.5306 13.4066 12.7814 13.5117 12.9668 13.6971C13.1522 13.8826 13.2574 14.1334 13.2597 14.3956C13.262 14.6578 13.1612 14.9104 12.979 15.099V15.098Z" fill="#3A3A47"/>
</svg>
