<svg xmlns="http://www.w3.org/2000/svg" width="24" height="24" viewBox="0 0 24 24">
    <path fill="#686A75" fill-rule="evenodd" d="M11.405 3.642l8.939 8.889c1.767 1.768 2.475 5.303 0 7.778-2.475 2.475-6.046 1.803-7.778 0L3.627 11.42C1.861 9.654 1.154 6.12 3.63 3.644c2.475-2.475 6.01-1.768 7.776-.002zM4.988 5.113c-1.414 1.414-1.285 3.55.207 5.041.025.025 4.937-4.957 4.937-4.957C8.65 3.715 6.53 3.572 5.115 4.986l-.127.127zm8.691 13.528c1.376 1.376 3.718 1.786 5.133.372 1.414-1.414-1.256 1.256.158-.159 1.414-1.414 1.034-3.785-.342-5.161l-4.949 4.948zm-7.063-7.079l5.657 5.657 4.95-4.95-5.657-5.656-4.95 4.95zm5.657-1.414a1 1 0 1 1-1.415-1.414 1 1 0 0 1 1.415 1.414zM10.15 12.27a1 1 0 1 1-1.414-1.414 1 1 0 0 1 1.414 1.414zm4.95.708a1 1 0 1 1-1.414-1.415 1 1 0 0 1 1.414 1.415zm-2.121 2.12a1 1 0 1 1-1.414-1.413 1 1 0 0 1 1.414 1.414z"/>
</svg>
