<svg xmlns="http://www.w3.org/2000/svg" width="24" height="24" viewBox="0 0 24 24">
    <path fill="#686A75" fill-rule="evenodd" d="M11.41 3.646l8.939 8.89c1.767 1.767 2.475 5.302 0 7.777-2.475 2.475-6.046 1.804-7.779 0l-8.938-8.889C1.866 9.66 1.16 6.123 3.634 3.648c2.475-2.475 6.01-1.768 7.776-.002zM4.993 5.117C3.58 6.532 3.708 8.667 5.2 10.16c.025.025 4.937-4.958 4.937-4.958C8.655 3.72 6.535 3.576 5.12 4.99c-1.414 1.414 1.287-1.288-.127.126zm8.691 13.528c1.376 1.376 3.718 1.786 5.132.372 1.415-1.414-1.255 1.256.159-.158s1.034-3.786-.342-5.162l-4.949 4.948zm-1.406-8.493a1 1 0 1 0-1.415-1.414 1 1 0 0 0 1.415 1.414zm-2.122 2.122a1 1 0 1 0-1.414-1.414 1 1 0 0 0 1.414 1.414zm4.95.707a1 1 0 1 0-1.414-1.414 1 1 0 0 0 1.414 1.414zm-2.121 2.121a1 1 0 1 0-1.415-1.414 1 1 0 0 0 1.415 1.414z"/>
</svg>
