<svg width="24" height="24" viewBox="0 0 24 24" fill="none" xmlns="http://www.w3.org/2000/svg">
<path fill-rule="evenodd" clip-rule="evenodd" d="M12.502 15.2849C13.109 14.7889 13.659 13.8729 14.152 12.5359C14.665 16.8719 14.94 19.3599 14.976 19.9989H21.002C21.668 19.9989 22.002 20.3329 22.002 20.9999C22.002 21.6669 21.668 21.9999 21.002 21.9999H2.998C2.334 21.9999 2.001 21.6669 2 21.0029C1.999 20.3389 2.333 20.0049 3.002 20.0019H12.992C12.925 18.7069 12.502 15.2849 12.502 15.2849ZM9.302 7.51491C8.056 7.81191 7.244 8.57991 6.869 9.81991C6.305 11.6789 7.219 13.2649 7.219 13.2649C6.563 13.5099 5.767 13.5609 4.83 13.4149C4.203 11.6109 4.476 9.88491 5.65 8.23691C6.823 6.58791 8.471 5.79491 10.595 5.85691C11.898 3.56791 13.858 2.65491 16.474 3.11691C20.399 3.80791 20.979 7.41291 20.979 7.41291C20.643 7.79591 20.197 8.12691 19.64 8.40491C19.139 6.69491 18.11 5.51991 16.555 4.87891C15.001 4.23891 13.429 4.43991 11.841 5.48391C13.761 5.34591 15.331 5.70191 16.555 6.55391C18.312 7.81391 18.991 9.63291 18.593 12.0119C17.5139 12.3028 16.3686 12.2246 15.339 11.7899C14.278 11.3529 13.485 10.6479 12.962 9.67491C13.107 10.2349 13.129 10.9409 13.027 11.7899C12.749 13.9299 10.595 15.2169 10.595 15.2169C10.595 15.2169 8.62 14.2759 8.203 11.7899C7.925 10.1329 8.292 8.70791 9.303 7.51491H9.302Z" fill="#3A3A47"/>
</svg>
