<svg width="24" height="24" viewBox="0 0 24 24" fill="none" xmlns="http://www.w3.org/2000/svg">
<path d="M11.9883 12.5642H12.9876V18.5642H11.9883V12.5642Z" fill="#3A3A47"/>
<path d="M8.9905 16.5642H9.98977V18.5642H8.9905V16.5642Z" fill="#3A3A47"/>
<path fill-rule="evenodd" clip-rule="evenodd" d="M5.01102 10C4.51138 9.5 3.90806 8.22686 4.01175 7C4.10988 5.83877 5.13017 4.38274 7.00949 4C7.00949 4 8.3527 2 11.0066 2C13.6604 2 15.0036 4 15.0036 4C15.0036 4 18.0015 4.55191 18.0015 7.5C18.0015 9 17.0022 10 17.0022 10V11H18.0015C18.0015 11 20 11 20 13V15C20 18.5 17.0022 19 17.0022 19V20C17.0022 22 15.0036 22 15.0036 22H7.00949C7.00949 22 5.01102 22 5.01102 20V10ZM6.10098 8.00869C5.97279 7.6212 5.90417 7.03431 6.4155 6.48828C7.05951 5.80055 7.82088 6 8.13313 6.125C8.40566 5.39053 9.1324 4.0038 11.006 4.00391C12.8291 4.00401 13.6471 5.42708 13.8949 6.11199C14.2139 6.01282 15.0438 5.95625 15.5418 6.40996C16.0398 6.86368 16.0687 7.55059 15.911 8.00869C15.911 8.00869 12.696 8 9.99562 8C8.99635 8 9.01314 9 9.01314 9V12.0345C9.01314 12.0345 9.01314 13 7.99708 13C6.98102 13 7.00118 12.0345 7.00118 12.0345V9C7.00118 9 7.00118 8 6.10098 8.00869ZM16.9905 17C17.4901 17 17.9898 16.5 17.9898 16V13H16.9905V17ZM7.99708 15H6.99781V20H14.992V10H10.9949V12C10.9949 13.6569 9.65273 15 7.99708 15Z" fill="#3A3A47"/>
</svg>
