<svg width="24" height="24" viewBox="0 0 24 24" fill="none" xmlns="http://www.w3.org/2000/svg">
<path d="M11.9941 13H12.9941V19H11.9941V13Z" fill="#24252E"/>
<path d="M8.99414 17H9.99414V19H8.99414V17Z" fill="#24252E"/>
<path fill-rule="evenodd" clip-rule="evenodd" d="M5.01175 10.4358C4.51175 9.93579 3.90799 8.66266 4.01175 7.43579C4.10996 6.27456 5.13099 4.81854 7.01168 4.43579C7.01168 4.43579 8.35588 2.43579 11.0117 2.43579C13.6675 2.43579 15.0117 4.43579 15.0117 4.43579C15.0117 4.43579 18.0117 4.9877 18.0117 7.93579C18.0117 9.43579 17.0117 10.4358 17.0117 10.4358V11.4358H18.0117C18.0117 11.4358 20.0117 11.4358 20.0117 13.4358V15.4358C20.0117 18.9358 17.0117 19.4358 17.0117 19.4358V20.4358C17.0117 22.4358 15.0117 22.4358 15.0117 22.4358H7.01168C7.01168 22.4358 5.01175 22.4358 5.01175 20.4358V10.4358ZM6.10252 8.44448C5.97423 8.057 5.90556 7.4701 6.41726 6.92407C7.06175 6.23634 7.82367 6.43579 8.13615 6.56079C8.40888 5.82632 9.13615 4.43959 11.0112 4.4397C12.8356 4.4398 13.6542 5.86287 13.9021 6.54778C14.2213 6.44861 15.0519 6.39204 15.5502 6.84576C16.0486 7.29947 16.0776 7.98638 15.9197 8.44448C15.9197 8.44448 12.7023 8.43579 10 8.43579C9 8.43579 9.0168 9.43579 9.0168 9.43579V12.4703C9.0168 12.4703 9.0168 13.4358 8 13.4358C6.9832 13.4358 7.00337 12.4703 7.00337 12.4703V9.43579C7.00337 9.43579 7.00337 8.43579 6.10252 8.44448ZM17 17.4358C17.5 17.4358 18 16.9358 18 16.4358V13.4358H17V17.4358ZM8 15.4358H7V20.4358H15V10.4358H11V12.4358C11 14.0926 9.65685 15.4358 8 15.4358Z" fill="#24252E"/>
</svg>
