<svg width="24" height="24" viewBox="0 0 24 24" fill="none" xmlns="http://www.w3.org/2000/svg">
<path fill-rule="evenodd" clip-rule="evenodd" d="M4.0059 7C3.90213 8.22686 4.5059 9.5 5.0059 10V20C5.0059 22 7.00582 22 7.00582 22H15.0058C15.0058 22 17.0058 22 17.0058 20V19C17.0058 19 20.0058 18.5 20.0058 15V13C20.0058 11 18.0058 11 18.0058 11H17.0058V10C17.0058 10 18.0058 9 18.0058 7.5C18.0058 4.55191 15.0058 4 15.0058 4C15.0058 4 13.6616 2 11.0058 2C8.35002 2 7.00582 4 7.00582 4C5.12514 4.38274 4.1041 5.83877 4.0059 7ZM6.4114 6.48828C5.8997 7.03431 5.96837 7.6212 6.09666 8.00869C6.99751 8 6.99751 9 6.99751 9V12.0345C6.99751 12.0345 6.97734 13 7.99414 13C9.01094 13 9.01094 12.0345 9.01094 12.0345V9C9.01094 9 8.99414 8 9.99414 8C12.6965 8 15.9138 8.00869 15.9138 8.00869C16.0717 7.55059 16.0427 6.86368 15.5444 6.40996C15.046 5.95625 14.2155 6.01282 13.8963 6.11199C13.6483 5.42708 12.8297 4.00401 11.0053 4.00391C9.13029 4.0038 8.40302 5.39053 8.13029 6.125C7.81781 6 7.05589 5.80055 6.4114 6.48828ZM17.9941 16C17.9941 16.5 17.4941 17 16.9941 17V13H17.9941V16ZM11.9941 12H12.9941V18H11.9941V12ZM8.99414 16H9.99414V18H8.99414V16Z" fill="#24252E"/>
</svg>
