<svg width="24" height="24" viewBox="0 0 24 24" fill="none" xmlns="http://www.w3.org/2000/svg">
<path fill-rule="evenodd" clip-rule="evenodd" d="M4.01175 7C3.90806 8.22686 4.51138 9.5 5.01102 10V20C5.01102 22 7.00949 22 7.00949 22H15.0036C15.0036 22 17.0022 22 17.0022 20V19C17.0022 19 20 18.5 20 15V13C20 11 18.0015 11 18.0015 11H17.0022V10C17.0022 10 18.0015 9 18.0015 7.5C18.0015 4.55191 15.0036 4 15.0036 4C15.0036 4 13.6604 2 11.0066 2C8.3527 2 7.00949 4 7.00949 4C5.13017 4.38274 4.10988 5.83877 4.01175 7ZM6.4155 6.48828C5.90417 7.03431 5.97279 7.6212 6.10098 8.00869C7.00118 8 7.00118 9 7.00118 9V12.0345C7.00118 12.0345 6.98102 13 7.99708 13C9.01314 13 9.01314 12.0345 9.01314 12.0345V9C9.01314 9 8.99635 8 9.99562 8C12.696 8 15.911 8.00869 15.911 8.00869C16.0687 7.55059 16.0398 6.86368 15.5418 6.40996C15.0438 5.95625 14.2139 6.01282 13.8949 6.11199C13.6471 5.42708 12.8291 4.00401 11.006 4.00391C9.1324 4.0038 8.40566 5.39053 8.13313 6.125C7.82088 6 7.05951 5.80055 6.4155 6.48828ZM17.9898 16C17.9898 16.5 17.4901 17 16.9905 17V13H17.9898V16ZM11.9942 12H12.9934V18H11.9942V12ZM8.99635 16H9.99562V18H8.99635V16Z" fill="#3A3A47"/>
</svg>
