<svg width="24" height="24" viewBox="0 0 24 24" fill="none" xmlns="http://www.w3.org/2000/svg">
<path d="M18 16H19C19.667 16 20 16.333 20 17C20 17.667 19.667 18 19 18H5C4.333 18 4 17.667 4 17C4 16.333 4.333 16 5 16H6V10.039C6.0005 8.7959 6.38506 7.5833 7.10107 6.56711C7.81707 5.55092 8.82955 4.78076 10 4.362V4C10 3.46957 10.2107 2.96086 10.5858 2.58579C10.9609 2.21071 11.4696 2 12 2C12.5304 2 13.0391 2.21071 13.4142 2.58579C13.7893 2.96086 14 3.46957 14 4V4.34C16.328 5.15 18 7.356 18 9.961V16ZM16 16V10C16 8.93913 15.5786 7.92172 14.8284 7.17157C14.0783 6.42143 13.0609 6 12 6C10.9391 6 9.92172 6.42143 9.17157 7.17157C8.42143 7.92172 8 8.93913 8 10V16H16ZM10 20C10 20.5304 10.2107 21.0391 10.5858 21.4142C10.9609 21.7893 11.4696 22 12 22C12.5304 22 13.0391 21.7893 13.4142 21.4142C13.7893 21.0391 14 20.5304 14 20H10Z" fill="#3A3A47"/>
</svg>
