<svg width="24" height="24" viewBox="0 0 24 24" fill="none" xmlns="http://www.w3.org/2000/svg">
<path d="M17.9997 5.5C17.9997 6.32843 17.3281 7 16.4997 7C15.6713 7 14.9997 6.32843 14.9997 5.5C14.9997 4.67157 15.6713 4 16.4997 4C17.3281 4 17.9997 4.67157 17.9997 5.5Z" fill="#3A3A47"/>
<path fill-rule="evenodd" clip-rule="evenodd" d="M10 16C10 18.2091 8.20914 20 6 20C3.79086 20 2 18.2091 2 16C2 13.7909 3.79086 12 6 12C8.20914 12 10 13.7909 10 16ZM8 16C8 17.1046 7.10457 18 6 18C4.89543 18 4 17.1046 4 16C4 14.8954 4.89543 14 6 14C7.10457 14 8 14.8954 8 16Z" fill="#3A3A47"/>
<path fill-rule="evenodd" clip-rule="evenodd" d="M22 16C22 18.2091 20.2091 20 18 20C15.7909 20 14 18.2091 14 16C14 13.7909 15.7909 12 18 12C20.2091 12 22 13.7909 22 16ZM20 16C20 17.1046 19.1046 18 18 18C16.8954 18 16 17.1046 16 16C16 14.8954 16.8954 14 18 14C19.1046 14 20 14.8954 20 16Z" fill="#3A3A47"/>
<path d="M12.6568 12.2427C12.6659 12.2517 12.6748 12.2609 12.6834 12.2702C12.8781 12.4527 12.9997 12.7121 12.9997 13V17C12.9997 17.5523 12.552 18 11.9997 18C11.4474 18 10.9997 17.5523 10.9997 17V13.4139L8.41482 10.8291C8.37956 10.7938 8.34748 10.7566 8.31858 10.7177C8.25811 10.6475 8.20331 10.5706 8.15527 10.4874C7.74106 9.76997 7.98687 8.85259 8.70431 8.43837L12.5181 6.23651C13.1266 5.88518 13.8789 6.00868 14.3461 6.49205C14.4182 6.55869 14.4816 6.63716 14.5332 6.72664L15.8457 9H18.28C18.8323 9 19.28 9.44772 19.28 10C19.28 10.5523 18.8323 11 18.28 11H15.28C15.0937 11 14.9192 10.949 14.7699 10.8603C14.6197 10.7754 14.4895 10.6504 14.397 10.4902L13.5854 9.08439L10.9945 10.5803L12.6568 12.2427Z" fill="#3A3A47"/>
</svg>
