<svg width="24" height="24" viewBox="0 0 24 24" fill="none" xmlns="http://www.w3.org/2000/svg">
<path d="M11.0001 7.00012H13.0001V11.0001H11.0001V7.00012Z" fill="#24252E"/>
<path d="M13.5001 4.40012C13.5001 5.28378 12.8286 6.00012 12.0001 6.00012C11.1717 6.00012 10.5001 5.28378 10.5001 4.40012C10.5001 3.51647 12.0001 2.00012 12.0001 2.00012C12.0001 2.00012 13.5001 3.51647 13.5001 4.40012Z" fill="#24252E"/>
<path fill-rule="evenodd" clip-rule="evenodd" d="M18 14H6V20H18V14ZM6 12C4.89543 12 4 12.8954 4 14V20C4 21.1046 4.89543 22 6 22H18C19.1046 22 20 21.1046 20 20V14C20 12.8954 19.1046 12 18 12H6Z" fill="#24252E"/>
<path d="M6 12H18C19.1046 12 20 12.8954 20 14V16.8565C20 16.8565 19.6511 16.9983 19.0008 16.9982C17.4508 16.998 17.4753 15.9981 15.9921 15.9981C14.5088 15.9981 14.5333 16.9984 13 16.9983C11.4667 16.9982 11.525 15.9981 9.99957 15.9982C8.55796 15.9984 8.47461 16.9983 6.99979 16.9983C5.45754 16.9983 6.00761 15.9981 4 16.0064L4 14C4 12.8954 4.89543 12 6 12Z" fill="#24252E"/>
</svg>
