<svg width="24" height="24" viewBox="0 0 24 24" fill="none" xmlns="http://www.w3.org/2000/svg">
<path d="M4.00024 14.0001C4.00024 12.8956 4.89567 12.0001 6.00024 12.0001H18.0002C19.1048 12.0001 20.0002 12.8956 20.0002 14.0001V15.3189C20.0002 15.3189 19.6733 15.4801 19.0087 15.4801C17.4811 15.4801 17.5511 14.502 15.9885 14.502C14.4843 14.502 14.5192 15.4801 13.015 15.4801C11.4291 15.4801 11.4991 14.502 9.99482 14.502C8.49056 14.502 8.57223 15.4836 6.98631 15.4801C5.52863 15.4768 6.00024 14.502 4.00024 14.502V14.0001Z" fill="#24252E"/>
<path d="M9.99957 15.5003C11.525 15.5001 11.4667 16.5003 13 16.5003C14.5333 16.5004 14.5088 15.5001 15.9921 15.5001C17.4753 15.5001 17.4508 16.5001 19.0008 16.5003C19.6511 16.5003 20 16.3586 20 16.3586V19.9999C20 21.1044 19.1046 21.9999 18 21.9999H6C4.89543 21.9999 4 21.1044 4 19.9999V15.5085C6.00761 15.5002 5.45754 16.5003 6.99979 16.5003C8.47461 16.5003 8.55796 15.5005 9.99957 15.5003Z" fill="#24252E"/>
<path d="M11.0002 7.00012H13.0002V11.0001H11.0002V7.00012Z" fill="#24252E"/>
<path d="M13.5002 4.40012C13.5002 5.28378 12.8287 6.00012 12.0002 6.00012C11.1718 6.00012 10.5002 5.28378 10.5002 4.40012C10.5002 3.51647 12.0002 2.00012 12.0002 2.00012C12.0002 2.00012 13.5002 3.51647 13.5002 4.40012Z" fill="#24252E"/>
</svg>
