<svg xmlns="http://www.w3.org/2000/svg" width="24" height="24" viewBox="0 0 24 24">
    <path fill="#3A3A47" fill-rule="evenodd" d="M8 2a6 6 0 0 1 1 11.917c.01 1.64.083 2.634.22 2.983.6 1.8 2.28 3.01 4.28 3.01a4.48 4.48 0 0 0 4.495-4.287L18 15.41V14c-1.16-.41-2-3.71-2-5a3 3 0 0 1 6 0c0 1.244-.781 4.348-1.877 4.944L20 14v1.5a6.5 6.5 0 0 1-6.5 6.5c-3.08 0-5.74-2.08-6.36-5.09-.074-.371-.118-1.369-.132-2.993A6 6 0 0 1 8 2zm11 6a1 1 0 0 0-1 1c0 .552.448 3 1 3s1-2.448 1-3a1 1 0 0 0-1-1zM8 4a4 4 0 1 0 0 8 4 4 0 0 0 0-8zm1.566 1.3c.577.333.7.789.366 1.366l-1 1.732c-.333.577-.789.7-1.366.366-.577-.333-.7-.789-.366-1.366l1-1.732c.333-.577.789-.7 1.366-.366z"/>
</svg>
