<svg width="24" height="24" viewBox="0 0 24 24" fill="none" xmlns="http://www.w3.org/2000/svg">
<path fill-rule="evenodd" clip-rule="evenodd" d="M7.008 13.918C5.52736 13.6647 4.19553 12.8653 3.27554 11.6779C2.35555 10.4904 1.91428 9.00109 2.03888 7.50411C2.16349 6.00713 2.8449 4.61128 3.94855 3.59225C5.0522 2.57321 6.49785 2.00506 8 2C9.50539 1.99863 10.9563 2.56319 12.0648 3.58168C13.1734 4.60017 13.8586 5.99816 13.9845 7.49828C14.1103 8.9984 13.6677 10.491 12.7444 11.68C11.8211 12.869 10.4846 13.6675 9 13.917C9.01 15.557 9.083 16.551 9.22 16.9C9.82 18.7 11.5 19.91 13.5 19.91C16 19.91 18 17.91 18 15.41V14C16.84 13.59 16 10.29 16 9C16 8.20435 16.3161 7.44129 16.8787 6.87868C17.4413 6.31607 18.2044 6 19 6C19.7957 6 20.5587 6.31607 21.1213 6.87868C21.6839 7.44129 22 8.20435 22 9C22 10.29 21.16 13.58 20 14V15.5C20 16.3536 19.8319 17.1988 19.5052 17.9874C19.1786 18.7761 18.6998 19.4926 18.0962 20.0962C17.4926 20.6998 16.7761 21.1786 15.9874 21.5052C15.1988 21.8319 14.3536 22 13.5 22C10.42 22 7.76 19.92 7.14 16.91C7.066 16.539 7.022 15.542 7.008 13.918ZM19 12C19.552 12 20 9.552 20 9C20 8.73479 19.8946 8.48043 19.7071 8.2929C19.5196 8.10536 19.2652 8 19 8C18.7348 8 18.4804 8.10536 18.2929 8.2929C18.1054 8.48043 18 8.73479 18 9C18 9.552 18.448 12 19 12ZM8 4C6.93914 4 5.92172 4.42143 5.17157 5.17158C4.42143 5.92172 4 6.93914 4 8C4 9.06087 4.42143 10.0783 5.17157 10.8284C5.92172 11.5786 6.93914 12 8 12C9.06087 12 10.0783 11.5786 10.8284 10.8284C11.5786 10.0783 12 9.06087 12 8C12 6.93914 11.5786 5.92172 10.8284 5.17158C10.0783 4.42143 9.06087 4 8 4ZM8.2 5.666C8.533 5.089 8.989 4.966 9.566 5.3C10.143 5.633 10.266 6.089 9.932 6.666L8.932 8.398C8.599 8.975 8.143 9.098 7.566 8.764C6.989 8.431 6.866 7.975 7.2 7.398L8.2 5.666Z" fill="#3A3A47"/>
</svg>
