<svg xmlns="http://www.w3.org/2000/svg" width="24" height="24" viewBox="0 0 24 24">
    <path fill="#686A75" fill-rule="evenodd" d="M11 7.994H4v11.99h16V7.993h-7v.007c0 .667-.334 1-1 1-.666 0-1-.333-1-1v-.007zM11 4H5.5l-1 2H11V4zm2 0v2h6.5l-1-2H13zM2 6.995c0-.205.09-.458.267-.759L3.874 3C4.14 2.333 4.514 2 5 2h14c.486 0 .855.333 1.107.999l1.552 3.083c.227.396.341.7.341.912v12.99c0 1.306-.667 1.972-2 1.997-1.333.025-6.667.025-16 0-1.333 0-2-.666-2-1.998V6.994zM7 16h6c.667 0 1 .333 1 1 0 .665-.333.998-1 .998H7c-.667 0-1-.333-1-.999 0-.666.333-.999 1-.999zm0-4h3c.667 0 1 .333 1 1 0 .665-.333.998-1 .998H7c-.667 0-1-.333-1-.999 0-.666.333-.999 1-.999z"/>
</svg>
