<svg xmlns="http://www.w3.org/2000/svg" width="24" height="24" viewBox="0 0 24 24">
    <path fill="#3A3A47" fill-rule="evenodd" d="M19 2c.486 0 .855.333 1.107.999l1.552 3.083c.227.396.341.7.341.912v12.99c0 1.306-.667 1.972-2 1.997-1.333.025-6.667.025-16 0-1.333 0-2-.666-2-1.998V6.994c0-.205.09-.458.267-.759L3.874 3C4.14 2.333 4.514 2 5 2h14zm1 5.994h-7.001v.007c0 .667-.333 1-.999 1-.666 0-1-.333-1-1v-.007H4v11.99h16V7.993zM13 16c.667 0 1 .333 1 1 0 .665-.333.998-1 .998H7c-.667 0-1-.333-1-.999 0-.666.333-.999 1-.999h6zm-3-4c.667 0 1 .333 1 1 0 .665-.333.998-1 .998H7c-.667 0-1-.333-1-.999 0-.666.333-.999 1-.999h3zm1-8H5.5l-1 2H11V4zm7.5 0H13l-.001 2H19.5l-1-2z"/>
</svg>
