<svg xmlns="http://www.w3.org/2000/svg" width="24" height="24" viewBox="0 0 24 24">
    <path fill="#3A3A47" fill-rule="evenodd" d="M22 8v11.983c0 1.307-.667 1.973-2 1.998-1.333.025-6.667.025-16 0-1.333 0-2-.666-2-1.998V8h9v1c0 .62.288.952.862.996L12 10c.666 0 1-.333 1-1L12.998 8H22zm-10 8H6c-.667 0-1 .333-1 1 0 .618.287.949.862.993l.138.005h6c.667 0 1-.333 1-.999 0-.666-.333-.999-1-.999zm-3-4H6c-.667 0-1 .333-1 1 0 .618.287.949.862.993l.138.005h3c.667 0 1-.333 1-.999 0-.666-.333-.999-1-.999zM19 2c.486 0 .855.333 1.107.999L21.618 6h-8.619V2H19zm-8 4H2.384l1.49-3.001C4.14 2.333 4.514 2 5 2h6v4z"/>
</svg>
