<svg width="24" height="24" viewBox="0 0 24 24" fill="none" xmlns="http://www.w3.org/2000/svg">
<path d="M17.5816 14.8741C17.9262 14.6443 18.0193 14.1786 17.7895 13.834C17.5207 13.4308 17.1637 13.1217 16.7611 12.9153C16.822 12.7224 17.0177 12.5994 17.2225 12.635C17.6306 12.7058 18.0188 12.4323 18.0896 12.0241C18.1604 11.616 17.8869 11.2278 17.4788 11.157C16.4704 10.982 15.5097 11.6323 15.2885 12.6204C14.8369 12.6559 14.3878 12.804 13.9842 13.0732C13.6396 13.303 13.5465 13.7687 13.7763 14.1133C14.0061 14.458 14.4717 14.5511 14.8163 14.3213C15.388 13.9401 16.1604 14.0945 16.5415 14.6662C16.7713 15.0108 17.237 15.1039 17.5816 14.8741Z" fill="#3A3A47"/>
<path d="M6.73628 11.2699C6.39167 11.4997 6.29859 11.9654 6.52837 12.3101C6.7972 12.7133 7.15427 13.0224 7.55688 13.2288C7.49614 13.422 7.30034 13.5451 7.09539 13.5096C6.68727 13.4388 6.29906 13.7123 6.22827 14.1204C6.15748 14.5285 6.43092 14.9168 6.83904 14.9876C7.84762 15.1625 8.80849 14.512 9.0295 13.5237C9.48105 13.4881 9.93006 13.34 10.3337 13.0708C10.6783 12.841 10.7714 12.3753 10.5416 12.0307C10.3118 11.6861 9.84617 11.593 9.50155 11.8228C8.92991 12.204 8.1575 12.0496 7.77633 11.4779C7.54654 11.1332 7.0809 11.0401 6.73628 11.2699Z" fill="#3A3A47"/>
<path fill-rule="evenodd" clip-rule="evenodd" d="M11.9622 2.80075C12.504 2.31257 13.2416 2.02637 14.0073 2.02637C15.3024 2.02637 16.5175 2.84537 16.8399 4.07563C18.0275 4.53887 18.9314 5.62149 18.9314 6.97878C18.9314 7.00042 18.9311 7.022 18.9306 7.04354C19.9039 7.68059 20.5788 8.73522 20.5788 9.97761C20.5788 10.1771 20.5611 10.373 20.5271 10.5638C21.393 11.3638 21.9499 12.4755 21.9499 13.7276C21.9499 15.6604 20.6409 17.2346 18.8908 17.8914C18.583 20.1801 16.4283 21.8264 13.9998 21.8264C13.3227 21.8264 12.6741 21.7015 12.0822 21.4734C11.4471 21.7435 10.741 21.8927 10.0009 21.8927C7.57241 21.8927 5.41765 20.2464 5.10987 17.9578C3.35976 17.3009 2.05078 15.7267 2.05078 13.7939C2.05078 12.5418 2.6077 11.4302 3.47362 10.6301C3.43959 10.4393 3.42186 10.2435 3.42186 10.044C3.42186 8.80156 4.09681 7.74694 5.07003 7.10988C5.06956 7.08834 5.06932 7.06676 5.06932 7.04512C5.06932 5.68783 5.97319 4.6052 7.16079 4.14197C7.48318 2.91171 8.6983 2.09271 9.99343 2.09271C10.7237 2.09271 11.4285 2.35308 11.9622 2.80075ZM12.9026 4.60864C12.9717 4.23155 13.3619 3.82637 14.0073 3.82637C14.7213 3.82637 15.1229 4.32239 15.1229 4.72758C15.1229 4.73471 15.1228 4.74183 15.1226 4.74895L15.1005 5.52073L15.8599 5.65999C16.5541 5.78728 17.0013 6.25362 17.1071 6.75109C16.0617 6.71233 15.0166 7.17807 14.3551 8.08775C14.1115 8.42276 14.1856 8.89181 14.5207 9.13541C14.8557 9.37901 15.3247 9.30491 15.5683 8.9699C16.027 8.33907 16.8283 8.10471 17.5314 8.33649L17.6011 8.36613C18.3445 8.68191 18.7788 9.31836 18.7788 9.97761C18.7788 10.1798 18.7396 10.3736 18.6665 10.5552L18.3995 11.219L18.986 11.6288C19.7199 12.1417 20.1499 12.9067 20.1499 13.7276C20.1499 14.8831 19.2762 15.9586 17.9309 16.3105C17.8899 16.3145 17.8487 16.322 17.8075 16.333C17.538 16.4057 17.2538 16.4447 16.9594 16.4447C16.4901 16.4447 16.0459 16.3456 15.645 16.168C15.2663 16.0002 14.8233 16.1712 14.6555 16.5499C14.4877 16.9286 14.6587 17.3716 15.0374 17.5394C15.626 17.8002 16.2768 17.9447 16.9594 17.9447C16.9875 17.9447 17.0155 17.9444 17.0434 17.9439C16.7266 19.0855 15.5522 20.0264 13.9998 20.0264C13.6141 20.0264 13.2471 19.9662 12.9093 19.8574L12.9091 4.79391C12.9091 4.73142 12.9069 4.66965 12.9026 4.60864ZM11.0927 4.64878C11.0108 4.27936 10.6239 3.89271 9.99343 3.89271C9.27938 3.89271 8.87775 4.38873 8.87775 4.79391C8.87775 4.80106 8.87785 4.80815 8.87806 4.8152L8.90026 5.58705L8.14076 5.72632C7.44706 5.85353 7.00003 6.31934 6.89381 6.81643C7.76337 6.7685 8.62425 7.00726 9.34128 7.48548C9.68589 7.71531 9.77893 8.18098 9.54909 8.52559C9.31926 8.87019 8.85359 8.96323 8.50899 8.7334C7.93038 8.34749 7.20567 8.21155 6.51256 8.38445L6.39954 8.43247C5.65621 8.74825 5.22186 9.3847 5.22186 10.044C5.22186 10.2462 5.26107 10.4399 5.33415 10.6215L5.60117 11.2853L5.01472 11.6951C4.28077 12.2081 3.85078 12.9731 3.85078 13.7939C3.85078 14.9794 4.77036 16.0806 6.17533 16.4028L6.29887 16.4311C6.39748 16.4401 6.49748 16.4447 6.59869 16.4447C7.068 16.4447 7.51218 16.3456 7.91309 16.168C8.29179 16.0002 8.73482 16.1712 8.90261 16.5499C9.07041 16.9286 8.89943 17.3716 8.52072 17.5394C8.03023 17.7567 7.49648 17.8933 6.93714 17.9328C7.22133 19.1089 8.41348 20.0927 10.0009 20.0927C10.3836 20.0927 10.7479 20.0334 11.0835 19.9263V13.6609L11.0895 13.6578L11.0916 4.72958L11.0916 4.72837C11.0916 4.70197 11.092 4.67491 11.0927 4.64878Z" fill="#3A3A47"/>
</svg>
