<svg width="24" height="24" viewBox="0 0 24 24" fill="none" xmlns="http://www.w3.org/2000/svg">
<path fill-rule="evenodd" clip-rule="evenodd" d="M8.99646 1.99707C10.1018 1.99707 10.9978 2.8931 10.9978 3.99841L10.998 21.4653C10.411 21.8036 9.73006 21.9971 9.00391 21.9971C7.29462 21.9971 5.83573 20.9249 5.26306 19.4165C5.42858 19.4339 5.59649 19.4429 5.76631 19.4429C6.44892 19.4429 7.09977 19.2984 7.68834 19.0376C8.06705 18.8698 8.23803 18.4268 8.07023 18.0481C7.90244 17.6694 7.45942 17.4984 7.08071 17.6662C6.67981 17.8438 6.23562 17.9429 5.76631 17.9429C5.47188 17.9429 5.18772 17.9039 4.91818 17.8313C4.87312 17.8191 4.82792 17.8113 4.78302 17.8077C3.17103 17.292 2.00391 15.7815 2.00391 13.9984C2.00391 12.7183 2.60545 11.5787 3.54129 10.8468C3.42733 10.5298 3.36523 10.188 3.36523 9.83179C3.36523 8.64321 4.05645 7.61607 5.05883 7.13041C5.83428 6.83454 6.6827 6.94983 7.34165 7.38932C7.68625 7.61915 8.15192 7.52611 8.38175 7.18151C8.61159 6.83691 8.51855 6.37124 8.17395 6.1414C7.31015 5.5653 6.23759 5.33671 5.19258 5.53821C5.50664 4.78512 6.17849 4.21854 6.99579 4.05083C6.99534 4.03341 6.99512 4.01594 6.99512 3.99841C6.99512 2.8931 7.89115 1.99707 8.99646 1.99707ZM6.51268 10.869C6.28288 10.5244 5.81722 10.4313 5.47259 10.6611C5.12797 10.8909 5.03488 11.3566 5.26468 11.7012C5.61109 12.2207 6.08147 12.608 6.61043 12.85C6.60436 12.8724 6.59927 12.8953 6.59522 12.9187C6.52911 13.2999 6.1665 13.5553 5.78532 13.4891C5.3772 13.4184 4.98897 13.6918 4.91818 14.0999C4.84739 14.508 5.12085 14.8963 5.52897 14.9671C6.72638 15.1748 7.86546 14.3724 8.07316 13.175C8.075 13.1644 8.0766 13.1538 8.07798 13.1433C8.65915 13.1231 9.2421 12.9464 9.76147 12.6001C10.1061 12.3703 10.1992 11.9047 9.96938 11.56C9.73959 11.2154 9.27393 11.1223 8.9293 11.3521C8.12857 11.886 7.0466 11.6698 6.51268 10.869Z" fill="#3A3A47"/>
<path fill-rule="evenodd" clip-rule="evenodd" d="M13.002 21.4608C13.5907 21.8018 14.2745 21.9971 15.0039 21.9971C16.7101 21.9971 18.1667 20.9289 18.7416 19.4248C18.604 19.4368 18.4648 19.4429 18.3243 19.4429C17.6417 19.4429 16.9908 19.2984 16.4023 19.0376C16.0236 18.8698 15.8526 18.4268 16.0204 18.0481C16.1882 17.6694 16.6312 17.4984 17.0099 17.6662C17.4108 17.8438 17.855 17.9429 18.3243 17.9429C18.5574 17.9429 18.784 17.9185 19.002 17.8722C20.7281 17.4294 22.0039 15.8627 22.0039 13.9984C22.0039 12.7183 21.4024 11.5787 20.4665 10.8468C20.5805 10.5298 20.6426 10.188 20.6426 9.83179C20.6426 8.84083 20.1621 7.96209 19.4214 7.41582C18.6617 7.00369 17.6956 7.20803 17.1734 7.92611C16.9298 8.26112 16.4608 8.33523 16.1258 8.09163C15.7908 7.84803 15.7167 7.37897 15.9603 7.04396C16.6576 6.08496 17.7813 5.61934 18.8822 5.71807C18.6053 4.8761 17.8932 4.23165 17.012 4.05083C17.0125 4.03341 17.0127 4.01594 17.0127 3.99841C17.0127 2.8931 16.1167 1.99707 15.0114 1.99707C13.906 1.99707 13.01 2.8931 13.01 3.99841L13.01 3.99976H13.0078V14.2096L13.002 14.213V21.4608ZM19.1498 11.4442C19.079 11.8523 18.6908 12.1258 18.2826 12.055C17.9015 11.9889 17.5389 12.2443 17.4727 12.6255C17.4687 12.6486 17.4637 12.6714 17.4577 12.6937C17.9866 12.9357 18.4569 13.323 18.8033 13.8425C19.0331 14.1871 18.94 14.6528 18.5954 14.8826C18.2508 15.1123 17.7851 15.0193 17.5553 14.6746C17.0214 13.8739 15.9394 13.6576 15.1387 14.1915C14.794 14.4213 14.3284 14.3282 14.0986 13.9836C13.8688 13.639 13.9619 13.1733 14.3065 12.9435C14.8259 12.5972 15.4089 12.4205 15.9901 12.4004C15.991 12.393 15.9921 12.3857 15.9933 12.3784C15.9938 12.3753 15.9943 12.3722 15.9948 12.3691C16.2025 11.1717 17.3416 10.3694 18.539 10.5771C18.9471 10.6479 19.2206 11.0361 19.1498 11.4442Z" fill="#3A3A47"/>
</svg>
