<svg xmlns="http://www.w3.org/2000/svg" width="24" height="24" viewBox="0 0 24 24">
    <path fill="#3A3A47" fill-rule="evenodd" d="M15 16a2 2 0 1 1 0 4 2 2 0 0 1 0-4zM4 17a1 1 0 1 1 0 2 1 1 0 0 1 0-2zm5 0a1 1 0 1 1 0 2 1 1 0 0 1 0-2zm11 0a1 1 0 1 1 0 2 1 1 0 0 1 0-2zM4 10a2 2 0 1 1 0 4 2 2 0 0 1 0-4zm16 0a2 2 0 1 1 0 4 2 2 0 0 1 0-4zm-5 0a2 2 0 1 1 0 4 2 2 0 0 1 0-4zm-6 1a1 1 0 1 1 0 2 1 1 0 0 1 0-2zM4 4a2 2 0 1 1 0 4 2 2 0 0 1 0-4zm5 0a2 2 0 1 1 0 4 2 2 0 0 1 0-4zm6 0a2 2 0 1 1 0 4 2 2 0 0 1 0-4zm5 1a1 1 0 1 1 0 2 1 1 0 0 1 0-2z"/>
</svg>
