<svg width="24" height="24" viewBox="0 0 24 24" fill="none" xmlns="http://www.w3.org/2000/svg">
<path fill-rule="evenodd" clip-rule="evenodd" d="M15 16C16.1046 16 17 16.8954 17 18C17 19.1046 16.1046 20 15 20C13.8954 20 13 19.1046 13 18C13 16.8954 13.8954 16 15 16ZM4 17C4.55228 17 5 17.4477 5 18C5 18.5523 4.55228 19 4 19C3.44772 19 3 18.5523 3 18C3 17.4477 3.44772 17 4 17ZM9 17C9.55228 17 10 17.4477 10 18C10 18.5523 9.55228 19 9 19C8.44772 19 8 18.5523 8 18C8 17.4477 8.44772 17 9 17ZM20 17C20.5523 17 21 17.4477 21 18C21 18.5523 20.5523 19 20 19C19.4477 19 19 18.5523 19 18C19 17.4477 19.4477 17 20 17ZM4 10C5.10457 10 6 10.8954 6 12C6 13.1046 5.10457 14 4 14C2.89543 14 2 13.1046 2 12C2 10.8954 2.89543 10 4 10ZM20 10C21.1046 10 22 10.8954 22 12C22 13.1046 21.1046 14 20 14C18.8954 14 18 13.1046 18 12C18 10.8954 18.8954 10 20 10ZM15 10C16.1046 10 17 10.8954 17 12C17 13.1046 16.1046 14 15 14C13.8954 14 13 13.1046 13 12C13 10.8954 13.8954 10 15 10ZM9 11C9.55228 11 10 11.4477 10 12C10 12.5523 9.55228 13 9 13C8.44772 13 8 12.5523 8 12C8 11.4477 8.44772 11 9 11ZM4 4C5.10457 4 6 4.89543 6 6C6 7.10457 5.10457 8 4 8C2.89543 8 2 7.10457 2 6C2 4.89543 2.89543 4 4 4ZM9 4C10.1046 4 11 4.89543 11 6C11 7.10457 10.1046 8 9 8C7.89543 8 7 7.10457 7 6C7 4.89543 7.89543 4 9 4ZM15 4C16.1046 4 17 4.89543 17 6C17 7.10457 16.1046 8 15 8C13.8954 8 13 7.10457 13 6C13 4.89543 13.8954 4 15 4ZM20 5C20.5523 5 21 5.44772 21 6C21 6.55228 20.5523 7 20 7C19.4477 7 19 6.55228 19 6C19 5.44772 19.4477 5 20 5Z" fill="#3A3A47"/>
</svg>
