<svg width="24" height="24" viewBox="0 0 24 24" fill="none" xmlns="http://www.w3.org/2000/svg">
<path d="M2.61266 8.52921C1.79578 9.34611 1.79578 10.6706 2.61266 11.4875L7.04998 15.9249L15.9246 7.05007L11.4873 2.61268C10.6704 1.79577 9.34597 1.79577 8.52908 2.61268L7.35642 3.78535L8.70852 5.13748C9.11697 5.54593 9.11697 6.20816 8.70852 6.61662C8.30008 7.02507 7.63786 7.02507 7.22942 6.61661L5.87732 5.26449L4.46186 6.67998L8.09586 10.3141C8.5043 10.7225 8.5043 11.3847 8.09586 11.7932C7.68742 12.2016 7.0252 12.2016 6.61676 11.7932L2.98275 8.15911L2.61266 8.52921Z" fill="#3A3A47"/>
<path d="M8.4541 17.3308L17.3287 8.45605L18.0228 9.1501C18.7015 9.82882 18.8312 10.8824 18.3373 11.7055L16.9591 14.0026L21.3864 18.4299C22.2033 19.2468 22.2033 20.5713 21.3864 21.3882C20.5695 22.2051 19.2451 22.2051 18.4282 21.3882L14.001 16.9609L11.7034 18.3395C10.8804 18.8333 9.82684 18.7036 9.14813 18.0249L8.4541 17.3308Z" fill="#3A3A47"/>
</svg>
