<svg width="24" height="24" viewBox="0 0 24 24" fill="none" xmlns="http://www.w3.org/2000/svg">
<path fill-rule="evenodd" clip-rule="evenodd" d="M2.91502 10.9088C3.13233 11.5607 3.74241 12.0004 4.4296 12.0004H6.99966C7.55195 12.0004 7.99966 11.5527 7.99966 11.0004C7.99966 10.4481 7.55195 10.0004 6.99966 10.0004H4.72042L3.94834 7.68418C3.7737 7.16023 3.20738 6.87707 2.68343 7.05172C2.15949 7.22637 1.87633 7.79269 2.05098 8.31663L2.91502 10.9088Z" fill="#3A3A47"/>
<path fill-rule="evenodd" clip-rule="evenodd" d="M21.0843 10.9088C20.867 11.5607 20.2569 12.0004 19.5697 12.0004H16.9997C16.4474 12.0004 15.9997 11.5527 15.9997 11.0004C15.9997 10.4481 16.4474 10.0004 16.9997 10.0004H19.2789L20.051 7.68418C20.2256 7.16023 20.7919 6.87707 21.3159 7.05172C21.8398 7.22637 22.123 7.79269 21.9483 8.31663L21.0843 10.9088Z" fill="#3A3A47"/>
<path fill-rule="evenodd" clip-rule="evenodd" d="M2.91502 18.0919C3.13233 17.4399 3.74241 17.0002 4.4296 17.0002H6.99966C7.55195 17.0002 7.99966 17.4479 7.99966 18.0002C7.99966 18.5525 7.55195 19.0002 6.99966 19.0002H4.72042L3.94834 21.3164C3.7737 21.8404 3.20738 22.1236 2.68343 21.9489C2.15949 21.7743 1.87633 21.2079 2.05098 20.684L2.91502 18.0919Z" fill="#3A3A47"/>
<path fill-rule="evenodd" clip-rule="evenodd" d="M1.99966 14.5002C1.99966 15.0525 2.44738 15.5002 2.99966 15.5002H6.99966C7.55195 15.5002 7.99966 15.0525 7.99966 14.5002C7.99966 13.9479 7.55195 13.5002 6.99966 13.5002H2.99966C2.44738 13.5002 1.99966 13.9479 1.99966 14.5002Z" fill="#3A3A47"/>
<path fill-rule="evenodd" clip-rule="evenodd" d="M15.9997 14.5002C15.9997 15.0525 16.4474 15.5002 16.9997 15.5002H20.9997C21.5519 15.5002 21.9997 15.0525 21.9997 14.5002C21.9997 13.9479 21.5519 13.5002 20.9997 13.5002H16.9997C16.4474 13.5002 15.9997 13.9479 15.9997 14.5002Z" fill="#3A3A47"/>
<path fill-rule="evenodd" clip-rule="evenodd" d="M15.5524 6.28069C15.0585 6.0337 14.8582 5.43303 15.1052 4.93905L16.2983 2.55301C16.5452 2.05903 17.1459 1.8588 17.6399 2.10579C18.1339 2.35278 18.3341 2.95345 18.0871 3.44743L16.8941 5.83348C16.6471 6.32746 16.0464 6.52768 15.5524 6.28069Z" fill="#3A3A47"/>
<path fill-rule="evenodd" clip-rule="evenodd" d="M8.6399 6.28069C8.14592 6.52768 7.54525 6.32746 7.29826 5.83348L6.10523 3.44743C5.85824 2.95345 6.05847 2.35278 6.55245 2.10579C7.04643 1.8588 7.6471 2.05903 7.89409 2.55301L9.08711 4.93905C9.3341 5.43303 9.13388 6.0337 8.6399 6.28069Z" fill="#3A3A47"/>
<path fill-rule="evenodd" clip-rule="evenodd" d="M21.0843 18.0919C20.867 17.4399 20.2569 17.0002 19.5697 17.0002H16.9997C16.4474 17.0002 15.9997 17.4479 15.9997 18.0002C15.9997 18.5525 16.4474 19.0002 16.9997 19.0002H19.2789L20.051 21.3164C20.2256 21.8404 20.7919 22.1236 21.3159 21.9489C21.8398 21.7743 22.123 21.2079 21.9483 20.684L21.0843 18.0919Z" fill="#3A3A47"/>
<path d="M10.9997 21.955V15.0002C10.9997 14.4479 11.4474 14.0002 11.9997 14.0002C12.5519 14.0002 12.9997 14.4479 12.9997 15.0002L12.9997 21.955C16.9997 21.4626 18.9997 17.9628 18.9997 13.1016C18.9997 12.2296 18.9227 11.1393 18.7095 10.0002H5.28979C5.07661 11.1393 4.99966 12.2296 4.99966 13.1016C4.99966 17.9628 6.99966 21.4626 10.9997 21.955Z" fill="#3A3A47"/>
<path d="M18.1888 8.00022H5.81048C6.71578 5.36691 8.53423 3.00022 11.9997 3.00022C15.4651 3.00022 17.2835 5.36691 18.1888 8.00022Z" fill="#3A3A47"/>
</svg>
