<svg width="24" height="24" viewBox="0 0 24 24" fill="none" xmlns="http://www.w3.org/2000/svg">
<path fill-rule="evenodd" clip-rule="evenodd" d="M2.91514 10.9088C3.13245 11.5607 3.74254 12.0004 4.42972 12.0004H4.99978C5.55207 12.0004 5.99978 11.5527 5.99978 11.0004C5.99978 10.4481 5.55207 10.0004 4.99978 10.0004H4.72054L3.94847 7.68418C3.77382 7.16023 3.2075 6.87707 2.68356 7.05172C2.15961 7.22637 1.87645 7.79269 2.0511 8.31663L2.91514 10.9088Z" fill="#3A3A47"/>
<path fill-rule="evenodd" clip-rule="evenodd" d="M21.0844 10.9088C20.8671 11.5607 20.257 12.0004 19.5698 12.0004H18.9998C18.4475 12.0004 17.9998 11.5527 17.9998 11.0004C17.9998 10.4481 18.4475 10.0004 18.9998 10.0004H19.279L20.0511 7.68418C20.2257 7.16023 20.7921 6.87707 21.316 7.05172C21.84 7.22637 22.1231 7.79269 21.9485 8.31663L21.0844 10.9088Z" fill="#3A3A47"/>
<path fill-rule="evenodd" clip-rule="evenodd" d="M2.91514 18.0919C3.13245 17.4399 3.74254 17.0002 4.42972 17.0002H5.99978C6.55207 17.0002 6.99978 17.4479 6.99978 18.0002C6.99978 18.5525 6.55207 19.0002 5.99978 19.0002H4.72054L3.94847 21.3164C3.77382 21.8404 3.2075 22.1236 2.68356 21.9489C2.15961 21.7743 1.87645 21.2079 2.0511 20.684L2.91514 18.0919Z" fill="#3A3A47"/>
<path fill-rule="evenodd" clip-rule="evenodd" d="M1.99978 14.5002C1.99978 15.0525 2.4475 15.5002 2.99978 15.5002H4.99978C5.55207 15.5002 5.99978 15.0525 5.99978 14.5002C5.99978 13.9479 5.55207 13.5002 4.99978 13.5002H2.99978C2.4475 13.5002 1.99978 13.9479 1.99978 14.5002Z" fill="#3A3A47"/>
<path fill-rule="evenodd" clip-rule="evenodd" d="M17.9998 14.5002C17.9998 15.0525 18.4475 15.5002 18.9998 15.5002H20.9998C21.5521 15.5002 21.9998 15.0525 21.9998 14.5002C21.9998 13.9479 21.5521 13.5002 20.9998 13.5002H18.9998C18.4475 13.5002 17.9998 13.9479 17.9998 14.5002Z" fill="#3A3A47"/>
<path fill-rule="evenodd" clip-rule="evenodd" d="M15.5526 6.28069C15.0586 6.0337 14.8584 5.43303 15.1054 4.93905L16.2984 2.55301C16.5454 2.05903 17.146 1.8588 17.64 2.10579C18.134 2.35278 18.3342 2.95345 18.0872 3.44743L16.8942 5.83348C16.6472 6.32746 16.0465 6.52768 15.5526 6.28069Z" fill="#3A3A47"/>
<path fill-rule="evenodd" clip-rule="evenodd" d="M8.64002 6.28069C8.14604 6.52768 7.54537 6.32746 7.29838 5.83348L6.10536 3.44743C5.85837 2.95345 6.05859 2.35278 6.55257 2.10579C7.04655 1.8588 7.64722 2.05903 7.89421 2.55301L9.08723 4.93905C9.33422 5.43303 9.134 6.0337 8.64002 6.28069Z" fill="#3A3A47"/>
<path fill-rule="evenodd" clip-rule="evenodd" d="M21.0844 18.0919C20.8671 17.4399 20.257 17.0002 19.5698 17.0002H17.9998C17.4475 17.0002 16.9998 17.4479 16.9998 18.0002C16.9998 18.5525 17.4475 19.0002 17.9998 19.0002H19.279L20.0511 21.3164C20.2257 21.8404 20.7921 22.1236 21.316 21.9489C21.84 21.7743 22.1231 21.2079 21.9485 20.684L21.0844 18.0919Z" fill="#3A3A47"/>
<path fill-rule="evenodd" clip-rule="evenodd" d="M11.0142 22.0057C8.91354 21.7196 7.33191 20.5245 6.33846 18.8276C5.38403 17.1974 4.99121 15.156 4.99121 13.0171C4.99121 12.2897 5.04635 10.7484 5.22682 9.68176C5.38961 8.71962 6.22297 8.01541 7.19879 8.01541H16.8003C17.7761 8.01541 18.6095 8.71962 18.7722 9.68176C18.9527 10.7484 19.0079 12.2897 19.0079 13.0171C19.0079 15.156 18.615 17.1974 17.6606 18.8276C16.6672 20.5245 15.0855 21.7196 12.9849 22.0057C12.4224 22.0823 11.5767 22.0823 11.0142 22.0057ZM13.0083 20.0115V14.9942C13.0083 14.4436 12.5619 13.9972 12.0113 13.9972C11.4606 13.9972 11.0142 14.4436 11.0142 14.9942V20.0037C10.4263 19.8885 9.75761 19.5743 9.28406 19.2173C7.75549 18.065 6.99121 15.8288 6.99121 13.0171C6.99121 12.3269 7.04627 10.9169 7.19879 10.0154H16.8003C16.9528 10.9169 17.0079 12.3269 17.0079 13.0171C17.0079 15.8288 16.2436 18.065 14.715 19.2173C14.2526 19.5659 13.5758 19.8739 13.0083 20.0115Z" fill="#3A3A47"/>
<path fill-rule="evenodd" clip-rule="evenodd" d="M6.80235 5.86147C7.92412 4.30456 9.58648 2.97736 11.9594 2.97736C14.3305 2.97736 16.0312 4.30258 17.1788 5.86228C18.2783 7.35681 18.6959 9.16273 18.9917 10.7503L17.0255 11.1166C16.7324 9.54326 16.3736 8.14282 15.5678 7.04751C14.6497 5.79958 13.481 4.97736 11.9594 4.97736C10.4479 4.97736 9.31994 5.78857 8.42502 7.03063C7.62564 8.14009 7.26548 9.54551 6.96916 11.1185L5.00373 10.7483C5.30287 9.1603 5.72135 7.36178 6.80235 5.86147Z" fill="#3A3A47"/>
</svg>
