<svg width="24" height="24" viewBox="0 0 24 24" fill="none" xmlns="http://www.w3.org/2000/svg">
<path d="M3 7C3 6.44772 3.44772 6 4 6H17.7639C18.1427 6 18.489 6.214 18.6584 6.55279L19.5528 6.10557L18.6584 6.55279L20.8944 11.0249C20.9639 11.1638 21 11.3169 21 11.4721V15C21 15.5523 20.5523 16 20 16H4C3.44772 16 3 15.5523 3 15V7Z" stroke="#24252E" stroke-width="2"/>
<path d="M10 16C10 17.1046 9.10457 18 8 18C6.89543 18 6 17.1046 6 16C6 14.8954 6.89543 14 8 14C9.10457 14 10 14.8954 10 16Z" fill="white"/>
<path d="M18 16C18 17.1046 17.1046 18 16 18C14.8954 18 14 17.1046 14 16C14 14.8954 14.8954 14 16 14C17.1046 14 18 14.8954 18 16Z" fill="white"/>
<path d="M10 16C10 17.1046 9.10457 18 8 18C6.89543 18 6 17.1046 6 16C6 14.8954 6.89543 14 8 14C9.10457 14 10 14.8954 10 16Z" stroke="#24252E" stroke-width="2"/>
<path d="M18 16C18 17.1046 17.1046 18 16 18C14.8954 18 14 17.1046 14 16C14 14.8954 14.8954 14 16 14C17.1046 14 18 14.8954 18 16Z" stroke="#24252E" stroke-width="2"/>
<path d="M5 8H9V12H5V8Z" fill="#24252E"/>
<path d="M10 8H14V12H10V8Z" fill="#24252E"/>
<path d="M17.264 8H15V12H19L17.264 8Z" fill="#24252E"/>
</svg>
