<svg width="24" height="24" viewBox="0 0 24 24" fill="none" xmlns="http://www.w3.org/2000/svg">
<path d="M5 8H9V12H5V8Z" fill="#3A3A47"/>
<path d="M17.264 8H15V12H19L17.264 8Z" fill="#3A3A47"/>
<path fill-rule="evenodd" clip-rule="evenodd" d="M20 17C21.1046 17 22 16.1046 22 15V11.4721C22 11.1616 21.9277 10.8554 21.7889 10.5777L19.5528 6.10557C19.214 5.428 18.5215 5 17.7639 5H4C2.89543 5 2 5.89543 2 7V15C2 16.1046 2.89543 17 4 17H5.17071C5.58254 18.1652 6.69378 19 8 19C9.30622 19 10.4175 18.1652 10.8293 17H13.1707C13.5825 18.1652 14.6938 19 16 19C17.3062 19 18.4175 18.1652 18.8293 17H20ZM4 7L17.7639 7L20 11.4721V15H18.8293C18.4175 13.8348 17.3062 13 16 13C14.6938 13 13.5825 13.8348 13.1707 15H10.8293C10.4175 13.8348 9.30622 13 8 13C6.69378 13 5.58254 13.8348 5.17071 15H4L4 7ZM7 16C7 16.5523 7.44772 17 8 17C8.55228 17 9 16.5523 9 16C9 15.4477 8.55228 15 8 15C7.44772 15 7 15.4477 7 16ZM16 17C16.5523 17 17 16.5523 17 16C17 15.4477 16.5523 15 16 15C15.4477 15 15 15.4477 15 16C15 16.5523 15.4477 17 16 17Z" fill="#3A3A47"/>
<path d="M14 8H10V12H14V8Z" fill="#3A3A47"/>
</svg>
