<svg width="24" height="24" viewBox="0 0 24 24" fill="none" xmlns="http://www.w3.org/2000/svg">
<path fill-rule="evenodd" clip-rule="evenodd" d="M2 7C2 5.89543 2.89543 5 4 5H17.7639C18.5215 5 19.214 5.428 19.5528 6.10557L21.7889 10.5777C21.9277 10.8554 22 11.1616 22 11.4721V15C22 16.1046 21.1046 17 20 17C20 17 20 14 17 14C14 14 14 17 14 17H10C10 17 10 14 7 14C4 14 4 17 4 17C2.89543 17 2 16.1046 2 15V7ZM4 7H8V11H4V7ZM10 7H14V11H10V7ZM18 7H16V11H20L18 7Z" fill="#24252E"/>
<path d="M9 17C9 18.1046 8.10457 19 7 19C5.89543 19 5 18.1046 5 17C5 15.8954 5.89543 15 7 15C8.10457 15 9 15.8954 9 17Z" fill="#24252E"/>
<path d="M19 17C19 18.1046 18.1046 19 17 19C15.8954 19 15 18.1046 15 17C15 15.8954 15.8954 15 17 15C18.1046 15 19 15.8954 19 17Z" fill="#24252E"/>
</svg>
