<svg width="24" height="24" viewBox="0 0 24 24" fill="none" xmlns="http://www.w3.org/2000/svg">
<path d="M8.25 12.75C8.80228 12.75 9.25 13.1977 9.25 13.75V14.75H10.25C10.8023 14.75 11.25 15.1977 11.25 15.75C11.25 16.3023 10.8023 16.75 10.25 16.75H9.25V17.75C9.25 18.3023 8.80228 18.75 8.25 18.75C7.69772 18.75 7.25 18.3023 7.25 17.75V16.75H6.25C5.69772 16.75 5.25 16.3023 5.25 15.75C5.25 15.1977 5.69772 14.75 6.25 14.75H7.25V13.75C7.25 13.1977 7.69772 12.75 8.25 12.75Z" fill="#3A3A47"/>
<path d="M17.75 16.25C18.3023 16.25 18.75 16.6977 18.75 17.25C18.75 17.8023 18.3023 18.25 17.75 18.25H13.75C13.1977 18.25 12.75 17.8023 12.75 17.25C12.75 16.6977 13.1977 16.25 13.75 16.25H17.75Z" fill="#3A3A47"/>
<path d="M17.75 13.25C18.3023 13.25 18.75 13.6977 18.75 14.25C18.75 14.8023 18.3023 15.25 17.75 15.25H13.75C13.1977 15.25 12.75 14.8023 12.75 14.25C12.75 13.6977 13.1977 13.25 13.75 13.25H17.75Z" fill="#3A3A47"/>
<path d="M16.332 6.24707C16.7225 5.85659 17.3556 5.85659 17.7461 6.24707C18.1366 6.63755 18.1366 7.27066 17.7461 7.66113L17.1602 8.24707L17.7461 8.83301C18.1366 9.22349 18.1366 9.85659 17.7461 10.2471C17.3556 10.6375 16.7225 10.6375 16.332 10.2471L15.7461 9.66113L15.1602 10.2471C14.7697 10.6375 14.1366 10.6375 13.7461 10.2471C13.3556 9.85659 13.3556 9.22349 13.7461 8.83301L14.332 8.24707L13.7461 7.66113C13.3556 7.27066 13.3556 6.63755 13.7461 6.24707C14.1366 5.85659 14.7697 5.85659 15.1602 6.24707L15.7461 6.83301L16.332 6.24707Z" fill="#3A3A47"/>
<path d="M10.25 7.25C10.8023 7.25 11.25 7.69772 11.25 8.25C11.25 8.80228 10.8023 9.25 10.25 9.25H6.25C5.69772 9.25 5.25 8.80228 5.25 8.25C5.25 7.69772 5.69772 7.25 6.25 7.25H10.25Z" fill="#3A3A47"/>
<path fill-rule="evenodd" clip-rule="evenodd" d="M20.2041 2.01074C21.2128 2.113 22 2.96435 22 4V20L21.9893 20.2041C21.8938 21.1457 21.1457 21.8938 20.2041 21.9893L20 22H4C2.96435 22 2.113 21.2128 2.01074 20.2041L2 20V4C2 2.89543 2.89543 2 4 2H20L20.2041 2.01074ZM4 20H20V4H4V20Z" fill="#3A3A47"/>
</svg>
