<svg width="24" height="24" viewBox="0 0 24 24" fill="none" xmlns="http://www.w3.org/2000/svg">
<path fill-rule="evenodd" clip-rule="evenodd" d="M20 2C21.1046 2 22 2.89543 22 4V20C22 21.1046 21.1046 22 20 22H4C2.89543 22 2 21.1046 2 20V4C2 2.89543 2.89543 2 4 2H20ZM8.25 12.75C7.69772 12.75 7.25 13.1977 7.25 13.75V14.75H6.25C5.69772 14.75 5.25 15.1977 5.25 15.75C5.25 16.3023 5.69772 16.75 6.25 16.75H7.25V17.75C7.25 18.3023 7.69772 18.75 8.25 18.75C8.80228 18.75 9.25 18.3023 9.25 17.75V16.75H10.25C10.8023 16.75 11.25 16.3023 11.25 15.75C11.25 15.1977 10.8023 14.75 10.25 14.75H9.25V13.75C9.25 13.1977 8.80228 12.75 8.25 12.75ZM13.75 16.25C13.1977 16.25 12.75 16.6977 12.75 17.25C12.75 17.8023 13.1977 18.25 13.75 18.25H17.75C18.3023 18.25 18.75 17.8023 18.75 17.25C18.75 16.6977 18.3023 16.25 17.75 16.25H13.75ZM13.75 13.25C13.1977 13.25 12.75 13.6977 12.75 14.25C12.75 14.8023 13.1977 15.25 13.75 15.25H17.75C18.3023 15.25 18.75 14.8023 18.75 14.25C18.75 13.6977 18.3023 13.25 17.75 13.25H13.75ZM17.7461 6.24707C17.3556 5.85659 16.7225 5.85659 16.332 6.24707L15.7461 6.83301L15.1602 6.24707C14.7697 5.85659 14.1366 5.85659 13.7461 6.24707C13.3556 6.63755 13.3556 7.27066 13.7461 7.66113L14.332 8.24707L13.7461 8.83301C13.3556 9.22349 13.3556 9.85659 13.7461 10.2471C14.1366 10.6375 14.7697 10.6375 15.1602 10.2471L15.7461 9.66113L16.332 10.2471C16.7225 10.6375 17.3556 10.6375 17.7461 10.2471C18.1366 9.85659 18.1366 9.22349 17.7461 8.83301L17.1602 8.24707L17.7461 7.66113C18.1366 7.27066 18.1366 6.63755 17.7461 6.24707ZM6.25 7.25C5.69772 7.25 5.25 7.69772 5.25 8.25C5.25 8.80228 5.69772 9.25 6.25 9.25H10.25C10.8023 9.25 11.25 8.80228 11.25 8.25C11.25 7.69772 10.8023 7.25 10.25 7.25H6.25Z" fill="#3A3A47"/>
</svg>
