<svg xmlns="http://www.w3.org/2000/svg" xmlns:xlink="http://www.w3.org/1999/xlink" width="24" height="24" viewBox="0 0 24 24">
    <defs>
        <path id="a" d="M6 4h1V3c-.002-.667.33-1 1-1 .67 0 1.004.333 1.004 1v1H15V2.941c0-.627.333-.941 1-.941s1 .314 1 .941V4h1c1.333 0 2 .667 2 2v14c0 1.333-.667 2-2 2H6c-1.333 0-2-.667-2-2V6.004C4 4.668 4.667 4 6 4zm0 16h12V10H6v10zM6 6v2h12V6H6zm3 8c-.667.001-1-.332-1-1 0-.668.335-1.001 1.002-1H10c.667 0 1 .333 1 1s-.333 1-1 1H9zm5 0c-.667.001-1-.332-1-1 0-.668.335-1.001 1.002-1H15c.667 0 1 .333 1 1s-.333 1-1 1h-1zm-5 4c-.667.001-1-.332-1-1 0-.668.335-1.001 1.002-1H10c.667 0 1 .333 1 1s-.333 1-1 1H9zm5 0c-.667.001-1-.332-1-1 0-.668.335-1.001 1.002-1H15c.667 0 1 .333 1 1s-.333 1-1 1h-1z"/>
    </defs>
    <use fill="#686A75" fill-rule="evenodd" xlink:href="#a"/>
</svg>
