<svg width="24" height="24" viewBox="0 0 24 24" fill="none" xmlns="http://www.w3.org/2000/svg">
<path fill-rule="evenodd" clip-rule="evenodd" d="M4 20C4 21.333 4.667 22 6 22H10.0986C10.1548 21.7796 10.2356 21.5611 10.3427 21.3478L13.5612 14.9377C13.1869 14.8129 13 14.5005 13 14C13.001 13.332 13.335 12.999 14.002 13H14.5L15.1571 11.7594C15.746 10.5865 16.8723 10 17.9986 10H4V20ZM10 15H9C8.333 15.001 8 14.668 8 14C8.001 13.332 8.335 12.999 9.002 13H10C10.667 13 11 13.333 11 14C11 14.667 10.667 15 10 15ZM10 19H9C8.333 19.001 8 18.668 8 18C8.001 17.332 8.335 16.999 9.002 17H10C10.667 17 11 17.333 11 18C11 18.667 10.667 19 10 19Z" fill="#3A3A47"/>
<path d="M7 4H6C4.667 4 4 4.668 4 6.004V8H20V6C20 4.667 19.333 4 18 4H17V2.941C17 2.314 16.667 2 16 2C15.333 2 15 2.314 15 2.941V4H9.004V3C9.004 2.333 8.67 2 8 2C7.33 2 6.998 2.333 7 3V4Z" fill="#3A3A47"/>
<path fill-rule="evenodd" clip-rule="evenodd" d="M12.1314 22.2453L16.9458 12.6568C17.3856 11.7811 18.6144 11.7811 19.0542 12.6568L23.8686 22.2453C24.2715 23.0476 23.6993 24 22.8145 24H13.1855C12.3007 24 11.7285 23.0476 12.1314 22.2453ZM16.7359 21.6461C16.7359 20.9802 17.266 20.4403 17.9199 20.4403C18.5738 20.4403 19.1039 20.9802 19.1039 21.6461C19.1039 22.312 18.5738 22.8518 17.9199 22.8518C17.266 22.8518 16.7359 22.312 16.7359 21.6461ZM18.8079 15.6173C18.8079 15.1178 18.4103 14.713 17.9199 14.713C17.4295 14.713 17.0319 15.1178 17.0319 15.6173V18.6317C17.0319 19.1311 17.4295 19.536 17.9199 19.536C18.4103 19.536 18.8079 19.1311 18.8079 18.6317V15.6173Z" fill="#3A3A47"/>
</svg>
