<svg width="24" height="24" viewBox="0 0 24 24" fill="none" xmlns="http://www.w3.org/2000/svg">
<path fill-rule="evenodd" clip-rule="evenodd" d="M20 13.7891L19.0859 14.7031L17.876 13.4932C16.6658 12.283 14.7033 12.283 13.4932 13.4932C12.283 14.7033 12.283 16.6658 13.4932 17.876L14.7031 19.0859L13.4932 20.2959C13.0126 20.7765 12.7258 21.3764 12.627 22H6C4.667 22 4 21.333 4 20V10H20V13.7891ZM9.00195 17C8.33498 16.999 8.001 17.332 8 18C8 18.668 8.333 19.001 9 19H10C10.667 19 11 18.667 11 18C11 17.333 10.667 17 10 17H9.00195ZM9.00195 13C8.33498 12.999 8.001 13.332 8 14C8 14.668 8.333 15.001 9 15H10C10.667 15 11 14.667 11 14C11 13.333 10.667 13 10 13H9.00195Z" fill="#3A3A47"/>
<path d="M16 2C16.667 2 17 2.31441 17 2.94141V4H18C19.333 4 20 4.667 20 6V8H4V6.00391C4.00003 4.66797 4.66703 4 6 4H7V3C6.998 2.333 7.33 2 8 2C8.67 2 9.00391 2.333 9.00391 3V4H15V2.94141C15 2.31441 15.333 2 16 2Z" fill="#3A3A47"/>
<path fill-rule="evenodd" clip-rule="evenodd" d="M17.6034 19.0858L14.8928 16.3753C14.4835 15.9659 14.4835 15.3022 14.8928 14.8928C15.3022 14.4835 15.9659 14.4835 16.3753 14.8928L19.0858 17.6034L21.7964 14.8928C22.2057 14.4835 22.8694 14.4835 23.2788 14.8928C23.6882 15.3022 23.6882 15.9659 23.2788 16.3753L20.5683 19.0858L23.2788 21.7964C23.6882 22.2057 23.6882 22.8694 23.2788 23.2788C22.8694 23.6882 22.2057 23.6882 21.7964 23.2788L19.0858 20.5683L16.3753 23.2788C15.9659 23.6882 15.3022 23.6882 14.8928 23.2788C14.4835 22.8694 14.4835 22.2057 14.8928 21.7964L17.6034 19.0858Z" fill="#3A3A47"/>
</svg>
