<svg xmlns="http://www.w3.org/2000/svg" width="24" height="24" viewBox="0 0 24 24">
    <path fill="#3A3A47" fill-rule="evenodd" d="M20 10v10c0 1.273-.607 1.938-1.822 1.996L18 22H6c-1.273 0-1.938-.607-1.996-1.822L4 20V10h16zm-10 7h-.998c-.667-.001-1.001.332-1.002 1 0 .668.333 1.001 1 1h1c.667 0 1-.333 1-1s-.333-1-1-1zm5 0h-.998c-.667-.001-1.001.332-1.002 1 0 .668.333 1.001 1 1h1c.667 0 1-.333 1-1s-.333-1-1-1zm-5-4h-.998c-.667-.001-1.001.332-1.002 1 0 .668.333 1.001 1 1h1c.667 0 1-.333 1-1s-.333-1-1-1zm5 0h-.998c-.667-.001-1.001.332-1.002 1 0 .668.333 1.001 1 1h1c.667 0 1-.333 1-1s-.333-1-1-1zm1-11c.619 0 .95.27.995.812l.005.13V4h1c1.273 0 1.938.607 1.996 1.822L20 6v2H4V6.004c0-1.275.607-1.942 1.822-2L6 4h1V3c-.002-.667.33-1 1-1 .621 0 .954.287.998.862L9.004 3v1H15V2.941c0-.627.333-.941 1-.941z"/>
</svg>
