<svg xmlns="http://www.w3.org/2000/svg" xmlns:xlink="http://www.w3.org/1999/xlink" width="24" height="24" viewBox="0 0 24 24">
    <defs>
        <path id="a" d="M16 8v10c0 1.273-.607 1.938-1.822 1.996L14 20H2C.727 20 .062 19.393.004 18.178L0 18V8h16zM6 15h-.998c-.667-.001-1.001.332-1.002 1 0 .668.333 1.001 1 1h1c.667 0 1-.333 1-1s-.333-1-1-1zm5 0h-.998c-.667-.001-1.001.332-1.002 1 0 .668.333 1.001 1 1h1c.667 0 1-.333 1-1s-.333-1-1-1zm-5-4h-.998c-.667-.001-1.001.332-1.002 1 0 .668.333 1.001 1 1h1c.667 0 1-.333 1-1s-.333-1-1-1zm5 0h-.998c-.667-.001-1.001.332-1.002 1 0 .668.333 1.001 1 1h1c.667 0 1-.333 1-1s-.333-1-1-1zm1-11c.619 0 .95.27.995.812l.005.13V2h1c1.273 0 1.938.607 1.996 1.822L16 4v2H0V4.004c0-1.275.607-1.942 1.822-2L2 2h1V1c-.002-.667.33-1 1-1 .621 0 .954.287.998.862L5.004 1v1H11V.941C11 .314 11.333 0 12 0z"/>
    </defs>
    <use fill="#3A3A47" fill-rule="evenodd" transform="translate(4 2)" xlink:href="#a"/>
</svg>
