<svg xmlns="http://www.w3.org/2000/svg" xmlns:xlink="http://www.w3.org/1999/xlink" width="24" height="24" viewBox="0 0 24 24">
    <defs>
        <path id="a" d="M6 4c-1.333 0-2 .668-2 2.004V20c0 1.333.667 2 2 2h12c1.333 0 2-.667 2-2V6c0-1.333-.667-2-2-2h-1V2.941C17 2.314 16.667 2 16 2s-1 .314-1 .941V4H9.004V3c0-.667-.335-1-1.004-1-.67 0-1.002.333-1 1v1H6zM4 8h16v2H4V8zm5 7h1c.667 0 1-.333 1-1s-.333-1-1-1h-.998c-.667-.001-1.001.332-1.002 1 0 .668.333 1.001 1 1zm5 0h1c.667 0 1-.333 1-1s-.333-1-1-1h-.998c-.667-.001-1.001.332-1.002 1 0 .668.333 1.001 1 1zm-5 4h1c.667 0 1-.333 1-1s-.333-1-1-1h-.998c-.667-.001-1.001.332-1.002 1 0 .668.333 1.001 1 1zm5 0h1c.667 0 1-.333 1-1s-.333-1-1-1h-.998c-.667-.001-1.001.332-1.002 1 0 .668.333 1.001 1 1z"/>
    </defs>
    <use fill="#53595E" fill-rule="evenodd" xlink:href="#a"/>
</svg>
