<svg width="24" height="24" viewBox="0 0 24 24" fill="none" xmlns="http://www.w3.org/2000/svg">
<path d="M16 2C16.667 2 17 2.31441 17 2.94141V4H18C19.333 4 20 4.667 20 6V8H4V6.00391C4.00003 4.66797 4.66703 4 6 4H7V3C6.998 2.333 7.33 2 8 2C8.67 2 9.00391 2.333 9.00391 3V4H15V2.94141C15 2.31441 15.333 2 16 2Z" fill="#3A3A47"/>
<path d="M18 10C14.9833 10 12.3571 11.67 10.9941 14.1357C10.9974 14.0921 11 14.0469 11 14C11 13.333 10.667 13 10 13H9.00195C8.33498 12.999 8.001 13.332 8 14C8 14.668 8.333 15.001 9 15H10C10.2754 15 10.4927 14.9417 10.6543 14.8281C10.3599 15.509 10.1585 16.2387 10.0635 17.002C10.0427 17.0013 10.0215 17 10 17H9.00195C8.33498 16.999 8.001 17.332 8 18C8 18.668 8.333 19.001 9 19H10C10.0215 19 10.0426 18.9978 10.0635 18.9971C10.1982 20.0805 10.5499 21.0957 11.0732 22H6C4.667 22 4 21.333 4 20V10H18Z" fill="#3A3A47"/>
<path fill-rule="evenodd" clip-rule="evenodd" d="M18 22C15.7909 22 14 20.2091 14 18C14 15.7909 15.7909 14 18 14C20.2091 14 22 15.7909 22 18C22 20.2091 20.2091 22 18 22ZM18 24C14.6863 24 12 21.3137 12 18C12 14.6863 14.6863 12 18 12C21.3137 12 24 14.6863 24 18C24 21.3137 21.3137 24 18 24Z" fill="#3A3A47"/>
<path fill-rule="evenodd" clip-rule="evenodd" d="M18 15.25C18.4142 15.25 18.75 15.5858 18.75 16V17.6893L19.5303 18.4697C19.8232 18.7626 19.8232 19.2374 19.5303 19.5303C19.2374 19.8232 18.7626 19.8232 18.4697 19.5303L17.4697 18.5303C17.329 18.3897 17.25 18.1989 17.25 18V16C17.25 15.5858 17.5858 15.25 18 15.25Z" fill="#3A3A47"/>
</svg>
