<svg width="24" height="24" viewBox="0 0 24 24" fill="none" xmlns="http://www.w3.org/2000/svg">
<path d="M5 4H4C2.667 4 2 4.668 2 6.004V20C2 21.333 2.667 22 4 22H12.126C12.0438 21.6804 12 21.3453 12 21V20H4V10H12.126C12.3284 9.21378 12.7638 8.5211 13.3542 8H4V6H16V7C16.7286 7 17.4117 7.19479 18 7.53513V6C18 4.667 17.333 4 16 4H15V2.941C15 2.314 14.667 2 14 2C13.333 2 13 2.314 13 2.941V4H7.004V3C7.004 2.333 6.67 2 6 2C5.33 2 4.998 2.333 5 3V4Z" fill="#3A3A47"/>
<path d="M8.9402 12.5704C8.81708 12.19 8.50382 12 8 12H7.002C6.335 11.999 6 12.332 6 13C6 13.668 6.333 14.001 7 14H7.53513C7.87481 13.4128 8.35949 12.92 8.9402 12.5704Z" fill="#3A3A47"/>
<path d="M7 16C6.33433 15.9997 6 16.3327 6 17C6 17.668 6.333 18.001 7 18H7.53513C7.19479 17.4117 7 16.7286 7 16Z" fill="#3A3A47"/>
<path d="M15 11C15 10.4477 15.4477 10 16 10C16.5523 10 17 10.4477 17 11V15H21C21.5523 15 22 15.4477 22 16C22 16.5523 21.5523 17 21 17H17V21C17 21.5523 16.5523 22 16 22C15.4477 22 15 21.5523 15 21V17H11C10.4477 17 10 16.5523 10 16C10 15.4477 10.4477 15 11 15H15V11Z" fill="#3A3A47"/>
</svg>
