<svg width="24" height="24" viewBox="0 0 24 24" fill="none" xmlns="http://www.w3.org/2000/svg">
<path d="M17.5054 10.7022C17.307 10.5798 17.0424 10.641 16.9101 10.8247C16.6952 11.1461 16.4471 11.4828 16.1495 11.8808C14.8432 13.6562 12.892 16.3348 12.892 17.8654C12.892 18.9827 13.3881 19.9929 14.1818 20.7276C14.9755 21.4469 16.0668 21.9061 17.2739 21.9061C18.481 21.9061 19.5723 21.4469 20.366 20.7123C21.1597 19.9776 21.6557 18.9674 21.6557 17.8501C21.6557 16.3195 19.7046 13.6562 18.3983 11.8808C18.2081 11.6219 18.033 11.377 17.868 11.1461C17.7891 11.0357 17.7125 10.9286 17.6377 10.8247C17.6046 10.7787 17.555 10.7328 17.5054 10.7022Z" fill="#3A3A47"/>
<path d="M5 4H4C2.667 4 2 4.668 2 6.004V8H18V6C18 4.667 17.333 4 16 4H15V2.941C15 2.314 14.667 2 14 2C13.333 2 13 2.314 13 2.941V4H7.004V3C7.004 2.333 6.67 2 6 2C5.33 2 4.998 2.333 5 3V4Z" fill="#3A3A47"/>
<path fill-rule="evenodd" clip-rule="evenodd" d="M13.3354 22H4C2.667 22 2 21.333 2 20V10H15.6461C14.9692 10.9222 14.1927 11.995 13.4898 13.0815C13.3538 13.0272 13.1905 13 13 13H12.002C11.335 12.999 11.001 13.332 11 14C11 14.668 11.333 15.001 12 15H12.3534C11.962 15.7444 11.6583 16.4552 11.5033 17.0844C11.1685 17.2218 11.0007 17.5269 11 18C11 18.4656 11.1618 18.7685 11.4857 18.9089C11.709 20.0446 12.3096 21.0601 13.1585 21.8458C13.2163 21.8982 13.2753 21.9496 13.3354 22ZM8 15H7C6.333 15.001 6 14.668 6 14C6.001 13.332 6.335 12.999 7.002 13H8C8.667 13 9 13.333 9 14C9 14.667 8.667 15 8 15ZM8 19H7C6.333 19.001 6 18.668 6 18C6.001 17.332 6.335 16.999 7.002 17H8C8.667 17 9 17.333 9 18C9 18.667 8.667 19 8 19Z" fill="#3A3A47"/>
</svg>
