<svg width="24" height="24" viewBox="0 0 24 24" fill="none" xmlns="http://www.w3.org/2000/svg">
<path fill-rule="evenodd" clip-rule="evenodd" d="M20 12.9189L15.0703 17.917L13.9404 16.7715C12.8102 15.6257 10.9779 15.6257 9.84766 16.7715C9.77544 16.8447 9.70849 16.9213 9.64551 17H9.00195C8.33498 16.999 8.001 17.332 8 18C8 18.668 8.333 19.001 9 19H9.00781C9.04391 19.6985 9.32145 20.3864 9.84766 20.9199L10.9131 22H6C4.667 22 4 21.333 4 20V10H20V12.9189ZM9.00195 13C8.33498 12.999 8.001 13.332 8 14C8 14.668 8.333 15.001 9 15H10C10.667 15 11 14.667 11 14C11 13.333 10.667 13 10 13H9.00195ZM14.002 13C13.335 12.999 13.001 13.332 13 14C13 14.668 13.333 15.001 14 15H15C15.667 15 16 14.667 16 14C16 13.333 15.667 13 15 13H14.002Z" fill="#3A3A47"/>
<path d="M16 2C16.667 2 17 2.31441 17 2.94141V4H18C19.333 4 20 4.667 20 6V8H4V6.00391C4.00003 4.66797 4.66703 4 6 4H7V3C6.998 2.333 7.33 2 8 2C8.67 2 9.00391 2.333 9.00391 3V4H15V2.94141C15 2.31441 15.333 2 16 2Z" fill="#3A3A47"/>
<path fill-rule="evenodd" clip-rule="evenodd" d="M22.7207 14.2837C23.0931 14.6619 23.0931 15.2751 22.7207 15.6533L15.7673 22.7163C15.3949 23.0946 14.7912 23.0946 14.4189 22.7163L11.2793 19.5272C10.9069 19.149 10.9069 18.5358 11.2793 18.1576C11.6516 17.7794 12.2553 17.7794 12.6277 18.1576L15.0931 20.6619L21.3723 14.2837C21.7447 13.9054 22.3484 13.9054 22.7207 14.2837Z" fill="#3A3A47"/>
</svg>
