<svg width="24" height="24" viewBox="0 0 24 24" fill="none" xmlns="http://www.w3.org/2000/svg">
<path fill-rule="evenodd" clip-rule="evenodd" d="M5.7469 2H14.4917L14.3412 3.1318C14.2768 3.61602 14.2175 4.06327 14.1626 4.47765C13.4309 4.68419 12.75 4.83906 12.083 4.94793L12.2084 4H6.95979C6.92971 4.22365 6.90985 4.49674 6.90562 4.79969C6.90475 4.86178 6.90455 4.92425 6.90501 4.98694C6.39411 4.92889 5.85219 4.85515 5.2718 4.7653C5.1487 4.74624 5.02648 4.73884 4.90627 4.74228C4.91372 4.29747 4.94917 3.86617 5.01425 3.49633C5.04744 3.30772 5.09121 3.11844 5.15 2.94358C5.20403 2.78291 5.29263 2.56672 5.44667 2.37455L5.7469 2ZM7.05878 3.54661L7.05687 3.55078C7.05809 3.54789 7.05878 3.54661 7.05878 3.54661Z" fill="#3A3A47"/>
<path d="M16.6862 7.07691C17.2166 6.9229 17.5217 6.36809 17.3677 5.83772C17.2137 5.30734 16.6588 5.00224 16.1285 5.15625C15.8575 5.23495 15.5939 5.30926 15.3369 5.37923C14.804 5.52426 14.4895 6.07383 14.6346 6.60674C14.7796 7.13964 15.3292 7.45407 15.8621 7.30904C16.1312 7.23579 16.4056 7.15839 16.6862 7.07691Z" fill="#3A3A47"/>
<path d="M13.3294 7.89728C13.8726 7.79734 14.2319 7.27599 14.132 6.73283C14.032 6.18966 13.5107 5.83036 12.9675 5.9303C12.4277 6.02962 11.9069 6.10416 11.3915 6.15426C10.8418 6.2077 10.4395 6.69663 10.493 7.24633C10.5464 7.79602 11.0353 8.19832 11.585 8.14488C12.162 8.0888 12.7392 8.00589 13.3294 7.89728Z" fill="#3A3A47"/>
<path d="M8.92932 8.21178C9.48104 8.23668 9.94848 7.8096 9.97337 7.25787C9.99827 6.70615 9.57119 6.23871 9.01946 6.21381C8.51019 6.19084 7.98313 6.14546 7.42672 6.07675C6.8786 6.00906 6.37939 6.39853 6.3117 6.94665C6.24401 7.49477 6.63348 7.99398 7.1816 8.06167C7.7844 8.13611 8.36337 8.18625 8.92932 8.21178Z" fill="#3A3A47"/>
<path d="M4.62404 7.6362C5.16536 7.7457 5.69296 7.39565 5.80246 6.85433C5.91196 6.31301 5.56191 5.78541 5.02059 5.67591C4.7593 5.62305 4.49098 5.56631 4.21489 5.50562C3.67548 5.38706 3.14209 5.72822 3.02353 6.26763C2.90496 6.80704 3.24613 7.34043 3.78553 7.45899C4.07164 7.52188 4.35092 7.58095 4.62404 7.6362Z" fill="#3A3A47"/>
<path d="M11.6158 9.04449C12.286 8.97447 12.943 8.87015 13.6025 8.73301C13.3845 10.3886 13.2857 11.0978 12.9147 13.6216C12.8158 14.2941 12.9355 14.7729 13.1432 15.1329C13.3589 15.5067 13.7151 15.8293 14.2032 16.0964C15.203 16.6434 16.569 16.8531 17.6237 16.8531C18.4112 16.8531 19.0985 17.1043 19.5848 17.6133C20.0603 18.111 20.2411 18.748 20.2381 19.3313C20.2324 20.4218 19.5529 21.7238 18.24 22.0634L18.1168 22.0952H6.74149L6.44097 21.7505L6.43936 21.7486L6.43612 21.7449L6.42955 21.7371L6.4161 21.7207C6.40701 21.7094 6.39768 21.6974 6.38816 21.6846C6.36911 21.6589 6.34938 21.6303 6.32936 21.5984C6.28925 21.5346 6.24847 21.4587 6.2096 21.3692C6.13176 21.1899 6.06336 20.9603 6.02118 20.6683C5.9375 20.0888 5.95482 19.2497 6.21892 18.027C6.40999 17.1424 6.57064 16.5845 6.66222 16.2665C6.69037 16.1688 6.71199 16.0937 6.72597 16.0387C6.74099 15.9796 6.74553 15.9528 6.74707 15.9412L6.74774 15.935L6.7477 15.9332C6.74666 15.9127 6.73985 15.8517 6.68283 15.6292C6.50144 14.9215 6.28929 13.4978 6.0768 12.0719C6.04629 11.8671 6.01568 11.6618 5.98524 11.459C5.83953 10.4885 5.69655 9.57218 5.563 8.8499C6.28689 8.94845 6.97353 9.02394 7.63411 9.07466C7.7479 9.73976 7.85846 10.4652 7.96308 11.1621C7.99371 11.3661 8.02392 11.5684 8.05369 11.7678C8.27246 13.2326 8.46684 14.5342 8.62022 15.1327C8.67746 15.356 8.73275 15.5895 8.74506 15.8305C8.75889 16.1011 8.71699 16.3244 8.66426 16.5317C8.63491 16.6471 8.60202 16.7613 8.56418 16.8926C8.47103 17.2159 8.34791 17.6433 8.17384 18.4492C8.00413 19.2349 7.96878 19.7616 7.97788 20.0952H17.8229C17.9036 20.0546 17.9897 19.9821 18.0681 19.8652C18.1765 19.7035 18.2372 19.5019 18.2381 19.3209C18.239 19.143 18.1851 19.0435 18.1388 18.995C18.1032 18.9578 17.9813 18.8531 17.6237 18.8531C16.3881 18.8531 14.6484 18.6197 13.2432 17.851C12.5289 17.4601 11.8578 16.9067 11.411 16.1326C10.9563 15.3447 10.7782 14.4037 10.9359 13.3307C11.2591 11.1323 11.3738 10.3244 11.5429 9.05196L11.6158 9.04449Z" fill="#3A3A47"/>
</svg>
