<svg xmlns="http://www.w3.org/2000/svg" width="24" height="24" viewBox="0 0 24 24">
    <path fill="#686A75" fill-rule="evenodd" d="M4 6.003c1.341.002 2.678.002 4.011 0l.631-1.266c.102-.262.247-.454.433-.574a1.1 1.1 0 0 1 .675-.16h4.475c.263-.017.491.036.685.16.195.123.349.315.463.574l.62 1.266c1.338.003 2.674.003 4.007 0C21.333 6 22 6.666 22 8v10c0 1.338-.667 2.006-2 2.003-2-.004-13.989-.004-16 0-1.34.003-2.008-.665-2-2.003V8c-.008-1.333.66-1.998 2-1.997zm8 12a5 5 0 1 0 0-10 5 5 0 0 0 0 10zm0-2a3 3 0 1 1 0-6 3 3 0 0 1 0 6z"/>
</svg>
