<svg width="24" height="24" viewBox="0 0 24 24" fill="none" xmlns="http://www.w3.org/2000/svg">
<path fill-rule="evenodd" clip-rule="evenodd" d="M4 6.00304C5.341 6.00504 6.678 6.00504 8.011 6.00304L8.642 4.73704C8.744 4.47504 8.889 4.28304 9.075 4.16304C9.27685 4.0383 9.51363 3.98218 9.75 4.00304H14.225C14.488 3.98604 14.716 4.03904 14.91 4.16304C15.105 4.28604 15.259 4.47804 15.373 4.73704L15.993 6.00304C17.331 6.00604 18.667 6.00604 20 6.00304C21.333 6.00004 22 6.66604 22 8.00004V18C22 19.338 21.333 20.006 20 20.003C18 19.999 6.011 19.999 4 20.003C2.66 20.006 1.992 19.338 2 18V8.00004C1.992 6.66704 2.66 6.00204 4 6.00304ZM12 18.003C13.3261 18.003 14.5979 17.4763 15.5355 16.5386C16.4732 15.6009 17 14.3291 17 13.003C17 11.677 16.4732 10.4052 15.5355 9.46751C14.5979 8.52983 13.3261 8.00304 12 8.00304C10.6739 8.00304 9.40215 8.52983 8.46447 9.46751C7.52678 10.4052 7 11.677 7 13.003C7 14.3291 7.52678 15.6009 8.46447 16.5386C9.40215 17.4763 10.6739 18.003 12 18.003ZM12 16.003C11.2044 16.003 10.4413 15.687 9.87868 15.1244C9.31607 14.5618 9 13.7987 9 13.003C9 12.2074 9.31607 11.4443 9.87868 10.8817C10.4413 10.3191 11.2044 10.003 12 10.003C12.7956 10.003 13.5587 10.3191 14.1213 10.8817C14.6839 11.4443 15 12.2074 15 13.003C15 13.7987 14.6839 14.5618 14.1213 15.1244C13.5587 15.687 12.7956 16.003 12 16.003Z" fill="#3A3A47"/>
</svg>
