<svg width="24" height="24" viewBox="0 0 24 24" fill="none" xmlns="http://www.w3.org/2000/svg">
<path d="M11.751 2.36668C11.813 2.28155 12 2 12 2C12 2 12.2267 2.33521 12.249 2.36668C12.3004 2.43846 12.3529 2.51241 12.407 2.58856C12.5198 2.74736 12.6398 2.91632 12.7697 3.09452C13.6641 4.31693 15 6.15163 15 7.20588C15 7.97554 14.6606 8.67191 14.1171 9.17769C13.5396 9.71029 12.7835 10.0039 12 9.99996C11.2187 10.0027 10.4642 9.71332 9.88286 9.18804C9.33943 8.68226 9 7.98632 9 7.21666C9 6.16241 10.3359 4.31737 11.2303 3.09452C11.4339 2.82029 11.6036 2.58831 11.751 2.36668Z" fill="#3A3A47"/>
<path d="M4 21C4 20.4477 4.44772 20 5 20H9V13C9 11.8954 9.89543 11 11 11H13C14.1046 11 15 11.8954 15 13V20H19C19.5523 20 20 20.4477 20 21V22H4V21Z" fill="#3A3A47"/>
</svg>
