<svg width="24" height="24" viewBox="0 0 24 24" fill="none" xmlns="http://www.w3.org/2000/svg">
<path fill-rule="evenodd" clip-rule="evenodd" d="M14.0094 2.01269C15.114 2.01269 16.0094 2.90812 16.0094 4.01269L16.0094 8.08358C15.6828 8.03686 15.3489 8.01269 15.0094 8.01269C13.799 8.01269 12.6603 8.31991 11.6671 8.86063C11.8724 8.6775 12.0016 8.41097 12.0016 8.11426C12.0016 7.56197 11.5539 7.11426 11.0016 7.11426C10.4493 7.11426 10.0016 7.56197 10.0016 8.11426C10.0016 8.66654 10.4493 9.11426 11.0016 9.11426C11.1133 9.11426 11.2206 9.09595 11.3209 9.06218C9.68051 10.0812 8.49246 11.7596 8.12722 13.727L5.0094 13.727L2.0094 16.8092L2.0094 4.0127C2.0094 2.90813 2.90483 2.0127 4.0094 2.01269L14.0094 2.01269ZM7.00159 9.11426C7.55387 9.11426 8.00159 8.66654 8.00159 8.11426C8.00159 7.56197 7.55387 7.11426 7.00159 7.11426C6.4493 7.11426 6.00159 7.56197 6.00159 8.11426C6.00159 8.66654 6.4493 9.11426 7.00159 9.11426Z" fill="#3A3A47"/>
<path fill-rule="evenodd" clip-rule="evenodd" d="M15.0094 10.0127C17.7708 10.0127 20.0094 12.2513 20.0094 15.0127C20.0094 16.0274 19.7071 16.9715 19.1878 17.7599L19.2828 17.8553C19.7483 18.3226 21.7652 20.3479 21.7652 20.3479C22.1581 20.7947 22.0085 21.3611 21.6783 21.6896C21.3482 22.018 20.7822 22.1587 20.3622 21.7436L20.3188 21.7003C19.9811 21.3631 17.786 19.1715 17.786 19.1715C16.9917 19.7028 16.0368 20.0127 15.0094 20.0127C12.248 20.0127 10.0094 17.7741 10.0094 15.0127C10.0094 12.2513 12.248 10.0127 15.0094 10.0127ZM15.0094 12.0127C13.3525 12.0127 12.0094 13.3558 12.0094 15.0127C12.0094 16.6695 13.3525 18.0127 15.0094 18.0127C16.6663 18.0127 18.0094 16.6695 18.0094 15.0127C18.0094 13.3558 16.6663 12.0127 15.0094 12.0127Z" fill="#3A3A47"/>
</svg>
