<svg width="24" height="24" viewBox="0 0 24 24" fill="none" xmlns="http://www.w3.org/2000/svg">
<path fill-rule="evenodd" clip-rule="evenodd" d="M14.0093 2.01269C15.1138 2.01269 16.0093 2.90812 16.0093 4.01269L16.0093 8.08358C15.6827 8.03686 15.3488 8.01269 15.0093 8.01269C13.7989 8.01269 12.6602 8.31991 11.667 8.86063C11.8722 8.6775 12.0015 8.41097 12.0015 8.11426C12.0015 7.56197 11.5538 7.11426 11.0015 7.11426C10.4492 7.11426 10.0015 7.56197 10.0015 8.11426C10.0015 8.66654 10.4492 9.11426 11.0015 9.11426C11.1131 9.11426 11.2205 9.09595 11.3208 9.06218C9.68039 10.0812 8.49234 11.7596 8.1271 13.727L5.00928 13.727L2.00928 16.8092L2.00928 4.0127C2.00928 2.90813 2.90471 2.0127 4.00928 2.01269L14.0093 2.01269ZM7.00147 9.11426C7.55375 9.11426 8.00147 8.66654 8.00147 8.11426C8.00147 7.56197 7.55375 7.11426 7.00147 7.11426C6.44918 7.11426 6.00147 7.56197 6.00147 8.11426C6.00147 8.66654 6.44918 9.11426 7.00147 9.11426Z" fill="#3A3A47"/>
<path fill-rule="evenodd" clip-rule="evenodd" d="M15.0093 10.0127C17.7707 10.0127 20.0093 12.2513 20.0093 15.0127C20.0093 16.0274 19.707 16.9715 19.1876 17.7599L19.2827 17.8553C19.7481 18.3226 21.7651 20.3479 21.7651 20.3479C22.158 20.7947 22.0084 21.3611 21.6782 21.6896C21.348 22.018 20.7821 22.1587 20.3621 21.7436L20.3187 21.7003C19.981 21.3631 17.7859 19.1715 17.7859 19.1715C16.9916 19.7028 16.0366 20.0127 15.0093 20.0127C12.2479 20.0127 10.0093 17.7741 10.0093 15.0127C10.0093 12.2513 12.2479 10.0127 15.0093 10.0127ZM15.0093 12.0127C13.3524 12.0127 12.0093 13.3558 12.0093 15.0127C12.0093 16.6695 13.3524 18.0127 15.0093 18.0127C16.6661 18.0127 18.0093 16.6695 18.0093 15.0127C18.0093 13.3558 16.6661 12.0127 15.0093 12.0127Z" fill="#3A3A47"/>
</svg>
