<svg width="24" height="24" viewBox="0 0 24 24" fill="none" xmlns="http://www.w3.org/2000/svg">
<path fill-rule="evenodd" clip-rule="evenodd" d="M2 4.00098C2 2.66898 2.667 2.00198 4 2.00098H20C21.318 2.00198 21.984 2.66898 22 4.00098V18.001L21.976 22.001L16 18H4C2.667 18 2 17.333 2 16V3.99998V4.00098ZM4 3.99998V16H17L20 18V3.99998H4ZM8 11.001C7.73478 11.001 7.48043 10.8956 7.29289 10.7081C7.10536 10.5205 7 10.2662 7 10.001C7 9.73576 7.10536 9.48141 7.29289 9.29387C7.48043 9.10633 7.73478 9.00098 8 9.00098C8.26522 9.00098 8.51957 9.10633 8.70711 9.29387C8.89464 9.48141 9 9.73576 9 10.001C9 10.2662 8.89464 10.5205 8.70711 10.7081C8.51957 10.8956 8.26522 11.001 8 11.001ZM12 11.001C11.7348 11.001 11.4804 10.8956 11.2929 10.7081C11.1054 10.5205 11 10.2662 11 10.001C11 9.73576 11.1054 9.48141 11.2929 9.29387C11.4804 9.10633 11.7348 9.00098 12 9.00098C12.2652 9.00098 12.5196 9.10633 12.7071 9.29387C12.8946 9.48141 13 9.73576 13 10.001C13 10.2662 12.8946 10.5205 12.7071 10.7081C12.5196 10.8956 12.2652 11.001 12 11.001ZM16 11.001C15.7348 11.001 15.4804 10.8956 15.2929 10.7081C15.1054 10.5205 15 10.2662 15 10.001C15 9.73576 15.1054 9.48141 15.2929 9.29387C15.4804 9.10633 15.7348 9.00098 16 9.00098C16.2652 9.00098 16.5196 9.10633 16.7071 9.29387C16.8946 9.48141 17 9.73576 17 10.001C17 10.2662 16.8946 10.5205 16.7071 10.7081C16.5196 10.8956 16.2652 11.001 16 11.001Z" fill="#3A3A47"/>
</svg>
