<svg xmlns="http://www.w3.org/2000/svg" xmlns:xlink="http://www.w3.org/1999/xlink" width="24" height="24" viewBox="0 0 24 24">
    <defs>
        <path id="a" d="M10 0c5.523 0 10 4.477 10 10 0 5.522-4.477 10-10 10S0 15.522 0 10C0 4.477 4.477 0 10 0zm0 2a8 8 0 1 0 0 16 8 8 0 0 0 0-16zm4.708 4.293a1 1 0 0 1 0 1.414l-6 6a1 1 0 0 1-1.414 0l-3.001-3.001a1 1 0 0 1 1.414-1.414l2.294 2.294 5.293-5.293a1 1 0 0 1 1.414 0z"/>
    </defs>
    <use fill="#3A3A47" fill-rule="evenodd" transform="translate(2 2)" xlink:href="#a"/>
</svg>
