<svg width="24" height="24" viewBox="0 0 24 24" fill="none" xmlns="http://www.w3.org/2000/svg">
<path d="M2 12C2 6.477 6.477 2 12 2C17.523 2 22 6.477 22 12C22 17.522 17.523 22 12 22C6.477 22 2 17.522 2 12ZM4 12C4 14.1217 4.84285 16.1566 6.34315 17.6569C7.84344 19.1571 9.87827 20 12 20C14.1217 20 16.1566 19.1571 17.6569 17.6569C19.1571 16.1566 20 14.1217 20 12C20 9.87827 19.1571 7.84344 17.6569 6.34315C16.1566 4.84285 14.1217 4 12 4C9.87827 4 7.84344 4.84285 6.34315 6.34315C4.84285 7.84344 4 9.87827 4 12ZM15.294 8.293C15.4826 8.11084 15.7352 8.01005 15.9974 8.01233C16.2596 8.0146 16.5104 8.11977 16.6958 8.30518C16.8812 8.49059 16.9864 8.7414 16.9887 9.0036C16.991 9.2658 16.8902 9.5184 16.708 9.707L10.708 15.707C10.5205 15.8945 10.2662 15.9998 10.001 15.9998C9.73584 15.9998 9.48153 15.8945 9.294 15.707L6.293 12.706C6.11084 12.5174 6.01005 12.2648 6.01233 12.0026C6.0146 11.7404 6.11977 11.4896 6.30518 11.3042C6.49059 11.1188 6.7414 11.0136 7.0036 11.0113C7.2658 11.009 7.5184 11.1098 7.707 11.292L10.001 13.586L15.294 8.293Z" fill="#3A3A47"/>
</svg>
