<svg width="24" height="24" viewBox="0 0 24 24" fill="none" xmlns="http://www.w3.org/2000/svg">
<path fill-rule="evenodd" clip-rule="evenodd" d="M2 4C2 2.89543 2.89543 2 4 2H20C21.1046 2 22 2.89543 22 4V20C22 21.1046 21.1046 22 20 22H4C2.89543 22 2 21.1046 2 20V4ZM10.5303 13.2197C10.8232 13.5126 10.8232 13.9874 10.5303 14.2803L8.13367 16.677C7.8382 16.9725 7.35916 16.9725 7.0637 16.677L5.71967 15.333C5.42678 15.0401 5.42678 14.5652 5.71967 14.2723C6.01256 13.9794 6.48744 13.9794 6.78033 14.2723L7.59868 15.0907L9.46967 13.2197C9.76256 12.9268 10.2374 12.9268 10.5303 13.2197ZM12.75 14.25C12.3358 14.25 12 14.5858 12 15C12 15.4142 12.3358 15.75 12.75 15.75H17.75C18.1642 15.75 18.5 15.4142 18.5 15C18.5 14.5858 18.1642 14.25 17.75 14.25H12.75ZM10.5303 7.46967C10.8232 7.76256 10.8232 8.23744 10.5303 8.53033L8.13367 10.927C7.8382 11.2225 7.35916 11.2225 7.0637 10.927L5.71967 9.58296C5.42678 9.29007 5.42678 8.81519 5.71967 8.5223C6.01256 8.22941 6.48744 8.22941 6.78033 8.5223L7.59868 9.34066L9.46967 7.46967C9.76256 7.17678 10.2374 7.17678 10.5303 7.46967ZM12.75 8.5C12.3358 8.5 12 8.83579 12 9.25C12 9.66421 12.3358 10 12.75 10H17.75C18.1642 10 18.5 9.66421 18.5 9.25C18.5 8.83579 18.1642 8.5 17.75 8.5H12.75Z" fill="#3A3A47"/>
</svg>
