<svg width="24" height="24" viewBox="0 0 24 24" fill="none" xmlns="http://www.w3.org/2000/svg">
<path fill-rule="evenodd" clip-rule="evenodd" d="M18.294 6.29301C18.3863 6.19749 18.4966 6.12131 18.6186 6.0689C18.7406 6.01649 18.8718 5.98891 19.0046 5.98775C19.1374 5.9866 19.2691 6.0119 19.392 6.06218C19.5149 6.11246 19.6265 6.18672 19.7204 6.28061C19.8143 6.3745 19.8886 6.48615 19.9388 6.60905C19.9891 6.73195 20.0144 6.86363 20.0133 6.99641C20.0121 7.12919 19.9845 7.26041 19.9321 7.38241C19.8797 7.50441 19.8035 7.61476 19.708 7.707L10.708 16.707C10.5205 16.8945 10.2662 16.9998 10.001 16.9998C9.73585 16.9998 9.48154 16.8945 9.29401 16.707L4.29301 11.706C4.11085 11.5174 4.01006 11.2648 4.01234 11.0026C4.01461 10.7404 4.11978 10.4896 4.30519 10.3042C4.4906 10.1188 4.74141 10.0136 5.00361 10.0113C5.26581 10.0091 5.51841 10.1098 5.70701 10.292L10.001 14.586L18.294 6.29301Z" fill="#3A3A47"/>
</svg>
