<svg width="24" height="24" viewBox="0 0 24 24" fill="none" xmlns="http://www.w3.org/2000/svg">
<path d="M9.02424 2.02277C8.47212 2.00917 8.01352 2.44573 7.99992 2.99785C7.98632 3.54996 8.42288 4.00857 8.975 4.02216C9.53895 4.03605 10.1079 4.13116 10.6655 4.31418C8.39766 5.50277 6.91783 7.87683 6.91527 10.5002L6.76824 10.4262C6.32476 10.2212 5.84691 10.0002 5.0928 10.0002C3.4998 10.0002 1.9998 11.5294 1.9998 13.8463C1.9998 17.245 4.6861 20.0002 7.99981 20.0002C8.20991 20.0002 8.41749 19.9891 8.62202 19.9675C7.98228 18.9249 7.55993 17.7254 7.42402 16.4323C7.11157 13.4595 8.72925 10.6443 11.4236 10.0539C11.2537 10.0184 11.0808 10.0002 10.9068 10.0002C10.1527 10.0002 9.67485 10.2212 9.23138 10.4262L8.91613 10.5863C8.87977 8.2194 10.5292 6.11981 12.8802 5.6241C14.6662 7.29806 15.2843 9.97252 14.2558 12.3223C14.5521 12.4113 14.8545 12.4701 15.2186 12.4318C15.7191 12.3792 16.0676 12.1713 16.4412 11.9485L16.5071 11.9092C16.7999 10.767 16.8267 9.59862 16.6158 8.48272C17.3928 8.64255 18.3282 8.59664 19.1271 8.1354C20.2986 7.459 21.4103 5.22333 21.8906 4.15344C22.0227 3.85915 21.8333 3.53099 21.5123 3.49827C20.3456 3.37932 17.8536 3.2242 16.6821 3.90059C16.0568 4.26162 15.61 4.82227 15.3255 5.40989C14.5567 4.30666 13.4965 3.38443 12.1916 2.77233C11.1675 2.29191 10.0902 2.04902 9.02424 2.02277Z" fill="#3A3A47"/>
<path d="M13.1522 11.994C13.1359 11.9909 13.1194 11.9879 13.1029 11.985C12.8314 11.9379 12.5257 11.9194 12.1627 11.9575C10.5337 12.1288 9.16403 13.8538 9.41307 16.2233C9.53802 17.4122 9.9757 18.489 10.6326 19.3776C10.6325 19.3777 10.6327 19.3776 10.6326 19.3776C9.97539 18.4884 9.5379 17.411 9.41307 16.2233C9.16403 13.8538 10.5337 12.1288 12.1627 11.9575C12.5478 11.9171 12.8686 11.9404 13.1522 11.994Z" fill="#3A3A47"/>
<path fill-rule="evenodd" clip-rule="evenodd" d="M12.1627 11.9575C10.5337 12.1288 9.16403 13.8538 9.41307 16.2233C9.77837 19.6989 12.822 22.2278 16.2107 21.8716C19.5995 21.5155 22.0505 18.4091 21.6852 14.9335C21.4362 12.5641 19.7378 11.1614 18.1087 11.3327C17.3376 11.4137 16.8726 11.6911 16.4412 11.9485C16.0676 12.1713 15.7191 12.3792 15.2186 12.4318C14.7181 12.4844 14.334 12.3535 13.9222 12.2132C13.4467 12.0511 12.9339 11.8765 12.1627 11.9575Z" fill="#3A3A47"/>
</svg>
