<svg width="24" height="24" viewBox="0 0 24 24" fill="none" xmlns="http://www.w3.org/2000/svg">
<path d="M9.02443 2.02253C8.47231 2.00893 8.01371 2.44549 8.00011 2.9976C7.98652 3.54972 8.42307 4.00832 8.97519 4.02192C9.53915 4.03581 10.1081 4.13092 10.6657 4.31394C8.39785 5.50253 6.91802 7.87658 6.91547 10.5L6.76844 10.426C6.32496 10.2209 5.8471 9.99994 5.09299 9.99995C3.5 9.99995 2 11.5292 2 13.8461C2 17.2448 4.68629 19.9999 8 19.9999C8.2101 19.9999 8.41769 19.9889 8.62222 19.9673C7.98247 18.9246 7.56013 17.7252 7.42422 16.4321C7.11176 13.4593 8.72944 10.6441 11.4238 10.0537C11.2539 10.0182 11.081 9.99994 10.907 9.99995C10.1529 9.99995 9.67505 10.2209 9.23157 10.426L8.91633 10.586C8.87997 8.21916 10.5294 6.11957 12.8804 5.62386C14.6664 7.29781 15.2788 9.97054 14.2502 12.3204C13.7747 12.1583 12.9341 11.8762 12.1629 11.9573C10.5339 12.1285 9.16423 13.8536 9.41326 16.223C9.42107 16.2973 9.4301 16.3712 9.44033 16.4446C9.45056 16.518 9.46194 16.5906 9.47455 16.6631C10.0392 19.9095 12.9669 22.2123 16.2109 21.8714C19.5997 21.5152 22.0507 18.4089 21.6854 14.9332C21.4364 12.5638 19.738 11.1612 18.1089 11.3324C17.3768 11.4094 16.9207 11.6632 16.5073 11.909C16.8001 10.7668 16.8269 9.59838 16.616 8.48248C17.393 8.64231 18.3284 8.59639 19.1273 8.13515C20.2988 7.45876 21.4104 5.22309 21.8908 4.15319C22.0229 3.85891 21.8335 3.53074 21.5125 3.49803C20.3458 3.37908 17.8538 3.22396 16.6823 3.90035C16.057 4.26137 15.6102 4.82203 15.3257 5.40964C14.5569 4.30641 13.4967 3.38419 12.1918 2.77208C11.1677 2.29166 10.0904 2.04878 9.02443 2.02253Z" fill="#3A3A47"/>
</svg>
