<svg width="24" height="24" viewBox="0 0 24 24" fill="none" xmlns="http://www.w3.org/2000/svg">
<path d="M9.02443 2.00031C8.47231 1.98671 8.01371 2.42327 8.00011 2.97539C7.98652 3.5275 8.42307 3.98611 8.97519 3.9997C9.53915 4.01359 10.1081 4.1087 10.6657 4.29172C8.39785 5.48031 6.91802 7.85437 6.91547 10.4778L6.76844 10.4038C6.32496 10.1987 5.8471 9.97772 5.09299 9.97773C3.5 9.97773 2 11.5069 2 13.8239C2 17.2226 4.68629 19.9777 8 19.9777C8.2101 19.9777 8.41769 19.9667 8.62222 19.945C7.98247 18.9024 7.56013 17.703 7.42422 16.4099C7.11176 13.437 8.72944 10.6219 11.4238 10.0315C11.2539 9.99597 11.081 9.97773 10.907 9.97773C10.1529 9.97773 9.67505 10.1987 9.23157 10.4038L8.91633 10.5638C8.87997 8.19694 10.5294 6.09735 12.8804 5.60164C14.6664 7.2756 15.2845 9.95006 14.2559 12.2999C14.5523 12.3888 14.8547 12.4476 15.2188 12.4093C15.7193 12.3567 16.0678 12.1489 16.4414 11.926C16.4632 11.913 16.4852 11.8999 16.5073 11.8867C16.8001 10.7446 16.8269 9.57616 16.616 8.46026C17.393 8.62009 18.3284 8.57418 19.1273 8.11294C20.2988 7.43654 21.4104 5.20087 21.8908 4.13098C22.0229 3.83669 21.8335 3.50853 21.5125 3.47581C20.3458 3.35686 17.8538 3.20174 16.6823 3.87813C16.057 4.23916 15.6102 4.79981 15.3257 5.38743C14.5569 4.28419 13.4967 3.36197 12.1918 2.74987C11.1677 2.26945 10.0904 2.02656 9.02443 2.00031Z" fill="#3A3A47"/>
<path d="M13.1429 11.9698C12.8616 11.9174 12.5439 11.8951 12.1632 11.9352C10.5342 12.1064 9.16456 13.8314 9.4136 16.2009C9.53843 17.3886 9.97599 18.4657 10.6332 19.355C9.9763 18.4664 9.53856 17.3898 9.4136 16.2009C9.16456 13.8314 10.5342 12.1064 12.1632 11.9352C12.5262 11.897 12.8316 11.9154 13.1031 11.9626C13.1164 11.9649 13.1297 11.9673 13.1429 11.9698Z" fill="#3A3A47"/>
<path fill-rule="evenodd" clip-rule="evenodd" d="M12.3721 13.9242C12.1235 13.9503 11.2368 14.4159 11.4024 15.9918C11.6573 18.4167 13.7586 20.0959 16.0017 19.8601C18.2448 19.6244 19.951 17.545 19.6962 15.1201C19.5305 13.5442 18.5664 13.2731 18.3178 13.2993C18.138 13.3182 18.0183 13.3556 17.9202 13.3967C17.8018 13.4463 17.6914 13.509 17.4657 13.6436C17.45 13.653 17.4336 13.6628 17.4165 13.6731C17.0462 13.895 16.3721 14.2991 15.4276 14.3984C14.4832 14.4976 13.7398 14.2426 13.3314 14.1024C13.3126 14.096 13.2945 14.0898 13.2771 14.0838C13.0284 13.9991 12.9074 13.9607 12.7813 13.9368C12.6768 13.917 12.5519 13.9053 12.3721 13.9242ZM9.4136 16.2009C9.16456 13.8314 10.5342 12.1064 12.1632 11.9352C12.9344 11.8541 13.4467 12.0287 13.9222 12.1907C14.334 12.331 14.7183 12.462 15.2188 12.4093C15.7193 12.3567 16.0678 12.1489 16.4414 11.926C16.8728 11.6686 17.3376 11.3918 18.1088 11.3107C19.7379 11.1395 21.4362 12.5416 21.6852 14.911C22.0505 18.3867 19.5995 21.493 16.2107 21.8492C12.822 22.2053 9.7789 19.6765 9.4136 16.2009Z" fill="#3A3A47"/>
</svg>
