<svg width="24" height="24" viewBox="0 0 24 24" fill="none" xmlns="http://www.w3.org/2000/svg">
<path d="M20 11C20 6.0374 15.9626 2 11 2C6.0374 2 2 6.0374 2 11C2 15.9626 6.0374 20 11 20C11.5082 20 12.0068 19.9577 12.4923 19.8763L11.6314 19.0191C11.3977 18.7863 11.223 18.5052 11.1173 18.1991C11.0782 18.1997 11.0392 18.2 11 18.2C7.0301 18.2 3.8 14.9699 3.8 11C3.8 7.0301 7.0301 3.8 11 3.8C14.9699 3.8 18.2 7.0301 18.2 11C18.2 11.5522 18.1375 12.0901 18.0192 12.6069C18.0261 12.6136 18.033 12.6204 18.0399 12.6272C18.2645 12.8508 18.4346 13.1191 18.5414 13.4113L19.349 12.6071L19.3553 12.6011C19.5226 12.4402 19.7132 12.309 19.9189 12.2107C19.9724 11.8146 20 11.4105 20 11Z" fill="#3A3A47"/>
<path d="M14.953 19.0846L13.5834 17.7208C13.4813 17.7602 13.3781 17.7973 13.2738 17.8321L14.6666 19.219C14.7629 19.1758 14.8584 19.131 14.953 19.0846Z" fill="#3A3A47"/>
<path d="M11.9053 7.14326C11.9053 6.64265 11.4995 6.23683 10.9989 6.23683C10.4983 6.23683 10.0925 6.64265 10.0925 7.14326L10.0936 11.6367C10.0936 12.1373 10.4994 12.5431 11 12.5431H14.8571C15.3577 12.5431 15.7636 12.1373 15.7636 11.6367C15.7636 11.1361 15.3577 10.7302 14.8571 10.7302H11.9064L11.9053 7.14326Z" fill="#3A3A47"/>
<path fill-rule="evenodd" clip-rule="evenodd" d="M15.7198 13.3219C15.937 13.1131 16.2279 12.9974 16.5299 13C16.832 13.0027 17.1208 13.1233 17.3343 13.3358C17.5477 13.5484 17.6687 13.8358 17.6713 14.1361C17.6739 14.4364 17.558 14.7259 17.3483 14.9421L17.3426 14.948L14.7792 17.5003L17.3477 20.0579C17.5574 20.2741 17.6733 20.5636 17.6706 20.8639C17.668 21.1642 17.547 21.4516 17.3336 21.6642C17.1202 21.8767 16.8313 21.9973 16.5293 22C16.2272 22.0026 15.9363 21.8869 15.7192 21.6781L15.7132 21.6724L12.337 18.3105C12.1212 18.0955 12 17.8041 12 17.5003C12 17.1966 12.1211 16.9052 12.337 16.6902L15.7198 13.3219ZM20.0485 13.3219C20.2656 13.1131 20.5565 12.9974 20.8586 13C21.1606 13.0027 21.4495 13.1233 21.6629 13.3358C21.8764 13.5484 21.9973 13.8358 22 14.1361C22.0026 14.4364 21.8866 14.7259 21.6769 14.9421L21.6712 14.948L19.1078 17.5003L21.6763 20.0579C21.886 20.2741 22.0019 20.5636 21.9993 20.8639C21.9967 21.1642 21.8757 21.4516 21.6622 21.6642C21.4488 21.8767 21.16 21.9973 20.8579 22C20.5558 22.0026 20.2649 21.8869 20.0478 21.6781L20.0418 21.6724L16.6656 18.3105C16.4498 18.0955 16.3286 17.8041 16.3286 17.5003C16.3286 17.1966 16.4498 16.9052 16.6656 16.6902L20.0485 13.3219Z" fill="#3A3A47"/>
</svg>
