<svg xmlns="http://www.w3.org/2000/svg" xmlns:xlink="http://www.w3.org/1999/xlink" width="24" height="24" viewBox="0 0 24 24">
    <defs>
        <path id="a" d="M12 2c5.514 0 10 4.486 10 10s-4.486 10-10 10S2 17.514 2 12 6.486 2 12 2zm0 18c4.411 0 8-3.589 8-8s-3.589-8-8-8-8 3.589-8 8 3.589 8 8 8zM11 7.5c0-.667.333-1 1-1s1 .333 1 1v4.155l2.01 1.996c.435.426.429.872-.02 1.336-.447.465-.922.471-1.426.02l-1.962-1.919c-.246-.26-.407-.48-.483-.663-.077-.182-.117-.437-.119-.767V7.5z"/>
    </defs>
    <use fill="#686A75" fill-rule="evenodd" xlink:href="#a"/>
</svg>
