<svg width="24" height="24" viewBox="0 0 24 24" fill="none" xmlns="http://www.w3.org/2000/svg">
<path fill-rule="evenodd" clip-rule="evenodd" d="M11 2C15.9626 2 20 6.0374 20 11C20 11.4105 19.9724 11.8146 19.9189 12.2107C19.7132 12.309 19.5226 12.4402 19.3553 12.6011L19.349 12.6071L18.5414 13.4113C18.4346 13.1191 18.2645 12.8508 18.0399 12.6272C17.6407 12.2297 17.1015 12.005 16.5386 12.0001C16.2481 11.9976 15.963 12.0537 15.6992 12.1623C15.4354 12.2709 15.2232 12.4121 15.0267 12.6011L15.0204 12.6071L11.6313 15.9817C11.2275 16.3839 11 16.9301 11 17.5003C11 18.0707 11.2277 18.617 11.6314 19.0191L12.4923 19.8763C12.0068 19.9577 11.5082 20 11 20C6.0374 20 2 15.9626 2 11C2 6.0374 6.0374 2 11 2ZM10.9989 6.23683C11.4995 6.23683 11.9053 6.64265 11.9053 7.14326L11.9064 10.7302H13.8571C14.3577 10.7302 14.7636 11.1361 14.7636 11.6367C14.7636 12.1373 14.3577 12.5431 13.8571 12.5431H11C10.4994 12.5431 10.0936 12.1373 10.0936 11.6367L10.0925 7.14326C10.0925 6.64265 10.4983 6.23683 10.9989 6.23683ZM16.5299 13C16.2279 12.9974 15.937 13.1131 15.7198 13.3219L12.337 16.6902C12.1211 16.9052 12 17.1966 12 17.5003C12 17.8041 12.1212 18.0955 12.337 18.3105L15.7132 21.6724L15.7192 21.6781C15.9363 21.8869 16.2272 22.0026 16.5293 22C16.8313 21.9973 17.1202 21.8767 17.3336 21.6642C17.547 21.4516 17.668 21.1642 17.6706 20.8639C17.6733 20.5636 17.5574 20.2741 17.3477 20.0579L14.7792 17.5003L17.3426 14.948L17.3483 14.9421C17.558 14.7259 17.6739 14.4364 17.6713 14.1361C17.6687 13.8358 17.5477 13.5484 17.3343 13.3358C17.1208 13.1233 16.832 13.0027 16.5299 13ZM20.8586 13C20.5565 12.9974 20.2656 13.1131 20.0485 13.3219L16.6656 16.6902C16.4498 16.9052 16.3286 17.1966 16.3286 17.5003C16.3286 17.8041 16.4498 18.0955 16.6656 18.3105L20.0418 21.6724L20.0478 21.6781C20.2649 21.8869 20.5558 22.0026 20.8579 22C21.16 21.9973 21.4488 21.8767 21.6622 21.6642C21.8757 21.4516 21.9967 21.1642 21.9993 20.8639C22.0019 20.5636 21.886 20.2741 21.6763 20.0579L19.1078 17.5003L21.6712 14.948L21.6769 14.9421C21.8866 14.7259 22.0026 14.4364 22 14.1361C21.9973 13.8358 21.8764 13.5484 21.6629 13.3358C21.4495 13.1233 21.1606 13.0027 20.8586 13Z" fill="#3A3A47"/>
</svg>
