<svg width="24" height="24" viewBox="0 0 24 24" fill="none" xmlns="http://www.w3.org/2000/svg">
<path fill-rule="evenodd" clip-rule="evenodd" d="M7 18.993C5.72998 18.9931 4.50753 18.5099 3.58082 17.6414C2.6541 16.773 2.09257 15.5845 2.01023 14.3172C1.92789 13.0498 2.3309 11.7987 3.13745 10.8176C3.94401 9.83661 5.09365 9.19927 6.353 9.035C6.353 8.395 8.098 5 12 5C16 5 18 8.35 18 10.985C19.996 10.985 22 12.552 22 14.993C22 16.893 20.551 18.993 18 18.993H7ZM7.009 17C8.549 17.007 16.945 16.986 18 16.993C19.055 17 20 16.196 20 15C20 13.804 19.055 13 18 13H16.013V11C16.013 8.92 14.348 7 12.025 7.001C9.702 7.003 7.995 9.003 7.995 11.001H7.01C6.6155 10.9984 6.22437 11.0738 5.85917 11.223C5.49396 11.3722 5.16189 11.5922 4.8821 11.8704C4.6023 12.1485 4.38031 12.4792 4.22892 12.8435C4.07753 13.2078 3.99973 13.5985 4 13.993C4 15.682 5.47 16.993 7.009 17Z" fill="#3A3A47"/>
</svg>
