<svg width="24" height="24" viewBox="0 0 24 24" fill="none" xmlns="http://www.w3.org/2000/svg">
<path fill-rule="evenodd" clip-rule="evenodd" d="M12 20.25C15.3137 20.25 18.25 17.3137 18.25 14C18.25 10.6863 15.3137 7.75 12 7.75C8.68629 7.75 5.75 10.6863 5.75 14C5.75 17.3137 8.68629 20.25 12 20.25ZM12 22C16.4183 22 20 18.4183 20 14C20 9.58172 16.4183 6 12 6C7.58172 6 4 9.58172 4 14C4 18.4183 7.58172 22 12 22Z" fill="#3A3A47"/>
<path fill-rule="evenodd" clip-rule="evenodd" d="M16.4994 4.06279C16.3398 4.0218 16.1725 4 16 4C14.8945 4 14 4.89551 14 6C14 6.85994 14.5423 7.5932 15.3042 7.87575L18.0703 10.5281C18.1969 10.9924 18.4865 11.3895 18.875 11.6538C19.1953 11.8723 19.582 12 20 12C21.1055 12 22 11.1045 22 10C22 9.82759 21.9782 9.66028 21.9372 9.50067C21.7156 8.63776 20.9329 8 20 8C20.9329 8 21.7156 7.36224 21.9372 6.49933C21.9782 6.33972 22 6.17241 22 6C22 4.89551 21.1055 4 20 4C19.8275 4 19.6602 4.0218 19.5006 4.06279C18.6372 4.28452 18 5.06783 18 6C18 5.06783 17.3628 4.28452 16.4994 4.06279Z" fill="#3A3A47"/>
<path fill-rule="evenodd" clip-rule="evenodd" d="M7.50058 4.06279C7.66019 4.0218 7.82753 4 8 4C9.10547 4 10 4.89551 10 6C10 6.85994 9.45774 7.5932 8.69585 7.87575L5.9297 10.5281C5.80314 10.9924 5.51353 11.3895 5.125 11.6538C4.80469 11.8723 4.41797 12 4 12C2.89453 12 2 11.1045 2 10C2 9.82759 2.0218 9.66028 2.06279 9.50067C2.28441 8.63776 3.06709 8 4 8C3.06709 8 2.28441 7.36224 2.06279 6.49933C2.0218 6.33972 2 6.17241 2 6C2 4.89551 2.89453 4 4 4C4.17247 4 4.33981 4.0218 4.49942 4.06279C5.36282 4.28452 6 5.06783 6 6C6 5.06783 6.63718 4.28452 7.50058 4.06279Z" fill="#3A3A47"/>
<path d="M15 11L16 13L15 15L14 13L15 11Z" fill="#3A3A47"/>
<path d="M9 11L10 13L9 15L8 13L9 11Z" fill="#3A3A47"/>
<path d="M13.6667 15.9167C13.6667 16.8372 12.9205 17.5834 12 17.5834C11.0795 17.5834 10.3333 16.8372 10.3333 15.9167C10.3333 14.9962 11.0795 14.25 12 14.25C12.9205 14.25 13.6667 14.9962 13.6667 15.9167Z" fill="#3A3A47"/>
<path fill-rule="evenodd" clip-rule="evenodd" d="M9.96818 16.3344C9.39316 15.6156 8.34434 15.4991 7.62557 16.0741C6.9068 16.6491 6.79026 17.6979 7.36528 18.4167C9.69916 21.334 14.301 21.334 16.6348 18.4167C17.2099 17.6979 17.0933 16.6491 16.3746 16.0741C15.6558 15.4991 14.607 15.6156 14.0319 16.3344C13.0325 17.5837 10.9676 17.5837 9.96818 16.3344ZM8.99191 17.1152C8.84816 16.9355 8.58595 16.9064 8.40626 17.0501C8.22656 17.1939 8.19743 17.4561 8.34118 17.6358C10.1747 19.9276 13.8251 19.9276 15.6586 17.6358C15.8023 17.4561 15.7732 17.1939 15.5935 17.0501C15.4138 16.9064 15.1516 16.9355 15.0079 17.1152C13.508 18.99 10.4918 18.99 8.99191 17.1152Z" fill="#3A3A47"/>
</svg>
