<svg width="24" height="24" viewBox="0 0 24 24" fill="none" xmlns="http://www.w3.org/2000/svg">
<path fill-rule="evenodd" clip-rule="evenodd" d="M20 14C20 18.4183 16.4183 22 12 22C7.58172 22 4 18.4183 4 14C4 13.3036 4.08899 12.6279 4.25623 11.9838C4.17238 11.9945 4.08686 12 4 12C2.89453 12 2 11.1045 2 10C2 9.82759 2.0218 9.66028 2.06279 9.50067C2.28441 8.63776 3.06709 8 4 8C3.06709 8 2.28441 7.36224 2.06279 6.49933C2.0218 6.33972 2 6.17241 2 6C2 4.89551 2.89453 4 4 4C4.17247 4 4.33981 4.0218 4.49942 4.06279C5.36282 4.28452 6 5.06783 6 6C6 5.06783 6.63718 4.28452 7.50058 4.06279C7.66019 4.0218 7.82753 4 8 4C9.10547 4 10 4.89551 10 6C10 6.08682 9.99446 6.17234 9.98374 6.25624C10.6279 6.089 11.3035 6 12 6C12.6965 6 13.3721 6.089 14.0162 6.25624C14.0055 6.17234 14 6.08681 14 6C14 4.89551 14.8945 4 16 4C16.1725 4 16.3398 4.0218 16.4994 4.06279C17.3628 4.28452 18 5.06783 18 6C18 5.06783 18.6372 4.28452 19.5006 4.06279C19.6602 4.0218 19.8275 4 20 4C21.1055 4 22 4.89551 22 6C22 6.17241 21.9782 6.33972 21.9372 6.49933C21.7156 7.36224 20.9329 8 20 8C20.9329 8 21.7156 8.63776 21.9372 9.50067C21.9782 9.66028 22 9.82759 22 10C22 11.1045 21.1055 12 20 12C19.9131 12 19.8276 11.9945 19.7438 11.9838C19.911 12.6279 20 13.3036 20 14ZM14 16C14 17.1046 13.1046 18 12 18C10.8954 18 10 17.1046 10 16C10 14.8954 10.8954 14 12 14C13.1046 14 14 14.8954 14 16ZM10 13L9 11L8 13L9 15L10 13ZM15 11L16 13L15 15L14 13L15 11ZM8.99191 17.1152C8.84815 16.9355 8.58595 16.9063 8.40626 17.0501C8.22656 17.1938 8.19743 17.456 8.34118 17.6357C10.1747 19.9276 13.8251 19.9276 15.6586 17.6357C15.8023 17.456 15.7732 17.1938 15.5935 17.0501C15.4138 16.9063 15.1516 16.9355 15.0078 17.1152C13.508 18.99 10.4918 18.99 8.99191 17.1152Z" fill="#3A3A47"/>
</svg>
