<svg width="24" height="24" viewBox="0 0 24 24" fill="none" xmlns="http://www.w3.org/2000/svg">
<path fill-rule="evenodd" clip-rule="evenodd" d="M8.707 16.213C8.88916 16.4016 8.98995 16.6542 8.98767 16.9164C8.9854 17.1786 8.88023 17.4294 8.69482 17.6148C8.50941 17.8002 8.2586 17.9054 7.9964 17.9077C7.7342 17.91 7.4816 17.8092 7.293 17.627L2.293 12.627C2.10553 12.4395 2.00021 12.1852 2.00021 11.92C2.00021 11.6549 2.10553 11.4005 2.293 11.213L7.294 6.21002C7.38625 6.11451 7.49659 6.03832 7.6186 5.98592C7.7406 5.93351 7.87182 5.90592 8.0046 5.90477C8.13738 5.90361 8.26906 5.92891 8.39195 5.9792C8.51485 6.02948 8.6265 6.10373 8.7204 6.19762C8.81429 6.29152 8.88854 6.40317 8.93882 6.52606C8.9891 6.64896 9.0144 6.78064 9.01325 6.91342C9.0121 7.0462 8.98451 7.17742 8.9321 7.29942C8.87969 7.42143 8.80351 7.53177 8.708 7.62402L4.414 11.92L8.707 16.213ZM15.294 16.213L19.587 11.92L15.293 7.62502C15.1975 7.53277 15.1213 7.42243 15.0689 7.30042C15.0165 7.17842 14.9889 7.0472 14.9877 6.91442C14.9866 6.78164 15.0119 6.64996 15.0622 6.52706C15.1125 6.40417 15.1867 6.29252 15.2806 6.19862C15.3745 6.10473 15.4861 6.03048 15.609 5.9802C15.7319 5.92991 15.8636 5.90461 15.9964 5.90577C16.1292 5.90692 16.2604 5.93451 16.3824 5.98692C16.5044 6.03932 16.6148 6.11551 16.707 6.21102L21.708 11.213C21.8955 11.4005 22.0008 11.6549 22.0008 11.92C22.0008 12.1852 21.8955 12.4395 21.708 12.627L16.708 17.627C16.5194 17.8092 16.2668 17.91 16.0046 17.9077C15.7424 17.9054 15.4916 17.8002 15.3062 17.6148C15.1208 17.4294 15.0156 17.1786 15.0133 16.9164C15.011 16.6542 15.1118 16.4016 15.294 16.213ZM10.647 19.783C9.991 19.665 9.721 19.279 9.837 18.625L12.267 4.83702C12.38 4.18002 12.767 3.91002 13.427 4.02702C14.089 4.14302 14.359 4.52902 14.237 5.18502L11.807 18.97C11.69 19.63 11.304 19.9 10.647 19.783Z" fill="#3A3A47"/>
</svg>
