<svg width="24" height="24" viewBox="0 0 24 24" fill="none" xmlns="http://www.w3.org/2000/svg">
<path fill-rule="evenodd" clip-rule="evenodd" d="M2 7.99438H11C11 7.99438 7 9.5 7 15C7 20.5 11 21.9813 11 21.9813C11 21.9813 12 22.0062 4 21.9813C2.66667 21.9813 2 21.3152 2 19.9831C2 18.6511 2 14.6548 2 7.99438ZM3.03754 2C12.4332 2 17.7541 2 19 2C20.3333 2 21 2.66604 21 3.99813V6H1V3.99813C1 2.66604 1.67918 2 3.03754 2Z" fill="#24252E"/>
<path d="M12.6359 8.86139C14.0868 8.06627 15.7724 7.81075 17.3937 8.14016C18.7702 8.41982 20.0249 9.10576 21 10.101V8.5C21 8.5 21 7.5 22 7.5C23 7.5 23 8.5 23 8.5V12.5C23 13.5 22 13.5 22 13.5H18C18 13.5 17 13.5 17 12.5C17 11.55 18 11.55 18 11.55H19.6224C18.9187 10.8112 18.003 10.3024 16.996 10.0978C15.8373 9.86236 14.6327 10.045 13.5959 10.6132C12.5591 11.1814 11.757 12.0985 11.332 13.2018C10.907 14.3051 10.8865 15.5232 11.2741 16.6402C11.6618 17.7572 12.4326 18.7007 13.4497 19.3035C14.4668 19.9063 15.6646 20.1293 16.8305 19.933C17.9964 19.7367 19.0551 19.1338 19.8188 18.2312C20.3659 17.5846 20.7363 16.8142 20.9026 15.9945C21.0122 15.4539 21.4496 15.0026 22.0012 15.0028C22.5528 15.0031 23.0071 15.4527 22.9284 15.9987C22.742 17.2918 22.1962 18.5141 21.3438 19.5215C20.2751 20.7845 18.7937 21.6282 17.1622 21.9029C15.5307 22.1775 13.8546 21.8655 12.4313 21.022C11.008 20.1785 9.92944 18.8582 9.38697 17.2952C8.8445 15.7322 8.87318 14.0276 9.46792 12.4837C10.0627 10.9398 11.185 9.65651 12.6359 8.86139Z" fill="#24252E"/>
</svg>
