<svg width="24" height="24" viewBox="0 0 24 24" fill="none" xmlns="http://www.w3.org/2000/svg">
<path d="M15 3C15 3.55228 14.5523 4 14 4C13.4477 4 13 3.55228 13 3C13 2.44772 13.4477 2 14 2C14.5523 2 15 2.44772 15 3Z" fill="#3A3A47"/>
<path d="M15.1294 6.25942C15.0579 5.99269 15.2162 5.71852 15.483 5.64705L17.4148 5.12941C17.6815 5.05794 17.9557 5.21623 18.0272 5.48296L18.5448 7.41482C18.6163 7.68155 18.458 7.95572 18.1913 8.02719L16.2594 8.54483C15.9927 8.6163 15.7185 8.45801 15.647 8.19127L15.1294 6.25942Z" fill="#3A3A47"/>
<path d="M19.7449 8.89658C19.6877 8.68319 19.8144 8.46386 20.0277 8.40668L21.1869 8.0961C21.4002 8.03892 21.6196 8.16555 21.6768 8.37894L21.9873 9.53805C22.0445 9.75144 21.9179 9.97077 21.7045 10.0279L20.5454 10.3385C20.332 10.3957 20.1127 10.2691 20.0555 10.0557L19.7449 8.89658Z" fill="#3A3A47"/>
<path fill-rule="evenodd" clip-rule="evenodd" d="M20.6603 12.3551C21.3341 12.246 21.9986 12.7076 21.905 13.3837C21.2313 18.2517 17.0534 22 12 22C6.47715 22 2 17.5228 2 12C2 6.91015 5.80264 2.70846 10.7219 2.08091C11.3673 1.99858 11.8359 2.60931 11.7024 3.24605C11.4557 4.42314 11.4533 5.26685 12.2227 5.82788C12.3828 5.94459 12.4893 6.12999 12.4816 6.32795C12.3192 10.493 15.1296 11.0425 17.4889 10.6101C17.7692 10.5587 18.0423 10.737 18.1347 11.0066C18.5931 12.3431 19.6137 12.5245 20.6603 12.3551ZM7.54548 8.10353L6.38637 8.41411C6.17298 8.47129 6.04635 8.69062 6.10353 8.90401L6.41411 10.0631C6.47129 10.2765 6.69062 10.4031 6.90401 10.346L8.06312 10.0354C8.27651 9.9782 8.40314 9.75887 8.34596 9.54548L8.03538 8.38637C7.9782 8.17299 7.75887 8.04635 7.54548 8.10353ZM11.4774 12.3551C11.4774 12.9074 11.0297 13.3551 10.4774 13.3551C9.92511 13.3551 9.4774 12.9074 9.4774 12.3551C9.4774 11.8028 9.92511 11.3551 10.4774 11.3551C11.0297 11.3551 11.4774 11.8028 11.4774 12.3551ZM15.1294 13.215L13.9703 13.5256C13.7569 13.5828 13.6303 13.8021 13.6875 14.0155L13.998 15.1746C14.0552 15.388 14.2746 15.5146 14.4879 15.4574L15.647 15.1469C15.8604 15.0897 15.9871 14.8704 15.9299 14.657L15.6193 13.4979C15.5621 13.2845 15.3428 13.1578 15.1294 13.215ZM13 17.5C13 18.0523 12.5523 18.5 12 18.5C11.4477 18.5 11 18.0523 11 17.5C11 16.9477 11.4477 16.5 12 16.5C12.5523 16.5 13 16.9477 13 17.5ZM8.07801 14.5455L6.9189 14.8561C6.70552 14.9132 6.57888 15.1326 6.63606 15.346L6.94664 16.5051C7.00382 16.7185 7.22315 16.8451 7.43654 16.7879L8.59565 16.4773C8.80904 16.4202 8.93567 16.2008 8.87849 15.9874L8.56791 14.8283C8.51073 14.6149 8.2914 14.4883 8.07801 14.5455Z" fill="#3A3A47"/>
</svg>
