<svg width="24" height="24" viewBox="0 0 24 24" fill="none" xmlns="http://www.w3.org/2000/svg">
<path fill-rule="evenodd" clip-rule="evenodd" d="M19.6372 14.3908C18.6211 17.6408 15.5847 20 12 20C7.58172 20 4 16.4183 4 12C4 8.4348 6.33352 5.41222 9.55591 4.37973C9.55511 4.60603 9.56915 4.83644 9.60399 5.06692C9.70816 5.75604 9.99013 6.39993 10.4791 6.93835C10.5435 9.1656 11.3771 10.8987 12.9881 11.8944C14.1938 12.6395 15.5665 12.7926 16.7594 12.7141C17.1615 13.318 17.7053 13.7889 18.3847 14.082C18.8081 14.2646 19.2338 14.3558 19.6372 14.3908ZM21.905 13.3837C21.9986 12.7076 21.3341 12.246 20.6603 12.3551C19.6137 12.5245 18.5931 12.3431 18.1347 11.0066C18.0423 10.737 17.7692 10.5587 17.4889 10.6101C15.1296 11.0425 12.3192 10.493 12.4816 6.32795C12.4893 6.12999 12.3828 5.94459 12.2227 5.82788C11.4533 5.26685 11.4557 4.42314 11.7024 3.24605C11.8359 2.60931 11.3673 1.99858 10.7219 2.08091C5.80264 2.70846 2 6.91015 2 12C2 17.5228 6.47715 22 12 22C17.0534 22 21.2313 18.2517 21.905 13.3837Z" fill="#3A3A47"/>
<path d="M11.4774 12.3551C11.4774 12.9074 11.0297 13.3551 10.4774 13.3551C9.92511 13.3551 9.4774 12.9074 9.4774 12.3551C9.4774 11.8028 9.92511 11.3551 10.4774 11.3551C11.0297 11.3551 11.4774 11.8028 11.4774 12.3551Z" fill="#3A3A47"/>
<path d="M13 17.5C13 18.0523 12.5523 18.5 12 18.5C11.4477 18.5 11 18.0523 11 17.5C11 16.9477 11.4477 16.5 12 16.5C12.5523 16.5 13 16.9477 13 17.5Z" fill="#3A3A47"/>
<path d="M15 3C15 3.55228 14.5523 4 14 4C13.4477 4 13 3.55228 13 3C13 2.44772 13.4477 2 14 2C14.5523 2 15 2.44772 15 3Z" fill="#3A3A47"/>
<path d="M6.10353 8.90401C6.04635 8.69062 6.17298 8.47129 6.38637 8.41411L7.54548 8.10353C7.75887 8.04635 7.9782 8.17299 8.03538 8.38637L8.34596 9.54548C8.40314 9.75887 8.27651 9.9782 8.06312 10.0354L6.90401 10.346C6.69062 10.4031 6.47129 10.2765 6.41411 10.0631L6.10353 8.90401Z" fill="#3A3A47"/>
<path d="M6.10353 8.90401C6.04635 8.69062 6.17298 8.47129 6.38637 8.41411L7.54548 8.10353C7.75887 8.04635 7.9782 8.17299 8.03538 8.38637L8.34596 9.54548C8.40314 9.75887 8.27651 9.9782 8.06312 10.0354L6.90401 10.346C6.69062 10.4031 6.47129 10.2765 6.41411 10.0631L6.10353 8.90401Z" fill="#3A3A47"/>
<path d="M15.1294 6.25942C15.0579 5.99269 15.2162 5.71852 15.483 5.64705L17.4148 5.12941C17.6815 5.05794 17.9557 5.21623 18.0272 5.48296L18.5448 7.41482C18.6163 7.68155 18.458 7.95572 18.1913 8.02719L16.2594 8.54483C15.9927 8.6163 15.7185 8.45801 15.647 8.19127L15.1294 6.25942Z" fill="#3A3A47"/>
<path d="M19.7449 8.89658C19.6877 8.68319 19.8144 8.46386 20.0277 8.40668L21.1869 8.0961C21.4002 8.03892 21.6196 8.16555 21.6768 8.37894L21.9873 9.53805C22.0445 9.75144 21.9179 9.97077 21.7045 10.0279L20.5454 10.3385C20.332 10.3957 20.1127 10.2691 20.0555 10.0557L19.7449 8.89658Z" fill="#3A3A47"/>
<path d="M13.6875 14.0155C13.6303 13.8021 13.7569 13.5828 13.9703 13.5256L15.1294 13.215C15.3428 13.1578 15.5621 13.2845 15.6193 13.4979L15.9299 14.657C15.9871 14.8704 15.8604 15.0897 15.647 15.1469L14.4879 15.4574C14.2746 15.5146 14.0552 15.388 13.998 15.1746L13.6875 14.0155Z" fill="#3A3A47"/>
<path d="M6.63606 15.346C6.57888 15.1326 6.70552 14.9132 6.9189 14.8561L8.07801 14.5455C8.2914 14.4883 8.51073 14.6149 8.56791 14.8283L8.87849 15.9874C8.93567 16.2008 8.80904 16.4202 8.59565 16.4773L7.43654 16.7879C7.22315 16.8451 7.00382 16.7185 6.94664 16.5051L6.63606 15.346Z" fill="#3A3A47"/>
</svg>
