<svg width="24" height="24" viewBox="0 0 24 24" fill="none" xmlns="http://www.w3.org/2000/svg">
<path fill-rule="evenodd" clip-rule="evenodd" d="M9.9996 7H6C4.73268 7.00134 4.09902 7.66834 4.09902 9.001C4.09902 10.3337 4.73255 11 5.9996 11H10V20C10.0028 21.1999 10.6702 21.8006 12.0021 21.8021C13.334 21.8036 14 21.2029 14 20V11H18C19.2673 10.9504 19.901 10.284 19.901 9.001C19.901 7.71799 19.2673 7.05098 18 7H14V4C14 2.66667 13.334 2 12.0021 2C10.6702 2 10.0028 2.66667 10 4L9.9996 7Z" fill="#3A3A47"/>
</svg>
