<svg width="24" height="24" viewBox="0 0 24 24" fill="none" xmlns="http://www.w3.org/2000/svg">
<path fill-rule="evenodd" clip-rule="evenodd" d="M9 4.00004C9 1.80903 10.6235 1.99953 11.9692 1.99995L12.0021 2.00004C13.4333 1.99953 15 1.80903 15 4.00056V6.00004H18C20.1553 6.00004 19.901 8.00004 19.901 9.00105C19.901 10.0021 20.1552 12 18 12H15V20C15 22.1535 12.6568 21.797 12.0021 21.8021C11.3474 21.8073 9 22.1497 9 20V12H5.9996C3.88824 12 4.09902 10.0058 4.09902 9.00105L4.09834 8.90404C4.08511 7.87345 3.90611 6.00004 6 6.00004H8.9996L9 4.00004ZM13 4.00004H11.0011L11 8.00004H6V10H11V20H13V10H18V8.00004H13V4.00004Z" fill="#3A3A47"/>
</svg>
