<svg width="24" height="24" viewBox="0 0 24 24" fill="none" xmlns="http://www.w3.org/2000/svg">
<path fill-rule="evenodd" clip-rule="evenodd" d="M12 2C17.5228 2 22 6.47715 22 12C22 17.5228 17.5228 22 12 22C6.47715 22 2 17.5228 2 12C2 6.47715 6.47715 2 12 2ZM12 4C7.58172 4 4 7.58172 4 12C4 16.4183 7.58172 20 12 20C16.4183 20 20 16.4183 20 12C20 7.58172 16.4183 4 12 4Z" fill="#3A3A47"/>
<path fill-rule="evenodd" clip-rule="evenodd" d="M11.0116 6.00488H13.0046C13.2827 6.0336 13.499 6.113 13.6535 6.24309C13.8079 6.37318 13.9233 6.57316 13.9996 6.84302V10.0001H17C17.2956 10.0088 17.5361 10.1097 17.7217 10.3027C17.9072 10.4957 17.9999 10.7282 17.9997 11.0001L17.9999 13.0001C18.0074 13.2587 17.9146 13.49 17.7217 13.6941C17.5287 13.8981 17.2878 14.0001 16.9991 14.0001H13.9996L13.9999 17.0048C14.0024 17.2427 13.9118 17.468 13.7281 17.6808C13.5444 17.8937 13.3017 18.0001 13 18.0001H10.9988C10.712 18.0001 10.4738 17.8937 10.2843 17.6808C10.0949 17.468 10 17.2405 9.99989 16.9983L9.99959 14.0001H6.99999C6.71329 14.0001 6.47364 13.8981 6.28104 13.6941C6.08844 13.49 5.99484 13.2587 6.00026 12.9999L6.00009 11.0001C5.99669 10.7369 6.09034 10.5044 6.28104 10.3027C6.47174 10.101 6.71139 10.0001 6.99999 10.0001H9.99959V6.82902C10.056 6.59717 10.1736 6.40185 10.3523 6.24309C10.531 6.08428 10.7508 6.00488 11.0116 6.00488Z" fill="#3A3A47"/>
</svg>
