<svg width="24" height="24" viewBox="0 0 24 24" fill="none" xmlns="http://www.w3.org/2000/svg">
<path d="M6 21C6.00112 21.0269 6.00112 21.0535 6.00006 21.0799C5.99876 21.112 5.99588 21.1437 5.99148 21.1749C5.92619 21.6388 5.52745 21.9991 5.04163 21.9991C4.52309 21.9991 4.10377 21.5886 4.0832 21.0799C4.08214 21.0535 4.08214 21.0269 4.08326 21L4.81743 12.9908C4.86452 12.477 4.44676 11.9972 3.99999 11.6372C3.51695 11.2481 3 10.9991 3 10.9991C3 9.24957 3.5 6.99979 4 5.1874C4.15817 4.61407 4.31634 4.0845 4.45868 3.62839C4.58861 3.21205 4.70535 2.85691 4.79687 2.58555C4.82114 2.51356 4.84365 2.44747 4.86415 2.3877C4.94438 2.15378 5.16462 2 5.41191 2C5.7367 2 6 2.26076 6 2.58555L6 21Z" fill="#3A3A47"/>
<path fill-rule="evenodd" clip-rule="evenodd" d="M11.0416 21.0009L11.5 10C11.1583 9.84803 10.802 9.60403 10.4691 9.29989C9.66673 8.56692 9 7.48471 9 6.5C9 4.73269 9.75 2 12 2C14.25 2 15 4.73269 15 6.5C15 7.48471 14.3333 8.56692 13.5309 9.29989C13.198 9.60403 12.8417 9.84803 12.5 10L12.9584 21.0009C12.9595 21.0277 12.9595 21.0544 12.9584 21.0807C12.9379 21.5895 12.5185 22 12 22C11.4815 22 11.0621 21.5895 11.0416 21.0807C11.0405 21.0544 11.0405 21.0277 11.0416 21.0009ZM12.1546 8.67379C12.0278 8.72839 11.9563 8.86903 12 9.00002C12.0436 9.131 12.1859 9.20257 12.3134 9.14956C13.8735 8.50086 14.7248 6.79837 14.3076 5.16101C14.2735 5.02721 14.1309 4.95635 14 5.00002C13.869 5.04368 13.7994 5.18527 13.8318 5.31948C14.1638 6.6941 13.4535 8.11461 12.1546 8.67379Z" fill="#3A3A47"/>
<path d="M17 6.49913C17 7.89243 17.8348 8.98092 19 9.49913L18.5416 21.0009C18.5189 21.5458 18.9546 22 19.5 22C20.0454 22 20.4811 21.5458 20.4584 21.0009L20 9.49913C21.1652 8.98092 22 7.8933 22 6.5V2.5C22 2.22386 21.7761 2 21.5 2C21.2239 2 21 2.22386 21 2.5V6.49983L20 6.49965V2.5C20 2.22386 19.7761 2 19.5 2C19.2239 2 19 2.22386 19 2.5V6.49948L18 6.4993V2.5C18 2.22386 17.7761 2 17.5 2C17.2239 2 17 2.22386 17 2.5V6.49913Z" fill="#3A3A47"/>
</svg>
