<svg width="24" height="24" viewBox="0 0 24 24" fill="none" xmlns="http://www.w3.org/2000/svg">
<path fill-rule="evenodd" clip-rule="evenodd" d="M22 8H2V4C2 2.667 2.667 2 4 2H19.99C21.33 2 22 2.668 22 4V8ZM6.70711 6.70711C6.51957 6.89464 6.26522 7 6 7C5.73478 7 5.48043 6.89464 5.29289 6.70711C5.10536 6.51957 5 6.26522 5 6C5 5.73478 5.10536 5.48043 5.29289 5.29289C5.48043 5.10536 5.73478 5 6 5C6.26522 5 6.51957 5.10536 6.70711 5.29289C6.89464 5.48043 7 5.73478 7 6C7 6.26522 6.89464 6.51957 6.70711 6.70711Z" fill="#3A3A47"/>
<path fill-rule="evenodd" clip-rule="evenodd" d="M2 14H7.78524C7.81558 13.9668 7.84674 13.9342 7.87868 13.9023C8.43491 13.346 9.18735 13.0305 9.97393 13.0237C10.7605 13.0169 11.5183 13.3192 12.0841 13.8657L12.0966 13.8778L12.2188 14H13.7586L17.7586 10H2V14ZM14.5793 16L16.581 14H16.5868L20.2817 10.3053C20.2893 10.2975 20.2976 10.2892 20.3054 10.2816L20.3069 10.2802C20.3938 10.1964 20.4952 10.1289 20.6063 10.0812C20.7281 10.0289 20.8598 10.0013 20.9923 10C21.1246 9.99889 21.2558 10.024 21.3783 10.0739L21.3797 10.0745C21.5019 10.1245 21.6131 10.1983 21.7067 10.2915L21.7081 10.2929C21.7457 10.3304 21.7801 10.3708 21.8111 10.4136C21.8571 10.4772 21.8957 10.5461 21.9256 10.6191L21.9265 10.6213C21.9519 10.6833 21.9709 10.7475 21.9834 10.8129C21.9923 10.8595 21.9979 10.9066 22 10.954C22.0004 10.9634 22.0007 10.9727 22.0008 10.9821C22.001 10.9909 22.001 10.9998 22.001 11.0087L22.0009 11.0128C22.0008 11.0234 22.0005 11.0341 22 11.0447C21.9946 11.1644 21.9678 11.2822 21.9207 11.3925L21.9198 11.3947C21.8722 11.5055 21.805 11.6067 21.7215 11.6935L21.7195 11.6955L21.7175 11.6936C21.7101 11.7012 21.7025 11.7087 21.6948 11.7161L20.0033 13.4063L20.0027 13.4123L19.415 14L17.415 16L13.6957 19.7193C13.536 19.8789 13.328 19.979 13.106 20.0052C13.0866 20.0075 13.0672 20.0092 13.0477 20.0103C13.0283 20.0115 13.0082 20.0121 12.9887 20.0121C12.9691 20.0121 12.9491 20.0115 12.9296 20.0103C12.9101 20.0092 12.8901 20.0074 12.8708 20.0051C12.649 19.9788 12.4412 19.8787 12.2817 19.7193L9.28071 16.7183C9.09855 16.5297 8.99776 16.2771 9.00004 16.0149L9.00025 16.001L9.00027 16C9.00459 15.7409 9.10925 15.4935 9.29276 15.3102C9.47816 15.1249 9.72895 15.0198 9.99113 15.0176C10.2533 15.0153 10.5059 15.116 10.6945 15.298L11.3971 16H11.3904L12.9885 17.5981L14.5867 16H14.5793ZM21.7195 11.6955C21.7121 11.7032 21.7046 11.7107 21.6969 11.7181L21.7195 11.6955ZM20.9915 9.99831C21.014 9.99812 21.0365 9.99868 21.0589 10H20.9415C20.9581 9.99902 20.9748 9.99846 20.9915 9.99831ZM20.2434 16L15.1099 21.1335C14.6111 21.6322 13.9546 21.9373 13.2576 22H12.7197C12.0229 21.9373 11.3665 21.6324 10.8677 21.1337L7.85421 18.1202L7.84214 18.1077C7.29624 17.5425 6.99392 16.7857 7.00009 16H2V19.92C2 21.307 2.667 22 4 22H12.7197C12.8088 22.008 12.8985 22.0121 12.9887 22.0121C13.0788 22.0121 13.1686 22.008 13.2576 22H20C21.333 22 22 21.307 22 19.92V16H20.2434ZM6 13C6.26522 13 6.51957 12.8946 6.70711 12.7071C6.89464 12.5196 7 12.2652 7 12C7 11.7348 6.89464 11.4804 6.70711 11.2929C6.51957 11.1054 6.26522 11 6 11C5.73478 11 5.48043 11.1054 5.29289 11.2929C5.10536 11.4804 5 11.7348 5 12C5 12.2652 5.10536 12.5196 5.29289 12.7071C5.48043 12.8946 5.73478 13 6 13ZM6.70711 18.7071C6.51957 18.8946 6.26522 19 6 19C5.73478 19 5.48043 18.8946 5.29289 18.7071C5.10536 18.5196 5 18.2652 5 18C5 17.7348 5.10536 17.4804 5.29289 17.2929C5.48043 17.1054 5.73478 17 6 17C6.26522 17 6.51957 17.1054 6.70711 17.2929C6.89464 17.4804 7 17.7348 7 18C7 18.2652 6.89464 18.5196 6.70711 18.7071Z" fill="#3A3A47"/>
<path d="M13.0471 20H12.9296C12.9491 20.0012 12.9687 20.0017 12.9884 20.0017C13.008 20.0017 13.0276 20.0012 13.0471 20Z" fill="#3A3A47"/>
<path fill-rule="evenodd" clip-rule="evenodd" d="M20.2817 10.3053C20.374 10.2098 20.4843 10.1336 20.6063 10.0812C20.7281 10.0289 20.8598 10.0013 20.9923 10C21.1251 9.99888 21.2568 10.0242 21.3797 10.0745C21.5026 10.1247 21.6142 10.199 21.7081 10.2929C21.802 10.3868 21.8763 10.4984 21.9265 10.6213C21.9768 10.7442 22.0021 10.8759 22.001 11.0087C21.9998 11.1415 21.9722 11.2727 21.9198 11.3947C21.8674 11.5167 21.7912 11.627 21.6957 11.7193L13.6957 19.7193C13.5082 19.9068 13.2539 20.0121 12.9887 20.0121C12.7235 20.0121 12.4692 19.9068 12.2817 19.7193L9.28071 16.7183C9.09855 16.5297 8.99776 16.2771 9.00004 16.0149C9.00232 15.7527 9.10749 15.5019 9.29289 15.3165C9.4783 15.1311 9.72899 15.0259 9.99119 15.0236C10.2534 15.0213 10.5061 15.1221 10.6947 15.3043L12.9885 17.5981L20.2817 10.3053Z" fill="#3A3A47"/>
</svg>
