<svg width="24" height="24" viewBox="0 0 24 24" fill="none" xmlns="http://www.w3.org/2000/svg">
<path d="M5.29289 6.70711C5.48043 6.89464 5.73478 7 6 7C6.26522 7 6.51957 6.89464 6.70711 6.70711C6.89464 6.51957 7 6.26522 7 6C7 5.73478 6.89464 5.48043 6.70711 5.29289C6.51957 5.10536 6.26522 5 6 5C5.73478 5 5.48043 5.10536 5.29289 5.29289C5.10536 5.48043 5 5.73478 5 6C5 6.26522 5.10536 6.51957 5.29289 6.70711Z" fill="#3A3A47"/>
<path fill-rule="evenodd" clip-rule="evenodd" d="M7.78048 14H4V10L17.7552 10.001L18.8578 8.89932C19.1314 8.62041 19.4569 8.39755 19.8162 8.24335C20.1822 8.08626 20.5758 8.00357 20.9741 8.00011C21.3238 7.99708 21.671 8.05517 22 8.17138V4C22 2.668 21.33 2 19.99 2H4C2.667 2 2 2.667 2 4V19.92C2 21.307 2.667 22 4 22H11.8176C11.4994 21.7557 11.2042 21.4598 10.9482 21.2032C10.9208 21.1758 10.8939 21.1488 10.8675 21.1224L9.74418 20H4V16L7.00004 16.001C7.00006 15.9975 7.00008 15.9941 7.00011 15.9906C7.00654 15.2522 7.28544 14.5439 7.78048 14ZM20 8H4V4L20 4.001V8Z" fill="#3A3A47"/>
<path d="M16.2325 20H20V16.2356L22 14.2372V19.92C22 21.307 21.333 22 20 22H14.1703C14.4678 21.7679 14.7447 21.4891 14.9903 21.2418C15.0309 21.201 15.0706 21.161 15.1094 21.1222L16.2325 20Z" fill="#3A3A47"/>
<path d="M13.0471 20H12.9296C12.9491 20.0011 12.9687 20.0017 12.9884 20.0017C13.008 20.0017 13.0276 20.0011 13.0471 20Z" fill="#3A3A47"/>
<path d="M5.29289 12.7071C5.48043 12.8946 5.73478 13 6 13C6.26522 13 6.51957 12.8946 6.70711 12.7071C6.89464 12.5196 7 12.2652 7 12C7 11.7348 6.89464 11.4804 6.70711 11.2929C6.51957 11.1054 6.26522 11 6 11C5.73478 11 5.48043 11.1054 5.29289 11.2929C5.10536 11.4804 5 11.7348 5 12C5 12.2652 5.10536 12.5196 5.29289 12.7071Z" fill="#3A3A47"/>
<path d="M5.29289 18.7071C5.48043 18.8946 5.73478 19 6 19C6.26522 19 6.51957 18.8946 6.70711 18.7071C6.89464 18.5196 7 18.2652 7 18C7 17.7348 6.89464 17.4804 6.70711 17.2929C6.51957 17.1054 6.26522 17 6 17C5.73478 17 5.48043 17.1054 5.29289 17.2929C5.10536 17.4804 5 17.7348 5 18C5 18.2652 5.10536 18.5196 5.29289 18.7071Z" fill="#3A3A47"/>
<path fill-rule="evenodd" clip-rule="evenodd" d="M20.2817 10.3053C20.374 10.2098 20.4843 10.1336 20.6063 10.0812C20.7283 10.0288 20.8595 10.0012 20.9923 10C21.1251 9.99888 21.2568 10.0242 21.3797 10.0745C21.5026 10.1247 21.6142 10.199 21.7081 10.2929C21.802 10.3868 21.8763 10.4984 21.9265 10.6213C21.9768 10.7442 22.0021 10.8759 22.001 11.0087C21.9998 11.1415 21.9722 11.2727 21.9198 11.3947C21.8674 11.5167 21.7912 11.627 21.6957 11.7193L13.6957 19.7193C13.5082 19.9068 13.2539 20.0121 12.9887 20.0121C12.7235 20.0121 12.4692 19.9068 12.2817 19.7193L9.28071 16.7183C9.09855 16.5297 8.99776 16.2771 9.00004 16.0149C9.00232 15.7527 9.10748 15.5019 9.29289 15.3165C9.4783 15.1311 9.72911 15.0259 9.99131 15.0236C10.2535 15.0213 10.5061 15.1221 10.6947 15.3043L12.9887 17.5983L20.2817 10.3053Z" fill="#3A3A47"/>
</svg>
