<svg width="24" height="24" viewBox="0 0 24 24" fill="none" xmlns="http://www.w3.org/2000/svg">
<path fill-rule="evenodd" clip-rule="evenodd" d="M15 18.0071L16 20.0041H17C17.667 20.0041 18 20.3361 18 21.0021C18 21.6671 17.667 22.0001 17 22.0001H7C6.333 22.0001 6 21.6671 6 21.0021C6 20.3361 6.333 20.0041 7 20.0041H8L9 18.0071H4.014C2.671 18.0071 2 17.3421 2 16.0101V4.0331C2 2.7111 2.667 2.0461 4 2.0371C5.25 2.0271 10.596 1.9601 20.04 2.0351C21.347 2.0451 22 2.7111 22 4.0331V16.0101C22 17.3401 21.333 18.0061 20 18.0061H15V18.0071ZM4 4.0331V12.0181H20V4.0331H4ZM4 14.0151V16.0111H20V14.0151H4ZM11 18.0071L10 20.0041H14L13 18.0071H11Z" fill="#3A3A47"/>
</svg>
