<svg width="24" height="24" viewBox="0 0 24 24" fill="none" xmlns="http://www.w3.org/2000/svg">
<path fill-rule="evenodd" clip-rule="evenodd" d="M9 18.0071H4.014C2.671 18.0071 2 17.3421 2 16.0101V14.0151H22V12.0181H2V4.0331C2 2.7111 2.667 2.0461 4 2.0371C5.25 2.0271 10.596 1.9601 20.04 2.0351C21.347 2.0451 22 2.7111 22 4.0331V16.0101C22 17.3401 21.333 18.0061 20 18.0061H15L16 20.0031H17C17.667 20.0031 18 20.3351 18 21.0011C18 21.6661 17.667 21.9991 17 21.9991H7C6.333 21.9991 6 21.6661 6 21.0011C6 20.3351 6.333 20.0031 7 20.0031H8L9 18.0061V18.0071Z" fill="#3A3A47"/>
</svg>
