<svg width="24" height="24" viewBox="0 0 24 24" fill="none" xmlns="http://www.w3.org/2000/svg">
<path fill-rule="evenodd" clip-rule="evenodd" d="M16 11C15.4477 11 15 11.4477 15 12V20C15 20.5523 15.4477 21 16 21H20C20.5523 21 21 20.5523 21 20V12C21 11.4477 20.5523 11 20 11H16ZM17.5 19C17.2239 19 17 19.2239 17 19.5C17 19.7761 17.2239 20 17.5 20H18.5C18.7761 20 19 19.7761 19 19.5C19 19.2239 18.7761 19 18.5 19H17.5Z" fill="#3A3A47"/>
<path d="M3.75 2.03857C2.7835 2.03857 2 2.82208 2 3.78857V16.2505C2 17.217 2.7835 18.0005 3.75 18.0005H8.96002L7.93631 20.0381H7C6.44772 20.0381 6 20.4858 6 21.0381C6 21.5904 6.44772 22.0381 7 22.0381H13.7986C13.311 21.5116 13.0098 20.81 13.0002 20.0381H10.1745L11.1983 18.0005H13V16.0005H4V4.03857H20V9C20.7684 9 21.4692 9.28885 22 9.76389V3.78857C22 2.82208 21.2165 2.03857 20.25 2.03857H3.75Z" fill="#3A3A47"/>
<path d="M21 17.8321V12C21 11.4477 20.5523 11 20 11V16.0005H15V18.0005H20.25C20.5184 18.0005 20.7727 17.9401 21 17.8321Z" fill="#3A3A47"/>
<path d="M15.0007 20.0381C15.0112 20.3174 15.1362 20.5674 15.3301 20.7425C15.5074 20.9025 15.7423 21 16 21H17.9993C17.9793 20.4654 17.5395 20.0381 17 20.0381H15.0007Z" fill="#3A3A47"/>
</svg>
