<svg width="24" height="24" viewBox="0 0 24 24" fill="none" xmlns="http://www.w3.org/2000/svg">
<path d="M4.014 18.0076H9L8 20.0036H7C6.333 20.0036 6 20.3356 6 21.0016C6 21.6666 6.333 21.9996 7 21.9996H13.7631C13.2885 21.4689 13 20.7684 13 20.0005V14.0156H2V16.0106C2 17.3426 2.671 18.0076 4.014 18.0076Z" fill="#3A3A47"/>
<path d="M13 12.0186H2V4.03359C2 2.71159 2.667 2.04659 4 2.03759C4.11657 2.03665 4.26877 2.03522 4.45659 2.03346C6.28276 2.01632 11.4767 1.96758 20.04 2.03559C21.347 2.04559 22 2.71159 22 4.03359V9.76438C21.4692 9.28934 20.7684 9.00049 20 9.00049H16C14.3431 9.00049 13 10.3436 13 12.0005V12.0186Z" fill="#3A3A47"/>
<path fill-rule="evenodd" clip-rule="evenodd" d="M16 11.0005C15.4477 11.0005 15 11.4482 15 12.0005V20.0005C15 20.5528 15.4477 21.0005 16 21.0005H20C20.5523 21.0005 21 20.5528 21 20.0005V12.0005C21 11.4482 20.5523 11.0005 20 11.0005H16ZM17.5 19.0005C17.2239 19.0005 17 19.2243 17 19.5005C17 19.7766 17.2239 20.0005 17.5 20.0005H18.5C18.7761 20.0005 19 19.7766 19 19.5005C19 19.2243 18.7761 19.0005 18.5 19.0005H17.5Z" fill="#3A3A47"/>
</svg>
