<svg width="24" height="24" viewBox="0 0 24 24" fill="none" xmlns="http://www.w3.org/2000/svg">
<path fill-rule="evenodd" clip-rule="evenodd" d="M3.00053 8C3.66689 8 4.00006 8.33423 4.00006 9.0027L5.00006 9H13L12.9997 15H8.00006V20C8.00006 21.3333 7.33378 22 6.00121 22C4.66864 22 4.00159 21.3333 4.00006 20V11.0028C2.66655 11.0028 1.99987 10.3361 2.00001 9.0027C1.99966 9 2.001 8 3.00053 8ZM14.0001 8.98681L20.0001 13.6488V20C20.0001 21.3333 19.3334 22 18.0001 22C16.6667 22 16.0001 21.3333 16.0001 20V15.0002H13.9997L14.0001 8.98681ZM15.0001 2C16.0001 2 15.4586 4 15.9993 4H17.9928C18.5003 4 18.6676 4.05019 18.8446 4.2C19.0216 4.34981 19.0707 4.5477 19.2149 4.71353C19.3257 4.84085 19.5874 4.93634 20.0001 5H21.0041C21.9997 5 22.0001 5.76041 22.0001 7C22.0001 7.99997 20.0001 8 20.0001 9.32141V12.4507L14.0001 7.76917V2.99842C14.0001 2.33281 14.3334 2 15.0001 2ZM5.30006 2.07602L8.55658 2.10878L12.9614 5.52367L12.9791 8.02116L5.30006 2.07602Z" fill="#3A3A47"/>
</svg>
