<svg width="24" height="24" viewBox="0 0 24 24" fill="none" xmlns="http://www.w3.org/2000/svg">
<path d="M12 8.00002C11.7373 7.99996 11.4772 7.94815 11.2345 7.84755C10.9918 7.74696 10.7713 7.59955 10.5856 7.41374C10.3999 7.22793 10.2526 7.00736 10.1521 6.76462C10.0516 6.52188 9.99993 6.26173 10 5.99902C10.0001 5.73631 10.0519 5.47619 10.1525 5.2335C10.2531 4.99082 10.4005 4.77032 10.5863 4.5846C10.7721 4.39889 10.9927 4.25159 11.2354 4.15111C11.4781 4.05064 11.7383 3.99896 12.001 3.99902C12.5316 3.99916 13.0403 4.21005 13.4154 4.58531C13.7905 4.96057 14.0011 5.46946 14.001 6.00002C14.0009 6.53059 13.79 7.03937 13.4147 7.41444C13.0395 7.78952 12.5306 8.00016 12 8.00002ZM12 10C12.2627 10.0001 12.5228 10.0519 12.7655 10.1525C13.0082 10.2531 13.2287 10.4005 13.4144 10.5863C13.6001 10.7721 13.7474 10.9927 13.8479 11.2354C13.9484 11.4782 14.0001 11.7383 14 12.001C13.9999 12.2637 13.9481 12.5239 13.8475 12.7665C13.7469 13.0092 13.5995 13.2297 13.4137 13.4154C13.2279 13.6012 13.0073 13.7485 12.7646 13.8489C12.5219 13.9494 12.2617 14.0011 11.999 14.001C11.4684 14.0009 10.9597 13.79 10.5846 13.4147C10.2095 13.0395 9.99887 12.5306 9.999 12C9.99913 11.4695 10.21 10.9607 10.5853 10.5856C10.9605 10.2105 11.4694 9.99989 12 10ZM12 16C12.2627 16.0001 12.5228 16.0519 12.7655 16.1525C13.0082 16.2531 13.2287 16.4005 13.4144 16.5863C13.6001 16.7721 13.7474 16.9927 13.8479 17.2354C13.9484 17.4782 14.0001 17.7383 14 18.001C13.9999 18.2637 13.9481 18.5239 13.8475 18.7665C13.7469 19.0092 13.5995 19.2297 13.4137 19.4154C13.2279 19.6012 13.0073 19.7485 12.7646 19.8489C12.5219 19.9494 12.2617 20.0011 11.999 20.001C11.4684 20.0009 10.9597 19.79 10.5846 19.4147C10.2095 19.0395 9.99887 18.5306 9.999 18C9.99913 17.4695 10.21 16.9607 10.5853 16.5856C10.9605 16.2105 11.4694 15.9999 12 16Z" fill="#3A3A47"/>
</svg>
