<svg width="24" height="24" viewBox="0 0 24 24" fill="none" xmlns="http://www.w3.org/2000/svg">
<path fill-rule="evenodd" clip-rule="evenodd" d="M11 12.586V5.00001C11 4.33201 11.333 3.99801 12 4.00001C12.667 4.00201 13 4.33501 13 5.00001V12.586L16.293 9.29301C16.3852 9.1975 16.4956 9.12132 16.6176 9.06891C16.7396 9.0165 16.8708 8.98891 17.0036 8.98776C17.1364 8.9866 17.2681 9.01191 17.391 9.06219C17.5138 9.11247 17.6255 9.18672 17.7194 9.28061C17.8133 9.37451 17.8875 9.48616 17.9378 9.60906C17.9881 9.73195 18.0134 9.86363 18.0123 9.99641C18.0111 10.1292 17.9835 10.2604 17.9311 10.3824C17.8787 10.5044 17.8025 10.6148 17.707 10.707L12.707 15.707C12.5195 15.8945 12.2652 15.9998 12 15.9998C11.7348 15.9998 11.4805 15.8945 11.293 15.707L6.292 10.706C6.10984 10.5174 6.00905 10.2648 6.01133 10.0026C6.0136 9.74041 6.11877 9.4896 6.30418 9.30419C6.48959 9.11878 6.7404 9.01361 7.0026 9.01133C7.2648 9.00906 7.5174 9.10985 7.706 9.29201L11 12.586ZM20 19C20 19.666 19.666 20 18.999 20H5C4.333 20 4 19.666 4 19C4 18.333 4.334 18 5 18H19C19.667 18 20 18.333 20 19Z" fill="#3A3A47"/>
</svg>
