<svg width="24" height="24" viewBox="0 0 24 24" fill="none" xmlns="http://www.w3.org/2000/svg">
<path fill-rule="evenodd" clip-rule="evenodd" d="M8.23447 7.84755C8.47716 7.94815 8.73728 7.99996 8.99999 8.00002C9.53056 8.00016 10.0394 7.78952 10.4147 7.41444C10.79 7.03937 11.0009 6.53059 11.001 6.00002C11.0011 5.46946 10.7905 4.96057 10.4154 4.58531C10.0403 4.21005 9.53156 3.99916 9.00099 3.99902C8.73828 3.99896 8.47813 4.05064 8.2354 4.15111C7.99266 4.25159 7.77209 4.39889 7.58628 4.5846C7.40047 4.77032 7.25306 4.99082 7.15246 5.2335C7.05187 5.47619 7.00006 5.73631 6.99999 5.99902C6.99993 6.26173 7.05161 6.52188 7.15208 6.76462C7.25255 7.00736 7.39986 7.22793 7.58557 7.41374C7.77129 7.59955 7.99179 7.74696 8.23447 7.84755ZM9.76551 10.1525C9.52283 10.0519 9.2627 10.0001 8.99999 10C8.46943 9.99989 7.96054 10.2105 7.58528 10.5856C7.21002 10.9607 6.99913 11.4695 6.99899 12C6.99886 12.5306 7.2095 13.0395 7.58457 13.4147C7.95965 13.79 8.46843 14.0009 8.99899 14.001C9.2617 14.0011 9.52185 13.9494 9.76459 13.8489C10.0073 13.7485 10.2279 13.6012 10.4137 13.4154C10.5995 13.2297 10.7469 13.0092 10.8475 12.7665C10.9481 12.5239 10.9999 12.2637 11 12.001C11.0001 11.7383 10.9484 11.4782 10.8479 11.2354C10.7474 10.9927 10.6001 10.7721 10.4144 10.5863C10.2287 10.4005 10.0082 10.2531 9.76551 10.1525ZM9.76551 16.1525C9.52283 16.0519 9.2627 16.0001 8.99999 16C8.46943 15.9999 7.96054 16.2105 7.58528 16.5856C7.21002 16.9607 6.99913 17.4695 6.99899 18C6.99886 18.5306 7.2095 19.0395 7.58457 19.4147C7.95965 19.79 8.46843 20.0009 8.99899 20.001C9.2617 20.0011 9.52185 19.9494 9.76459 19.8489C10.0073 19.7485 10.2279 19.6012 10.4137 19.4154C10.5995 19.2297 10.7469 19.0092 10.8475 18.7665C10.9481 18.5239 10.9999 18.2637 11 18.001C11.0001 17.7383 10.9484 17.4782 10.8479 17.2354C10.7474 16.9927 10.6001 16.7721 10.4144 16.5863C10.2287 16.4005 10.0082 16.2531 9.76551 16.1525ZM14.2345 7.84755C14.4772 7.94815 14.7373 7.99996 15 8.00002C15.5306 8.00016 16.0394 7.78952 16.4147 7.41444C16.79 7.03937 17.0009 6.53059 17.001 6.00002C17.0011 5.46946 16.7905 4.96057 16.4154 4.58531C16.0403 4.21005 15.5316 3.99916 15.001 3.99902C14.7383 3.99896 14.4781 4.05064 14.2354 4.15111C13.9927 4.25159 13.7721 4.39889 13.5863 4.5846C13.4005 4.77032 13.2531 4.99082 13.1525 5.2335C13.0519 5.47619 13.0001 5.73631 13 5.99902C12.9999 6.26173 13.0516 6.52188 13.1521 6.76462C13.2526 7.00736 13.3999 7.22793 13.5856 7.41374C13.7713 7.59955 13.9918 7.74696 14.2345 7.84755ZM15.7655 10.1525C15.5228 10.0519 15.2627 10.0001 15 10C14.4694 9.99989 13.9605 10.2105 13.5853 10.5856C13.21 10.9607 12.9991 11.4695 12.999 12C12.9989 12.5306 13.2095 13.0395 13.5846 13.4147C13.9596 13.79 14.4684 14.0009 14.999 14.001C15.2617 14.0011 15.5219 13.9494 15.7646 13.8489C16.0073 13.7485 16.2279 13.6012 16.4137 13.4154C16.5995 13.2297 16.7469 13.0092 16.8475 12.7665C16.9481 12.5239 16.9999 12.2637 17 12.001C17.0001 11.7383 16.9484 11.4782 16.8479 11.2354C16.7474 10.9927 16.6001 10.7721 16.4144 10.5863C16.2287 10.4005 16.0082 10.2531 15.7655 10.1525ZM15.7655 16.1525C15.5228 16.0519 15.2627 16.0001 15 16C14.4694 15.9999 13.9605 16.2105 13.5853 16.5856C13.21 16.9607 12.9991 17.4695 12.999 18C12.9989 18.5306 13.2095 19.0395 13.5846 19.4147C13.9596 19.79 14.4684 20.0009 14.999 20.001C15.2617 20.0011 15.5219 19.9494 15.7646 19.8489C16.0073 19.7485 16.2279 19.6012 16.4137 19.4154C16.5995 19.2297 16.7469 19.0092 16.8475 18.7665C16.9481 18.5239 16.9999 18.2637 17 18.001C17.0001 17.7383 16.9484 17.4782 16.8479 17.2354C16.7474 16.9927 16.6001 16.7721 16.4144 16.5863C16.2287 16.4005 16.0082 16.2531 15.7655 16.1525Z" fill="#3A3A47"/>
</svg>
