<svg xmlns="http://www.w3.org/2000/svg" width="24" height="24" viewBox="0 0 24 24">
    <path fill="#3A3A47" fill-rule="evenodd" d="M11.419 3.297a.722.722 0 0 1 .95-.195c.08.049.16.122.212.195.37.514.766 1.076 1.215 1.688C15.883 7.82 19 12.075 19 14.52c0 1.785-.792 3.4-2.06 4.573A7.257 7.257 0 0 1 12 21a7.355 7.355 0 0 1-4.94-1.883C5.792 17.944 5 16.33 5 14.545c0-2.445 3.117-6.724 5.204-9.56.475-.636.871-1.174 1.215-1.688zM15.999 14c-.998 0-.998 1-.998 1A2.004 2.004 0 0 1 13 17s-1 .005-1 1.002S13 19 13 19a4 4 0 0 0 4-4s-.001-1-1-1z"/>
</svg>
