<svg width="24" height="24" viewBox="0 0 24 24" fill="none" xmlns="http://www.w3.org/2000/svg">
<path fill-rule="evenodd" clip-rule="evenodd" d="M6 16C7.48095 16 8.77392 15.1952 9.46541 13.9991C9.46541 14 14.5424 13.9991 14.5424 14C14.7401 14.3878 15.8045 16 18 16C20.427 16 21.9996 13.9991 21.9996 12C21.9996 9.56069 19.9739 8 18 8C16.4781 8 15.0623 8.93383 14.5424 10.0071C14.5424 10.0071 9.46896 10 9.46896 10.0071C8.77836 8.80758 7.48349 8 6 8C3.79086 8 2 9.79086 2 12C2 14.2091 3.79086 16 6 16Z" fill="#3A3A47"/>
</svg>
