<svg width="24" height="24" viewBox="0 0 24 24" fill="none" xmlns="http://www.w3.org/2000/svg">
<path fill-rule="evenodd" clip-rule="evenodd" d="M18 8C19.9739 8 21.9996 9.56069 21.9996 12C21.9996 13.9991 20.427 16 18 16C16.3746 16 15.3692 15.1164 14.8764 14.5001L9.1225 14.5002C8.38944 15.4146 7.26309 16 6 16C3.79086 16 2 14.2091 2 12C2 9.79086 3.79086 8 6 8C7.26608 8 8.39478 8.58822 9.12771 9.50628C9.12771 9.50565 9.76445 9.50522 10.6134 9.50496L14.8583 9.50485C15.5191 8.65837 16.7221 8 18 8ZM18 10C16.7335 10 16.1261 11.0852 16.0641 11.5022H7.93755C7.71628 10.6385 6.9327 10 6 10C4.89543 10 4 10.8954 4 12C4 13.1046 4.89543 14 6 14C6.93213 14 7.71533 13.3623 7.93714 12.4994L16.0512 12.5C16.0598 12.5 16.0641 12.5 16.0641 12.5C16.1293 12.8739 16.6721 14 18 14C19.1474 14 20 13.0783 20 12C20 10.9217 19.1462 10 18 10Z" fill="#3A3A47"/>
</svg>
