<svg width="24" height="24" viewBox="0 0 24 24" fill="none" xmlns="http://www.w3.org/2000/svg">
<path fill-rule="evenodd" clip-rule="evenodd" d="M11.3797 7.80062C10.2053 7.80062 9.25316 8.74069 9.25316 9.90031V10.4252H10.3165C13.6372 10.4252 14.7477 14.9513 11.8176 16.4942C11.3556 16.7375 10.84 16.7243 10.3165 16.7243H9.78481C9.19757 16.7243 8.72152 16.2543 8.72152 15.6745C8.72152 15.0946 9.19757 14.6246 9.78481 14.6246H10.3165C10.491 14.6246 10.6628 14.5822 10.8168 14.5011C11.7935 13.9868 11.4234 12.5249 10.3165 12.5249H8.18987C7.60263 12.5249 7.12658 12.0549 7.12658 11.4751V9.90031C7.12658 7.58106 9.03079 5.70094 11.3797 5.70094C13.2333 5.70094 14.8073 6.871 15.3906 8.50061C15.5863 9.04728 15.2961 9.64708 14.7424 9.8403C14.1888 10.0335 13.5813 9.747 13.3856 9.20033C13.0932 8.3834 12.304 7.80062 11.3797 7.80062Z" fill="#3A3A47"/>
<path d="M17.7117 4.27158C16.257 2.63514 14.109 1.50155 11.3797 1.50155C9.22636 1.50155 7.43485 2.2436 6.06018 3.31831C5.80441 3.52139 5.55447 3.74263 5.31143 3.9826C4.89619 4.39259 4.89619 5.05731 5.31143 5.4673C5.51826 5.67151 5.78909 5.77401 6.06018 5.77479C6.33333 5.77557 6.60674 5.67308 6.81515 5.4673C8.15021 4.14913 9.78388 3.58795 11.3797 3.62225C15.425 3.62225 17.7596 6.94366 17.7591 9.90187C17.7591 11.1992 17.1703 12.146 16.6592 12.9679C16.3614 13.4467 16.09 13.8831 15.9768 14.3218C15.8213 14.9239 15.7981 15.4949 15.7765 16.0273C15.7458 16.7815 15.7184 17.4582 15.3224 18.0361C14.1136 19.8008 12.7572 20.4003 11.3797 20.4003C9.2275 20.249 8.02343 19.3889 7.33472 18.2111C7.33472 18.2111 6.83796 17.2662 5.85579 17.8261C4.87362 18.3859 5.49283 19.2606 5.49283 19.2606C6.82645 21.5413 9.15669 22.4059 11.0069 22.4925L11.3793 22.5C14.0466 22.5 15.97 20.9398 16.9711 19.401C17.4885 18.6057 17.7595 16.7469 17.9351 15.3465C17.9794 14.9932 18.2155 14.6316 18.5091 14.182C19.0864 13.2978 19.8861 12.0732 19.8861 9.90187C19.8861 8.60222 19.5553 7.25882 18.9234 6.03783C18.703 5.57042 18.0238 4.66558 17.7117 4.27158Z" fill="#3A3A47"/>
</svg>
