<svg width="24" height="24" viewBox="0 0 24 24" fill="none" xmlns="http://www.w3.org/2000/svg">
<path fill-rule="evenodd" clip-rule="evenodd" d="M6.00015 6C6.00015 5 6.65641 2.27087 6.87742 2H14.8908C14.8605 2.22328 14.9597 2.69839 15.0908 3.32643C15.3457 4.54822 15.7215 6.34878 15.5005 8C15.38 8.90069 15.1435 9.5293 14.8814 10.2258C14.6477 10.8471 14.3936 11.5223 14.1834 12.4928C14.1112 12.8261 14.0825 13.1675 14.1054 13.5077C14.1746 14.5363 14.4753 16.3126 16.0004 16.6172C17.6178 17.0506 18.3267 17.5878 18.9508 18.3874C19.207 18.4073 19.4578 18.4166 19.6988 18.4166C22.2753 18.4166 21.8282 21.5636 20.1105 22H7.96805C7.96805 22 7.41164 21.3729 7.96805 18.8421C8.06547 18.399 8.16227 17.7439 8.24832 17.1402C8.38453 16.1847 8.34582 15.1923 8.05982 14.2705C7.82562 13.5157 6.78879 10.7869 6.78879 10.7869C6.39749 9.69977 5.99197 7.26458 6.00015 6ZM11.7169 19.2305C11.9931 19.2305 12.2169 19.4544 12.2169 19.7305C12.2169 20.0067 11.9931 20.2305 11.7169 20.2305C11.1403 20.2305 10.6181 20.0862 10.2433 19.719C9.86574 19.349 9.72132 18.8349 9.72758 18.2754C9.73067 17.9993 9.95702 17.778 10.2331 17.7811C10.5093 17.7841 10.7306 18.0105 10.7275 18.2866C10.7232 18.6766 10.8234 18.8873 10.9432 19.0047C11.0658 19.1248 11.2936 19.2305 11.7169 19.2305Z" fill="#3A3A47"/>
<path d="M3.69701 2.27633C3.29734 2.16754 2.88515 2.40335 2.77636 2.80302C2.67152 3.18817 2.58249 3.61249 2.50985 4.06171C2.44373 4.47061 2.72162 4.85569 3.13052 4.92181C3.53942 4.98793 3.9245 4.71005 3.99062 4.30115C4.05646 3.89397 4.13515 3.52231 4.2237 3.19698C4.33249 2.79731 4.09668 2.38512 3.69701 2.27633Z" fill="#3A3A47"/>
<path d="M3.05292 5.83905C2.63887 5.82751 2.29385 6.1538 2.28231 6.56786C2.25921 7.39643 2.28387 8.25101 2.365 9.07786C2.40545 9.49009 2.77242 9.79148 3.18465 9.75104C3.59689 9.71059 3.89828 9.34362 3.85783 8.93138C3.78343 8.17307 3.7602 7.3817 3.78173 6.60966C3.79327 6.19561 3.46697 5.8506 3.05292 5.83905Z" fill="#3A3A47"/>
<path d="M3.33794 10.6607C2.94144 10.7805 2.71717 11.1991 2.83701 11.5956C2.97162 12.0409 3.13569 12.464 3.33481 12.8464C3.5261 13.2138 3.97901 13.3565 4.34641 13.1652C4.7138 12.9739 4.85655 12.521 4.66525 12.1536C4.51823 11.8713 4.38674 11.5384 4.27286 11.1616C4.15301 10.7651 3.73444 10.5408 3.33794 10.6607Z" fill="#3A3A47"/>
<path d="M18.7061 2.80302C18.5973 2.40335 18.1851 2.16754 17.7855 2.27633C17.3858 2.38512 17.15 2.79731 17.2588 3.19698C17.3473 3.52231 17.426 3.89397 17.4919 4.30115C17.558 4.71005 17.9431 4.98793 18.352 4.92181C18.7609 4.85569 19.0387 4.47061 18.9726 4.06171C18.9 3.61249 18.811 3.18817 18.7061 2.80302Z" fill="#3A3A47"/>
<path d="M19.2002 6.56786C19.1886 6.1538 18.8436 5.82751 18.4296 5.83905C18.0155 5.8506 17.6892 6.19561 17.7008 6.60966C17.7223 7.3817 17.6991 8.17307 17.6247 8.93138C17.5842 9.34362 17.8856 9.71059 18.2978 9.75104C18.7101 9.79148 19.077 9.49009 19.1175 9.07786C19.1986 8.25101 19.2233 7.39643 19.2002 6.56786Z" fill="#3A3A47"/>
<path d="M18.6455 11.5956C18.7653 11.1991 18.541 10.7805 18.1445 10.6607C17.748 10.5408 17.3295 10.7651 17.2096 11.1616C17.0957 11.5384 16.9643 11.8713 16.8172 12.1536C16.6259 12.521 16.7687 12.9739 17.1361 13.1652C17.5035 13.3565 17.9564 13.2138 18.1477 12.8464C18.3468 12.464 18.5109 12.0409 18.6455 11.5956Z" fill="#3A3A47"/>
</svg>
