<svg xmlns="http://www.w3.org/2000/svg" width="24" height="24" viewBox="0 0 24 24">
    <path fill="#3A3A47" fill-rule="evenodd" d="M18.744 13.45l2.879 2.878a1 1 0 0 1 0 1.414l-2.88 2.88a1 1 0 0 1-1.414-1.414l1.207-1.209L3.002 18c-.622 0-.954-.287-.997-.862L2 17c.002-.667.335-1 1-1h15.466l-1.136-1.137a1 1 0 0 1 1.414-1.414zm-12.001-10a1 1 0 0 1 .083 1.32l-.083.093L5.606 6 21 6c.622-.003.954.287.996.872l.004.13c0 .627-.29.958-.871.995L21 8H5.536l1.208 1.208a1 1 0 0 1 .083 1.32l-.083.094a1 1 0 0 1-1.32.083l-.094-.083-2.88-2.88a1 1 0 0 1-.083-1.32l.083-.094 2.879-2.879a1 1 0 0 1 1.414 0z"/>
</svg>
