<svg xmlns="http://www.w3.org/2000/svg" xmlns:xlink="http://www.w3.org/1999/xlink" width="24" height="24" viewBox="0 0 24 24">
    <defs>
        <path id="a" d="M10.854.504l.068.118 8.911 17.354c.433.841-.024 1.925-.812 2.017l-.11.007H1.09C.272 20-.24 18.953.114 18.092l.053-.116L9.078.622c.405-.788 1.32-.827 1.776-.118zM10 15a1.5 1.5 0 1 0 0 3 1.5 1.5 0 0 0 0-3zm0-9c-.666 0-1 .291-1 .875v5.25c0 .583.334.875 1 .875.667 0 1-.292 1-.875v-5.25C11 6.29 10.667 6 10 6z"/>
    </defs>
    <use fill="#3A3A47" fill-rule="evenodd" transform="translate(2 2)" xlink:href="#a"/>
</svg>
