<svg xmlns="http://www.w3.org/2000/svg" xmlns:xlink="http://www.w3.org/1999/xlink" width="24" height="24" viewBox="0 0 24 24">
    <defs>
        <path id="a" d="M12.922 2.622l8.911 17.354c.453.88-.068 2.024-.922 2.024H3.09c-.854 0-1.375-1.144-.922-2.024l8.911-17.354c.426-.83 1.418-.83 1.844 0zM12 20a1.5 1.5 0 1 0 0-3 1.5 1.5 0 0 0 0 3zm-1-5.875c0 .583.334.875 1 .875.667 0 1-.292 1-.875v-5.25C13 8.29 12.667 8 12 8c-.666 0-1 .291-1 .875v5.25z"/>
    </defs>
    <use fill="#686A75" fill-rule="evenodd" xlink:href="#a"/>
</svg>
