<svg xmlns="http://www.w3.org/2000/svg" viewBox="0 0 24 24"><title>exclamation-triangle-outline</title><g id="exclamation-triangle-outline"><g id="exclamation-triangle-outline-2" data-name="exclamation-triangle-outline"><path d="M22.72,18.52,13.81,3.17a2,2,0,0,0-3.6,0L1.28,18.52A2.55,2.55,0,0,0,1.36,21a2.05,2.05,0,0,0,1.73,1H20.91a2.05,2.05,0,0,0,1.73-1A2.55,2.55,0,0,0,22.72,18.52ZM20.91,20H3.12A.51.51,0,0,1,3,19.48L12,4.08,12,4a.64.64,0,0,0,.06.1L21,19.45A.6.6,0,0,1,20.91,20Z"/><rect x="11" y="7" width="2" height="7"/><circle cx="12" cy="17.5" r="1.5"/></g></g></svg>