<svg width="24" height="24" viewBox="0 0 24 24" fill="none" xmlns="http://www.w3.org/2000/svg">
<path d="M12.5 14V5C12.5 4.333 12.833 4 13.5 4C14.167 4 14.5 4.333 14.5 5V14C14.5 14.666 14.168 15 13.503 15C12.838 15 12.503 14.667 12.5 14ZM13.5 17C13.8978 17 14.2794 17.158 14.5607 17.4393C14.842 17.7206 15 18.1022 15 18.5C15 18.8978 14.842 19.2794 14.5607 19.5607C14.2794 19.842 13.8978 20 13.5 20C13.1022 20 12.7206 19.842 12.4393 19.5607C12.158 19.2794 12 18.8978 12 18.5C12 18.1022 12.158 17.7206 12.4393 17.4393C12.7206 17.158 13.1022 17 13.5 17Z" fill="#3A3A47"/>
</svg>
