<svg xmlns="http://www.w3.org/2000/svg" xmlns:xlink="http://www.w3.org/1999/xlink" width="24" height="24" viewBox="0 0 24 24">
    <defs>
        <path id="a" d="M10.922.622c-.426-.83-1.418-.83-1.844 0L.168 17.976c-.454.88.067 2.024.921 2.024h17.822c.854 0 1.375-1.144.922-2.024L10.923.622zm-.915 2.88L17.5 18H2.502l7.505-14.498zM10 14a1.5 1.5 0 1 0 0 3 1.5 1.5 0 0 0 0-3zm0-7c-.666 0-1 .333-1 1v4c0 .666.334 1 1 1 .667 0 1-.334 1-1V8c0-.667-.333-1-1-1z"/>
    </defs>
    <use fill="#3A3A47" fill-rule="evenodd" transform="translate(2 2)" xlink:href="#a"/>
</svg>
