<svg width="24" height="24" viewBox="0 0 24 24" fill="none" xmlns="http://www.w3.org/2000/svg">
<path fill-rule="evenodd" clip-rule="evenodd" d="M10.071 18.037C10.3362 18.037 10.5906 18.1424 10.7781 18.3299C10.9656 18.5174 11.071 18.7718 11.071 19.037C11.071 19.3022 10.9656 19.5566 10.7781 19.7441C10.5906 19.9316 10.3362 20.037 10.071 20.037H5C4.73478 20.037 4.48043 19.9316 4.29289 19.7441C4.10536 19.5566 4 19.3022 4 19.037V13.964C4 13.6988 4.10536 13.4444 4.29289 13.2569C4.48043 13.0694 4.73478 12.964 5 12.964C5.26522 12.964 5.51957 13.0694 5.70711 13.2569C5.89464 13.4444 6 13.6988 6 13.964V18.037H10.071ZM13.864 6C13.5988 6 13.3444 5.89464 13.1569 5.70711C12.9694 5.51957 12.864 5.26522 12.864 5C12.864 4.73478 12.9694 4.48043 13.1569 4.29289C13.3444 4.10536 13.5988 4 13.864 4H18.936C19.2012 4 19.4556 4.10536 19.6431 4.29289C19.8306 4.48043 19.936 4.73478 19.936 5V10.073C19.936 10.3382 19.8306 10.5926 19.6431 10.7801C19.4556 10.9676 19.2012 11.073 18.936 11.073C18.6708 11.073 18.4164 10.9676 18.2289 10.7801C18.0414 10.5926 17.936 10.3382 17.936 10.073V6H13.864Z" fill="#3A3A47"/>
</svg>
