<svg width="24" height="24" viewBox="0 0 24 24" fill="none" xmlns="http://www.w3.org/2000/svg">
<path d="M11.947 5.99995C11.9663 5.99986 11.9857 5.99986 12.005 5.99995C15.008 5.99795 18.168 7.51995 21.365 10.5479C21.365 10.5479 21.995 11.0699 21.995 11.9999C21.995 12.9299 21.387 13.4299 21.387 13.4299C18.209 16.4469 15.063 17.9649 12.084 17.9999H12.03C12.0183 18 12.0067 18 11.995 17.9999C8.991 18.0049 5.853 16.4829 2.651 13.4489C2.651 13.4489 2 12.9299 2 11.9999C2 11.0699 2.654 10.5479 2.654 10.5479C5.838 7.53195 8.956 6.02095 11.947 5.99995ZM6.342 9.99795C5.50587 10.5975 4.72236 11.2673 4 11.9999C4.78 12.7809 5.561 13.4479 6.342 13.9999C6.1151 13.3576 5.99944 12.6812 6 11.9999C6 11.2979 6.12 10.6239 6.342 9.99795ZM17.66 10.0039C17.88 10.6289 18 11.2999 18 11.9999C18 12.6989 17.88 13.3699 17.66 13.9939C18.4934 13.3963 19.2749 12.7292 19.996 11.9999C19.2755 11.2698 18.4943 10.6021 17.661 10.0039H17.66ZM12 15.9999C13.0609 15.9999 14.0783 15.5785 14.8284 14.8284C15.5786 14.0782 16 13.0608 16 11.9999C16 10.9391 15.5786 9.92166 14.8284 9.17152C14.0783 8.42137 13.0609 7.99995 12 7.99995C10.9391 7.99995 9.92172 8.42137 9.17157 9.17152C8.42143 9.92166 8 10.9391 8 11.9999C8 13.0608 8.42143 14.0782 9.17157 14.8284C9.92172 15.5785 10.9391 15.9999 12 15.9999ZM11.995 13.9999C11.7323 13.9998 11.4722 13.9479 11.2295 13.8473C10.9869 13.7466 10.7664 13.5992 10.5807 13.4133C10.3951 13.2274 10.2478 13.0068 10.1474 12.7641C10.047 12.5213 9.99537 12.2612 9.9955 11.9984C9.99563 11.7357 10.0475 11.4756 10.1482 11.233C10.2488 10.9903 10.3963 10.7698 10.5821 10.5842C10.768 10.3985 10.9886 10.2513 11.2314 10.1508C11.4741 10.0504 11.7343 9.99881 11.997 9.99895C12.5276 9.99921 13.0363 10.2102 13.4113 10.5856C13.7863 10.9609 13.9968 11.4699 13.9965 12.0004C13.9962 12.531 13.7852 13.0397 13.4099 13.4147C13.0345 13.7897 12.5256 14.0002 11.995 13.9999Z" fill="#3A3A47"/>
</svg>
