<svg xmlns="http://www.w3.org/2000/svg" xmlns:xlink="http://www.w3.org/1999/xlink" width="24" height="24" viewBox="0 0 24 24">
    <defs>
        <path id="a" d="M11.78 8a3.994 3.994 0 0 0-3.779 3.775L8 11.773l-3.382 3.35a23.876 23.876 0 0 1-1.967-1.68S2 12.926 2 11.996c0-.93.654-1.452.654-1.452C5.855 7.511 8.99 6 11.995 5.995a9.25 9.25 0 0 1 1.632.144l-1.852 1.856.005.006zm4.21 4.204l.01.01 3.368-3.37a23.55 23.55 0 0 1 1.997 1.699s.63.522.63 1.452c0 .93-.608 1.43-.608 1.43-3.21 3.047-6.387 4.565-9.392 4.57a9.202 9.202 0 0 1-1.619-.143l1.824-1.857-.005-.005a3.994 3.994 0 0 0 3.795-3.786zm4.24-9.85c.471-.472.942-.472 1.414 0 .471.471.471.942 0 1.414L3.774 21.636c-.472.472-.944.472-1.415 0-.471-.471-.471-.943 0-1.414l17.87-17.868z"/>
    </defs>
    <use fill="#686A75" fill-rule="evenodd" xlink:href="#a"/>
</svg>
