<svg xmlns="http://www.w3.org/2000/svg" xmlns:xlink="http://www.w3.org/1999/xlink" width="24" height="24" viewBox="0 0 24 24">
    <defs>
        <path id="a" d="M11.774 8a4 4 0 0 0-3.768 3.775l-.01-.01L6.2 13.538C6.07 13.046 6 12.53 6 11.995c0-.703.12-1.377.342-2.003A18.105 18.105 0 0 0 4 11.995a18.609 18.609 0 0 0 2.075 1.807l-.08-.028-1.366 1.358a23.856 23.856 0 0 1-1.978-1.689S2 12.925 2 11.995c0-.93.654-1.452.654-1.452 3.184-3.016 6.302-4.527 9.293-4.548a6.125 6.125 0 0 1 .058 0 9.25 9.25 0 0 1 1.618.143l-.062.062h.002l-.977.976-.817.819.009.002h-.007l.003.004zm4.22 4.214l.001.001 1.801-1.776c.133.496.204 1.017.204 1.556 0 .699-.12 1.37-.34 1.993a18.204 18.204 0 0 0 2.335-1.993 18.659 18.659 0 0 0-2.036-1.779l.036.013 1.376-1.384c.662.5 1.327 1.066 1.994 1.698 0 0 .63.522.63 1.452 0 .93-.608 1.43-.608 1.43-3.178 3.016-6.324 4.534-9.303 4.569h-.054a3.162 3.162 0 0 1-.035 0 9.334 9.334 0 0 1-1.623-.137l.067-.068h-.004l.374-.373 1.405-1.421-.007-.003h.025l-.003-.004a4 4 0 0 0 3.765-3.774zm4.23-9.86c.472-.472.944-.472 1.415 0 .472.471.472.942 0 1.414L3.77 21.636c-.472.472-.943.472-1.415 0-.471-.471-.471-.943 0-1.414l17.87-17.868z"/>
    </defs>
    <use fill="#53595E" fill-rule="evenodd" xlink:href="#a"/>
</svg>
