<svg xmlns="http://www.w3.org/2000/svg" width="24" height="24" viewBox="0 0 24 24">
    <path fill="#3A3A47" fill-rule="evenodd" d="M21.64 2.354c.47.471.47.942 0 1.414L3.768 21.636c-.472.472-.943.472-1.415 0-.471-.471-.471-.943 0-1.414l17.87-17.868c.472-.472.944-.472 1.415 0zm-2.288 6.51l.019-.02c.662.501 1.327 1.067 1.994 1.699 0 0 .63.522.63 1.452 0 .93-.608 1.43-.608 1.43-3.21 3.046-6.387 4.564-9.392 4.57a9.338 9.338 0 0 1-1.623-.138l1.842-1.862c1.218-.132 2.13-.566 2.738-1.301.64-.776.987-1.534 1.04-2.277l.008-.202 1.696-1.672c.381.968.381 2.119 0 3.453 0 0 2.012-1.588 2.3-2.001a59.005 59.005 0 0 0-2-1.766c.809-.814 1.26-1.27 1.356-1.365l.019-.02zm-7.357-2.87c.538 0 1.08.047 1.628.144l-.017.017-1.837 1.84c-1.02.088-1.886.482-2.595 1.183a3.871 3.871 0 0 0-1.147 2.334l-.025.253-1.756 1.758c-.303-1.264-.303-2.398 0-3.403C5.759 10.323 4.012 11.988 4 12c.264.3.929.891 1.995 1.774l-1.29 1.283-.076.075a23.856 23.856 0 0 1-1.978-1.689S2 12.925 2 11.995c0-.93.654-1.452.654-1.452C5.855 7.51 8.99 6 11.995 5.995z"/>
</svg>
