<svg width="24" height="24" viewBox="0 0 24 24" fill="none" xmlns="http://www.w3.org/2000/svg">
<path d="M11.774 8C10.7916 8.0556 9.86412 8.47137 9.16897 9.16781C8.47383 9.86424 8.05978 10.7925 8.006 11.775L7.996 11.765L6.2 13.538C6.07 13.046 6 12.53 6 11.995C6 11.292 6.12 10.618 6.342 9.992C5.50583 10.5919 4.72232 11.262 4 11.995C4.64613 12.6477 5.33969 13.2517 6.075 13.802L5.995 13.774L4.629 15.132C3.93944 14.6054 3.27913 14.0416 2.651 13.443C2.651 13.443 2 12.925 2 11.995C2 11.065 2.654 10.543 2.654 10.543C5.838 7.527 8.956 6.016 11.947 5.995C11.9663 5.99491 11.9857 5.99491 12.005 5.995C12.5475 5.99513 13.0889 6.04298 13.623 6.138L13.561 6.2H13.563L12.586 7.176L11.769 7.995L11.778 7.997H11.771L11.774 8.001V8ZM15.994 12.214L15.995 12.215L17.796 10.439C17.929 10.935 18 11.456 18 11.995C18 12.694 17.88 13.365 17.66 13.988C18.4931 13.3906 19.2742 12.7239 19.995 11.995C19.3602 11.3535 18.6798 10.759 17.959 10.216L17.995 10.229L19.371 8.845C20.033 9.345 20.698 9.911 21.365 10.543C21.365 10.543 21.995 11.065 21.995 11.995C21.995 12.925 21.387 13.425 21.387 13.425C18.209 16.441 15.063 17.959 12.084 17.994H12.03C12.0183 17.9941 12.0067 17.9941 11.995 17.994C11.451 17.9957 10.908 17.9499 10.372 17.857L10.439 17.789H10.435L10.809 17.416L12.214 15.995L12.207 15.992H12.232L12.229 15.988C13.2107 15.9317 14.1373 15.5158 14.8318 14.8196C15.5263 14.1234 15.9401 13.1959 15.994 12.214ZM20.224 2.354C20.696 1.882 21.168 1.882 21.639 2.354C22.111 2.825 22.111 3.296 21.639 3.768L3.77 21.636C3.298 22.108 2.827 22.108 2.355 21.636C1.884 21.165 1.884 20.693 2.355 20.222L20.225 2.354H20.224Z" fill="#3A3A47"/>
</svg>
