<svg xmlns="http://www.w3.org/2000/svg" width="24" height="24" viewBox="0 0 24 24">
    <path fill="#686A75" fill-rule="evenodd" d="M2 12c0-.93.654-1.452.654-1.452C5.855 7.516 8.99 6.005 11.995 6c3.006-.005 6.17 1.516 9.37 4.548 0 0 .63.522.63 1.452 0 .93-.608 1.43-.608 1.43-3.21 3.047-6.387 4.565-9.392 4.57-3.004.005-6.142-1.517-9.344-4.551 0 0-.651-.519-.651-1.449zm16 0c0 1.01-.344 2.025-.344 2 .517-.366 1.297-1.033 2.34-2-1.032-.95-1.803-1.606-2.313-1.97 0-.033.317.96.317 1.97zM4 12c1.031.971 1.809 1.642 2.332 2.012 0 0-.332-.911-.332-2.001 0-1.09.332-1.989.332-1.989C5.82 10.387 5.042 11.047 4 12zm8 4a4 4 0 1 0 0-8 4 4 0 0 0 0 8zm-.005-2a2 2 0 1 1 .002-4.001A2 2 0 0 1 11.995 14z"/>
</svg>
