<svg xmlns="http://www.w3.org/2000/svg" xmlns:xlink="http://www.w3.org/1999/xlink" width="24" height="24" viewBox="0 0 24 24">
    <defs>
        <path id="a" d="M19.644.354c.471.471.471.942 0 1.414L1.774 19.636c-.472.472-.944.472-1.415 0-.471-.471-.471-.943 0-1.414L18.229.354c.472-.472.943-.472 1.415 0zm-3.01 7.223l.734-.734a23.55 23.55 0 0 1 1.997 1.7s.63.522.63 1.452c0 .93-.608 1.43-.608 1.43-3.21 3.047-6.387 4.565-9.392 4.57a9.202 9.202 0 0 1-1.619-.143l1.646-1.676.178-.181a4.001 4.001 0 0 0 3.79-3.792l.01.01c1.198-1.197 2.076-2.076 2.635-2.636l.733-.734zM9.996 3.995a9.25 9.25 0 0 1 1.632.144l-.076.076-.991.993-.785.787A4.002 4.002 0 0 0 6 9.775l-3.383 3.349a23.876 23.876 0 0 1-1.967-1.68S0 10.925 0 9.995s.654-1.452.654-1.452C3.855 5.511 6.99 4 9.995 3.995z"/>
    </defs>
    <use fill="#3A3A47" fill-rule="evenodd" transform="translate(2 2)" xlink:href="#a"/>
</svg>
