<svg width="24" height="24" viewBox="0 0 24 24" fill="none" xmlns="http://www.w3.org/2000/svg">
<path d="M2 12C2 11.07 2.654 10.548 2.654 10.548C5.855 7.51601 8.99 6.00501 11.995 6.00001C15.001 5.99501 18.165 7.51601 21.365 10.548C21.365 10.548 21.995 11.07 21.995 12C21.995 12.93 21.387 13.43 21.387 13.43C18.177 16.477 15 17.995 11.995 18C8.991 18.005 5.853 16.483 2.651 13.449C2.651 13.449 2 12.93 2 12ZM11.995 16C14.209 16 15.995 14.214 15.995 12C15.995 9.78601 14.209 8.00001 11.995 8.00001C9.782 8.00001 7.995 9.78601 7.995 12C7.995 14.214 9.782 16 11.995 16ZM13.995 12C13.9949 12.2627 13.9431 12.5228 13.8425 12.7655C13.7419 13.0082 13.5945 13.2287 13.4087 13.4144C13.2229 13.6002 13.0023 13.7475 12.7596 13.8479C12.5169 13.9484 12.2567 14.0001 11.994 14C11.7313 13.9999 11.4712 13.9481 11.2285 13.8475C10.9858 13.7469 10.7653 13.5995 10.5796 13.4137C10.3939 13.2279 10.2466 13.0073 10.1461 12.7646C10.0456 12.5219 9.99393 12.2617 9.994 11.999C9.99413 11.4684 10.205 10.9597 10.5803 10.5846C10.9555 10.2095 11.4644 9.99888 11.995 9.99901C12.5256 9.99914 13.0343 10.21 13.4094 10.5853C13.7845 10.9606 13.9951 11.4694 13.995 12Z" fill="#3A3A47"/>
</svg>
