<svg width="24" height="24" viewBox="0 0 24 24" fill="none" xmlns="http://www.w3.org/2000/svg">
<path d="M2.99959 6.0096H7.00008V18.0019H2.99959V6.0096Z" fill="#3A3A47"/>
<path d="M12.9996 5.99805H16.9996V12.9922H12.9996V5.99805Z" fill="#3A3A47"/>
<path d="M7.00008 6.0096H11.0859V8.00187H7.00024L7.00008 6.0096Z" fill="#3A3A47"/>
<path d="M6.95679 11H11.0425V12.9923H6.95679V11Z" fill="#3A3A47"/>
<path d="M16.9996 5.99805H21.0002V7.99032H16.9998L16.9996 5.99805Z" fill="#3A3A47"/>
<path d="M16.9996 5.99805H21.0002V7.99032H16.9998L16.9996 5.99805Z" fill="#3A3A47"/>
<path d="M13.0001 16.002H18.9996V17.9942H13.0001V16.002Z" fill="#3A3A47"/>
<path d="M16.9997 11H21.0002V12.9923L16.9996 12.9922L16.9997 11Z" fill="#3A3A47"/>
<path d="M21.0001 12.0059V18.002H18.0833V12.0059H21.0001Z" fill="#3A3A47"/>
</svg>
