<svg width="24" height="24" viewBox="0 0 24 24" fill="none" xmlns="http://www.w3.org/2000/svg">
<path d="M13.08 9.67V8.14C13.6067 8.12 14 8.03333 14.26 7.88C14.5267 7.72 14.66 7.45333 14.66 7.08V6.94C14.66 6.68667 14.5833 6.49333 14.43 6.36C14.2833 6.22667 14.09 6.16 13.85 6.16C13.59 6.16 13.3733 6.24 13.2 6.4C13.0333 6.56 12.92 6.76333 12.86 7.01L11.64 6.5C11.7 6.3 11.7867 6.10667 11.9 5.92C12.0133 5.72667 12.16 5.55667 12.34 5.41C12.5267 5.25667 12.7467 5.13333 13 5.04C13.26 4.94667 13.56 4.9 13.9 4.9C14.2467 4.9 14.5633 4.95 14.85 5.05C15.1367 5.15 15.3833 5.29 15.59 5.47C15.7967 5.65 15.9533 5.86667 16.06 6.12C16.1733 6.37333 16.23 6.65333 16.23 6.96C16.23 7.24 16.1833 7.49333 16.09 7.72C15.9967 7.94667 15.87 8.14667 15.71 8.32C15.55 8.48667 15.3633 8.62333 15.15 8.73C14.9367 8.83667 14.7133 8.91 14.48 8.95V9.67H13.08Z" fill="#3A3A47"/>
<path d="M13.8 12.12C13.48 12.12 13.25 12.0467 13.11 11.9C12.9767 11.7533 12.91 11.5733 12.91 11.36V11.12C12.91 10.9067 12.9767 10.7267 13.11 10.58C13.25 10.4333 13.48 10.36 13.8 10.36C14.12 10.36 14.3467 10.4333 14.48 10.58C14.62 10.7267 14.69 10.9067 14.69 11.12V11.36C14.69 11.5733 14.62 11.7533 14.48 11.9C14.3467 12.0467 14.12 12.12 13.8 12.12Z" fill="#3A3A47"/>
<path fill-rule="evenodd" clip-rule="evenodd" d="M22 3.6C22 2.71634 21.2837 2 20.4 2H7.6C6.71634 2 6 2.71634 6 3.6V13.2C6 14.0837 6.71634 15 7.6 15H18L20.4 16.9333L22 18V3.6ZM18 13L20 14.5V4H8V13H18Z" fill="#3A3A47"/>
<path d="M4 6.94C4 6.94 4.48364 6.94 3.6 6.94C2.71636 6.94 2 7.65633 2 8.54V22L6.0698 18.9991H15.4C16.2836 18.9991 17 18.2828 17 17.3991V17H6C4.89543 17 4 16.1046 4 15V6.94Z" fill="#3A3A47"/>
</svg>
