<svg width="24" height="24" viewBox="0 0 24 24" fill="none" xmlns="http://www.w3.org/2000/svg">
<path d="M4 7H3.5C2.67158 7 2 7.67156 2 8.5V22L6 19H15.5938C16.4222 19 17 18.4222 17 17.5938V17H6C4.89543 17 4 16.1046 4 15V7Z" fill="#3A3A47"/>
<path fill-rule="evenodd" clip-rule="evenodd" d="M7.6 2C6.71636 2 6 2.71633 6 3.6V13.5C6 14.3837 6.61636 15 7.5 15H17.2L22 18V3.6C22 2.71633 21.2836 2 20.4 2H7.6ZM13.08 8.14V9.67H14.48V8.95C14.7133 8.91 14.9367 8.83667 15.15 8.73C15.3633 8.62333 15.55 8.48667 15.71 8.32C15.87 8.14667 15.9967 7.94667 16.09 7.72C16.1833 7.49333 16.23 7.24 16.23 6.96C16.23 6.65333 16.1733 6.37333 16.06 6.12C15.9533 5.86667 15.7967 5.65 15.59 5.47C15.3833 5.29 15.1367 5.15 14.85 5.05C14.5633 4.95 14.2467 4.9 13.9 4.9C13.56 4.9 13.26 4.94667 13 5.04C12.7467 5.13333 12.5267 5.25667 12.34 5.41C12.16 5.55667 12.0133 5.72667 11.9 5.92C11.7867 6.10667 11.7 6.3 11.64 6.5L12.86 7.01C12.92 6.76333 13.0333 6.56 13.2 6.4C13.3733 6.24 13.59 6.16 13.85 6.16C14.09 6.16 14.2833 6.22667 14.43 6.36C14.5833 6.49333 14.66 6.68667 14.66 6.94V7.08C14.66 7.45333 14.5267 7.72 14.26 7.88C14 8.03333 13.6067 8.12 13.08 8.14ZM13.11 11.9C13.25 12.0467 13.48 12.12 13.8 12.12C14.12 12.12 14.3467 12.0467 14.48 11.9C14.62 11.7533 14.69 11.5733 14.69 11.36V11.12C14.69 10.9067 14.62 10.7267 14.48 10.58C14.3467 10.4333 14.12 10.36 13.8 10.36C13.48 10.36 13.25 10.4333 13.11 10.58C12.9767 10.7267 12.91 10.9067 12.91 11.12V11.36C12.91 11.5733 12.9767 11.7533 13.11 11.9Z" fill="#3A3A47"/>
</svg>
