<svg xmlns="http://www.w3.org/2000/svg" width="24" height="24" viewBox="0 0 24 24">
    <path fill="#3A3A47" fill-rule="evenodd" d="M19 17c1.333 1.264 2 2.264 2 3a2 2 0 1 1-4 0c0-.736.667-1.736 2-3zM12 6a1 1 0 0 1 1 1v1a2 2 0 0 1 1.742 1.017A1.91 1.91 0 0 1 15 9h2a5 5 0 0 1 5 5v1a1 1 0 0 1-1 1h-4a1 1 0 0 1-1-1h-1c-.088 0-.174-.006-.259-.017A1.997 1.997 0 0 1 13 16H9a2 2 0 0 1-2-2H6a1 1 0 0 1-1-1v-2a1 1 0 0 1 1-1h1a2 2 0 0 1 2-2V7a1 1 0 0 1 1-1h2zM3.5 8c.249 0 .455.229.493.53L4 8.631v6.736c0 .314-.181.575-.419.624L3.5 16h-1c-.249 0-.455-.229-.493-.53L2 15.369V8.632c0-.314.181-.575.419-.624L2.5 8h1zM12 9h-2v1H9v1H8v2h1v1h4v-1h4a1 1 0 0 1 1 1h2a3 3 0 0 0-3-3h-4v-1h-1V9zm1.526-7c.233 0 .426.177.466.41L14 2.5v1c0 .245-.168.45-.389.492L13.526 4H8.474a.482.482 0 0 1-.466-.41L8 3.5v-1c0-.245.168-.45.389-.492L8.474 2h5.052z"/>
</svg>
