<svg width="24" height="24" viewBox="0 0 24 24" fill="none" xmlns="http://www.w3.org/2000/svg">
<path fill-rule="evenodd" clip-rule="evenodd" d="M12 3C15.3137 3 18 5.68629 18 9C18 11.9729 15.8376 14.4388 13 14.915V16.5H15.5C16.0523 16.5 16.5 16.9477 16.5 17.5C16.5 18.0523 16.0523 18.5 15.5 18.5H13V21C13 21.5523 12.5523 22 12 22C11.4477 22 11 21.5523 11 21V18.5H8.5C7.94772 18.5 7.5 18.0523 7.5 17.5C7.5 16.9477 7.94772 16.5 8.5 16.5H11V14.915C8.16245 14.4388 6 11.9729 6 9C6 5.68629 8.68629 3 12 3ZM12 5C9.79086 5 8 6.79086 8 9C8 11.2091 9.79086 13 12 13C14.2091 13 16 11.2091 16 9C16 6.79086 14.2091 5 12 5Z" fill="#3A3A47"/>
</svg>
