<svg width="24" height="24" viewBox="0 0 24 24" fill="none" xmlns="http://www.w3.org/2000/svg">
<path fill-rule="evenodd" clip-rule="evenodd" d="M12.0302 2.00061C12.4516 2.00061 12.7832 2.06595 13.0251 2.19662C13.2317 2.28601 13.5055 2.50219 13.8464 2.84518L13.9967 2.99993L18.0033 7.00579C18.4629 7.41246 18.7451 7.77103 18.85 8.08153C18.9251 8.30373 18.9721 8.53199 18.9909 8.76633L19.0002 9.0027V9.91057C18.4989 9.42221 18.0692 9.07402 17.7111 8.86601C17.174 8.554 16.91 8.38662 16.1112 8.1216C16.0863 8.11481 16.0616 8.10816 16.0372 8.10165L16.1025 8.10202L16 8.00204L13 5.00204L12.9992 7.86561L12.9748 7.86882C12.9748 7.86882 12.6312 7.90489 12.0541 8.07596L11.905 8.1216C11.2385 8.33205 11.0547 8.45262 11.0547 8.45262C11.0547 8.45262 11.0408 8.33779 11.013 8.10815L11.0002 8.0027V4.0027H5.00024L5.00248 20.0027H9.10064C9.59402 20.4537 10.0345 20.7915 10.422 21.0161C11.5079 21.6456 12.3317 21.836 13.3184 21.9702L13.5687 22.0029H5.00248C4.29193 21.997 3.7788 21.8187 3.46309 21.468C3.18245 21.1563 3.02937 20.7358 3.00384 20.2063L3.00024 20.0027V4.0027C3.00609 3.3042 3.18116 2.79287 3.52547 2.4687C3.83534 2.17695 4.29866 2.02139 4.91542 2.00202L5.12669 2.00061H12.0302ZM14 9.99996C16.7614 9.99996 19 12.2385 19 15C19 16.0146 18.6978 16.9587 18.1784 17.7471L20.7559 20.3351C21.1487 20.782 20.9991 21.3484 20.6689 21.6769C20.3388 22.0053 19.7728 22.1459 19.3528 21.7309C19.3528 21.7309 17.3298 19.7111 16.8692 19.2512L16.7766 19.1588C15.9824 19.6901 15.0274 20 14 20C11.2386 20 9.00001 17.7614 9.00001 15C9.00001 12.2385 11.2386 9.99996 14 9.99996ZM14 12C12.3432 12 11 13.3431 11 15C11 16.6568 12.3432 18 14 18C15.6569 18 17 16.6568 17 15C17 13.3431 15.6569 12 14 12ZM9.00001 8.00204C9.66667 8.00204 10 8.33538 10 9.00204C10 9.62109 9.71259 9.95272 9.13776 9.99694L9.00001 10.002H8.00001C7.33298 10.002 6.99964 9.66871 7.00001 9.00204C7.00034 8.383 7.28809 8.05136 7.86326 8.00715L8.00109 8.00204H9.00001Z" fill="#3A3A47"/>
</svg>
