<svg xmlns="http://www.w3.org/2000/svg" xmlns:xlink="http://www.w3.org/1999/xlink" width="24" height="24" viewBox="0 0 24 24">
    <defs>
        <path id="a" d="M7.999 0L8 5.998c0 1.358.667 2.025 2 2 1.196-.023 3.195-.025 5.999-.007L16 18c0 1.333-.667 2-2 2H2.002C.667 20 0 19.334 0 18V2C0 .667.667 0 2 0h5.999zM10 .184c.293.146.625.417.996.813l4.007 4.006c.427.38.7.712.819.997l-.002-.003H10z"/>
    </defs>
    <use fill="#3A3A47" fill-rule="evenodd" transform="translate(4 2)" xlink:href="#a"/>
</svg>
