<svg width="24" height="24" viewBox="0 0 24 24" fill="none" xmlns="http://www.w3.org/2000/svg">
<path d="M14 2.18605C14.293 2.33205 14.625 2.60305 14.996 2.99905L19.003 7.00505C19.43 7.38505 19.703 7.71705 19.822 8.00205C19.941 8.28705 20 8.62005 20 9.00205V20.0021C20 21.3351 19.333 22.0021 18 22.0021H6.002C4.667 22.0031 4 21.3361 4 20.0021V4.00205C4 2.66905 4.667 2.00205 6 2.00205H12.996C13.054 2.00205 13.56 1.96705 14 2.18605ZM6 20.0021H18.001L18 10.0021H14C13.4696 10.0021 12.9609 9.79134 12.5858 9.41627C12.2107 9.04119 12 8.53249 12 8.00205V4.00205H6V20.0021ZM14 5.00205V8.00205H17L14 5.00205ZM9 14.0021C8.333 14.0021 8 13.6691 8 13.0021C8 12.3351 8.334 12.0021 9.001 12.0021H15C15.667 12.0021 16 12.3351 16 13.0021C16 13.6691 15.667 14.0021 15 14.0021H9ZM9 10.0021C8.333 10.0021 8 9.66905 8 9.00205C8 8.33505 8.334 8.00205 9.001 8.00205H10C10.667 8.00205 11 8.33505 11 9.00205C11 9.66905 10.667 10.0021 10 10.0021H9ZM9 18.0021C8.333 18.0021 8 17.6691 8 17.0021C8 16.3351 8.333 16.0021 9 16.0021H15C15.667 16.0021 16 16.3351 16 17.0021C16 17.6691 15.667 18.0021 15 18.0021H9Z" fill="#3A3A47"/>
</svg>
