<svg width="24" height="24" viewBox="0 0 24 24" fill="none" xmlns="http://www.w3.org/2000/svg">
<path d="M11 2V7.99791C11.0137 8.30141 11.0342 8.5184 11.0615 8.64886C10.6294 8.84227 10.2195 9.08085 9.83819 9.35951C9.67939 9.11974 9.39956 9 9 9H8.00109C7.33406 9 7.00036 9.33333 7 10C6.99964 10.6667 7.33297 11 8 11L8.24401 10.9989C7.24647 12.4455 6.77352 14.3204 7.14383 16.3731C7.48078 18.2409 8.78563 20.2572 10.8831 21.2486C11.9113 21.7346 12.8908 21.9807 13.8918 22.0001L5.00223 22C3.72808 22.0009 3.06205 21.3935 3.00414 20.1778L3 20V4C3 2.72727 3.60744 2.06198 4.82231 2.00413L5 2H11ZM18.3832 21.6022C18.0897 21.8405 17.6871 21.9716 17.1777 21.9959L17 22L13.8918 22.0001C14.6926 22.0156 15.5072 21.8861 16.3714 21.6183C16.437 21.598 17.1075 21.5926 18.3832 21.6022ZM14 10C16.7614 10 19 12.2386 19 15C19 16.0147 18.6977 16.9588 18.1784 17.7472L18.2734 17.8426C18.7388 18.3099 20.7558 20.3352 20.7558 20.3352C21.1487 20.782 20.9991 21.3484 20.6689 21.6769C20.3388 22.0053 19.7728 22.146 19.3528 21.7309L19.3094 21.6876C18.9717 21.3504 16.7766 19.1588 16.7766 19.1588C15.9823 19.6902 15.0274 20 14 20C11.2386 20 9 17.7614 9 15C9 12.2386 11.2386 10 14 10ZM14 12C12.3431 12 11 13.3431 11 15C11 16.6569 12.3431 18 14 18C15.6569 18 17 16.6569 17 15C17 13.3431 15.6569 12 14 12ZM13.0002 2.18402C13.2515 2.30932 13.5314 2.52637 13.8398 2.83519L13.9964 2.99724L18.0031 7.0031C18.4285 7.38168 18.701 7.713 18.8205 7.99706L13 7.99791L13.0002 2.18402Z" fill="#3A3A47"/>
</svg>
