<svg xmlns="http://www.w3.org/2000/svg" xmlns:xlink="http://www.w3.org/1999/xlink" width="24" height="24" viewBox="0 0 24 24">
    <defs>
        <path id="a" d="M13.5 12v5.243l-2 .75V12L8.002 6h8.936L13.5 12zM8.002 4C6.45 4 5.49 5.696 6.288 7.029L9.505 13v5.027c.034.696.3 1.227.799 1.592.498.366 1.11.467 1.837.305l1.965-.66c.418-.156.74-.39.966-.701.226-.31.358-.71.398-1.196V13l3.182-5.971c.8-1.333-.16-3.029-1.714-3.029H8.002z"/>
    </defs>
    <use fill="#686A75" fill-rule="evenodd" xlink:href="#a"/>
</svg>
