<svg width="24" height="24" viewBox="0 0 24 24" fill="none" xmlns="http://www.w3.org/2000/svg">
<path d="M2 15.2538C2.00016 13.2867 2.39411 12.3865 4.19824 8.06922C4.50668 7.33112 4.85857 6.48969 5.25977 5.52137C5.51464 4.90621 5.98121 4.39863 6.57715 4.09559L10.0986 2.30555C10.8978 1.89922 11.8203 1.92836 12.5713 2.21571C13.3229 2.50342 14.0508 3.11022 14.3135 4.02625L15.0039 6.43641C15.4836 8.10966 14.3312 9.80226 12.6045 9.98329C12.5699 9.98691 12.5348 9.98914 12.5 9.98914H10.8193C10.7484 9.98914 10.6777 10.0002 10.6104 10.0223L10.4316 10.0809C10.1633 10.1694 9.97993 10.4176 9.97363 10.7001L9.94922 11.7743C10.3761 11.6137 10.876 11.5009 11.4434 11.5009C12.4976 11.5009 13.2943 11.8839 13.8252 12.2723C13.871 12.2357 13.918 12.1979 13.9678 12.161C14.5881 11.7024 15.5263 11.2489 16.7812 11.2489C19.7033 11.2489 22 13.7309 22 16.6454C22 19.6147 19.5651 21.9998 16.5889 21.9999C16.5504 21.9999 16.5118 21.9975 16.4736 21.9931L7.19727 20.9179C7.17575 20.9154 7.15412 20.912 7.13281 20.9081C5.77835 20.6609 4.51492 19.8851 3.59277 18.8973C2.67633 17.9156 2.00001 16.6171 2 15.2538ZM13.0186 14.245C13.0186 14.245 13.0168 14.2438 13.0156 14.2421L13.0137 14.2391C13.0163 14.2426 13.0186 14.245 13.0186 14.245ZM4 15.2538C4.00002 15.9652 4.36993 16.7996 5.05469 17.5331C5.72999 18.2564 6.61724 18.7753 7.47656 18.9364L16.6338 19.9979C18.5089 19.9741 20 18.4711 20 16.6454C20 14.7502 18.5154 13.2489 16.7812 13.2489C16.0365 13.2489 15.5056 13.5109 15.1572 13.7684C14.9804 13.8992 14.851 14.0291 14.7695 14.121C14.7292 14.1665 14.7016 14.2016 14.6865 14.2216C14.679 14.2315 14.6738 14.2391 14.6738 14.2391L14.6748 14.2372L14.6768 14.2343L14.6055 14.329C14.4175 14.55 14.1409 14.6797 13.8467 14.6806C13.5108 14.6814 13.1966 14.514 13.0107 14.2343L13.0117 14.2362L13.0137 14.2391L13.0107 14.2343C13.0004 14.2207 12.9797 14.1962 12.9492 14.162C12.8876 14.0928 12.7895 13.9941 12.6553 13.8944C12.3906 13.6981 11.9941 13.5009 11.4434 13.5009C10.8864 13.5009 10.4454 13.7026 10.1318 13.9169C9.97539 14.0238 9.85649 14.1301 9.78027 14.2059C9.74263 14.2434 9.7165 14.2725 9.70215 14.2889L9.69629 14.2948C9.4316 14.6352 8.97861 14.7673 8.57227 14.6229C8.16589 14.4785 7.89779 14.0902 7.90723 13.6591L8 9.99989C8 8.80415 8.34883 7.78051 8.85059 7.01454C9.32724 6.28701 10.026 5.67504 10.8037 5.51942C11.3452 5.41112 11.8721 5.76214 11.9805 6.3036C12.0888 6.8451 11.7377 7.37197 11.1963 7.48036C11.1454 7.49054 10.8885 7.60786 10.6035 7.99696L12.4258 7.98914C12.9065 7.92105 13.2131 7.44771 13.0811 6.98719L12.3906 4.57704C12.3419 4.40759 12.1741 4.20554 11.8564 4.08387C11.5376 3.96187 11.2151 3.98096 11.0049 4.08778L7.4834 5.87879C7.31425 5.96493 7.18047 6.11004 7.10742 6.28602L5.42285 10.329C4.1445 13.4164 4.00011 13.9572 4 15.2538Z" fill="#3A3A47"/>
</svg>
