<svg width="24" height="24" viewBox="0 0 24 24" fill="none" xmlns="http://www.w3.org/2000/svg">
<path d="M6.79167 20.805C4.32639 20.3552 1.99981 17.9208 2 15.6151C2.00016 13.699 2.32378 12.9246 4.35621 8.06097C4.69896 7.24077 5.0903 6.30429 5.53688 5.22642C5.71907 4.7867 6.05318 4.42447 6.47843 4.20823L10.3908 2.2188C11.5123 1.64851 12.8773 2.24022 13.2232 3.44661L13.991 6.12458C14.3324 7.31537 13.5128 8.52487 12.2768 8.6543L10.6024 8.82963C10.1877 8.87305 9.84378 8.51308 9.90605 8.10083C9.94699 7.8298 10.1567 7.61534 10.4267 7.56832L10.8485 7.49488C11.2566 7.42382 11.5296 7.03658 11.4582 6.62995C11.3869 6.22332 10.9983 5.95129 10.5902 6.02235L9.28574 6.62995C8.96787 6.6853 8.72116 6.93702 8.67313 7.25497L8.31274 9.30274C8.28965 9.43394 8.28236 9.56743 8.29104 9.70036L8.56316 13.8679C8.56316 13.8679 9.582 12.5565 11.3813 12.5565C13.1806 12.5565 14.0486 13.8679 14.0486 13.8679C14.0486 13.8679 15.0903 12.2763 17.3125 12.2763C19.8993 12.2763 22 14.4897 22 17.1618C22 19.8339 19.8055 22 17.0985 22L6.79167 20.805Z" fill="#3A3A47"/>
</svg>
