<svg width="24" height="24" viewBox="0 0 24 24" fill="none" xmlns="http://www.w3.org/2000/svg">
<path fill-rule="evenodd" clip-rule="evenodd" d="M10.2407 8.99976C10.793 8.99976 11.2407 9.44748 11.2407 9.99976V13.9998C11.2407 14.552 10.793 14.9998 10.2407 14.9998C9.68846 14.9998 9.24074 14.552 9.24074 13.9998V9.99976C9.24074 9.44748 9.68846 8.99976 10.2407 8.99976Z" fill="#3A3A47"/>
<path fill-rule="evenodd" clip-rule="evenodd" d="M3.12494 11.9998C3.12494 11.4475 3.57265 10.9998 4.12494 10.9998H10.2407C10.793 10.9998 11.2407 11.4475 11.2407 11.9998C11.2407 12.552 10.793 12.9998 10.2407 12.9998H4.12494C3.57265 12.9998 3.12494 12.552 3.12494 11.9998Z" fill="#3A3A47"/>
<path fill-rule="evenodd" clip-rule="evenodd" d="M14.1249 11.9998C14.1249 11.4475 14.5727 10.9998 15.1249 10.9998H21.1249C21.6772 10.9998 22.1249 11.4475 22.1249 11.9998C22.1249 12.552 21.6772 12.9998 21.1249 12.9998H15.1249C14.5727 12.9998 14.1249 12.552 14.1249 11.9998Z" fill="#3A3A47"/>
<path fill-rule="evenodd" clip-rule="evenodd" d="M16.27 21.978C16.2821 21.978 16.2919 21.9682 16.2919 21.9561V18.3073C16.2498 18.3073 15.9288 18.3305 15.8875 18.3333V18.3291C15.6905 18.3291 15.4955 18.3679 15.3135 18.4433C15.1315 18.5187 14.9661 18.6292 14.8269 18.7685C14.794 18.8013 14.7628 18.8355 14.7333 18.8711C14.4397 19.1825 14.2625 19.7763 14.2625 20.2499V21.978C14.2625 21.9901 14.2723 21.9999 14.2844 21.9999H4.12488C3.02031 21.9999 2.12488 21.1044 2.12488 19.9999V3.99988C2.12488 2.89531 3.02031 1.99988 4.12488 1.99988H20.1249C21.2294 1.99988 22.1249 2.89531 22.1249 3.99988V19.9999C22.1249 21.1044 21.2294 21.9999 20.1249 21.9999L16.27 21.978ZM4.12488 3.99988H20.1249V19.9999L18.3094 19.9998V17.2888C18.3094 16.7365 17.8617 16.2888 17.3094 16.2888H15.515C15.121 16.2888 14.6766 16.3183 14.3127 16.469C13.9487 16.6198 13.5385 16.9102 13.2599 17.1888C12.9814 17.4674 12.7066 17.8497 12.5558 18.2137C12.405 18.5776 12.2822 19.6059 12.2822 19.9999H4.12488V3.99988Z" fill="#3A3A47"/>
<path fill-rule="evenodd" clip-rule="evenodd" d="M10.2976 1.99988C10.8499 1.99988 11.2976 2.44759 11.2976 2.99988V5.99988C11.2976 6.55216 10.8499 6.99988 10.2976 6.99988C9.74528 6.99988 9.29757 6.55216 9.29757 5.99988V2.99988C9.29757 2.44759 9.74528 1.99988 10.2976 1.99988Z" fill="#3A3A47"/>
</svg>
