<svg width="24" height="24" viewBox="0 0 24 24" fill="none" xmlns="http://www.w3.org/2000/svg">
<path d="M3 2C2.44772 2 2 2.44772 2 3V7C2 7.55228 2.44772 8 3 8H7C7.55228 8 8 7.55228 8 7V3C8 2.44772 7.55228 2 7 2H3Z" fill="#3A3A47"/>
<path d="M10 9C9.44772 9 9 9.44772 9 10V14C9 14.5523 9.44772 15 10 15H14C14.5523 15 15 14.5523 15 14V10C15 9.44772 14.5523 9 14 9H10Z" fill="#3A3A47"/>
<path d="M16 17C16 16.4477 16.4477 16 17 16H21C21.5523 16 22 16.4477 22 17V21C22 21.5523 21.5523 22 21 22H17C16.4477 22 16 21.5523 16 21V17Z" fill="#3A3A47"/>
<path d="M5 11L7 11V13H5C4.44772 13 4 13.4477 4 14L4 17C4 17.5523 4.44772 18 5 18L14 18V20L5 20C3.34315 20 2 18.6569 2 17V14C2 12.3431 3.34315 11 5 11Z" fill="#3A3A47"/>
<path d="M19 13H17V11L19 11C19.5523 11 20 10.5523 20 10L20 7C20 6.44772 19.5523 6 19 6H10V4H19C20.6569 4 22 5.34315 22 7L22 10C22 11.6569 20.6569 13 19 13Z" fill="#3A3A47"/>
</svg>
