<svg width="24" height="24" viewBox="0 0 24 24" fill="none" xmlns="http://www.w3.org/2000/svg">
<path d="M12.5635 2C13.5222 2.00026 14.2606 2.84566 14.1328 3.7959L13.5684 8.01562L13.2334 10.4541C13.1211 11.2415 12.9873 12.1434 12.7725 13.5791C12.1953 17.4371 16.6071 18.417 19.1836 18.417C21.7599 18.417 21.313 21.5631 19.5957 22H7.45312C7.45312 22 6.89672 21.3726 7.45312 18.8418C7.6578 17.9109 7.81553 17.3705 7.9209 17.0107C8.10182 16.3931 8.12721 16.307 7.96484 15.6846C7.77658 14.9629 7.54801 13.4573 7.30566 11.8613C7.10952 10.5696 6.90427 9.21833 6.7041 8.1748C6.70141 8.16459 6 5.49695 6 4.05469C6.00012 3.81553 6.03792 3.34356 6.10547 2.90723C6.19739 2.31352 6.71075 2.00004 7.31152 2H12.5635ZM10.2324 17.7812C9.95648 17.7784 9.73064 17.9994 9.72754 18.2754C9.72128 18.8349 9.86561 19.3488 10.2432 19.7188C10.6179 20.086 11.1401 20.2305 11.7168 20.2305C11.9928 20.2304 12.2168 20.0065 12.2168 19.7305C12.2168 19.4544 11.9928 19.2306 11.7168 19.2305C11.2938 19.2305 11.066 19.1249 10.9434 19.0049C10.8236 18.8875 10.7232 18.6761 10.7275 18.2861C10.7304 18.0102 10.5084 17.7843 10.2324 17.7812Z" fill="#3A3A47"/>
</svg>
