<svg width="24" height="24" viewBox="0 0 24 24" fill="none" xmlns="http://www.w3.org/2000/svg">
<path fill-rule="evenodd" clip-rule="evenodd" d="M5.44668 2.37455C5.63647 2.13778 5.9235 2 6.22695 2H13.3499C13.9546 2 14.4209 2.53243 14.3412 3.1318C14.2768 3.61602 14.2175 4.06327 14.1626 4.47765C13.4309 4.68419 12.7501 4.83906 12.083 4.94793L12.2084 4H6.9598C6.92972 4.22365 6.90987 4.49674 6.90563 4.79969C6.90477 4.86178 6.90456 4.92425 6.90502 4.98694C6.39413 4.92889 5.8522 4.85515 5.27182 4.7653C5.14871 4.74624 5.02649 4.73884 4.90628 4.74228C4.91374 4.29747 4.94919 3.86617 5.01427 3.49633C5.04746 3.30772 5.09123 3.11844 5.15002 2.94358C5.20404 2.78291 5.29264 2.56672 5.44668 2.37455Z" fill="#3A3A47"/>
<path d="M11.6159 9.04449C12.286 8.97447 12.943 8.87015 13.6025 8.73301C13.3845 10.3886 13.2857 11.0978 12.9147 13.6216C12.8158 14.2941 12.9355 14.7729 13.1432 15.1329C13.359 15.5067 13.7151 15.8293 14.2032 16.0964C15.203 16.6434 16.569 16.8531 17.6237 16.8531C18.4112 16.8531 19.0985 17.1043 19.5848 17.6133C20.0603 18.111 20.2411 18.748 20.2381 19.3313C20.2324 20.4218 19.5529 21.7238 18.24 22.0634L18.1169 22.0952H7.19884C6.90827 22.0952 6.63192 21.9695 6.44099 21.7505L6.43937 21.7486L6.43613 21.7449L6.42956 21.7371L6.41612 21.7207C6.40702 21.7094 6.39769 21.6974 6.38817 21.6846C6.36912 21.6589 6.3494 21.6303 6.32938 21.5984C6.28926 21.5346 6.24848 21.4587 6.20961 21.3692C6.13177 21.1899 6.06338 20.9603 6.0212 20.6683C5.93751 20.0888 5.95484 19.2497 6.21894 18.027C6.41001 17.1424 6.57065 16.5845 6.66223 16.2665C6.69038 16.1688 6.71201 16.0937 6.72598 16.0387C6.74101 15.9796 6.74555 15.9528 6.74708 15.9412L6.74775 15.935L6.74772 15.9332C6.74667 15.9127 6.73986 15.8517 6.68285 15.6292C6.50146 14.9215 6.28931 13.4978 6.07682 12.0719C6.0463 11.8671 6.0157 11.6618 5.98526 11.459C5.83955 10.4885 5.69656 9.57218 5.56301 8.8499C6.28691 8.94845 6.97354 9.02394 7.63412 9.07466C7.74792 9.73976 7.85847 10.4652 7.96309 11.1621C7.99372 11.3661 8.02394 11.5684 8.05371 11.7678C8.27247 13.2326 8.46685 14.5342 8.62023 15.1327C8.67747 15.356 8.73276 15.5895 8.74507 15.8305C8.7589 16.1011 8.717 16.3244 8.66427 16.5317C8.63492 16.6471 8.60203 16.7613 8.56419 16.8926C8.47105 17.2159 8.34793 17.6433 8.17385 18.4492C8.00415 19.2349 7.96879 19.7616 7.97789 20.0952H17.8229C17.9036 20.0546 17.9897 19.9821 18.0681 19.8652C18.1765 19.7035 18.2372 19.5019 18.2381 19.3209C18.239 19.143 18.1852 19.0435 18.1388 18.995C18.1032 18.9578 17.9813 18.8531 17.6237 18.8531C16.3881 18.8531 14.6484 18.6197 13.2432 17.851C12.5289 17.4601 11.8578 16.9067 11.411 16.1326C10.9563 15.3447 10.7782 14.4037 10.936 13.3307C11.2591 11.1323 11.3739 10.3244 11.543 9.05196L11.6159 9.04449Z" fill="#3A3A47"/>
<path d="M6.90502 4.98694C6.39413 4.92889 5.8522 4.85515 5.27182 4.7653C5.14871 4.74624 5.02649 4.73884 4.90628 4.74228L5.56301 8.8499C6.28691 8.94845 6.97354 9.02394 7.63412 9.07466L6.90502 4.98694Z" fill="#3A3A47"/>
<path d="M14.1626 4.47765C13.4309 4.68419 12.7501 4.83906 12.083 4.94793L11.543 9.05196L11.6159 9.04449C12.286 8.97447 12.943 8.87015 13.6025 8.73301L14.1626 4.47765Z" fill="#3A3A47"/>
</svg>
