<svg width="24" height="24" viewBox="0 0 24 24" fill="none" xmlns="http://www.w3.org/2000/svg">
<path fill-rule="evenodd" clip-rule="evenodd" d="M8.96599 6.43421C9.00288 6.43705 9.03718 6.43943 9.06868 6.44162Z" fill="#24252E"/>
<path fill-rule="evenodd" clip-rule="evenodd" d="M2.93695 5.91723C3.2333 8.05794 3.49141 9.8861 4.02992 11.1836C3.62413 13.4948 2.86061 16.4362 2.22486 17.5142C1.93364 18.0081 1.89324 18.6621 2.2955 19.0706C4.09547 20.8984 7.73843 23.1346 12.0026 21.4072C16.0055 19.7856 16.3525 15.485 15.2484 12.4007C15.3636 12.3886 15.4122 12.3601 15.43 12.3439C15.4385 12.3361 15.4624 12.3132 15.4624 12.2251C15.4624 11.8452 15.3262 11.3759 15.0943 10.9288C15.0104 10.767 14.9139 10.6081 14.8068 10.4574L14.7829 10.4241C14.7562 10.3873 14.7291 10.3514 14.7017 10.3165C14.3263 9.83739 13.893 9.53316 13.5018 9.48823C13.5325 9.28311 13.9088 6.44527 11.5 4.99999C10.3014 4.52053 9.71031 4.48052 9.26377 4.45028C8.77896 4.41746 8.4645 4.39616 7.72778 3.83655C7.69775 3.80827 7.62888 3.74483 7.54078 3.66366C7.3093 3.45042 6.94509 3.11489 6.80396 2.97386C6.48175 2.65188 6.1213 2.31395 5.68795 2.17357C3.5 2.00006 2.36938 1.39215 2.7692 4.66194C2.8145 5.03243 2.87208 5.44864 2.93695 5.91723ZM6.63634 13.1512L6.60463 13.1511C6.2683 13.1482 5.97264 13.0993 5.71044 13.0101C5.54186 13.7978 5.34755 14.5997 5.14101 15.3453C4.87455 16.3072 4.54795 17.3266 4.17688 18.0975C5.78211 19.5037 8.36702 20.7221 11.2517 19.5535C12.6197 18.9993 13.3082 18.0481 13.6097 16.9311C13.9166 15.7944 13.8197 14.4485 13.4261 13.2518L12.5484 11.7955C12.2164 11.7128 11.8966 11.6512 11.6364 11.6512C11.4297 11.6512 11.2349 11.6894 11.0476 11.7501C10.91 11.7948 10.7764 11.8516 10.645 11.9145C10.5297 11.9696 10.4128 12.0311 10.2946 12.095C10.2537 12.1171 10.2127 12.1395 10.1715 12.162L10.1232 12.1884C9.9764 12.2688 9.82594 12.3511 9.66458 12.4335C8.95944 12.7933 8.04989 13.1512 6.63634 13.1512ZM9.78296 10.1098C10.2349 10.0901 10.6683 10.09 11.0476 10.09C11.2509 10.09 11.4241 10.0732 11.5757 10.0452C11.4978 9.76996 11.4792 9.47924 11.5238 9.19267C11.5244 9.18803 11.5256 9.17776 11.5272 9.16236C11.5313 9.12273 11.5373 9.05154 11.5397 8.95654C11.5447 8.76212 11.5342 8.49405 11.4763 8.20472C11.3705 7.67551 11.1332 7.16407 10.5908 6.79188C9.79177 6.4869 9.43653 6.46474 9.14473 6.44654C9.11897 6.44493 9.09371 6.44336 9.06868 6.44162C9.03718 6.43943 9.00288 6.43705 8.96599 6.43421C8.70781 6.41427 8.32277 6.37143 7.88187 6.2118C7.39591 6.03587 6.95817 5.76353 6.51801 5.42918C6.46192 5.38657 6.40811 5.34102 6.35683 5.29274C6.3494 5.28574 6.31994 5.25862 6.27538 5.21759C6.20843 5.15595 6.1074 5.06292 5.99587 4.95971C6.0108 5.05687 6.02509 5.15534 6.03881 5.25494C6.1462 6.03463 6.21578 6.86185 6.28214 7.6507C6.29559 7.81059 6.30891 7.96891 6.32238 8.12494C6.34143 8.34555 6.36084 8.56245 6.38151 8.77286C6.40662 9.02849 6.43358 9.27453 6.464 9.50599C6.51226 9.87319 6.56922 10.2037 6.64128 10.4776L6.73489 10.8334L7.06183 10.6647C7.50716 10.4349 8.05606 10.2947 8.63916 10.2108C8.7639 10.1929 8.8902 10.1775 9.01738 10.1644C9.27427 10.1378 9.53149 10.1208 9.78296 10.1098Z" fill="#24252E"/>
<path fill-rule="evenodd" clip-rule="evenodd" d="M16.5708 7.04321C16.1923 7.44548 16.2117 8.07835 16.6139 8.45676C16.9888 8.80936 17.3939 9.2516 17.785 9.76382C18.1202 10.2028 18.7477 10.287 19.1867 9.9518C19.6257 9.61665 19.7098 8.98911 19.3747 8.55014C18.9182 7.95232 18.4399 7.4286 17.9843 7.00002C17.582 6.6216 16.9492 6.64094 16.5708 7.04321ZM20.0746 11.5799C19.5475 11.7447 19.2538 12.3056 19.4186 12.8327C19.751 13.8961 19.8536 15.0047 19.5999 16.1005C19.4753 16.6385 19.8105 17.1757 20.3486 17.3003C20.8866 17.4248 21.4238 17.0896 21.5484 16.5516C21.8984 15.0398 21.7426 13.5637 21.3275 12.2359C21.1627 11.7088 20.6018 11.4151 20.0746 11.5799ZM19.4158 18.9159C19.012 18.5391 18.3792 18.561 18.0024 18.9648C17.64 19.3531 17.2086 19.7418 16.6978 20.1261C16.2565 20.4582 16.168 21.0852 16.5001 21.5265C16.8322 21.9678 17.4592 22.0563 17.9004 21.7242C18.4963 21.2757 19.0161 20.81 19.4646 20.3293C19.8414 19.9255 19.8195 19.2927 19.4158 18.9159Z" fill="#24252E"/>
</svg>
