<svg width="24" height="24" viewBox="0 0 24 24" fill="none" xmlns="http://www.w3.org/2000/svg">
<path fill-rule="evenodd" clip-rule="evenodd" d="M16.2718 7.04319C15.8934 7.44546 15.9128 8.07833 16.315 8.45674C16.6898 8.80934 17.095 9.25158 17.4861 9.7638C17.8212 10.2028 18.4488 10.2869 18.8878 9.95178C19.3267 9.61663 19.4109 8.98909 19.0757 8.55012C18.6193 7.95231 18.141 7.42859 17.6854 7C17.2831 6.62158 16.6502 6.64092 16.2718 7.04319ZM19.7757 11.5799C19.2486 11.7447 18.9549 12.3056 19.1197 12.8327C19.4521 13.8961 19.5547 15.0046 19.301 16.1004C19.1764 16.6385 19.5116 17.1757 20.0496 17.3002C20.5877 17.4248 21.1249 17.0896 21.2494 16.5516C21.5995 15.0398 21.4437 13.5637 21.0285 12.2359C20.8637 11.7088 20.3028 11.4151 19.7757 11.5799ZM19.1168 18.9159C18.713 18.5391 18.0803 18.561 17.7035 18.9648C17.3411 19.3531 16.9097 19.7417 16.3989 20.1261C15.9576 20.4582 15.8691 21.0852 16.2012 21.5265C16.5333 21.9677 17.1602 22.0563 17.6015 21.7242C18.1974 21.2757 18.7172 20.8099 19.1657 20.3293C19.5425 19.9255 19.5206 19.2927 19.1168 18.9159Z" fill="#3A3A47"/>
<path fill-rule="evenodd" clip-rule="evenodd" d="M8.96599 6.43421C9.00288 6.43706 9.03718 6.43944 9.06868 6.44162L8.96599 6.43421Z" fill="#3A3A47"/>
<path fill-rule="evenodd" clip-rule="evenodd" d="M2.93695 5.91724C3.2333 8.05795 3.49141 9.8861 4.02992 11.1836C3.62413 13.4948 2.86061 16.4362 2.22486 17.5142C1.93364 18.0081 1.89324 18.6621 2.2955 19.0706C4.09547 20.8984 7.73843 23.1346 12.0026 21.4072C16.0055 19.7856 16.3525 15.485 15.2484 12.4007C15.3636 12.3886 15.4122 12.3601 15.43 12.3439C15.4385 12.3361 15.4624 12.3132 15.4624 12.2251C15.4624 11.8452 15.3262 11.3759 15.0943 10.9288C15.0104 10.767 14.9139 10.6081 14.8068 10.4574L14.7829 10.4241C14.7562 10.3873 14.7291 10.3514 14.7017 10.3165C14.3263 9.83739 13.893 9.53317 13.5018 9.48824C13.5325 9.28311 13.9088 6.44527 11.5 4.99999C10.3014 4.52054 9.71031 4.48052 9.26377 4.45029C8.77896 4.41746 8.4645 4.39617 7.72778 3.83655C7.69775 3.80828 7.62888 3.74483 7.54078 3.66367C7.3093 3.45042 6.94509 3.1149 6.80396 2.97386C6.48175 2.65188 6.1213 2.31395 5.68795 2.17357C3.82218 1.59926 2.66768 2.46687 2.7692 4.66195C2.8145 5.03244 2.87208 5.44865 2.93695 5.91724ZM6.63634 13.1512L6.60463 13.1511C6.2683 13.1482 5.97264 13.0993 5.71044 13.0101C5.54186 13.7978 5.34755 14.5997 5.14101 15.3453C4.87455 16.3072 4.54795 17.3266 4.17688 18.0975C5.78211 19.5037 8.36702 20.7221 11.2517 19.5535C12.6197 18.9993 13.3082 18.048 13.6097 16.9311C13.9166 15.7944 13.8197 14.4485 13.4261 13.2518L12.5484 11.7955C12.2164 11.7128 11.8966 11.6512 11.6364 11.6512C11.4297 11.6512 11.2349 11.6894 11.0476 11.7501C10.91 11.7948 10.7764 11.8516 10.645 11.9145C10.5297 11.9696 10.4128 12.0311 10.2946 12.095C10.2537 12.1171 10.2127 12.1395 10.1715 12.162L10.1232 12.1884C9.9764 12.2688 9.82594 12.3511 9.66458 12.4335C8.95944 12.7933 8.04989 13.1512 6.63634 13.1512ZM9.78296 10.1098C10.2349 10.0901 10.6683 10.09 11.0476 10.09C11.2509 10.09 11.4241 10.0732 11.5757 10.0452C11.4978 9.76996 11.4792 9.47924 11.5238 9.19268C11.5244 9.18803 11.5256 9.17776 11.5272 9.16237C11.5313 9.12274 11.5373 9.05154 11.5397 8.95655C11.5447 8.76213 11.5342 8.49405 11.4763 8.20473C11.3705 7.67552 11.1332 7.16407 10.5908 6.79188C9.79177 6.4869 9.43653 6.46475 9.14473 6.44654C9.11897 6.44494 9.09371 6.44336 9.06868 6.44162C9.03718 6.43944 9.00288 6.43706 8.96599 6.43421C8.70781 6.41428 8.32277 6.37143 7.88187 6.21181C7.39591 6.03587 6.95817 5.76353 6.51801 5.42918C6.46192 5.38657 6.40811 5.34103 6.35683 5.29274C6.3494 5.28575 6.31994 5.25862 6.27538 5.2176C6.20843 5.15595 6.1074 5.06292 5.99587 4.95971C6.0108 5.05687 6.02509 5.15534 6.03881 5.25494C6.1462 6.03463 6.21578 6.86185 6.28214 7.6507C6.29559 7.8106 6.30891 7.96892 6.32238 8.12494C6.34143 8.34556 6.36084 8.56246 6.38151 8.77286C6.40662 9.02849 6.43358 9.27453 6.464 9.50599C6.51226 9.8732 6.56922 10.2037 6.64128 10.4776L6.73489 10.8334L7.06183 10.6647C7.50716 10.4349 8.05606 10.2947 8.63916 10.2108C8.7639 10.1929 8.8902 10.1775 9.01738 10.1644C9.27427 10.1378 9.53149 10.1208 9.78296 10.1098Z" fill="#3A3A47"/>
</svg>
