<svg width="24" height="24" viewBox="0 0 24 24" fill="none" xmlns="http://www.w3.org/2000/svg">
<path d="M6.64121 10.4775C6.48635 9.88897 6.40123 9.03882 6.32231 8.12492C6.30884 7.9689 6.29552 7.81058 6.28207 7.65068C6.21572 6.86183 6.14614 6.03461 6.03875 5.25492C5.90901 4.31296 5.72783 3.47268 5.44748 2.87453C5.16661 2.27526 4.82946 2 4.41084 2C3.8307 2 3.44626 2.0539 3.19054 2.16256C2.95739 2.26163 2.8258 2.40774 2.74877 2.64621C2.66422 2.90794 2.64501 3.285 2.68501 3.83658C2.72463 4.38296 2.81864 5.06308 2.93688 5.91722C3.23323 8.05793 3.49135 9.88608 4.02985 11.1836C4.2967 11.8266 4.62337 12.315 5.03687 12.643C5.44498 12.9668 5.95894 13.1512 6.63627 13.1512C8.04982 13.1512 8.95937 12.7933 9.66451 12.4334C9.82587 12.3511 9.97633 12.2688 10.1231 12.1884L10.1714 12.162C10.3317 12.0744 10.4898 11.9887 10.645 11.9145C10.9552 11.766 11.2777 11.6512 11.6363 11.6512C11.9761 11.6512 12.4176 11.7562 12.855 11.8761C13.0335 11.9251 13.212 11.9767 13.3893 12.028C13.6668 12.1083 13.9416 12.1878 14.2102 12.2551C14.653 12.3663 15.0116 12.4255 15.2483 12.4007C15.3635 12.3886 15.4121 12.3601 15.4299 12.3439C15.4384 12.3361 15.4624 12.3132 15.4624 12.2251C15.4624 11.6976 15.1998 10.9977 14.7828 10.424C14.3584 9.84004 13.8464 9.48244 13.4025 9.48244C12.8853 9.48244 12.6405 9.60878 12.3645 9.75117L12.3603 9.75336C12.0493 9.91384 11.7053 10.09 11.0476 10.09C10.4572 10.09 9.7359 10.0902 9.01732 10.1643C8.29558 10.2388 7.60236 10.3857 7.06177 10.6646L6.73483 10.8333L6.64121 10.4775Z" fill="#3A3A47"/>
<path d="M5.88144 2.42606C5.91663 2.49036 5.95002 2.55651 5.98171 2.62414C6.30184 3.30715 6.49201 4.2217 6.62323 5.17442C6.73296 5.97113 6.80409 6.81711 6.87041 7.60597C6.88375 7.76453 6.89691 7.92109 6.91013 8.07417C6.97437 8.81818 7.03999 9.47824 7.13557 9.98394C7.69811 9.75956 8.33717 9.6414 8.95676 9.57746C9.70778 9.49996 10.4561 9.49996 11.0424 9.49996H11.0476C11.5647 9.49996 11.8096 9.37361 12.0855 9.23122L12.0898 9.22904C12.2518 9.14542 12.4228 9.05756 12.6425 8.99258C13.0337 8.13954 13.2958 6.32559 11.3928 5.36198C10.4596 4.88941 9.98748 4.81154 9.57341 4.74325C9.00104 4.64885 8.53957 4.57274 7.12428 3.49768C7.00375 3.4061 6.86528 3.27573 6.70943 3.12901C6.47284 2.90626 6.19618 2.64579 5.88144 2.42606Z" fill="#3A3A47"/>
<path d="M15.4884 12.9559C15.4289 12.9713 15.3687 12.9813 15.3097 12.9875C14.9578 13.0243 14.5069 12.9379 14.0666 12.8274C13.7914 12.7583 13.4943 12.6725 13.2068 12.5895C13.0316 12.5389 12.8599 12.4893 12.6989 12.4451C12.2532 12.3229 11.8852 12.2412 11.6363 12.2412C11.4061 12.2412 11.1772 12.3139 10.8996 12.4467C10.7607 12.5131 10.6157 12.5915 10.4545 12.6797L10.4063 12.706C10.2602 12.786 10.1022 12.8725 9.93269 12.959C9.16809 13.3491 8.16635 13.7412 6.63627 13.7412C5.8418 13.7412 5.19449 13.5212 4.6702 13.1053C4.39371 12.8859 4.15754 12.617 3.95343 12.3081C3.54764 14.6193 2.86061 16.4362 2.22486 17.5142C1.93364 18.008 1.89324 18.6621 2.2955 19.0706C4.09547 20.8984 8.69894 22.9562 12.6989 21.4562C16 20 16.5925 16.0401 15.4884 12.9559Z" fill="#3A3A47"/>
<path fill-rule="evenodd" clip-rule="evenodd" d="M16.5706 7.04319C16.1922 7.44546 16.2116 8.07833 16.6138 8.45674C16.9887 8.80934 17.3938 9.25158 17.7849 9.7638C18.1201 10.2028 18.7476 10.2869 19.1866 9.95178C19.6255 9.61663 19.7097 8.98909 19.3746 8.55012C18.9181 7.95231 18.4398 7.42859 17.9842 7C17.5819 6.62158 16.9491 6.64092 16.5706 7.04319ZM20.0745 11.5799C19.5474 11.7447 19.2537 12.3056 19.4185 12.8327C19.7509 13.8961 19.8535 15.0046 19.5998 16.1004C19.4752 16.6385 19.8104 17.1757 20.3485 17.3002C20.8865 17.4248 21.4237 17.0896 21.5483 16.5516C21.8983 15.0398 21.7425 13.5637 21.3274 12.2359C21.1626 11.7088 20.6016 11.4151 20.0745 11.5799ZM19.4156 18.9159C19.0119 18.5391 18.3791 18.561 18.0023 18.9648C17.6399 19.3531 17.2085 19.7417 16.6977 20.1261C16.2564 20.4582 16.1679 21.0852 16.5 21.5265C16.8321 21.9677 17.459 22.0563 17.9003 21.7242C18.4962 21.2757 19.016 20.8099 19.4645 20.3293C19.8413 19.9255 19.8194 19.2927 19.4156 18.9159Z" fill="#3A3A47"/>
</svg>
