<svg width="24" height="24" viewBox="0 0 24 24" fill="none" xmlns="http://www.w3.org/2000/svg">
<path d="M7.1229 4.63287L7.12277 4.63278C6.95918 4.50848 6.78703 4.3463 6.64845 4.21576C6.64136 4.20908 6.63437 4.20249 6.62746 4.19598C6.51273 4.08797 6.30024 3.88423 6.0971 3.68123C5.75916 3.34352 5.55412 3.18139 5.37978 3.12492C5.00237 3.00266 4.69878 3 4.41084 3C4.02069 3 3.79866 3.02828 3.68014 3.05418C3.66458 3.17255 3.65518 3.38904 3.68239 3.76425C3.71911 4.2707 3.80749 4.91366 3.92744 5.78009C4.23059 7.96994 4.47552 9.64868 4.95347 10.8003C5.00389 10.9218 5.02985 11.0521 5.02985 11.1836C5.02985 11.638 5.00927 11.8664 4.97952 12.0558C4.97466 12.0867 4.97067 12.1102 4.96741 12.1295C4.95594 12.1973 4.95343 12.2121 4.95343 12.3081C4.95343 12.3661 4.94839 12.4239 4.93836 12.481C4.5173 14.8792 3.79719 16.8167 3.08623 18.0222C3.02379 18.1281 2.99901 18.2364 3.00003 18.3107C3.0005 18.3448 3.00611 18.3628 3.00817 18.3682C3.00841 18.3688 3.00861 18.3693 3.00878 18.3697C4.67983 20.0662 7.9074 21.9872 11.6272 20.4803C13.3119 19.7978 14.1998 18.5819 14.5751 17.1918C14.9607 15.7635 14.8047 14.1286 14.3068 12.7377C14.2034 12.4489 14.2383 12.1287 14.4014 11.8689C14.3282 11.6165 14.1877 11.3061 13.9739 11.012C13.792 10.7617 13.6508 10.6191 13.5514 10.545C13.5148 10.5178 13.4913 10.5051 13.4795 10.4998C13.1931 10.4939 12.9226 10.3654 12.737 10.1464C12.5481 9.92344 12.4663 9.62913 12.5127 9.34086C12.513 9.3391 12.5133 9.33735 12.5136 9.3356L7.1229 4.63287ZM7.1229 4.63287C7.51989 4.93443 7.86697 5.1429 8.22229 5.27154M7.1229 4.63287L8.22229 5.27154M8.22229 5.27154C8.58664 5.40345 8.89851 5.42742 9.1379 5.44403M8.22229 5.27154L9.1379 5.44403M9.1379 5.44403C9.16035 5.44559 9.18308 5.44708 9.20621 5.4486M9.1379 5.44403L9.20621 5.4486M9.20621 5.4486C9.57615 5.47295 10.0472 5.50396 11.0507 5.89762L9.20621 5.4486ZM13.4703 10.4963C13.4703 10.4962 13.4714 10.4965 13.4737 10.4974C13.4715 10.4968 13.4703 10.4964 13.4703 10.4963Z" stroke="#3A3A47" stroke-width="2" stroke-linecap="round"/>
<path fill-rule="evenodd" clip-rule="evenodd" d="M16.2718 7.04307C15.8934 7.44534 15.9128 8.07821 16.315 8.45662C16.6898 8.80922 17.095 9.25146 17.4861 9.76368C17.8212 10.2027 18.4488 10.2868 18.8878 9.95166C19.3267 9.61651 19.4109 8.98897 19.0757 8.55C18.6193 7.95218 18.141 7.42846 17.6854 6.99988C17.2831 6.62146 16.6502 6.6408 16.2718 7.04307ZM19.7757 11.5797C19.2486 11.7445 18.9549 12.3054 19.1197 12.8326C19.4521 13.8959 19.5547 15.0045 19.301 16.1003C19.1764 16.6384 19.5116 17.1755 20.0496 17.3001C20.5877 17.4247 21.1249 17.0895 21.2494 16.5514C21.5995 15.0396 21.4437 13.5636 21.0285 12.2358C20.8637 11.7087 20.3028 11.4149 19.7757 11.5797ZM19.1168 18.9158C18.713 18.539 18.0803 18.5609 17.7035 18.9647C17.3411 19.353 16.9097 19.7416 16.3989 20.126C15.9576 20.4581 15.8691 21.085 16.2012 21.5263C16.5333 21.9676 17.1602 22.0561 17.6015 21.724C18.1974 21.2756 18.7172 20.8098 19.1657 20.3292C19.5425 19.9254 19.5206 19.2926 19.1168 18.9158Z" fill="#3A3A47"/>
<path d="M4.54207 3.29891L4.54207 3.29891C4.75497 3.75317 4.92091 4.46745 5.04816 5.39137C5.1513 6.14021 5.21887 6.9405 5.28566 7.7345L5.2857 7.73503C5.29912 7.89455 5.31252 8.05381 5.32608 8.21095C5.40316 9.10351 5.49331 10.0445 5.67419 10.732L5.7678 11.0878C5.845 11.3812 6.05122 11.6237 6.32842 11.747C6.60561 11.8703 6.9238 11.8611 7.19342 11.722L7.52036 11.5533C7.89775 11.3586 8.44622 11.2286 9.12003 11.1591C9.42541 11.1275 9.73329 11.1104 10.0351 11.1011C9.91474 11.1629 9.79838 11.2263 9.69175 11.2846L9.69153 11.2847L9.64319 11.3112L9.64309 11.3112C9.4948 11.3924 9.35659 11.4679 9.21005 11.5427C8.6057 11.8511 7.85242 12.1512 6.63634 12.1512C6.15768 12.1512 5.86968 12.0272 5.65839 11.8596C5.42354 11.6733 5.18197 11.3507 4.95353 10.8003C4.47559 9.64867 4.23065 7.96994 3.9275 5.78009C3.80755 4.91366 3.71918 4.2707 3.68245 3.76425L2.68507 3.83658L3.68245 3.76425C3.65525 3.38904 3.66465 3.17255 3.6802 3.05418C3.79349 3.02942 4.00136 3.00249 4.36023 3.00016C4.39455 3.03753 4.45993 3.12367 4.54207 3.29891ZM13.1195 10.9117C12.9508 10.8655 12.7597 10.8148 12.5596 10.7705C12.6543 10.7267 12.7399 10.6828 12.8189 10.642L12.819 10.642L12.8231 10.6398C12.9676 10.5653 13.0237 10.5387 13.0875 10.5191C13.1391 10.5032 13.2258 10.4835 13.3893 10.4825C13.4005 10.4855 13.4487 10.5001 13.534 10.5586C13.6578 10.6436 13.8137 10.7915 13.974 11.012C14.0166 11.0706 14.0562 11.1298 14.0931 11.1891C13.9562 11.1509 13.815 11.1101 13.6672 11.0674L13.6641 11.0665C13.4888 11.0158 13.3048 10.9626 13.1195 10.9117Z" stroke="#3A3A47" stroke-width="2"/>
</svg>
