<svg width="24" height="24" viewBox="0 0 24 24" fill="none" xmlns="http://www.w3.org/2000/svg">
<path d="M2.00015 3C2.00015 2.44772 2.44787 2 3.00015 2C3.55244 2 4.00015 2.44772 4.00015 3L4.00016 20L21.0002 20C21.5524 20 22.0002 20.4477 22.0002 21C22.0002 21.5523 21.5524 22 21.0002 22L3.00016 22C2.44787 22 2.00016 21.5523 2.00016 21L2.00015 3Z" fill="#3A3A47"/>
<path fill-rule="evenodd" clip-rule="evenodd" d="M5.75016 7.5C5.75016 6.94772 6.19787 6.5 6.75016 6.5L14.7502 6.5C15.3024 6.5 15.7502 6.94772 15.7502 7.5C15.7502 8.05229 15.3024 8.5 14.7502 8.5L6.75016 8.5C6.19787 8.5 5.75016 8.05229 5.75016 7.5Z" fill="#3A3A47"/>
<path fill-rule="evenodd" clip-rule="evenodd" d="M10.0002 16.5C10.0002 15.9477 10.4479 15.5 11.0002 15.5H17.0002C17.5524 15.5 18.0002 15.9477 18.0002 16.5C18.0002 17.0523 17.5524 17.5 17.0002 17.5H11.0002C10.4479 17.5 10.0002 17.0523 10.0002 16.5Z" fill="#3A3A47"/>
<path fill-rule="evenodd" clip-rule="evenodd" d="M8.00016 12C8.00016 11.4477 8.44787 11 9.00016 11L19.0002 11C19.5524 11 20.0002 11.4477 20.0002 12C20.0002 12.5523 19.5524 13 19.0002 13L9.00016 13C8.44787 13 8.00016 12.5523 8.00016 12Z" fill="#3A3A47"/>
</svg>
