<svg xmlns="http://www.w3.org/2000/svg" width="24" height="24" viewBox="0 0 24 24">
    <path fill="#686A75" fill-rule="evenodd" d="M6.37 18.644a2 2 0 0 1-2.687-.742l-1.025-1.748a2 2 0 0 1 .714-2.737l.023-.014.677-.384a7.754 7.754 0 0 1-.017-2.036l-.67-.384a2 2 0 0 1-.74-2.73l.009-.014 1.022-1.748a2 2 0 0 1 2.713-.73l.647.366A7.319 7.319 0 0 1 9.03 4.558l-.005-.535A2 2 0 0 1 11.002 2h2.007a2 2 0 0 1 2 2v.572c.718.307 1.371.7 1.956 1.178l.622-.36a2 2 0 0 1 2.722.71l1.037 1.747a2 2 0 0 1-.698 2.741l-.025.015-.682.39c.083.68.083 1.355.002 2.026l.67.381a2 2 0 0 1 .749 2.728l-.02.033-1.04 1.748a2 2 0 0 1-2.697.722l-.651-.365c-.646.513-1.293.901-1.945 1.161v.578a2 2 0 0 1-2 2h-.003l-2.012-.003a2 2 0 0 1-1.997-1.998c0-.193 0-.394.003-.601a7.519 7.519 0 0 1-1.957-1.128l-.672.369zm6.639 1.361v-1.304a1 1 0 0 1 .763-.972c.744-.18 1.544-.646 2.393-1.416a1 1 0 0 1 1.16-.132l1.258.705 1.04-1.748-1.275-.726a1 1 0 0 1-.483-1.076 6.426 6.426 0 0 0-.001-2.662 1 1 0 0 1 .481-1.07l1.282-.736-1.038-1.747-1.252.724a1 1 0 0 1-1.207-.157c-.665-.663-1.475-1.156-2.44-1.48a1 1 0 0 1-.681-.948V4h-1.984c.005.43.007.85.007 1.26a1 1 0 0 1-.7.954c-1.025.322-1.821.803-2.405 1.441a1 1 0 0 1-1.231.195l-1.294-.734L4.38 8.864l1.29.74a1 1 0 0 1 .47 1.127c-.195.723-.195 1.592.013 2.612a1 1 0 0 1-.486 1.07l-1.284.73 1.025 1.748 1.3-.714a1 1 0 0 1 1.203.185c.573.598 1.366 1.061 2.397 1.385a1 1 0 0 1 .7.972c-.007.46-.011.888-.01 1.283l2.01.003zM12.009 8c2.206 0 4 1.794 4 4s-1.794 4-4 4-4-1.794-4-4 1.794-4 4-4zm0 6c1.103 0 2-.897 2-2s-.897-2-2-2-2 .897-2 2 .897 2 2 2z"/>
</svg>
