<svg xmlns="http://www.w3.org/2000/svg" width="24" height="24" viewBox="0 0 24 24">
    <path fill="#686A75" fill-rule="evenodd" d="M6.37 18.644a2 2 0 0 1-2.687-.742l-1.025-1.748a2 2 0 0 1 .714-2.737l.023-.014.677-.384a7.754 7.754 0 0 1-.017-2.036l-.67-.384a2 2 0 0 1-.74-2.73l.009-.014 1.022-1.748a2 2 0 0 1 2.713-.73l.647.366A7.319 7.319 0 0 1 9.03 4.558l-.005-.535A2 2 0 0 1 11.002 2h2.007a2 2 0 0 1 2 2v.572c.718.307 1.371.7 1.956 1.178l.622-.36a2 2 0 0 1 2.722.71l1.037 1.747a2 2 0 0 1-.698 2.741l-.025.015-.682.39c.083.68.083 1.355.002 2.026l.67.381a2 2 0 0 1 .749 2.728l-.02.033-1.04 1.748a2 2 0 0 1-2.697.722l-.651-.365c-.646.513-1.293.901-1.945 1.161v.578a2 2 0 0 1-2 2h-.003l-2.012-.003a2 2 0 0 1-1.997-1.998c0-.193 0-.394.003-.601a7.519 7.519 0 0 1-1.957-1.128l-.672.369zM12.01 8c-2.206 0-4 1.794-4 4s1.794 4 4 4 4-1.794 4-4-1.794-4-4-4zm0 6c-1.103 0-2-.897-2-2s.897-2 2-2 2 .897 2 2-.897 2-2 2z"/>
</svg>
