<svg width="24" height="24" viewBox="0 0 24 24" fill="none" xmlns="http://www.w3.org/2000/svg">
<path fill-rule="evenodd" clip-rule="evenodd" d="M16.5001 2C16.9413 2.01833 17.2966 2.16733 17.566 2.44698C17.8355 2.72664 17.9802 3.07767 18.0001 3.5001V16.5001C18.0001 16.904 17.8554 17.2536 17.566 17.5488C17.2767 17.844 16.9113 17.9944 16.47 18.0001L13 18L13.0001 22.0001H11.0001L11 18L7.50008 18.0001C7.08429 18.0001 6.72962 17.8497 6.43609 17.5488C6.14255 17.2479 5.9972 16.8983 6.00004 16.5001V3.5001C6.01631 3.08108 6.16166 2.73004 6.43609 2.44698C6.71052 2.16392 7.06519 2.01493 7.50008 2H16.5001ZM11.0001 14.0001H9.00008V16.0001H11.0001V14.0001ZM15.0001 14.0001H13.0001V16.0001H15.0001V14.0001ZM16.0001 4.0001H8.00008V12.0001H16.0001V4.0001ZM12.0001 5.5001C13.3334 6.76372 14.0001 7.76372 14.0001 8.5001C14.0001 9.60467 13.1047 10.5001 12.0001 10.5001C10.8955 10.5001 10.0001 9.60467 10.0001 8.5001C10.0001 7.76372 10.6667 6.76372 12.0001 5.5001Z" fill="#3A3A47"/>
</svg>
