<svg width="24" height="24" viewBox="0 0 24 24" fill="none" xmlns="http://www.w3.org/2000/svg">
<path d="M2.00098 6.91535C2.00098 6.31455 2.38312 5.78115 2.94966 5.59116L10.3685 3.10325C10.7791 2.96558 11.2229 2.96558 11.6334 3.10325L18.6334 5.4507C19.4501 5.72457 20.001 6.49347 20.001 7.35954V16.9758L21.7673 19.0181C22.1801 19.5165 22.0231 20.2719 21.4463 20.562L21.209 20.6814C20.7925 20.8909 20.2585 21 19.7928 21H19.2092C18.7434 21 18.2841 20.8909 17.8675 20.6814L17.6303 20.562C17.0535 20.2719 16.8965 19.5165 17.3093 19.0181L19.001 16.9758V8.25674L11.6334 10.7274C11.2229 10.8651 10.7791 10.8651 10.3685 10.7274L2.94966 8.23953C2.38311 8.04954 2.00098 7.51615 2.00098 6.91535Z" fill="#24252E"/>
<path d="M4.00098 10L10.4013 12.0115C10.7917 12.1342 11.2103 12.1342 11.6006 12.0115L18.001 10V14.8667C18.001 14.8667 16.8343 17 11.001 17C5.16764 17 4.00098 14.8667 4.00098 14.8667V10Z" fill="#24252E"/>
</svg>
