<svg width="24" height="24" viewBox="0 0 24 24" fill="none" xmlns="http://www.w3.org/2000/svg">
<path d="M9.99982 9C9.99982 9.55229 9.5521 10 8.99982 10C8.44753 10 7.99982 9.55229 7.99982 9C7.99982 8.44772 8.44753 8 8.99982 8C9.5521 8 9.99982 8.44772 9.99982 9Z" fill="#3A3A47"/>
<path d="M15.9998 9C15.9998 9.55229 15.5521 10 14.9998 10C14.4475 10 13.9998 9.55229 13.9998 9C13.9998 8.44772 14.4475 8 14.9998 8C15.5521 8 15.9998 8.44772 15.9998 9Z" fill="#3A3A47"/>
<path fill-rule="evenodd" clip-rule="evenodd" d="M11.9998 20C16.4181 20 19.9998 16.4183 19.9998 12C19.9998 7.58172 16.4181 4 11.9998 4C7.58154 4 3.99982 7.58172 3.99982 12C3.99982 16.4183 7.58154 20 11.9998 20ZM11.9998 22C17.5227 22 21.9998 17.5228 21.9998 12C21.9998 6.47715 17.5227 2 11.9998 2C6.47697 2 1.99982 6.47715 1.99982 12C1.99982 17.5228 6.47697 22 11.9998 22Z" fill="#3A3A47"/>
<path fill-rule="evenodd" clip-rule="evenodd" d="M15.9998 12.5H7.99982C7.72368 12.5 7.49982 12.7239 7.49982 13V15C7.49982 15.2761 7.72368 15.5 7.99982 15.5H15.9998C16.276 15.5 16.4998 15.2761 16.4998 15V13C16.4998 12.7239 16.276 12.5 15.9998 12.5ZM7.99982 11C6.89525 11 5.99982 11.8954 5.99982 13V15C5.99982 16.1046 6.89525 17 7.99982 17H15.9998C17.1044 17 17.9998 16.1046 17.9998 15V13C17.9998 11.8954 17.1044 11 15.9998 11H7.99982Z" fill="#3A3A47"/>
<path fill-rule="evenodd" clip-rule="evenodd" d="M16.9998 14.5L6.99982 14.5V13.5L16.9998 13.5V14.5Z" fill="#3A3A47"/>
</svg>
