<svg width="24" height="24" viewBox="0 0 24 24" fill="none" xmlns="http://www.w3.org/2000/svg">
<path d="M15.9998 13.5H7.99982C7.72368 13.5 7.49982 13.7239 7.49982 14V14.5L16.4998 14.5V14C16.4998 13.7239 16.276 13.5 15.9998 13.5Z" fill="#3A3A47"/>
<path d="M7.49982 16C7.49982 16.2761 7.72368 16.5 7.99982 16.5H15.9998C16.276 16.5 16.4998 16.2761 16.4998 16V15.5L7.49982 15.5V16Z" fill="#3A3A47"/>
<path fill-rule="evenodd" clip-rule="evenodd" d="M21.9998 12C21.9998 17.5228 17.5227 22 11.9998 22C6.47697 22 1.99982 17.5228 1.99982 12C1.99982 6.47715 6.47697 2 11.9998 2C17.5227 2 21.9998 6.47715 21.9998 12ZM7.99982 12C6.89525 12 5.99982 12.8954 5.99982 14V16C5.99982 17.1046 6.89525 18 7.99982 18H15.9998C17.1044 18 17.9998 17.1046 17.9998 16V14C17.9998 12.8954 17.1044 12 15.9998 12H7.99982ZM7.49982 14C7.49982 13.7239 7.72368 13.5 7.99982 13.5H15.9998C16.276 13.5 16.4998 13.7239 16.4998 14V14.5L7.49982 14.5V14ZM7.99982 16.5C7.72368 16.5 7.49982 16.2761 7.49982 16V15.5L16.4998 15.5V16C16.4998 16.2761 16.276 16.5 15.9998 16.5H7.99982ZM9.99982 9C9.99982 9.55229 9.5521 10 8.99982 10C8.44753 10 7.99982 9.55229 7.99982 9C7.99982 8.44772 8.44753 8 8.99982 8C9.5521 8 9.99982 8.44772 9.99982 9ZM14.9998 10C15.5521 10 15.9998 9.55229 15.9998 9C15.9998 8.44772 15.5521 8 14.9998 8C14.4475 8 13.9998 8.44772 13.9998 9C13.9998 9.55229 14.4475 10 14.9998 10Z" fill="#3A3A47"/>
</svg>
