<svg width="24" height="24" viewBox="0 0 24 24" fill="none" xmlns="http://www.w3.org/2000/svg">
<path fill-rule="evenodd" clip-rule="evenodd" d="M6.79963 5.68094C6.53531 5.81473 6.30285 5.99137 6.11466 6.2C5.79212 6.55757 5.59963 7.00912 5.59963 7.5C5.59963 7.74544 5.64776 7.98105 5.7362 8.2H5.59963C4.83185 8.2 4.19038 8.67319 4.03535 9.30446C4.01195 9.39974 3.99963 9.49861 3.99963 9.6C3.99963 10.3732 4.71598 11 5.59963 11H11.9998H18.3996C19.2833 11 19.9996 10.3732 19.9996 9.6C19.9996 9.49861 19.9873 9.39974 19.9639 9.30447C19.8089 8.67319 19.1674 8.2 18.3996 8.2H18.2631C18.3515 7.98105 18.3996 7.74544 18.3996 7.5C18.3996 7.00912 18.2071 6.55757 17.8846 6.2C17.6964 5.99137 17.464 5.81473 17.1996 5.68094C16.8466 5.50226 16.4368 5.4 15.9996 5.4H15.1996C15.1996 4.6268 14.4833 4 13.5996 4H10.3996C9.51598 4 8.79963 4.6268 8.79963 5.4H7.99963C7.56249 5.4 7.15264 5.50226 6.79963 5.68094ZM18.3996 13H12.9998V14.5H20.9996C21.5519 14.5 21.9996 14.9477 21.9996 15.5C21.9996 16.0523 21.5519 16.5 20.9996 16.5H13.0096C13.231 16.9483 13.5269 17.4606 13.9088 17.9614C14.99 17.8118 16.5624 17.7785 18.0204 18.1559C18.0747 18.1387 18.1527 18.1035 18.2584 18.0376C18.4091 17.9435 18.5695 17.8176 18.7487 17.6734L18.7976 17.634L18.7976 17.6339L18.7977 17.6339C18.9539 17.5079 19.1284 17.3672 19.294 17.2576C19.4602 17.1477 19.7146 17 19.9996 17C20.2758 17 20.4996 17.2239 20.4996 17.5C20.4996 17.7722 20.2821 17.9936 20.0115 17.9999C20.0115 17.9999 19.9634 18.0138 19.8459 18.0916C19.7218 18.1737 19.5847 18.2841 19.4183 18.4181L19.3756 18.4525C19.3338 18.4861 19.2904 18.5209 19.2457 18.5562C19.5958 18.6958 19.9482 18.8613 20.2808 19.0566C20.9733 19.4634 21.6268 20.0275 21.9592 20.803C22.068 21.0569 21.9504 21.3508 21.6966 21.4596C21.4428 21.5683 21.1488 21.4508 21.0401 21.197C20.8252 20.6957 20.373 20.2705 19.7743 19.9189C19.1803 19.57 18.4877 19.3204 17.8672 19.15C16.821 18.8627 15.6758 18.8183 14.7424 18.8812C15.1633 19.268 15.649 19.6095 16.2065 19.8629C16.4579 19.9772 16.5691 20.2736 16.4548 20.525C16.3405 20.7764 16.0441 20.8876 15.7927 20.7733C14.7446 20.2969 13.9304 19.5704 13.3114 18.8176C12.6725 18.0406 12.2324 17.2246 11.9493 16.5958C11.8554 16.7795 11.751 16.9763 11.638 17.1775C11.3944 17.6117 11.1058 18.0768 10.7936 18.4775C10.5805 18.7511 10.338 19.019 10.0727 19.2242C10.0847 19.2411 10.0983 19.2583 10.1136 19.2762C10.1944 19.3704 10.2925 19.4507 10.4331 19.5658C10.4747 19.5999 10.52 19.637 10.5697 19.6784C10.7662 19.8421 11.0054 20.056 11.1901 20.3535C11.3809 20.661 11.4996 21.0339 11.4996 21.5C11.4996 21.7761 11.2758 22 10.9996 22C10.7235 22 10.4996 21.7761 10.4996 21.5C10.4996 21.2161 10.4308 21.0265 10.3404 20.8809C10.2439 20.7253 10.1081 20.5954 9.92955 20.4466C9.90133 20.4231 9.87042 20.398 9.83766 20.3713L9.83713 20.3709L9.83655 20.3704L9.8365 20.3704C9.68681 20.2485 9.49893 20.0956 9.35438 19.927C9.28617 19.8474 9.22302 19.76 9.16949 19.6635C8.85721 19.7645 8.48115 19.8616 8.09384 19.9359C7.47242 20.0551 6.73256 20.1337 6.1206 20.0354C6.10663 20.0444 6.09299 20.0529 6.07984 20.061C5.98886 20.1169 5.88472 20.1738 5.78427 20.2281L5.74018 20.2519C5.54444 20.3575 5.34395 20.4658 5.15301 20.5937C4.72655 20.8796 4.49963 21.1635 4.49963 21.5C4.49963 21.7761 4.27578 22 3.99963 22C3.72349 22 3.49963 21.7761 3.49963 21.5C3.49963 20.6421 4.0982 20.0987 4.58669 19.7695C3.89816 19.6056 3.04464 19.2521 2.14608 18.3536C1.95082 18.1583 1.95082 17.8417 2.14608 17.6464C2.34134 17.4512 2.65792 17.4512 2.85319 17.6464C3.89359 18.6869 4.69673 18.7948 5.43449 18.894L5.43453 18.894C5.67012 18.9257 5.89904 18.9565 6.12688 19.0165C6.25824 19.051 6.41398 19.0707 6.58673 19.0774C6.25042 18.6675 5.99963 18.122 5.99963 17.5C5.99963 17.2239 6.22349 17 6.49963 17C6.77578 17 6.99963 17.2239 6.99963 17.5C6.99963 17.8583 7.14941 18.1964 7.38039 18.4677C7.58436 18.7074 7.82458 18.8634 8.01922 18.9312C8.59348 18.813 9.07341 18.6541 9.276 18.5528C9.47534 18.4531 9.7264 18.2202 10.0047 17.863C10.2744 17.5168 10.5353 17.0991 10.7659 16.6882C10.8014 16.6249 10.836 16.5621 10.8697 16.5H2.99976C2.44748 16.5 1.99976 16.0523 1.99976 15.5C1.99976 14.9477 2.44748 14.5 2.99976 14.5H10.9998V13H5.59963C3.87062 13 1.99963 11.7203 1.99963 9.6C1.99963 8.28783 2.71621 7.29759 3.67225 6.73338C4.03454 4.86705 5.69879 3.64692 7.45112 3.43351C8.14829 2.51524 9.30254 2 10.3996 2H13.5996C14.6967 2 15.851 2.51523 16.5481 3.43351C18.3005 3.64692 19.9647 4.86705 20.327 6.73337C21.2831 7.29759 21.9996 8.28783 21.9996 9.6C21.9996 11.7203 20.1287 13 18.3996 13ZM10 8C10.5523 8 11 7.55228 11 7C11 6.44771 10.5523 6 10 6C9.44774 6 9.00002 6.44771 9.00002 7C9.00002 7.55228 9.44774 8 10 8ZM8.00003 10C8.55231 10 9.00003 9.55228 9.00003 9C9.00003 8.44771 8.55231 8 8.00003 8C7.44774 8 7.00003 8.44771 7.00003 9C7.00003 9.55228 7.44774 10 8.00003 10ZM15 7C15 7.55228 14.5523 8 14 8C13.4477 8 13 7.55228 13 7C13 6.44771 13.4477 6 14 6C14.5523 6 15 6.44771 15 7ZM16 10C16.5523 10 17 9.55228 17 9C17 8.44771 16.5523 8 16 8C15.4477 8 15 8.44771 15 9C15 9.55228 15.4477 10 16 10ZM13 9C13 9.55228 12.5523 10 12 10C11.4477 10 11 9.55228 11 9C11 8.44771 11.4477 8 12 8C12.5523 8 13 8.44771 13 9Z" fill="#3A3A47"/>
</svg>
