<svg width="24" height="24" viewBox="0 0 24 24" fill="none" xmlns="http://www.w3.org/2000/svg">
<path fill-rule="evenodd" clip-rule="evenodd" d="M7.45112 3.43351C5.69879 3.64692 4.03454 4.86705 3.67225 6.73338C2.71621 7.29759 1.99963 8.28783 1.99963 9.6C1.99963 11.7203 3.87062 13 5.59963 13H10.9998V14.5H2.99976C2.44748 14.5 1.99976 14.9477 1.99976 15.5C1.99976 16.0523 2.44748 16.5 2.99976 16.5H10.8697C10.836 16.5621 10.8014 16.6249 10.7659 16.6882C10.5353 17.0991 10.2744 17.5168 10.0047 17.863C9.7264 18.2202 9.47534 18.4531 9.276 18.5528C9.07341 18.6541 8.59348 18.813 8.01922 18.9312C7.82458 18.8634 7.58436 18.7074 7.38039 18.4677C7.14941 18.1964 6.99963 17.8583 6.99963 17.5C6.99963 17.2239 6.77578 17 6.49963 17C6.22349 17 5.99963 17.2239 5.99963 17.5C5.99963 18.122 6.25042 18.6675 6.58673 19.0774C6.41398 19.0707 6.25824 19.051 6.12688 19.0165C5.89904 18.9565 5.67012 18.9257 5.43453 18.894L5.43449 18.894C4.69673 18.7948 3.89359 18.6869 2.85319 17.6464C2.65792 17.4512 2.34134 17.4512 2.14608 17.6464C1.95082 17.8417 1.95082 18.1583 2.14608 18.3536C3.04464 19.2521 3.89816 19.6056 4.58669 19.7695C4.0982 20.0987 3.49963 20.6421 3.49963 21.5C3.49963 21.7761 3.72349 22 3.99963 22C4.27578 22 4.49963 21.7761 4.49963 21.5C4.49963 21.1635 4.72655 20.8796 5.15301 20.5937C5.34395 20.4658 5.54444 20.3575 5.74018 20.2519L5.78427 20.2281C5.88472 20.1738 5.98886 20.1169 6.07984 20.061C6.09299 20.0529 6.10663 20.0444 6.1206 20.0354C6.73256 20.1337 7.47242 20.0551 8.09384 19.9359C8.48115 19.8616 8.85721 19.7645 9.16949 19.6635C9.22302 19.76 9.28617 19.8474 9.35438 19.927C9.49893 20.0956 9.68681 20.2485 9.8365 20.3704L9.83655 20.3704L9.83713 20.3709L9.83766 20.3713C9.87042 20.398 9.90133 20.4231 9.92955 20.4466C10.1081 20.5954 10.2439 20.7253 10.3404 20.8809C10.4308 21.0265 10.4996 21.2161 10.4996 21.5C10.4996 21.7761 10.7235 22 10.9996 22C11.2758 22 11.4996 21.7761 11.4996 21.5C11.4996 21.0339 11.3809 20.661 11.1901 20.3535C11.0054 20.056 10.7662 19.8421 10.5697 19.6784C10.52 19.637 10.4747 19.5999 10.4331 19.5658C10.2925 19.4507 10.1944 19.3704 10.1136 19.2762C10.0983 19.2583 10.0847 19.2411 10.0727 19.2242C10.338 19.019 10.5805 18.7511 10.7936 18.4775C11.1058 18.0768 11.3944 17.6117 11.638 17.1775C11.751 16.9763 11.8554 16.7795 11.9493 16.5958C12.2324 17.2246 12.6725 18.0406 13.3114 18.8176C13.9304 19.5704 14.7446 20.2969 15.7927 20.7733C16.0441 20.8876 16.3405 20.7764 16.4548 20.525C16.5691 20.2736 16.4579 19.9772 16.2065 19.8629C15.649 19.6095 15.1633 19.268 14.7424 18.8812C15.6758 18.8183 16.821 18.8627 17.8672 19.15C18.4877 19.3204 19.1803 19.57 19.7743 19.9189C20.373 20.2705 20.8252 20.6957 21.0401 21.197C21.1488 21.4508 21.4428 21.5683 21.6966 21.4596C21.9504 21.3508 22.068 21.0569 21.9592 20.803C21.6268 20.0275 20.9733 19.4634 20.2808 19.0566C19.9482 18.8613 19.5958 18.6958 19.2457 18.5562C19.2904 18.5209 19.3338 18.4861 19.3756 18.4525L19.4183 18.4181C19.5847 18.2841 19.7218 18.1737 19.8459 18.0916C19.9634 18.0138 20.0115 17.9999 20.0115 17.9999C20.2821 17.9936 20.4996 17.7722 20.4996 17.5C20.4996 17.2239 20.2758 17 19.9996 17C19.7146 17 19.4602 17.1477 19.294 17.2576C19.1284 17.3672 18.9539 17.5079 18.7977 17.6339L18.7976 17.6339L18.7976 17.634L18.7487 17.6734C18.5695 17.8176 18.4091 17.9435 18.2584 18.0376C18.1527 18.1035 18.0747 18.1387 18.0204 18.1559C16.5624 17.7785 14.99 17.8118 13.9088 17.9614C13.5269 17.4606 13.231 16.9483 13.0096 16.5H20.9996C21.5519 16.5 21.9996 16.0523 21.9996 15.5C21.9996 14.9477 21.5519 14.5 20.9996 14.5H12.9998V13H18.3996C20.1287 13 21.9996 11.7203 21.9996 9.6C21.9996 8.28783 21.2831 7.29759 20.327 6.73337C19.9647 4.86705 18.3005 3.64692 16.5481 3.43351C15.851 2.51523 14.6967 2 13.5996 2H10.3996C9.30254 2 8.14829 2.51524 7.45112 3.43351ZM10.0001 8C10.5524 8 11.0001 7.55228 11.0001 7C11.0001 6.44772 10.5524 6 10.0001 6C9.44784 6 9.00012 6.44772 9.00012 7C9.00012 7.55228 9.44784 8 10.0001 8ZM8.00012 10C8.55241 10 9.00012 9.55228 9.00012 9C9.00012 8.44772 8.55241 8 8.00012 8C7.44784 8 7.00012 8.44772 7.00012 9C7.00012 9.55228 7.44784 10 8.00012 10ZM14.0001 8C14.5524 8 15.0001 7.55228 15.0001 7C15.0001 6.44772 14.5524 6 14.0001 6C13.4478 6 13.0001 6.44772 13.0001 7C13.0001 7.55228 13.4478 8 14.0001 8ZM16.0001 10C16.5524 10 17.0001 9.55228 17.0001 9C17.0001 8.44772 16.5524 8 16.0001 8C15.4478 8 15.0001 8.44772 15.0001 9C15.0001 9.55228 15.4478 10 16.0001 10ZM12.0001 10C12.5524 10 13.0001 9.55228 13.0001 9C13.0001 8.44772 12.5524 8 12.0001 8C11.4478 8 11.0001 8.44772 11.0001 9C11.0001 9.55228 11.4478 10 12.0001 10Z" fill="#3A3A47"/>
</svg>
