<svg width="24" height="24" viewBox="0 0 24 24" fill="none" xmlns="http://www.w3.org/2000/svg">
<path fill-rule="evenodd" clip-rule="evenodd" d="M21.9999 3.80446C21.9999 3.01902 21.136 2.54018 20.4699 2.95646L18.5155 4.17795C18.0677 4.06183 17.6169 3.94287 17.1641 3.82337C13.7683 2.9273 10.2545 2.00012 7 2.00012C4.23858 2.00012 2 4.2387 2 7.00013C2 9.44791 3.75893 11.4849 6.08179 11.916L8.05117 20.45C8.29954 21.5263 9.37339 22.1974 10.4497 21.9491C11.526 21.7007 12.1971 20.6268 11.9487 19.5506L10.1493 11.7529C12.4622 11.4176 14.8406 10.79 17.1639 10.1769C17.6168 10.0574 18.0676 9.93848 18.5153 9.82236L20.4699 11.044C21.136 11.4603 21.9999 10.9814 21.9999 10.196V3.80446ZM6.99993 9.00024C8.1045 9.00024 8.99993 8.10481 8.99993 7.00024C8.99993 5.89566 8.1045 5.00023 6.99993 5.00023C5.89536 5.00023 4.99993 5.89566 4.99993 7.00024C4.99993 8.10481 5.89536 9.00024 6.99993 9.00024Z" fill="#3A3A47"/>
</svg>
