<svg width="24" height="24" viewBox="0 0 24 24" fill="none" xmlns="http://www.w3.org/2000/svg">
<path d="M9.3002 7.50036C9.3002 8.49445 8.49433 9.30033 7.50024 9.30033C6.50615 9.30033 5.70028 8.49445 5.70028 7.50036C5.70028 6.50627 6.50615 5.7004 7.50024 5.7004C8.49433 5.7004 9.3002 6.50627 9.3002 7.50036Z" fill="#3A3A47"/>
<path fill-rule="evenodd" clip-rule="evenodd" d="M2.1001 7.50011C2.1001 4.51783 4.51771 2.10022 7.49999 2.10022C10.5461 2.10022 13.8019 2.9594 16.8121 3.75373L16.877 3.77086C17.1583 3.8451 17.4377 3.91883 17.7155 3.99154L19.1457 3.0977C20.3446 2.34841 21.8996 3.21031 21.8996 4.62407V10.3763C21.8996 11.7901 20.3446 12.652 19.1457 11.9027L17.7154 11.0087C17.4376 11.0814 17.1582 11.1551 16.877 11.2294L16.8509 11.2362C15.0892 11.7011 13.2491 12.1867 11.4274 12.5118L12.8307 18.5927C13.166 20.0457 12.26 21.4953 10.807 21.8306C9.35405 22.1659 7.90439 21.2599 7.56909 19.8069L5.92101 12.6652C3.70905 11.9897 2.1001 9.93361 2.1001 7.50011ZM7.49999 3.90018C5.5118 3.90018 3.90006 5.51193 3.90006 7.50011C3.90006 9.26151 5.16598 10.7291 6.83789 11.0394L7.41794 11.1471L9.32296 19.4022C9.43473 19.8865 9.91795 20.1885 10.4023 20.0768C10.8866 19.965 11.1886 19.4818 11.0768 18.9975L9.23752 11.0271L10.2052 10.8868C12.2269 10.5938 14.3168 10.0433 16.4177 9.48897C16.8248 9.38155 17.2327 9.27393 17.6377 9.1689L18.0124 9.07173L20.0997 10.3763V4.62407L18.0125 5.92854L17.6379 5.83137C17.233 5.72638 16.8256 5.61889 16.4187 5.51151C13.3345 4.69768 10.29 3.90018 7.49999 3.90018Z" fill="#3A3A47"/>
</svg>
