<svg xmlns="http://www.w3.org/2000/svg" xmlns:xlink="http://www.w3.org/1999/xlink" width="24" height="24" viewBox="0 0 24 24">
    <defs>
        <path id="a" d="M1 10h14c.667 0 1 .332 1 1 0 .62-.287.952-.862.995L15 12H1c-.667 0-1-.333-1-1 0-.619.287-.95.862-.995L1 10h14zm14-5c.667 0 1 .333 1 1s-.333 1-1 1H1c-.667 0-1-.334-1-1.002C0 5.329.333 4.997 1 5zM1 0h14c.667 0 1 .333 1 1 0 .619-.287.95-.862.995L15 2H1c-.667 0-1-.333-1-1C0 .381.287.05.862.005L1 0h14z"/>
    </defs>
    <use fill="#3A3A47" fill-rule="evenodd" transform="translate(4 6)" xlink:href="#a"/>
</svg>
