<svg width="24" height="24" viewBox="0 0 24 24" fill="none" xmlns="http://www.w3.org/2000/svg">
<path d="M16.7706 3.72098C13.6427 1.28006 9.71471 1.61191 7.0589 3.61145C5.34184 4.90422 4.16613 6.88071 4.01634 9.21779L6.00446 9.5C6.07401 7.66389 6.98371 6.17154 8.26186 5.20923C10.2779 3.69138 13.2376 3.45786 15.6012 5.34589L16.7706 3.72098Z" fill="#3A3A47"/>
<path d="M18.8045 5.40597C19.1325 5.85025 19.0383 6.47637 18.5941 6.80444C18.309 7.01492 18.0295 7.21812 17.7545 7.41429C17.3049 7.73504 16.6804 7.6306 16.3597 7.181C16.0389 6.73141 16.1434 6.10692 16.593 5.78616C16.8581 5.59702 17.1287 5.40029 17.406 5.19556C17.8503 4.86748 18.4764 4.96169 18.8045 5.40597Z" fill="#3A3A47"/>
<path d="M15.4776 7.77389C15.7607 8.2481 15.6058 8.86202 15.1316 9.14511C14.5081 9.51731 13.8909 9.8541 13.2651 10.1596C12.7688 10.4019 12.1701 10.196 11.9278 9.69969C11.6855 9.2034 11.8914 8.60465 12.3877 8.36235C12.9582 8.08381 13.5261 7.77425 14.1064 7.42783C14.5806 7.14474 15.1945 7.29967 15.4776 7.77389Z" fill="#3A3A47"/>
<path d="M10.9401 10.0954C11.1087 10.6214 10.819 11.1844 10.2931 11.353C9.63999 11.5623 8.96254 11.7479 8.24809 11.9147C7.71026 12.0403 7.17248 11.7061 7.04691 11.1683C6.92134 10.6305 7.25554 10.0927 7.79336 9.96711C8.46025 9.81141 9.08542 9.63983 9.68261 9.44841C10.2085 9.27983 10.7715 9.56952 10.9401 10.0954Z" fill="#3A3A47"/>
<path d="M6.00122 11.3563C6.0831 11.9025 5.70671 12.4117 5.16053 12.4936C4.82628 12.5437 4.48334 12.5918 4.13091 12.6383C3.58337 12.7105 3.08094 12.3252 3.0087 11.7777C2.93647 11.2302 3.32178 10.7277 3.86932 10.6555C4.21106 10.6104 4.54232 10.5639 4.86401 10.5157C5.41019 10.4338 5.91934 10.8102 6.00122 11.3563Z" fill="#3A3A47"/>
<path d="M19.5001 8C19.5657 8.57528 19.6835 9.71509 19.7158 10.0479C19.7651 10.5558 19.7938 10.8513 19.8573 11.1477C19.9456 11.5596 20.1008 11.9353 20.6399 13.0209C20.7435 13.2296 20.8089 13.4759 20.7915 13.7461C20.7741 14.0151 20.6792 14.2385 20.569 14.4096C20.3752 14.7105 20.0876 14.9127 19.9462 15.0118C19.8768 15.0604 19.8206 15.0986 19.7727 15.1313C19.6805 15.194 19.6187 15.236 19.5512 15.2922C19.5306 15.3093 19.5163 15.3225 19.5069 15.3317C19.4897 15.3905 19.463 15.5001 19.4269 15.6812C19.3997 15.8174 19.3734 15.9608 19.3441 16.1206L19.3438 16.1221C19.3252 16.2238 19.3053 16.3321 19.2832 16.4494C19.1773 17.0123 19.0314 17.7257 18.7969 18.3262C18.3897 19.3693 17.3508 19.6818 16.605 19.6818H14.1407L13.3779 21.9775L7.86099 21.992C7.46191 21.993 7.04202 21.9591 6.67594 21.8091C6.24459 21.6324 5.89982 21.2962 5.76421 20.8045C5.65376 20.4039 5.71557 20.0047 5.77684 19.7225C5.84229 19.4212 5.94979 19.0807 6.05547 18.7477C6.27438 18.058 6.26228 16.5918 4.89834 13.6131L6.71676 12.7805C8.13171 15.8705 8.41496 17.9249 7.96175 19.3528C7.87727 19.619 7.81344 19.8242 7.76917 19.9913C7.79632 19.9918 7.82515 19.9921 7.85574 19.992L11.9337 19.9813L12.2478 19.0358C11.9184 18.6885 11.7036 18.2838 11.5657 17.9246C11.3434 17.3458 11.2692 16.7584 11.2692 16.3635H13.2692C13.2692 16.5482 13.3101 16.8881 13.4327 17.2076C13.5175 17.4282 13.618 17.5818 13.7218 17.6818H16.605C16.7455 17.6818 16.8458 17.6519 16.8987 17.6241C16.9226 17.6116 16.9328 17.6011 16.9328 17.6011L16.9339 17.5988C17.0925 17.1925 17.2106 16.6486 17.3177 16.0794C17.3358 15.9833 17.3542 15.8834 17.3725 15.7839C17.4043 15.6106 17.4359 15.4385 17.4654 15.2903C17.5101 15.0662 17.5673 14.8026 17.647 14.5905C17.7973 14.1901 18.0727 13.9204 18.2726 13.7543C18.3889 13.6576 18.5274 13.5597 18.6383 13.4835C18.2463 12.6781 18.029 12.1605 17.9017 11.5667C17.8153 11.1636 17.7695 10.6989 17.7076 10.072C17.6753 9.74456 17.6387 9.37283 17.5896 8.94247L19.5001 8Z" fill="#3A3A47"/>
</svg>
