<svg width="24" height="24" viewBox="0 0 24 24" fill="none" xmlns="http://www.w3.org/2000/svg">
<path fill-rule="evenodd" clip-rule="evenodd" d="M11 4C8.23858 4 6 6.23858 6 9C7.10457 9 8.00049 9.89543 8.00049 11V15C8.00049 16.1046 7.105 17 6.00043 17C4.89591 17 4.00043 16.1046 4.00037 15.0001L4 9C4 5.13401 7.13401 2 11 2H13C16.866 2 20 5.13401 20 9V14V15.5005C20 16.3286 19.3286 17 18.5005 17V20C18.5005 20.5523 18.0528 21 17.5005 21H15.0005C15.0005 21.5523 14.5528 22 14.0005 22H11.0005C10.4482 22 10.0005 21.5523 10.0005 21V20C10.0005 19.4477 10.4482 19 11.0005 19H14.0005C14.5528 19 15.0005 19.4477 15.0005 20H17.5005V17C16.6721 17 16.0005 16.3284 16.0005 15.5V10.9995C16.0005 9.89521 16.8957 9 18 9C18 6.23858 15.7614 4 13 4H11Z" fill="#24252E"/>
</svg>
