<svg width="24" height="24" viewBox="0 0 24 24" fill="none" xmlns="http://www.w3.org/2000/svg">
<path d="M7.05893 3.61145C9.7371 1.59508 13.7089 1.27459 16.8495 3.78322L16.8938 3.81838C16.9845 3.89088 17.2694 4.12649 17.6228 4.51494C15.4971 6.02072 13.7121 7.06851 11.833 7.84852C9.67063 8.74613 7.29173 9.32691 4.00028 9.77277C3.98552 7.19415 5.20754 5.00536 7.05893 3.61145Z" fill="#3A3A47"/>
<path d="M13.3666 11.5429C15.4564 10.6754 17.3837 9.55329 19.4786 8.09911C19.5194 8.2983 19.5526 8.50389 19.5767 8.71579C19.6424 9.29106 19.6835 9.71508 19.7158 10.0479C19.7651 10.5558 19.7938 10.8513 19.8573 11.1477C19.9456 11.5596 20.1008 11.9353 20.6399 13.0209C20.7435 13.2296 20.8089 13.4759 20.7915 13.7461C20.7741 14.0151 20.6792 14.2385 20.569 14.4096C20.3752 14.7105 20.0876 14.9127 19.9463 15.0118C19.8768 15.0604 19.8207 15.0986 19.7727 15.1313C19.6806 15.1939 19.6187 15.236 19.5512 15.2922C19.5306 15.3093 19.5164 15.3225 19.507 15.3317C19.4897 15.3905 19.463 15.5001 19.4269 15.6812C19.3998 15.8174 19.3735 15.9608 19.3441 16.1206C19.3254 16.2227 19.3054 16.3315 19.2833 16.4494C19.1773 17.0123 19.0315 17.7257 18.797 18.3262C18.3897 19.3693 17.3508 19.6818 16.605 19.6818H14.1407L13.3779 21.9775L7.86102 21.992C7.46194 21.993 7.04205 21.9591 6.67598 21.8091C6.24462 21.6324 5.89986 21.2962 5.76425 20.8045C5.65379 20.4039 5.7156 20.0047 5.77688 19.7225C5.84233 19.4212 5.94982 19.0807 6.0555 18.7477C6.27271 18.0634 6.26249 16.6145 4.92988 13.6822C8.24076 13.2136 10.8764 12.5765 13.3666 11.5429Z" fill="#3A3A47"/>
<path d="M18.6115 6.79139C19.0485 6.45377 19.1292 5.82575 18.7915 5.38868C18.4539 4.95161 17.8259 4.87099 17.3888 5.20861C17.1136 5.42118 16.845 5.62551 16.5816 5.82207C16.139 6.15244 16.0481 6.77904 16.3785 7.22161C16.7088 7.66419 17.3354 7.75516 17.778 7.42479C18.0511 7.22094 18.3286 7.0099 18.6115 6.79139Z" fill="#3A3A47"/>
<path d="M15.1696 9.22699C15.6378 8.93396 15.7797 8.31692 15.4867 7.84878C15.1937 7.38064 14.5766 7.23868 14.1085 7.5317C13.5308 7.89332 12.9643 8.21763 12.3942 8.51088C11.903 8.76347 11.7096 9.36638 11.9622 9.85751C12.2148 10.3487 12.8177 10.542 13.3089 10.2894C13.9338 9.96805 14.5491 9.61541 15.1696 9.22699Z" fill="#3A3A47"/>
<path d="M10.3376 11.5554C10.8598 11.3757 11.1375 10.8067 10.9578 10.2844C10.7781 9.7622 10.2091 9.48451 9.68689 9.6642C9.08851 9.87008 8.46122 10.0568 7.79129 10.2287C7.25633 10.366 6.93393 10.9109 7.07119 11.4459C7.20845 11.9808 7.75339 12.3032 8.28834 12.166C9.00519 11.982 9.68406 11.7802 10.3376 11.5554Z" fill="#3A3A47"/>
<path d="M5.18839 12.8187C5.73258 12.7245 6.09739 12.207 6.0032 11.6628C5.90902 11.1186 5.39151 10.7538 4.84731 10.848C4.52381 10.904 4.19062 10.9585 3.84684 11.0118C3.30108 11.0965 2.9273 11.6075 3.01196 12.1533C3.09663 12.6991 3.60769 13.0728 4.15345 12.9882C4.50778 12.9332 4.8525 12.8768 5.18839 12.8187Z" fill="#3A3A47"/>
</svg>
