<svg width="24" height="24" viewBox="0 0 24 24" fill="none" xmlns="http://www.w3.org/2000/svg">
<path d="M20 4.0331V5.41604C20.7963 5.76394 21.4844 6.31322 22 6.99951V4.0331C22 2.7111 21.347 2.0451 20.04 2.0351C11.4767 1.96709 6.28276 2.01584 4.45659 2.03297C4.26877 2.03474 4.11657 2.03616 4 2.0371C2.667 2.0461 2 2.7111 2 4.0331V16.0101C2 17.3421 2.671 18.0071 4.014 18.0071H9L8 20.0041H7C6.333 20.0041 6 20.3361 6 21.0021C6 21.6671 6.333 22.0001 7 22.0001H14.9996C14.3145 21.4853 13.7658 20.7987 13.4178 20.0041H10L11 18.0071H13V17.9C11.7845 17.6532 10.729 16.9655 10.008 16.0111H4V4.0331H20Z" fill="#3A3A47"/>
<path d="M15 16.0111V16H14C12.3431 16 11 14.6569 11 13V10C11 8.34315 12.3431 7 14 7C14.5523 7 15 7.44772 15 8C15 8.55228 14.5523 9 14 9C13.4477 9 13 9.44772 13 10V13C13 13.5523 13.4477 14 14 14H18C18.5523 14 19 13.5523 19 13V10C19 9.44772 18.5523 9 18 9C17.4477 9 17 8.55228 17 8C17 7.44772 17.4477 7 18 7C18.7684 7 19.4692 7.28885 20 7.76389C20.6137 8.31321 21 9.1115 21 10V13C21 13.8885 20.6137 14.6868 20 15.2361C19.4692 15.7111 18.7684 16 18 16H17V18C17 18.0022 17 18.0045 17 18.0067C17.0036 18.5559 17.4499 19 18 19H18.2676C18.5886 18.4451 19.1686 18.0587 19.8423 18.0061C19.8943 18.0021 19.9469 18 20 18C20.0428 18 20.0853 18.0013 20.1275 18.004C21.1727 18.0698 22 18.9383 22 20C22 21.1046 21.1046 22 20 22C19.2597 22 18.6134 21.5978 18.2676 21H18C16.3455 21 15.0038 19.6607 15 18.0071" fill="#3A3A47"/>
<path d="M15 18V16.0111V18Z" fill="#3A3A47"/>
</svg>
