<svg width="24" height="24" viewBox="0 0 24 24" fill="none" xmlns="http://www.w3.org/2000/svg">
<path d="M9 18.0071H4.014C2.671 18.0071 2 17.3421 2 16.0101V14.0151H9.10311C9.50564 15.9671 11.0459 17.5033 13 17.9V18C13 19.6351 13.7848 21.0868 14.9983 21.9991H7C6.333 21.9991 6 21.6661 6 21.0011C6 20.3351 6.333 20.0031 7 20.0031H8L9 18.0071Z" fill="#3A3A47"/>
<path d="M2 12.0181H9V10C9 7.23858 11.2386 5 14 5C14.7684 5 15.4692 5.28885 16 5.76389C16.5308 5.28885 17.2316 5 18 5C19.6356 5 21.0878 5.78534 22 6.99951V4.0331C22 2.7111 21.347 2.0451 20.04 2.0351C11.4767 1.96709 6.28276 2.01584 4.45659 2.03297C4.26877 2.03474 4.11657 2.03616 4 2.0371C2.667 2.0461 2 2.7111 2 4.0331V12.0181Z" fill="#3A3A47"/>
<path d="M11.1761 14.0151C11.5922 15.1724 12.6994 16 14 16H15V17.5V18.0061C15.0033 19.6601 16.3452 21 18 21H18.2676C18.6134 21.5978 19.2597 22 20 22C21.1046 22 22 21.1046 22 20C22 18.9383 21.1727 18.0698 20.1275 18.004C20.0853 18.0013 20.0428 18 20 18C19.947 18 19.8946 18.0021 19.8427 18.0061C19.1688 18.0585 18.5886 18.445 18.2676 19H18C17.4497 19 17.0033 18.5555 17 18.0061L17 18V16H18C19.3006 16 20.4078 15.1724 20.8239 14.0151C20.9379 13.6981 21 13.3563 21 13V10C21 8.34315 19.6569 7 18 7C17.4477 7 17 7.44772 17 8C17 8.55228 17.4477 9 18 9C18.5523 9 19 9.44771 19 10V13C19 13.5523 18.5523 14 18 14H14C13.4477 14 13 13.5523 13 13V10C13 9.44772 13.4477 9 14 9C14.5523 9 15 8.55228 15 8C15 7.44772 14.5523 7 14 7C12.3431 7 11 8.34315 11 10V13C11 13.3563 11.0621 13.6981 11.1761 14.0151Z" fill="#3A3A47"/>
</svg>
