<svg width="24" height="24" viewBox="0 0 24 24" fill="none" xmlns="http://www.w3.org/2000/svg">
<path fill-rule="evenodd" clip-rule="evenodd" d="M13.9937 7.80062C12.8192 7.80062 11.8671 8.74069 11.8671 9.90031V10.4252H12.9304C16.2511 10.4252 17.3616 14.9513 14.4315 16.4942C13.9695 16.7375 13.454 16.7243 12.9304 16.7243H12.3987C11.8115 16.7243 11.3354 16.2543 11.3354 15.6745C11.3354 15.0946 11.8115 14.6246 12.3987 14.6246H12.9304C13.1049 14.6246 13.2768 14.5822 13.4308 14.5011C14.4074 13.9868 14.0373 12.5249 12.9304 12.5249H10.8038C10.2166 12.5249 9.74051 12.0549 9.74051 11.4751V9.90031C9.74051 7.58106 11.6447 5.70094 13.9937 5.70094C15.8472 5.70094 17.4212 6.871 18.0045 8.50061C18.2002 9.04728 17.91 9.64708 17.3564 9.8403C16.8027 10.0335 16.1952 9.747 15.9995 9.20033C15.7071 8.3834 14.9179 7.80062 13.9937 7.80062Z" fill="#3A3A47"/>
<path fill-rule="evenodd" clip-rule="evenodd" d="M1.73406 8.29323C2.04575 7.986 2.55068 7.98643 2.86185 8.29418C3.69483 9.11804 4.15823 10.5241 4.15823 12C4.15823 13.4759 3.69483 14.882 2.86185 15.7058C2.55068 16.0136 2.04575 16.014 1.73406 15.7068C1.42236 15.3995 1.42193 14.901 1.73309 14.5932C2.17138 14.1598 2.56329 13.2157 2.56329 12C2.56329 10.7843 2.17138 9.84024 1.73309 9.40676C1.42193 9.099 1.42236 8.60046 1.73406 8.29323Z" fill="#3A3A47"/>
<path fill-rule="evenodd" clip-rule="evenodd" d="M3.78181 6.28402C4.04289 5.93381 4.54208 5.85888 4.89679 6.11666C6.42723 7.22892 7.3481 9.52249 7.3481 12C7.3481 14.4775 6.42723 16.7711 4.89678 17.8833C4.54208 18.1411 4.04289 18.0662 3.78181 17.716C3.52072 17.3658 3.59661 16.8729 3.95132 16.6151C4.93088 15.9032 5.75316 14.182 5.75316 12C5.75316 9.81804 4.93088 8.09681 3.95132 7.3849C3.59661 7.12712 3.52072 6.63424 3.78181 6.28402Z" fill="#3A3A47"/>
<path d="M20.3257 4.27158C18.8709 2.63514 16.7229 1.50155 13.9937 1.50155C11.8403 1.50155 10.0488 2.2436 8.6741 3.31831C8.41834 3.52139 8.1684 3.74263 7.92535 3.9826C7.51011 4.39259 7.51011 5.05731 7.92535 5.4673C8.13218 5.67151 8.40302 5.77401 8.6741 5.77479C8.94726 5.77557 9.22066 5.67308 9.42908 5.4673C10.7641 4.14913 12.3978 3.58795 13.9937 3.62225C18.0389 3.62225 20.3735 6.94366 20.373 9.90187C20.373 11.1992 19.7842 12.146 19.2731 12.9679C18.9754 13.4467 18.704 13.8831 18.5907 14.3218C18.4352 14.9239 18.412 15.4949 18.3904 16.0273C18.3598 16.7815 18.3323 17.4582 17.9364 18.0361C16.7275 19.8008 15.3711 20.4003 13.9937 20.4003C11.8414 20.249 10.6374 19.3889 9.94864 18.2111C9.94864 18.2111 9.45188 17.2662 8.46971 17.8261C7.48754 18.3859 8.10675 19.2606 8.10675 19.2606C9.44037 21.5413 11.7706 22.4059 13.6208 22.4925L13.9932 22.5C16.6605 22.5 18.5839 20.9398 19.585 19.401C20.1024 18.6057 20.3734 16.7469 20.549 15.3465C20.5933 14.9932 20.8294 14.6316 21.123 14.182C21.7004 13.2978 22.5 12.0732 22.5 9.90187C22.5 8.60222 22.1692 7.25882 21.5374 6.03783C21.3169 5.57042 20.6377 4.66558 20.3257 4.27158Z" fill="#3A3A47"/>
</svg>
