<svg width="24" height="24" viewBox="0 0 24 24" fill="none" xmlns="http://www.w3.org/2000/svg">
<path d="M10.0001 2.66654C10.0001 2.29835 10.2986 1.99988 10.6668 1.99988H13.3334C13.7016 1.99988 14.0001 2.29835 14.0001 2.66654V5.33321C14.0001 5.7014 13.7016 5.99988 13.3334 5.99988H10.6668C10.2986 5.99988 10.0001 5.7014 10.0001 5.33321V2.66654Z" fill="#3A3A47"/>
<path d="M2.66684 18.6665C2.66684 18.2984 2.96532 17.9999 3.33351 17.9999H6.00017C6.36836 17.9999 6.66684 18.2984 6.66684 18.6665V21.3332C6.66684 21.7014 6.36836 21.9999 6.00017 21.9999H3.33351C2.96532 21.9999 2.66684 21.7014 2.66684 21.3332V18.6665Z" fill="#3A3A47"/>
<path d="M10.0003 18.6665C10.0003 18.2984 10.2988 17.9999 10.667 17.9999H13.3337C13.7019 17.9999 14.0003 18.2984 14.0003 18.6665V21.3332C14.0003 21.7014 13.7019 21.9999 13.3337 21.9999H10.667C10.2988 21.9999 10.0003 21.7014 10.0003 21.3332V18.6665Z" fill="#3A3A47"/>
<path d="M17.3333 18.6665C17.3333 18.2984 17.6318 17.9999 18 17.9999H20.6667C21.0349 17.9999 21.3333 18.2984 21.3333 18.6665V21.3332C21.3333 21.7014 21.0349 21.9999 20.6667 21.9999H18C17.6318 21.9999 17.3333 21.7014 17.3333 21.3332V18.6665Z" fill="#3A3A47"/>
<path d="M10.9999 5.99988V4.66638C10.9999 4.1141 11.4476 3.66638 11.9999 3.66638C12.5522 3.66638 12.9999 4.1141 12.9999 4.66638V5.99988H10.9999Z" fill="#3A3A47"/>
<path d="M10.9999 7.99988H12.9999V11.6664H19.3334C19.8857 11.6664 20.3334 12.1141 20.3334 12.6664V15.9999H18.3334V13.6664H12.9999V15.9999H10.9999V13.6664H5.66643L5.66643 15.9999H3.66643V12.6664C3.66643 12.1141 4.11415 11.6664 4.66643 11.6664H10.9999V7.99988Z" fill="#3A3A47"/>
</svg>
