<svg width="24" height="24" viewBox="0 0 24 24" fill="none" xmlns="http://www.w3.org/2000/svg">
<path fill-rule="evenodd" clip-rule="evenodd" d="M10.9339 2.00004L17.2626 1.99998C19.1644 2.00071 20.2812 4.13984 19.1959 5.70063L17.2187 8.54406L18.8187 8.54468C20.9123 8.54548 21.8846 11.1451 20.3043 12.5192L9.99989 21.4788C8.12423 23.1097 5.38301 20.9665 6.49006 18.7545L8.01592 15.7056L7.12999 15.7053C5.46012 15.7047 4.37085 13.9607 5.08679 12.4641L8.79766 3.36917C8.80738 3.34536 8.81801 3.32194 8.82953 3.29894C9.22856 2.50266 10.0432 1.99985 10.9339 2.00004ZM10.6302 4.17202L6.92597 13.2506C6.91625 13.2744 6.90562 13.2978 6.8941 13.3208C6.80557 13.4975 6.93468 13.7052 7.13076 13.7053L9.6347 13.7063C9.98128 13.7064 10.3031 13.886 10.4852 14.1809C10.6673 14.4757 10.6837 14.8439 10.5286 15.1538L8.27857 19.6496C8.23234 19.742 8.23894 19.7972 8.24786 19.8304C8.25996 19.8754 8.29318 19.9315 8.35342 19.9783C8.41367 20.0251 8.47596 20.0432 8.52184 20.0437C8.55542 20.0441 8.6099 20.0371 8.6876 19.9696L18.992 11.0099C19.0502 10.9593 19.0709 10.9129 19.0795 10.8746C19.0895 10.8301 19.0872 10.7745 19.0658 10.7173C19.0445 10.6601 19.0097 10.6165 18.9729 10.5895C18.9413 10.5662 18.8951 10.5447 18.818 10.5447L15.3055 10.5433C14.9333 10.5432 14.5919 10.3363 14.4195 10.0064C14.2472 9.67642 14.2724 9.27806 14.4849 8.97243L17.5538 4.55885C17.7177 4.32318 17.5483 4.00009 17.2623 3.99998L10.9336 4.00004C10.8088 4 10.6936 4.06571 10.6302 4.17202Z" fill="#3A3A47"/>
</svg>
