<svg width="24" height="24" viewBox="0 0 24 24" fill="none" xmlns="http://www.w3.org/2000/svg">
<path d="M10.8964 2.64534C10.9654 2.36974 10.8004 2.08977 10.5278 2.02001C10.2553 1.95025 9.97835 2.11711 9.90936 2.39271L9.34788 4.63546C9.27889 4.91106 9.44392 5.19102 9.7165 5.26078C9.98908 5.33055 10.266 5.16368 10.335 4.88808L10.8964 2.64534Z" fill="#3A3A47"/>
<path d="M6.4404 2.07801C6.70573 1.98394 6.99625 2.12517 7.08928 2.39345L7.96612 4.92196C8.05915 5.19023 7.91947 5.48397 7.65413 5.57803C7.3888 5.6721 7.09828 5.53087 7.00525 5.26259L6.12841 2.73408C6.03538 2.4658 6.17506 2.17207 6.4404 2.07801Z" fill="#3A3A47"/>
<path d="M3.039 4.7122C3.21055 4.48695 3.53021 4.44496 3.75299 4.61841L5.5659 6.02991C5.78868 6.20336 5.83021 6.52657 5.65866 6.75181C5.48711 6.97706 5.16745 7.01904 4.94467 6.84559L3.13176 5.4341C2.90898 5.26065 2.86745 4.93744 3.039 4.7122Z" fill="#3A3A47"/>
<path d="M8.85281 13.7654L7.60247 9.0474C7.49623 8.64652 7.72858 8.23527 8.12143 8.12884C8.51428 8.02241 8.91887 8.26111 9.02511 8.66198L10.3716 13.7429C10.4247 13.9434 10.5486 14.2247 10.8653 14.1675C11.0618 14.1143 11.1779 13.9086 11.1248 13.7082L10.3135 10.6468C10.2073 10.2459 10.4396 9.83469 10.8325 9.72826C11.2253 9.62183 11.6299 9.86053 11.7361 10.2614L13.4674 16.7941C13.9986 18.7984 12.8368 20.8547 10.8726 21.3868L9.22101 21.85C7.62527 22.2974 5.92042 21.7235 4.90851 20.3981L2.2356 16.8973C1.92315 16.5808 1.92123 16.0669 2.23132 15.7509C2.50656 15.4704 2.94189 15.4361 3.25844 15.67L4.49735 16.7803C4.72403 16.9835 5.07343 16.7651 4.99503 16.4693L3.52692 10.9295C3.42068 10.5286 3.65303 10.1174 4.04588 10.0109C4.43873 9.90451 4.84332 10.1432 4.94956 10.5441L6.00754 14.5363C6.06066 14.7367 6.26295 14.856 6.45938 14.8028C6.6558 14.7496 6.77197 14.544 6.71886 14.3435L5.27616 8.89968C5.16992 8.4988 5.40227 8.08755 5.79512 7.98112C6.18797 7.87469 6.59256 8.11338 6.69879 8.51426L8.14149 13.9581C8.19461 14.1586 8.39691 14.2779 8.59333 14.2247C8.78976 14.1715 8.90593 13.9659 8.85281 13.7654Z" fill="#3A3A47"/>
<path fill-rule="evenodd" clip-rule="evenodd" d="M15.6712 8.19818L17.5248 3.83082C17.5923 3.67191 17.5995 3.50258 17.5571 3.34869C17.5001 3.14333 17.3543 2.96543 17.1442 2.87625C16.7765 2.72032 16.3507 2.89458 16.1933 3.26569L14.197 7.96902C14.1185 8.15459 13.9451 8.43102 13.6595 8.30991C13.4757 8.23194 13.3906 8.01831 13.4692 7.83274L14.672 4.99889C14.8294 4.62777 14.6592 4.2004 14.2913 4.04431C13.9237 3.88838 13.4981 4.06267 13.3404 4.43376L11.6867 8.33034C12.4889 8.56958 13.1466 9.21125 13.3763 10.0685L15.0149 16.1837C15.974 16.2909 17.6473 15.6836 18.1926 15.2153L21.6836 12.1148C22.0302 11.853 22.1016 11.3591 21.8426 11.0127C21.6128 10.7053 21.1942 10.6128 20.8548 10.7945L19.4998 11.6933C19.2518 11.8578 18.9414 11.5999 19.0578 11.3261L21.2343 6.19803C21.3917 5.82691 21.2212 5.39963 20.8536 5.24357C20.486 5.08752 20.0601 5.26178 19.9027 5.6329L18.3343 9.32844C18.2555 9.51398 18.0425 9.60117 17.8587 9.52308C17.6749 9.44512 17.5898 9.23137 17.6684 9.0458L19.8073 4.00651C19.9647 3.6354 19.7944 3.20814 19.4266 3.05206C19.059 2.896 18.6331 3.07027 18.4757 3.44138L16.3368 8.48079C16.2583 8.66636 16.0453 8.75343 15.8615 8.67547C15.6777 8.59738 15.5924 8.38372 15.6712 8.19818ZM15.1318 12.245C15.9581 11.0364 17.2625 11.2453 17.7441 11.3234C18.0167 11.3677 18.2018 11.6245 18.1576 11.8971C18.1134 12.1697 17.8564 12.3548 17.584 12.3105C17.0783 12.2285 16.4022 12.1589 15.9573 12.8093C15.8015 13.0373 15.4905 13.0958 15.2624 12.9399C15.0346 12.7841 14.976 12.4729 15.1318 12.245Z" fill="#3A3A47"/>
</svg>
