<svg width="24" height="24" viewBox="0 0 24 24" fill="none" xmlns="http://www.w3.org/2000/svg">
<path d="M15.5 4C15.5 5.10457 14.6046 6 13.5 6C12.3954 6 11.5 5.10457 11.5 4C11.5 2.89543 12.3954 2 13.5 2C14.6046 2 15.5 2.89543 15.5 4Z" fill="#3A3A47"/>
<path d="M13.0143 13.6005L13.591 11.0052L14.2929 11.7071C14.5497 11.9639 14.9255 12.0612 15.2747 11.9615L18 11.1828L18 21C18 21.5523 18.4477 22 19 22C19.5523 22 20 21.5523 20 21L20 9C20 8.44772 19.5523 8 19 8C18.4477 8 18 8.44772 18 9V9.10279L15.291 9.87678C14.6197 9.20548 13.7707 7.74587 12.8254 7.5358C12.0167 7.35609 11.2154 7.86598 11.0357 8.67468L10.0927 12.9185L8.03293 20.7455C7.89237 21.2796 8.21141 21.8265 8.74551 21.967C9.27961 22.1076 9.82652 21.7886 9.96708 21.2545L11.5767 15.1381L13.7309 16.1382V21C13.7309 21.5523 14.1786 22 14.7309 22C15.2831 22 15.7309 21.5523 15.7309 21V15.5C15.7309 15.1108 15.505 14.7569 15.152 14.593L13.0143 13.6005Z" fill="#3A3A47"/>
<path d="M9.46678 8.12344C9.57128 7.58114 9.21198 7.04288 8.66065 7.0754C6.8782 7.18052 5.32474 8.47859 4.97136 10.3123L4.62364 12.1167C4.51818 12.6639 4.88039 13.1918 5.42891 13.2902L7.39762 13.6435C7.93631 13.7402 8.45265 13.3859 8.55621 12.8485L9.46678 8.12344Z" fill="#3A3A47"/>
</svg>
