<svg width="24" height="24" viewBox="0 0 24 24" fill="none" xmlns="http://www.w3.org/2000/svg">
<path fill-rule="evenodd" clip-rule="evenodd" d="M2.949 11.072C2.825 11.059 2.671 11.052 2.523 11.004C2.342 10.954 2.148 10.834 2.056 10.494L2.042 10.439L2.036 10.407C2.013 10.3 2 10.175 2 10.028V10.001C2 9.317 2.245 9.099 2.486 9.037C2.676 8.957 2.883 8.954 3.029 8.934C3.771 8.827 4.517 8.606 5.269 8.268L5.591 8.115L5.771 8.025C6.199 7.804 7.173 7.267 7.336 7.178L7.358 7.166L7.643 7.018C9.056 6.308 10.276 6 12.1 6C13.923 6 15.142 6.307 16.553 7.017L16.837 7.164L18.512 8.067L18.937 8.271C19.725 8.628 20.477 8.854 21.193 8.951C21.447 8.986 21.924 9.045 21.992 9.831L21.998 9.92L22 10V10.029C22 10.079 21.998 10.126 21.994 10.172C21.954 10.691 21.71 10.892 21.454 10.98C21.327 11.034 21.178 11.068 21.006 11.081L20.814 11.091C20.131 11.203 19.445 11.413 18.754 11.722L18.409 11.885L18.229 11.975C18.107 12.038 17.94 12.127 17.76 12.225L17.667 12.275C17.239 12.523 16.745 12.807 16.173 13.072C15.201 13.542 14.306 13.819 13.22 13.935C12.656 14.006 12.046 14.031 11.387 13.992C11.173 13.984 10.967 13.972 10.769 13.954L10.477 13.923L10.597 14.146C12.109 16.934 13.996 18.99 17.559 18.99C18.995 18.99 20 18.203 20 17.01C20 16.17 19.387 15.705 18.81 15.762C19.013 16.159 19.057 16.607 18.906 17.01C18.591 17.85 17.703 18.176 16.993 17.91C15.848 17.484 16 16.293 16 16C16 15.056 17.308 13.744 18.995 13.81C21.798 13.918 22.001 16.803 22.001 16.946C22.001 18.886 20.836 21.008 17.308 21.008C15.187 21.008 13.261 20.304 11.53 18.897C10 17.653 8.868 15.952 8.133 13.791L8 13.38V19.298C8 19.77 7.786 20.004 7.358 19.999C6.93 19.994 6.692 19.76 6.643 19.298C6.493 18.252 6.11 17.249 5.496 16.291C4.944 15.428 4.223 14.695 3.332 14.093L3.03 13.9L3.284 14.026C3.871 14.304 4.382 14.46 4.82 14.495L5.003 14.502C6.134 14.502 6.353 13.811 6.353 13.354C6.353 12.848 6.175 12.434 5.817 12.11L5.504 11.942L5.457 11.918L5.063 11.73C4.38 11.42 3.725 11.21 3.097 11.096L2.898 11.064L2.948 11.073L2.949 11.072ZM10.465 13.899L10.477 13.924V13.923L10.465 13.899ZM12.85 8.04C13.33 8.861 13.14 9.945 12.333 10.615C11.403 11.389 10.118 10.983 9.582 10.363C9.258 9.988 8.924 9.274 9.124 8.566C7.905 9.059 7.013 9.737 6.2 10C7.51 10.582 9.1 12.004 12 12.004C14.9 12.004 16.433 10.5 17.803 10C16.593 9.416 15.218 8.27 12.851 8.04H12.85ZM11.645 3L12 3.002C13.85 3.029 15.795 3.682 16.703 4.129L16.838 4.199L18.512 5.053L18.937 5.258C19.731 5.618 20.3 5.832 21.007 5.945C21.264 5.986 22 6.041 22 7.043C22 8.043 21.068 7.978 21.006 7.969C20.044 7.823 19.058 7.317 18.048 6.811L17.711 6.642L17.417 6.492C17.362 6.463 17.301 6.432 17.237 6.397L16.077 5.832C14.729 5.178 13.262 4.994 12 5.018C10.822 5.041 9.488 5.23 7.977 5.904L7.65 6.056L6.597 6.603L6.118 6.833C5.091 7.299 4.055 7.863 3.014 7.979C2.677 8.016 2 7.979 2 7.04C2 6.103 2.68 5.993 3.022 5.944C3.766 5.838 4.514 5.596 5.268 5.251L5.591 5.097L5.771 5.006L7.336 4.197L7.358 4.186L7.644 4.038C8.879 3.414 9.796 3.066 11.311 3.008L11.645 3Z" fill="#3A3A47"/>
</svg>
