<svg width="24" height="24" viewBox="0 0 24 24" fill="none" xmlns="http://www.w3.org/2000/svg">
<path d="M18 6H20C20.5304 6 21.0391 6.21071 21.4142 6.58579C21.7893 6.96086 22 7.46957 22 8V20C22 21.333 21.333 22 20 22H16C14.667 22 14 21.333 14 20V15H10V20C10 21.333 9.333 22 8 22H4C2.667 22 2 21.333 2 20V8C2 7.46957 2.21071 6.96086 2.58579 6.58579C2.96086 6.21071 3.46957 6 4 6H6V4C6 2.667 6.667 2 8 2H16C17.333 2 18 2.667 18 4V6ZM15 9C15.667 8.995 16 8.662 16 8C16 7.338 15.666 7.005 15 7H13V5C13 4.333 12.667 4 12 4C11.333 4 11 4.333 11 5V7H9C8.333 7.002 8 7.335 8 7.998C8 8.661 8.333 8.995 9 9H11V11C11.006 11.663 11.341 11.997 12.005 12C12.668 12.003 13 11.67 13 11V9H15ZM5.5 15H6.5C7.167 15 7.5 14.666 7.5 13.999V13C7.504 12.333 7.173 12 6.504 12H5.5C4.833 12 4.5 12.333 4.5 13V14C4.5 14.667 4.833 15 5.5 15ZM5.5 20H6.5C7.167 20 7.5 19.666 7.5 18.999V18C7.504 17.333 7.173 17 6.504 17H5.5C4.833 17 4.5 17.333 4.5 18V19C4.5 19.667 4.833 20 5.5 20ZM17.5 15H18.5C19.167 15 19.5 14.666 19.5 13.999V13C19.504 12.333 19.173 12 18.504 12H17.5C16.833 12 16.5 12.333 16.5 13V14C16.5 14.667 16.833 15 17.5 15ZM17.5 20H18.5C19.167 20 19.5 19.666 19.5 18.999V18C19.504 17.333 19.173 17 18.504 17H17.5C16.833 17 16.5 17.333 16.5 18V19C16.5 19.667 16.833 20 17.5 20Z" fill="#3A3A47"/>
</svg>
