<svg xmlns="http://www.w3.org/2000/svg" xmlns:xlink="http://www.w3.org/1999/xlink" width="24" height="24" viewBox="0 0 24 24">
    <defs>
        <path id="a" d="M15 9h-2v2c0 .67-.332 1.003-.995 1-.664-.003-.999-.337-1.005-1V9H9c-.667-.005-1-.339-1-1.002S8.333 7.002 9 7h2V5c0-.667.333-1 1-1s1 .333 1 1v2h2c.666.005 1 .338 1 1 0 .662-.333.995-1 1zm-9.5 6h1c.667 0 1-.334 1-1.001V13c.004-.667-.327-1-.996-1H5.5c-.667 0-1 .333-1 1v1c0 .667.333 1 1 1zm0 5h1c.667 0 1-.334 1-1.001V18c.004-.667-.327-1-.996-1H5.5c-.667 0-1 .333-1 1v1c0 .667.333 1 1 1zm12-5h1c.667 0 1-.334 1-1.001V13c.004-.667-.327-1-.996-1H17.5c-.667 0-1 .333-1 1v1c0 .667.333 1 1 1zm0 5h1c.667 0 1-.334 1-1.001V18c.004-.667-.327-1-.996-1H17.5c-.667 0-1 .333-1 1v1c0 .667.333 1 1 1zM18 6V4c0-1.333-.667-2-2-2H8c-1.333 0-2 .667-2 2v2H4a2 2 0 0 0-2 2v12c0 1.333.667 2 2 2h4c1.333 0 2-.667 2-2v-5h4v5c0 1.333.667 2 2 2h4c1.333 0 2-.667 2-2V8a2 2 0 0 0-2-2h-2z"/>
    </defs>
    <use fill="#53595E" fill-rule="evenodd" xlink:href="#a"/>
</svg>
