<svg width="24" height="24" viewBox="0 0 24 24" fill="none" xmlns="http://www.w3.org/2000/svg">
<path fill-rule="evenodd" clip-rule="evenodd" d="M11.993 2C12.485 2 12.931 2.167 13.331 2.502L21.653 9.245C21.981 9.594 22.067 9.971 21.911 10.377C21.755 10.784 21.446 10.987 20.984 10.989L20 11V20C20 21.333 19.333 22 18 22H16C14.667 21.99 14 21.324 14 20V14H10V19.986C10 21.31 9.333 21.976 8 21.986H6C4.667 21.996 4 21.333 4 20L3.996 11L2.968 10.989C2.485 10.989 2.182 10.785 2.057 10.377C1.932 9.97 2.014 9.591 2.303 9.241L10.655 2.502C11.055 2.167 11.502 2 11.993 2ZM6 9V20H8V14C8 12.667 8.667 12 10 12H14C15.333 12 16 12.667 16 14V20H17.998V9L12 4.419L6 9Z" fill="#3A3A47"/>
</svg>
