<svg xmlns="http://www.w3.org/2000/svg" width="24" height="24" viewBox="0 0 24 24">
    <path fill="#3A3A47" fill-rule="evenodd" d="M20 2c1.333 0 2 .667 2 2v15.997C22 21.332 21.333 22 20 22H4c-1.333 0-2-.667-2-2V4c0-1.333.667-2 2-2h16zm-4.55 11.64l-2.82 4.135a1.84 1.84 0 0 1-1.28.841 2.038 2.038 0 0 1-1.4-.259l-.165-.104-2.642-1.962L4 19.326V20h16l-.001-.001.001-2.725-4.55-3.634zM20 4H4v13l1.773-1.773c.385-.354.79-.547 1.215-.582.425-.034.892.097 1.4.396L11 17l2.79-4.185c.34-.507.773-.8 1.3-.876.526-.077 1.064.064 1.613.424L20 15V4zM9 5.919a3 3 0 1 1 0 6 3 3 0 0 1 0-6zm0 2a1 1 0 1 0 0 2 1 1 0 0 0 0-2z"/>
</svg>
