<svg width="24" height="24" viewBox="0 0 24 24" fill="none" xmlns="http://www.w3.org/2000/svg">
<path fill-rule="evenodd" clip-rule="evenodd" d="M20 17.274V4H4V20H20V15L16.703 12.363C16.154 12.003 15.616 11.862 15.09 11.939C14.563 12.016 14.13 12.308 13.79 12.815L11 17L8.388 15.04C7.88 14.742 7.413 14.61 6.988 14.645C6.563 14.68 6.158 14.873 5.773 15.227L4 17V19.326L7.143 16.291L9.785 18.253C10.28 18.589 10.801 18.71 11.349 18.616C11.6102 18.576 11.8598 18.4801 12.0807 18.335C12.3015 18.1899 12.4886 17.9989 12.629 17.775L15.449 13.64L20 17.274ZM2 4C2 2.667 2.667 2 4 2H20C21.333 2 22 2.667 22 4V19.997C22 21.332 21.333 22 20 22H4C2.667 22 2 21.333 2 20V4ZM9 11.919C8.60603 11.919 8.21593 11.8414 7.85195 11.6906C7.48797 11.5399 7.15726 11.3189 6.87868 11.0403C6.6001 10.7617 6.37913 10.431 6.22836 10.067C6.0776 9.70307 6 9.31297 6 8.919C6 8.52503 6.0776 8.13493 6.22836 7.77095C6.37913 7.40697 6.6001 7.07626 6.87868 6.79768C7.15726 6.5191 7.48797 6.29813 7.85195 6.14736C8.21593 5.9966 8.60603 5.919 9 5.919C9.79565 5.919 10.5587 6.23507 11.1213 6.79768C11.6839 7.36029 12 8.12335 12 8.919C12 9.71465 11.6839 10.4777 11.1213 11.0403C10.5587 11.6029 9.79565 11.919 9 11.919ZM9 9.919C9.26522 9.919 9.51957 9.81364 9.70711 9.62611C9.89464 9.43857 10 9.18422 10 8.919C10 8.65378 9.89464 8.39943 9.70711 8.21189C9.51957 8.02436 9.26522 7.919 9 7.919C8.73478 7.919 8.48043 8.02436 8.29289 8.21189C8.10536 8.39943 8 8.65378 8 8.919C8 9.18422 8.10536 9.43857 8.29289 9.62611C8.48043 9.81364 8.73478 9.919 9 9.919Z" fill="#3A3A47"/>
</svg>
