<svg width="24" height="24" viewBox="0 0 24 24" fill="none" xmlns="http://www.w3.org/2000/svg">
<path fill-rule="evenodd" clip-rule="evenodd" d="M8 10.988C8.55228 10.988 9 11.4357 9 11.988C9 13.6448 10.3432 14.988 12.0001 14.988C13.657 14.988 15.0001 13.6448 15.0001 11.988C15.0001 11.4357 15.4478 10.988 16.0001 10.988H19.6881L17.9389 4H6.0611L4.312 10.988H8ZM22.0001 11.988V19.9892C22.0001 21.0933 21.1054 21.9885 20.0013 21.9892L4.0012 21.9988C2.89616 21.9995 2 21.1038 2 19.9988V11.988L4.12095 3.51438C4.34373 2.62431 5.14357 2 6.0611 2H17.9389C18.8564 2 19.6563 2.6243 19.8791 3.51436L22.0001 11.988Z" fill="#3A3A47"/>
</svg>
