<svg width="24" height="24" viewBox="0 0 24 24" fill="none" xmlns="http://www.w3.org/2000/svg">
<path fill-rule="evenodd" clip-rule="evenodd" d="M6 5C6 3.34315 7.34315 2 9 2H16C16.2817 2 16.5504 2.11885 16.7399 2.32733L21.7399 7.82733C21.9073 8.0114 22 8.25123 22 8.5V19C22 20.6569 20.6569 22 19 22H15C14.4477 22 14 21.5523 14 21C14 20.4477 14.4477 20 15 20H19C19.5523 20 20 19.5523 20 19V8.88661L15.5576 4H9C8.44772 4 8 4.44772 8 5V9.5C8 10.0523 7.55228 10.5 7 10.5C6.44772 10.5 6 10.0523 6 9.5V5Z" fill="#3A3A47"/>
<path fill-rule="evenodd" clip-rule="evenodd" d="M13.25 8V5.25C13.25 4.83579 13.5858 4.5 14 4.5C14.4142 4.5 14.75 4.83579 14.75 5.25V8C14.75 8.69036 15.3096 9.25 16 9.25H18.75C19.1642 9.25 19.5 9.58579 19.5 10C19.5 10.4142 19.1642 10.75 18.75 10.75H16C14.4812 10.75 13.25 9.51878 13.25 8Z" fill="#3A3A47"/>
<path fill-rule="evenodd" clip-rule="evenodd" d="M2.11097 20.497L6.17731 12.5447C6.5487 11.8184 7.58662 11.8184 7.95801 12.5447L12.0243 20.497C12.3646 21.1623 11.8813 21.9522 11.134 21.9522H3.00132C2.25399 21.9522 1.77073 21.1623 2.11097 20.497ZM6 20C6 19.4477 6.44772 19 7 19C7.55228 19 8 19.4477 8 20C8 20.5523 7.55228 21 7 21C6.44772 21 6 20.5523 6 20ZM7.75 15C7.75 14.5858 7.41421 14.25 7 14.25C6.58579 14.25 6.25 14.5858 6.25 15V17.5C6.25 17.9142 6.58579 18.25 7 18.25C7.41421 18.25 7.75 17.9142 7.75 17.5V15Z" fill="#3A3A47"/>
</svg>
