<svg width="24" height="24" viewBox="0 0 24 24" fill="none" xmlns="http://www.w3.org/2000/svg">
<path fill-rule="evenodd" clip-rule="evenodd" d="M22 8.4C22 8.14322 21.9012 7.89629 21.7241 7.71034L16.5813 2.31035C16.3925 2.11217 16.1308 2 15.8571 2H8C6.89543 2 6 2.89543 6 4V11.5C6.74838 10.7516 8.00627 10.9346 8.51035 11.8653L14 22H20C21.1046 22 22 21.1046 22 20V8.4ZM13.25 2V8C13.25 9.51878 14.4812 10.75 16 10.75C16 10.75 21.5858 10.75 22 10.75V9.25H16C15.3096 9.25 14.75 8.69036 14.75 8V2C14.2188 2 15.1642 2 14.75 2C14.3358 2 13.5 2 13.25 2Z" fill="#3A3A47"/>
<path fill-rule="evenodd" clip-rule="evenodd" d="M2.11097 20.497L6.17731 12.5447C6.5487 11.8184 7.58662 11.8184 7.95801 12.5447L12.0243 20.497C12.3646 21.1623 11.8813 21.9522 11.134 21.9522H3.00132C2.25399 21.9522 1.77073 21.1623 2.11097 20.497ZM6 20C6 19.4477 6.44772 19 7 19C7.55228 19 8 19.4477 8 20C8 20.5523 7.55228 21 7 21C6.44772 21 6 20.5523 6 20ZM7.75 15C7.75 14.5858 7.41421 14.25 7 14.25C6.58579 14.25 6.25 14.5858 6.25 15V17.5C6.25 17.9142 6.58579 18.25 7 18.25C7.41421 18.25 7.75 17.9142 7.75 17.5V15Z" fill="#3A3A47"/>
</svg>
