<svg width="24" height="24" viewBox="0 0 24 24" fill="none" xmlns="http://www.w3.org/2000/svg">
<path d="M11.5 19V10C11.5 9.333 11.833 9 12.5 9C13.167 9 13.5 9.333 13.5 10V19C13.5 19.666 13.168 20 12.503 20C11.838 20 11.503 19.667 11.5 19ZM12.5 4C12.697 4 12.892 4.0388 13.074 4.11418C13.256 4.18956 13.4214 4.30005 13.5607 4.43934C13.6999 4.57863 13.8104 4.74399 13.8858 4.92597C13.9612 5.10796 14 5.30302 14 5.5C14 5.69698 13.9612 5.89204 13.8858 6.07403C13.8104 6.25601 13.6999 6.42137 13.5607 6.56066C13.4214 6.69995 13.256 6.81044 13.074 6.88582C12.892 6.9612 12.697 7 12.5 7C12.1022 7 11.7206 6.84196 11.4393 6.56066C11.158 6.27936 11 5.89782 11 5.5C11 5.10218 11.158 4.72064 11.4393 4.43934C11.7206 4.15804 12.1022 4 12.5 4Z" fill="#3A3A47"/>
</svg>
