<svg xmlns="http://www.w3.org/2000/svg" xmlns:xlink="http://www.w3.org/1999/xlink" width="24" height="24" viewBox="0 0 24 24">
    <defs>
        <path id="a" d="M20 10c0-5.522-4.477-10-10-10S0 4.478 0 10c0 5.523 4.477 10 10 10s10-4.477 10-10zM10 2a8 8 0 1 1 0 16 8 8 0 0 1 0-16zm-.004 7c-.669 0-1.001.292-.996.875v5.25c-.002.583.33.875.998.875.668 0 1.002-.292 1.002-.875v-5.25C11 9.292 10.665 9 9.996 9zM10 4a1.5 1.5 0 1 0 0 3 1.5 1.5 0 0 0 0-3z"/>
    </defs>
    <use fill="#3A3A47" fill-rule="evenodd" transform="translate(2 2)" xlink:href="#a"/>
</svg>
