<svg xmlns="http://www.w3.org/2000/svg" xmlns:xlink="http://www.w3.org/1999/xlink" width="24" height="24" viewBox="0 0 24 24">
    <defs>
        <path id="a" d="M22 12c0-5.522-4.477-10-10-10S2 6.478 2 12c0 5.523 4.477 10 10 10s10-4.477 10-10zm-2 0a8 8 0 1 1-16 0 8 8 0 0 1 16 0zm-6.5-4.5a1.5 1.5 0 1 0-3 0 1.5 1.5 0 0 0 3 0zM11 17.125c-.002.583.33.875.998.875.668 0 1.002-.292 1.002-.875v-5.25c0-.583-.335-.875-1.004-.875s-1.001.292-.996.875v5.25z"/>
    </defs>
    <use fill="#686A75" fill-rule="evenodd" xlink:href="#a"/>
</svg>
