<svg width="24" height="24" viewBox="0 0 24 24" fill="none" xmlns="http://www.w3.org/2000/svg">
<path fill-rule="evenodd" clip-rule="evenodd" d="M20 4L4 4L4 20H20V4ZM4 2C2.89543 2 2 2.89543 2 4V20C2 21.1046 2.89543 22 4 22H20C21.1046 22 22 21.1046 22 20V4C22 2.89543 21.1046 2 20 2H4Z" fill="#3A3A47"/>
<path fill-rule="evenodd" clip-rule="evenodd" d="M8.99969 6.7503C8.99966 6.33609 8.66388 6.00033 8.24971 6.00037L6.74986 6.00049C6.33569 6.00052 5.99997 6.33633 6 6.75054L6.00061 14.2514C6.00064 14.6656 6.33642 15.0013 6.7506 15.0013L8.25044 15.0012C8.66461 15.0012 9.00034 14.6653 9.00031 14.2511L8.99969 6.7503ZM12.7493 6.00037C13.1634 6.00033 13.4992 6.33609 13.4992 6.7503L13.4996 11.2486C13.4996 11.6628 13.1639 11.9986 12.7497 11.9986L11.2499 11.9987C10.8357 11.9988 10.4999 11.663 10.4999 11.2488L10.4995 6.75054C10.4995 6.33633 10.8352 6.00052 11.2494 6.00049L12.7493 6.00037ZM17.9991 6.74993C17.9991 6.33572 17.6633 5.99997 17.2492 6L15.7493 6.00012C15.3351 6.00016 14.9994 6.33597 14.9995 6.75018L15.0003 17.2501C15.0003 17.6643 15.3361 18 15.7503 18L17.2501 17.9999C17.6643 17.9998 18 17.664 18 17.2498L17.9991 6.74993Z" fill="#3A3A47"/>
</svg>
