<svg width="24" height="24" viewBox="0 0 24 24" fill="none" xmlns="http://www.w3.org/2000/svg">
<path fill-rule="evenodd" clip-rule="evenodd" d="M3.99994 2C2.89537 2 1.99994 2.89543 1.99994 4V20C1.99994 21.1046 2.89537 22 3.99994 22H19.9999C21.1045 22 21.9999 21.1046 21.9999 20V4C21.9999 2.89543 21.1045 2 19.9999 2H3.99994ZM7.99953 4.99967C7.99949 4.44739 7.55174 3.99971 6.99945 3.99976L4.99945 3.99992C4.44717 3.99996 3.99949 4.44772 3.99953 5L4.00035 15.0012C4.00039 15.5535 4.44814 16.0012 5.00043 16.0011L7.00043 16.001C7.55271 16.0009 8.00039 15.5532 8.00035 15.0009L7.99953 4.99967ZM12.9995 3.99976C13.5517 3.99971 13.9995 4.44739 13.9995 4.99967L14 10.9974C14.0001 11.5497 13.5524 11.9975 13.0001 11.9975L11.0001 11.9977C10.4478 11.9977 10.0001 11.55 10 10.9978L9.99953 5C9.99949 4.44772 10.4472 3.99996 10.9995 3.99992L12.9995 3.99976ZM20 4.99919C20 4.4469 19.5522 3.99922 18.9999 3.99927L16.9999 3.99943C16.4477 3.99948 16 4.44723 16 4.99951L16.0012 18.9995C16.0012 19.5518 16.449 19.9995 17.0012 19.9994L19.0012 19.9993C19.5535 19.9992 20.0012 19.5515 20.0012 18.9992L20 4.99919Z" fill="#3A3A47"/>
</svg>
