<svg width="24" height="24" viewBox="0 0 24 24" fill="none" xmlns="http://www.w3.org/2000/svg">
<path fill-rule="evenodd" clip-rule="evenodd" d="M8 22.0031C7.18796 22.0036 6.38427 21.8392 5.63761 21.52C4.89095 21.2007 4.21687 20.7332 3.65619 20.1458C3.09551 19.5584 2.65991 18.8633 2.37576 18.1026C2.09161 17.3419 1.96484 16.5314 2.00311 15.7203C2.04139 14.9091 2.24392 14.1142 2.59844 13.3836C2.95296 12.6531 3.45209 12.0021 4.0656 11.4701C4.6791 10.9381 5.39421 10.5361 6.16761 10.2886C6.94102 10.0411 7.75661 9.95314 8.565 10.0301L16.187 2.40809C16.332 2.25009 16.476 2.14009 16.619 2.07809C16.762 2.01509 16.949 1.99009 17.181 2.00309H21C21.67 2.00309 22.005 2.33709 22.005 3.00509V7.00309C22.005 7.67009 21.67 8.00309 21 8.00309H19V10.0031C19 10.6701 18.667 11.0031 18 11.0031H15.71L13.373 13.3301C13.8282 14.245 14.0423 15.2609 13.9948 16.2817C13.9474 17.3025 13.64 18.2942 13.1018 19.1629C12.5637 20.0316 11.8126 20.7485 10.9197 21.2455C10.0269 21.7425 9.02188 22.0033 8 22.0031ZM7 18.0031C7.26522 18.0031 7.51957 17.8977 7.70711 17.7102C7.89465 17.5227 8 17.2683 8 17.0031C8 16.7379 7.89465 16.4835 7.70711 16.296C7.51957 16.1084 7.26522 16.0031 7 16.0031C6.73479 16.0031 6.48043 16.1084 6.2929 16.296C6.10536 16.4835 6 16.7379 6 17.0031C6 17.2683 6.10536 17.5227 6.2929 17.7102C6.48043 17.8977 6.73479 18.0031 7 18.0031Z" fill="#3A3A47"/>
</svg>
