<svg xmlns="http://www.w3.org/2000/svg" width="24" height="24" viewBox="0 0 24 24">
    <path fill="#3A3A47" fill-rule="evenodd" d="M17.181 2.003H21c.622 0 .955.288 1 .864l.005.138v3.998c0 .62-.289.951-.867.995L21 8.003h-2v2c0 .62-.287.951-.862.995l-.138.005h-2.29l-2.235 2.226-.102.101a6 6 0 1 1-4.808-3.3l.249-.249 5.425-5.424 1.948-1.949c.145-.158.289-.268.432-.33a.975.975 0 0 1 .305-.072L17.047 2zm2.824 2h-2.592L9.782 11.64c-.236.224-.464.345-.685.363-.33.028-.942 0-1.097 0a4 4 0 1 0 3.466 2.002c-.06-.105-.282-.503-.28-.878.003-.25.1-.489.292-.716l2.979-2.975c.143-.149.275-.258.396-.328.12-.07.29-.105.508-.105h1.637v-2c0-.666.336-1 1.007-1 .67 0 1.337-.001 2-.005V4.003zM7 16.003a1 1 0 1 1 0 2 1 1 0 0 1 0-2z"/>
</svg>
