<svg width="24" height="24" viewBox="0 0 24 24" fill="none" xmlns="http://www.w3.org/2000/svg">
<path fill-rule="evenodd" clip-rule="evenodd" d="M8 22.0031C7.18796 22.0036 6.38427 21.8392 5.63761 21.52C4.89095 21.2007 4.21687 20.7332 3.65619 20.1458C3.09551 19.5584 2.65991 18.8633 2.37576 18.1026C2.09161 17.3419 1.96484 16.5314 2.00311 15.7203C2.04139 14.9091 2.24392 14.1142 2.59844 13.3836C2.95296 12.6531 3.45209 12.0021 4.0656 11.4701C4.6791 10.9381 5.39421 10.5361 6.16761 10.2886C6.94102 10.0411 7.75661 9.95314 8.565 10.0301L16.187 2.40809C16.332 2.25009 16.476 2.14009 16.619 2.07809C16.762 2.01509 16.949 1.99009 17.181 2.00309H21C21.67 2.00309 22.005 2.33709 22.005 3.00509V7.00309C22.005 7.67009 21.67 8.00309 21 8.00309H19V10.0031C19 10.6701 18.667 11.0031 18 11.0031H15.71L13.373 13.3301C13.8282 14.245 14.0423 15.2609 13.9948 16.2817C13.9474 17.3025 13.64 18.2942 13.1018 19.1629C12.5637 20.0316 11.8126 20.7485 10.9197 21.2455C10.0269 21.7425 9.02188 22.0033 8 22.0031ZM8 20.0031C8.70202 20.0032 9.3917 19.8186 9.99976 19.4678C10.6078 19.1169 11.1128 18.6122 11.4641 18.0044C11.8153 17.3966 12.0004 16.707 12.0007 16.005C12.0011 15.303 11.8167 14.6133 11.466 14.0051C11.406 13.9001 11.184 13.5021 11.186 13.1271C11.189 12.8771 11.286 12.6381 11.478 12.4111L14.457 9.43609C14.6 9.28709 14.732 9.17809 14.853 9.10809C14.973 9.03809 15.143 9.00309 15.361 9.00309H16.998V7.00309C16.998 6.33709 17.334 6.00309 18.005 6.00309C18.675 6.00309 19.342 6.00209 20.005 5.99809V4.00309H17.413L9.782 11.6401C9.546 11.8641 9.318 11.9851 9.097 12.0031C8.767 12.0311 8.155 12.0031 8 12.0031C6.93914 12.0031 5.92172 12.4245 5.17158 13.1747C4.42143 13.9248 4 14.9422 4 16.0031C4 17.064 4.42143 18.0814 5.17158 18.8315C5.92172 19.5817 6.93914 20.0031 8 20.0031ZM7 18.0031C6.73479 18.0031 6.48043 17.8977 6.2929 17.7102C6.10536 17.5227 6 17.2683 6 17.0031C6 16.7379 6.10536 16.4835 6.2929 16.296C6.48043 16.1084 6.73479 16.0031 7 16.0031C7.26522 16.0031 7.51957 16.1084 7.70711 16.296C7.89465 16.4835 8 16.7379 8 17.0031C8 17.2683 7.89465 17.5227 7.70711 17.7102C7.51957 17.8977 7.26522 18.0031 7 18.0031Z" fill="#3A3A47"/>
</svg>
