<svg width="24" height="24" viewBox="0 0 24 24" fill="none" xmlns="http://www.w3.org/2000/svg">
<path fill-rule="evenodd" clip-rule="evenodd" d="M11.0178 4.71806H12.9822V9.21119C12.9822 9.8765 13.1452 10.5313 13.4565 11.1163H10.5436C10.8548 10.5313 11.0178 9.8765 11.0178 9.21119V4.71806ZM8 3.71806C8 2.68074 9 2.71806 9 2.71806H14.9466C14.9466 2.71806 16 2.71806 16 3.71806C16 4.71806 14.9466 4.71806 14.9466 4.71806V9.21119C14.9466 9.54385 15.0281 9.87125 15.1837 10.1638L19.7601 17.7655C20.4691 19.0981 19.5214 20.7181 18.0328 20.7181H5.96717C4.4786 20.7181 3.53089 19.0981 4.23988 17.7655L8.81626 10.1638C8.97188 9.87125 9.05338 9.54385 9.05338 9.21119V4.71806C9.05338 4.71806 8 4.71806 8 3.71806ZM14 12.7179H10L6 18.7179H18L14 12.7179Z" fill="#24252E"/>
</svg>
