<svg width="24" height="24" viewBox="0 0 24 24" fill="none" xmlns="http://www.w3.org/2000/svg">
<path fill-rule="evenodd" clip-rule="evenodd" d="M12.9822 5.00005H11.0178V9.49317C11.0178 10.1585 10.8548 10.8133 10.5436 11.3983H13.4565C13.1452 10.8133 12.9822 10.1585 12.9822 9.49317V5.00005ZM9 3.00005C9 3.00005 8 2.96273 8 4.00005C8 5.00005 9.05338 5.00005 9.05338 5.00005V9.49317C9.05338 9.82583 8.97188 10.1532 8.81626 10.4457L4.23988 18.0475C3.53089 19.3801 4.4786 21 5.96717 21H18.0328C19.5214 21 20.4691 19.3801 19.7601 18.0475L15.1837 10.4457C15.0281 10.1532 14.9466 9.82583 14.9466 9.49317V5.00005C14.9466 5.00005 16 5.00005 16 4.00005C16 3.00005 14.9466 3.00005 14.9466 3.00005H9Z" fill="#24252E"/>
</svg>
