<svg width="24" height="24" viewBox="0 0 24 24" fill="none" xmlns="http://www.w3.org/2000/svg">
<path fill-rule="evenodd" clip-rule="evenodd" d="M11.0178 5.00021H12.9822V9.49334C12.9822 10.1587 13.1452 10.8135 13.4565 11.3985H10.5436C10.8548 10.8135 11.0178 10.1587 11.0178 9.49334V5.00021ZM8.00001 4.00021C8.00001 2.96289 9.00001 3.00021 9.00001 3.00021H14.9466C14.9466 3.00021 16 3.00021 16 4.00021C16 5.00021 14.9466 5.00021 14.9466 5.00021V9.49334C14.9466 9.826 15.0281 10.1534 15.1838 10.4459L19.7601 18.0476C20.4691 19.3802 19.5214 21.0002 18.0328 21.0002H5.96718C4.47861 21.0002 3.5309 19.3802 4.23988 18.0476L8.81626 10.4459C8.97188 10.1534 9.05338 9.826 9.05338 9.49334V5.00021C9.05338 5.00021 8.00001 5.00021 8.00001 4.00021ZM14 13H10L6.00001 19H18L14 13Z" fill="#3A3A47"/>
</svg>
