<svg width="24" height="24" viewBox="0 0 24 24" fill="none" xmlns="http://www.w3.org/2000/svg">
<path fill-rule="evenodd" clip-rule="evenodd" d="M6.66424 16.8251C5.64849 15.4838 5.0459 13.8123 5.0459 12C5.0459 7.58172 8.62762 4 13.0459 4L18.0009 4C19.6831 4 21.0459 5.36282 21.0459 7.04503V12C21.0459 16.4183 17.4642 20 13.0459 20C11.1607 20 9.42788 19.3479 8.06054 18.2571C7.74677 18.5676 7.45142 18.86 7.1813 19.1276C6.07652 20.2219 4.5844 20.8387 3.02726 20.8387H3C2.44772 20.8387 2 20.391 2 19.8387C2 19.2864 2.44772 18.8387 3 18.8387H3.02726C4.05515 18.8387 5.04204 18.4315 5.7738 17.7067C6.04717 17.4359 6.34633 17.1397 6.66424 16.8251ZM18.6092 12C18.6092 15.0725 16.1184 17.5633 13.0459 17.5633C11.8391 17.5633 10.7221 17.179 9.81049 16.5262C10.3347 16.008 10.8733 15.4756 11.4049 14.9503L14.9861 14.9999C15.5384 15.0076 15.9923 14.5661 15.9999 14.0139C16.0076 13.4616 15.5661 13.0077 15.0139 13.0001L13.4015 12.9778L16.2025 10.2116C16.5956 9.82364 16.5996 9.19049 16.2116 8.79746C15.8236 8.40443 15.1905 8.40036 14.7975 8.78836L12 11.5509V10C12 9.44772 11.5523 9 11 9C10.4477 9 10 9.44772 10 10V13.5269C9.47291 14.0477 8.93885 14.5756 8.41879 15.0897C7.82746 14.2059 7.48262 13.1432 7.48262 12C7.48262 8.92749 9.97339 6.43673 13.0459 6.43673L18.0009 6.43672C18.3373 6.43672 18.6092 6.7086 18.6092 7.04503V12Z" fill="#3A3A47"/>
</svg>
