<svg width="24" height="24" viewBox="0 0 24 24" fill="none" xmlns="http://www.w3.org/2000/svg">
<path fill-rule="evenodd" clip-rule="evenodd" d="M13.0459 20C17.4642 20 21.0459 16.4183 21.0459 12V7.04503C21.0459 5.36282 19.6831 4 18.0009 4L13.0459 4C8.62762 4 5.0459 7.58172 5.0459 12C5.0459 13.8123 5.64849 15.4838 6.66424 16.8251C6.34659 17.1394 6.04764 17.4354 5.77441 17.7061C5.04252 18.4311 4.05497 18.8387 3.02726 18.8387H3C2.44772 18.8387 2 19.2864 2 19.8387C2 20.391 2.44772 20.8387 3 20.8387H3.02726C4.58459 20.8387 6.07726 20.2212 7.18191 19.127C7.45185 18.8596 7.74698 18.5674 8.06054 18.2571C9.42788 19.3479 11.1607 20 13.0459 20ZM16.2013 8.78709C15.8075 8.3998 15.1744 8.40501 14.7871 8.79874L14.7022 8.8849L14.4547 9.13553C14.2384 9.35426 13.9225 9.67305 13.5247 10.0728C13.1019 10.4977 12.5866 11.0139 12 11.5986V9.55554C12 9.00326 11.5523 8.55554 11 8.55554C10.4477 8.55554 10 9.00326 10 9.55554V14C10 14.5523 10.4477 15 11 15H15.4444C15.9967 15 16.4444 14.5523 16.4444 14C16.4444 13.4477 15.9967 13 15.4444 13H13.4271C14.0095 12.4194 14.5215 11.9064 14.9424 11.4835C15.3417 11.0822 15.6591 10.7619 15.8767 10.5418L16.1262 10.2892L16.2129 10.2013C16.6002 9.80753 16.595 9.17439 16.2013 8.78709Z" fill="#3A3A47"/>
</svg>
