<svg width="24" height="24" viewBox="0 0 24 24" fill="none" xmlns="http://www.w3.org/2000/svg">
<path fill-rule="evenodd" clip-rule="evenodd" d="M3 8C2.333 8 2 7.667 2 7C2 6.333 2.333 6 3 6H5C5.667 6 6 6.333 6 7C6 7.667 5.667 8 5 8H3ZM3 13C2.333 13 2 12.667 2 12C2 11.333 2.333 11 3 11H5C5.667 11 6 11.333 6 12C6 12.667 5.667 13 5 13H3ZM3 18C2.333 18 2 17.667 2 17C2 16.333 2.333 16 3 16H5C5.667 16 6 16.333 6 17C6 17.667 5.667 18 5 18H3ZM9 18C8.333 18 8 17.667 8 17C8 16.333 8.333 16 9 16H21C21.667 16 22 16.333 22 17C22 17.667 21.667 18 21 18H9ZM9 13C8.333 13 8 12.667 8 12C8 11.333 8.333 11 9 11H21C21.667 11 22 11.333 22 12C22 12.667 21.667 13 21 13H9ZM9 8C8.333 8 8 7.667 8 7C8 6.333 8.333 6 9 6H21C21.667 6 22 6.333 22 7C22 7.667 21.667 8 21 8H9Z" fill="#3A3A47"/>
</svg>
