<svg xmlns="http://www.w3.org/2000/svg" width="24" height="24" viewBox="0 0 24 24">
    <path fill="#686A75" fill-rule="evenodd" d="M3 8c-.667 0-1-.333-1-1s.333-1 1-1h2c.667 0 1 .333 1 1s-.333 1-1 1H3zm0 5c-.667 0-1-.333-1-1s.333-1 1-1h2c.667 0 1 .333 1 1s-.333 1-1 1H3zm0 5c-.667 0-1-.333-1-1s.333-1 1-1h2c.667 0 1 .333 1 1s-.333 1-1 1H3zm6 0c-.667 0-1-.333-1-1s.333-1 1-1h12c.667 0 1 .333 1 1s-.333 1-1 1H9zm0-5c-.667 0-1-.333-1-1s.333-1 1-1h12c.667 0 1 .333 1 1s-.333 1-1 1H9zm0-5c-.667 0-1-.333-1-1s.333-1 1-1h12c.667 0 1 .333 1 1s-.333 1-1 1H9z"/>
</svg>
