<svg xmlns="http://www.w3.org/2000/svg" width="24" height="24" viewBox="0 0 24 24">
    <path fill="#3A3A47" fill-rule="evenodd" d="M5 16c.667 0 1 .333 1 1 0 .619-.287.95-.862.995L5 18H3c-.667 0-1-.333-1-1 0-.619.287-.95.862-.995L3 16h2zm16 0c.667 0 1 .333 1 1 0 .619-.287.95-.862.995L21 18H9c-.667 0-1-.333-1-1 0-.619.287-.95.862-.995L9 16h12zM5 11c.667 0 1 .333 1 1 0 .619-.287.95-.862.995L5 13H3c-.667 0-1-.333-1-1 0-.619.287-.95.862-.995L3 11h2zm4 0h12c.667 0 1 .333 1 1 0 .619-.287.95-.862.995L21 13H9c-.667 0-1-.333-1-1 0-.619.287-.95.862-.995L9 11h12zM5 6c.667 0 1 .333 1 1 0 .619-.287.95-.862.995L5 8H3c-.667 0-1-.333-1-1 0-.619.287-.95.862-.995L3 6h2zm16 0c.667 0 1 .333 1 1s-.333 1-1 1H9c-.667 0-1-.333-1-1s.333-1 1-1z"/>
</svg>
