<svg xmlns="http://www.w3.org/2000/svg" width="24" height="24" viewBox="0 0 24 24">
    <path fill="#686A75" fill-rule="evenodd" d="M17.925 6.32l.002-.179c.05 1.599.076 2.552.076 2.861H8c0-3-.003-5 4-5 2.46 0 3.408.755 3.773 2.034.08.277.227 1.202 1.152 1.204.626.001.96-.305 1-.92l-.035 2.682c1.407 0 2.11.667 2.11 2v9c0 1.333-.667 2-2 2H6.002c-1.335 0-2.002-.667-2.002-2V11.03c0-1.351.667-2.027 2-2.027l.002-2C6 3.667 8 2 12 2c3.348 0 5.295 1.123 5.84 3.368.041.168.069.39.084.668zM11 17.003c0 .667.333 1 1 1s1-.333 1-1v-3c0-.667-.333-1-1-1s-1 .333-1 1v3z"/>
</svg>
