<svg xmlns="http://www.w3.org/2000/svg" width="24" height="24" viewBox="0 0 24 24">
    <path fill="#3A3A47" fill-rule="evenodd" d="M12 2c3.348 0 5.295 1.123 5.84 3.368.045.184.074.394.087.63.049.67-.26 1.004-.924 1.004-.665 0-1-.334-1.003-1.003.01-1.34-1.323-2.01-4-2.01S7.99 4.992 8 7.001v2h9.89c1.407 0 2.11.667 2.11 2v9c0 1.333-.667 2-2 2H6.002c-1.335 0-2.002-.667-2.002-2V11.03c0-1.351.667-2.027 2-2.027l.002-2C6 3.667 8 2 12 2zm0 11.002c-.667 0-1 .333-1 1v3c0 .667.333 1 1 1s1-.333 1-1v-3c0-.667-.333-1-1-1z"/>
</svg>
