<svg width="24" height="24" viewBox="0 0 24 24" fill="none" xmlns="http://www.w3.org/2000/svg">
<path fill-rule="evenodd" clip-rule="evenodd" d="M11 4H13V10C13 10.7453 13.4077 11.3954 14.0122 11.7394C14.3588 -3.48461 22 6.07239 22 20.4281C20.8839 20.0622 17.3345 18.7093 15.3593 17.9513C14.7035 17.6996 14 16.6732 14 15.9707V14.5759C13.4451 13.9265 12.7226 13.3 12 13.3C11.2774 13.3 10.5549 13.9265 10 14.5759V15.9707C10 16.6732 9.29654 17.6996 8.64067 17.9513C6.66554 18.7093 3.11613 20.0622 2 20.4281C2 6.07239 9.64125 -3.48461 9.98784 11.7394C10.5923 11.3954 11 10.7453 11 10V4Z" fill="#3A3A47"/>
</svg>
