<svg width="24" height="24" viewBox="0 0 24 24" fill="none" xmlns="http://www.w3.org/2000/svg">
<path fill-rule="evenodd" clip-rule="evenodd" d="M20.002 10.5C20.0017 11.0521 19.5541 11.5 19.002 11.5C18.4499 11.4999 18.0022 11.0521 18.002 10.5L18.001 7.88379L14.8535 10.9766C15.5738 11.9664 16 13.1841 16 14.502C16 17.8157 13.3137 20.502 10 20.502C6.68629 20.502 4 17.8157 4 14.502C4 11.1882 6.68629 8.50195 10 8.50195C11.2734 8.50195 12.4535 8.8996 13.4248 9.57617L16.5557 6.50098H14L13.8984 6.49707C13.3941 6.44608 13.0002 6.01973 13 5.50195C12.9999 4.94981 13.4478 4.50217 14 4.50195L19.0016 4.50033C19.554 4.50015 20.002 4.94791 20.002 5.50033V10.5ZM10 10.502C7.79086 10.502 6 12.2928 6 14.502C6 16.7111 7.79086 18.502 10 18.502C12.2091 18.502 14 16.7111 14 14.502C14 13.4322 13.5786 12.4619 12.8945 11.7441C12.8483 11.711 12.804 11.6738 12.7627 11.6318C12.7309 11.5995 12.7023 11.5646 12.6758 11.5293C11.967 10.8909 11.029 10.502 10 10.502Z" fill="#3A3A47"/>
</svg>
