<svg xmlns="http://www.w3.org/2000/svg" xmlns:xlink="http://www.w3.org/1999/xlink" width="24" height="24" viewBox="0 0 24 24">
    <defs>
        <path id="a" d="M15 5.365v14.608a5.659 5.659 0 0 1-.684-.113L9 18.606V4.008c.28.027.614.09 1 .19l4.95 1.181.05-.014zm2-.574l2.469-.709a2.09 2.09 0 0 1 1.792.302c.47.34.739.851.739 1.4v11.338c0 .783-.548 1.467-1.364 1.702L17 19.736V4.791zM7 19.19l-2.469.721a2.145 2.145 0 0 1-.584.082c-.433 0-.86-.132-1.208-.385-.47-.34-.739-.85-.739-1.4V7.082c0-.785.548-1.469 1.365-1.703L7 4.328V19.19z"/>
    </defs>
    <use fill="#686A75" fill-rule="evenodd" xlink:href="#a"/>
</svg>
