<svg xmlns="http://www.w3.org/2000/svg" xmlns:xlink="http://www.w3.org/1999/xlink" width="24" height="24" viewBox="0 0 24 24">
    <defs>
        <path id="a" d="M4.999.327V15.19l-2.468.722c-.128.037-.258.06-.388.073l-.196.009c-.433 0-.86-.132-1.208-.385a1.735 1.735 0 0 1-.731-1.236L0 14.209V3.082c0-.736.482-1.383 1.215-1.654l.15-.049L4.999.327zm2-.319c.225.022.485.067.78.135L8 .197l4.95 1.182.05-.014v14.608a5.302 5.302 0 0 1-.447-.064l-.237-.05L7 14.607l-.001-.001V.008zM19.26.384c.423.306.683.75.731 1.237l.008.164v11.337c0 .734-.482 1.38-1.214 1.653l-.15.05-3.636.911V.79l2.469-.708a2.09 2.09 0 0 1 1.792.302z"/>
    </defs>
    <use fill="#3A3A47" fill-rule="evenodd" transform="translate(2 4)" xlink:href="#a"/>
</svg>
