<svg xmlns="http://www.w3.org/2000/svg" width="24" height="24" viewBox="0 0 24 24">
    <path fill="#3A3A47" fill-rule="evenodd" d="M8.704 4c.285-.001.643.049 1.074.149l.222.054 4.95 1.183 4.519-1.298a2.09 2.09 0 0 1 1.792.302c.423.307.683.75.731 1.237l.008.164v11.337c0 .734-.482 1.381-1.214 1.653l-.15.05-4.32 1.083a4.456 4.456 0 0 1-.898.086 4.655 4.655 0 0 1-.865-.085l-.237-.049L9 18.612l-4.469 1.307a2.145 2.145 0 0 1-.584.081c-.433 0-.86-.132-1.208-.385a1.735 1.735 0 0 1-.731-1.236L2 18.215V7.088c0-.736.482-1.383 1.215-1.653l.15-.05 4.086-1.182c.503-.134.92-.202 1.253-.203zM8 6L4 7.125v10.79l4-1.099V6zm12 0l-4 1.125v10.79l4-1.099V6zM10 6v10.816l4 1.1V7.124L10 6z"/>
</svg>
