<svg width="24" height="24" viewBox="0 0 24 24" fill="none" xmlns="http://www.w3.org/2000/svg">
<path fill-rule="evenodd" clip-rule="evenodd" d="M12.0002 15.9999C15.8662 15.9999 19.0002 12.8659 19.0002 8.99994C19.0002 5.13395 15.8662 1.99994 12.0002 1.99994C8.13425 1.99994 5.00024 5.13395 5.00024 8.99994C5.00024 12.8659 8.13425 15.9999 12.0002 15.9999ZM12.6625 5.92624C12.5579 5.64204 12.3377 5.49994 12.0017 5.49994C11.6657 5.49994 11.4372 5.64099 11.3178 5.92274L10.8292 7.48899H9.12158C8.78383 7.51244 8.58293 7.66609 8.51888 7.94994C8.45448 8.23414 8.56053 8.49769 8.83598 8.74094L10.0988 9.71044L9.55628 11.6116C9.47578 11.9053 9.54613 12.1489 9.76733 12.3421C9.98853 12.5356 10.2769 12.551 10.6325 12.389L12.0017 11.4359L13.3338 12.3687C13.6429 12.5496 13.9267 12.5409 14.1847 12.3421C14.4426 12.1436 14.5179 11.8923 14.4104 11.5885L13.8641 9.71044L15.1675 8.74094C15.4471 8.49594 15.5507 8.23239 15.4783 7.94994C15.4058 7.66749 15.1993 7.51349 14.8598 7.48899H13.141L12.6625 5.92624Z" fill="#3A3A47"/>
<path d="M8.00024 16.5018V21.394C8.00024 22.3105 9.13044 22.7442 9.74354 22.063L12.0002 19.5555L14.257 22.063C14.87 22.7442 16.0002 22.3105 16.0002 21.394V16.5018C14.8081 17.1388 13.4463 17.4999 12.0002 17.4999C10.5541 17.4999 9.19239 17.1388 8.00024 16.5018Z" fill="#3A3A47"/>
</svg>
