<svg width="24" height="24" viewBox="0 0 24 24" fill="none" xmlns="http://www.w3.org/2000/svg">
<path d="M8.00019 16.5018V21.394C8.00019 22.3105 9.13039 22.7442 9.74348 22.063L12.0002 19.5555L14.2569 22.063C14.87 22.7442 16.0002 22.3105 16.0002 21.394V16.5018C14.808 17.1388 13.4463 17.4999 12.0002 17.4999C10.5541 17.4999 9.19234 17.1388 8.00019 16.5018Z" fill="#3A3A47"/>
<path fill-rule="evenodd" clip-rule="evenodd" d="M12.5673 6.3654C12.4776 6.1218 12.2889 6 12.0009 6C11.7129 6 11.517 6.1209 11.4147 6.3624L10.9959 7.70491H9.53225C9.24275 7.72501 9.07055 7.85671 9.01565 8.10001C8.96045 8.34361 9.05135 8.56951 9.28745 8.77801L10.3698 9.60901L9.90485 11.2386C9.83585 11.4903 9.89615 11.6991 10.0857 11.8647C10.2753 12.0306 10.5225 12.0438 10.8273 11.9049L12.0009 11.088L13.1427 11.8875C13.4076 12.0426 13.6509 12.0351 13.872 11.8647C14.0931 11.6946 14.1576 11.4792 14.0655 11.2188L13.5972 9.60901L14.7144 8.77801C14.9541 8.56801 15.0429 8.34211 14.9808 8.10001C14.9187 7.85791 14.7417 7.72591 14.4507 7.70491H12.9774L12.5673 6.3654Z" fill="#3A3A47"/>
<path fill-rule="evenodd" clip-rule="evenodd" d="M12 14C14.7614 14 17 11.7614 17 9C17 6.23858 14.7614 4 12 4C9.23858 4 7 6.23858 7 9C7 11.7614 9.23858 14 12 14ZM19 9C19 12.866 15.866 16 12 16C8.13401 16 5 12.866 5 9C5 5.13401 8.13401 2 12 2C15.866 2 19 5.13401 19 9Z" fill="#3A3A47"/>
</svg>
