<svg width="24" height="24" viewBox="0 0 24 24" fill="none" xmlns="http://www.w3.org/2000/svg">
<path fill-rule="evenodd" clip-rule="evenodd" d="M12 2C17.5228 2 22 6.47715 22 12C22 17.5228 17.5228 22 12 22C6.47715 22 2 17.5228 2 12C2 6.47715 6.47715 2 12 2ZM12 4C7.58172 4 4 7.58172 4 12C4 16.4183 7.58172 20 12 20C16.4183 20 20 16.4183 20 12C20 7.58172 16.4183 4 12 4Z" fill="#3A3A47"/>
<path fill-rule="evenodd" clip-rule="evenodd" d="M11.0116 6.00482H13.0046C13.2827 6.03353 13.499 6.11294 13.6535 6.24303C13.8079 6.37312 13.9233 6.57309 13.9996 6.84296V10H17C17.2956 10.0088 17.5361 10.1096 17.7217 10.3026C17.9072 10.4956 17.9999 10.7281 17.9997 11L17.9999 13C18.0074 13.2587 17.9146 13.49 17.7217 13.694C17.5287 13.898 17.2878 14 16.9991 14H13.9996L13.9999 17.0048C14.0024 17.2426 13.9118 17.4679 13.7281 17.6808C13.5444 17.8936 13.3017 18 13 18H10.9988C10.712 18 10.4738 17.8936 10.2843 17.6808C10.0949 17.4679 10 17.2404 9.99989 16.9982L9.99959 14H6.99999C6.71329 14 6.47364 13.898 6.28104 13.694C6.08844 13.49 5.99484 13.2586 6.00026 12.9999L6.00009 11C5.99669 10.7368 6.09034 10.5044 6.28104 10.3026C6.47174 10.1009 6.71139 10 6.99999 10H9.99959V6.82896C10.056 6.59711 10.1736 6.40179 10.3523 6.24303C10.531 6.08422 10.7508 6.00482 11.0116 6.00482Z" fill="#3A3A47"/>
</svg>
