<svg width="24" height="24" viewBox="0 0 24 24" fill="none" xmlns="http://www.w3.org/2000/svg">
<path d="M12.9341 7.99438H3V19.9831C3 21.3152 3.66667 21.9813 5 21.9813C5.80072 21.9838 6.56805 21.986 7.30198 21.988C6.9018 21.0931 6.87348 20.0194 7.37379 19.0267L12.9341 7.99438Z" fill="#3A3A47"/>
<path d="M2 6V3.99813C2 2.66604 2.67918 2 4.03754 2H20C21.3333 2 22 2.66604 22 3.99813V6H2Z" fill="#3A3A47"/>
<path d="M19.066 7.99438L21 11.8318V7.99438H19.066Z" fill="#3A3A47"/>
<path fill-rule="evenodd" clip-rule="evenodd" d="M21 16.2542L17.2321 8.77823C16.7182 7.75849 15.2818 7.75849 14.7679 8.77823L9.14069 19.9433C8.66984 20.8776 9.3386 21.9866 10.3728 21.9866H18.6345C18.776 21.985 18.8978 21.9832 19 21.9813C20.3333 21.9563 21 21.2902 21 19.9831V16.2542ZM16.2375 11.2272C16.6483 11.3674 16.9443 11.7614 16.9443 12.2255V15.7355C16.9443 15.8212 16.9342 15.9044 16.9152 15.9841C16.8051 16.4457 16.3952 16.7886 15.9064 16.7886C15.4175 16.7886 15.0076 16.4457 14.8976 15.9841C14.8786 15.9044 14.8685 15.8212 14.8685 15.7355V12.2255C14.8685 11.685 15.2698 11.2397 15.7866 11.1794C15.8259 11.1748 15.8659 11.1725 15.9064 11.1725C16.0222 11.1725 16.1335 11.1917 16.2375 11.2272ZM15.9064 17.8416C16.4211 17.8416 16.8702 18.1267 17.1086 18.5498C17.2242 18.7549 17.2902 18.9924 17.2902 19.2456C17.2902 19.5119 17.2171 19.761 17.0902 19.9731C16.8475 20.3787 16.4081 20.6496 15.9064 20.6496C15.4046 20.6496 14.9652 20.3787 14.7226 19.9731C14.5956 19.761 14.5225 19.5119 14.5225 19.2456C14.5225 18.9924 14.5886 18.7549 14.7041 18.5498C14.9425 18.1267 15.3916 17.8416 15.9064 17.8416Z" fill="#3A3A47"/>
<path fill-rule="evenodd" clip-rule="evenodd" d="M9.15329 19.9528L14.7702 8.76627C15.2832 7.74458 16.7168 7.74458 17.2298 8.76627L22.8467 19.9528C23.3167 20.8889 22.6492 22 21.6169 22H10.3831C9.35083 22 8.6833 20.8889 9.15329 19.9528ZM14.5252 19.2538C14.5252 18.4769 15.1437 17.847 15.9065 17.847C16.6694 17.847 17.2879 18.4769 17.2879 19.2538C17.2879 20.0307 16.6694 20.6605 15.9065 20.6605C15.1437 20.6605 14.5252 20.0307 14.5252 19.2538ZM16.9425 12.2202C16.9425 11.6375 16.4787 11.1651 15.9065 11.1651C15.3344 11.1651 14.8706 11.6375 14.8706 12.2202V15.737C14.8706 16.3196 15.3344 16.792 15.9065 16.792C16.4787 16.792 16.9425 16.3196 16.9425 15.737V12.2202Z" fill="#3A3A47"/>
</svg>
