<svg width="24" height="24" viewBox="0 0 24 24" fill="none" xmlns="http://www.w3.org/2000/svg">
<path fill-rule="evenodd" clip-rule="evenodd" d="M12 2C17.5228 2 22 6.47715 22 12C22 17.5228 17.5228 22 12 22C6.47715 22 2 17.5228 2 12C2 6.47715 6.47715 2 12 2ZM13.0046 6.0048H11.0116C10.7508 6.0048 10.5311 6.0842 10.3523 6.243C10.1736 6.40177 10.056 6.59708 9.9996 6.82894V10H7C6.7114 10 6.47175 10.1009 6.28105 10.3026C6.09035 10.5044 5.9967 10.7368 6.0001 11L6.00027 12.9998C5.99485 13.2586 6.08845 13.4899 6.28105 13.694C6.47365 13.898 6.7133 14 7 14H9.9996L9.9999 16.9982C10 17.2404 10.0949 17.4679 10.2843 17.6807C10.4738 17.8936 10.712 18 10.9988 18H13C13.3017 18 13.5444 17.8936 13.7281 17.6807C13.9118 17.4679 14.0024 17.2426 13.9999 17.0048L13.9996 14H16.9991C17.2879 14 17.5287 13.898 17.7217 13.694C17.9147 13.4899 18.0074 13.2586 17.9999 13L17.9997 11C17.9999 10.7281 17.9072 10.4956 17.7217 10.3026C17.5361 10.1096 17.2956 10.0087 17 10H13.9996V6.84294C13.9233 6.57307 13.8079 6.37309 13.6535 6.243C13.499 6.11291 13.2828 6.03351 13.0046 6.0048Z" fill="#3A3A47"/>
</svg>
