<svg width="24" height="24" viewBox="0 0 24 24" fill="none" xmlns="http://www.w3.org/2000/svg">
<path fill-rule="evenodd" clip-rule="evenodd" d="M13.7119 4.52727C14.6906 3.87483 16.0018 4.57664 16.002 5.75285V16.2597C16.002 17.3948 14.7763 18.0862 13.8135 17.537L13.7217 17.4804L11.667 16.1103C10.582 15.387 9.30499 15.003 8.00098 15.0077V18.4989C8.00098 19.3276 7.3296 19.9998 6.50098 19.9999L6.34766 19.9921C5.59102 19.9152 5 19.2759 5 18.4989V14.9999H4.00293L3.79785 14.9902C2.78937 14.8877 2.00195 14.0355 2.00195 12.9999V9.0009C2.00203 7.96544 2.78939 7.11308 3.79785 7.01067L4.00195 7.0009H7.00195L7.36816 6.99407C9.07429 6.93091 10.7358 6.42794 12.1904 5.5341L12.499 5.33586L13.7119 4.52727ZM13.6074 7.0009C11.9298 8.11903 10.0001 8.78752 8.00195 8.95598V13.0077C9.70056 13.0032 11.3629 13.504 12.7764 14.4462L14.002 15.2626V6.73723L13.6074 7.0009ZM4.00195 12.9999L6.00195 12.9989V9.0009H4.00195V12.9999Z" fill="#3A3A47"/>
<path d="M17.7969 14.7929C18.1874 14.4024 18.8204 14.4024 19.2109 14.7929L20.7109 16.2929C21.1014 16.6834 21.1014 17.3165 20.7109 17.707C20.3204 18.0974 19.6874 18.0974 19.2969 17.707L17.7969 16.207C17.4064 15.8165 17.4064 15.1834 17.7969 14.7929Z" fill="#3A3A47"/>
<path d="M21.0039 9.99992C21.5562 9.99992 22.0039 10.4476 22.0039 10.9999C22.0038 11.5521 21.5561 11.9999 21.0039 11.9999H19.0039C18.4517 11.9999 18.004 11.5521 18.0039 10.9999C18.0039 10.4476 18.4516 9.99993 19.0039 9.99992H21.0039Z" fill="#3A3A47"/>
<path d="M19.2969 4.29289C19.6874 3.90237 20.3204 3.90237 20.7109 4.29289C21.1014 4.68342 21.1014 5.31646 20.7109 5.70696L19.2109 7.20696C18.8204 7.59738 18.1874 7.59738 17.7969 7.20696C17.4064 6.81646 17.4064 6.18342 17.7969 5.79289L19.2969 4.29289Z" fill="#3A3A47"/>
</svg>
