<svg width="24" height="24" viewBox="0 0 24 24" fill="none" xmlns="http://www.w3.org/2000/svg">
<path d="M8.00098 18.5009C8.00091 19.3295 7.32956 20.0008 6.50098 20.0009C5.67228 20.0009 5.00007 19.3296 5 18.5009V15.0009L4.00293 15.0019C2.89817 15.0022 2.00206 14.1066 2.00195 13.0019V9.00188C2.00231 7.89761 2.8976 7.00188 4.00195 7.00188H7.00195C7.33703 7.00186 7.67066 6.98374 8.00195 6.95012L8.00098 18.5009Z" fill="#3A3A47"/>
<path d="M17.7969 14.7948C18.1874 14.4043 18.8204 14.4043 19.2109 14.7948L20.7109 16.2948C21.1014 16.6854 21.1014 17.3184 20.7109 17.7089C20.3204 18.0993 19.6874 18.0993 19.2969 17.7089L17.7969 16.2089C17.4064 15.8184 17.4064 15.1854 17.7969 14.7948Z" fill="#3A3A47"/>
<path d="M13.7119 4.52922C14.6906 3.87691 16.0018 4.57866 16.002 5.75481V16.2616C16.002 17.4331 14.6964 18.132 13.7217 17.4823L11.667 16.1122C11.1497 15.7673 10.5884 15.4996 10.002 15.3144V6.53508C10.8812 6.2557 11.7231 5.85509 12.499 5.33782L13.7119 4.52922Z" fill="#3A3A47"/>
<path d="M21.0039 10.0019C21.5562 10.0019 22.0039 10.4496 22.0039 11.0019C22.0038 11.5541 21.5561 12.0019 21.0039 12.0019H19.0039C18.4517 12.0019 18.004 11.5541 18.0039 11.0019C18.0039 10.4496 18.4516 10.0019 19.0039 10.0019H21.0039Z" fill="#3A3A47"/>
<path d="M19.2969 4.29485C19.6874 3.90432 20.3204 3.90432 20.7109 4.29485C21.1014 4.68538 21.1014 5.31841 20.7109 5.70891L19.2109 7.20891C18.8204 7.59933 18.1874 7.59933 17.7969 7.20891C17.4064 6.81841 17.4064 6.18538 17.7969 5.79485L19.2969 4.29485Z" fill="#3A3A47"/>
</svg>
