<svg width="24" height="24" viewBox="0 0 24 24" fill="none" xmlns="http://www.w3.org/2000/svg">
<path fill-rule="evenodd" clip-rule="evenodd" d="M19 10C19.2652 10 19.5196 10.1054 19.7071 10.2929C19.8946 10.4804 20 10.7348 20 11C20 15.071 16.939 18.435 13 18.93V20H15C15.2652 20 15.5196 20.1054 15.7071 20.2929C15.8946 20.4804 16 20.7348 16 21C16 21.2652 15.8946 21.5196 15.7071 21.7071C15.5196 21.8946 15.2652 22 15 22H9C8.73478 22 8.48043 21.8946 8.29289 21.7071C8.10536 21.5196 8 21.2652 8 21C8 20.7348 8.10536 20.4804 8.29289 20.2929C8.48043 20.1054 8.73478 20 9 20H11V18.93C7.061 18.435 4 15.071 4 11C4 10.7348 4.10536 10.4804 4.29289 10.2929C4.48043 10.1054 4.73478 10 5 10C5.26522 10 5.51957 10.1054 5.70711 10.2929C5.89464 10.4804 6 10.7348 6 11C6 14.308 8.691 17 12 17C15.309 17 18 14.308 18 11C18 10.7348 18.1054 10.4804 18.2929 10.2929C18.4804 10.1054 18.7348 10 19 10Z" fill="#3A3A47"/>
<path d="M8 6C8 3.79086 9.79086 2 12 2C14.2091 2 16 3.79086 16 6V11C16 13.2091 14.2091 15 12 15C9.79086 15 8 13.2091 8 11V6Z" fill="#3A3A47"/>
</svg>
