<svg width="24" height="24" viewBox="0 0 24 24" fill="none" xmlns="http://www.w3.org/2000/svg">
<path fill-rule="evenodd" clip-rule="evenodd" d="M8 6C8 3.79086 9.79086 2 12 2C14.2091 2 16 3.79086 16 6V11C16 13.2091 14.2091 15 12 15C9.79086 15 8 13.2091 8 11V6ZM14 6V11C14 12.1046 13.1046 13 12 13C10.8954 13 10 12.1046 10 11V6C10 4.89543 10.8954 4 12 4C13.1046 4 14 4.89543 14 6Z" fill="#3A3A47"/>
<path d="M19.7071 10.2929C19.5196 10.1054 19.2652 10 19 10C18.7348 10 18.4804 10.1054 18.2929 10.2929C18.1054 10.4804 18 10.7348 18 11C18 14.308 15.309 17 12 17C8.691 17 6 14.308 6 11C6 10.7348 5.89464 10.4804 5.70711 10.2929C5.51957 10.1054 5.26522 10 5 10C4.73478 10 4.48043 10.1054 4.29289 10.2929C4.10536 10.4804 4 10.7348 4 11C4 15.071 7.061 18.435 11 18.93V20H9C8.73478 20 8.48043 20.1054 8.29289 20.2929C8.10536 20.4804 8 20.7348 8 21C8 21.2652 8.10536 21.5196 8.29289 21.7071C8.48043 21.8946 8.73478 22 9 22H15C15.2652 22 15.5196 21.8946 15.7071 21.7071C15.8946 21.5196 16 21.2652 16 21C16 20.7348 15.8946 20.4804 15.7071 20.2929C15.5196 20.1054 15.2652 20 15 20H13V18.93C16.939 18.435 20 15.071 20 11C20 10.7348 19.8946 10.4804 19.7071 10.2929Z" fill="#3A3A47"/>
</svg>
