<svg width="24" height="24" viewBox="0 0 24 24" fill="none" xmlns="http://www.w3.org/2000/svg">
<path d="M19.0261 14.8189L17.5315 13.3244C17.8332 12.6091 18 11.8237 18 11C18 10.7348 18.1054 10.4804 18.2929 10.2929C18.4804 10.1054 18.7348 10 19 10C19.2652 10 19.5196 10.1054 19.7071 10.2929C19.8946 10.4804 20 10.7348 20 11C20 12.3828 19.6468 13.684 19.0261 14.8189Z" fill="#3A3A47"/>
<path d="M8.42029 4.21319L10.0096 5.80252L14 9.79289L15.9341 11.727C15.9774 11.4912 16 11.2483 16 11V6C16 3.79086 14.2091 2 12 2C10.4331 2 9.07654 2.901 8.42029 4.21319Z" fill="#3A3A47"/>
<path d="M3.70711 2.29289C3.31658 1.90237 2.68342 1.90237 2.29289 2.29289C1.90237 2.68342 1.90237 3.31658 2.29289 3.70711L8 9.41421V11C8 13.2091 9.79086 15 12 15C12.4744 15 12.9294 14.9174 13.3517 14.7659L14.8596 16.2738C14.0091 16.7368 13.0347 17 12 17C8.691 17 6 14.308 6 11C6 10.7348 5.89464 10.4804 5.70711 10.2929C5.51957 10.1054 5.26522 10 5 10C4.73478 10 4.48043 10.1054 4.29289 10.2929C4.10536 10.4804 4 10.7348 4 11C4 15.071 7.061 18.435 11 18.93V20H9C8.73478 20 8.48043 20.1054 8.29289 20.2929C8.10536 20.4804 8 20.7348 8 21C8 21.2652 8.10536 21.5196 8.29289 21.7071C8.48043 21.8946 8.73478 22 9 22H15C15.2652 22 15.5196 21.8946 15.7071 21.7071C15.8946 21.5196 16 21.2652 16 21C16 20.7348 15.8946 20.4804 15.7071 20.2929C15.5196 20.1054 15.2652 20 15 20H13V18.93C14.208 18.7782 15.3334 18.3566 16.3133 17.7275L20.2929 21.7071C20.6834 22.0976 21.3166 22.0976 21.7071 21.7071C22.0976 21.3166 22.0976 20.6834 21.7071 20.2929L3.70711 2.29289Z" fill="#3A3A47"/>
</svg>
