<svg width="24" height="24" viewBox="0 0 24 24" fill="none" xmlns="http://www.w3.org/2000/svg">
<path fill-rule="evenodd" clip-rule="evenodd" d="M5 14.936C4.73478 14.936 4.48043 14.8306 4.29289 14.6431C4.10536 14.4556 4 14.2012 4 13.936C4 13.6708 4.10536 13.4164 4.29289 13.2289C4.48043 13.0414 4.73478 12.936 5 12.936H10.071C10.3362 12.936 10.5906 13.0414 10.7781 13.2289C10.9656 13.4164 11.071 13.6708 11.071 13.936V19.009C11.071 19.2742 10.9656 19.5286 10.7781 19.7161C10.5906 19.9036 10.3362 20.009 10.071 20.009C9.80578 20.009 9.55143 19.9036 9.36389 19.7161C9.17636 19.5286 9.071 19.2742 9.071 19.009V14.936H5ZM19.007 9.073C19.2722 9.073 19.5266 9.17836 19.7141 9.36589C19.9016 9.55343 20.007 9.80778 20.007 10.073C20.007 10.3382 19.9016 10.5926 19.7141 10.7801C19.5266 10.9676 19.2722 11.073 19.007 11.073H13.936C13.6708 11.073 13.4164 10.9676 13.2289 10.7801C13.0414 10.5926 12.936 10.3382 12.936 10.073V5C12.936 4.73478 13.0414 4.48043 13.2289 4.29289C13.4164 4.10536 13.6708 4 13.936 4C14.2012 4 14.4556 4.10536 14.6431 4.29289C14.8306 4.48043 14.936 4.73478 14.936 5V9.073H19.006H19.007Z" fill="#3A3A47"/>
</svg>
