<svg width="24" height="24" viewBox="0 0 24 24" fill="none" xmlns="http://www.w3.org/2000/svg">
<path fill-rule="evenodd" clip-rule="evenodd" d="M6.09093 3.19234L5.20944 5.17569L3.02723 6.38803C1.86569 7.03333 1.64473 8.61098 2.5843 9.55055L4.29659 11.2628C4.8523 11.8185 5.68196 11.9973 6.4172 11.7197L9.25633 10.6478L10.9843 12.4298C10.9843 12.4298 10.9543 13.5578 11.9865 13.9289C13.063 14.316 14.2403 13.3487 13.9708 12.1916C13.6787 10.9379 12.4241 11.0025 12.4241 11.0025L10.66 9.23451L11.7169 6.45916C12.0136 5.68603 11.8031 4.81002 11.1876 4.25604L9.25648 2.51803C8.24627 1.60884 6.64291 1.95038 6.09093 3.19234ZM7.1444 5.73543L7.92248 4.00326L9.84671 5.73543L9.11117 7.68619L7.1444 5.73543ZM5.75325 7.17451L7.69871 9.10931L5.71591 9.85018L3.98366 8.12325L5.75325 7.17451Z" fill="#24252E"/>
<path d="M12.4725 21.9959C6.40199 21.9959 2.47382 16.5559 3.05186 11.4189C3.05186 11.4189 4.46956 13.0914 5.96573 12.813C6.20396 15.8148 8.58432 19.2519 13.0892 18.9739C16.5357 18.7612 18.7955 15.9294 18.9521 13.0066C19.1767 8.81265 16.0642 6.18149 12.8363 5.98027C13.0498 4.24701 11.3919 3.06639 11.3919 3.06639C18.3375 2.55171 22.0016 7.85665 22.0016 12.5424C22.0016 17.3652 18.1109 21.9959 12.4725 21.9959Z" fill="#24252E"/>
<path d="M9.97293 12.6298C9.97293 12.6298 10.0229 14.6113 12.1795 15.0021C13.0656 15.1627 14.8115 14.5833 15.0151 12.7384C15.1432 11.5768 14.2177 10.2145 12.8919 9.9987L11.8137 8.96044L12.592 6.9765C18.6843 7.53709 18.725 13.8435 16.7163 16.024C13.9484 19.2789 7.40294 18.4497 6.97607 12.5666L8.9935 11.7967L9.97293 12.6298Z" fill="#24252E"/>
</svg>
