<svg width="24" height="24" viewBox="0 0 24 24" fill="none" xmlns="http://www.w3.org/2000/svg">
<path fill-rule="evenodd" clip-rule="evenodd" d="M7.79134 17C7.37083 17 6.99525 17.2631 6.85154 17.6583L6.48791 18.6583C6.25075 19.3104 6.7327 20 7.42666 20H16.5733C17.2673 20 17.7493 19.3104 17.5121 18.6583L17.1485 17.6583C17.0048 17.2631 16.6292 17 16.2087 17H14V14H19C19.5523 14 20 13.5523 20 13V5C20 4.44772 19.5523 4 19 4H5C4.44772 4 4 4.44772 4 5V13C4 13.5523 4.44772 14 5 14H10V17H7.79134ZM6 12V6H18V12H6Z" fill="#24252E"/>
</svg>
