<svg width="24" height="24" viewBox="0 0 24 24" fill="none" xmlns="http://www.w3.org/2000/svg">
<path fill-rule="evenodd" clip-rule="evenodd" d="M17.6584 18.9831C15.0226 18.0693 12.6832 16.2022 11.1817 13.5287C9.64536 10.7933 9.25876 7.69928 9.86454 4.84127C7.53657 6.25602 5.97627 8.86349 5.97627 11.8423C5.97627 16.3303 9.51549 19.9685 13.8813 19.9685C15.2502 19.9685 16.5363 19.6119 17.6584 18.9831ZM20.0281 17.4864C20.841 17.6086 21.3304 18.5695 20.739 19.1556C18.962 20.9168 16.5447 22 13.8813 22C8.42403 22 4 17.4522 4 11.8423C4 7.14775 7.09808 3.19702 11.3072 2.03273C12.0997 1.81351 12.6488 2.73883 12.3329 3.5175C11.1879 6.34012 11.2909 9.66 12.8932 12.513C14.466 15.3133 17.1399 17.0525 20.0281 17.4864Z" fill="#3A3A47"/>
</svg>
