<svg width="24" height="24" viewBox="0 0 24 24" fill="none" xmlns="http://www.w3.org/2000/svg">
<path d="M7.8118 7.76286C7.73582 7.73398 7.66024 7.70566 7.58521 7.67795C7.49024 7.61034 7.4208 7.50791 7.39658 7.38679L6.83182 4.56302C6.78085 4.30814 6.94614 4.0602 7.20101 4.00923C7.45588 3.95826 7.70382 4.12355 7.7548 4.37842L8.24389 6.82386H8.98757C9.19541 6.82386 9.37863 6.96019 9.43835 7.15926L9.8878 8.65741C9.8445 8.63618 9.80107 8.61508 9.75753 8.59414C9.43519 8.43903 9.09472 8.28597 8.7498 8.13975L8.63741 7.76512H7.85806C7.84248 7.76512 7.82704 7.76435 7.8118 7.76286Z" fill="#3A3A47"/>
<path d="M9.91312 12.5216C9.53236 12.5285 9.12305 12.5151 8.71278 12.4891C8.62865 12.4838 8.5437 12.4779 8.45814 12.4714H7.29421C7.09164 12.4714 6.9118 12.6011 6.84774 12.7932L5.90648 15.617C5.82429 15.8636 5.95755 16.1301 6.20413 16.2123C6.45071 16.2945 6.71724 16.1612 6.79943 15.9147L7.63342 13.4127H9.17673C9.35499 13.4127 9.51795 13.312 9.59767 13.1525L9.91312 12.5216Z" fill="#3A3A47"/>
<path d="M10.1297 14.3998C10.17 13.6829 10.3109 13.0268 10.5235 12.4895C10.5656 12.4856 10.607 12.4812 10.6476 12.4765C10.9184 12.445 11.2189 12.3898 11.4878 12.2795C11.614 12.2277 11.8172 12.129 12 11.9541C12.1828 12.129 12.3859 12.2277 12.5122 12.2795C12.781 12.3898 13.0816 12.445 13.3523 12.4765C13.3933 12.4813 13.435 12.4856 13.4773 12.4896C13.6904 13.028 13.8314 13.6856 13.8713 14.4043L14.421 16.2364H15.2003C15.4247 16.2364 15.6178 16.3947 15.6618 16.6147L16.2266 19.4385C16.2775 19.6934 16.1122 19.9413 15.8574 19.9923C15.6025 20.0433 15.3546 19.878 15.3036 19.6231L14.8145 17.1776H14.0708C13.863 17.1776 13.6798 17.0413 13.62 16.8423L13.6053 16.7933C13.2742 17.8709 12.6792 18.5895 12.0004 18.5895C11.3212 18.5895 10.726 17.8701 10.3949 16.7915L10.3797 16.8423C10.32 17.0413 10.1368 17.1776 9.92894 17.1776H9.18525L8.69616 19.6231C8.64519 19.878 8.39725 20.0433 8.14238 19.9923C7.8875 19.9413 7.72221 19.6934 7.77318 19.4385L8.33794 16.6147C8.38194 16.3947 8.57509 16.2364 8.79943 16.2364H9.57877L10.1297 14.3998Z" fill="#3A3A47"/>
<path d="M14.0871 12.5216L14.4026 13.1525C14.4823 13.312 14.6453 13.4127 14.8235 13.4127H16.3668L17.2008 15.9147C17.283 16.1612 17.5495 16.2945 17.7961 16.2123C18.0427 16.1301 18.176 15.8636 18.0938 15.617L17.1525 12.7932C17.0885 12.6011 16.9086 12.4714 16.706 12.4714H15.5418C15.4562 12.4779 15.3713 12.4838 15.2871 12.4891C14.877 12.5151 14.4678 12.5285 14.0871 12.5216Z" fill="#3A3A47"/>
<path d="M16.6032 7.38679C16.5789 7.50799 16.5094 7.61048 16.4144 7.67809C16.3395 7.70575 16.264 7.73402 16.1882 7.76283C16.1729 7.76434 16.1574 7.76512 16.1417 7.76512H15.3623L15.2499 8.13983C14.9051 8.28603 14.5647 8.43906 14.2424 8.59414C14.1988 8.61512 14.1553 8.63625 14.1119 8.65751L14.5614 7.15926C14.6211 6.96019 14.8043 6.82386 15.0122 6.82386H15.7559L16.245 4.37842C16.2959 4.12355 16.5439 3.95826 16.7987 4.00923C17.0536 4.0602 17.2189 4.30814 17.1679 4.56302L16.6032 7.38679Z" fill="#3A3A47"/>
<path d="M13.4964 8.97532C13.3389 8.76945 13.1398 8.59704 12.9117 8.47063C12.931 8.39553 12.9413 8.31681 12.9413 8.2357C12.9413 7.87075 12.7336 7.5543 12.4299 7.39813L12.0936 4.37138C12.0812 4.25974 11.9189 4.25974 11.9065 4.37138L11.5702 7.39808C11.2665 7.55423 11.0588 7.8707 11.0588 8.2357C11.0588 8.31695 11.0691 8.3958 11.0884 8.47101C10.8605 8.59747 10.6616 8.76985 10.5042 8.97567C10.8478 9.16338 11.1656 9.35694 11.43 9.54969C11.624 9.69116 11.8307 9.86157 12 10.059C12.1693 9.86157 12.3759 9.69116 12.57 9.54969C12.8345 9.35682 13.1525 9.16314 13.4964 8.97532Z" fill="#3A3A47"/>
<path d="M11.3525 11.0943C11.5597 10.3411 7.56948 8.64496 5.72895 8.16444C3.88843 7.68392 2.22847 7.90497 2.02134 8.65816C1.81421 9.41136 3.13834 10.4115 4.97887 10.892C6.8194 11.3725 11.1454 11.8475 11.3525 11.0943Z" fill="#3A3A47"/>
<path d="M12.6475 11.0943C12.4403 10.3411 16.4305 8.64496 18.271 8.16444C20.1116 7.68392 21.7715 7.90497 21.9787 8.65816C22.1858 9.41136 20.8617 10.4115 19.0211 10.892C17.1806 11.3725 12.8546 11.8475 12.6475 11.0943Z" fill="#3A3A47"/>
</svg>
