<svg width="24" height="24" viewBox="0 0 24 24" fill="none" xmlns="http://www.w3.org/2000/svg">
<path d="M7.58521 7.67795C7.66024 7.70566 7.73582 7.73398 7.8118 7.76286C7.82704 7.76435 7.84248 7.76512 7.85806 7.76512H8.63741L8.7498 8.13975C9.09472 8.28597 9.43519 8.43903 9.75753 8.59414C9.80107 8.61508 9.8445 8.63618 9.8878 8.65741L9.43835 7.15926C9.37863 6.96019 9.19541 6.82386 8.98757 6.82386H8.24389L7.7548 4.37842C7.70382 4.12355 7.45588 3.95826 7.20101 4.00923C6.94614 4.0602 6.78085 4.30814 6.83182 4.56302L7.39658 7.38679C7.4208 7.50791 7.49024 7.61034 7.58521 7.67795Z" fill="#3A3A47"/>
<path d="M8.71278 12.4891C9.12305 12.5151 9.53236 12.5285 9.91312 12.5216L9.59767 13.1525C9.51795 13.312 9.35499 13.4127 9.17673 13.4127H7.63342L6.79943 15.9147C6.71724 16.1612 6.45071 16.2945 6.20413 16.2123C5.95755 16.1301 5.82429 15.8636 5.90648 15.617L6.84774 12.7932C6.9118 12.6011 7.09164 12.4714 7.29421 12.4714H8.45814C8.5437 12.4779 8.62865 12.4838 8.71278 12.4891Z" fill="#3A3A47"/>
<path d="M14.4026 13.1525L14.0871 12.5216C14.4678 12.5285 14.877 12.5151 15.2871 12.4891C15.3713 12.4838 15.4562 12.4779 15.5418 12.4714H16.706C16.9086 12.4714 17.0885 12.6011 17.1525 12.7932L18.0938 15.617C18.176 15.8636 18.0427 16.1301 17.7961 16.2123C17.5495 16.2945 17.283 16.1612 17.2008 15.9147L16.3668 13.4127H14.8235C14.6453 13.4127 14.4823 13.312 14.4026 13.1525Z" fill="#3A3A47"/>
<path d="M16.4144 7.67809C16.5094 7.61048 16.5789 7.50799 16.6032 7.38679L17.1679 4.56302C17.2189 4.30814 17.0536 4.0602 16.7987 4.00923C16.5439 3.95826 16.2959 4.12355 16.245 4.37842L15.7559 6.82386H15.0122C14.8043 6.82386 14.6211 6.96019 14.5614 7.15926L14.1119 8.65751C14.1553 8.63625 14.1988 8.61512 14.2424 8.59414C14.5647 8.43906 14.9051 8.28603 15.2499 8.13983L15.3623 7.76512H16.1417C16.1574 7.76512 16.1729 7.76434 16.1882 7.76283C16.264 7.73402 16.3395 7.70575 16.4144 7.67809Z" fill="#3A3A47"/>
<path d="M12.9117 8.47063C13.1398 8.59704 13.3389 8.76945 13.4964 8.97532C13.1525 9.16314 12.8345 9.35682 12.57 9.54969C12.3759 9.69116 12.1693 9.86157 12 10.059C11.8307 9.86157 11.624 9.69116 11.43 9.54969C11.1656 9.35694 10.8478 9.16338 10.5042 8.97567C10.6616 8.76985 10.8605 8.59747 11.0884 8.47101C11.0691 8.3958 11.0588 8.31695 11.0588 8.2357C11.0588 7.8707 11.2665 7.55423 11.5702 7.39808L11.9065 4.37138C11.9189 4.25974 12.0812 4.25974 12.0936 4.37138L12.4299 7.39813C12.7336 7.5543 12.9413 7.87075 12.9413 8.2357C12.9413 8.31681 12.931 8.39553 12.9117 8.47063Z" fill="#3A3A47"/>
<path d="M5.72895 8.16444C7.56948 8.64496 11.5597 10.3411 11.3525 11.0943C11.1454 11.8475 6.8194 11.3725 4.97887 10.892C3.13834 10.4115 1.81421 9.41136 2.02134 8.65816C2.22847 7.90497 3.88843 7.68392 5.72895 8.16444Z" fill="#3A3A47"/>
<path d="M18.271 8.16444C16.4305 8.64496 12.4403 10.3411 12.6475 11.0943C12.8546 11.8475 17.1806 11.3725 19.0211 10.892C20.8617 10.4115 22.1858 9.41136 21.9787 8.65816C21.7715 7.90497 20.1116 7.68392 18.271 8.16444Z" fill="#3A3A47"/>
<path d="M10.5235 12.4895C10.3109 13.0268 10.17 13.6829 10.1297 14.3998L9.57877 16.2364H8.79943C8.57509 16.2364 8.38194 16.3947 8.33794 16.6147L7.77318 19.4385C7.72221 19.6934 7.8875 19.9413 8.14238 19.9923C8.39725 20.0433 8.64519 19.878 8.69616 19.6231L9.18525 17.1776H9.92894C10.1368 17.1776 10.32 17.0413 10.3797 16.8423L10.3949 16.7915C10.726 17.8701 11.3212 18.5895 12.0004 18.5895C12.6792 18.5895 13.2742 17.8709 13.6053 16.7933L13.62 16.8423C13.6798 17.0413 13.863 17.1776 14.0708 17.1776H14.8145L15.3036 19.6231C15.3546 19.878 15.6025 20.0433 15.8574 19.9923C16.1122 19.9413 16.2775 19.6934 16.2266 19.4385L15.6618 16.6147C15.6178 16.3947 15.4247 16.2364 15.2003 16.2364H14.421L13.8713 14.4043C13.8314 13.6856 13.6904 13.028 13.4773 12.4896C13.435 12.4856 13.3933 12.4813 13.3523 12.4765C13.0816 12.445 12.781 12.3898 12.5122 12.2795C12.3859 12.2277 12.1828 12.129 12 11.9541C11.8172 12.129 11.614 12.2277 11.4878 12.2795C11.2189 12.3898 10.9184 12.445 10.6476 12.4765C10.607 12.4812 10.5656 12.4856 10.5235 12.4895Z" fill="#3A3A47"/>
</svg>
