<svg width="24" height="24" viewBox="0 0 24 24" fill="none" xmlns="http://www.w3.org/2000/svg">
<path fill-rule="evenodd" clip-rule="evenodd" d="M5.99986 22C8.209 22 9.99986 20.2091 9.99986 18C9.99986 15.7909 8.209 14 5.99986 14C3.79072 14 1.99986 15.7909 1.99986 18C1.99986 20.2091 3.79072 22 5.99986 22ZM6.00008 20.0003C7.10465 20.0003 8.00008 19.1048 8.00008 18.0003C8.00008 16.8957 7.10465 16.0003 6.00008 16.0003C4.89551 16.0003 4.00008 16.8957 4.00008 18.0003C4.00008 19.1048 4.89551 20.0003 6.00008 20.0003Z" fill="#3A3A47"/>
<path fill-rule="evenodd" clip-rule="evenodd" d="M9.49986 5C9.49986 4.44772 9.94758 4 10.4999 4H13.2791C14.14 4 14.9042 4.55086 15.1765 5.36754L15.3527 5.89624L15.3573 5.89313L16.4073 5.19314C16.5962 5.0672 16.8182 5 17.0452 5H17.8498C18.4849 5 18.9998 5.51487 18.9998 6.15V6.84996C18.9998 7.48509 18.485 7.99995 17.8498 7.99996L16.054 7.99999L17.7238 14.0094C17.815 14.0032 17.9071 14 17.9999 14C20.209 14 21.9999 15.7909 21.9999 18C21.9999 20.2091 20.209 22 17.9999 22C15.7907 22 13.9999 20.2091 13.9999 18C13.9999 16.5923 14.7271 15.3544 15.8263 14.6415L15.3761 13.2909L15.3601 13.3026C14.8324 13.6836 14.2311 14.3681 13.7624 15.2352C13.2962 16.0975 12.9999 17.0688 12.9999 18H10.9999C10.9999 16.7689 10.4814 15.5 9.62746 14.5394C8.775 13.5804 7.6563 13 6.49986 13H3.49885C2.66777 13 1.99986 12.3258 1.99986 11.5C1.99986 10.6716 2.67144 10 3.49986 10H5.7638C6.07429 10 6.38051 10.0723 6.65822 10.2111L9.95609 11.8601L13.7179 9.60299C13.844 9.52734 13.9664 9.46586 14.0849 9.41748L13.2791 6H10.4999C9.94758 6 9.49986 5.55228 9.49986 5ZM16.5036 16.6734C16.1903 17.0265 16.0001 17.4912 16.0001 18.0003C16.0001 19.1048 16.8955 20.0003 18.0001 20.0003C19.1047 20.0003 20.0001 19.1048 20.0001 18.0003C20.0001 17.0329 19.3133 16.226 18.4008 16.0404L18.9485 17.6838C19.1232 18.2077 18.84 18.774 18.3161 18.9487C17.7922 19.1233 17.2258 18.8402 17.0512 18.3162L16.5036 16.6734Z" fill="#3A3A47"/>
<path d="M6.99986 18C6.99986 18.5523 6.55215 19 5.99986 19C5.44758 19 4.99986 18.5523 4.99986 18C4.99986 17.4477 5.44758 17 5.99986 17C6.55215 17 6.99986 17.4477 6.99986 18Z" fill="#3A3A47"/>
</svg>
