<svg width="24" height="24" viewBox="0 0 24 24" fill="none" xmlns="http://www.w3.org/2000/svg">
<path fill-rule="evenodd" clip-rule="evenodd" d="M14.0001 8C15.3334 8 16.0001 8.66667 16.0001 10V11C18.6668 11 20.0001 12.3329 20.0001 14.9986V15.9996C20.0001 18.6665 18.6668 20 16.0001 20C16.0001 21.3333 15.3338 22 14.0011 22H5C3.667 22 3.00034 21.3333 3 20V10C3 8.66667 3.6667 8 5.0001 8H14.0001ZM16.0001 13V18C17.2728 18 17.9381 17.3926 17.996 16.1777L18.0001 16V15.0028C18.0001 13.6676 17.3334 13 16.0001 13ZM7.00453 2C7.66791 2 7.99973 2.33333 8 3V6C7.99973 6.66667 7.6664 7 7 7C6.3336 7 6.00027 6.66667 6 6V3C6.0063 2.33333 6.34115 2 7.00453 2ZM11 4C11.6664 4 11.9997 4.33333 12 5V6C11.9997 6.66667 11.6678 7 11.0043 7C10.3407 7 10.006 6.66667 10 6V5C10.0003 4.33333 10.3336 4 11 4Z" fill="#3A3A47"/>
</svg>
