<svg xmlns="http://www.w3.org/2000/svg" xmlns:xlink="http://www.w3.org/1999/xlink" width="24" height="24" viewBox="0 0 24 24">
    <defs>
        <path id="a" d="M13 8a4 4 0 1 1-8 0 4 4 0 0 1 8 0zm7 1.5a2.5 2.5 0 1 1-5 0 2.5 2.5 0 0 1 5 0zM2 18c0-2.667 1.335-4 4.004-4H12c2.668 0 4.001 1.333 4 4 0 1.333-.667 2-2 2H4c-1.333 0-2-.667-2-2zm16-4c2.668 0 4.001 1.333 4 4 0 1.333-.667 2-2 2h-3c.667-.246 1-1.246 1-3 0-1.118-.667-2.118-2-3h2z"/>
    </defs>
    <use fill="#686A75" fill-rule="evenodd" xlink:href="#a"/>
</svg>
