<svg xmlns="http://www.w3.org/2000/svg" xmlns:xlink="http://www.w3.org/1999/xlink" width="24" height="24" viewBox="0 0 24 24">
    <defs>
        <path id="a" d="M10 10c2.668 0 4.001 1.333 4 4 0 1.333-.667 2-2 2H2c-1.333 0-2-.667-2-2 0-2.667 1.335-4 4.004-4H10zm6 0c2.668 0 4.001 1.333 4 4 0 1.333-.667 2-2 2h-3c.667-.246 1-1.246 1-3 0-1.118-.667-2.118-2-3h2zm-.5-7a2.5 2.5 0 1 1 0 5 2.5 2.5 0 0 1 0-5zM7 0a4 4 0 1 1 0 8 4 4 0 0 1 0-8z"/>
    </defs>
    <use fill="#3A3A47" fill-rule="evenodd" transform="translate(2 4)" xlink:href="#a"/>
</svg>
