<svg width="24" height="24" viewBox="0 0 24 24" fill="none" xmlns="http://www.w3.org/2000/svg">
<path d="M12 13.5C14.6677 13.5 16.001 15.1667 16 18.5C16 19.8333 15.3333 20.5 14 20.5H4C2.66667 20.5 2 19.8333 2 18.5C2 15.1667 3.33458 13.5 6.00373 13.5H12ZM18 13.5C20.6677 13.5 22.001 15.1667 22 18.5C22 19.8333 21.3333 20.5 20 20.5H17.0158C17.6719 20.5 18 19.5 18 17.5C18 15.7787 17.3333 14.4454 16 13.5H18ZM17.5 6.5C18.8806 6.5 20 7.61938 20 9C20 10.3806 18.8806 11.5 17.5 11.5C16.1194 11.5 15 10.3806 15 9C15 7.61938 16.1194 6.5 17.5 6.5ZM9 3.5C11.209 3.5 13 5.291 13 7.5C13 9.709 11.209 11.5 9 11.5C6.791 11.5 5 9.709 5 7.5C5 5.291 6.791 3.5 9 3.5Z" fill="#3A3A47"/>
</svg>
