<svg xmlns="http://www.w3.org/2000/svg" width="24" height="24" viewBox="0 0 24 24">
    <path fill="#3A3A47" fill-rule="evenodd" d="M12 14c2.668 0 4.001 1.333 4 4 0 1.333-.667 2-2 2H4c-1.333 0-2-.667-2-2 0-2.667 1.335-4 4.004-4H12zm6 0c2.668 0 4.001 1.333 4 4 0 1.333-.667 2-2 2h-3c.667-.246 1-1.246 1-3 0-1.118-.667-2.118-2-3h2zm-7 2H7.004c-1.923 0-2.922.614-3 1.843L4 18h10c0-1.333-1-2-3-2zm6.5-9a2.5 2.5 0 1 1 0 5 2.5 2.5 0 0 1 0-5zM9 4a4 4 0 1 1 0 8 4 4 0 0 1 0-8zm0 2a2 2 0 1 0 0 4 2 2 0 0 0 0-4z"/>
</svg>
