<svg width="24" height="24" viewBox="0 0 24 24" fill="none" xmlns="http://www.w3.org/2000/svg">
<path d="M10 16.75C10 16.3358 10.3358 16 10.75 16C11.1642 16 11.5 16.3358 11.5 16.75V17.25C11.5 17.6642 11.1642 18 10.75 18C10.3358 18 10 17.6642 10 17.25V16.75Z" fill="#24252E"/>
<path d="M13.25 16C12.8358 16 12.5 16.3358 12.5 16.75V17.25C12.5 17.6642 12.8358 18 13.25 18C13.6642 18 14 17.6642 14 17.25V16.75C14 16.3358 13.6642 16 13.25 16Z" fill="#24252E"/>
<path fill-rule="evenodd" clip-rule="evenodd" d="M22 11C22 14.2718 20.4287 15.7728 17.9996 16.4529C17.9999 16.4685 18 16.4842 18 16.5C18 18.6302 18 22 12 22C6 22 6 18.6302 6 16.5C6 16.4842 6.00015 16.4685 6.00044 16.4529C3.5713 15.7728 2 14.2718 2 11C2 5.47715 6.47715 2 12 2C17.5228 2 22 5.47715 22 11ZM15 9C15 10.6569 13.6569 12 12 12C10.3432 12 9.00004 10.6569 9.00004 9C9.00004 7.34315 10.3432 6 12 6C13.6569 6 15 7.34315 15 9ZM19.949 11.8883C19.5917 13.222 18.6533 14.1293 17.8531 13.9149C17.0529 13.7005 16.6939 12.4455 17.0512 11.1118C17.4086 9.77817 18.347 8.87084 19.1472 9.08525C19.9474 9.29966 20.3064 10.5546 19.949 11.8883ZM6.74302 13.9148C7.54322 13.7004 7.90222 12.4454 7.54486 11.1117C7.18751 9.77808 6.24913 8.87075 5.44893 9.08516C4.64873 9.29957 4.28973 10.5545 4.64709 11.8882C5.00444 13.2219 5.94282 14.1292 6.74302 13.9148ZM15.5935 18.9282C15.9464 18.4065 16 17.6691 16 16.5C16 16.4073 15.9712 16.0918 15.2646 15.6957C14.5538 15.2972 13.4139 15 12 15C10.5862 15 9.44623 15.2972 8.73544 15.6957C8.02884 16.0918 8.00004 16.4073 8.00004 16.5C8.00004 17.6691 8.0537 18.4065 8.40662 18.9282C8.63767 19.2698 9.34974 20 12 20C14.6503 20 15.3624 19.2698 15.5935 18.9282Z" fill="#24252E"/>
</svg>
