<svg xmlns="http://www.w3.org/2000/svg" width="24" height="24" viewBox="0 0 24 24">
    <path fill="#686A75" fill-rule="evenodd" d="M18.87 13.212c.942.943.942 1.886 0 2.828l-.708.708 1.414 1.414 1.415-1.414c.471-.472.942-.472 1.414 0 .471.471.471.942 0 1.414l-4.243 4.242c-.471.472-.943.472-1.414 0-.472-.47-.472-.942 0-1.414l1.414-1.414-1.414-1.414-.707.707c-.943.943-1.886.943-2.829 0-1.413-1.415-4.9-4.9-7.07-7.071-.943-.943-.943-1.886 0-2.829l.706-.707L2.81 4.247H5.64l2.624 2.601.707-.707c.943-.943 1.885-.943 2.828 0l7.071 7.071zm-1.415 1.414l-7.071-7.07-2.828 2.828 1.414 1.414.707-.707c.471-.472.943-.472 1.414 0 .472.471.472.943 0 1.414l-.707.707 1.414 1.414.707-.707c.476-.467.947-.467 1.415 0 .467.468.467.939 0 1.414l-.708.707 1.415 1.415 2.828-2.829z"/>
</svg>
