<svg width="24" height="24" viewBox="0 0 24 24" fill="none" xmlns="http://www.w3.org/2000/svg">
<path fill-rule="evenodd" clip-rule="evenodd" d="M22 12.1468C21.6697 11.9965 21.2882 11.897 20.8575 11.897C19.8965 11.897 19.1823 12.3917 18.732 12.8525L17.9137 13.6709L17.0867 12.8443L17.0857 12.8432C16.6325 12.3894 15.9182 11.903 14.9644 11.903C14.0104 11.903 13.2959 12.3897 12.8428 12.8428C12.558 13.1275 12.2605 13.5151 12.0784 14H2V10H22V12.1468ZM6.70711 12.7071C6.51957 12.8946 6.26522 13 6 13C5.73478 13 5.48043 12.8946 5.29289 12.7071C5.10536 12.5196 5 12.2652 5 12C5 11.7348 5.10536 11.4804 5.29289 11.2929C5.48043 11.1054 5.73478 11 6 11C6.26522 11 6.51957 11.1054 6.70711 11.2929C6.89464 11.4804 7 11.7348 7 12C7 12.2652 6.89464 12.5196 6.70711 12.7071Z" fill="#3A3A47"/>
<path fill-rule="evenodd" clip-rule="evenodd" d="M12.1061 16C12.2897 16.4517 12.5722 16.8153 12.8438 17.0862L12.8458 17.0882L13.6709 17.9137L12.8556 18.729C12.3922 19.1785 11.8955 19.8925 11.8955 20.8552C11.8955 21.287 11.9957 21.6692 12.1464 22H4C2.667 22 2 21.307 2 19.92V16H12.1061ZM6.70711 18.7071C6.51957 18.8946 6.26522 19 6 19C5.73478 19 5.48043 18.8946 5.29289 18.7071C5.10536 18.5196 5 18.2652 5 18C5 17.7348 5.10536 17.4804 5.29289 17.2929C5.48043 17.1054 5.73478 17 6 17C6.26522 17 6.51957 17.1054 6.70711 17.2929C6.89464 17.4804 7 17.7348 7 18C7 18.2652 6.89464 18.5196 6.70711 18.7071Z" fill="#3A3A47"/>
<path fill-rule="evenodd" clip-rule="evenodd" d="M2 8H22V4C22 2.668 21.33 2 19.99 2H4C2.667 2 2 2.667 2 4V8ZM6.70711 6.70711C6.51957 6.89464 6.26522 7 6 7C5.73478 7 5.48043 6.89464 5.29289 6.70711C5.10536 6.51957 5 6.26522 5 6C5 5.73478 5.10536 5.48043 5.29289 5.29289C5.48043 5.10536 5.73478 5 6 5C6.26522 5 6.51957 5.10536 6.70711 5.29289C6.89464 5.48043 7 5.73478 7 6C7 6.26522 6.89464 6.51957 6.70711 6.70711Z" fill="#3A3A47"/>
<path fill-rule="evenodd" clip-rule="evenodd" d="M15.671 14.257L17.914 16.499L20.156 14.257C20.62 13.777 21.091 13.777 21.571 14.257C22.051 14.737 22.051 15.207 21.571 15.671L19.328 17.914L21.571 20.156C22.042 20.628 22.042 21.099 21.571 21.571C21.099 22.042 20.628 22.042 20.156 21.571L17.914 19.328L15.671 21.571C15.211 22.053 14.739 22.053 14.257 21.571C13.775 21.088 13.775 20.617 14.257 20.156L16.499 17.914L14.257 15.671C13.785 15.201 13.785 14.729 14.257 14.257C14.729 13.785 15.2 13.785 15.671 14.257Z" fill="#3A3A47"/>
</svg>
