<svg width="24" height="24" viewBox="0 0 24 24" fill="none" xmlns="http://www.w3.org/2000/svg">
<path d="M5.29289 6.70711C5.48043 6.89464 5.73478 7 6 7C6.26522 7 6.51957 6.89464 6.70711 6.70711C6.89464 6.51957 7 6.26522 7 6C7 5.73478 6.89464 5.48043 6.70711 5.29289C6.51957 5.10536 6.26522 5 6 5C5.73478 5 5.48043 5.10536 5.29289 5.29289C5.10536 5.48043 5 5.73478 5 6C5 6.26522 5.10536 6.51957 5.29289 6.70711Z" fill="#3A3A47"/>
<path fill-rule="evenodd" clip-rule="evenodd" d="M20 12.0354V10.001L4 10V14H12.0784C11.9704 14.2877 11.903 14.6097 11.903 14.9647C11.903 15.3496 11.9822 15.6955 12.1065 16.001L4 16V20H12.0333C11.9474 20.2587 11.8955 20.544 11.8955 20.8552C11.8955 21.287 11.9957 21.6692 12.1464 22H4C2.667 22 2 21.307 2 19.92V4C2 2.667 2.667 2 4 2H19.99C21.33 2 22 2.668 22 4V12.1468C21.6697 11.9965 21.2882 11.897 20.8575 11.897C20.5455 11.897 20.2594 11.9491 20 12.0354ZM20 8H4V4L20 4.001V8Z" fill="#3A3A47"/>
<path d="M5.29289 12.7071C5.48043 12.8946 5.73478 13 6 13C6.26522 13 6.51957 12.8946 6.70711 12.7071C6.89464 12.5196 7 12.2652 7 12C7 11.7348 6.89464 11.4804 6.70711 11.2929C6.51957 11.1054 6.26522 11 6 11C5.73478 11 5.48043 11.1054 5.29289 11.2929C5.10536 11.4804 5 11.7348 5 12C5 12.2652 5.10536 12.5196 5.29289 12.7071Z" fill="#3A3A47"/>
<path d="M5.29289 18.7071C5.48043 18.8946 5.73478 19 6 19C6.26522 19 6.51957 18.8946 6.70711 18.7071C6.89464 18.5196 7 18.2652 7 18C7 17.7348 6.89464 17.4804 6.70711 17.2929C6.51957 17.1054 6.26522 17 6 17C5.73478 17 5.48043 17.1054 5.29289 17.2929C5.10536 17.4804 5 17.7348 5 18C5 18.2652 5.10536 18.5196 5.29289 18.7071Z" fill="#3A3A47"/>
<path fill-rule="evenodd" clip-rule="evenodd" d="M15.671 14.257L17.914 16.499L20.156 14.257C20.62 13.777 21.091 13.777 21.571 14.257C22.051 14.737 22.051 15.207 21.571 15.671L19.328 17.914L21.571 20.156C22.042 20.628 22.042 21.099 21.571 21.571C21.099 22.042 20.628 22.042 20.156 21.571L17.914 19.328L15.671 21.571C15.211 22.053 14.739 22.053 14.257 21.571C13.775 21.088 13.775 20.617 14.257 20.156L16.499 17.914L14.257 15.671C13.785 15.201 13.785 14.729 14.257 14.257C14.729 13.785 15.2 13.785 15.671 14.257Z" fill="#3A3A47"/>
</svg>
