<svg width="24" height="24" viewBox="0 0 24 24" fill="none" xmlns="http://www.w3.org/2000/svg">
<path fill-rule="evenodd" clip-rule="evenodd" d="M16 16C20 16 22 17.3333 22 20C22 21.3333 21.3333 22 20 22H4C2.66667 22 2 21.3333 2 20C2 17.3333 4.00124 16 8.00373 16H16ZM16 18H8C5.33333 18 4 18.6667 4 20H20C20 18.6667 18.6667 18 16 18ZM11.9976 2C13.7589 2 15.5201 2.25831 17.2815 2.77492C17.7074 2.89986 18 3.29062 18 3.73449V9.60081C18 10.1531 17.5523 10.6008 17 10.6008L16.9816 10.6006C16.97 10.6004 16.9583 10.6002 16.9466 10.6C16.9466 11.7745 15.513 15 11.9976 15C8.57475 15 7.12434 11.915 7.05037 10.6948L7.04738 10.6C6.50222 10.6323 6.03407 10.2166 6.00173 9.67145C6.00058 9.65196 6 9.63243 6 9.61291V3.73415C6.00002 3.2904 6.29246 2.89973 6.71823 2.77469C8.47684 2.25823 10.2366 2 11.9976 2ZM12.0007 10C10.3613 10 9.0115 10.2477 9.0115 10.265C9.14572 11.7977 10.4326 13 12 13C13.5734 13 14.864 11.7886 14.99 10.2477C14.99 10.2477 13.6402 10 12.0007 10ZM11.9773 4C10.8061 4 9.64461 4.13316 8.49296 4.39947L8 4.52176V8.5C9.33407 8.16667 10.668 8 12.0017 8C13.1687 8 14.335 8.1276 15.5005 8.38281L16 8.5V4.52176C14.6568 4.17392 13.3159 4 11.9773 4ZM12.5 4.5V5.50175L13.5038 5.50375V6.50185L12.5 6.50191V7.5H11.5V6.50185H10.4982V5.50375H11.5V4.5H12.5Z" fill="#3A3A47"/>
</svg>
