<svg width="24" height="24" viewBox="0 0 24 24" fill="none" xmlns="http://www.w3.org/2000/svg">
<path fill-rule="evenodd" clip-rule="evenodd" d="M8.07175 16C8.19472 16.7578 8.34067 17.296 8.67468 18H8.00373C5.35884 18 4.02426 18.6667 4 20H10.0916C11.3718 21.2095 12.8168 21.8373 14.5998 22H4C2.66667 22 2 21.3333 2 20C2.04534 17.3333 4.06926 16 8.07175 16ZM15 10C17.7614 10 20 12.2386 20 15C20 16.0147 19.6977 16.9588 19.1784 17.7472L19.2734 17.8426C19.7388 18.3099 21.7558 20.3352 21.7558 20.3352C22.1487 20.782 21.9991 21.3484 21.6689 21.6769C21.3388 22.0053 20.7728 22.146 20.3528 21.7309L20.3094 21.6876C19.9717 21.3504 17.7766 19.1588 17.7766 19.1588C16.9823 19.6902 16.0274 20 15 20C12.2386 20 10 17.7614 10 15C10 12.2386 12.2386 10 15 10ZM15 12C13.3431 12 12 13.3431 12 15C12 16.6569 13.3431 18 15 18C16.6569 18 18 16.6569 18 15C18 13.3431 16.6569 12 15 12ZM11.9976 2C13.7589 2 15.5201 2.25831 17.2815 2.77492C17.7074 2.89986 18 3.29062 18 3.73449V8.68031C17.3623 8.37425 16.6955 8.1679 15.9996 8.06125V4.51993C14.6663 4.17331 13.3331 4 12 4C10.6669 4 9.33347 4.17331 7.9996 4.51993V8.49827C10.9721 7.70628 13.8091 8.1006 13.8091 8.1006C11.9355 8.40262 10.5602 9.49425 9.9996 10.1041C9.9996 10.1041 9.39005 10.1681 9.00783 10.2512C9.0115 10.6 9.20499 11.0794 9.20499 11.0794C8.51316 12.0799 8.22033 13.2464 8.22033 13.2464C7.4627 12.3905 7.09754 11.303 7.05222 10.7175L7.04738 10.6C6.50222 10.6323 6.03407 10.2166 6.00173 9.67145C6.00058 9.65196 6 9.63243 6 9.61291V3.73415C6.00002 3.2904 6.29246 2.89973 6.71823 2.77469C8.47684 2.25823 10.2366 2 11.9976 2ZM12.5 4.5V5.50175L13.5038 5.50375V6.50185L12.5 6.50191V7.5H11.5V6.50185H10.4982V5.50375H11.5V4.5H12.5Z" fill="#3A3A47"/>
</svg>
