<svg xmlns="http://www.w3.org/2000/svg" width="24" height="24" viewBox="0 0 24 24">
    <path fill="#3A3A47" fill-rule="evenodd" d="M16 16c4 0 6 1.333 6 4 0 1.333-.667 2-2 2H4c-1.333 0-2-.667-2-2 0-2.667 2.001-4 6.004-4H16zm0 2H8c-2.667 0-4 .667-4 2h16c0-1.333-1.333-2-4-2zM11.998 2c1.76 0 3.522.258 5.283.775a1 1 0 0 1 .719.96V9.6a1 1 0 0 1-1 1h-.018l-.035-.001c0 1.174-1.434 4.4-4.95 4.4-3.422 0-4.873-3.085-4.947-4.305l-.003-.095A.989.989 0 0 1 6 9.613V3.734a1 1 0 0 1 .718-.96A18.655 18.655 0 0 1 11.998 2zM12 10c-1.64 0-2.99.248-2.99.265a3 3 0 0 0 5.979-.017S13.64 10 12 10zm-.024-6c-1.17 0-2.332.133-3.484.4L8 4.521V8.5c1.334-.333 2.668-.5 4.002-.5 1.167 0 2.333.128 3.499.383L16 8.5V4.522A15.991 15.991 0 0 0 11.977 4zm.523.5v1.002l1.004.002v.998H12.5V7.5h-1v-.998h-1.002v-.998H11.5V4.5h1z"/>
</svg>
