<svg xmlns="http://www.w3.org/2000/svg" width="24" height="24" viewBox="0 0 24 24">
    <path fill="#686A75" fill-rule="evenodd" d="M7.912 17.552a5.34 5.34 0 0 1-2.016-.368 4.059 4.059 0 0 1-1.552-1.096c-.427-.485-.757-1.088-.992-1.808S3 12.725 3 11.776c0-.95.117-1.784.352-2.504s.565-1.323.992-1.808c.427-.485.944-.85 1.552-1.096A5.34 5.34 0 0 1 7.912 6a5.34 5.34 0 0 1 2.016.368c.608.245 1.125.61 1.552 1.096.427.485.757 1.088.992 1.808s.352 1.555.352 2.504c0 .95-.117 1.784-.352 2.504s-.565 1.323-.992 1.808c-.427.485-.944.85-1.552 1.096a5.34 5.34 0 0 1-2.016.368zm0-2.16c.736 0 1.31-.24 1.72-.72.41-.48.616-1.168.616-2.064v-1.664c0-.896-.205-1.584-.616-2.064-.41-.48-.984-.72-1.72-.72s-1.31.24-1.72.72c-.41.48-.616 1.168-.616 2.064v1.664c0 .896.205 1.584.616 2.064.41.48.984.72 1.72.72zm12.088.21l.1.1V17.3l-.1.1h-5.823l-.1-.1.032-1.81 2.534-2.332c.226-.21.417-.4.572-.571.153-.169.276-.332.371-.491.094-.157.16-.311.202-.463.04-.152.06-.316.06-.494v-.177a.888.888 0 0 0-.083-.4.857.857 0 0 0-.222-.284.951.951 0 0 0-.315-.172 1.167 1.167 0 0 0-.364-.058c-.182 0-.339.03-.47.092a1.1 1.1 0 0 0-.346.25c-.1.107-.182.23-.249.368a2.21 2.21 0 0 0-.157.455l-.136.07-1.544-.634-.058-.122c.097-.312.23-.609.4-.89.17-.285.384-.534.64-.748a2.89 2.89 0 0 1 .909-.506 3.546 3.546 0 0 1 1.176-.183c.46 0 .87.07 1.227.21.359.14.663.333.912.58.25.246.44.539.572.877.13.338.195.703.195 1.095s-.061.75-.183 1.075a3.808 3.808 0 0 1-.49.904 5.39 5.39 0 0 1-.715.795c-.268.245-.547.495-.84.75l-1.323 1.117H20z"/>
</svg>
