<svg width="24" height="24" viewBox="0 0 24 24" fill="none" xmlns="http://www.w3.org/2000/svg">
<path fill-rule="evenodd" clip-rule="evenodd" d="M7.912 17.5519C7.22254 17.5606 6.53794 17.4356 5.896 17.1839C5.29924 16.9465 4.76734 16.5709 4.344 16.0879C3.917 15.6029 3.587 14.9999 3.352 14.2799C3.117 13.5599 3 12.7249 3 11.7759C3 10.8259 3.117 9.99193 3.352 9.27193C3.587 8.55193 3.917 7.94893 4.344 7.46393C4.771 6.97893 5.288 6.61393 5.896 6.36793C6.53794 6.11626 7.22254 5.99129 7.912 5.99993C8.60146 5.99129 9.28606 6.11626 9.928 6.36793C10.536 6.61293 11.053 6.97793 11.48 7.46393C11.907 7.94893 12.237 8.55193 12.472 9.27193C12.707 9.99193 12.824 10.8269 12.824 11.7759C12.824 12.7259 12.707 13.5599 12.472 14.2799C12.237 14.9999 11.907 15.6029 11.48 16.0879C11.053 16.5729 10.536 16.9379 9.928 17.1839C9.28606 17.4356 8.60146 17.5606 7.912 17.5519ZM7.912 15.3919C8.648 15.3919 9.222 15.1519 9.632 14.6719C10.042 14.1919 10.248 13.5039 10.248 12.6079V10.9439C10.248 10.0479 10.043 9.35993 9.632 8.87993C9.222 8.39993 8.648 8.15993 7.912 8.15993C7.176 8.15993 6.602 8.39993 6.192 8.87993C5.782 9.35993 5.576 10.0479 5.576 10.9439V12.6079C5.576 13.5039 5.781 14.1919 6.192 14.6719C6.602 15.1519 7.176 15.3919 7.912 15.3919ZM20 15.6019L20.1 15.7019V17.2999L20 17.3999H14.177L14.077 17.2999L14.109 15.4899L16.643 13.1579C16.869 12.9479 17.06 12.7579 17.215 12.5869C17.368 12.4179 17.491 12.2549 17.586 12.0959C17.68 11.9389 17.746 11.7849 17.788 11.6329C17.828 11.4809 17.848 11.3169 17.848 11.1389V10.9619C17.8518 10.824 17.8234 10.687 17.765 10.5619C17.712 10.4526 17.6363 10.3558 17.543 10.2779C17.4499 10.2011 17.343 10.1428 17.228 10.1059C17.1105 10.0674 16.9876 10.0479 16.864 10.0479C16.682 10.0479 16.525 10.0779 16.394 10.1399C16.2634 10.1999 16.1459 10.2848 16.048 10.3899C15.948 10.4969 15.866 10.6199 15.799 10.7579C15.7303 10.9034 15.6776 11.056 15.642 11.2129L15.506 11.2829L13.962 10.6489L13.904 10.5269C14.001 10.2149 14.134 9.91793 14.304 9.63693C14.474 9.35193 14.688 9.10293 14.944 8.88893C15.2139 8.66667 15.5219 8.49522 15.853 8.38293C16.2319 8.25611 16.6295 8.19424 17.029 8.19993C17.489 8.19993 17.899 8.26993 18.256 8.40993C18.615 8.54993 18.919 8.74293 19.168 8.98993C19.418 9.23593 19.608 9.52893 19.74 9.86693C19.87 10.2049 19.935 10.5699 19.935 10.9619C19.935 11.3539 19.874 11.7119 19.752 12.0369C19.6303 12.359 19.4655 12.6631 19.262 12.9409C19.0506 13.229 18.8111 13.4953 18.547 13.7359C18.279 13.9809 18 14.2309 17.707 14.4859L16.384 15.6029H20V15.6019Z" fill="#3A3A47"/>
</svg>
