<svg width="24" height="24" viewBox="0 0 24 24" fill="none" xmlns="http://www.w3.org/2000/svg">
<path d="M7.81982 3.80099C7.92206 2.77859 8.78239 2 9.80989 2H14.1899C15.2174 2 16.0778 2.77859 16.18 3.80099L16.78 8.80099C16.8978 9.97836 15.9732 11 14.7899 11H12.9999V13H15.0684C18 13 17.9999 16 16.9999 16H12.9999V18.5L16.2425 19.3106C16.6876 19.4219 16.9999 19.8219 16.9999 20.2808V21C16.9999 21.5523 16.5522 22 15.9999 22C15.4476 22 14.9999 21.5523 14.9999 21L12.9999 20.5V21C12.9999 21.5523 12.5522 22 11.9999 22C11.4476 22 10.9999 21.5523 10.9999 21V20.5L8.99992 21C8.99992 21.5523 8.5522 22 7.99992 22C7.44763 22 6.99992 21.5523 6.99992 21V20.2808C6.99992 19.8219 7.31222 19.4219 7.75738 19.3106L10.9999 18.5V16H6.99992C5.99986 16 5.99998 13 8.93143 13H10.9999V11H9.20989C8.02665 11 7.10208 9.97836 7.21982 8.80099L7.81982 3.80099Z" fill="#24252E"/>
</svg>
