<svg width="24" height="24" viewBox="0 0 24 24" fill="none" xmlns="http://www.w3.org/2000/svg">
<path d="M9 5C9 5.35064 9.06015 5.68722 9.17071 6H6V18H18V14.8293C18.3128 14.9398 18.6494 15 19 15C19.3506 15 19.6872 14.9398 20 14.8293V18C20 19.1046 19.1046 20 18 20H6C4.89543 20 4 19.1046 4 18V6C4 4.89543 4.89543 4 6 4H9.17071C9.06015 4.31278 9 4.64936 9 5Z" fill="#3A3A47"/>
<path d="M13 4C12.4477 4 12 4.44772 12 5C12 5.55228 12.4477 6 13 6H16.5858L11.2929 11.2929C10.9024 11.6834 10.9024 12.3166 11.2929 12.7071C11.6834 13.0976 12.3166 13.0976 12.7071 12.7071L18 7.41421V11C18 11.5523 18.4477 12 19 12C19.5523 12 20 11.5523 20 11V5C20 4.44772 19.5523 4 19 4H13Z" fill="#3A3A47"/>
</svg>
