<svg width="24" height="24" viewBox="0 0 24 24" fill="none" xmlns="http://www.w3.org/2000/svg">
<path d="M12.4998 7.49382C12.4998 7.49382 12.4998 5.67675 18.9947 5.50657C19.5467 5.4921 19.9998 5.94153 19.9998 6.49382V14.4938C19.9998 15.0461 19.5505 15.4907 18.9991 15.5211C14.6662 15.7607 12.4998 17.4938 12.4998 17.4938V7.49382Z" fill="#24252E"/>
<path d="M4 6.49381C4 5.94152 4.45215 5.49186 5.00419 5.50838C10.1367 5.66196 11.2364 6.98624 11.4513 7.38235C11.4903 7.45421 11.4998 7.53515 11.4998 7.61691V17.4938C11.4998 17.4938 9.33339 15.7607 5.00069 15.5211C4.44925 15.4907 4 15.0461 4 14.4938V6.49381Z" fill="#24252E"/>
<path d="M2 8.49377C2 7.94149 2.44772 7.49377 3 7.49377V14.1329C3 15.3687 4.11662 16.3251 5.35246 16.3342C7.26182 16.3483 9.82326 16.7287 11 18.4938H3C2.44772 18.4938 2 18.0461 2 17.4938V8.49377Z" fill="#24252E"/>
<path d="M22 8.49377C22 7.94149 21.5523 7.49377 21 7.49377V14.1329C21 15.3687 19.8834 16.3251 18.6475 16.3342C16.7382 16.3483 14.1767 16.7287 13 18.4938H21C21.5523 18.4938 22 18.0461 22 17.4938V8.49377Z" fill="#24252E"/>
</svg>
