<svg width="24" height="24" viewBox="0 0 24 24" fill="none" xmlns="http://www.w3.org/2000/svg">
<path d="M11.7663 7.99103C10.2187 7.8718 9 6.57822 9 5C9 4.64936 9.06015 4.31278 9.17071 4H6C4.89543 4 4 4.89543 4 6V18C4 19.1046 4.89543 20 6 20H18C19.1046 20 20 19.1046 20 18V14.8293C19.6872 14.9398 19.3506 15 19 15C17.4218 15 16.1282 13.7813 16.009 12.2337L14.1213 14.1213C12.9497 15.2929 11.0503 15.2929 9.87868 14.1213C8.70711 12.9497 8.70711 11.0503 9.87868 9.87868L11.7663 7.99103Z" fill="#3A3A47"/>
<path d="M13 4C12.4477 4 12 4.44772 12 5C12 5.55228 12.4477 6 13 6H16.5858L11.2929 11.2929C10.9024 11.6834 10.9024 12.3166 11.2929 12.7071C11.6834 13.0976 12.3166 13.0976 12.7071 12.7071L18 7.41421V11C18 11.5523 18.4477 12 19 12C19.5523 12 20 11.5523 20 11V5C20 4.44772 19.5523 4 19 4H13Z" fill="#3A3A47"/>
</svg>
