<svg width="24" height="24" viewBox="0 0 24 24" fill="none" xmlns="http://www.w3.org/2000/svg">
<path fill-rule="evenodd" clip-rule="evenodd" d="M18.9947 5.50657C12.4998 5.67675 12.4998 7.49382 12.4998 7.49382V17.4938C12.4998 17.4938 14.6662 15.7607 18.9991 15.5211C19.5505 15.4907 19.9998 15.0461 19.9998 14.4938V6.49382C19.9998 5.94153 19.5467 5.4921 18.9947 5.50657ZM5.00419 5.50838C4.45215 5.49186 4 5.94152 4 6.49381V14.4938C4 15.0461 4.44925 15.4907 5.00069 15.5211C9.33339 15.7607 11.4998 17.4938 11.4998 17.4938V7.61691C11.4998 7.53515 11.4903 7.45421 11.4513 7.38235C11.2364 6.98624 10.1367 5.66196 5.00419 5.50838ZM2 8.49377C2 7.94149 2.44772 7.49377 3 7.49377V14.1329C3 15.3687 4.11662 16.3251 5.35246 16.3342C7.26182 16.3483 9.82326 16.7287 11 18.4938H3C2.44772 18.4938 2 18.0461 2 17.4938V8.49377ZM21 7.49377C21.5523 7.49377 22 7.94149 22 8.49377V17.4938C22 18.0461 21.5523 18.4938 21 18.4938H13C14.1767 16.7287 16.7382 16.3483 18.6475 16.3342C19.8834 16.3251 21 15.3687 21 14.1329V7.49377ZM6 7.5C6 7.5 9.5 8 9.5 8.99994L9.49967 14.5C9.49967 14.5 7.5 13.5 6.00002 13.5L6 7.5ZM18 7.5C18 7.5 14.5 8 14.5 8.99993L14.5003 14.5C14.5003 14.5 16.5 13.5 18 13.5L18 7.5Z" fill="#24252E"/>
</svg>
