<svg width="24" height="24" viewBox="0 0 24 24" fill="none" xmlns="http://www.w3.org/2000/svg">
<path fill-rule="evenodd" clip-rule="evenodd" d="M7.64884 3.63261C8.13918 3.36625 8.51782 3.16056 9.12564 3L19.5449 8.93043L13.0991 20.0113C12.5454 20.9568 11.3191 21.2807 10.36 20.7348L3.41383 16.7812C2.45477 16.2353 2.12617 15.0263 2.67988 14.0808L3.14034 13.2201C3.74076 13.37 4.47815 13.4266 5.34791 13.4042L4.41643 15.0692L8.12849 17.1821L16.719 9.60461L9.85958 5.70037L7.76063 9.28443C8.18356 9.18407 8.64204 9.06511 9.13816 8.9259C9.16395 8.87071 9.19254 8.81619 9.22397 8.76253C9.77768 7.81703 11.004 7.49308 11.9631 8.03897C12.9222 8.58485 13.2508 9.79384 12.6971 10.7393C12.1433 11.6848 10.917 12.0088 9.95792 11.4629C9.7097 11.3216 9.50372 11.1359 9.34433 10.9219C8.26996 11.2138 7.34613 11.418 6.55767 11.5445C5.37551 11.7341 4.41247 11.7639 3.67926 11.594C2.90884 11.4155 2.2151 10.9557 2.03912 10.1048C1.89265 9.39652 2.18278 8.69876 2.48983 8.17459C3.1335 7.0758 4.36427 5.88588 5.58078 4.96121C6.20084 4.4899 6.84712 4.06461 7.45649 3.73676C7.52266 3.70115 7.58691 3.66625 7.64884 3.63261ZM5.19285 9.71539L6.68177 7.173C6.72784 7.13428 6.73324 7.11995 6.71088 7.12328L7.25147 6.20021C7.10319 6.30448 6.954 6.41358 6.80514 6.52673C5.67393 7.38656 4.6794 8.38965 4.22626 9.1632C4.08747 9.40013 4.03638 9.55315 4.0171 9.63592C4.04645 9.64601 4.08586 9.65755 4.13796 9.66962C4.35806 9.72061 4.69837 9.74672 5.19285 9.71539ZM3.94085 9.60021C3.94085 9.60021 3.94674 9.60275 3.95389 9.60947C3.94365 9.60384 3.94085 9.60021 3.94085 9.60021Z" fill="#3A3A47"/>
<path d="M19.9948 18.2638C21.1022 18.2638 22 17.3788 22 16.287C22 15.2827 21.1516 13.6169 20.2352 11.8177C20.1554 11.661 20.0751 11.5033 19.9948 11.345C19.9145 11.5033 19.8342 11.661 19.7544 11.8177C18.838 13.6169 17.9896 15.2827 17.9896 16.287C17.9896 17.3788 18.8874 18.2638 19.9948 18.2638Z" fill="#3A3A47"/>
</svg>
