<svg width="24" height="24" viewBox="0 0 24 24" fill="none" xmlns="http://www.w3.org/2000/svg">
<path d="M2 3C2 2.44772 2.44772 2 3 2H7C7.55228 2 8 2.44772 8 3V7C8 7.55228 7.55228 8 7 8H3C2.44772 8 2 7.55228 2 7V3Z" fill="#3A3A47"/>
<path d="M17 16C16.4477 16 16 16.4477 16 17V21C16 21.5523 16.4477 22 17 22H21C21.5523 22 22 21.5523 22 21V17C22 16.4477 21.5523 16 21 16H17Z" fill="#3A3A47"/>
<path d="M19 11C19.5523 11 20 10.5523 20 10L20 7C20 6.44772 19.5523 6 19 6H10V4H19C20.6569 4 22 5.34315 22 7L22 10C22 11.6569 20.6569 13 19 13L5 13C4.44772 13 4 13.4477 4 14L4 17C4 17.5523 4.44772 18 5 18L14 18V20L5 20C3.34315 20 2 18.6569 2 17V14C2 12.3431 3.34315 11 5 11L19 11Z" fill="#3A3A47"/>
</svg>
