<svg xmlns="http://www.w3.org/2000/svg" width="24" height="24" viewBox="0 0 24 24">
    <path fill="#686A75" fill-rule="evenodd" d="M17.005 2.755c.948-.94 1.89-.94 2.828-.001 1.407 1.409-.002-.004 1.408 1.408.94.941.94 1.883-.003 2.825l-2.83 2.83-4.232-4.233 2.829-2.83zm1.411 1.41L17.001 5.58l1.411 1.411 1.415-1.414-1.411-1.411zm-5.487 2.646l4.233 4.233L7.088 21.117l-3.841.784a1.163 1.163 0 0 1-.89-.195c-.266-.186-.37-.516-.312-.993l.81-3.828L12.93 6.81zm0 2.84l-7.95 7.952-.71 2.12 2.12-.709 7.952-7.951-1.411-1.411z"/>
</svg>
