<svg width="24" height="24" viewBox="0 0 24 24" fill="none" xmlns="http://www.w3.org/2000/svg">
<path d="M13.999 20C14.6659 20 14.999 20.3335 14.999 21.001C14.9989 21.6683 14.6658 22.001 13.999 22.001H9.99998C9.33417 22.001 9.00007 21.6682 8.99998 21.001C8.99998 20.3335 9.33408 20 9.99998 20H13.999Z" fill="#3A3A47"/>
<path fill-rule="evenodd" clip-rule="evenodd" d="M13.0146 2C13.836 1.99984 14.5745 2.51986 14.876 3.31055L17.3193 9.72266C17.7662 10.7892 17.9939 11.4846 18 11.8057C18.0049 12.1264 17.9367 12.4504 17.7949 12.7773L15.5527 16.8584L15.4111 17.084C15.2628 17.3019 15.0942 17.4955 14.9062 17.6631C14.6543 17.8877 14.2743 17.9999 13.7656 18H10.2334L10.0703 17.9951C9.69909 17.9706 9.38742 17.8596 9.13474 17.6631C8.92436 17.5012 8.73969 17.3068 8.58787 17.0869L8.44627 16.8584L6.21873 12.7842C6.07305 12.4823 5.99798 12.149 5.99998 11.8115C6.00608 11.4904 6.23847 10.7924 6.69724 9.71582L9.12595 3.31348C9.40785 2.57114 10.0742 2.06702 10.834 2.00684L10.9863 2.00098L13.0146 2ZM12.75 4.06934V9.45703C13.1978 9.72554 13.499 10.2266 13.499 10.8008C13.499 11.658 12.8274 12.3525 11.999 12.3525C11.1707 12.3524 10.499 11.658 10.499 10.8008C10.499 10.226 10.8013 9.72434 11.25 9.45605V4.07031H10.9873L8.03513 11.8379L10.249 15.9277L13.748 15.9307L15.9824 11.8857L13.0156 4.06934H12.75Z" fill="#3A3A47"/>
</svg>
