<svg xmlns="http://www.w3.org/2000/svg" width="24" height="24" viewBox="0 0 24 24">
    <path fill="#3A3A47" fill-rule="evenodd" d="M17.162 11.044L7.088 21.117l-3.841.784a1.163 1.163 0 0 1-.89-.195c-.266-.186-.37-.516-.312-.993l.81-3.828L12.93 6.81l4.233 4.233zm-2.821.019L12.93 9.652l-7.952 7.951-.709 2.12 2.12-.709 7.952-7.951zm6.9-6.901c.94.941.94 1.883-.003 2.825l-2.83 2.83-4.232-4.233 2.829-2.83c.948-.94 1.89-.94 2.828 0l1.408 1.408zm-1.414 1.415l-1.411-1.411-1.415 1.414 1.411 1.411 1.415-1.414z"/>
</svg>
