<svg width="24" height="24" viewBox="0 0 24 24" fill="none" xmlns="http://www.w3.org/2000/svg">
<path d="M18.0751 13C17.4554 11.6667 16.302 11 14.6148 11H9.61849C7.93037 11 6.77596 11.6667 6.1555 13H18.0751Z" fill="#24252E"/>
<path d="M16.0007 6C16.0007 3.791 14.2097 2 12.0007 2C9.79172 2 8.00072 3.791 8.00072 6C8.00072 8.209 9.79172 10 12.0007 10C14.2097 10 16.0007 8.209 16.0007 6Z" fill="#24252E"/>
<path fill-rule="evenodd" clip-rule="evenodd" d="M4.04104 16.3996C3.78823 15.16 4.73552 14 6.0007 14H18.0407C19.3058 14 20.2531 15.16 20.0003 16.3996L19.1846 20.3996C18.9947 21.331 18.1754 22 17.2249 22H6.81644C5.86591 22 5.0467 21.331 4.85677 20.3996L4.04104 16.3996ZM13.0043 18.0018C13.0043 18.5551 12.5558 19.0036 12.0025 19.0036C11.4492 19.0036 11.0007 18.5551 11.0007 18.0018C11.0007 17.4485 11.4492 17 12.0025 17C12.5558 17 13.0043 17.4485 13.0043 18.0018Z" fill="#24252E"/>
</svg>
