<svg width="24" height="24" viewBox="0 0 24 24" fill="none" xmlns="http://www.w3.org/2000/svg">
<path d="M18.5 7.98975C18.5 9.09432 17.6046 9.98975 16.5 9.98975C15.3954 9.98975 14.5 9.09432 14.5 7.98975C14.5 6.88518 15.3954 5.98975 16.5 5.98975C17.6046 5.98975 18.5 6.88518 18.5 7.98975Z" fill="#24252E"/>
<path fill-rule="evenodd" clip-rule="evenodd" d="M17.1743 3.75942C17.5934 3.39977 17.6416 2.76844 17.282 2.34931C16.9223 1.93018 16.291 1.88195 15.8719 2.2416C13.0456 4.66673 11.4241 6.63487 9.44207 10.0075C8.27769 11.9888 7.2994 14.7017 6.62036 16.8664C6.2161 18.1552 5.8442 19.4565 5.52723 20.7697C5.39975 21.3071 5.73203 21.8461 6.26939 21.9735C6.80252 22.1 7.3474 21.7591 7.47405 21.2279C7.77756 19.9616 8.13903 18.7072 8.52867 17.4651C8.70477 16.9037 8.89825 16.3154 9.1067 15.721L9.9385 16.0829L12.6061 21.4314C12.6061 21.4314 12.9975 22.3063 13.9419 21.879C14.8128 21.485 14.4111 20.582 14.4111 20.582L11.7833 15.3662L16.2932 13.6496C16.955 13.3977 17.1525 12.5566 16.6721 12.0365L13.6131 8.7248C13.2724 8.35592 13.2581 7.79154 13.5797 7.40586L13.8873 7.03702C14.822 5.90785 15.8531 4.89312 17.1743 3.75942ZM12.8591 12.8284L13.4434 11.5493L14.1931 12.3432L12.8591 12.8284Z" fill="#24252E"/>
</svg>
