<svg width="24" height="24" viewBox="0 0 24 24" fill="none" xmlns="http://www.w3.org/2000/svg">
<path d="M18.5 7.98953C18.5 9.0941 17.6046 9.98953 16.5 9.98953C15.3954 9.98953 14.5 9.0941 14.5 7.98953C14.5 6.88496 15.3954 5.98953 16.5 5.98953C17.6046 5.98953 18.5 6.88496 18.5 7.98953Z" fill="#24252E"/>
<path fill-rule="evenodd" clip-rule="evenodd" d="M17.1743 3.7592C17.5934 3.39956 17.6416 2.76823 17.282 2.3491C16.9223 1.92996 16.291 1.88174 15.8719 2.24138C13.0456 4.66652 11.4241 6.63466 9.44207 10.0072C8.27769 11.9885 7.2994 14.7015 6.62036 16.8662C6.2161 18.155 5.8442 19.4563 5.52723 20.7695C5.39975 21.3069 5.73203 21.8458 6.26939 21.9733C6.80252 22.0998 7.3474 21.7589 7.47405 21.2277C7.77756 19.9614 8.13903 18.707 8.52867 17.4648C8.70477 16.9035 8.89825 16.3152 9.1067 15.7208L9.9385 16.0827L12.6061 21.4312C12.6061 21.4312 12.9975 22.3061 13.9419 21.8788C14.8128 21.4848 14.4111 20.5818 14.4111 20.5818L11.7833 15.366L16.2932 13.6494C16.955 13.3975 17.1525 12.5564 16.6721 12.0363L13.6131 8.72459C13.2724 8.3557 13.2581 7.79132 13.5797 7.40564L13.8873 7.03681C14.822 5.90764 15.8531 4.8929 17.1743 3.7592ZM12.8591 12.8282L13.4434 11.5491L14.1931 12.343L12.8591 12.8282Z" fill="#24252E"/>
</svg>
