<svg width="24" height="24" viewBox="0 0 24 24" fill="none" xmlns="http://www.w3.org/2000/svg">
<path d="M12.5 8.00008C14 8.00008 15 8.888 15 8.888L14 10.22C13.5 9.776 11 8.87735 11 11.996C11 15.1043 13.5 14.216 14 13.772L15 15.104C15 15.104 14 15.9921 12.5 15.9921C10.9681 15.9921 8.99994 15.104 8.99994 11.996C8.99994 8.888 10.9779 8.00008 12.5 8.00008Z" fill="#24252E"/>
<path d="M18.509 8C19.9217 8 22 8.888 22 11.996C22 15.104 20.03 16 18.704 16H16V8H18.509ZM18 9.37374V14.6263C18.702 14.6263 19.069 14.4339 19.433 14.0491C19.797 13.6566 20 12.9965 20 11.996C20 11.3111 19.888 10.7436 19.706 10.3665C19.524 9.98942 19.277 9.7316 18.965 9.59307C18.653 9.44685 18.4593 9.37374 18 9.37374Z" fill="#24252E"/>
<path d="M4 8C6 8 8 8.06764 8 10.7316C8 13.3956 6 13.3956 4 13.401V15.992H2V8.06764L4 8ZM4 12.0388C5 12.0388 6 11.996 6 10.664C6 9.332 5 9.41829 4 9.41829V12.0388Z" fill="#24252E"/>
</svg>
