<svg width="24" height="24" viewBox="0 0 24 24" fill="none" xmlns="http://www.w3.org/2000/svg">
<path fill-rule="evenodd" clip-rule="evenodd" d="M13.4979 9.54801C13.6361 9.66336 13.7617 9.79433 13.8723 9.93851L18.4745 15.9376C19.3018 17.0159 19.1341 18.5894 18.1001 19.4521C17.6749 19.8068 17.1467 20 16.6022 20H7.3978C6.07355 20 5.00004 18.8805 5.00004 17.4996C5.00004 16.9318 5.18534 16.3809 5.52546 15.9376L10.1277 9.93851C10.9549 8.86018 12.4638 8.68534 13.4979 9.54801ZM19.5 8C20.8807 8 22 9.11929 22 10.5C22 11.8807 20.8807 13 19.5 13C18.1193 13 17 11.8807 17 10.5C17 9.11929 18.1193 8 19.5 8ZM4.5 8C5.88071 8 7 9.11929 7 10.5C7 11.8807 5.88071 13 4.5 13C3.11929 13 2 11.8807 2 10.5C2 9.11929 3.11929 8 4.5 8ZM15.5 3C16.8807 3 18 4.11929 18 5.5C18 6.88071 16.8807 8 15.5 8C14.1193 8 13 6.88071 13 5.5C13 4.11929 14.1193 3 15.5 3ZM8.5 3C9.88071 3 11 4.11929 11 5.5C11 6.88071 9.88071 8 8.5 8C7.11929 8 6 6.88071 6 5.5C6 4.11929 7.11929 3 8.5 3Z" fill="#3A3A47"/>
</svg>
