<svg xmlns="http://www.w3.org/2000/svg" width="24" height="24" viewBox="0 0 24 24">
    <path fill="#3A3A47" fill-rule="evenodd" d="M4.026 2c1.037 0 2.445 0 4.223.002 0 0 .714-.044 1.299.476s.664 1.154.664 1.154c.137.723.343 1.885.62 3.485 0 0 .134.655-.19 1.241a2.464 2.464 0 0 1-.889.89l-.574.289c.421 1.386 1.73 4.401 5.291 5.326l.317-.623s.256-.581.89-.872c.636-.29 1.265-.185 1.265-.185 1.586.301 2.74.523 3.463.666 0 0 .727.096 1.199.737.471.64.411 1.225.411 1.225V20c0 1.336-.645 2.002-1.936 1.999a4.925 4.925 0 0 1-.477.039c-5.205 0-9.369-1.528-12.394-4.553-3.723-3.723-5.45-8.236-5.18-13.538C2.018 2.649 2.684 2 4.025 2zm4.18 2H4.027c.073 2.276.662 8.147 4.603 12.08 2.713 2.708 6.54 4.053 11.395 3.954v-4.215l-3.45-.689-.367.727c-.1.198-.213.521-.749.781-.459.223-1.031.195-1.186.182l-.04-.004a4.996 4.996 0 0 1-1.01-.246c-3.712-1.307-5.483-4.595-6.049-6.744a1.649 1.649 0 0 1 .089-1.173c.24-.509.667-.728.847-.819l.777-.388L8.205 4z"/>
</svg>
