<svg width="24" height="24" viewBox="0 0 24 24" fill="none" xmlns="http://www.w3.org/2000/svg">
<path fill-rule="evenodd" clip-rule="evenodd" d="M4 5H18V8H20V5C20 3.89543 19.1046 3 18 3H4C2.89543 3 2 3.89543 2 5V16C2 17.1046 2.89543 18 4 18H8V16H4L4 5Z" fill="#3A3A47"/>
<path fill-rule="evenodd" clip-rule="evenodd" d="M10 19C10 20.1046 10.8954 21 12 21H20C21.1046 21 22 20.1046 22 19V12C22 10.8954 21.1046 10 20 10H12C10.8954 10 10 10.8954 10 12V19ZM20 19V12H12V19H20ZM4 5L4 16H8V18H4C2.89543 18 2 17.1046 2 16V5C2 3.89543 2.89543 3 4 3H18C19.1046 3 20 3.89543 20 5V8H18V5H4Z" fill="#3A3A47"/>
</svg>
