<svg width="24" height="24" viewBox="0 0 24 24" fill="none" xmlns="http://www.w3.org/2000/svg">
<path d="M14.5543 19.1721L15.7041 18.0652C16.2556 17.5341 16.5314 16.7784 16.4516 16.017L16.2653 14.2387L18.7757 11.7282C21.1254 12.0999 23.1508 8.88366 21.354 7.0869L16.9655 2.6985C15.1513 0.88429 11.907 2.96322 12.3331 5.32909L9.84297 7.8192L8.03274 7.63244C7.28889 7.5557 6.55005 7.81818 6.02132 8.347L4.86929 9.49926C3.89063 10.4781 3.90091 12.0681 4.89216 13.0342L7.06323 15.1778L2.38393 19.8571C1.89577 20.3452 1.89577 21.1367 2.38392 21.6249C2.87207 22.113 3.66353 22.113 4.15169 21.6249L8.84223 16.9344L11.0752 19.1392C12.0323 20.0962 13.5793 20.1109 14.5543 19.1721Z" fill="#3A3A47"/>
</svg>
