<svg width="24" height="24" viewBox="0 0 24 24" fill="none" xmlns="http://www.w3.org/2000/svg">
<path fill-rule="evenodd" clip-rule="evenodd" d="M15.5596 18.2094L14.4098 19.3164C13.4348 20.2551 11.8878 20.2404 10.9307 19.2834L8.86234 17.215L8.53198 16.8906L3.83027 21.5924C3.43975 21.9829 2.80659 21.9829 2.41606 21.5924C2.02553 21.2018 2.02552 20.5687 2.41604 20.1782L7.10501 15.4891L6.76164 15.1519L4.74767 13.1784C3.75643 12.2123 3.74614 10.6223 4.7248 9.64349L5.87684 8.49123C6.40556 7.9624 7.1444 7.69992 7.88826 7.77667L9.69848 7.96342L12.1886 5.47331C12.0492 4.6996 12.2786 3.8725 12.8766 3.27448L13.3083 2.84274C14.2783 1.87274 15.851 1.87273 16.821 2.84273L21.2095 7.23112C22.1795 8.20113 22.1795 9.77383 21.2095 10.7438L20.7777 11.1756C20.1932 11.7602 19.3897 11.9924 18.6313 11.8725L16.1208 14.3829L16.3071 16.1612C16.3869 16.9227 16.1111 17.6784 15.5596 18.2094ZM12.3454 17.8692C12.5319 18.0556 12.8332 18.0585 13.0232 17.8756L14.1113 16.8279C14.2188 16.7245 14.3341 16.518 14.3185 16.3696L14.0568 13.8724C14.0416 13.7273 14.0927 13.5831 14.1959 13.4799L17.9549 9.72086C17.9698 9.70596 17.9854 9.69224 18.0017 9.67969C18.0265 9.66051 18.0528 9.64407 18.0801 9.63037C18.2614 9.53941 18.4879 9.56957 18.6392 9.72086L18.6797 9.7614C18.8687 9.95034 19.175 9.95034 19.364 9.76139L19.7958 9.32961C19.9847 9.14066 19.9847 8.8343 19.7958 8.64535L15.4073 4.25695C15.2184 4.068 14.912 4.068 14.723 4.25695L14.2913 4.6887C14.1023 4.87765 14.1023 5.18401 14.2913 5.37296L14.3624 5.44411C14.5099 5.59159 14.5423 5.81059 14.4596 5.98947C14.4446 6.02172 14.426 6.05266 14.4036 6.08165C14.391 6.09788 14.3773 6.11349 14.3624 6.12838L10.6031 9.88773C10.5001 9.99073 10.3562 10.0418 10.2113 10.0269L7.6835 9.76611C7.5386 9.75116 7.39468 9.80229 7.29168 9.9053L6.13965 11.0576C5.949 11.2482 5.95101 11.558 6.1441 11.7462L8.82533 14.3594L9.51432 15.0381L12.3454 17.8692Z" fill="#3A3A47"/>
</svg>
