<svg width="24" height="24" viewBox="0 0 24 24" fill="none" xmlns="http://www.w3.org/2000/svg">
<path fill-rule="evenodd" clip-rule="evenodd" d="M14.8671 10.1026C16.1915 9.38137 17.8319 9 19.7877 9C20.2784 9 20.6967 9.35615 20.7749 9.84065C21.0053 11.268 21.1202 12.6533 20.8153 13.93C20.4979 15.2589 19.7474 16.3884 18.4207 17.3324C16.4057 18.7662 14.2541 19 12 19H11L11 18C11 16.7691 11.1833 15.44 11.5844 14.2199C11.9828 13.0078 12.6188 11.8366 13.5716 11.0026C13.9595 10.6631 14.3913 10.3618 14.8671 10.1026ZM18.9228 11.0304C17.64 11.1234 16.6215 11.4246 15.8236 11.8591C15.4742 12.0493 15.1638 12.2669 14.8889 12.5075C14.293 13.0291 13.8138 13.8422 13.4843 14.8445C13.2625 15.5194 13.1187 16.2501 13.0492 16.9768C14.6831 16.8968 16.0185 16.5871 17.2612 15.7029C18.2248 15.0172 18.6736 14.2879 18.87 13.4654C19.0324 12.7853 19.0342 11.994 18.9228 11.0304Z" fill="#3A3A47"/>
<path fill-rule="evenodd" clip-rule="evenodd" d="M9.13292 10.1026C7.80849 9.38137 6.16814 9 4.21235 9C3.72158 9 3.30334 9.35615 3.22513 9.84065C2.99473 11.268 2.87985 12.6533 3.18473 13.93C3.5021 15.2589 4.25263 16.3884 5.57933 17.3324C7.59435 18.7662 9.74589 19 12 19H13L13 18C13 16.7691 12.8167 15.44 12.4157 14.2199C12.0172 13.0078 11.3812 11.8366 10.4284 11.0026C10.0406 10.6631 9.60876 10.3618 9.13292 10.1026ZM5.07725 11.0304C6.36006 11.1234 7.37852 11.4246 8.1764 11.8591C8.52582 12.0493 8.83623 12.2669 9.11116 12.5075C9.70701 13.0291 10.1862 13.8422 10.5157 14.8445C10.7375 15.5194 10.8814 16.2501 10.9509 16.9768C9.31691 16.8968 7.98157 16.5871 6.73884 15.7029C5.77526 15.0172 5.32645 14.2879 5.13003 13.4654C4.96761 12.7853 4.96586 11.994 5.07725 11.0304Z" fill="#3A3A47"/>
<path fill-rule="evenodd" clip-rule="evenodd" d="M7.04962 13.65C7.34233 13.1816 7.95928 13.0393 8.42762 13.332C10.4447 14.5927 10.9562 15.0062 11.8322 16.3202C12.7368 17.6771 13.0001 19.1535 13.0001 20.9999C13.0001 21.5522 12.5524 21.9999 12.0001 21.9999C11.4479 21.9999 11.0001 21.5522 11.0001 20.9999C11.0001 19.3463 10.7635 18.3227 10.1681 17.4296C9.5441 16.4936 9.35052 16.2673 7.36762 15.028C6.89928 14.7353 6.75691 14.1183 7.04962 13.65Z" fill="#3A3A47"/>
<path fill-rule="evenodd" clip-rule="evenodd" d="M6.01209 3C6.01209 2.44772 6.45981 2 7.01209 2C8.31895 2 9.43885 2.26875 10.355 2.79423C10.6835 2.98264 10.9818 3.20187 11.2496 3.44874C11.5396 3.71608 11.7887 4.01036 12.0004 4.32578C12.2121 4.01036 12.4612 3.71609 12.7511 3.44874C13.0189 3.20187 13.3172 2.98264 13.6457 2.79423C14.5619 2.26875 15.6818 2 16.9887 2C17.5409 2 17.9887 2.44772 17.9887 3C17.9887 3.16447 17.9915 3.33586 17.9945 3.51132C18.0051 4.14617 18.0167 4.83416 17.896 5.43952C17.7174 6.33541 17.2634 7.10932 16.3414 7.80023C14.9539 8.84001 13.4733 9 12.0004 9C10.5276 9 9.04684 8.84002 7.65934 7.80023C6.73737 7.10932 6.28335 6.33541 6.10474 5.43952C5.98405 4.83416 5.9956 4.14618 6.00627 3.51132C6.00921 3.33587 6.01209 3.16447 6.01209 3ZM10.9145 6.95135C10.7636 6.0892 10.4167 5.4011 9.894 4.91922C9.73723 4.77471 9.5601 4.6439 9.35999 4.52913C9.00058 4.32299 8.55366 4.16134 8.00094 4.07339C7.99842 4.45774 8.00814 4.75758 8.06614 5.04847C8.14425 5.44024 8.3137 5.79133 8.85872 6.19977C9.46751 6.65599 10.1165 6.86675 10.9145 6.95135ZM13.0863 6.95135C13.8843 6.86676 14.5332 6.656 15.142 6.19977C15.687 5.79133 15.8565 5.44024 15.9346 5.04847C15.9926 4.75758 16.0023 4.45774 15.9998 4.07339C15.4471 4.16134 15.0002 4.32299 14.6408 4.52913C14.4407 4.6439 14.2635 4.7747 14.1068 4.91922C13.5841 5.40109 13.2372 6.08919 13.0863 6.95135Z" fill="#3A3A47"/>
<path fill-rule="evenodd" clip-rule="evenodd" d="M12.0496 5.5C11.4973 5.5 11.0496 5.94772 11.0496 6.5V18.6546C10.9764 19.0816 10.9477 19.5284 10.9598 20H3.04962C2.49734 20 2.04962 20.4477 2.04962 21C2.04962 21.5523 2.49734 22 3.04962 22H21.0496C21.6019 22 22.0496 21.5523 22.0496 21C22.0496 20.4477 21.6019 20 21.0496 20H13.0496V18.8428C13.1611 18.3205 13.3712 17.878 13.6728 17.4605C14.3565 16.5138 14.5499 16.2416 16.5601 14.9852C17.0285 14.6925 17.1708 14.0755 16.8781 13.6072C16.5854 13.1388 15.9685 12.9965 15.5001 13.2892C14.1042 14.1616 13.9505 14.3216 13.0496 15.1697V6.5C13.0496 5.94772 12.6019 5.5 12.0496 5.5Z" fill="#3A3A47"/>
</svg>
