<svg width="24" height="24" viewBox="0 0 24 24" fill="none" xmlns="http://www.w3.org/2000/svg">
<path fill-rule="evenodd" clip-rule="evenodd" d="M19.7879 9C17.8321 9 16.1917 9.38137 14.8673 10.1026C14.3914 10.3618 13.9596 10.6631 13.5718 11.0026C13.3748 11.175 13.1914 11.3619 13.0208 11.5605L13.0002 9C14.1218 8.91111 15.2836 8.59311 16.3416 7.80023C17.2636 7.10932 17.7176 6.33541 17.8962 5.43952C18.0018 4.90984 18.0061 4.3169 17.9984 3.75164C17.9973 3.67089 17.996 3.59067 17.9947 3.51132C17.9917 3.33586 17.9888 3.16447 17.9888 3C17.9888 2.44772 17.5411 2 16.9888 2C15.682 2 14.5621 2.26875 13.6459 2.79423C13.3174 2.98264 13.0191 3.20187 12.7513 3.44874C12.4613 3.71609 12.2123 4.01036 12.0006 4.32578C11.7889 4.01036 11.5398 3.71608 11.2498 3.44874C10.982 3.20187 10.6837 2.98264 10.3552 2.79423C9.43903 2.26875 8.31914 2 7.01227 2C6.45999 2 6.01227 2.44772 6.01227 3C6.01227 3.16447 6.00939 3.33587 6.00645 3.51132C5.99579 4.14618 5.98423 4.83416 6.10492 5.43952C6.28354 6.33541 6.73755 7.10932 7.65952 7.80023C8.74848 8.61629 9.84526 8.91981 11.0002 9V11.5845C10.8238 11.3769 10.6335 11.182 10.4286 11.0026C10.0407 10.6631 9.60894 10.3618 9.1331 10.1026C7.80867 9.38137 6.16833 9 4.21253 9C3.72176 9 3.30352 9.35615 3.22531 9.84065C2.99491 11.268 2.88003 12.6533 3.18491 13.93C3.50228 15.2589 4.25282 16.3884 5.57952 17.3324C7.23921 18.5134 9.17437 18.9073 11.0003 19V20H3.0498C2.49752 20 2.0498 20.4477 2.0498 21C2.0498 21.5523 2.49752 22 3.0498 22H21.0498C21.6021 22 22.0498 21.5523 22.0498 21C22.0498 20.4477 21.6021 20 21.0498 20H13.0002V19C14.8741 18.9184 16.7209 18.542 18.4209 17.3324C19.7476 16.3884 20.4981 15.2589 20.8155 13.93C21.1204 12.6533 21.0055 11.268 20.7751 9.84065C20.6969 9.35615 20.2786 9 19.7879 9ZM18.923 11.0304C17.6402 11.1234 16.6217 11.4246 15.8238 11.8591C15.4744 12.0493 15.164 12.2669 14.889 12.5075C14.3172 13.0081 13.8528 13.7772 13.525 14.7245C14.0652 14.2266 14.3893 13.9836 15.5003 13.2892C15.9686 12.9965 16.5856 13.1388 16.8783 13.6072C17.171 14.0755 17.0286 14.6925 16.5603 14.9852C15.021 15.9472 14.547 16.3323 14.1024 16.8849C15.2755 16.7297 16.2964 16.3895 17.2614 15.7029C18.2249 15.0172 18.6738 14.2879 18.8702 13.4654C19.0326 12.7853 19.0343 11.994 18.923 11.0304ZM5.07744 11.0304C6.36024 11.1234 7.37871 11.4246 8.17659 11.8591C8.526 12.0493 8.83641 12.2669 9.11134 12.5075C9.68635 13.0108 10.1527 13.7857 10.4807 14.74C10.002 14.3369 9.3841 13.9297 8.4278 13.332C7.95946 13.0393 7.34251 13.1816 7.0498 13.65C6.75709 14.1183 6.89947 14.7353 7.3678 15.028C8.8872 15.9776 9.35602 16.3325 9.77291 16.8676C8.65203 16.705 7.66956 16.365 6.73903 15.7029C5.77545 15.0172 5.32663 14.2879 5.13021 13.4654C4.96779 12.7853 4.96604 11.994 5.07744 11.0304ZM10.9147 6.95135C10.7638 6.0892 10.4169 5.4011 9.89418 4.91922C9.73742 4.77471 9.56028 4.6439 9.36018 4.52913C9.00076 4.32299 8.55384 4.16134 8.00112 4.07339C7.9986 4.45774 8.00833 4.75758 8.06632 5.04847C8.14443 5.44024 8.31388 5.79133 8.8589 6.19977C9.46769 6.65599 10.1166 6.86675 10.9147 6.95135ZM13.0865 6.95135C13.8845 6.86676 14.5334 6.656 15.1422 6.19977C15.6872 5.79133 15.8567 5.44024 15.9348 5.04847C15.9928 4.75758 16.0025 4.45774 16 4.07339C15.4473 4.16134 15.0004 4.32299 14.6409 4.52913C14.4408 4.6439 14.2637 4.7747 14.1069 4.91922C13.5842 5.40109 13.2374 6.08919 13.0865 6.95135Z" fill="#3A3A47"/>
</svg>
