<svg width="24" height="24" viewBox="0 0 24 24" fill="none" xmlns="http://www.w3.org/2000/svg">
<path fill-rule="evenodd" clip-rule="evenodd" d="M14.8673 10.1026C16.1917 9.38137 17.8321 9 19.7879 9C20.2786 9 20.6969 9.35615 20.7751 9.84065C21.0055 11.268 21.1204 12.6533 20.8155 13.93C20.4981 15.2589 19.7476 16.3884 18.4209 17.3324C16.7209 18.542 14.8741 18.9184 13.0002 19V20H21.0498C21.6021 20 22.0498 20.4477 22.0498 21C22.0498 21.5523 21.6021 22 21.0498 22H3.0498C2.49752 22 2.0498 21.5523 2.0498 21C2.0498 20.4477 2.49752 20 3.0498 20H11.0029V18.9814C9.11007 18.9041 7.2953 18.5533 5.57952 17.3324C4.25282 16.3884 3.50228 15.2589 3.18491 13.93C2.88003 12.6533 2.99491 11.268 3.22531 9.84065C3.30352 9.35615 3.72176 9 4.21253 9C6.16833 9 7.80867 9.38137 9.1331 10.1026C9.60894 10.3618 10.0407 10.6631 10.4286 11.0026C10.6335 11.182 10.8238 11.3769 11.0002 11.5845V9C9.84526 8.91981 8.74848 8.61629 7.65952 7.80023C6.73755 7.10932 6.28354 6.33541 6.10492 5.43952C5.98423 4.83416 5.99579 4.14618 6.00645 3.51132C6.00939 3.33587 6.01227 3.16447 6.01227 3C6.01227 2.44772 6.45999 2 7.01227 2C8.31914 2 9.43903 2.26875 10.3552 2.79423C10.6837 2.98264 10.982 3.20187 11.2498 3.44874C11.5398 3.71608 11.7889 4.01036 12.0006 4.32578C12.2123 4.01036 12.4613 3.71609 12.7513 3.44874C13.0191 3.20187 13.3174 2.98264 13.6459 2.79423C14.5621 2.26875 15.682 2 16.9888 2C17.5411 2 17.9888 2.44772 17.9888 3C17.9888 3.16447 17.9917 3.33586 17.9947 3.51132C18.0053 4.14616 18.0169 4.83417 17.8962 5.43952C17.7176 6.33541 17.2636 7.10932 16.3416 7.80023C15.2836 8.59311 14.1714 8.87441 13.0498 8.9633V11.5269C13.2121 11.3408 13.3859 11.1653 13.5718 11.0026C13.9596 10.6631 14.3914 10.3618 14.8673 10.1026ZM5.55151 12.6838C5.72616 12.1598 6.29248 11.8767 6.81642 12.0513C8.61598 12.6512 9.77329 13.8569 10.8322 15.4453C11.1386 15.9048 11.0144 16.5257 10.5549 16.8321C10.0954 17.1384 9.4745 17.0142 9.16814 16.5547C8.2271 15.1431 7.38441 14.3488 6.18397 13.9487C5.66002 13.774 5.37686 13.2077 5.55151 12.6838ZM18.4489 12.6838C18.2742 12.1598 17.7079 11.8767 17.184 12.0513C15.3844 12.6512 14.2271 13.8569 13.1681 15.4453C12.8618 15.9048 12.986 16.5257 13.4455 16.8321C13.905 17.1384 14.5259 17.0142 14.8322 16.5547C15.7733 15.1431 16.616 14.3488 17.8164 13.9487C18.3404 13.774 18.6235 13.2077 18.4489 12.6838Z" fill="#3A3A47"/>
</svg>
