<svg width="24" height="24" viewBox="0 0 24 24" fill="none" xmlns="http://www.w3.org/2000/svg">
<path d="M18.85 10.2C18.5425 10.0632 18.2218 9.84362 17.9222 9.5699C17.9044 9.55362 17.8866 9.53714 17.8689 9.52048C17.1708 8.86219 16.6 7.91436 16.6 7.05C16.6 6.44427 16.6979 5.71253 16.931 5.0386C18.8618 5.9158 20.3919 7.29227 21.2468 8.94857C21.0891 9.15467 20.9145 9.34755 20.7311 9.52046C20.7134 9.53713 20.6957 9.55361 20.6778 9.5699C20.3782 9.84362 20.0575 10.0632 19.75 10.2L20 15L20.0555 16.7411C19.6078 17.2271 19.0932 17.6711 18.5223 18.0643L18.85 10.2Z" fill="#3A3A47"/>
<path fill-rule="evenodd" clip-rule="evenodd" d="M16.8046 11.248L16.4751 19.1562C15.1286 19.6961 13.6087 20 12 20C6.47715 20 2 16.4183 2 12C2 7.58172 6.47715 4 12 4C13.0612 4 14.0838 4.13224 15.0434 4.37725C14.7193 5.31097 14.6 6.27619 14.6 7.05C14.6 8.72789 15.6435 10.1972 16.5733 11.0465C16.648 11.1148 16.7251 11.1821 16.8046 11.248ZM6.5 12C6.5 11.1146 7.03831 10.2519 8.03471 9.5876C9.02761 8.92566 10.4281 8.5 12 8.5C12.2761 8.5 12.5 8.27614 12.5 8C12.5 7.72386 12.2761 7.5 12 7.5C10.2582 7.5 8.65868 7.96977 7.48001 8.75555C6.30483 9.539 5.5 10.6762 5.5 12C5.5 13.3238 6.30483 14.461 7.48001 15.2445C8.65868 16.0302 10.2582 16.5 12 16.5C12.7392 16.5 13.4508 16.4155 14.1147 16.2591C14.3835 16.1957 14.55 15.9265 14.4867 15.6577C14.4233 15.3889 14.1541 15.2224 13.8853 15.2857C13.298 15.4241 12.6634 15.5 12 15.5C10.4281 15.5 9.02761 15.0743 8.03471 14.4124C7.03831 13.7481 6.5 12.8854 6.5 12Z" fill="#3A3A47"/>
<path d="M19.75 10.2L20.1625 20.1008C20.1635 20.125 20.1635 20.1489 20.1626 20.1727C20.1441 20.6305 19.7667 21 19.3 21C18.8333 21 18.4559 20.6305 18.4374 20.1727C18.4365 20.1489 18.4365 20.125 18.4375 20.1008L18.85 10.2C18.5425 10.0632 18.2218 9.84362 17.9222 9.5699C17.2001 8.91023 16.6 7.93624 16.6 7.05C16.6 5.45942 17.275 3 19.3 3C21.325 3 22 5.45942 22 7.05C22 7.93624 21.3999 8.91023 20.6778 9.5699C20.3782 9.84362 20.0575 10.0632 19.75 10.2Z" fill="#3A3A47"/>
</svg>
