<svg width="24" height="24" viewBox="0 0 24 24" fill="none" xmlns="http://www.w3.org/2000/svg">
<path fill-rule="evenodd" clip-rule="evenodd" d="M18.4376 20.1008L18.8501 10.2C18.5426 10.0632 18.2219 9.84362 17.9223 9.5699C17.2002 8.91023 16.6001 7.93624 16.6001 7.05C16.6001 5.45942 17.2751 3 19.3001 3C21.3251 3 22.0001 5.45942 22.0001 7.05C22.0001 7.93624 21.4 8.91023 20.6779 9.5699C20.3783 9.84362 20.0576 10.0632 19.7501 10.2L20.1626 20.1008C20.1626 20.1008 20.1636 20.1489 20.1627 20.1727C20.1442 20.6305 19.7668 21 19.3001 21C18.8334 21 18.456 20.6305 18.4375 20.1727C18.4366 20.1489 18.4366 20.125 18.4376 20.1008ZM19.4393 9.00641C19.3251 9.05555 19.2608 9.18213 19.3001 9.30001C19.3394 9.4179 19.4674 9.48232 19.5821 9.43461C20.9863 8.85078 21.7524 7.31853 21.377 5.84491C21.3463 5.72449 21.2179 5.66072 21.1001 5.70001C20.9822 5.73931 20.9195 5.86674 20.9487 5.98754C21.2475 7.22469 20.6083 8.50315 19.4393 9.00641Z" fill="#3A3A47"/>
<path fill-rule="evenodd" clip-rule="evenodd" d="M8.03471 9.5876C7.03831 10.2519 6.5 11.1146 6.5 12C6.5 12.8854 7.03831 13.7481 8.03471 14.4124C9.02761 15.0743 10.4281 15.5 12 15.5C12.6634 15.5 13.298 15.4241 13.8853 15.2857C14.1541 15.2224 14.4233 15.3889 14.4867 15.6577C14.55 15.9265 14.3835 16.1957 14.1147 16.2591C13.4508 16.4155 12.7392 16.5 12 16.5C10.2582 16.5 8.65868 16.0302 7.48001 15.2445C6.30483 14.461 5.5 13.3238 5.5 12C5.5 10.6762 6.30483 9.539 7.48001 8.75555C8.65868 7.96977 10.2582 7.5 12 7.5C12.2761 7.5 12.5 7.72386 12.5 8C12.5 8.27614 12.2761 8.5 12 8.5C10.4281 8.5 9.02761 8.92566 8.03471 9.5876Z" fill="#3A3A47"/>
<path d="M12 6C12.9462 6 13.8273 6.11685 14.6328 6.3266C14.6874 5.71362 14.8142 5.03755 15.0434 4.37725C14.0838 4.13224 13.0612 4 12 4C6.47715 4 2 7.58172 2 12C2 16.4183 6.47715 20 12 20C13.6087 20 15.1286 19.6961 16.4751 19.1562L16.5681 16.9246C15.3208 17.5889 13.7749 18 12 18C7.14219 18 4 14.9203 4 12C4 9.07969 7.14219 6 12 6Z" fill="#3A3A47"/>
<path d="M19 9.13905C18.4231 8.34706 17.6107 7.63662 16.6005 7.09275C16.6002 7.07848 16.6001 7.06423 16.6001 7.05C16.6001 6.44427 16.6979 5.71253 16.931 5.0386C17.6877 5.3824 18.3829 5.80289 19 6.28686V9.13905Z" fill="#3A3A47"/>
<path d="M19.5191 10C19.6155 10.1987 19.698 10.4004 19.766 10.6038L19.7501 10.2C19.872 10.1458 19.996 10.0785 20.1199 10H19.5191Z" fill="#3A3A47"/>
<path d="M20 16.5L20.013 16.787C19.5753 17.255 19.0752 17.6835 18.5223 18.0643L18.637 15.3132C19.2445 14.6236 19.6629 13.8527 19.8637 13.0646L20 16.5Z" fill="#3A3A47"/>
</svg>
