<svg width="24" height="24" viewBox="0 0 24 24" fill="none" xmlns="http://www.w3.org/2000/svg">
<path fill-rule="evenodd" clip-rule="evenodd" d="M4 8C4 6.671 4.667 6.005 6 6C7.333 5.995 8 6.662 8 8V16C8 17.333 7.333 18 6 18C4.667 18 4 17.333 4 16V8ZM10 4C10 2.667 10.667 2 12 2C13.333 2 14 2.667 14 4V16C14 17.337 13.333 18.003 12 18C10.667 17.997 10 17.33 10 16V4ZM5 20H19C19.667 20 20 20.333 20 21C20 21.667 19.667 22 19 22H5C4.333 22 4 21.667 4 21C4 20.333 4.333 20 5 20ZM16 12C16 10.667 16.667 10 18 10C19.333 10 20 10.667 20 12V16C20 17.333 19.333 18 18 18C16.667 18 16 17.333 16 16V12Z" fill="#3A3A47"/>
</svg>
