<svg width="24" height="24" viewBox="0 0 24 24" fill="none" xmlns="http://www.w3.org/2000/svg">
<path d="M10.6514 7.98057C12.3082 7.98057 13.6514 6.64178 13.6514 4.99029C13.6514 3.3388 12.3082 2 10.6514 2C8.99451 2 7.65137 3.3388 7.65137 4.99029C7.65137 6.64178 8.99451 7.98057 10.6514 7.98057Z" fill="#24252E"/>
<path d="M10.4999 8.97736C12.5289 8.98253 14 10.4725 13.9999 12.8048C13.9999 12.8048 17.9999 13.0349 17.9999 17.4498C17.9999 22.9474 11.1985 22.5663 8.31357 20.9385C8.31357 20.9385 11 20.9385 11 18.6393V14.4595C11 14.4595 11 13.9611 10.5 13.9611C10.0234 13.9611 10.0011 14.414 10.0001 14.4564L9.99998 14.463L9.97053 18.6393C9.97053 18.6393 9.97053 19.9417 8.5 19.9417C7 19.9417 7 18.6393 7 18.6393V12.9644C7 9.9741 8.42425 8.97206 10.4999 8.97736Z" fill="#24252E"/>
</svg>
