<svg xmlns="http://www.w3.org/2000/svg" width="24" height="24" viewBox="0 0 24 24">
    <path fill="#3A3A47" fill-rule="evenodd" d="M21 2c.667 0 1 .333 1 1s-.333 1-1 1v12c0 1.332-.667 1.999-2 2h-4.367l.721 2.689c.173.644-.063 1.052-.707 1.224-.644.173-1.052-.063-1.225-.707L12.563 18h-1.127l-.858 3.206c-.173.644-.581.88-1.225.707-.644-.172-.88-.58-.707-1.224L9.366 18H5c-1.333 0-2-.667-2-2V4c-.667 0-1-.333-1-1s.333-1 1-1h18zm-9 5c-.622.003-.954.341-.996 1.017l-.004.15v4.666c0 .778.333 1.167 1 1.167.622 0 .954-.339.996-1.016l.004-.15V8.166c0-.78-.333-1.17-1-1.167zm4-1c-.622 0-.954.327-.996.98L15 7.125v5.75c0 .748.333 1.123 1 1.125.622.002.954-.325.996-.98l.004-.145v-5.75C17 6.375 16.667 6 16 6zM8 9c-.667 0-1 .417-1 1.25v2.5c0 .833.333 1.25 1 1.25s1-.417 1-1.25v-2.5C9 9.417 8.667 9 8 9z"/>
</svg>
