<svg xmlns="http://www.w3.org/2000/svg" width="24" height="24" viewBox="0 0 24 24">
    <path fill="#3A3A47" fill-rule="evenodd" d="M21 2c.667 0 1 .333 1 1s-.333 1-1 1v12c0 1.332-.667 1.999-2 2h-4.367l.721 2.689c.173.644-.063 1.052-.707 1.224-.644.173-1.052-.063-1.225-.707L12.563 18h-1.127l-.858 3.206c-.173.644-.581.88-1.225.707-.644-.172-.88-.58-.707-1.224L9.366 18H5c-1.333 0-2-.667-2-2V4c-.667 0-1-.333-1-1s.333-1 1-1h18zm-2 2H5v12h14V4zm-7 3c.667-.003 1 .386 1 1.167v4.666c0 .778-.333 1.167-1 1.167s-1-.389-1-1.167V8.167c0-.775.333-1.164 1-1.167zm4-1c.667 0 1 .375 1 1.125v5.75c0 .752-.333 1.127-1 1.125-.667-.002-1-.377-1-1.125v-5.75C15 6.375 15.333 6 16 6zM8 9c.667 0 1 .417 1 1.25v2.5C9 13.583 8.667 14 8 14s-1-.417-1-1.25v-2.5C7 9.417 7.333 9 8 9z"/>
</svg>
