<svg width="24" height="24" viewBox="0 0 24 24" fill="none" xmlns="http://www.w3.org/2000/svg">
<path d="M7.76924 15.2041L8.63269 14.697C8.90147 14.5392 9.06907 14.3481 9.13548 14.1237C9.20047 13.897 9.16114 13.6615 9.01749 13.4174C8.871 13.1685 8.68563 13.0139 8.46138 12.9538C8.23951 12.8922 7.98466 12.9459 7.69685 13.1149L6.83697 13.6199L7.76924 15.2041Z" fill="#24252E"/>
<path fill-rule="evenodd" clip-rule="evenodd" d="M3.14077 13.4782C2.85544 12.9933 3.01761 12.3692 3.50299 12.0842L15.3094 5.15105C15.4983 5.04011 15.798 4.97701 15.9258 5.01547C15.1429 6.8494 15.7981 8.80247 16.0799 9.28141C15.5662 10.4705 17.0068 11.8428 18.3001 11.0833C19.4982 10.3798 19.1943 8.58191 17.852 8.28878C17.3174 6.84762 17.776 5.93066 17.776 5.93066L20.4897 7.40786C20.8203 7.58783 21.0033 7.93516 21 8.31125V13.0616C20.9967 13.4193 20.7845 13.7491 20.4758 13.9304L8.66937 20.8635C8.18399 21.1486 7.5592 20.9866 7.27387 20.5017L3.14077 13.4782ZM14.559 13.134C14.4424 12.9358 14.2952 12.8108 14.1175 12.7591C13.9408 12.7035 13.6937 12.7023 13.3761 12.7555C13.0585 12.8086 12.7773 12.8421 12.5325 12.8557C12.2863 12.867 12.0584 12.8496 11.8489 12.8035C11.6403 12.7537 11.4474 12.6653 11.2703 12.5384C11.0956 12.4101 10.9386 12.2275 10.7992 11.9907C10.5588 11.5822 10.4903 11.1721 10.5936 10.7602C10.6969 10.3483 10.9486 9.99561 11.3488 9.70207L10.8923 8.92627L11.4631 8.59103L11.9261 9.37771C12.3827 9.1909 12.8173 9.17629 13.2301 9.33387C13.6415 9.48905 13.9859 9.80227 14.2632 10.2736L13.2321 10.8791C13.0614 10.5891 12.8746 10.4077 12.6718 10.3349C12.4699 10.2584 12.2703 10.278 12.0728 10.394C11.8778 10.5085 11.7602 10.654 11.72 10.8305C11.6783 11.0045 11.7159 11.1906 11.8325 11.3888C11.9406 11.5724 12.0797 11.6891 12.2497 11.7389C12.4198 11.7886 12.6805 11.7883 13.0318 11.7381C13.3856 11.6865 13.6846 11.6589 13.9289 11.6552C14.1718 11.6492 14.3946 11.6744 14.5975 11.7309C14.799 11.785 14.982 11.8758 15.1468 12.0035C15.3101 12.1287 15.4565 12.3013 15.5859 12.5212C15.8277 12.9321 15.8979 13.3396 15.7965 13.7439C15.6951 14.1481 15.4367 14.5031 15.0213 14.8088L15.4458 15.5303L14.8785 15.8634L14.4561 15.1456C13.9372 15.3788 13.4559 15.4256 13.0122 15.2862C12.5694 15.143 12.2023 14.8236 11.9107 14.3282L12.9418 13.7227C13.1111 14.0103 13.3078 14.1923 13.5321 14.2687C13.7572 14.3414 13.9959 14.3037 14.248 14.1556C14.4574 14.0327 14.59 13.88 14.6458 13.6976C14.7003 13.5128 14.6714 13.3249 14.559 13.134ZM9.14039 15.5843L8.28764 16.085L9.42472 18.0173L8.35433 18.6458L5.24818 13.3675L7.17844 12.234C7.79213 11.8736 8.34726 11.7346 8.84383 11.817C9.3404 11.8994 9.73801 12.1943 10.0367 12.7018C10.2486 13.062 10.3484 13.4082 10.336 13.7407C10.3245 14.0694 10.205 14.3965 9.97728 14.7221L12.3705 16.2191L12.4004 16.2699L11.2515 16.9445L9.14039 15.5843Z" fill="#24252E"/>
<path fill-rule="evenodd" clip-rule="evenodd" d="M18.5716 3.17577C18.7484 3.38791 18.7197 3.70319 18.5076 3.87997C17.4483 4.76265 17.1096 5.89697 17.1313 6.98985C17.1534 8.09972 17.5499 9.1396 17.9244 9.73872C18.0707 9.97289 17.9996 10.2814 17.7654 10.4277C17.5312 10.5741 17.2227 10.5029 17.0764 10.2687C16.6175 9.5345 16.1576 8.32045 16.1315 7.00973C16.1051 5.68202 16.5266 4.22907 17.8674 3.11175C18.0795 2.93497 18.3948 2.96363 18.5716 3.17577Z" fill="#24252E"/>
</svg>
