<svg xmlns="http://www.w3.org/2000/svg" xmlns:xlink="http://www.w3.org/1999/xlink" width="24" height="24" viewBox="0 0 24 24">
    <defs>
        <path id="a" d="M7 20.007h10v-3H7v3zm0-15c0-.542.327-1 .714-1h6.458L17 6.693v2.314H7v-4zm12 4V7.01c0-.395-.043-.729-.13-1.003-.086-.274-.334-.607-.745-1L16 3.007c-.428-.424-.777-.704-1.048-.839-.27-.135-.589-.188-.956-.161H7.714C6.218 2.007 5 3.353 5 5.007v4H4a2 2 0 0 0-2 2v6c0 1.333.667 2 2 2h1v1c0 1.334.667 2 2 2h10c1.333 0 2-.667 2-2v-1h1c1.333 0 2-.667 2-2v-6a2 2 0 0 0-2-2h-1zM4 11h16v6h-1v-2H5v2H4v-6zm14 3.007a1 1 0 1 0 0-2 1 1 0 0 0 0 2z"/>
    </defs>
    <use fill="#53595E" fill-rule="evenodd" xlink:href="#a"/>
</svg>
