<svg xmlns="http://www.w3.org/2000/svg" xmlns:xlink="http://www.w3.org/1999/xlink" width="24" height="24" viewBox="0 0 24 24">
    <defs>
        <path id="a" d="M12.952.168c.237.118.534.347.891.687l.157.152 2.125 2.001c.41.393.66.726.745 1 .07.22.111.477.125.773l.005.23v1.996h1c1.054 0 1.918.816 1.995 1.85l.005.15v6c0 1.273-.607 1.938-1.822 1.996l-.178.004h-1v1c0 1.273-.607 1.938-1.822 1.996l-.178.004H5c-1.273 0-1.938-.607-1.996-1.822L3 18.007v-1H2c-1.273 0-1.938-.608-1.996-1.822L0 15.007v-6c0-1.054.816-1.918 1.85-1.995L2 7.007h1v-4C3 1.412 4.133.103 5.555.012l.159-.005h6.282c.367-.027.686.026.956.161zM15 15.007H5v3h10v-3zM18 9H2v6h1v-2h14v2h1V9zm-2 1.007a1 1 0 1 1 0 2 1 1 0 0 1 0-2zm-3.828-8H5.714c-.357 0-.663.39-.708.877L5 3.007v4h10V4.693l-2.828-2.686z"/>
    </defs>
    <use fill="#3A3A47" fill-rule="evenodd" transform="translate(2 2)" xlink:href="#a"/>
</svg>
