<svg xmlns="http://www.w3.org/2000/svg" width="24" height="24" viewBox="0 0 24 24">
    <path fill="#3A3A47" fill-rule="evenodd" d="M14.952 2.168c.237.118.534.347.891.687l.157.152 2.125 2.001c.41.393.66.726.745 1 .07.22.111.477.125.773l.005.23v1.996h1c1.054 0 1.918.816 1.995 1.85l.005.15v6c0 1.273-.607 1.938-1.822 1.996l-.178.004h-1v1c0 1.273-.607 1.938-1.822 1.996l-.178.004H7c-1.273 0-1.938-.607-1.996-1.822L5 20.007v-1H4c-1.273 0-1.938-.608-1.996-1.822L2 17.007v-6c0-1.054.816-1.918 1.85-1.995L4 9.007h1v-4c0-1.595 1.133-2.904 2.555-2.995l.159-.005h6.282c.367-.027.686.026.956.161zM17 17.007H7v3h10v-3zm2-6a1 1 0 1 0 0 2 1 1 0 0 0 0-2zm-4.828-7H7.714c-.357 0-.663.39-.708.877L7 5.007v4h10V6.693l-2.828-2.686z"/>
</svg>
