<svg width="24" height="24" viewBox="0 0 24 24" fill="none" xmlns="http://www.w3.org/2000/svg">
<path d="M8.78722 10.9145C8.64144 10.7969 8.50166 10.6705 8.3687 10.5355C7.44491 9.59785 6.92593 8.32608 6.92593 7C6.92593 5.67392 7.44491 4.40215 8.3687 3.46447C9.29249 2.52678 10.5454 2 11.8519 2C13.1583 2 14.4112 2.52678 15.335 3.46447C16.2588 4.40215 16.7778 5.67392 16.7778 7C16.7778 7.33842 16.744 7.6733 16.6783 8H14.6384C14.7492 7.6818 14.8074 7.34394 14.8074 7C14.8074 6.20435 14.496 5.44129 13.9417 4.87868C13.3875 4.31607 12.6357 4 11.8519 4C11.068 4 10.3162 4.31607 9.76196 4.87868C9.20768 5.44129 8.8963 6.20435 8.8963 7C8.8963 7.79565 9.20768 8.55871 9.76196 9.12132C9.7782 9.13781 9.79461 9.15408 9.81119 9.17014C9.33316 9.64769 8.97539 10.2456 8.78722 10.9145Z" fill="#3A3A47"/>
<path fill-rule="evenodd" clip-rule="evenodd" d="M12.6382 10C11.5336 10 10.6382 10.8954 10.6382 12V18.0654C10.6382 19.17 11.5336 20.0654 12.6382 20.0654H18.0243L21.9999 22.0048V12C21.9999 10.8954 21.1044 10 19.9999 10H12.6382ZM18.6195 18.0654L19.9999 18.9668V12H12.6382V18.0654H18.6195Z" fill="#3A3A47"/>
<path fill-rule="evenodd" clip-rule="evenodd" d="M5.91869 14.2077C5.52674 14.6369 5.39506 15.0501 5.39506 15.557V16.2426C4.24513 16.4679 3.97042 17.5793 3.97042 18.3089V19.8784L3.97037 19.886C3.97037 20.2251 4.24894 20.5 4.59258 20.5C4.93622 20.5 5.2148 20.2251 5.2148 19.886C5.2148 19.6075 5.02701 19.3724 4.76961 19.2971V18.3089C4.76961 17.6434 5.24752 17.104 5.83706 17.104C6.4266 17.104 6.90451 17.6434 6.90451 18.3089V19.2971C6.64708 19.3724 6.45927 19.6075 6.45927 19.886C6.45927 20.2251 6.73785 20.5 7.08149 20.5C7.4251 20.5 7.70366 20.2251 7.7037 19.886V18.3089C7.7037 17.5792 7.42892 16.4677 6.27861 16.2425V15.557C6.27861 14.7745 6.61389 14.5263 7.22993 14.0702L7.30168 14.017L7.3764 14.013L8.63818 14.0325V18C8.63818 18.0218 8.63836 18.0436 8.63871 18.0654C8.67723 18.7615 8.74096 19.0509 8.8963 19.4167C9.46825 20.9266 10.9279 22 12.6382 22H3.97037C2.65712 22 2 21.333 2 20C2 16.7442 3.30605 14.8134 5.91869 14.2077Z" fill="#3A3A47"/>
</svg>
