<svg width="24" height="24" viewBox="0 0 24 24" fill="none" xmlns="http://www.w3.org/2000/svg">
<path d="M14.5 12.2178C14.5 10.6463 13 10.2178 13 10.2178V7.21777H14H15.2259C15.2259 7.21777 15.7635 8.7892 17.3765 8.7892C18.9894 8.7892 19.527 7.21777 19.527 7.21777L21 7.21777C21.5523 7.21777 22 7.66549 22 8.21777L22 15.2178C22 15.7701 21.5523 16.2178 21 16.2178H19.527C19.527 16.2178 18.9894 17.7892 17.3765 17.7892C15.7635 17.7892 15.2259 16.2178 15.2259 16.2178H13V14.2178C13 14.2178 14.5 13.7892 14.5 12.2178Z" fill="#24252E"/>
<path d="M2 15.2178V8.21777C2 7.66549 2.44772 7.21777 3 7.21777H4C4 7.21777 4.5 5.71777 6 5.71777C7.5 5.71777 8 7.21777 8 7.21777H10V10.2117C10 10.2117 11.5 10.6159 11.5 12.2178C11.5 13.8196 10 14.2174 10 14.2174V16.2178H8C8 16.2178 7.5 14.7178 6 14.7178C4.5 14.7178 4 16.2178 4 16.2178H3C2.44772 16.2178 2 15.7701 2 15.2178Z" fill="#24252E"/>
</svg>
