<svg xmlns="http://www.w3.org/2000/svg" width="24" height="24" viewBox="0 0 24 24">
    <path fill="#3A3A47" fill-rule="evenodd" d="M12 2c5.523 0 10 4.478 10 10s-4.477 10-10 10S2 17.522 2 12 6.477 2 12 2zm0 13.5a1.25 1.25 0 1 0 0 2.5 1.25 1.25 0 0 0 0-2.5zM12 6a3.497 3.497 0 0 0-2.879 1.51c-.205.295-.365 1.052.376 1.442.74.39 1.098-.05 1.26-.29A1.5 1.5 0 0 1 13.5 9.5c0 .44-.33 1.063-1.213 1.633-.225.146-1.294.779-1.258 1.867.006.198.145.987.93 1 1.034.017.882-.934 1.453-1.364.712-.537 2.088-1.559 2.088-3.136A3.5 3.5 0 0 0 12 6z"/>
</svg>
