<svg xmlns="http://www.w3.org/2000/svg" xmlns:xlink="http://www.w3.org/1999/xlink" width="24" height="24" viewBox="0 0 24 24">
    <defs>
        <path id="a" d="M10 0c5.523 0 10 4.478 10 10s-4.477 10-10 10S0 15.522 0 10 4.477 0 10 0zm0 2c-4.411 0-8 3.589-8 8s3.589 8 8 8 8-3.589 8-8-3.589-8-8-8zm0 11.5a1.25 1.25 0 1 1 0 2.5 1.25 1.25 0 0 1 0-2.5zM10 4a3.5 3.5 0 0 1 3.5 3.5c0 1.577-1.376 2.6-2.088 3.136-.571.43-.419 1.381-1.454 1.364-.784-.013-.923-.802-.93-1-.035-1.088 1.034-1.721 1.26-1.867C11.17 8.563 11.5 7.94 11.5 7.5a1.5 1.5 0 1 0-2.744-.838c-.161.24-.519.68-1.26.29-.74-.39-.58-1.147-.375-1.443A3.497 3.497 0 0 1 10 4z"/>
    </defs>
    <use fill="#3A3A47" fill-rule="evenodd" transform="translate(2 2)" xlink:href="#a"/>
</svg>
