<svg width="24" height="24" viewBox="0 0 24 24" fill="none" xmlns="http://www.w3.org/2000/svg">
<path d="M12 2C17.523 2 22 6.478 22 12C22 17.522 17.523 22 12 22C6.477 22 2 17.522 2 12C2 6.478 6.477 2 12 2ZM9.121 7.51C8.916 7.805 8.756 8.562 9.497 8.952C10.237 9.342 10.595 8.902 10.757 8.662C10.9367 8.39598 11.197 8.19463 11.4996 8.08754C11.8022 7.98045 12.1312 7.97327 12.4383 8.06706C12.7453 8.16086 13.0141 8.35067 13.2052 8.60861C13.3963 8.86654 13.4997 9.17898 13.5 9.5C13.5 9.94 13.17 10.563 12.287 11.133C12.062 11.279 10.993 11.912 11.029 13C11.035 13.198 11.174 13.987 11.959 14C12.993 14.017 12.841 13.066 13.412 12.636C14.124 12.099 15.5 11.077 15.5 9.5C15.4999 8.75389 15.2614 8.02732 14.8193 7.42632C14.3772 6.82531 13.7546 6.38132 13.0423 6.15912C12.3301 5.93693 11.5654 5.94816 10.86 6.19117C10.1546 6.43419 9.54528 6.89627 9.121 7.51ZM12 15.5C11.6685 15.5 11.3505 15.6317 11.1161 15.8661C10.8817 16.1005 10.75 16.4185 10.75 16.75C10.75 17.0815 10.8817 17.3995 11.1161 17.6339C11.3505 17.8683 11.6685 18 12 18C12.3315 18 12.6495 17.8683 12.8839 17.6339C13.1183 17.3995 13.25 17.0815 13.25 16.75C13.25 16.4185 13.1183 16.1005 12.8839 15.8661C12.6495 15.6317 12.3315 15.5 12 15.5Z" fill="#3A3A47"/>
</svg>
