<svg width="24" height="24" viewBox="0 0 24 24" fill="none" xmlns="http://www.w3.org/2000/svg">
<path d="M12 2C17.523 2 22 6.478 22 12C22 17.522 17.523 22 12 22C6.477 22 2 17.522 2 12C2 6.478 6.477 2 12 2ZM12 20C16.411 20 20 16.411 20 12C20 7.589 16.411 4 12 4C7.589 4 4 7.589 4 12C4 16.411 7.589 20 12 20Z" fill="#3A3A47"/>
<path d="M9.49677 8.95199C8.75576 8.56199 8.91577 7.80499 9.12077 7.50999C9.54505 6.89626 10.1544 6.43418 10.8598 6.19116C11.5652 5.94815 12.3298 5.93692 13.0421 6.15911C13.7543 6.38131 14.377 6.8253 14.8191 7.42631C15.2612 8.02731 15.4997 8.75388 15.4998 9.49999C15.4998 11.0616 14.1504 12.079 13.4327 12.6202L13.4118 12.636C12.8408 13.066 12.9928 14.017 11.9588 14C11.1738 13.987 11.0348 13.198 11.0288 13C10.9928 11.912 12.0618 11.279 12.2868 11.133C13.1698 10.563 13.4998 9.93999 13.4998 9.49999C13.4994 9.17897 13.3961 8.86653 13.205 8.60859C13.0139 8.35066 12.745 8.16085 12.438 8.06705C12.131 7.97326 11.802 7.98043 11.4994 8.08752C11.1967 8.19461 10.9365 8.39597 10.7568 8.66199C10.5948 8.90199 10.2368 9.34199 9.49677 8.95199Z" fill="#3A3A47"/>
<path d="M11.1159 15.8661C11.3503 15.6317 11.6682 15.5 11.9998 15.5C12.3313 15.5 12.6492 15.6317 12.8836 15.8661C13.1181 16.1005 13.2498 16.4185 13.2498 16.75C13.2498 17.0815 13.1181 17.3995 12.8836 17.6339C12.6492 17.8683 12.3313 18 11.9998 18C11.6682 18 11.3503 17.8683 11.1159 17.6339C10.8815 17.3995 10.7498 17.0815 10.7498 16.75C10.7498 16.4185 10.8815 16.1005 11.1159 15.8661Z" fill="#3A3A47"/>
</svg>
