<svg xmlns="http://www.w3.org/2000/svg" xmlns:xlink="http://www.w3.org/1999/xlink" width="24" height="24" viewBox="0 0 24 24">
    <defs>
        <path id="a" d="M12 2c5.523 0 10 4.478 10 10s-4.477 10-10 10S2 17.522 2 12 6.477 2 12 2zM9.121 7.51c-.205.295-.365 1.052.376 1.442.74.39 1.098-.05 1.26-.29A1.5 1.5 0 0 1 13.5 9.5c0 .44-.33 1.063-1.213 1.633-.225.146-1.294.779-1.258 1.867.006.198.145.987.93 1 1.034.017.882-.934 1.453-1.364.712-.537 2.088-1.559 2.088-3.136a3.5 3.5 0 0 0-6.379-1.99zM12 15.5a1.25 1.25 0 1 0 0 2.5 1.25 1.25 0 0 0 0-2.5z"/>
    </defs>
    <use fill="#686A75" fill-rule="evenodd" xlink:href="#a"/>
</svg>
