<svg width="24" height="24" viewBox="0 0 24 24" fill="none" xmlns="http://www.w3.org/2000/svg">
<path d="M12 2C17.523 2 22 6.478 22 12C22 17.522 17.523 22 12 22C6.477 22 2 17.522 2 12C2 6.478 6.477 2 12 2ZM12 20C16.411 20 20 16.411 20 12C20 7.589 16.411 4 12 4C7.589 4 4 7.589 4 12C4 16.411 7.589 20 12 20ZM9.121 7.51C9.54528 6.89627 10.1546 6.43419 10.86 6.19117C11.5654 5.94816 12.3301 5.93693 13.0423 6.15912C13.7546 6.38132 14.3772 6.82531 14.8193 7.42632C15.2614 8.02732 15.4999 8.75389 15.5 9.5C15.5 11.077 14.124 12.1 13.412 12.636C12.841 13.066 12.993 14.017 11.958 14C11.174 13.987 11.035 13.198 11.028 13C10.993 11.912 12.062 11.279 12.288 11.133C13.171 10.563 13.5 9.94 13.5 9.5C13.631 9.30554 13.7146 9.08308 13.7441 8.85046C13.7736 8.61785 13.7481 8.38156 13.6698 8.16057C13.5914 7.93957 13.4623 7.74003 13.2929 7.57795C13.1234 7.41586 12.9184 7.29576 12.6941 7.22728C12.4699 7.15879 12.2327 7.14383 12.0016 7.1836C11.7705 7.22337 11.552 7.31675 11.3635 7.45626C11.1751 7.59577 11.0219 7.77752 10.9164 7.98691C10.8109 8.19631 10.756 8.42752 10.756 8.662C10.595 8.902 10.237 9.342 9.496 8.952C8.756 8.562 8.916 7.805 9.121 7.509V7.51ZM12 15.5C12.3315 15.5 12.6495 15.6317 12.8839 15.8661C13.1183 16.1005 13.25 16.4185 13.25 16.75C13.25 17.0815 13.1183 17.3995 12.8839 17.6339C12.6495 17.8683 12.3315 18 12 18C11.6685 18 11.3505 17.8683 11.1161 17.6339C10.8817 17.3995 10.75 17.0815 10.75 16.75C10.75 16.4185 10.8817 16.1005 11.1161 15.8661C11.3505 15.6317 11.6685 15.5 12 15.5Z" fill="#3A3A47"/>
</svg>
