<svg xmlns="http://www.w3.org/2000/svg" viewBox="0 0 24 24"><title>quote-left</title><g id="quote-left"><g id="quote-left-2" data-name="quote-left"><path d="M9,11l-.64.06A.67.67,0,0,1,8,11c-.13-.07-.19-.21-.19-.44a3.09,3.09,0,0,1,1-2A15.11,15.11,0,0,1,10.69,7l-.31-.58A8.4,8.4,0,0,0,7,9.26a5.64,5.64,0,0,0-1,2.91,3.39,3.39,0,0,0,.74,2.29,2.44,2.44,0,0,0,1.95.86,2,2,0,0,0,1.6-.64,2.24,2.24,0,0,0,.58-1.59,2.12,2.12,0,0,0-.53-1.45A1.73,1.73,0,0,0,9,11Z"/><path d="M17.46,11.63A1.7,1.7,0,0,0,16.11,11l-.64.06a.49.49,0,0,1-.39-.17.68.68,0,0,1-.14-.44,3,3,0,0,1,1.1-2A13.16,13.16,0,0,1,17.82,7l-.31-.58a8.52,8.52,0,0,0-3.37,2.75,5.46,5.46,0,0,0-1,3,3.34,3.34,0,0,0,.75,2.29,2.41,2.41,0,0,0,1.91.86,2.16,2.16,0,0,0,1.62-.61A2.26,2.26,0,0,0,18,13.09,2.09,2.09,0,0,0,17.46,11.63Z"/></g></g></svg>