<svg width="24" height="24" viewBox="0 0 24 24" fill="none" xmlns="http://www.w3.org/2000/svg">
<path fill-rule="evenodd" clip-rule="evenodd" d="M16.538 8.071C15.734 7.165 14.23 5.998 12 5.996C8.86999 5.993 6.00599 8.48 5.99999 12C5.99399 15.52 8.91899 18 12 18C12 18 13 18 13 19C13 20 12 20 12 20C10.6585 19.9999 9.33857 19.6625 8.16161 19.0188C6.98465 18.3751 5.98846 17.4458 5.26468 16.3163C4.5409 15.1868 4.11276 13.8935 4.01966 12.5552C3.92656 11.217 4.17147 9.8768 4.73188 8.65797C5.29229 7.43915 6.1502 6.38083 7.22669 5.58035C8.30317 4.77987 9.56367 4.26294 10.8922 4.07712C12.2208 3.8913 13.5747 4.04255 14.8295 4.51696C16.0843 4.99137 17.1997 5.77371 18.073 6.792V5C18.073 4.73479 18.1783 4.48043 18.3659 4.2929C18.5534 4.10536 18.8078 4 19.073 4C19.3382 4 19.5926 4.10536 19.7801 4.2929C19.9676 4.48043 20.073 4.73479 20.073 5V9.071C20.073 9.33622 19.9676 9.59057 19.7801 9.77811C19.5926 9.96564 19.3382 10.071 19.073 10.071H15C14.7348 10.071 14.4804 9.96564 14.2929 9.77811C14.1053 9.59057 14 9.33622 14 9.071C14 8.80579 14.1053 8.55143 14.2929 8.3639C14.4804 8.17636 14.7348 8.071 15 8.071H16.538Z" fill="#3A3A47"/>
</svg>
