<svg width="24" height="24" viewBox="0 0 24 24" fill="none" xmlns="http://www.w3.org/2000/svg">
<path fill-rule="evenodd" clip-rule="evenodd" d="M11 7.5H13V3H14.7331C15.7617 3 16.6583 3.70267 16.9078 4.70429L20.9665 19.6021C20.9888 19.6914 21 19.783 21 19.875C21 20.4963 20.4982 21 19.8792 21H13V16.5H11V21H4.12107C4.02943 21 3.93813 20.9887 3.84923 20.9664C3.24871 20.8157 2.8836 20.2049 3.03373 19.6021L7.09245 4.70429C7.34192 3.70267 8.23852 3 9.26712 3H11V7.5ZM13 9.75H11V14.25H13V9.75Z" fill="#3A3A47"/>
</svg>
