<svg xmlns="http://www.w3.org/2000/svg" width="24" height="24" viewBox="0 0 24 24">
    <path fill="#686A75" fill-rule="evenodd" d="M11.271 5.689a48.044 48.044 0 0 1 1.454-1.541c2.121-2.122 7.076-2.824 8.485-1.414 1.41 1.41.704 6.366-1.414 8.485-.352.352-.901.871-1.542 1.453l.4 2.8c.04.333.014.637-.077.91-.137.411-.407.705-.489.786-.081.082-.697.576-1.359.494-.441-.054-.802-.319-1.084-.794l-.788-1.315a17.3 17.3 0 0 1-1.043.75s-.669.423-1.336.353c-.445-.047-.837-.253-1.176-.617L7.9 12.637c-.38-.414-.59-.81-.629-1.188-.059-.567.369-1.32.369-1.32.201-.309.458-.663.75-1.043l-1.314-.788c-.476-.281-.74-.643-.795-1.084-.082-.662.412-1.278.494-1.36.081-.08.375-.351.786-.488.274-.091.577-.117.91-.077l2.8.4zm6.674 2.388a2 2 0 1 0 0-4 2 2 0 0 0 0 4zM6.767 15.884c.47-.472.942-.472 1.414 0 .471.471.471.942 0 1.414l-2.414 2.414c-.472.472-.943.472-1.414.001-.47-.47-.47-.942 0-1.415l2.414-2.414zm2 2c.47-.472.942-.472 1.414 0 .471.471.471.942 0 1.414l-2.414 2.414c-.472.472-.943.472-1.414.001-.47-.47-.47-.942 0-1.415l2.414-2.414zm-4-4c.47-.472.942-.472 1.414 0 .471.471.471.942 0 1.414l-2.414 2.414c-.472.472-.943.472-1.414.001-.47-.47-.47-.942 0-1.415l2.414-2.414z"/>
</svg>
