<svg xmlns="http://www.w3.org/2000/svg" width="24" height="24" viewBox="0 0 24 24">
    <path fill="#3A3A47" fill-rule="evenodd" d="M21.21 2.734c1.41 1.41.704 6.366-1.414 8.485-.352.352-.9.87-1.541 1.452l.4 2.8c.04.334.013.638-.078.911-.137.411-.407.705-.489.786-.081.082-.697.576-1.359.494-.441-.054-.802-.319-1.084-.794l-.79-1.314c-.378.291-.732.548-1.04.75 0 0-.67.422-1.337.352-.445-.047-.837-.253-1.176-.617L7.9 12.637c-.38-.414-.59-.81-.629-1.188-.059-.567.369-1.32.369-1.32.201-.309.458-.663.749-1.042l-1.313-.789c-.476-.281-.74-.643-.795-1.084-.082-.662.412-1.278.494-1.36.081-.08.375-.351.786-.488.219-.073.457-.104.714-.093l.197.016 2.8.4c.581-.64 1.1-1.19 1.453-1.541 2.121-2.122 7.076-2.824 8.485-1.414zm-3.265 1.343a2 2 0 1 0 0 4 2 2 0 0 0 0-4zM6.767 15.884c.47-.472.942-.472 1.414 0 .471.471.471.942 0 1.414l-2.414 2.414c-.472.472-.943.472-1.414.001-.47-.47-.47-.942 0-1.415l2.414-2.414zm2 2c.47-.472.942-.472 1.414 0 .471.471.471.942 0 1.414l-2.414 2.414c-.472.472-.943.472-1.414.001-.47-.47-.47-.942 0-1.415l2.414-2.414zm-4-4c.47-.472.942-.472 1.414 0 .471.471.471.942 0 1.414l-2.414 2.414c-.472.472-.943.472-1.414.001-.47-.47-.47-.942 0-1.415l2.414-2.414z"/>
</svg>
