<svg width="24" height="24" viewBox="0 0 24 24" fill="none" xmlns="http://www.w3.org/2000/svg">
<path fill-rule="evenodd" clip-rule="evenodd" d="M3 4C3 2.89543 3.89543 2 5 2H16C17.1046 2 18 2.89543 18 4V5C19.6569 5 21 6.34314 21 8V9.85C21 11.5069 19.6569 12.85 18 12.85H13C12.4477 12.85 12 13.2977 12 13.85V15H13V20C13 21.1046 12.1046 22 11 22C9.89543 22 9 21.1046 9 20V15H10V13.85C10 12.1931 11.3431 10.85 13 10.85H18C18.5523 10.85 19 10.4023 19 9.85V8C19 7.44771 18.5523 7 18 7C18 8.10457 17.1046 9 16 9H5C3.89543 9 3 8.10457 3 7V4ZM5 4H16V7H5L5 4Z" fill="#3A3A47"/>
</svg>
