<svg width="24" height="24" viewBox="0 0 24 24" fill="none" xmlns="http://www.w3.org/2000/svg">
<path d="M5 2C3.89543 2 3 2.89543 3 4V7C3 8.10457 3.89543 9 5 9H16C17.1046 9 18 8.10457 18 7C18.5523 7 19 7.44771 19 8V9.85C19 10.4023 18.5523 10.85 18 10.85H13C11.3431 10.85 10 12.1931 10 13.85V15H9V20C9 21.1046 9.89543 22 11 22C12.1046 22 13 21.1046 13 20V15H12V13.85C12 13.2977 12.4477 12.85 13 12.85H18C19.6569 12.85 21 11.5069 21 9.85V8C21 6.34314 19.6569 5 18 5V4C18 2.89543 17.1046 2 16 2H5Z" fill="#3A3A47"/>
</svg>
