<svg width="24" height="24" viewBox="0 0 24 24" fill="none" xmlns="http://www.w3.org/2000/svg">
<path fill-rule="evenodd" clip-rule="evenodd" d="M10 20H7L7 4L10 4L10 20ZM7 22C5.89543 22 5 21.1046 5 20L5 4C5 2.89543 5.89543 2 7 2L10 2C11.1046 2 12 2.89543 12 4L12 20C12 21.1046 11.1046 22 10 22H7Z" fill="#3A3A47"/>
<path d="M8 14H10V13H8L8 14Z" fill="#3A3A47"/>
<path d="M9 12H10V11H9V12Z" fill="#3A3A47"/>
<path d="M9 20H10V19H9V20Z" fill="#3A3A47"/>
<path d="M8 10H10V9H8L8 10Z" fill="#3A3A47"/>
<path d="M8 18H10V17H8L8 18Z" fill="#3A3A47"/>
<path d="M8 6L10 6V5L8 5L8 6Z" fill="#3A3A47"/>
<path d="M9 8H10V7H9V8Z" fill="#3A3A47"/>
<path d="M9 16H10V15H9V16Z" fill="#3A3A47"/>
<path d="M14 2H20V4H18V20H20V22H14V20H16V4H14V2Z" fill="#3A3A47"/>
</svg>
