<svg width="24" height="24" viewBox="0 0 24 24" fill="none" xmlns="http://www.w3.org/2000/svg">
<path d="M18.0032 4C18.0032 5.10457 17.1077 6 16.0032 6C14.8986 6 14.0032 5.10457 14.0032 4C14.0032 2.89543 14.8986 2 16.0032 2C17.1077 2 18.0032 2.89543 18.0032 4Z" fill="#3A3A47"/>
<path d="M7.82921 12.2344C7.63282 12.0122 7.52234 11.7437 7.49525 11.4695L5.64521 13.3195L3.5007 12.0814C3.02223 11.8052 2.41043 11.9691 2.13419 12.4476C1.85795 12.926 2.02188 13.5378 2.50034 13.8141L5.30092 15.431C5.67858 15.649 6.13933 15.5928 6.45255 15.3242C6.48286 15.3002 6.5121 15.2742 6.5401 15.2462L8.63739 13.1489L7.82921 12.2344Z" fill="#3A3A47"/>
<path d="M14.493 6.82291C13.7128 6.04269 12.4478 6.04269 11.6676 6.82291L9.02687 9.46363C8.28705 10.2034 8.24873 11.3791 8.91192 12.1641C8.93014 12.1869 8.94967 12.2091 8.9705 12.2304C8.98881 12.2502 9.0076 12.2698 9.02687 12.2891C9.04573 12.3079 9.06489 12.3264 9.08431 12.3443L10.9875 14.2475L11.0216 18.155C11.0218 18.1781 11.0229 18.2009 11.0249 18.2235H6.65314C6.21723 17.4909 5.41752 17 4.50315 17C3.12244 17 2.00315 18.1193 2.00315 19.5C2.00315 20.8807 3.12244 22 4.50315 22C5.6323 22 6.5866 21.2514 6.89687 20.2235L13.3636 20.2235C13.9758 20.2235 14.5543 19.9431 14.9336 19.4624L17.8576 15.7572L18.1471 17.3994C17.4587 17.8447 17.0032 18.6191 17.0032 19.5C17.0032 20.8807 18.1224 22 19.5032 22C20.8839 22 22.0032 20.8807 22.0032 19.5C22.0032 18.3322 21.2024 17.3514 20.12 17.0767L19.2888 12.3628C19.193 11.8192 18.6746 11.4562 18.131 11.5521C17.5874 11.6479 17.2244 12.1663 17.3202 12.7099L17.3954 13.1361L13.3686 18.2235H12.7256C12.728 18.196 12.7291 18.1682 12.7289 18.1401L12.6915 13.8576C12.6912 13.8297 12.6897 13.8021 12.6868 13.7748C12.6739 13.569 12.5888 13.3669 12.4315 13.2096L11.6715 12.4495C11.7341 12.4003 11.7945 12.3468 11.8523 12.2891L14.4802 9.66113L15.1619 10.3428C15.329 10.5098 15.5404 10.6055 15.7583 10.6299C15.7991 10.6349 15.8407 10.6374 15.8829 10.6374L18.8693 10.6322C19.4216 10.6312 19.8684 10.1828 19.8675 9.63054C19.8665 9.07833 19.4181 8.63146 18.8659 8.63242L16.289 8.63692L14.6445 6.99241C14.5978 6.93378 14.5473 6.87718 14.493 6.82291Z" fill="#3A3A47"/>
</svg>
