<svg width="24" height="24" viewBox="0 0 24 24" fill="none" xmlns="http://www.w3.org/2000/svg">
<path fill-rule="evenodd" clip-rule="evenodd" d="M5.16818 6C5.31996 5.55091 5.57448 5.12899 5.93174 4.77103L6.70127 4H4C2.89543 4 2 4.89543 2 6V16C2 17.1046 2.89543 18 4 18H9L8 20.004H7C6.333 20.004 6 20.336 6 21.002C6 21.667 6.333 22 7 22H17C17.667 22 18 21.667 18 21.002C18 20.336 17.667 20.004 17 20.004H16L15 18H20C21.1046 18 22 17.1046 22 16V6C22 4.89543 21.1046 4 20 4H17.3212L18.0683 4.74856C18.4315 5.11248 18.6885 5.54252 18.8393 6H20V16H4V6H5.16818ZM11 18L10 20.004H14L13 18H11Z" fill="#3A3A47"/>
<path d="M13.0982 12.9166V5.69833L15.1451 7.73893C15.5695 8.16195 16.2574 8.16195 16.6818 7.73894C17.1061 7.31592 17.1061 6.63009 16.6818 6.20708L12.7798 2.31719C12.576 2.11409 12.2997 2 12.0115 2C11.7233 2 11.447 2.11409 11.2432 2.31719L7.31824 6.22999C6.89392 6.653 6.89392 7.33884 7.31824 7.76185C7.74257 8.18486 8.43053 8.18486 8.85486 7.76185L10.9248 5.69833V12.9166C10.9248 13.6392 11.2867 14 12.0115 14C12.7363 14 13.0982 13.6392 13.0982 12.9166Z" fill="#3A3A47"/>
</svg>
