<svg width="24" height="24" viewBox="0 0 24 24" fill="none" xmlns="http://www.w3.org/2000/svg">
<path d="M5.93174 9.27867C6.71883 10.0673 7.81574 10.3563 8.82989 10.1456V13.8125C8.82989 14.4936 9.00094 15.3956 9.71606 16.1121C10.4312 16.8286 11.3314 17 12.0112 17C12.691 17 13.5912 16.8286 14.3064 16.1121C15.0215 15.3956 15.1925 14.4936 15.1925 13.8125V10.1277C16.2004 10.3295 17.287 10.039 18.0683 9.2562C19.3106 8.01145 19.3106 5.99331 18.0683 4.74856L17.3212 4H20C21.1046 4 22 4.89543 22 6V16C22 17.1046 21.1046 18 20 18H15L16 20.004H17C17.667 20.004 18 20.336 18 21.002C18 21.667 17.667 22 17 22H7C6.333 22 6 21.667 6 21.002C6 20.336 6.333 20.004 7 20.004H8L9 18H4C2.89543 18 2 17.1046 2 16V6C2 4.89543 2.89543 4 4 4H6.70127L5.93174 4.77103C4.68942 6.01578 4.68942 8.03392 5.93174 9.27867Z" fill="#3A3A47"/>
<path d="M13.0982 13.9166V5.69833L15.1451 7.73894C15.5695 8.16195 16.2574 8.16195 16.6818 7.73894C17.1061 7.31592 17.1061 6.63009 16.6818 6.20708L12.7798 2.31719C12.576 2.11409 12.2997 2 12.0115 2C11.7233 2 11.447 2.11409 11.2432 2.31719L7.31824 6.22999C6.89392 6.653 6.89392 7.33884 7.31824 7.76185C7.74257 8.18486 8.43053 8.18486 8.85486 7.76185L10.9248 5.69833V13.9166C10.9248 14.6392 11.2867 15 12.0115 15C12.7363 15 13.0982 14.6392 13.0982 13.9166Z" fill="#3A3A47"/>
</svg>
