<svg width="24" height="24" viewBox="0 0 24 24" fill="none" xmlns="http://www.w3.org/2000/svg">
<path fill-rule="evenodd" clip-rule="evenodd" d="M12.1333 4.05439C12.0506 4.00724 11.9494 4.00724 11.8667 4.05439C10.1838 5.0132 9.1429 6.81279 9.1429 8.76361V9.86057C9.51818 10.1672 9.8636 10.5041 10.18 10.8679C10.9754 11.7823 11.5687 12.9774 12 14.2728C12.4313 12.9774 13.0246 11.7823 13.82 10.8679C14.1364 10.5041 14.4818 10.1672 14.8571 9.86057V8.76362C14.8571 6.81279 13.8162 5.0132 12.1333 4.05439ZM16.8562 8.65119C16.8169 6.01539 15.3952 3.59442 13.1163 2.29605C12.4235 1.90132 11.5765 1.90132 10.8837 2.29605C8.6048 3.59443 7.18314 6.0154 7.14377 8.65119C5.94639 8.13768 4.57162 7.86681 3.02124 7.86681C2.46896 7.86681 2.02125 8.31878 2.02125 8.87632C2.02125 9.30423 2.01597 9.73715 2.01067 10.1714C1.99267 11.6473 1.97448 13.1383 2.16291 14.4986C2.41527 16.3203 3.04805 18.049 4.58637 19.4866C6.88238 21.6323 9.36947 22 12.0001 22C14.6308 22 17.1176 21.6323 19.4136 19.4866C20.9519 18.049 21.5847 16.3203 21.8371 14.4986C22.0255 13.1383 22.0073 11.6473 21.9893 10.1714C21.984 9.73715 21.9787 9.30423 21.9787 8.87632C21.9787 8.31878 21.531 7.86681 20.9788 7.86681C19.4284 7.86681 18.0536 8.13768 16.8562 8.65119ZM10.9759 19.9567C10.9134 18.6174 10.7293 17.2447 10.4144 15.9867C10.0137 14.3857 9.42255 13.057 8.67721 12.2001C8.34465 11.8178 7.97453 11.4784 7.56482 11.1853C6.63744 10.522 5.47166 10.0717 4.0145 9.93196C4.01313 10.058 4.01166 10.1828 4.0102 10.3064C3.99323 11.7463 3.97817 13.0247 4.14361 14.2189C4.35334 15.733 4.84279 16.9749 5.945 18.005C7.44464 19.4065 9.03345 19.8556 10.9759 19.9567ZM13.0244 19.9567C14.9667 19.8556 16.5553 19.4065 18.055 18.005C19.1572 16.9749 19.6467 15.733 19.8564 14.2189C20.0218 13.0247 20.0068 11.7463 19.9898 10.3065C19.9883 10.1828 19.9869 10.058 19.9855 9.93196C18.5283 10.0717 17.3626 10.522 16.4352 11.1853C16.0255 11.4784 15.6554 11.8178 15.3228 12.2001C14.5775 13.057 13.9864 14.3856 13.5857 15.9866C13.2708 17.2447 13.0868 18.6174 13.0244 19.9567Z" fill="#3A3A47"/>
<path fill-rule="evenodd" clip-rule="evenodd" d="M11.9278 5.42857C12.121 5.23123 12.4376 5.22784 12.6349 5.421C13.3971 6.16709 13.9275 7.0931 14.1971 8.09111C14.2691 8.3577 14.1114 8.63219 13.8448 8.70421C13.5782 8.77623 13.3037 8.6185 13.2317 8.35191C13.0076 7.52222 12.5672 6.75403 11.9354 6.13563C11.7381 5.94247 11.7347 5.62591 11.9278 5.42857Z" fill="#3A3A47"/>
<path d="M10.4144 15.9867C10.7293 17.2447 10.9134 18.6174 10.9759 19.9567C9.03345 19.8556 7.44464 19.4065 5.945 18.005C4.84279 16.9749 4.35334 15.733 4.14361 14.2189C3.97817 13.0247 3.99323 11.7463 4.0102 10.3064L4.0145 9.93196C5.47166 10.0717 6.63744 10.522 7.56482 11.1853C7.97453 11.4784 8.34465 11.8178 8.67721 12.2001C9.42255 13.057 10.0137 14.3857 10.4144 15.9867Z" fill="#3A3A47"/>
<path d="M18.055 18.005C16.5553 19.4065 14.9667 19.8556 13.0244 19.9567C13.0868 18.6174 13.2708 17.2447 13.5857 15.9866C13.9864 14.3856 14.5775 13.057 15.3228 12.2001C15.6554 11.8178 16.0255 11.4784 16.4352 11.1853C17.3626 10.522 18.5283 10.0717 19.9855 9.93196L19.9898 10.3065C20.0068 11.7463 20.0218 13.0247 19.8564 14.2189C19.6467 15.733 19.1572 16.9749 18.055 18.005Z" fill="#3A3A47"/>
</svg>
