<svg width="24" height="24" viewBox="0 0 24 24" fill="none" xmlns="http://www.w3.org/2000/svg">
<path d="M19.1257 0C20.4717 0 21.5629 1.07451 21.5629 2.39999V4.79999H2.06585V2.39999C2.06585 1.07451 3.15699 0 4.50297 0H19.1257Z" fill="#3A3A47"/>
<path d="M4.17839 9.59998L2.43759 21.5999H12.496C12.45 21.8774 12.4236 22.1481 12.4236 22.4C12.4236 22.9689 12.5442 23.51 12.7616 23.9999H2.43759C0.954473 23.9999 -0.184792 22.7064 0.0249523 21.2605L2.06468 7.19998H21.5617L22.8598 16.1481C22.8019 15.9959 22.7417 15.8495 22.6806 15.7113C22.4829 15.2637 22.2015 14.729 21.8176 14.2632C21.5736 13.9673 20.9494 13.2806 19.9508 13.0657L19.448 9.59998H4.17839Z" fill="#3A3A47"/>
<path d="M20.8393 19.1908L20.4874 16.765C20.5643 16.9472 20.634 17.1354 20.6947 17.3214C20.856 17.8157 20.9536 18.2939 20.9536 18.6001C20.9536 18.8088 20.913 19.008 20.8393 19.1908Z" fill="#3A3A47"/>
<path d="M20.8717 21.5999H21.1888L21.0868 20.8965C21.3986 20.0369 21.8869 19.2 22.3752 19.2C22.655 19.2 22.9348 19.4747 23.1814 19.8711C23.2895 20.0448 23.3912 20.242 23.4838 20.4495L23.6014 21.2605C23.779 22.4843 22.99 23.599 21.8441 23.9126C21.2076 23.6958 20.7505 23.1005 20.7505 22.4C20.7505 22.3832 20.7508 22.3658 20.7514 22.348C20.7579 22.1483 20.8006 21.8869 20.8717 21.5999Z" fill="#3A3A47"/>
<path d="M14.9819 21.5999H17.9891C18.0665 21.9126 18.1103 22.1949 18.1103 22.4L18.1102 22.417C18.101 23.288 17.385 23.9922 16.5002 23.9999H16.4708C15.5803 23.9922 14.8608 23.2788 14.8608 22.4C14.8608 22.1949 14.9045 21.9126 14.9819 21.5999Z" fill="#3A3A47"/>
<path fill-rule="evenodd" clip-rule="evenodd" d="M16.4057 14.8808V13.1226C16.4057 12.2815 15.7137 11.6001 14.8596 11.6001L12.3438 11.6001C10.1005 11.6001 8.28193 13.3909 8.28193 15.6001C8.28193 16.5062 8.58789 17.3419 9.10362 18.0126L8.65182 18.4531C8.28022 18.8156 7.7788 19.0194 7.257 19.0194H7.24316C6.96274 19.0194 6.73542 19.2433 6.73542 19.5194C6.73542 19.7955 6.96274 20.0194 7.24316 20.0194H7.257C8.04771 20.0194 8.80559 19.7106 9.36646 19.1635L9.81257 18.7286C10.5068 19.274 11.3867 19.6 12.3438 19.6C12.6118 19.6 12.8738 19.5745 13.1273 19.5257C13.1295 19.5208 13.1316 19.516 13.1337 19.5112C13.3315 19.0635 13.6128 18.5289 13.9968 18.0631C14.2123 17.8016 14.7247 17.2352 15.5298 16.9585C15.6548 16.5146 15.8128 16.083 15.977 15.7113C16.091 15.4534 16.2326 15.1667 16.4057 14.8808ZM13.2279 13.9994C13.4245 13.8026 13.746 13.8 13.9459 13.9936C14.1458 14.1873 14.1485 14.5038 13.9518 14.7007L13.9078 14.7447L13.7811 14.871C13.6706 14.981 13.5095 15.1412 13.3067 15.3418C13.093 15.5533 12.8331 15.8098 12.5374 16.1001H13.5616C13.8421 16.1001 14.0694 16.3239 14.0694 16.6C14.0694 16.8762 13.8421 17.1 13.5616 17.1H11.305C11.0246 17.1 10.7973 16.8762 10.7973 16.6V14.3778C10.7973 14.1017 11.0246 13.8778 11.305 13.8778C11.5855 13.8778 11.8128 14.1017 11.8128 14.3778V15.3994C12.1106 15.107 12.3722 14.8489 12.5869 14.6364C12.7889 14.4366 12.9493 14.2772 13.0591 14.1678L13.1848 14.0425L13.2279 13.9994Z" fill="#3A3A47"/>
<path d="M16.4855 19.2C16.1579 19.2 15.8302 19.5768 15.5558 20.0845C15.15 20.8355 14.8608 21.8728 14.8608 22.4C14.8608 23.2837 15.5882 24 16.4855 24C17.3771 24 18.1009 23.2928 18.1102 22.417L18.1103 22.4C18.1103 21.5164 17.2979 19.2 16.4855 19.2Z" fill="#3A3A47"/>
<path d="M17.7041 18.6001C17.7041 18.2722 17.816 17.7469 17.9983 17.2158C18.3071 16.3162 18.818 15.4002 19.3288 15.4002C19.8597 15.4002 20.3906 16.3893 20.6947 17.3214C20.856 17.8157 20.9536 18.2939 20.9536 18.6001C20.9536 19.2291 20.5851 19.7733 20.049 20.0348C19.832 20.1406 19.5875 20.2001 19.3288 20.2001C19.1381 20.2001 18.955 20.1678 18.7849 20.1083C18.1551 19.888 17.7041 19.2959 17.7041 18.6001Z" fill="#3A3A47"/>
<path d="M23.1814 19.8711C22.9348 19.4747 22.655 19.2 22.3752 19.2C21.5783 19.2 20.7814 21.4289 20.7514 22.348C20.7508 22.3658 20.7505 22.3832 20.7505 22.4C20.7505 23.2837 21.4779 24 22.3752 24C23.2726 24 24 23.2837 24 22.4C24 21.8207 23.6508 20.6256 23.1814 19.8711Z" fill="#3A3A47"/>
</svg>
