<svg width="24" height="24" viewBox="0 0 24 24" fill="none" xmlns="http://www.w3.org/2000/svg">
<path d="M19.1257 0C20.4717 0 21.5629 1.07451 21.5629 2.39999V4.79999H2.06585V2.39999C2.06585 1.07451 3.15699 0 4.50297 0H19.1257Z" fill="#3A3A47"/>
<path d="M16.4855 19.2C16.1579 19.2 15.8302 19.5768 15.5558 20.0845C15.15 20.8355 14.8608 21.8728 14.8608 22.4C14.8608 23.2837 15.5882 24 16.4855 24C17.3771 24 18.1009 23.2928 18.1102 22.417L18.1103 22.4C18.1103 21.5164 17.2979 19.2 16.4855 19.2Z" fill="#3A3A47"/>
<path d="M17.7041 18.6001C17.7041 18.2722 17.816 17.7469 17.9983 17.2158C18.3071 16.3162 18.818 15.4002 19.3288 15.4002C19.8597 15.4002 20.3906 16.3893 20.6947 17.3214C20.856 17.8157 20.9536 18.2939 20.9536 18.6001C20.9536 19.2291 20.585 19.7733 20.049 20.0348C19.832 20.1406 19.5875 20.2001 19.3288 20.2001C19.1381 20.2001 18.955 20.1678 18.7849 20.1083C18.1551 19.888 17.7041 19.2959 17.7041 18.6001Z" fill="#3A3A47"/>
<path d="M13.9459 13.9936C13.746 13.8 13.4245 13.8026 13.2279 13.9994L13.1848 14.0425L13.0591 14.1678C12.9493 14.2772 12.7889 14.4366 12.5869 14.6364C12.3722 14.8489 12.1106 15.107 11.8128 15.3994V14.3778C11.8128 14.1017 11.5855 13.8778 11.305 13.8778C11.0246 13.8778 10.7973 14.1017 10.7973 14.3778V16.6C10.7973 16.8762 11.0246 17.1 11.305 17.1H13.5616C13.842 17.1 14.0694 16.8762 14.0694 16.6C14.0694 16.3239 13.842 16.1001 13.5616 16.1001H12.5374C12.8331 15.8098 13.093 15.5533 13.3067 15.3418C13.5095 15.1412 13.6706 14.981 13.7811 14.871L13.9078 14.7447L13.9518 14.7007C14.1485 14.5038 14.1458 14.1873 13.9459 13.9936Z" fill="#3A3A47"/>
<path d="M12.4236 22.4C12.4236 22.1481 12.45 21.8774 12.496 21.5999C12.6554 20.7123 12.8072 20.2637 13.1337 19.5112L13.1273 19.5257C12.8738 19.5745 12.6118 19.6 12.3438 19.6C11.3867 19.6 10.5068 19.274 9.81257 18.7286L9.36646 19.1635C8.80559 19.7106 8.04771 20.0194 7.257 20.0194H7.24316C6.96274 20.0194 6.73542 19.7955 6.73542 19.5194C6.73542 19.2433 6.96274 19.0194 7.24316 19.0194H7.257C7.7788 19.0194 8.28022 18.8156 8.65182 18.4531L9.10362 18.0126C8.58789 17.3419 8.28193 16.5062 8.28193 15.6001C8.28193 13.3909 10.1005 11.6001 12.3438 11.6001L14.8596 11.6001C15.7137 11.6001 16.4057 12.2815 16.4057 13.1226V14.8808C17.604 13.3395 18.2727 13.1226 19.3288 13.1226C20.6947 13.1226 21.5736 13.9673 21.8175 14.2632C22.2015 14.729 22.4829 15.2637 22.6806 15.7113C22.7417 15.8495 22.8019 15.9959 22.8598 16.1481L21.5617 7.19998H2.06468L0.0249523 21.2605C-0.184792 22.7064 0.954473 23.9999 2.43759 23.9999H12.7616C12.5442 23.51 12.4236 22.9689 12.4236 22.4Z" fill="#3A3A47"/>
<path d="M16.4855 19.2C16.1579 19.2 15.8302 19.5768 15.5558 20.0845C15.15 20.8355 14.8608 21.8728 14.8608 22.4C14.8608 23.2837 15.5882 24 16.4855 24C17.3771 24 18.1009 23.2928 18.1102 22.417L18.1103 22.4C18.1103 21.5164 17.2979 19.2 16.4855 19.2Z" fill="#3A3A47"/>
<path d="M17.7041 18.6001C17.7041 18.2722 17.816 17.7469 17.9983 17.2158C18.3071 16.3162 18.818 15.4002 19.3288 15.4002C19.8597 15.4002 20.3906 16.3893 20.6947 17.3214C20.856 17.8157 20.9536 18.2939 20.9536 18.6001C20.9536 19.2291 20.585 19.7733 20.049 20.0348C19.832 20.1406 19.5875 20.2001 19.3288 20.2001C19.1381 20.2001 18.955 20.1678 18.7849 20.1083C18.1551 19.888 17.7041 19.2959 17.7041 18.6001Z" fill="#3A3A47"/>
<path d="M23.1814 19.8711C22.9348 19.4747 22.655 19.2 22.3752 19.2C21.5783 19.2 20.7814 21.4289 20.7514 22.348C20.7508 22.3658 20.7505 22.3832 20.7505 22.4C20.7505 23.2837 21.4779 24 22.3752 24C23.2726 24 24 23.2837 24 22.4C24 21.8207 23.6508 20.6256 23.1814 19.8711Z" fill="#3A3A47"/>
</svg>
