<svg width="24" height="24" viewBox="0 0 24 24" fill="none" xmlns="http://www.w3.org/2000/svg">
<path fill-rule="evenodd" clip-rule="evenodd" d="M11.9278 5.42857C12.121 5.23123 12.4376 5.22784 12.6349 5.421C13.3971 6.16709 13.9275 7.0931 14.1971 8.09111C14.2691 8.3577 14.1114 8.63219 13.8448 8.70421C13.5782 8.77623 13.3037 8.6185 13.2317 8.35191C13.0076 7.52222 12.5672 6.75403 11.9354 6.13563C11.7381 5.94247 11.7347 5.62591 11.9278 5.42857Z" fill="#3A3A47"/>
<path fill-rule="evenodd" clip-rule="evenodd" d="M16.8562 8.65119C16.8169 6.01539 15.3952 3.59442 13.1163 2.29605C12.4235 1.90132 11.5765 1.90132 10.8837 2.29605C8.6048 3.59443 7.18314 6.0154 7.14377 8.65119C5.94639 8.13768 4.57162 7.86681 3.02124 7.86681C2.46896 7.86681 2.02125 8.31878 2.02125 8.87632C2.02125 9.30423 2.01597 9.73715 2.01067 10.1714C1.99267 11.6473 1.97448 13.1383 2.16291 14.4986C2.41527 16.3203 3.04805 18.049 4.58637 19.4866C6.88238 21.6323 9.36947 22 12.0001 22C14.6308 22 17.1176 21.6323 19.4136 19.4866C20.9519 18.049 21.5847 16.3203 21.8371 14.4986C22.0255 13.1383 22.0073 11.6473 21.9893 10.1714C21.984 9.73715 21.9787 9.30423 21.9787 8.87632C21.9787 8.31878 21.531 7.86681 20.9788 7.86681C19.4284 7.86681 18.0536 8.13768 16.8562 8.65119ZM12.1333 4.05439C12.0506 4.00724 11.9494 4.00724 11.8667 4.05439C10.1838 5.0132 9.1429 6.81279 9.1429 8.76361V9.86057C9.51818 10.1672 9.8636 10.5041 10.18 10.8679C10.9754 11.7823 11.5687 12.9774 12 14.2728C12.4313 12.9774 13.0246 11.7823 13.82 10.8679C14.1364 10.5041 14.4818 10.1672 14.8571 9.86057V8.76362C14.8571 6.81279 13.8162 5.0132 12.1333 4.05439Z" fill="#3A3A47"/>
</svg>
