<svg width="24" height="24" viewBox="0 0 24 24" fill="none" xmlns="http://www.w3.org/2000/svg">
<path fill-rule="evenodd" clip-rule="evenodd" d="M5.99207 2.25901C5.09346 1.88132 4.16414 1.90162 3.32389 2.41967L3.3222 2.42072C2.48046 2.94199 2.04998 3.76738 2.00125 4.74192C2.00042 4.75856 2 4.77521 2 4.79186V19.2096C2 19.2246 2.00034 19.2396 2.00101 19.2546C2.04508 20.2332 2.48197 21.056 3.32399 21.5768C4.16335 22.0954 5.09262 22.1208 5.99236 21.7423C6.01239 21.7339 6.03214 21.7248 6.05158 21.7151L20.475 14.508C20.5025 14.4943 20.5293 14.4793 20.5554 14.4631C21.4499 13.9078 22 13.073 22 12.0025C22 10.9321 21.4499 10.0973 20.5554 9.54196C20.5294 9.52579 20.5026 9.51082 20.4752 9.4971L6.05176 2.28644C6.03217 2.27665 6.01226 2.2675 5.99207 2.25901ZM4.37434 4.1216C4.15701 4.25645 4.02355 4.44166 4 4.81956V8.62294L12.4426 11.9999L4 15.3769V19.1845C4.02075 19.5516 4.15066 19.7364 4.37558 19.8756C4.5997 20.0139 4.83425 20.0529 5.18991 19.9099L19.5358 12.7415C19.9078 12.5003 20 12.2684 20 12.0025C20 11.7366 19.9078 11.5047 19.5358 11.2635L5.18993 4.09159C4.82835 3.94621 4.59399 3.98644 4.37434 4.1216Z" fill="#3A3A47"/>
</svg>
