<svg width="24" height="24" viewBox="0 0 24 24" fill="none" xmlns="http://www.w3.org/2000/svg">
<path fill-rule="evenodd" clip-rule="evenodd" d="M5.99207 2.25913C5.09346 1.88145 4.16414 1.90174 3.32389 2.4198L3.3222 2.42084C2.48046 2.94211 2.04998 3.7675 2.00125 4.74205C2.00042 4.75868 2 4.77533 2 4.79198V19.2097C2 19.2247 2.00034 19.2397 2.00101 19.2547C2.04508 20.2333 2.48197 21.0561 3.32399 21.5769C4.16335 22.0955 5.09262 22.1209 5.99236 21.7424C6.01239 21.734 6.03214 21.7249 6.05158 21.7152L20.475 14.5082C20.5025 14.4944 20.5293 14.4794 20.5554 14.4632C21.4499 13.9079 22 13.0731 22 12.0026C22 10.9322 21.4499 10.0974 20.5554 9.54209C20.5294 9.52591 20.5026 9.51094 20.4752 9.49722L6.05176 2.28656C6.03217 2.27677 6.01226 2.26762 5.99207 2.25913ZM4.37434 4.12172C4.15701 4.25658 4.02355 4.44179 4 4.81969V8.62306L12.4426 12L4 15.377V19.1847C4.02075 19.5517 4.15066 19.7366 4.37558 19.8757C4.5997 20.014 4.83425 20.053 5.18991 19.91L19.5358 12.7416C19.9078 12.5005 20 12.2686 20 12.0026C20 11.7367 19.9078 11.5048 19.5358 11.2636L5.18993 4.09171C4.82835 3.94633 4.59399 3.98656 4.37434 4.12172Z" fill="#3A3A47"/>
</svg>
