<svg width="24" height="24" viewBox="0 0 24 24" fill="none" xmlns="http://www.w3.org/2000/svg">
<path d="M9.02009 20.0007C9.02009 21.1052 8.12466 22.0007 7.02009 22.0007C5.91552 22.0007 5.02009 21.1052 5.02009 20.0007C5.02009 18.8961 5.91552 18.0007 7.02009 18.0007C8.12466 18.0007 9.02009 18.8961 9.02009 20.0007Z" fill="#3A3A47"/>
<path d="M21.0247 20.0007C21.0247 21.1052 20.1293 22.0007 19.0247 22.0007C17.9201 22.0007 17.0247 21.1052 17.0247 20.0007C17.0247 18.8961 17.9201 18.0007 19.0247 18.0007C20.1293 18.0007 21.0247 18.8961 21.0247 20.0007Z" fill="#3A3A47"/>
<path d="M18.3242 12.9967H7.23367L5.62536 5.9967H21.0039L18.3242 12.9967Z" fill="#3A3A47"/>
<path fill-rule="evenodd" clip-rule="evenodd" d="M2.00391 2.99561C2.00391 2.44332 2.45162 1.99561 3.00391 1.99561H4.94465C5.41171 1.99561 5.81657 2.31891 5.91988 2.77441L6.42394 4.9967H21.0039C21.3331 4.9967 21.6412 5.15871 21.8278 5.42992C22.0144 5.70113 22.0555 6.04679 21.9378 6.35422L19.2581 13.3542C19.11 13.7411 18.7385 13.9967 18.3242 13.9967H7.23367C6.76765 13.9967 6.36341 13.6748 6.25906 13.2206L4.65013 6.2179L4.14607 3.99561H3.00391C2.45162 3.99561 2.00391 3.54789 2.00391 2.99561ZM6.88117 6.9967L8.02996 11.9967H17.6362L19.5503 6.9967H6.88117Z" fill="#3A3A47"/>
<path fill-rule="evenodd" clip-rule="evenodd" d="M8.31566 12.4148L9.94873 13.5694L8.93724 15.0001H19.0038C19.5561 15.0001 20.0038 15.4478 20.0038 16.0001Lnan nanL20.0038 16.0001C20.0038 16.5524 19.5561 17.0001 19.0038 17.0001H7.00555C6.19439 17.0001 5.72074 16.0852 6.18902 15.4228L8.31566 12.4148Z" fill="#3A3A47"/>
</svg>
