<svg width="24" height="24" viewBox="0 0 24 24" fill="none" xmlns="http://www.w3.org/2000/svg">
<path fill-rule="evenodd" clip-rule="evenodd" d="M6.49976 5.99977C7.74248 5.99995 8.76055 6.64827 9.31714 7.67653C9.79655 8.56265 9.86564 9.5881 9.79078 10.4783C9.64 12.2689 8.8298 14.433 7.49292 16.5613C7.8845 17.0821 8.31566 17.5283 8.77613 17.865C8.9745 18.0098 9.15077 18.0082 9.29859 17.9441C9.46501 17.8716 9.6527 17.6896 9.73121 17.3806C9.85685 16.8851 10.0205 16.1422 10.1648 15.5945C10.3208 15.0027 10.5161 14.3709 10.7957 13.8445C10.9545 13.5457 11.2095 13.2702 11.574 13.1248C11.9413 12.9784 12.3158 13.0075 12.6228 13.1287C13.2071 13.3597 13.572 13.9094 13.6843 14.4724C13.9373 15.7402 14.2273 16.5958 14.5115 17.1511C14.5707 17.2669 14.6292 17.3654 14.6834 17.45L15.2078 19.0164L15.2224 19.0574L15.24 19.0974C15.3542 19.3599 15.5491 19.6652 15.8523 19.8728C15.373 19.9934 14.8394 19.9877 14.3035 19.7429C13.6371 19.4383 13.1281 18.8376 12.7312 18.0623C12.4816 17.5745 12.2578 16.9804 12.0584 16.2722C11.9219 16.807 11.8214 17.2698 11.6687 17.8718C11.4483 18.7408 10.8677 19.4417 10.0974 19.7771C9.30878 20.1203 8.37766 20.051 7.59546 19.4793C6.90329 18.9731 6.29558 18.3257 5.77613 17.6062C5.728 17.6073 5.67915 17.6067 5.63062 17.6043C5.60452 17.6029 5.57838 17.5998 5.55249 17.5974C5.0076 18.3069 4.39331 19.0156 3.70777 19.7049C3.31843 20.0959 2.68616 20.0976 2.29468 19.7088C1.90326 19.3194 1.90159 18.6863 2.29078 18.2947C2.89442 17.6877 3.43523 17.0662 3.91578 16.4461C2.96725 14.542 2.42109 12.3183 2.52906 10.4324C2.58328 9.48649 2.81509 8.42776 3.44214 7.55251C4.13733 6.58261 5.21179 5.99977 6.49976 5.99977ZM6.26831 8.01149C3.95978 8.26427 4.09356 12.3611 5.73121 15.6072C8.26992 11.6276 8.44723 8.0004 6.49976 7.99977L6.26831 8.01149Z" fill="#3A3A47"/>
<path d="M21.075 9.14723L18.9324 17.3826L17.1882 18.947C17.1176 19.0083 17.035 19.0549 16.946 19.0838C16.857 19.1126 16.7629 19.1233 16.6697 19.115C16.4754 19.1002 16.3212 18.9612 16.2068 18.698L15.4636 16.4802L17.6062 8.24489L21.075 9.14723Z" fill="#3A3A47"/>
<path d="M18.4714 4.91774C18.6755 4.14675 19.1622 3.86133 19.9314 4.06227C21.0846 4.36311 19.9294 4.06069 21.0847 4.36208C21.856 4.56314 22.1417 5.04906 21.9412 5.82009L21.3386 8.13161L17.8699 7.22926L18.4714 4.91774Z" fill="#3A3A47"/>
</svg>
