<svg width="24" height="24" viewBox="0 0 24 24" fill="none" xmlns="http://www.w3.org/2000/svg">
<path fill-rule="evenodd" clip-rule="evenodd" d="M7.41403 10.512H15C15.667 10.512 16 10.845 16 11.512C16 12.179 15.667 12.512 15 12.512H7.41403L10.707 15.805C10.8025 15.8972 10.8787 16.0076 10.9311 16.1296C10.9835 16.2516 11.0111 16.3828 11.0123 16.5156C11.0134 16.6484 10.9881 16.7801 10.9379 16.903C10.8876 17.0259 10.8133 17.1375 10.7194 17.2314C10.6255 17.3253 10.5139 17.3995 10.391 17.4498C10.2681 17.5001 10.1364 17.5254 10.0036 17.5243C9.87085 17.5231 9.73963 17.4955 9.61763 17.4431C9.49562 17.3907 9.38528 17.3145 9.29303 17.219L4.29303 12.219C4.10556 12.0315 4.00024 11.7772 4.00024 11.512C4.00024 11.2468 4.10556 10.9925 4.29303 10.805L9.29403 5.804C9.48263 5.62184 9.73524 5.52105 9.99743 5.52333C10.2596 5.5256 10.5104 5.63077 10.6958 5.81618C10.8813 6.00159 10.9864 6.2524 10.9887 6.5146C10.991 6.7768 10.8902 7.0294 10.708 7.218L7.41403 10.512ZM20 18C20 19.333 19.333 20 18 20H16.005C15.335 20.021 15 19.688 15 19C15 18.312 15.335 17.979 16.005 18H18V6H16.098C15.366 6 15 5.667 15 5C15 4.333 15.372 4 16.116 4H18C19.324 4 19.991 4.668 20 6.004V18Z" fill="#3A3A47"/>
</svg>
