<svg width="24" height="24" viewBox="0 0 24 24" fill="none" xmlns="http://www.w3.org/2000/svg">
<path fill-rule="evenodd" clip-rule="evenodd" d="M5.57738 8C5.94246 8 6.27381 8.04948 6.57143 8.14845C6.87302 8.24742 7.13889 8.38144 7.36905 8.55052L6.65476 9.73814C6.49603 9.61856 6.3254 9.53196 6.14286 9.47835C5.96429 9.42062 5.7877 9.39175 5.6131 9.39175C5.16468 9.39175 4.7877 9.6 4.48214 10.0165C4.18056 10.433 4.00595 11.0351 3.95833 11.8227C4.20437 11.5546 4.48016 11.3588 4.78571 11.2351C5.09524 11.1072 5.39683 11.0433 5.69048 11.0433C6.11905 11.0433 6.50794 11.1546 6.85714 11.3773C7.20635 11.5959 7.48413 11.9175 7.69048 12.3423C7.89683 12.7629 8 13.2763 8 13.8825C8 14.4557 7.88095 14.9794 7.64286 15.4536C7.40476 15.9237 7.06548 16.299 6.625 16.5794C6.18849 16.8598 5.67063 17 5.07143 17C4.52381 17 4.05556 16.8928 3.66667 16.6784C3.27778 16.4598 2.96032 16.1629 2.71429 15.7876C2.46825 15.4082 2.2877 14.9732 2.17262 14.4825C2.05754 13.9876 2 13.4639 2 12.9113C2 11.9464 2.14286 11.0948 2.42857 10.3567C2.71825 9.61856 3.12897 9.04124 3.66071 8.62474C4.19643 8.20825 4.83532 8 5.57738 8ZM5 12.5C4.54067 12.4857 4.36508 12.5629 4 13C4 15 4 15.5 5 15.5C5.74452 15.5 6.03375 14.7438 6 14C5.96696 13.2718 5.72855 12.5227 5 12.5ZM20.3615 10V11.6956H22V13.3044H20.3615V15H18.6254V13.3044H17V11.6956H18.6254V10H20.3615ZM15.1128 9.18763C14.5259 8.39588 13.655 8 12.5 8C11.3357 8 10.4601 8.39588 9.87325 9.18763C9.29108 9.97526 9 11.0742 9 12.4845C9 13.899 9.29108 15.0062 9.87325 15.8062C10.4601 16.6021 11.3357 17 12.5 17C13.655 17 14.5259 16.6021 15.1128 15.8062C15.7043 15.0062 16 13.899 16 12.4845C16 11.0742 15.7043 9.97526 15.1128 9.18763ZM11.4172 10.1216C11.6454 9.65155 12.0063 9.4165 12.5 9.4165C12.7375 9.4165 12.9378 9.44742 13.1008 9.50928C13.2685 9.56701 13.4082 9.67423 13.52 9.83093C13.52 9.83093 13.7955 10.1545 13.8762 11.2845C13.8995 11.6103 13.9112 12.0103 13.9112 12.4845C13.9112 13.2474 13.8623 13.8577 13.7645 14.3155C13.6667 14.7691 13.513 15.0948 13.3034 15.2928C13.0985 15.4907 12.8307 15.5897 12.5 15.5897C12.3184 15.5897 12.1554 15.5732 12.011 15.5402C11.8713 15.5072 11.7502 15.4474 11.6477 15.3608C11.4941 15.231 11.2158 14.8863 11.1587 14.2041C11.1497 14.0972 11.1409 14.0071 11.1327 13.9226C11.1179 13.7701 11.1048 13.6361 11.0958 13.4557C11.0818 13.1711 11.0749 12.8474 11.0749 12.4845C11.0749 11.3753 11.189 10.5876 11.4172 10.1216Z" fill="#24252E"/>
</svg>
