<svg width="24" height="24" viewBox="0 0 24 24" fill="none" xmlns="http://www.w3.org/2000/svg">
<path d="M18.0208 4C18.0208 5.10457 17.1237 6 16.0171 6C14.9105 6 14.0134 5.10457 14.0134 4C14.0134 2.89543 14.9105 2 16.0171 2C17.1237 2 18.0208 2.89543 18.0208 4Z" fill="#3A3A47"/>
<path d="M13.1335 6.18149C13.0319 6.14235 12.9218 6.12004 12.8066 6.11803L7.9866 6.03405C7.80365 6.03086 7.63183 6.07926 7.48506 6.16582C7.4695 6.17378 7.45406 6.18217 7.43875 6.19099L4.72522 7.75478C4.23023 8.04004 4.06063 8.67183 4.34641 9.16591C4.6322 9.66 5.26515 9.82929 5.76014 9.54403L8.47367 7.98024C8.49079 7.97037 8.50752 7.96009 8.52385 7.94942L10.4903 7.98368L9.10864 10.3725C8.55534 11.3291 8.8837 12.5522 9.84203 13.1045L9.86034 13.115C9.8792 13.1276 9.89862 13.1397 9.91858 13.1512L12.9863 14.9191L13.0226 17H4.99444C4.44252 17 3.9951 17.4466 3.9951 17.9975C3.9951 18.5483 4.44232 18.9949 4.99411 18.995L18.9974 18.9997C19.5604 18.9998 20.013 18.537 19.9991 17.9751C19.9856 17.4327 19.5413 17 18.9977 17H15.0266L14.9816 14.4245C14.9811 14.395 14.9793 14.3658 14.9763 14.337C14.9776 13.9898 14.7976 13.6516 14.4748 13.4656L12.5788 12.3729L14.332 9.34188L16.5894 11.0362C16.8043 11.1974 17.063 11.2594 17.3104 11.2299L20.0322 11.135C20.5857 11.1158 21.0187 10.6523 20.9994 10.0998C20.98 9.54734 20.5157 9.11512 19.9622 9.13441L17.5046 9.22008L14.0152 6.60114C13.9803 6.57495 13.9442 6.55138 13.9072 6.53039C13.8468 6.48584 13.7832 6.44421 13.7166 6.40582C13.5301 6.29832 13.3334 6.22416 13.1335 6.18149Z" fill="#3A3A47"/>
<path d="M8.53898 13.3055C8.37803 13.193 8.24742 13.0534 8.14901 12.8972L7.71374 13.6497L4.00191 13.6562C3.44761 13.6571 2.99903 14.1065 3 14.6598C3.00097 15.2131 3.45111 15.6608 4.00542 15.6598L8.27609 15.6524C8.54656 15.6519 8.79185 15.5447 8.97203 15.3707C9.05126 15.3009 9.12068 15.2173 9.17644 15.1209L9.74065 14.1454L8.53898 13.3055Z" fill="#3A3A47"/>
<path d="M8.00243 21C8.00243 21.5523 7.5539 22 7.0006 22C6.4473 22 5.99876 21.5523 5.99876 21C5.99876 20.4477 6.4473 20 7.0006 20C7.5539 20 8.00243 20.4477 8.00243 21Z" fill="#3A3A47"/>
<path d="M18.0208 21C18.0208 21.5523 17.5722 22 17.0189 22C16.4656 22 16.0171 21.5523 16.0171 21C16.0171 20.4477 16.4656 20 17.0189 20C17.5722 20 18.0208 20.4477 18.0208 21Z" fill="#3A3A47"/>
</svg>
