<svg width="24" height="24" viewBox="0 0 24 24" fill="none" xmlns="http://www.w3.org/2000/svg">
<path fill-rule="evenodd" clip-rule="evenodd" d="M18.9873 11.2146C19.6885 10.6011 20.7098 10.4728 21.5527 10.8943C21.6966 10.9662 21.8494 10.9989 22 10.9988V19.9998C22 21.1043 21.1046 21.9998 20 21.9998H4C2.89543 21.9998 2 21.1043 2 19.9998V10.9988C2.15057 10.9989 2.30344 10.9662 2.44727 10.8943C3.29018 10.4728 4.31153 10.6011 5.0127 11.2146L5.28418 11.4519C6.83833 12.8115 9.18046 12.7334 10.6406 11.2732C11.3914 10.5226 12.6086 10.5226 13.3594 11.2732C14.8195 12.7334 17.1617 12.8115 18.7158 11.4519L18.9873 11.2146ZM8 17.9998C7.44772 17.9998 7 18.4475 7 18.9998C7 19.552 7.44772 19.9998 8 19.9998C8.55228 19.9998 9 19.552 9 18.9998C9 18.4475 8.55228 17.9998 8 17.9998ZM16 17.9998C15.4477 17.9998 15 18.4475 15 18.9998C15 19.552 15.4477 19.9998 16 19.9998C16.5523 19.9998 17 19.552 17 18.9998C17 18.4475 16.5523 17.9998 16 17.9998ZM5 13.9998C4.44772 13.9998 4 14.4475 4 14.9998C4 15.552 4.44772 15.9998 5 15.9998C5.55228 15.9998 6 15.552 6 14.9998C6 14.4475 5.55228 13.9998 5 13.9998ZM12 13.9998C11.4477 13.9998 11 14.4475 11 14.9998C11 15.552 11.4477 15.9998 12 15.9998C12.5523 15.9998 13 15.552 13 14.9998C13 14.4475 12.5523 13.9998 12 13.9998ZM19 13.9998C18.4477 13.9998 18 14.4475 18 14.9998C18 15.552 18.4477 15.9998 19 15.9998C19.5523 15.9998 20 15.552 20 14.9998C20 14.4475 19.5523 13.9998 19 13.9998Z" fill="#3A3A47"/>
<path d="M20 5.99976C21.1046 5.99976 22 6.89519 22 7.99976V8.9148C20.5364 8.37865 18.8666 8.66261 17.6699 9.70972L17.3994 9.94703C16.6377 10.6135 15.4891 10.5748 14.7734 9.85914C13.2416 8.32751 10.7584 8.32751 9.22656 9.85914C8.51087 10.5748 7.36233 10.6135 6.60059 9.94703L6.33008 9.70972C5.13337 8.66261 3.46363 8.37865 2 8.9148V7.99976C2 7.24657 2.3849 6.34087 3 5.99976C2.97947 5.91993 3 6.086 3 5.99976C3 4.48034 3.81932 3.07873 5.14355 2.33375L5.50977 2.12867C5.99106 1.85794 6.60028 2.02831 6.87109 2.50953C7.14182 2.99082 6.97145 3.60004 6.49023 3.87086L6.12402 4.07691C5.42957 4.46766 5 5.2029 5 5.99976H11C11 4.48034 11.8193 3.07873 13.1436 2.33375L13.5098 2.12867C13.9911 1.85794 14.6003 2.02831 14.8711 2.50953C15.1418 2.99082 14.9715 3.60004 14.4902 3.87086L14.124 4.07691C13.4296 4.46766 13 5.2029 13 5.99976H18C18 4.48034 18.8193 3.07873 20.1436 2.33375L20.5098 2.12867C20.9911 1.85794 21.6003 2.02831 21.8711 2.50953C22.1418 2.99082 21.9715 3.60004 21.4902 3.87086L21.124 4.07691C20.4296 4.46766 20 5.2029 20 5.99976Z" fill="#3A3A47"/>
</svg>
