<svg width="24" height="24" viewBox="0 0 24 24" fill="none" xmlns="http://www.w3.org/2000/svg">
<path d="M13 14.9998C13 15.552 12.5523 15.9998 12 15.9998C11.4477 15.9998 11 15.552 11 14.9998C11 14.4475 11.4477 13.9998 12 13.9998C12.5523 13.9998 13 14.4475 13 14.9998Z" fill="#3A3A47"/>
<path d="M4 14.9998C4 15.552 3.55228 15.9998 3 15.9998C2.44772 15.9998 2 15.552 2 14.9998C2 14.4475 2.44772 13.9998 3 13.9998C3.55228 13.9998 4 14.4475 4 14.9998Z" fill="#3A3A47"/>
<path d="M22 14.9998C22 15.552 21.5523 15.9998 21 15.9998C20.4477 15.9998 20 15.552 20 14.9998C20 14.4475 20.4477 13.9998 21 13.9998C21.5523 13.9998 22 14.4475 22 14.9998Z" fill="#3A3A47"/>
<path d="M17 16.9998C17 17.552 16.5523 17.9998 16 17.9998C15.4477 17.9998 15 17.552 15 16.9998C15 16.4475 15.4477 15.9998 16 15.9998C16.5523 15.9998 17 16.4475 17 16.9998Z" fill="#3A3A47"/>
<path d="M9 16.9998C9 17.552 8.55228 17.9998 8 17.9998C7.44772 17.9998 7 17.552 7 16.9998C7 16.4475 7.44772 15.9998 8 15.9998C8.55228 15.9998 9 16.4475 9 16.9998Z" fill="#3A3A47"/>
<path d="M21 19.9998C21.5523 19.9998 22 20.4475 22 20.9998C22 21.552 21.5523 21.9998 21 21.9998H3C2.44772 21.9998 2 21.552 2 20.9998C2 20.4475 2.44772 19.9998 3 19.9998H21Z" fill="#3A3A47"/>
<path d="M18.2773 10.1785C19.2725 9.30781 20.7721 9.35776 21.707 10.2927C22.0976 10.6833 22.0976 11.3163 21.707 11.7068C21.3165 12.0973 20.6835 12.0973 20.293 11.7068C19.7741 11.1879 19.0106 12.1941 18.6582 12.5027C17.1117 13.8556 14.7915 13.7053 13.3594 12.2732C12.5758 11.4898 11.3462 11.5676 10.5859 12.3279C9.1563 13.7573 6.86337 13.8338 5.3418 12.5027C4.98944 12.1941 4.22587 11.188 3.70703 11.7068C3.31651 12.0973 2.68349 12.0973 2.29297 11.7068C1.90244 11.3163 1.90244 10.6833 2.29297 10.2927C3.22794 9.35776 4.72754 9.30781 5.72266 10.1785L6.6582 10.9968C7.42203 11.6652 8.52984 11.5559 9.22656 10.8591C10.7812 9.30474 13.2966 9.38232 14.8281 10.9138C15.5133 11.5988 16.6126 11.6349 17.3418 10.9968L18.2773 10.1785Z" fill="#3A3A47"/>
<path d="M21 5.99976C21.5523 5.99976 22 6.44748 22 6.99976C22 7.55205 21.5523 7.99976 21 7.99976H3C2.44772 7.99976 2 7.55205 2 6.99976C2 6.44748 2.44772 5.99976 3 5.99976C3 4.48034 3.81932 3.07873 5.14355 2.33375L5.50977 2.12867C5.99106 1.85794 6.60028 2.02831 6.87109 2.50953C7.14182 2.99082 6.97145 3.60004 6.49023 3.87086L6.12402 4.07691C5.42957 4.46766 5 5.2029 5 5.99976H11C11 4.48034 11.8193 3.07873 13.1436 2.33375L13.5098 2.12867C13.9911 1.85794 14.6003 2.02831 14.8711 2.50953C15.1418 2.99082 14.9715 3.60004 14.4902 3.87086L14.124 4.07691C13.4296 4.46766 13 5.2029 13 5.99976H18C18 4.48034 18.8193 3.07873 20.1436 2.33375L20.5098 2.12867C20.9911 1.85794 21.6003 2.02831 21.8711 2.50953C22.1418 2.99082 21.9715 3.60004 21.4902 3.87086L21.124 4.07691C20.4296 4.46766 20 5.2029 20 5.99976H21Z" fill="#3A3A47"/>
</svg>
