<svg width="24" height="24" viewBox="0 0 24 24" fill="none" xmlns="http://www.w3.org/2000/svg">
<path fill-rule="evenodd" clip-rule="evenodd" d="M21.9998 12C21.9998 17.5228 17.5227 22 11.9998 22C6.47696 22 1.9998 17.5228 1.9998 12C1.9998 6.47715 6.47696 2 11.9998 2C17.5227 2 21.9998 6.47715 21.9998 12ZM12.069 14.9844C12.9915 14.9501 13.8575 14.5358 14.3491 13.9316C14.6977 13.5032 15.3275 13.4384 15.7559 13.787C16.1843 14.1355 16.2491 14.7654 15.9005 15.1938C14.9975 16.3036 13.5606 16.9303 12.1434 16.983C10.706 17.0365 9.17292 16.5004 8.1708 15.1347C7.84408 14.6894 7.94019 14.0636 8.38546 13.7368C8.83074 13.4101 9.45657 13.5062 9.78329 13.9515C10.3231 14.6872 11.1667 15.018 12.069 14.9844ZM9.9998 10.6875C9.9998 11.2398 9.55209 11.6875 8.9998 11.6875C8.44752 11.6875 7.99981 11.2398 7.99981 10.6875C7.99981 10.1352 8.44752 9.6875 8.9998 9.6875C9.55209 9.6875 9.9998 10.1352 9.9998 10.6875ZM14.9998 11.6875C15.5521 11.6875 15.9998 11.2398 15.9998 10.6875C15.9998 10.1352 15.5521 9.6875 14.9998 9.6875C14.4475 9.6875 13.9998 10.1352 13.9998 10.6875C13.9998 11.2398 14.4475 11.6875 14.9998 11.6875Z" fill="#3A3A47"/>
</svg>
