<svg width="24" height="24" viewBox="0 0 24 24" fill="none" xmlns="http://www.w3.org/2000/svg">
<path fill-rule="evenodd" clip-rule="evenodd" d="M3.96948 10.4769V15.7168C3.96948 16.1557 4.32524 16.5114 4.76409 16.5114H18.3724C19.2544 16.5114 19.9695 15.7964 19.9695 14.9143C19.9695 14.2275 19.5303 13.6175 18.8789 13.3997L11.6744 10.9903L11.5729 10.9823C11.571 10.9833 11.5689 10.9845 11.5666 10.986C11.559 10.9906 11.5497 10.9973 11.5394 11.0062C10.6533 11.7837 9.48959 12.2561 8.21796 12.2561C6.69278 12.2561 5.32507 11.5772 4.40275 10.5084C4.3931 10.4972 4.38385 10.4886 4.37599 10.4823C4.37326 10.4801 4.37082 10.4783 4.36872 10.4769H3.96948ZM1.96948 10.3742C1.96948 9.32632 2.81893 8.47687 3.86679 8.47687H4.39385C5.04239 8.47687 5.57516 8.80576 5.91688 9.20173C6.47547 9.849 7.29861 10.2561 8.21796 10.2561C8.98589 10.2561 9.68511 9.97251 10.2204 9.50286C10.5854 9.18257 11.1073 8.93996 11.7048 8.98657L12.0753 9.01546L19.5132 11.5029C20.9804 11.9936 21.9695 13.3673 21.9695 14.9143C21.9695 16.901 20.359 18.5114 18.3724 18.5114H4.76409C3.22067 18.5114 1.96948 17.2602 1.96948 15.7168V10.3742Z" fill="#3A3A47"/>
<path fill-rule="evenodd" clip-rule="evenodd" d="M1.93945 14.9981V13.0017C1.95948 13.0005 1.97967 12.9999 2 12.9999H5.35801C6.8194 12.9999 8.20764 13.6392 9.15757 14.7497L11.9132 17.9712H9.28131L7.63775 16.0498C7.06779 15.3835 6.23484 14.9999 5.35801 14.9999H2C1.97967 14.9999 1.95948 14.9993 1.93945 14.9981ZM16.8436 11.2686L18.7792 11.9159L17.2875 14.4997C17.0113 14.978 16.3997 15.1419 15.9214 14.8658C15.4432 14.5896 15.2793 13.978 15.5554 13.4997L16.8436 11.2686ZM15.7497 10.9028L13.814 10.2554L12.4802 12.5657C12.2041 13.044 12.368 13.6555 12.8462 13.9317C13.3245 14.2078 13.9361 14.044 14.2123 13.5657L15.7497 10.9028Z" fill="#3A3A47"/>
</svg>
