<svg width="24" height="24" viewBox="0 0 24 24" fill="none" xmlns="http://www.w3.org/2000/svg">
<path d="M15.886 10.9483L16.9803 11.3143L16.2092 12.6498C15.9331 13.1281 16.097 13.7397 16.5753 14.0158C17.0535 14.2919 17.6651 14.1281 17.9413 13.6498L18.9159 11.9617L20.0231 12.3319C21.2036 12.7267 21.9995 13.8321 21.9995 15.0769C21.9995 16.6754 20.7037 17.9712 19.1052 17.9712H11.4567L8.93638 15.0248C7.98644 13.9142 6.59821 13.2749 5.13682 13.2749H1.93945V10.0171C1.93945 9.46481 2.38717 9.01709 2.93945 9.01709H3.52684C3.85891 9.01709 4.16351 9.18718 4.38047 9.43857C5.20566 10.3948 6.42646 11 7.78861 11C8.9251 11 9.96318 10.5787 10.7552 9.88376C10.986 9.68122 11.2817 9.55787 11.5879 9.58175L11.864 9.60328L13.9503 10.301L13.1335 11.7157C12.8574 12.194 13.0213 12.8056 13.4996 13.0817C13.9779 13.3579 14.5895 13.194 14.8656 12.7157L15.886 10.9483Z" fill="#3A3A47"/>
<path d="M1.93945 15.2749V15.9712C1.93945 17.0758 2.83488 17.9712 3.93945 17.9712H8.82485L7.41656 16.3248C6.8466 15.6585 6.01365 15.2749 5.13682 15.2749H1.93945Z" fill="#3A3A47"/>
</svg>
