<svg width="24" height="24" viewBox="0 0 24 24" fill="none" xmlns="http://www.w3.org/2000/svg">
<path fill-rule="evenodd" clip-rule="evenodd" d="M15.7397 21.2248C17.2002 20.6354 18.4898 19.7112 19.513 18.5471C21.0609 16.7862 21.9995 14.4765 21.9995 11.9478C21.9995 11.7932 21.996 11.6395 21.9891 11.4866C21.9144 9.841 21.442 8.29892 20.6657 6.95446C19.322 4.62751 17.0679 2.89225 14.3904 2.23536C13.6243 2.04745 12.8236 1.94775 11.9997 1.94775C11.8271 1.94775 11.6554 1.95213 11.4849 1.96077C6.20121 2.2286 1.99951 6.5975 1.99951 11.9478C1.99951 17.4706 6.47666 21.9478 11.9995 21.9478C13.3219 21.9478 14.5843 21.6911 15.7397 21.2248ZM13.7808 19.7487C13.208 19.879 12.6118 19.9478 11.9995 19.9478C11.3799 19.9478 10.7768 19.8773 10.1977 19.744L10.2989 19.6678L9.3854 17.0149L10.5771 15.2866H13.4212L14.5915 17.0199L13.6785 19.6716L13.7808 19.7487ZM14.9901 4.52548L12.8306 6.09449V8.27193L15.3445 10.0984L17.2221 9.66474L18.2585 6.9648C17.4043 5.89324 16.2806 5.04596 14.9901 4.52548ZM19.9538 12.8084L19.9178 12.8318L17.8627 11.1676L15.6479 11.6791L14.7637 14.4004L15.8827 16.0579L18.7674 16.1083L18.7894 16.1803C19.4128 15.1823 19.8224 14.0369 19.9538 12.8084ZM9.01039 4.52488C7.72117 5.04452 6.59842 5.8903 5.74433 6.96001L6.77126 9.63525L8.67226 10.0871L11.2221 8.23454V6.1318L9.01039 4.52488ZM4.04484 12.8044C4.17472 14.0244 4.5788 15.1624 5.19429 16.1557L5.20994 16.1045L8.09412 16.0541L9.23657 14.3973L8.34826 11.6634L6.16936 11.1454L4.08691 12.8318L4.04484 12.8044Z" fill="#3A3A47"/>
</svg>
