<svg width="24" height="24" viewBox="0 0 24 24" fill="none" xmlns="http://www.w3.org/2000/svg">
<path d="M8.1643 6.52628C8.17007 6.4753 8.32993 6.4753 8.3357 6.52628C8.48751 7.86769 8.89429 10.1901 9.94706 11.4165C11.0168 12.6629 13.346 13.4676 14.0466 13.6884C14.1044 13.7065 14.1044 13.7935 14.0466 13.8117C13.346 14.0324 11.0168 14.8371 9.94706 16.0835C8.89429 17.3099 8.48751 19.6323 8.3357 20.9737C8.32993 21.0247 8.17007 21.0247 8.1643 20.9737C8.01249 19.6323 7.60571 17.3099 6.55294 16.0835C5.48316 14.8371 3.154 14.0324 2.45336 13.8117C2.39562 13.7935 2.39562 13.7065 2.45336 13.6884C3.154 13.4676 5.48316 12.6629 6.55294 11.4165C7.60571 10.1901 8.01249 7.86769 8.1643 6.52628Z" fill="#3A3A47"/>
<path d="M15.5166 2.77074C15.5246 2.72006 15.7254 2.72006 15.7334 2.77074C15.8512 3.51973 16.0924 4.5012 16.5796 5.06685C17.142 5.71983 18.3231 6.1566 18.7969 6.31197C18.8545 6.33085 18.8545 6.41915 18.7969 6.43803C18.3231 6.5934 17.142 7.03017 16.5796 7.68315C16.0924 8.2488 15.8512 9.23027 15.7334 9.97926C15.7254 10.0299 15.5246 10.0299 15.5166 9.97926C15.3988 9.23027 15.1576 8.2488 14.6704 7.68315C14.108 7.03017 12.9269 6.5934 12.4531 6.43803C12.3955 6.41915 12.3955 6.33085 12.4531 6.31197C12.9269 6.1566 14.108 5.71983 14.6704 5.06685C15.1576 4.5012 15.3988 3.51973 15.5166 2.77074Z" fill="#3A3A47"/>
<path d="M17.2666 13.0207C17.2746 12.9701 17.4754 12.9701 17.4834 13.0207C17.6012 13.7697 17.8424 14.7512 18.3296 15.3169C18.892 15.9698 20.0731 16.4066 20.5469 16.562C20.6045 16.5808 20.6045 16.6692 20.5469 16.688C20.0731 16.8434 18.892 17.2802 18.3296 17.9331C17.8424 18.4988 17.6012 19.4803 17.4834 20.2293C17.4754 20.2799 17.2746 20.2799 17.2666 20.2293C17.1488 19.4803 16.9076 18.4988 16.4204 17.9331C15.858 17.2802 14.6769 16.8434 14.2031 16.688C14.1455 16.6692 14.1455 16.5808 14.2031 16.562C14.6769 16.4066 15.858 15.9698 16.4204 15.3169C16.9076 14.7512 17.1488 13.7697 17.2666 13.0207Z" fill="#3A3A47"/>
</svg>
