<svg width="24" height="24" viewBox="0 0 24 24" fill="none" xmlns="http://www.w3.org/2000/svg">
<path fill-rule="evenodd" clip-rule="evenodd" d="M3.23888 5C5.42312 5 7.24694 5.4259 8.71474 6.22523C9.24216 6.51245 9.72035 6.84623 10.1497 7.22201C10.6873 7.69266 11.1348 8.26211 11.503 8.88718C11.5464 8.71716 11.5928 8.54851 11.6422 8.38157C12.079 6.90521 12.7732 5.48708 13.8118 4.47698C14.2389 4.06157 14.7166 3.69071 15.2458 3.37049C16.7215 2.47761 18.5599 2 20.7611 2C21.2579 2 21.6793 2.36464 21.7507 2.85624C22.0086 4.63109 22.1288 6.3056 21.8006 7.83228C21.4624 9.40605 20.6602 10.7702 19.1912 11.9315C17.4084 13.341 15.5212 13.8169 13.5446 13.9526C13.206 14.8697 13 15.8857 13 17.0001V20.0001H21C21.5523 20.0001 22 20.4478 22 21.0001C22 21.5523 21.5523 22.0001 21 22.0001H3C2.44772 22.0001 2 21.5523 2 21.0001C2 20.4478 2.44772 20.0001 3 20.0001H11V17.0001C11 16.6442 10.9663 16.3041 10.9017 15.9799C8.77787 15.895 6.75757 15.505 4.84921 14.1471C1.77624 11.9606 1.72758 8.6218 2.25616 5.81494C2.34516 5.34233 2.75797 5 3.23888 5ZM4.0872 7.02553C5.6078 7.11953 6.81453 7.46775 7.75822 7.98167C8.15922 8.20004 8.51601 8.45 8.83237 8.72692C9.52501 9.3332 10.0739 10.2703 10.4489 11.411C10.4759 11.4932 10.5019 11.5762 10.5269 11.6597C9.74257 10.9831 8.82854 10.4544 7.87139 10.0716C7.35861 9.86647 6.77664 10.1159 6.57152 10.6287C6.36641 11.1415 6.61583 11.7234 7.12861 11.9285C8.26965 12.385 9.24577 13.0466 9.93242 13.9068C8.46646 13.7508 7.20108 13.366 6.00872 12.5176C4.15666 11.1998 3.79877 9.26433 4.0872 7.02553ZM19.8873 4.03039C18.396 4.13708 17.2114 4.51877 16.2812 5.08162C15.882 5.32317 15.5247 5.60091 15.2062 5.91071C14.5026 6.59507 13.9422 7.65725 13.56 8.94898C13.4239 9.40929 13.3132 9.8891 13.2273 10.3772C14.255 8.96792 15.454 7.90958 16.4 7.20006C16.8418 6.86869 17.4686 6.95823 17.8 7.40006C18.1314 7.84189 18.0418 8.46869 17.6 8.80006C16.6714 9.49652 15.5614 10.5 14.6645 11.8078C15.8654 11.5941 16.9329 11.1674 17.9509 10.3626C19.0585 9.48692 19.6055 8.5275 19.8453 7.41201C20.0508 6.45573 20.0379 5.35204 19.8873 4.03039Z" fill="#3A3A47"/>
</svg>
