<svg width="24" height="24" viewBox="0 0 24 24" fill="none" xmlns="http://www.w3.org/2000/svg">
<path d="M8.71474 6.22523C7.24694 5.4259 5.42312 5 3.23888 5C2.75797 5 2.34516 5.34233 2.25616 5.81494C1.72758 8.6218 1.77624 11.9606 4.84921 14.1471C6.75757 15.505 8.77787 15.895 10.9017 15.9799C10.9663 16.3041 11 16.6442 11 17.0001V20.0001H3C2.44772 20.0001 2 20.4478 2 21.0001C2 21.5523 2.44772 22.0001 3 22.0001H21C21.5523 22.0001 22 21.5523 22 21.0001C22 20.4478 21.5523 20.0001 21 20.0001H13V17.0001C13 15.8857 13.206 14.8697 13.5446 13.9526C15.5212 13.8169 17.4084 13.341 19.1912 11.9315C20.6602 10.7702 21.4624 9.40605 21.8006 7.83228C22.1288 6.3056 22.0086 4.63109 21.7507 2.85624C21.6793 2.36464 21.2579 2 20.7611 2C18.5599 2 16.7215 2.47761 15.2458 3.37049C14.7166 3.69071 14.2389 4.06157 13.8118 4.47698C12.7732 5.48708 12.079 6.90521 11.6422 8.38157C11.5928 8.54851 11.5464 8.71716 11.503 8.88718C11.1348 8.26211 10.6873 7.69266 10.1497 7.22201C9.72035 6.84623 9.24216 6.51245 8.71474 6.22523Z" fill="#3A3A47"/>
<path d="M6 9C7.5 9.5 8.5 10.5 9.5 12M18.5 6C16.5 6.5 15 8 14.5 10.5" stroke="white" stroke-width="2" stroke-linecap="round"/>
</svg>
