<svg width="24" height="24" viewBox="0 0 24 24" fill="none" xmlns="http://www.w3.org/2000/svg">
<path d="M8 6.36367C8 7.85793 8.31269 8.6131 8.65254 9.43385C8.72812 9.61637 8.80504 9.80214 8.88017 10L15.1198 10C15.195 9.80214 15.2719 9.61637 15.3475 9.43385C15.6873 8.6131 16 7.85793 16 6.36367C16 2.65469 12.8889 2 12 2C11.1111 2.00018 8 2.65455 8 6.36367Z" fill="#3A3A47"/>
<path d="M9.47401 13C9.45372 12.6315 9.42226 12.3005 9.3821 12H14.6179C14.5777 12.3005 14.5463 12.6315 14.526 13L20 13C21.1046 13 22 13.8954 22 15V19L2 19L2 15C2 13.8954 2.89543 13 4 13L9.47401 13Z" fill="#3A3A47"/>
<path d="M20 20.5C20 21.3284 19.3284 22 18.5 22L5.5 22C4.67157 22 4 21.3284 4 20.5L4 20L20 20L20 20.5Z" fill="#3A3A47"/>
</svg>
