<svg width="24" height="24" viewBox="0 0 24 24" fill="none" xmlns="http://www.w3.org/2000/svg">
<path fill-rule="evenodd" clip-rule="evenodd" d="M14.631 13C14.8352 11.6123 15.2455 10.8073 15.6297 10.0533C16.0828 9.16419 16.4998 8.34609 16.4998 6.72731C16.4998 2.70925 12.8889 2 12 2C11.1111 2.00019 7.49977 2.7091 7.49977 6.72731C7.49977 8.34609 7.91669 9.16419 8.36983 10.0533C8.75407 10.8073 9.16434 11.6123 9.36852 13L4 13C2.89543 13 2 13.8954 2 15V19H4L4 20.5C4 21.3284 4.67157 22 5.5 22L18.5 22C19.3284 22 20 21.3284 20 20.5V19H22V15C22 13.8954 21.1046 13 20 13L14.631 13ZM12.6131 13L11.3864 13C11.3419 12.6396 11.2858 12.3079 11.2204 12L12.7792 12C12.7138 12.3079 12.6576 12.6396 12.6131 13ZM13.4324 10L10.5672 10C10.4759 9.79572 10.382 9.60147 10.2876 9.41323C10.2406 9.31947 10.1955 9.23071 10.1523 9.14581C9.73385 8.32229 9.49977 7.86166 9.49977 6.72731C9.49977 5.44117 10.0219 4.85879 10.53 4.5183C10.8246 4.32087 11.1546 4.18507 11.4591 4.10016C11.6086 4.05846 11.741 4.03212 11.8447 4.01675C11.9381 4.0029 11.9908 4.00049 11.9998 4.00008C12.0088 4.0005 12.0622 4.00291 12.1553 4.01671C12.259 4.03207 12.3913 4.05839 12.5408 4.10008C12.8452 4.18497 13.1751 4.32077 13.4696 4.51819C13.9776 4.85869 14.4998 5.44114 14.4998 6.72731C14.4998 7.86166 14.2657 8.32229 13.8472 9.14581C13.8041 9.23071 13.759 9.31947 13.7119 9.41323C13.6176 9.60147 13.5237 9.79572 13.4324 10ZM18 19V20L6 20V19L18 19ZM20 17V15L4 15L4 17L20 17Z" fill="#3A3A47"/>
</svg>
