<svg width="24" height="24" viewBox="0 0 24 24" fill="none" xmlns="http://www.w3.org/2000/svg">
<path fill-rule="evenodd" clip-rule="evenodd" d="M9.5995 3.68453C9.44898 2.80323 10.1279 1.99854 11.0219 1.99854H12.8763C16.7514 1.99854 19.9091 5.1088 19.9677 8.98341L18.9678 8.99854V9.99854H11.5216C11.0343 9.99854 10.6179 9.64726 10.5359 9.1669L9.5995 3.68453ZM17.851 7.99854C17.3504 5.70785 15.3105 3.99854 12.8763 3.99854H11.6821L12.3653 7.99854H17.851Z" fill="#3A3A47"/>
<path fill-rule="evenodd" clip-rule="evenodd" d="M15.0112 3.68604C15.0112 3.13375 14.5635 2.68604 14.0112 2.68604C13.4589 2.68604 13.0112 3.13375 13.0112 3.68604V7.99954L7 7.99954V5.5C7 4.67157 6.32843 4 5.5 4H3C2.44772 4 2 4.44772 2 5C2 5.55228 2.44772 6 3 6H5L5 7.99954C4.44794 7.9998 4.00049 8.44742 4.00049 8.99954C4.00049 10.1708 4.20293 11.2656 4.59164 12.3407C4.98273 13.4223 5.55877 14.4131 6.29249 15.2537C7.02642 16.0945 7.90516 16.7698 8.88268 17.2337C9.86078 17.6978 10.915 17.9392 11.9838 17.9392C13.0525 17.9392 14.1068 17.6978 15.0849 17.2337C16.0624 16.7698 16.9411 16.0945 17.6751 15.2537C18.4088 14.4131 18.9848 13.4223 19.3759 12.3407C19.7646 11.2656 19.9671 10.1708 19.9671 8.99954C19.9671 8.44726 19.5193 7.99954 18.9671 7.99954H15.0112V3.68604ZM5.5 22C6.88071 22 8 20.8807 8 19.5C8 18.1193 6.88071 17 5.5 17C4.11929 17 3 18.1193 3 19.5C3 20.8807 4.11929 22 5.5 22ZM5.5002 20.3335C5.96044 20.3335 6.33354 19.9604 6.33354 19.5002C6.33354 19.04 5.96044 18.6669 5.5002 18.6669C5.03997 18.6669 4.66687 19.04 4.66687 19.5002C4.66687 19.9604 5.03997 20.3335 5.5002 20.3335ZM18.5 22C19.8807 22 21 20.8807 21 19.5C21 18.1193 19.8807 17 18.5 17C17.1193 17 16 18.1193 16 19.5C16 20.8807 17.1193 22 18.5 22ZM18.5002 20.3335C18.9604 20.3335 19.3335 19.9604 19.3335 19.5002C19.3335 19.04 18.9604 18.6669 18.5002 18.6669C18.04 18.6669 17.6669 19.04 17.6669 19.5002C17.6669 19.9604 18.04 20.3335 18.5002 20.3335ZM6.06433 9.99954C6.13771 10.564 6.27414 11.1121 6.47247 11.6606C6.78328 12.5202 7.23601 13.2933 7.7992 13.9384C8.36218 14.5834 9.02311 15.0866 9.74009 15.4268C10.4565 15.7667 11.2184 15.9392 11.9838 15.9392C12.7491 15.9392 13.511 15.7667 14.2275 15.4268C14.9444 15.0866 15.6054 14.5834 16.1683 13.9384C16.7315 13.2933 17.1843 12.5202 17.4951 11.6606C17.6934 11.1121 17.8298 10.564 17.9032 9.99954L6.06433 9.99954Z" fill="#3A3A47"/>
</svg>
