<svg width="24" height="24" viewBox="0 0 24 24" fill="none" xmlns="http://www.w3.org/2000/svg">
<path d="M19 9.99998C19.5523 9.99998 20.0066 10.4499 19.9384 10.998C19.4471 14.9452 16.0803 17.9999 12 17.9999C7.9197 17.9999 4.55287 14.9452 4.06165 10.998C3.99344 10.4499 4.44772 9.99998 5 9.99998H19Z" fill="#3A3A47"/>
<path fill-rule="evenodd" clip-rule="evenodd" d="M5.5 21.9999C6.88071 21.9999 8 20.8806 8 19.4999C8 18.1192 6.88071 16.9999 5.5 16.9999C4.11929 16.9999 3 18.1192 3 19.4999C3 20.8806 4.11929 21.9999 5.5 21.9999ZM5.5002 20.3335C5.96044 20.3335 6.33354 19.9604 6.33354 19.5001C6.33354 19.0399 5.96044 18.6668 5.5002 18.6668C5.03997 18.6668 4.66687 19.0399 4.66687 19.5001C4.66687 19.9604 5.03997 20.3335 5.5002 20.3335Z" fill="#3A3A47"/>
<path fill-rule="evenodd" clip-rule="evenodd" d="M18.5 21.9999C19.8807 21.9999 21 20.8806 21 19.4999C21 18.1192 19.8807 16.9999 18.5 16.9999C17.1193 16.9999 16 18.1192 16 19.4999C16 20.8806 17.1193 21.9999 18.5 21.9999ZM18.5002 20.3335C18.9604 20.3335 19.3335 19.9604 19.3335 19.5001C19.3335 19.0399 18.9604 18.6668 18.5002 18.6668C18.04 18.6668 17.6669 19.0399 17.6669 19.5001C17.6669 19.9604 18.04 20.3335 18.5002 20.3335Z" fill="#3A3A47"/>
<path fill-rule="evenodd" clip-rule="evenodd" d="M2 4.99993C2 4.44765 2.44772 3.99993 3 3.99993H5.5C6.32843 3.99993 7 4.6715 7 5.49993V7.99993H5L5 5.99993H3C2.44772 5.99993 2 5.55222 2 4.99993Z" fill="#3A3A47"/>
<path d="M19 9.99998C19.5523 9.99998 20.0066 10.4499 19.9384 10.998C19.4471 14.9452 16.0803 17.9999 12 17.9999C7.9197 17.9999 4.55287 14.9452 4.06165 10.998C3.99344 10.4499 4.44772 9.99998 5 9.99998H19Z" fill="#3A3A47"/>
<path fill-rule="evenodd" clip-rule="evenodd" d="M5.5 21.9999C6.88071 21.9999 8 20.8806 8 19.4999C8 18.1192 6.88071 16.9999 5.5 16.9999C4.11929 16.9999 3 18.1192 3 19.4999C3 20.8806 4.11929 21.9999 5.5 21.9999ZM5.5002 20.3335C5.96044 20.3335 6.33354 19.9604 6.33354 19.5001C6.33354 19.0399 5.96044 18.6668 5.5002 18.6668C5.03997 18.6668 4.66687 19.0399 4.66687 19.5001C4.66687 19.9604 5.03997 20.3335 5.5002 20.3335Z" fill="#3A3A47"/>
<path fill-rule="evenodd" clip-rule="evenodd" d="M18.5 21.9999C19.8807 21.9999 21 20.8806 21 19.4999C21 18.1192 19.8807 16.9999 18.5 16.9999C17.1193 16.9999 16 18.1192 16 19.4999C16 20.8806 17.1193 21.9999 18.5 21.9999ZM18.5002 20.3335C18.9604 20.3335 19.3335 19.9604 19.3335 19.5001C19.3335 19.0399 18.9604 18.6668 18.5002 18.6668C18.04 18.6668 17.6669 19.0399 17.6669 19.5001C17.6669 19.9604 18.04 20.3335 18.5002 20.3335Z" fill="#3A3A47"/>
<path fill-rule="evenodd" clip-rule="evenodd" d="M2 4.99993C2 4.44765 2.44772 3.99993 3 3.99993H5.5C6.32843 3.99993 7 4.6715 7 5.49993V7.99993H5L5 5.99993H3C2.44772 5.99993 2 5.55222 2 4.99993Z" fill="#3A3A47"/>
<path d="M14.0162 2.00002C14.0108 2.00001 14.0054 2 14.0001 2H11.5543C11.2642 2 11.0437 2.26055 11.0915 2.54664L11.8643 7.16502C11.9449 7.64692 12.362 8 12.8506 8H14.0162V2.00002Z" fill="#3A3A47"/>
<path d="M16.0162 8H19.0001C19.5523 8 20.0088 7.5491 19.9178 7.00436C19.5563 4.83978 18.036 3.06756 16.0162 2.34713V8Z" fill="#3A3A47"/>
</svg>
