<svg width="24" height="24" viewBox="0 0 24 24" fill="none" xmlns="http://www.w3.org/2000/svg">
<path d="M12 2C11.4477 2 11 2.44772 11 3V6.08296C11.3252 6.0284 11.6593 6 12 6C12.3407 6 12.6748 6.0284 13 6.08296V3C13 2.44772 12.5523 2 12 2Z" fill="#3A3A47"/>
<path d="M6.12132 4.70696L8.52355 7.10919C7.97703 7.49837 7.49851 7.97686 7.10931 8.52338L4.70711 6.12117C4.31658 5.73064 4.31658 5.09748 4.70711 4.70696C5.09763 4.31643 5.7308 4.31643 6.12132 4.70696Z" fill="#3A3A47"/>
<path d="M3 11H6.08296C6.0284 11.3252 6 11.6593 6 12C6 12.3407 6.0284 12.6748 6.08296 13H3C2.44772 13 2 12.5523 2 12C2 11.4477 2.44772 11 3 11Z" fill="#3A3A47"/>
<path d="M4.70632 18.1218L7.21184 15.6163C7.6164 16.1511 8.1085 16.616 8.66682 16.9897L6.12053 19.536C5.73001 19.9265 5.09684 19.9265 4.70632 19.536C4.31579 19.1455 4.31579 18.5123 4.70632 18.1218Z" fill="#3A3A47"/>
<path d="M11 21V17.917C11.3252 17.9716 11.6593 18 12 18C12.3407 18 12.6748 17.9716 13 17.917V21C13 21.5523 12.5523 22 12 22C11.4477 22 11 21.5523 11 21Z" fill="#3A3A47"/>
<path d="M18.1213 19.5354L15.4766 16.8907C16.0231 16.5015 16.5016 16.023 16.8908 15.4764L19.5355 18.1212C19.9261 18.5117 19.9261 19.1449 19.5355 19.5354C19.145 19.9259 18.5118 19.9259 18.1213 19.5354Z" fill="#3A3A47"/>
<path d="M21 13H17.917C17.9716 12.6748 18 12.3407 18 12C18 11.6593 17.9716 11.3252 17.917 11H21C21.5523 11 22 11.4477 22 12C22 12.5523 21.5523 13 21 13Z" fill="#3A3A47"/>
<path d="M19.5352 6.12132L16.9897 8.66682C16.616 8.1085 16.1511 7.6164 15.6163 7.21184L18.121 4.70711C18.5115 4.31658 19.1447 4.31658 19.5352 4.70711C19.9258 5.09763 19.9258 5.7308 19.5352 6.12132Z" fill="#3A3A47"/>
<path d="M12 16C14.2091 16 16 14.2091 16 12C16 9.79086 14.2091 8 12 8C9.79086 8 8 9.79086 8 12C8 14.2091 9.79086 16 12 16Z" fill="#3A3A47"/>
</svg>
