<svg width="24" height="24" viewBox="0 0 24 24" fill="none" xmlns="http://www.w3.org/2000/svg">
<path d="M11 5C11 4.44772 11.4477 4 12 4C12.5523 4 13 4.44772 13 5V8.08296C12.6748 8.0284 12.3407 8 12 8C11.6593 8 11.3252 8.0284 11 8.08296V5Z" fill="#3A3A47"/>
<path d="M8.52355 9.10919L6.12132 6.70696C5.7308 6.31643 5.09763 6.31643 4.70711 6.70696C4.31658 7.09748 4.31658 7.73064 4.70711 8.12117L7.10931 10.5234C7.49851 9.97686 7.97703 9.49837 8.52355 9.10919Z" fill="#3A3A47"/>
<path d="M3 13H6.08296C6.0284 13.3252 6 13.6593 6 14C6 14.3407 6.0284 14.6748 6.08296 15H3C2.44772 15 2 14.5523 2 14C2 13.4477 2.44772 13 3 13Z" fill="#3A3A47"/>
<path d="M8 14C8 14.3453 8.04375 14.6804 8.12602 15H15.874C15.9562 14.6804 16 14.3453 16 14C16 11.7909 14.2091 10 12 10C9.79086 10 8 11.7909 8 14Z" fill="#3A3A47"/>
<path d="M21 15H17.917C17.9716 14.6748 18 14.3407 18 14C18 13.6593 17.9716 13.3252 17.917 13H21C21.5523 13 22 13.4477 22 14C22 14.5523 21.5523 15 21 15Z" fill="#3A3A47"/>
<path d="M16.9897 10.6668L19.5352 8.12132C19.9258 7.7308 19.9258 7.09763 19.5352 6.70711C19.1447 6.31658 18.5115 6.31658 18.121 6.70711L15.6163 9.21184C16.1511 9.6164 16.616 10.1085 16.9897 10.6668Z" fill="#3A3A47"/>
<path d="M3 17C2.44772 17 2 17.4477 2 18C2 18.5523 2.44772 19 3 19H21C21.5523 19 22 18.5523 22 18C22 17.4477 21.5523 17 21 17H3Z" fill="#3A3A47"/>
</svg>
