<svg width="24" height="24" viewBox="0 0 24 24" fill="none" xmlns="http://www.w3.org/2000/svg">
<path d="M20.5988 2.34015C18.0759 0.956935 12.665 2.83489 7.9996 7.50024C4.171 11.3288 1.98145 16.2049 1.99972 19.0003C2.00295 19.4947 2.7302 19.3018 3.48333 19.102C3.64267 19.0597 3.80317 19.0172 3.95821 18.9807L7.08835 15.8506L4.89453 13.7567L5.93018 12.6716C6.17227 12.418 6.44889 12.1924 6.75006 12.009C7.05008 11.8263 7.38432 11.6795 7.74031 11.5943C8.09505 11.5095 8.49054 11.4817 8.89367 11.5602C9.30388 11.6401 9.70738 11.8285 10.0404 12.1464L10.4253 12.5137L20.5988 2.34015Z" fill="#3A3A47"/>
<path d="M21.6595 3.40073L5.07544 19.9848C5.03424 20.1656 4.98236 20.3556 4.93099 20.5438C4.72811 21.2868 4.53321 22.0006 5.03601 22.0003C7.83192 21.9985 12.6876 19.8123 16.4996 16.0002C21.1652 11.3347 23.0431 5.92342 21.6595 3.40073Z" fill="#3A3A47"/>
<path d="M8.33 13.0163C8.25202 13.0212 8.17139 13.0335 8.08901 13.0532C7.90428 13.0974 7.71435 13.1779 7.53008 13.2901C7.34581 13.4024 7.1708 13.5441 7.01505 13.7073L7.81846 14.4741L9.00472 13.2314C8.89922 13.1307 8.76406 13.0632 8.60699 13.0326C8.56049 13.0235 8.51234 13.0178 8.4628 13.0153C8.41953 13.0131 8.37521 13.0135 8.33 13.0163Z" fill="#3A3A47"/>
</svg>
