<svg width="24" height="24" viewBox="0 0 24 24" fill="none" xmlns="http://www.w3.org/2000/svg">
<path fill-rule="evenodd" clip-rule="evenodd" d="M15.6081 4.27693C13.6138 4.95088 11.2536 6.40229 9.05733 8.59862C7.41452 10.2414 6.12303 12.1103 5.24758 13.8609C4.54811 15.2597 4.13821 16.5342 4.00037 17.5271C4.00307 17.5264 4.00579 17.5257 4.00851 17.525C4.04967 17.5142 4.09336 17.5026 4.13904 17.4905C4.39974 17.4211 4.72505 17.3345 5.01224 17.2911C5.18471 17.265 5.39796 17.2449 5.61508 17.2687C5.82746 17.2919 6.14394 17.3685 6.40399 17.6285C6.66268 17.8872 6.74117 18.2015 6.76498 18.4173C6.78911 18.6361 6.76827 18.8501 6.74145 19.0225C6.69676 19.3096 6.60795 19.6338 6.53738 19.8914C6.52764 19.927 6.51825 19.9613 6.50937 19.994C7.50189 19.85 8.77061 19.4376 10.1601 18.7406C11.9049 17.8654 13.7658 16.5781 15.4013 14.9426C17.5976 12.7463 19.049 10.3862 19.723 8.39178C20.0603 7.39365 20.1915 6.52122 20.1495 5.82494C20.1076 5.12964 19.899 4.66738 19.6158 4.38415C19.3326 4.10092 18.8703 3.89239 18.175 3.85045C17.4787 3.80845 16.6063 3.93963 15.6081 4.27693ZM6.38134 20.5896L6.38134 20.5864C6.38204 20.5961 6.3814 20.5978 6.38134 20.5896ZM3.41799 17.6459C3.40719 17.6458 3.40883 17.6449 3.42011 17.6459L3.41799 17.6459ZM18.2828 2.06308C19.2739 2.12286 20.2021 2.43815 20.882 3.11799C21.5618 3.79783 21.8771 4.72609 21.9369 5.71713C21.9966 6.70717 21.8074 7.81688 21.4194 8.96505C20.6427 11.2633 19.0238 13.8524 16.6675 16.2088C14.89 17.9862 12.8708 19.3841 10.9629 20.3412C9.07403 21.2887 7.21801 21.842 5.77147 21.8429C5.45015 21.8431 5.07942 21.7231 4.82896 21.3819C4.61953 21.0966 4.59204 20.7821 4.59077 20.6022C4.58823 20.2435 4.69902 19.83 4.7738 19.5526C4.78844 19.4983 4.80263 19.4461 4.81627 19.396C4.84052 19.3069 4.86303 19.2242 4.88327 19.1469C4.80235 19.1674 4.71574 19.1903 4.62238 19.215C4.57102 19.2286 4.5176 19.2427 4.46197 19.2573C4.17895 19.3314 3.76505 19.4387 3.40716 19.4365C3.22917 19.4354 2.91974 19.4097 2.63608 19.2101C2.29199 18.968 2.15937 18.5998 2.15719 18.2675C2.14772 16.818 2.69829 14.9553 3.64605 13.06C4.60362 11.1452 6.00619 9.11743 7.79117 7.33245C10.1475 4.97608 12.7367 3.35719 15.0349 2.58055C16.1831 2.19255 17.2928 2.00336 18.2828 2.06308Z" fill="#3A3A47"/>
<path fill-rule="evenodd" clip-rule="evenodd" d="M20.5984 3.40195C20.8606 3.66418 20.8606 4.08934 20.5984 4.35157L6.40512 18.5448C6.14289 18.807 5.71773 18.807 5.4555 18.5448C5.19327 18.2826 5.19327 17.8574 5.4555 17.5952L19.6487 3.40195C19.911 3.13972 20.3361 3.13972 20.5984 3.40195Z" fill="#3A3A47"/>
<path fill-rule="evenodd" clip-rule="evenodd" d="M5.31149 13.8352L8.21514 16.7449L11.5546 13.4123L10.495 12.3505C10.1698 12.0247 9.77104 11.8265 9.36289 11.7367C8.9618 11.6484 8.56575 11.6665 8.20905 11.7427C7.85109 11.8192 7.51338 11.9578 7.209 12.1332C6.90346 12.3092 6.62143 12.528 6.37324 12.7756L5.31149 13.8352ZM8.21733 14.6235L7.43281 13.8374C7.59241 13.6782 7.771 13.5405 7.95784 13.4329C8.14479 13.3252 8.33662 13.2493 8.52237 13.2096C8.65314 13.1817 8.7791 13.1721 8.89674 13.1808C8.94621 13.1845 8.9942 13.1915 9.04047 13.2016C9.19676 13.236 9.33022 13.3069 9.43325 13.4101L8.21733 14.6235Z" fill="#3A3A47"/>
</svg>
