<svg xmlns="http://www.w3.org/2000/svg" width="24" height="24" viewBox="0 0 24 24">
    <path fill="#686A75" fill-rule="evenodd" d="M7.423 16c1 1.194 2.535 1.999 4.607 1.998 3.553-.002 5.53-2.37 5.926-5.003.05-.329.208-.995 1.07-.995.862 0 .983.666.943.991A8.001 8.001 0 0 1 6 17.258v1.813a1 1 0 1 1-2 0V15a1 1 0 0 1 1-1h4.073a1 1 0 0 1 0 2h-1.65zm9.188-7.929c-.997-1.233-2.553-2.07-4.665-2.069-3.553.002-5.53 2.37-5.926 5.003-.05.329-.208.995-1.07.995-.863 0-.983-.666-.943-.991a8.001 8.001 0 0 1 14.066-4.153V5a1 1 0 0 1 2 0v4.071a1 1 0 0 1-1 1H15a1 1 0 0 1 0-2h1.61z"/>
</svg>
