<svg width="24" height="24" viewBox="0 0 24 24" fill="none" xmlns="http://www.w3.org/2000/svg">
<path fill-rule="evenodd" clip-rule="evenodd" d="M7.423 16C8.423 17.194 9.958 17.999 12.03 17.998C15.583 17.996 17.56 15.628 17.956 12.995C18.006 12.666 18.164 12 19.026 12C19.888 12 20.009 12.666 19.969 12.991C19.7775 14.5233 19.1467 15.9674 18.1527 17.1492C17.1587 18.3309 15.844 19.1997 14.3671 19.6509C12.8903 20.102 11.3145 20.1161 9.82978 19.6915C8.3451 19.2669 7.01501 18.4217 6 17.258V19.071C6 19.3362 5.89464 19.5906 5.70711 19.7781C5.51957 19.9656 5.26522 20.071 5 20.071C4.73478 20.071 4.48043 19.9656 4.29289 19.7781C4.10536 19.5906 4 19.3362 4 19.071V15C4 14.7348 4.10536 14.4804 4.29289 14.2929C4.48043 14.1054 4.73478 14 5 14H9.073C9.33822 14 9.59257 14.1054 9.78011 14.2929C9.96764 14.4804 10.073 14.7348 10.073 15C10.073 15.2652 9.96764 15.5196 9.78011 15.7071C9.59257 15.8946 9.33822 16 9.073 16H7.423ZM16.611 8.071C15.614 6.838 14.058 6.001 11.946 6.002C8.393 6.004 6.416 8.372 6.02 11.005C5.97 11.334 5.812 12 4.95 12C4.087 12 3.967 11.334 4.007 11.009C4.20016 9.46417 4.83982 8.00926 5.84758 6.82258C6.85535 5.6359 8.18743 4.76901 9.68056 4.32816C11.1737 3.88731 12.763 3.89166 14.2537 4.34066C15.7444 4.78967 17.0717 5.66383 18.073 6.856V5C18.073 4.73478 18.1784 4.48043 18.3659 4.29289C18.5534 4.10536 18.8078 4 19.073 4C19.3382 4 19.5926 4.10536 19.7801 4.29289C19.9676 4.48043 20.073 4.73478 20.073 5V9.071C20.073 9.33622 19.9676 9.59057 19.7801 9.77811C19.5926 9.96564 19.3382 10.071 19.073 10.071H15C14.7348 10.071 14.4804 9.96564 14.2929 9.77811C14.1054 9.59057 14 9.33622 14 9.071C14 8.80578 14.1054 8.55143 14.2929 8.36389C14.4804 8.17636 14.7348 8.071 15 8.071H16.61H16.611Z" fill="#3A3A47"/>
</svg>
