<svg xmlns="http://www.w3.org/2000/svg" width="24" height="24" viewBox="0 0 24 24">
    <path fill="#3A3A47" fill-rule="evenodd" d="M19.026 12c.862 0 .983.666.943.991a8.001 8.001 0 0 1-13.97 4.266L6 19.071a1 1 0 1 1-2 0V15a1 1 0 0 1 1-1h4.073a1 1 0 0 1 0 2l-1.648.001c.999 1.193 2.534 1.998 4.605 1.997 3.553-.002 5.53-2.37 5.926-5.003.05-.329.208-.995 1.07-.995zm.047-8a1 1 0 0 1 1 1v4.071a1 1 0 0 1-1 1H15a1 1 0 0 1 0-2h1.61c-.997-1.233-2.552-2.07-4.664-2.069-3.553.002-5.53 2.37-5.926 5.003-.05.329-.208.995-1.07.995-.863 0-.983-.666-.943-.991a8.001 8.001 0 0 1 14.067-4.152L18.073 5a1 1 0 0 1 1-1z"/>
</svg>
