<svg width="24" height="24" viewBox="0 0 24 24" fill="none" xmlns="http://www.w3.org/2000/svg">
<path d="M12 6C10.8954 6 10 5.10457 10 4H14C14 5.10457 13.1046 6 12 6Z" fill="#3A3A47"/>
<path d="M19.1875 5.7812C18.4456 4.6684 17.1967 4 15.8593 4H15.3333C15.3333 5.89355 13.841 7.42857 12 7.42857C10.1591 7.42857 8.66667 5.89355 8.66667 4H8.14074C6.80332 4 5.5544 4.6684 4.81253 5.7812L2 10L5.5 13L6.44444 12V18C6.44444 19.1046 7.33988 20 8.44444 20H15.5556C16.6601 20 17.5556 19.1046 17.5556 18V12L18.5 13L22 10L19.1875 5.7812Z" fill="#3A3A47"/>
</svg>
