<svg width="24" height="24" viewBox="0 0 24 24" fill="none" xmlns="http://www.w3.org/2000/svg">
<path fill-rule="evenodd" clip-rule="evenodd" d="M8.13354 6.02868C7.40775 6.13532 6.76102 6.53348 6.35603 7.12408L4.31256 10.1041L6.00002 11.6711V10.25H8.00002V17C8.00002 17.5523 8.44774 18 9.00002 18H15C15.5523 18 16 17.5523 16 17V10.25H18V11.6711L19.6875 10.1041L17.644 7.12408C17.239 6.53347 16.5923 6.13532 15.8665 6.02868C15.4126 7.73933 13.8535 9 12 9C10.1465 9 8.58747 7.73933 8.13354 6.02868ZM10.2676 6C10.6134 6.5978 11.2597 7 12 7C12.7403 7 13.3867 6.5978 13.7325 6H10.2676ZM18 14.366C18.0643 14.3289 18.1249 14.2844 18.1805 14.2328L21.6805 10.9828C22.0436 10.6456 22.105 10.0932 21.8248 9.68447L19.2935 5.99302C18.435 4.74109 16.999 4 15.4734 4H8.52669C7.001 4 5.56504 4.74109 4.70658 5.99302L2.1753 9.68447C1.89502 10.0932 1.9564 10.6456 2.31957 10.9828L5.81957 14.2328C5.87517 14.2844 5.93577 14.3289 6.00002 14.366V17C6.00002 18.6569 7.34317 20 9.00002 20H15C16.6569 20 18 18.6569 18 17V14.366Z" fill="#3A3A47"/>
</svg>
