<svg width="24" height="24" viewBox="0 0 24 24" fill="none" xmlns="http://www.w3.org/2000/svg">
<path fill-rule="evenodd" clip-rule="evenodd" d="M17.0001 8.92645C17.0001 11.6958 14.7615 12.9794 12.0001 12.9794C9.23869 12.9794 7.00012 11.6958 7.00012 8.92645C7.00012 8.76871 7.00738 8.61539 7.02159 8.46648C7.02159 8.46648 5.00003 6.96284 6.60674 4.91165C8.21345 2.86047 10.4418 4.91163 10.4418 4.91163C10.9322 4.80258 11.456 4.74786 12.0001 4.74786C12.5442 4.74786 13.068 4.80258 13.5584 4.91163C13.5584 4.91163 16 2.86046 17.5 4.91163C19 6.96279 16.9786 8.46648 16.9786 8.46648C16.9929 8.61539 17.0001 8.76871 17.0001 8.92645ZM13.875 8.5092C14.2202 8.5092 14.5 8.22861 14.5 7.88241C14.5 7.5362 14.2202 7.25562 13.875 7.25562C13.5298 7.25562 13.25 7.5362 13.25 7.88241C13.25 8.22861 13.5298 8.5092 13.875 8.5092ZM10.125 8.50956C10.4702 8.50956 10.75 8.22898 10.75 7.88277C10.75 7.53657 10.4702 7.25599 10.125 7.25599C9.77985 7.25599 9.5 7.53657 9.5 7.88277C9.5 8.22898 9.77985 8.50956 10.125 8.50956Z" fill="#24252E"/>
<path d="M6.7648 11.2825C6.65589 11.1497 6.5684 11.0431 6.49977 10.9742C6.49977 10.9742 5 10.9742 5 12.5648C5 14.4843 6.49977 14.4843 6.49977 14.4843H7C5 18.4957 7 20 8.5 20C10 20 10.5 18.9971 10.5 18.9971H13.5C13.5 18.9971 14 20 15.5 20C18 20 18.5 17.4928 17 14.4843H17.4998C17.4998 14.4843 18.9998 14.4843 18.9998 12.5648C18.9998 10.9742 17.4998 10.9742 17.4998 10.9742C17.4244 11.0446 17.3264 11.1621 17.2022 11.3109C16.5024 12.1495 14.9724 13.9828 11.9998 13.9828C8.98023 13.9828 7.44928 12.1168 6.7648 11.2825Z" fill="#24252E"/>
</svg>
