<svg width="24" height="24" viewBox="0 0 24 24" fill="none" xmlns="http://www.w3.org/2000/svg">
<path fill-rule="evenodd" clip-rule="evenodd" d="M14.0828 4.32181C13.9397 3.78237 14.2567 3.22789 14.7908 3.08334L18.6661 2.03471C19.2002 1.89016 19.7493 2.21029 19.8924 2.74974L21.9656 10.5637C22.1088 11.1032 21.7918 11.6577 21.2576 11.8022L17.3824 12.8508C16.8482 12.9954 16.2992 12.6753 16.1561 12.1358L14.0828 4.32181ZM2.03437 9.67563C1.89124 9.13618 2.20823 8.5817 2.74239 8.43716L5.57094 7.67175L5.56356 7.6421C5.4302 7.1061 5.74764 6.56127 6.27636 6.4187L13.0533 4.59126L14.8653 11.4322C14.9374 11.7043 15.0926 12.3906 15.0926 12.3906C15.0926 12.3906 14.4214 12.5989 14.1566 12.6704L13.1984 12.9291C13.1607 11.305 11.8324 10 10.1992 10C8.54236 10 7.19922 11.3431 7.19922 13C7.19922 13.1745 7.21412 13.3456 7.24272 13.5119C7.1533 13.5116 7.06117 13.5235 6.96782 13.5495L4.3019 14.2896C3.76623 14.4383 3.21309 14.1182 3.0693 13.5763L2.03437 9.67563ZM8.08021 15.1236L6.02809 20.6534L6.02604 20.659C6.0063 20.7161 5.70983 21.6214 6.64918 21.9337C7.55839 22.2359 7.88765 21.4099 7.90547 21.3632L7.90708 21.3588L9.89187 15.9844C9.1873 15.9127 8.55484 15.5972 8.08021 15.1236ZM10.248 15.9996L12.5601 21.407C12.5894 21.4756 12.6258 21.5412 12.6765 21.5956C12.845 21.7767 13.2967 22.1624 13.9086 21.91C14.5051 21.6639 14.5185 21.0861 14.4973 20.8522C14.4912 20.7844 14.4697 20.7197 14.4425 20.6575L12.1068 15.3155C11.6 15.7335 10.9536 15.9884 10.248 15.9996ZM12.1992 13C12.1992 14.1046 11.3038 15 10.1992 15C9.09465 15 8.19922 14.1046 8.19922 13C8.19922 11.8954 9.09465 11 10.1992 11C11.3038 11 12.1992 11.8954 12.1992 13Z" fill="#24252E"/>
</svg>
