<svg width="24" height="24" viewBox="0 0 24 24" fill="none" xmlns="http://www.w3.org/2000/svg">
<path fill-rule="evenodd" clip-rule="evenodd" d="M18.6661 2.03477C19.2002 1.89022 19.7493 2.21035 19.8924 2.7498L21.9656 10.5638C22.1088 11.1032 21.7918 11.6577 21.2576 11.8023L17.3824 12.8509C17.2647 12.8827 17.1464 12.892 17.0318 12.8814C16.6261 12.8438 16.2677 12.5565 16.1561 12.1359L16.1503 12.1141L14.0829 4.32213C13.9679 3.88881 14.1498 3.44554 14.5026 3.21308C14.5891 3.15614 14.6857 3.11184 14.7908 3.0834L18.6661 2.03477ZM13.1984 12.9291L11.6282 7.04705L7 8.2821L7.24272 9.2821L4.21871 10.1097L4.74445 12.0911L7.57291 11.2821C7.57291 11.2821 7.19922 12.4641 7.19922 13.0001C7.19922 13.1746 7.21412 13.3456 7.24272 13.512C7.1533 13.5116 7.06117 13.5236 6.96782 13.5495L4.3019 14.2897C3.76623 14.4384 3.21309 14.1183 3.0693 13.5763L2.03437 9.67569C1.89124 9.13625 2.20823 8.58176 2.74239 8.43722L5.57094 7.67182C5.43758 7.13582 5.74764 6.56133 6.27636 6.41876L11.1223 5.11204L12.1497 4.83498L12.2001 4.8214L13.0533 4.59132L13.0543 4.59477L13.5593 6.52633L15.0926 12.3907L13.1984 12.9291ZM8.08021 15.1237L7.57291 16.4907L6.02809 20.6534L6.02604 20.6591C6.0063 20.7162 5.70983 21.6215 6.64918 21.9337C7.55839 22.236 7.88765 21.41 7.90547 21.3632L7.90708 21.3589L9.04586 18.2753L9.44851 17.185L9.89187 15.9845C9.1873 15.9128 8.55484 15.5973 8.08021 15.1237ZM10.248 15.9997L11.1979 18.2212L11.3497 18.5762L12.5601 21.4071C12.5894 21.4757 12.6258 21.5413 12.6765 21.5957C12.845 21.7768 13.2967 22.1625 13.9086 21.91C14.5051 21.6639 14.5185 21.0862 14.4973 20.8522C14.4912 20.7844 14.4697 20.7198 14.4425 20.6575L13.1854 17.7824L12.1068 15.3156C11.6 15.7336 10.9536 15.9884 10.248 15.9997ZM17.8329 10.6571L16.2672 4.75584L18.2156 4.2286L19.7813 10.1298L17.8329 10.6571Z" fill="#24252E"/>
<circle cx="10.5" cy="12.7821" r="2.5" fill="white" stroke="#24252E" stroke-width="2"/>
</svg>
