<svg width="24" height="24" viewBox="0 0 24 24" fill="none" xmlns="http://www.w3.org/2000/svg">
<path fill-rule="evenodd" clip-rule="evenodd" d="M18.6661 2.03477C19.2002 1.89022 19.7493 2.21035 19.8924 2.7498L21.9656 10.5638C22.1088 11.1032 21.7918 11.6577 21.2576 11.8023L17.3824 12.8509C17.2647 12.8827 17.1464 12.892 17.0318 12.8814C16.6261 12.8438 16.2677 12.5565 16.1561 12.1359L14.0829 4.32213C13.9679 3.88881 14.1498 3.44554 14.5026 3.21308C14.5891 3.15614 14.6857 3.11184 14.7908 3.0834L18.6661 2.03477ZM17.8329 10.6571L16.2672 4.75584L18.2156 4.2286L19.7813 10.1298L17.8329 10.6571Z" fill="#3A3A47"/>
<path fill-rule="evenodd" clip-rule="evenodd" d="M4.3019 14.2897L6.96782 13.5495C7.00511 13.5392 7.0422 13.531 7.07901 13.525C7.22389 14.1953 7.56078 14.7942 8.02922 15.2611L6.02809 20.6534L6.02604 20.6591C6.0063 20.7162 5.70983 21.6215 6.64918 21.9337C7.55839 22.236 7.88765 21.41 7.90547 21.3632L7.90708 21.3589L9.80728 16.2136C9.98937 16.2501 10.1766 16.2725 10.3677 16.2796L12.5601 21.4071C12.5894 21.4757 12.6258 21.5413 12.6765 21.5957C12.845 21.7768 13.2967 22.1625 13.9086 21.91C14.5051 21.6639 14.5185 21.0862 14.4973 20.8522C14.4912 20.7844 14.4697 20.7198 14.4425 20.6575L12.3094 15.7787C13.3227 15.1656 14 14.0529 14 12.7821C14 12.7552 13.9997 12.7283 13.9991 12.7015L15.0926 12.3907L13.0533 4.59132L6.27636 6.41876C5.74764 6.56133 5.43758 7.13582 5.57094 7.67182L2.74239 8.43722C2.20823 8.58176 1.89124 9.13625 2.03437 9.67569L3.0693 13.5763C3.21309 14.1183 3.76623 14.4384 4.3019 14.2897ZM7 8.2821L11.6282 7.04705L12.3691 9.82243C11.8283 9.48021 11.1873 9.2821 10.5 9.2821C9.0734 9.2821 7.84615 10.1356 7.30104 11.3599L4.74445 12.0911L4.21871 10.1097L7.24272 9.2821L7 8.2821ZM10.5 14.2821C11.3284 14.2821 12 13.6105 12 12.7821C12 11.9537 11.3284 11.2821 10.5 11.2821C9.67157 11.2821 9 11.9537 9 12.7821C9 13.6105 9.67157 14.2821 10.5 14.2821Z" fill="#3A3A47"/>
</svg>
