<svg width="24" height="24" viewBox="0 0 24 24" fill="none" xmlns="http://www.w3.org/2000/svg">
<path d="M14.0827 4.32185C13.9396 3.7824 14.2566 3.22792 14.7908 3.08338L18.666 2.03474C19.2001 1.8902 19.7492 2.21033 19.8923 2.74977L21.9656 10.5638C22.1087 11.1032 21.7917 11.6577 21.2575 11.8022L17.3823 12.8509C16.8482 12.9954 16.2991 12.6753 16.156 12.1358L14.0827 4.32185Z" fill="#3A3A47"/>
<path d="M2.03429 9.67566C1.89116 9.13622 2.20816 8.58174 2.74232 8.4372L5.57086 7.67179L5.56348 7.64213C5.43012 7.10614 5.74757 6.56131 6.27629 6.41873L13.0533 4.5913L14.8652 11.4322C14.9373 11.7044 15.0926 12.3906 15.0926 12.3906C15.0926 12.3906 14.4213 12.5989 14.1565 12.6704L13.1983 12.9291C13.1606 11.305 11.8323 10 10.1991 10C8.54229 10 7.19914 11.3432 7.19914 13C7.19914 13.1746 7.21404 13.3456 7.24264 13.5119C7.15322 13.5116 7.06109 13.5236 6.96775 13.5495L4.30182 14.2896C3.76616 14.4383 3.21301 14.1182 3.06923 13.5763L2.03429 9.67566Z" fill="#3A3A47"/>
<path d="M8.08013 15.1237L6.02801 20.6534L6.02596 20.6591C6.00623 20.7161 5.70975 21.6215 6.64911 21.9337C7.55831 22.2359 7.88757 21.4099 7.90539 21.3632L7.907 21.3589L9.89179 15.9845C9.18723 15.9128 8.55477 15.5973 8.08013 15.1237Z" fill="#3A3A47"/>
<path d="M10.2479 15.9996L12.56 21.407C12.5894 21.4756 12.6257 21.5412 12.6764 21.5957C12.8449 21.7767 13.2967 22.1624 13.9085 21.91C14.505 21.6639 14.5184 21.0862 14.4973 20.8522C14.4911 20.7844 14.4697 20.7198 14.4424 20.6575L12.1068 15.3155C11.5999 15.7336 10.9535 15.9884 10.2479 15.9996Z" fill="#3A3A47"/>
<path d="M12.1991 13C12.1991 14.1046 11.3037 15 10.1991 15C9.09457 15 8.19914 14.1046 8.19914 13C8.19914 11.8955 9.09457 11 10.1991 11C11.3037 11 12.1991 11.8955 12.1991 13Z" fill="#3A3A47"/>
</svg>
