<svg width="24" height="24" viewBox="0 0 24 24" fill="none" xmlns="http://www.w3.org/2000/svg">
<path d="M19.9721 12.6776C19.9905 12.4563 19.9999 12.2325 19.9999 12.0064C19.9999 11.68 19.9803 11.358 19.9423 11.0418C16.4215 10.359 13.6472 7.58473 12.9644 4.06397C12.6482 4.02598 12.3263 4.00643 11.9999 4.00643C11.7738 4.00643 11.5499 4.01581 11.3285 4.0342C12.0377 8.46742 15.5389 11.9685 19.9721 12.6776Z" fill="#3A3A47"/>
<path d="M12.6711 19.9787C11.962 15.5454 8.46088 12.0442 4.02766 11.3351C4.00926 11.5564 3.99988 11.7803 3.99988 12.0064C3.99988 12.3329 4.01943 12.6547 4.05743 12.9709C7.57819 13.6537 10.3525 16.4281 11.0353 19.9489C11.3515 19.9869 11.6734 20.0064 11.9999 20.0064C12.2259 20.0064 12.4498 19.9971 12.6711 19.9787Z" fill="#3A3A47"/>
<path fill-rule="evenodd" clip-rule="evenodd" d="M11.5629 4.21846C12.3228 8.39211 15.6142 11.6834 19.7879 12.4432C19.7958 12.2987 19.7999 12.153 19.7999 12.0064C19.7999 11.7371 19.7862 11.471 19.7596 11.2089C16.2756 10.4737 13.5326 7.73063 12.7973 4.24667C12.5352 4.22007 12.2692 4.20643 11.9999 4.20643C11.8532 4.20643 11.7075 4.21047 11.5629 4.21846ZM11.312 3.83489C11.5388 3.81604 11.7682 3.80643 11.9999 3.80643C12.3343 3.80643 12.6641 3.82646 12.9882 3.8654L13.1329 3.88279L13.1607 4.02589C13.828 7.46655 16.5397 10.1782 19.9804 10.8455L20.1235 10.8732L20.1409 11.0179C20.1798 11.3421 20.1999 11.672 20.1999 12.0064C20.1999 12.238 20.1903 12.4674 20.1714 12.6942L20.1536 12.9092L19.9405 12.8751C15.422 12.1524 11.8539 8.58435 11.131 4.06579L11.0969 3.85275L11.312 3.83489ZM3.84621 11.1035L4.05925 11.1376C8.5778 11.8604 12.1458 15.4285 12.8686 19.9471L12.9027 20.1601L12.6877 20.178C12.4609 20.1968 12.2315 20.2064 11.9999 20.2064C11.6654 20.2064 11.3355 20.1864 11.0114 20.1474L10.8667 20.13L10.8389 19.9869C10.1717 16.5463 7.46001 13.8345 4.01935 13.1672L3.87625 13.1395L3.85886 12.9948C3.81991 12.6707 3.79988 12.3408 3.79988 12.0064C3.79988 11.7748 3.80949 11.5454 3.82834 11.3185L3.84621 11.1035ZM4.21191 11.5695C4.20393 11.7141 4.19988 11.8598 4.19988 12.0064C4.19988 12.2757 4.21352 12.5417 4.24013 12.8038C7.72409 13.5391 10.4671 16.2822 11.2023 19.7662C11.4645 19.7928 11.7306 19.8064 11.9999 19.8064C12.1465 19.8064 12.2921 19.8024 12.4367 19.7944C11.6769 15.6207 8.38557 12.3293 4.21191 11.5695Z" fill="#3A3A47"/>
<path fill-rule="evenodd" clip-rule="evenodd" d="M12 20C16.4183 20 20 16.4183 20 12C20 7.58172 16.4183 4 12 4C7.58172 4 4 7.58172 4 12C4 16.4183 7.58172 20 12 20ZM12 22C17.5228 22 22 17.5228 22 12C22 6.47715 17.5228 2 12 2C6.47715 2 2 6.47715 2 12C2 17.5228 6.47715 22 12 22Z" fill="#3A3A47"/>
</svg>
