<svg width="24" height="24" viewBox="0 0 24 24" fill="none" xmlns="http://www.w3.org/2000/svg">
<path fill-rule="evenodd" clip-rule="evenodd" d="M2 4C2 2.89543 2.89543 2 4 2C5.10457 2 6 2.89543 6 4V6H10V4C10 2.89543 10.8954 2 12 2C13.1046 2 14 2.89543 14 4V6H18V4C18 2.89543 18.8954 2 20 2C21.1046 2 22 2.89543 22 4V21C22 21.5523 21.5523 22 21 22H19C18.4477 22 18 21.5523 18 21V20H14V21C14 21.5523 13.5523 22 13 22H11C10.4477 22 10 21.5523 10 21V20H6V21C6 21.5523 5.55228 22 5 22H3C2.44772 22 2 21.5523 2 21V4ZM6 17H10V9H6V17ZM14 17H18V9H14V17Z" fill="#3A3A47"/>
</svg>
