<svg width="24" height="24" viewBox="0 0 24 24" fill="none" xmlns="http://www.w3.org/2000/svg">
<path fill-rule="evenodd" clip-rule="evenodd" d="M12 5V15.3542C12.6224 16.0593 13 16.9856 13 18C13 20.2091 11.2091 22 9 22C6.79086 22 5 20.2091 5 18C5 16.9856 5.37764 16.0593 6 15.3542V5C6 3.34315 7.34315 2 9 2C10.6569 2 12 3.34315 12 5ZM9.5 5C9.5 4.72386 9.27614 4.5 9 4.5C8.72386 4.5 8.5 4.72386 8.5 5V17.1338C8.2011 17.3067 8 17.6299 8 18C8 18.5523 8.44772 19 9 19C9.55228 19 10 18.5523 10 18C10 17.6299 9.7989 17.3067 9.5 17.1338V5Z" fill="#3A3A47"/>
<path fill-rule="evenodd" clip-rule="evenodd" d="M16 10C17.6569 10 19 8.65685 19 7C19 5.34315 17.6569 4 16 4C14.3431 4 13 5.34315 13 7C13 8.65685 14.3431 10 16 10ZM16 8C16.5523 8 17 7.55228 17 7C17 6.44772 16.5523 6 16 6C15.4477 6 15 6.44772 15 7C15 7.55228 15.4477 8 16 8Z" fill="#3A3A47"/>
</svg>
