<svg width="24" height="24" viewBox="0 0 24 24" fill="none" xmlns="http://www.w3.org/2000/svg">
<path fill-rule="evenodd" clip-rule="evenodd" d="M12 15.3542V5C12 3.34315 10.6569 2 9 2C7.34315 2 6 3.34315 6 5V15.3542C5.37764 16.0593 5 16.9856 5 18C5 20.2091 6.79086 22 9 22C11.2091 22 13 20.2091 13 18C13 16.9856 12.6224 16.0593 12 15.3542ZM9 4.5C9.27614 4.5 9.5 4.72386 9.5 5V17.1338C9.7989 17.3067 10 17.6299 10 18C10 18.5523 9.55228 19 9 19C8.44772 19 8 18.5523 8 18C8 17.6299 8.2011 17.3067 8.5 17.1338V5C8.5 4.72386 8.72386 4.5 9 4.5Z" fill="#3A3A47"/>
<path d="M19 7C19 8.65685 17.6569 10 16 10C14.3431 10 13 8.65685 13 7C13 5.34315 14.3431 4 16 4C17.6569 4 19 5.34315 19 7Z" fill="#3A3A47"/>
</svg>
