<svg width="24" height="24" viewBox="0 0 24 24" fill="none" xmlns="http://www.w3.org/2000/svg">
<path d="M7.34823 12.6247C7.53356 12.81 7.78492 12.9141 8.04701 12.9141C8.30911 12.9141 8.56047 12.81 8.7458 12.6247C8.93113 12.4394 9.03525 12.188 9.03525 11.9259C9.03525 11.6638 8.93113 11.4125 8.7458 11.2271C8.56047 11.0418 8.30911 10.9377 8.04701 10.9377C7.78492 10.9377 7.53356 11.0418 7.34823 11.2271C7.1629 11.4125 7.05878 11.6638 7.05878 11.9259C7.05878 12.188 7.1629 12.4394 7.34823 12.6247Z" fill="#3A3A47"/>
<path d="M11.3012 12.6247C11.4865 12.81 11.7379 12.9141 12 12.9141C12.2621 12.9141 12.5134 12.81 12.6987 12.6247C12.8841 12.4394 12.9882 12.188 12.9882 11.9259C12.9882 11.6638 12.8841 11.4125 12.6987 11.2271C12.5134 11.0418 12.2621 10.9377 12 10.9377C11.7379 10.9377 11.4865 11.0418 11.3012 11.2271C11.1158 11.4125 11.0117 11.6638 11.0117 11.9259C11.0117 12.188 11.1158 12.4394 11.3012 12.6247Z" fill="#3A3A47"/>
<path d="M15.2541 12.6247C15.4394 12.81 15.6908 12.9141 15.9529 12.9141C16.215 12.9141 16.4664 12.81 16.6517 12.6247C16.837 12.4394 16.9411 12.188 16.9411 11.9259C16.9411 11.6638 16.837 11.4125 16.6517 11.2271C16.4664 11.0418 16.215 10.9377 15.9529 10.9377C15.6908 10.9377 15.4394 11.0418 15.2541 11.2271C15.0688 11.4125 14.9647 11.6638 14.9647 11.9259C14.9647 12.188 15.0688 12.4394 15.2541 12.6247Z" fill="#3A3A47"/>
<path fill-rule="evenodd" clip-rule="evenodd" d="M8.04701 12.9141C7.78492 12.9141 7.53356 12.81 7.34823 12.6247C7.1629 12.4394 7.05878 12.188 7.05878 11.9259C7.05878 11.6638 7.1629 11.4125 7.34823 11.2271C7.53356 11.0418 7.78492 10.9377 8.04701 10.9377C8.30911 10.9377 8.56047 11.0418 8.7458 11.2271C8.93113 11.4125 9.03525 11.6638 9.03525 11.9259C9.03525 12.188 8.93113 12.4394 8.7458 12.6247C8.56047 12.81 8.30911 12.9141 8.04701 12.9141ZM12 12.9141C11.7379 12.9141 11.4865 12.81 11.3012 12.6247C11.1158 12.4394 11.0117 12.188 11.0117 11.9259C11.0117 11.6638 11.1158 11.4125 11.3012 11.2271C11.4865 11.0418 11.7379 10.9377 12 10.9377C12.2621 10.9377 12.5134 11.0418 12.6987 11.2271C12.8841 11.4125 12.9882 11.6638 12.9882 11.9259C12.9882 12.188 12.8841 12.4394 12.6987 12.6247C12.5134 12.81 12.2621 12.9141 12 12.9141ZM15.9529 12.9141C15.6908 12.9141 15.4394 12.81 15.2541 12.6247C15.0688 12.4394 14.9647 12.188 14.9647 11.9259C14.9647 11.6638 15.0688 11.4125 15.2541 11.2271C15.4394 11.0418 15.6908 10.9377 15.9529 10.9377C16.215 10.9377 16.4664 11.0418 16.6517 11.2271C16.837 11.4125 16.9411 11.6638 16.9411 11.9259C16.9411 12.188 16.837 12.4394 16.6517 12.6247C16.4664 12.81 16.215 12.9141 15.9529 12.9141Z" fill="#3A3A47"/>
<path fill-rule="evenodd" clip-rule="evenodd" d="M13.8 5.25C12.4967 5.25 11.396 6.12546 11.0573 7.32191L10.7036 8.57166L9.79804 7.64057C9.44288 7.27541 8.94842 7.05 8.4 7.05C7.32383 7.05 6.45129 7.92175 6.45 8.99762L6.45472 9.68161L5.80637 9.77431C4.6439 9.94051 3.75 10.9415 3.75 12.15C3.75 13.456 4.79341 14.5186 6.09179 14.5493L6.56997 14.5606L6.76138 14.999C7.34056 16.3254 8.66314 17.25 10.2 17.25C11.1108 17.25 11.944 16.9263 12.5937 16.3868L13.1159 15.9532L13.5993 16.4297C14.1147 16.9377 14.8201 17.25 15.6 17.25C17.0574 17.25 18.2603 16.1554 18.4295 14.7439L18.4746 14.3678L18.804 14.1809C19.6691 13.69 20.25 12.7623 20.25 11.7C20.25 10.126 18.974 8.85 17.4 8.85H16.65V8.1C16.65 6.52599 15.374 5.25 13.8 5.25ZM10.0169 5.95176C10.7649 4.63711 12.1782 3.75 13.8 3.75C15.9659 3.75 17.7622 5.33301 18.0948 7.40519C20.167 7.73783 21.75 9.53405 21.75 11.7C21.75 13.1908 20.9998 14.5056 19.859 15.2887C19.4485 17.2652 17.6981 18.75 15.6 18.75C14.643 18.75 13.7574 18.4403 13.0392 17.9167C12.2206 18.4438 11.2454 18.75 10.2 18.75C8.20849 18.75 6.47738 17.6412 5.5878 16.0097C3.70013 15.7371 2.25 14.113 2.25 12.15C2.25 10.3968 3.40627 8.91468 4.99802 8.42312C5.27253 6.79236 6.69118 5.55 8.4 5.55C8.98404 5.55 9.53459 5.69548 10.0169 5.95176Z" fill="#3A3A47"/>
</svg>
