<svg width="24" height="24" viewBox="0 0 24 24" fill="none" xmlns="http://www.w3.org/2000/svg">
<path fill-rule="evenodd" clip-rule="evenodd" d="M13.9765 4.02002C16.1596 4.02002 17.9294 5.78981 17.9294 7.97296C20.1126 7.97296 21.8824 9.74276 21.8824 11.9259C21.8824 13.4007 21.0747 14.6869 19.8776 15.3662C19.6427 17.3251 17.9751 18.8435 15.953 18.8435C14.8716 18.8435 13.8917 18.4094 13.178 17.7058C12.3222 18.4163 11.2228 18.8435 10.0236 18.8435C7.99698 18.8435 6.25536 17.6235 5.4931 15.8779C3.62139 15.8336 2.11768 14.3024 2.11768 12.42C2.11768 10.6775 3.40629 9.23585 5.08262 8.99618L5.08238 8.9612C5.08238 7.32383 6.40972 5.99649 8.04709 5.99649C8.88067 5.99649 9.63391 6.34051 10.1725 6.89431C10.642 5.23544 12.1673 4.02002 13.9765 4.02002ZM7.3483 12.6247C7.53363 12.81 7.78499 12.9141 8.04709 12.9141C8.30918 12.9141 8.56054 12.81 8.74587 12.6247C8.9312 12.4394 9.03532 12.188 9.03532 11.9259C9.03532 11.6638 8.9312 11.4124 8.74587 11.2271C8.56054 11.0418 8.30918 10.9377 8.04709 10.9377C7.78499 10.9377 7.53363 11.0418 7.3483 11.2271C7.16297 11.4124 7.05885 11.6638 7.05885 11.9259C7.05885 12.188 7.16297 12.4394 7.3483 12.6247ZM11.3012 12.6247C11.4866 12.81 11.7379 12.9141 12 12.9141C12.2621 12.9141 12.5135 12.81 12.6988 12.6247C12.8841 12.4394 12.9883 12.188 12.9883 11.9259C12.9883 11.6638 12.8841 11.4124 12.6988 11.2271C12.5135 11.0418 12.2621 10.9377 12 10.9377C11.7379 10.9377 11.4866 11.0418 11.3012 11.2271C11.1159 11.4124 11.0118 11.6638 11.0118 11.9259C11.0118 12.188 11.1159 12.4394 11.3012 12.6247ZM15.2542 12.6247C15.4395 12.81 15.6909 12.9141 15.953 12.9141C16.2151 12.9141 16.4664 12.81 16.6518 12.6247C16.8371 12.4394 16.9412 12.188 16.9412 11.9259C16.9412 11.6638 16.8371 11.4124 16.6518 11.2271C16.4664 11.0418 16.2151 10.9377 15.953 10.9377C15.6909 10.9377 15.4395 11.0418 15.2542 11.2271C15.0689 11.4124 14.9647 11.6638 14.9647 11.9259C14.9647 12.188 15.0689 12.4394 15.2542 12.6247Z" fill="#3A3A47"/>
</svg>
