<svg xmlns="http://www.w3.org/2000/svg" width="24" height="24" viewBox="0 0 24 24">
    <path fill="#686A75" fill-rule="evenodd" d="M12 22a8 8 0 1 1 0-16 8 8 0 0 1 0 16zm-1.005-11v4c.012.667.348 1 1.008 1s.99-.333.99-1v-4c0-.667-.33-1-.993-1s-.997.333-1.005 1zM10 2h3.995c.672.006 1.008.341 1.008 1.005 0 .663-.336.995-1.008.995H10c-.667 0-1-.332-1-.995 0-.664.333-.999 1-1.005zm9.121 1.707l1.411 1.411c.47.48.471.954.002 1.423-.469.47-.94.466-1.416-.009l-1.41-1.41c-.472-.472-.473-.942-.004-1.412.47-.469.942-.47 1.417-.003z"/>
</svg>
