<svg width="24" height="24" viewBox="0 0 24 24" fill="none" xmlns="http://www.w3.org/2000/svg">
<path fill-rule="evenodd" clip-rule="evenodd" d="M12 22C9.87827 22 7.84344 21.1571 6.34315 19.6569C4.84285 18.1566 4 16.1217 4 14C4 11.8783 4.84285 9.84344 6.34315 8.34315C7.84344 6.84285 9.87827 6 12 6C14.1217 6 16.1566 6.84285 17.6569 8.34315C19.1571 9.84344 20 11.8783 20 14C20 16.1217 19.1571 18.1566 17.6569 19.6569C16.1566 21.1571 14.1217 22 12 22ZM12 20C12.7879 20 13.5681 19.8448 14.2961 19.5433C15.0241 19.2417 15.6855 18.7998 16.2426 18.2426C16.7998 17.6855 17.2417 17.0241 17.5433 16.2961C17.8448 15.5681 18 14.7879 18 14C18 13.2121 17.8448 12.4319 17.5433 11.7039C17.2417 10.9759 16.7998 10.3145 16.2426 9.75736C15.6855 9.20021 15.0241 8.75825 14.2961 8.45672C13.5681 8.1552 12.7879 8 12 8C10.4087 8 8.88258 8.63214 7.75736 9.75736C6.63214 10.8826 6 12.4087 6 14C6 15.5913 6.63214 17.1174 7.75736 18.2426C8.88258 19.3679 10.4087 20 12 20ZM10.995 11C11.003 10.333 11.337 10 12 10C12.663 10 12.994 10.333 12.994 11V15C12.994 15.667 12.664 16 12.004 16C11.343 16 11.007 15.667 10.995 15V11ZM10 2H13.995C14.667 2.006 15.003 2.341 15.003 3.005C15.003 3.668 14.667 4 13.995 4H10C9.333 4 9 3.668 9 3.005C9 2.341 9.333 2.006 10 2ZM19.121 3.707L20.532 5.118C21.002 5.598 21.003 6.072 20.534 6.541C20.065 7.011 19.594 7.007 19.118 6.532L17.708 5.122C17.236 4.65 17.235 4.18 17.704 3.71C18.174 3.241 18.646 3.24 19.121 3.707Z" fill="#3A3A47"/>
</svg>
