<svg xmlns="http://www.w3.org/2000/svg" xmlns:xlink="http://www.w3.org/1999/xlink" width="24" height="24" viewBox="0 0 24 24">
    <defs>
        <path id="a" d="M10 0c5.523 0 10 4.477 10 10 0 5.522-4.477 10-10 10S0 15.522 0 10C0 4.477 4.477 0 10 0zm0 2a8 8 0 1 0 0 16 8 8 0 0 0 0-16zm4.657 3.343c.48.48.48.951 0 1.414L11.414 10l3.243 3.243c.471.471.471.942 0 1.414-.472.471-.943.471-1.414 0L10 11.414l-3.243 3.243c-.46.482-.932.482-1.414 0-.482-.482-.482-.954 0-1.414L8.586 10 5.343 6.757c-.472-.47-.472-.942 0-1.414s.944-.472 1.414 0L10 8.586l3.243-3.243c.463-.48.934-.48 1.414 0z"/>
    </defs>
    <use fill="#3A3A47" fill-rule="evenodd" transform="translate(2 2)" xlink:href="#a"/>
</svg>
