<svg width="24" height="24" viewBox="0 0 24 24" fill="none" xmlns="http://www.w3.org/2000/svg">
<path fill-rule="evenodd" clip-rule="evenodd" d="M4.24737 12.9207C4.25013 13.0492 4.24741 13.1519 4.2403 13.2269L4.21875 13.4526C4.10318 14.6593 3.94048 16.3581 4.05645 17.7866C4.11691 18.5314 4.26698 19.4474 4.706 20.2339C5.21462 21.145 6.15335 21.9147 7.50014 21.9147C7.87771 21.9147 8.33881 21.8509 8.79897 21.6103C9.27391 21.362 9.58619 21.0102 9.78849 20.6936C9.97054 20.4088 10.0805 20.1237 10.1412 19.96C10.1714 19.8788 10.201 19.7943 10.225 19.7258L10.232 19.7059C10.2593 19.628 10.2831 19.5609 10.3083 19.4931C10.3342 19.4236 10.3672 19.2934 10.4093 19.1276C10.5508 18.5704 10.7946 17.6099 11.2148 17.1857C11.203 17.2307 11.1924 17.272 11.1844 17.305C11.1329 17.5174 10.9847 18.8891 10.9917 19.2885C10.9993 19.7224 11.1059 20.2717 11.4752 20.7909C11.8358 21.298 12.3182 21.595 12.7537 21.7701C14.6664 22.5396 16.2953 21.4244 17.1631 20.405C18.0818 19.3259 18.7033 17.8244 18.921 16.2656C19.0568 15.2937 19.1258 14.314 19.183 13.502C19.1865 13.4524 19.1939 13.395 19.2046 13.3328C19.3183 13.1604 19.3711 12.9158 19.4143 12.7156C19.4423 12.5861 19.4662 12.4753 19.5 12.4146C19.5132 12.3918 19.5268 12.3678 19.5406 12.3428C19.5745 12.2836 19.6023 12.2372 19.6271 12.1957C19.7021 12.0706 19.7497 11.9913 19.8538 11.7454C20.1559 11.0323 20.4463 10.181 20.6422 9.36016C20.6546 9.30803 20.6692 9.24955 20.6852 9.1853C20.8382 8.57045 21.1227 7.42769 20.9375 6.27284C20.6929 4.74823 19.734 3.4781 18.0115 2.61109C16.053 1.62523 14.1888 2.0438 12.958 2.40665C12.6279 2.50398 12.3845 2.58263 12.1735 2.65083C11.9078 2.7367 11.6934 2.80601 11.4215 2.87519C11.0394 2.97241 10.9137 2.95783 10.9137 2.95783L10.9163 2.95844C10.6833 2.90884 10.4823 2.85007 10.218 2.77277C10.0806 2.73258 9.92601 2.68736 9.74091 2.63583C9.28111 2.50783 8.65483 2.35041 7.97311 2.33608C7.24829 2.32084 6.45206 2.46569 5.67354 2.93068C4.91643 3.38289 4.31216 4.05663 3.81566 4.87947C2.61252 6.87343 2.98517 9.1457 3.39248 10.5452C3.58103 11.193 3.80891 11.7634 4.00579 12.2014C4.02521 12.2446 4.04902 12.2885 4.07315 12.3329C4.12038 12.42 4.16881 12.5092 4.18781 12.5999C4.19804 12.6488 4.20722 12.7023 4.21623 12.7548C4.2264 12.814 4.23636 12.872 4.24737 12.9207ZM15.3756 7.5638C15.7341 7.35637 15.8566 6.89757 15.6492 6.53904C15.4418 6.1805 14.983 6.058 14.6244 6.26543C11.6479 7.98749 9.86589 6.76951 9.56746 6.4242C9.29661 6.11081 8.82299 6.07632 8.5096 6.34717C8.19621 6.61802 8.16172 7.09164 8.43257 7.40503C9.22504 8.32198 11.8067 9.62852 15.3756 7.5638Z" fill="#3A3A47"/>
</svg>
