<svg width="24" height="24" viewBox="0 0 24 24" fill="none" xmlns="http://www.w3.org/2000/svg">
<path fill-rule="evenodd" clip-rule="evenodd" d="M11.9998 1.99976L11.9764 2.00002C6.46439 2.01277 2 6.48502 2 12C2 17.515 6.46438 21.9872 11.9764 22L11.991 22.0002L12.0008 22.0002L12.0236 22C17.5356 21.9872 22 17.515 22 12C22 6.48503 17.5356 2.01278 12.0236 2.00002L12.022 2.00002L11.9998 1.99976ZM12 19.9217C12.0372 19.9024 12.0777 19.8803 12.1211 19.855C12.3989 19.6929 12.8022 19.3964 13.2191 18.8753C13.6898 18.287 14.2024 17.3803 14.5563 16L9.44364 16C9.79754 17.3803 10.3102 18.287 10.7809 18.8753C11.1977 19.3964 11.6011 19.6929 11.8789 19.855C11.9223 19.8803 11.9628 19.9024 12 19.9217ZM9.09677 14L14.9032 14C14.9652 13.3956 15 12.7309 15 12C15 11.2691 14.9652 10.6043 14.9032 9.99999L9.09679 9.99999C9.03478 10.6043 9 11.2691 9 12C9 12.7309 9.03477 13.3956 9.09677 14ZM9.44367 7.99999C9.79757 6.61967 10.3102 5.71299 10.7809 5.12469C11.1978 4.60359 11.6011 4.30707 11.8789 4.14502C11.9223 4.11969 11.9628 4.09755 12 4.0783C12.0372 4.09756 12.0777 4.11969 12.1211 4.14502C12.3989 4.30707 12.8023 4.6036 13.2191 5.12469C13.6898 5.71299 14.2025 6.61967 14.5564 7.99999L9.44367 7.99999ZM16.9124 9.99999C16.9693 10.6194 17 11.285 17 12C17 12.715 16.9693 13.3806 16.9124 14H19.748C19.9125 13.3608 20 12.6906 20 12C20 11.3094 19.9125 10.6392 19.748 9.99999H16.9124ZM18.9297 7.99999H16.6109C16.3169 6.64504 15.8799 5.58151 15.384 4.74884C16.8725 5.44471 18.1115 6.58545 18.9297 7.99999ZM7.3891 7.99999H5.07026C5.88853 6.58543 7.1275 5.44468 8.61608 4.74881C8.12012 5.58148 7.68319 6.64502 7.3891 7.99999ZM4.25203 9.99999H7.08759C7.03074 10.6194 7 11.285 7 12C7 12.715 7.03073 13.3806 7.08757 14H4.25203C4.08751 13.3608 4 12.6906 4 12C4 11.3094 4.08751 10.6392 4.25203 9.99999ZM15.3839 19.2512C15.8799 18.4185 16.3168 17.355 16.6109 16H18.9297C18.1115 17.4145 16.8725 18.5553 15.3839 19.2512ZM8.61604 19.2512C7.12748 18.5553 5.88853 17.4145 5.07026 16H7.38908C7.68315 17.3549 8.12008 18.4185 8.61604 19.2512Z" fill="#24252E"/>
</svg>
