<svg width="24" height="24" viewBox="0 0 24 24" fill="none" xmlns="http://www.w3.org/2000/svg">
<path fill-rule="evenodd" clip-rule="evenodd" d="M15.997 4.00001C16.663 3.99801 16.997 4.33001 16.997 4.99401V9.99601C16.997 11.016 16.997 16.001 12.034 16C7.07 16 7 11.575 7 9.99401V4.99401C6.998 4.33101 7.33 4.00001 7.997 4.00001C8.663 4.00001 8.997 4.33101 8.997 4.99401V9.99601C8.997 11.06 9.067 14.001 12.034 14.001C15 14.001 15 11.065 15 9.99401V5.00001C14.998 4.33501 15.33 4.00201 15.997 4.00001ZM4 19C4 18.333 4.333 18 5 18H19C19.667 18 20 18.333 20 19C20 19.667 19.667 20 19 20H5C4.333 20 4 19.667 4 19Z" fill="#3A3A47"/>
</svg>
