<svg width="24" height="24" viewBox="0 0 24 24" fill="none" xmlns="http://www.w3.org/2000/svg">
<path fill-rule="evenodd" clip-rule="evenodd" d="M13 7.41403V15C13 15.667 12.667 16 12 16C11.333 16 11 15.667 11 15V7.41403L7.70701 10.707C7.61476 10.8025 7.50442 10.8787 7.38241 10.9311C7.26041 10.9835 7.12919 11.0111 6.99641 11.0123C6.86363 11.0134 6.73195 10.9881 6.60905 10.9379C6.48616 10.8876 6.37451 10.8133 6.28061 10.7194C6.18672 10.6255 6.11247 10.5139 6.06219 10.391C6.01191 10.2681 5.9866 10.1364 5.98776 10.0036C5.98891 9.87085 6.0165 9.73963 6.06891 9.61763C6.12132 9.49562 6.1975 9.38528 6.29301 9.29303L11.293 4.29303C11.4805 4.10556 11.7348 4.00024 12 4.00024C12.2652 4.00024 12.5195 4.10556 12.707 4.29303L17.708 9.29403C17.8902 9.48263 17.991 9.73524 17.9887 9.99743C17.9864 10.2596 17.8812 10.5104 17.6958 10.6958C17.5104 10.8813 17.2596 10.9864 16.9974 10.9887C16.7352 10.991 16.4826 10.8902 16.294 10.708L13 7.41403ZM4.00001 19C4.00201 18.333 4.33501 18 5.00001 18H19C19.667 17.996 20 18.33 20 19.001C20 19.673 19.667 20.006 19 20H5.00201C4.33201 20 3.99801 19.666 4.00001 19Z" fill="#3A3A47"/>
</svg>
