<svg width="24" height="24" viewBox="0 0 24 24" fill="none" xmlns="http://www.w3.org/2000/svg">
<path fill-rule="evenodd" clip-rule="evenodd" d="M17.005 7C17.005 8.32608 16.4782 9.59785 15.5405 10.5355C14.6028 11.4732 13.3311 12 12.005 12C10.6789 12 9.40714 11.4732 8.46946 10.5355C7.53178 9.59785 7.00499 8.32608 7.00499 7C7.00499 5.67392 7.53178 4.40215 8.46946 3.46447C9.40714 2.52678 10.6789 2 12.005 2C13.3311 2 14.6028 2.52678 15.5405 3.46447C16.4782 4.40215 17.005 5.67392 17.005 7ZM15.005 7C15.005 6.20435 14.6889 5.44129 14.1263 4.87868C13.5637 4.31607 12.8006 4 12.005 4C11.2093 4 10.4463 4.31607 9.88367 4.87868C9.32106 5.44129 9.00499 6.20435 9.00499 7C9.00499 7.79565 9.32106 8.55871 9.88367 9.12132C10.4463 9.68393 11.2093 10 12.005 10C12.8006 10 13.5637 9.68393 14.1263 9.12132C14.6889 8.55871 15.005 7.79565 15.005 7ZM2.00499 20C2.00499 15.757 4.34099 14 7.76499 14.003C7.78799 14.003 7.01899 14.827 7.01899 16.065C7.01899 16.065 4.00499 16.119 4.00499 20H9.78299L11.827 22H4.00499C1.79999 22 2.00499 20 2.00499 20ZM20.005 20C20.005 18.751 19.709 17.794 19.117 17.128L20.629 15.63C21.529 16.629 21.988 18.086 22.005 20C22.005 21.333 21.338 22 20.005 22H14.237L16.247 20H20.005ZM20.299 10.293C20.3912 10.1975 20.5016 10.1213 20.6236 10.0689C20.7456 10.0165 20.8768 9.9889 21.0096 9.98775C21.1424 9.9866 21.2741 10.0119 21.3969 10.0622C21.5198 10.1125 21.6315 10.1867 21.7254 10.2806C21.8193 10.3745 21.8935 10.4861 21.9438 10.609C21.9941 10.7319 22.0194 10.8636 22.0182 10.9964C22.0171 11.1292 21.9895 11.2604 21.9371 11.3824C21.8847 11.5044 21.8085 11.6148 21.713 11.707L13.713 19.707C13.5255 19.8945 13.2712 19.9998 13.006 19.9998C12.7408 19.9998 12.4865 19.8945 12.299 19.707L9.29799 16.706C9.11584 16.5174 9.01504 16.2648 9.01732 16.0026C9.0196 15.7404 9.12477 15.4896 9.31017 15.3042C9.49558 15.1188 9.7464 15.0136 10.0086 15.0113C10.2708 15.009 10.5234 15.1098 10.712 15.292L13.006 17.586L20.299 10.293Z" fill="#3A3A47"/>
</svg>
