<svg width="24" height="24" viewBox="0 0 24 24" fill="none" xmlns="http://www.w3.org/2000/svg">
<path fill-rule="evenodd" clip-rule="evenodd" d="M15.5355 10.5355C16.4732 9.59785 17 8.32608 17 7C17 5.67392 16.4732 4.40215 15.5355 3.46447C14.5979 2.52678 13.3261 2 12 2C10.6739 2 9.40215 2.52678 8.46447 3.46447C7.52678 4.40215 7 5.67392 7 7C7 8.32608 7.52678 9.59785 8.46447 10.5355C9.40215 11.4732 10.6739 12 12 12C13.3261 12 14.5979 11.4732 15.5355 10.5355ZM14.1213 4.87868C14.6839 5.44129 15 6.20435 15 7C15 7.79565 14.6839 8.55871 14.1213 9.12132C13.5587 9.68393 12.7956 10 12 10C11.2044 10 10.4413 9.68393 9.87868 9.12132C9.31607 8.55871 9 7.79565 9 7C9 6.20435 9.31607 5.44129 9.87868 4.87868C10.4413 4.31607 11.2044 4 12 4C12.7956 4 13.5587 4.31607 14.1213 4.87868Z" fill="#3A3A47"/>
<path d="M8.004 14C4.001 14 2 16 2 20C2 21.333 2.667 22 4 22H10.1752C9.95454 21.3733 9.9348 20.67 10.1695 20H4C4 17.333 5.333 16 8 16H12.15L13.1543 14H8.004Z" fill="#3A3A47"/>
<path fill-rule="evenodd" clip-rule="evenodd" d="M12.1096 20.5377L16.1215 12.5473C16.488 11.8176 17.512 11.8176 17.8785 12.5473L21.8906 20.5377C22.2263 21.2063 21.7494 22 21.012 22L12.988 22C12.2507 22 11.7739 21.2063 12.1096 20.5377ZM15.9467 20.0384C15.9467 19.4835 16.3883 19.0336 16.9332 19.0336C17.4782 19.0336 17.92 19.4835 17.92 20.0384C17.92 20.5933 17.4782 21.0432 16.9333 21.0432C16.3884 21.0432 15.9467 20.5933 15.9467 20.0384ZM17.6733 15.0144C17.6733 14.5982 17.342 14.2608 16.9333 14.2608C16.5246 14.2608 16.1933 14.5982 16.1933 15.0144L16.1933 17.5264C16.1933 17.9426 16.5246 18.28 16.9332 18.28C17.3419 18.28 17.6732 17.9426 17.6732 17.5264L17.6733 15.0144Z" fill="#3A3A47"/>
</svg>
