<svg width="24" height="24" viewBox="0 0 24 24" fill="none" xmlns="http://www.w3.org/2000/svg">
<path fill-rule="evenodd" clip-rule="evenodd" d="M20 4H4V20H20V4ZM4 2C2.89543 2 2 2.89543 2 4V20C2 21.1046 2.89543 22 4 22H20C21.1046 22 22 21.1046 22 20V4C22 2.89543 21.1046 2 20 2H4Z" fill="#3A3A47"/>
<path d="M6 16C6 14.3431 7.34315 13 9 13H15C16.6569 13 18 14.3431 18 16V16.15C18 17.1717 17.1717 18 16.15 18H7.85C6.82827 18 6 17.1717 6 16.15V16Z" fill="#3A3A47"/>
<path d="M15 8C15 9.65685 13.6569 11 12 11C10.3431 11 9 9.65685 9 8C9 6.34315 10.3431 5 12 5C13.6569 5 15 6.34315 15 8Z" fill="#3A3A47"/>
</svg>
