<svg xmlns="http://www.w3.org/2000/svg" width="24" height="24" viewBox="0 0 24 24">
    <path fill="#686A75" fill-rule="evenodd" d="M15 6.814C15 5.515 13.782 4 12 4S9.004 5.462 9.004 7c0 1.553 1.23 2.994 2.998 2.994l.24.006-1.7 1.784a5 5 0 1 1 6.102-6.641L15 6.813zM2 19.785C2 15.047 5.331 14 7.776 14.002 7.776 14 2 19.785 2 19.785zM20.002 20c0-2.667-1.333-4-4-4h-1.745a611.359 611.359 0 0 1 2.029-1.997C20.096 14.001 22 16 22 20c0 1.333-.667 2-2 2H8.283l2.001-2h9.718zM18.207 6.367c.463-.48.935-.48 1.414 0 .48.48.48.951 0 1.415l-13.9 13.9c-.46.481-.931.481-1.414 0-.482-.483-.482-.954 0-1.415l13.9-13.9z"/>
</svg>
