<svg xmlns="http://www.w3.org/2000/svg" width="24" height="24" viewBox="0 0 24 24">
    <path fill="#3A3A47" fill-rule="evenodd" d="M7.764 14.003c.024 0-.745.824-.745 2.062 0 0-3.014.054-3.014 3.935h5.778l2.044 2H4.005c-2.205 0-2-2-2-2 0-4.243 2.336-6 5.76-5.997zM20.63 15.63c.9.999 1.359 2.456 1.376 4.37 0 1.333-.667 2-2 2h-5.768l2.01-2h3.758c0-1.249-.296-2.206-.888-2.872l1.512-1.498zm1.084-5.337a1 1 0 0 1 0 1.414l-8 8a1 1 0 0 1-1.414 0l-3.001-3.001a1 1 0 0 1 1.414-1.414l2.294 2.294 7.293-7.293a1 1 0 0 1 1.414 0zM12.005 2a5 5 0 1 1 0 10 5 5 0 0 1 0-10zm0 2a3 3 0 1 0 0 6 3 3 0 0 0 0-6z"/>
</svg>
