<svg width="24" height="24" viewBox="0 0 24 24" fill="none" xmlns="http://www.w3.org/2000/svg">
<path d="M9.16564 11.1191C8.91634 10.9475 8.68146 10.7525 8.46447 10.5355C7.52678 9.59785 7 8.32608 7 7C7 5.67392 7.52678 4.40215 8.46447 3.46447C9.40215 2.52678 10.6739 2 12 2C13.3261 2 14.5979 2.52678 15.5355 3.46447C16.4732 4.40215 17 5.67392 17 7C17 7.42429 16.9461 7.84301 16.842 8.24702C16.2528 8.08598 15.6325 8 14.9922 8C14.9372 8 14.8824 8.00064 14.8278 8.0019C14.9407 7.68314 15 7.34463 15 7C15 6.20435 14.6839 5.44129 14.1213 4.87868C13.5587 4.31607 12.7956 4 12 4C11.2044 4 10.4413 4.31607 9.87868 4.87868C9.31607 5.44129 9 6.20435 9 7C9 7.79565 9.31607 8.55871 9.87868 9.12132C10.0722 9.31487 10.2895 9.47924 10.5237 9.6116C10.0015 10.0451 9.54344 10.553 9.16564 11.1191Z" fill="#3A3A47"/>
<path d="M8.06308 14H8.004C4.001 14 2 16 2 20C2 21.333 2.667 22 4 22H14.9922C13.0849 22 11.3557 21.2372 10.0932 20H4C4 17.333 5.333 16 8 16H8.06308C8.01636 15.6734 7.99219 15.3395 7.99219 15C7.99219 14.6605 8.01636 14.3266 8.06308 14Z" fill="#3A3A47"/>
<path fill-rule="evenodd" clip-rule="evenodd" d="M14.9922 10C17.7536 10 19.9922 12.2386 19.9922 15C19.9922 16.0147 19.6899 16.9588 19.1705 17.7472L19.2656 17.8426L21.748 20.3352C22.1409 20.782 21.9913 21.3484 21.6611 21.6769C21.3309 22.0053 20.765 22.146 20.345 21.7309L20.3016 21.6876L17.7688 19.1588C16.9745 19.6902 16.0195 20 14.9922 20C12.2308 20 9.99219 17.7614 9.99219 15C9.99219 12.2386 12.2308 10 14.9922 10ZM11.9922 15C11.9922 13.3431 13.3353 12 14.9922 12C16.649 12 17.9922 13.3431 17.9922 15C17.9922 16.6569 16.649 18 14.9922 18C13.3353 18 11.9922 16.6569 11.9922 15Z" fill="#3A3A47"/>
</svg>
