<svg xmlns="http://www.w3.org/2000/svg" width="24" height="24" viewBox="0 0 24 24">
    <path fill="#3A3A47" fill-rule="evenodd" d="M20 2c.665-.006 1.165.161 1.5.5.335.34.502.847.5 1.523V20c0 .667-.166 1.167-.5 1.5-.333.334-.833.5-1.5.5H4.01c-.672 0-1.176-.167-1.51-.5-.334-.332-.5-.832-.5-1.5V4.01c-.006-.67.16-1.173.5-1.51.34-.336.849-.503 1.528-.5H20zm-5 11H9c-1.566 0-2.864 1.299-3 3v.045c.003.305.138 1.949 2 1.955 2 .007 6 0 8 0s2.009-1.898 2-2c-.14-1.695-1.437-3-3-3zm-3-8a3 3 0 1 0 0 6 3 3 0 0 0 0-6z"/>
</svg>
