<svg width="24" height="24" viewBox="0 0 24 24" fill="none" xmlns="http://www.w3.org/2000/svg">
<path d="M17 7C17 8.32608 16.4732 9.59785 15.5355 10.5355C14.5979 11.4732 13.3261 12 12 12C10.6739 12 9.40215 11.4732 8.46447 10.5355C7.52678 9.59785 7 8.32608 7 7C7 5.67392 7.52678 4.40215 8.46447 3.46447C9.40215 2.52678 10.6739 2 12 2C13.3261 2 14.5979 2.52678 15.5355 3.46447C16.4732 4.40215 17 5.67392 17 7Z" fill="#3A3A47"/>
<path d="M8.004 14C4.001 14 2 16 2 20C2 21.333 2.667 22 4 22H13.3272C12.1993 21.849 11.2839 21.2158 10.719 20.3695C10.1629 19.5364 10.0283 18.644 10.0283 18.0117L10.0281 17.9946C10.0256 17.8488 10.0105 16.9861 10.4127 16.1247C10.6571 15.6011 11.079 15.0139 11.7659 14.5774C12.3533 14.2042 12.9807 14.0388 13.5661 14H8.004Z" fill="#3A3A47"/>
<path d="M17.2399 20.3562C16.923 20.7682 16.9373 21.3523 17.292 21.7151C17.6761 22.1082 18.3142 22.0926 18.7172 21.6803L21.6875 18.6415L21.7736 18.5423C22.0905 18.1304 22.0762 17.5462 21.7215 17.1834L18.8883 14.2849L18.7953 14.2014C18.4073 13.8966 17.835 13.9391 17.4631 14.3197L17.3769 14.4188C17.0601 14.8308 17.0744 15.415 17.429 15.7778L18.8507 17.2322L16.6417 17.2343C15.2726 17.2353 14.3325 17.2352 13.8214 17.2341C13 17.2322 13 17.9705 13 18.255C13 18.7375 13.222 19.2778 13.8214 19.2778L18.2823 19.2798L17.326 20.257L17.2399 20.3562Z" fill="#3A3A47"/>
</svg>
