<svg width="24" height="24" viewBox="0 0 24 24" fill="none" xmlns="http://www.w3.org/2000/svg">
<path d="M17.2399 20.3562C16.923 20.7682 16.9373 21.3523 17.292 21.7151C17.6761 22.1082 18.3142 22.0926 18.7172 21.6803L21.6875 18.6415L21.7736 18.5423C22.0905 18.1304 22.0762 17.5462 21.7215 17.1834L18.8883 14.2849L18.7953 14.2014C18.4073 13.8966 17.835 13.9391 17.4631 14.3197L17.377 14.4188C17.0601 14.8308 17.0744 15.415 17.429 15.7778L18.8507 17.2322L16.6418 17.2343C15.2726 17.2353 14.3325 17.2352 13.8214 17.2341C13 17.2322 13 17.9705 13 18.255C13 18.7375 13.222 19.2778 13.8214 19.2778L18.2823 19.2798L17.326 20.257L17.2399 20.3562Z" fill="#3A3A47"/>
<path fill-rule="evenodd" clip-rule="evenodd" d="M15.5355 10.5355C16.4732 9.59785 17 8.32608 17 7C17 5.67392 16.4732 4.40215 15.5355 3.46447C14.5979 2.52678 13.3261 2 12 2C10.6739 2 9.40215 2.52678 8.46447 3.46447C7.52678 4.40215 7 5.67392 7 7C7 8.32608 7.52678 9.59785 8.46447 10.5355C9.40215 11.4732 10.6739 12 12 12C13.3261 12 14.5979 11.4732 15.5355 10.5355ZM14.1213 4.87868C14.6839 5.44129 15 6.20435 15 7C15 7.79565 14.6839 8.55871 14.1213 9.12132C13.5587 9.68393 12.7956 10 12 10C11.2044 10 10.4413 9.68393 9.87868 9.12132C9.31607 8.55871 9 7.79565 9 7C9 6.20435 9.31607 5.44129 9.87868 4.87868C10.4413 4.31607 11.2044 4 12 4C12.7956 4 13.5587 4.31607 14.1213 4.87868Z" fill="#3A3A47"/>
<path d="M2 20C2 16 4.001 14 8.004 14H10C10.5523 14 11 14.4477 11 15C11 15.5523 10.5523 16 10 16H8C5.333 16 4 17.333 4 20H10C10.5523 20 11 20.4477 11 21C11 21.5523 10.5523 22 10 22H4C2.667 22 2 21.333 2 20Z" fill="#3A3A47"/>
</svg>
