<svg width="24" height="24" viewBox="0 0 24 24" fill="none" xmlns="http://www.w3.org/2000/svg">
<path fill-rule="evenodd" clip-rule="evenodd" d="M10.4118 14C10.6172 14 11.1308 14.0819 10.9185 14.4701C10.777 14.729 10.41 15.2389 9.81757 16H8C5.33333 16 4 17.3333 4 20H11.208C12.2942 20.9591 12.8009 21.5231 12.7281 21.6922C12.6189 21.9457 12.4588 22 12.118 22H4C2.66667 22 2 21.3333 2 20C2 16 4.00124 14 8.00373 14H10.4118ZM17.7111 13.6212C18.0655 13.9756 18.0798 14.5461 17.7632 14.9485L17.6772 15.0454L16.7215 15.9999L17.4398 15.9999C18.1725 16.0004 18.8015 16.0008 19.3267 16.0011L21.1792 16.0019C21.7782 16.0019 22 16.5297 22 17.001C22 17.2788 22 18 21.1792 17.9981C20.6685 17.997 19.7291 17.9969 18.3609 17.9979L18.0611 17.9981L16.1535 17.9999L17.5742 19.4206C17.9285 19.775 17.9428 20.3455 17.6262 20.7479L17.5402 20.8448C17.1685 21.2165 16.5966 21.2581 16.2088 20.9603L16.116 20.8788L13.2848 18.0476C12.9304 17.6932 12.9161 17.1226 13.2327 16.7203L13.3188 16.6234L16.2869 13.6552C16.6896 13.2525 17.3272 13.2373 17.7111 13.6212ZM12 2C14.7612 2 17 4.23875 17 7C17 9.76125 14.7612 12 12 12C9.23875 12 7 9.76125 7 7C7 4.23875 9.23875 2 12 2ZM12 4C10.3433 4 9 5.34325 9 7C9 8.65675 10.3433 10 12 10C13.6567 10 15 8.65675 15 7C15 5.34325 13.6567 4 12 4Z" fill="#3A3A47"/>
</svg>
