<svg width="24" height="24" viewBox="0 0 24 24" fill="none" xmlns="http://www.w3.org/2000/svg">
<path fill-rule="evenodd" clip-rule="evenodd" d="M3.70711 2.29277C3.31658 1.90225 2.68342 1.90225 2.29289 2.29277C1.90237 2.6833 1.90237 3.31646 2.29289 3.70698L2.82805 4.26727C2.27578 4.57692 1.99951 5.16038 1.99951 6.01764V18.0046C1.99951 19.3386 2.67051 20.0046 4.01351 20.0046H14.9995C15.9685 20.0046 16.5855 19.6522 16.8503 18.9477L19.5 21.7218C19.8905 22.1123 20.5237 22.1123 20.9142 21.7218C21.3047 21.3313 21.3047 20.6981 20.9142 20.3076L3.70711 2.29277ZM5.99951 15.0096H9.99951C10.6665 15.0026 10.9995 15.3346 10.9995 16.0046C10.9995 16.6746 10.6665 17.0096 9.99951 17.0096H5.99951C5.33251 17.0096 4.99951 16.6746 4.99951 16.0046C4.99951 15.3346 5.33251 15.0026 5.99951 15.0096Z" fill="#3A3A47"/>
<path fill-rule="evenodd" clip-rule="evenodd" d="M8.09981 3.99962C10.7501 3.99873 13.7819 4.0004 14.9955 4.00464C16.3315 4.00964 16.9995 4.67564 16.9995 6.00464V9.01264L20.4025 7.80964C20.9085 7.63364 21.3005 7.63364 21.5775 7.80964C21.8555 7.98564 21.9965 8.28564 21.9995 8.71064V15.3866C22.0165 15.7406 21.8755 16.0066 21.5775 16.1836C21.2795 16.3606 20.9325 16.3906 20.5375 16.2736L19.5732 15.9275C19.4262 15.8747 19.2935 15.7882 19.1859 15.6749L8.09981 3.99962Z" fill="#3A3A47"/>
</svg>
