<svg width="24" height="24" viewBox="0 0 24 24" fill="none" xmlns="http://www.w3.org/2000/svg">
<path fill-rule="evenodd" clip-rule="evenodd" d="M3.70711 2.29302C3.31658 1.90249 2.68342 1.90249 2.29289 2.29302C1.90237 2.68354 1.90237 3.3167 2.29289 3.70723L2.82805 4.26751C2.27578 4.57717 1.99951 5.16062 1.99951 6.01788V18.0049C1.99951 19.3389 2.67051 20.0049 4.01351 20.0049H14.9995C15.9685 20.0049 16.5855 19.6525 16.8503 18.948L19.5 21.7221C19.8905 22.1126 20.5237 22.1126 20.9142 21.7221C21.3047 21.3315 21.3047 20.6984 20.9142 20.3078L3.70711 2.29302ZM14.9995 17.0103L4.57681 6.09835C4.2358 6.25763 3.99951 6.60367 3.99951 7.00488V18.0049H14.9995V17.0103ZM14.9995 11.2662V6.00488H10.0036L8.09981 3.99987C10.7501 3.99897 13.7819 4.00064 14.9955 4.00488C16.3315 4.00988 16.9995 4.67588 16.9995 6.00488V9.01288L20.4025 7.80988C20.9085 7.63388 21.3005 7.63388 21.5775 7.80988C21.8555 7.98588 21.9965 8.28588 21.9995 8.71088V15.3869C22.0165 15.7409 21.8755 16.0069 21.5775 16.1839C21.2795 16.3609 20.9325 16.3909 20.5375 16.2739L19.5732 15.9277C19.4262 15.875 19.2935 15.7884 19.1859 15.6751L14.9995 11.2662ZM16.9975 11.0049L19.9995 9.99988V13.9999L16.9975 13.0079V11.0049ZM5.99951 15.0099H9.99951C10.6665 15.0029 10.9995 15.3349 10.9995 16.0049C10.9995 16.6749 10.6665 17.0099 9.99951 17.0099H5.99951C5.33251 17.0099 4.99951 16.6749 4.99951 16.0049C4.99951 15.3349 5.33251 15.0029 5.99951 15.0099Z" fill="#3A3A47"/>
</svg>
