<svg width="24" height="24" viewBox="0 0 24 24" fill="none" xmlns="http://www.w3.org/2000/svg">
<path fill-rule="evenodd" clip-rule="evenodd" d="M10.9555 2.0539C10.5095 2.10019 10.0723 2.17579 9.64567 2.27874C8.35532 2.59014 7.16256 3.15177 6.12162 3.90939C5.94238 4.03985 5.76764 4.17611 5.59769 4.31791C3.39903 6.15229 2 8.91282 2 12.0001C2 13.2584 2.23239 14.4624 2.6566 15.5715C2.8176 15.9925 3.00624 16.3998 3.22028 16.7912C4.91764 19.8951 8.21303 22.0002 12.0001 22.0002C16.0736 22.0002 19.5782 19.5646 21.1372 16.0702C21.3167 15.6678 21.4704 15.2514 21.5962 14.8231C21.8591 13.9278 22.0002 12.9804 22.0002 12.0001C22.0002 6.4772 17.523 2 12.0001 2C11.6473 2 11.2988 2.01827 10.9555 2.0539ZM11 5.99998C11 5.32555 11.074 4.66914 11.2142 4.03811C11.4728 4.0129 11.7349 4 12.0001 4C14.8604 4 17.3701 5.50108 18.7844 7.75845C18.4542 7.57087 18.1112 7.39859 17.756 7.2429C15.5529 6.27736 13.2024 6.09135 11.0174 6.5651C11.0059 6.37823 11 6.18981 11 5.99998ZM9.00001 5.99998C9.00001 5.50646 9.03257 5.02028 9.09569 4.54353C8.47742 4.78453 7.8965 5.10021 7.36402 5.47948C7.18123 6.31536 7.11549 7.19225 7.18408 8.09118C7.33364 10.0515 8.09923 11.8146 9.27715 13.2088C9.81244 12.8353 10.3009 12.4071 10.7367 11.9344C9.63766 10.2221 9.00001 8.18438 9.00001 5.99998ZM20.0002 12.0001C20.0002 12.4127 19.969 12.818 19.9087 13.2138C19.5279 12.9213 19.1237 12.6504 18.697 12.4041C16.7414 11.275 14.581 10.8145 12.4838 10.9524C11.9974 10.2158 11.6164 9.40372 11.3623 8.53716C13.172 8.12779 15.1223 8.27226 16.9532 9.07469C18.1272 9.58924 19.1343 10.3226 19.9496 11.2051L19.9602 11.1953C19.9867 11.46 20.0002 11.7285 20.0002 12.0001ZM17.697 14.1361C18.2811 14.4733 18.8125 14.8656 19.2889 15.3026C18.0316 18.0732 15.2409 20.0002 12.0001 20.0002C11.2987 20.0002 10.6185 19.91 9.97025 19.7404C10.638 19.5844 11.295 19.3629 11.9353 19.0723C14.2818 18.0074 16.0676 16.1708 17.2506 13.8946C17.4007 13.9705 17.5495 14.051 17.697 14.1361ZM11.1088 17.2511C9.72515 17.879 8.23202 18.1153 6.70225 17.9948C6.27518 17.617 5.88878 17.1944 5.55044 16.7342C6.02413 16.6718 6.499 16.5778 6.97255 16.4509C9.21209 15.8509 11.1061 14.5997 12.5027 12.9562C13.4503 12.8819 14.4146 12.957 15.3595 13.1913C14.3585 15.0185 12.9195 16.4293 11.1088 17.2511ZM6.45491 14.5191C5.80567 14.6931 5.15468 14.7914 4.51101 14.8196C4.18071 13.9427 4 12.9925 4 12.0001C4 10.4757 4.42636 9.05088 5.16635 7.83838C5.17172 7.97297 5.17954 8.10797 5.18987 8.24333C5.36111 10.4877 6.19562 12.5253 7.48622 14.1758C7.15375 14.3091 6.8097 14.424 6.45491 14.5191ZM11.9999 12.001L11.9968 12.0033L12.0005 12.0062L11.9999 12.001Z" fill="#3A3A47"/>
</svg>
