<svg width="24" height="24" viewBox="0 0 24 24" fill="none" xmlns="http://www.w3.org/2000/svg">
<path d="M11.8729 2.00079C11.2744 3.52903 11.0272 5.06554 11.1089 6.53236C14.4801 6.04375 18.1952 6.59216 21.3667 8.49023C19.9454 4.69869 16.2878 2 12 2C11.9576 2 11.9152 2.00026 11.8729 2.00079Z" fill="#3A3A47"/>
<path d="M9.66238 2.27471C8.56002 5.88018 9.06454 9.5674 11.141 12.5171C10.4697 13.1093 9.7864 13.576 9.08352 13.9352C6.84888 10.828 6.02038 6.83974 7.13855 3.25914C7.92116 2.82294 8.76844 2.4888 9.66238 2.27471Z" fill="#3A3A47"/>
<path d="M21.9815 11.3871C18.9685 8.82167 15.0123 7.99261 11.4286 8.5063C11.6741 9.40255 12.0527 10.2547 12.5582 11.0415C14.9121 10.8827 17.0157 11.1708 18.9229 12.0608C19.9565 12.5431 20.9088 13.1912 21.798 14.0097C21.9304 13.3605 22 12.6884 22 12C22 11.7942 21.9938 11.5898 21.9815 11.3871Z" fill="#3A3A47"/>
<path d="M21.1049 16.1411C20.3035 15.2776 19.4717 14.6202 18.5939 14.136C16.3787 18.0448 12.4939 20.5231 7.59338 20.9792C8.9228 21.6329 10.4185 22 12 22C16.0458 22 19.5304 19.5974 21.1049 16.1411Z" fill="#3A3A47"/>
<path d="M4.8821 19.0239C10.3203 19.3511 14.4729 17.1466 16.7231 13.3743C15.7493 13.1035 14.6858 12.9819 13.5049 13.0021C11.7855 14.8436 9.92693 15.9862 7.84305 16.54C6.39796 16.924 4.88056 17.0151 3.27562 16.8909C3.71501 17.673 4.25653 18.39 4.8821 19.0239Z" fill="#3A3A47"/>
<path d="M2.39325 14.7861C4.17367 15.0254 5.73449 14.9983 7.14879 14.6531C5.29492 11.8671 4.36396 8.47656 4.71473 5.14978C3.03138 6.93936 2 9.34923 2 12C2 12.9669 2.13722 13.9017 2.39325 14.7861Z" fill="#3A3A47"/>
</svg>
