<svg xmlns="http://www.w3.org/2000/svg" width="24" height="24" viewBox="0 0 24 24">
    <path fill="#686A75" fill-rule="evenodd" d="M6 16l4.537 3.934c.417.138.764.118 1.041-.058.278-.176.419-.476.422-.901l.004-13.678c.017-.576-.124-.953-.422-1.13-.298-.177-.645-.207-1.04-.09L6 8H4c-1.33.007-1.996.674-1.996 2 0 1.765-.004 3.436-.004 4 0 1.325.667 1.996 2 2.013L6 16zm11.398 3.797a1 1 0 0 0 1.4-.189c2.068-2.71 3.206-4.095 3.206-7.582 0-3.486-1.137-4.924-3.202-7.632a1 1 0 1 0-1.59 1.213c1.8 2.36 2.792 3.368 2.792 6.419 0 3.052-.992 4.006-2.795 6.37a.998.998 0 0 0 .189 1.401zm-2.674-3.29c.44.336.816.326 1.402-.187 1.02-.895 1.878-2.532 1.878-4.292 0-1.76-.73-3.238-1.878-4.325-.345-.4-.96-.497-1.399-.162-.439.336-.546 1.095-.189 1.402 1.113.956 1.466 2.083 1.466 3.085 0 1.001-.319 2.001-1.468 3.079-.146.137-.205.394-.205.606 0 .3.136.599.393.795z"/>
</svg>
