<svg width="24" height="24" viewBox="0 0 24 24" fill="none" xmlns="http://www.w3.org/2000/svg">
<path d="M15.9062 4.02592C15.9062 5.1448 14.9898 6.05183 13.8593 6.05183C12.7289 6.05183 11.8125 5.1448 11.8125 4.02592C11.8125 2.90703 12.7289 2 13.8593 2C14.9898 2 15.9062 2.90703 15.9062 4.02592Z" fill="#3A3A47"/>
<path d="M7.50477 16.9357L7.97375 15.2033L9.80889 16.252L9.41725 17.6987C9.40456 17.7456 9.38875 17.7908 9.3701 17.8342C9.3202 17.961 9.24354 18.0798 9.14012 18.1822L5.7961 21.492C5.39644 21.8876 4.74845 21.8876 4.34878 21.492C3.94911 21.0964 3.94911 20.4551 4.34878 20.0595L7.50477 16.9357Z" fill="#3A3A47"/>
<path d="M7.62866 10.6661L9.39188 9.6585L8.61135 12.5417C8.3684 13.4392 8.77398 14.3574 9.54375 14.8089C9.57624 14.8329 9.61053 14.8554 9.64657 14.876L12.8329 16.6968L14.0653 21.249C14.2115 21.7893 14.7727 22.11 15.3187 21.9652C15.8646 21.8204 16.1886 21.265 16.0423 20.7246L14.7021 15.7739C14.669 15.6515 14.6145 15.5403 14.5437 15.4433C14.4608 15.3265 14.3515 15.2253 14.2183 15.1492L12.3576 14.0859C12.4468 13.9341 12.5174 13.7682 12.5655 13.5904L13.3464 10.7058L14.4815 12.6517C14.5193 12.7164 14.5632 12.7755 14.612 12.8285C14.8037 13.0471 15.0881 13.1834 15.4033 13.1779L18.9944 13.1159C19.5596 13.1061 20.0097 12.6447 19.9998 12.0854C19.99 11.526 19.5239 11.0805 18.9587 11.0903L15.9644 11.142L13.6871 7.2379C13.6777 7.22182 13.6679 7.20609 13.6578 7.19072C13.3946 6.7526 12.9651 6.41181 12.4284 6.26946C11.9098 6.13193 11.3843 6.20438 10.9442 6.43417C10.9236 6.44418 10.9032 6.45495 10.883 6.46647L6.37589 9.04208C6.27229 9.10128 6.1831 9.1757 6.10954 9.26084C6.06369 9.31174 6.02237 9.36801 5.98656 9.42939L4.13728 12.5997C3.85467 13.0842 4.02239 13.7037 4.51188 13.9834C5.00137 14.2632 5.62728 14.0972 5.90989 13.6127L7.62866 10.6661Z" fill="#3A3A47"/>
</svg>
