<svg width="24" height="24" viewBox="0 0 24 24" fill="none" xmlns="http://www.w3.org/2000/svg">
<path fill-rule="evenodd" clip-rule="evenodd" d="M1.9998 6.62579V8.51599V9.51599V19.516C1.9998 20.6206 2.89523 21.516 3.9998 21.516H17.9998C19.1044 21.516 19.9998 20.6206 19.9998 19.516V17.1792C21.1823 16.6174 21.9998 15.4122 21.9998 14.016C21.9998 12.6198 21.1823 11.4145 19.9998 10.8528V8.51599C19.9998 7.41142 19.1044 6.51599 17.9998 6.51599H15.9998H4.50174H2.00279C2.00081 6.55238 1.9998 6.58899 1.9998 6.62579ZM18.4998 12.516H17.9998H16.4998C15.6714 12.516 14.9998 13.1876 14.9998 14.016C14.9998 14.8444 15.6714 15.516 16.4998 15.516H18.4998C19.3282 15.516 19.9998 14.8444 19.9998 14.016C19.9998 13.1876 19.3282 12.516 18.4998 12.516Z" fill="#3A3A47"/>
<path d="M17.9998 4.00079C17.9998 2.72401 16.8197 1.77415 15.5724 2.04699L3.57241 4.67199H17.9998V4.00079Z" fill="#3A3A47"/>
</svg>
