<svg xmlns="http://www.w3.org/2000/svg" xmlns:xlink="http://www.w3.org/1999/xlink" width="24" height="24" viewBox="0 0 24 24">
    <defs>
        <path id="a" d="M12.004 20c-.827 0-1.5-.673-1.5-1.5s.673-1.5 1.5-1.5 1.5.673 1.5 1.5-.673 1.5-1.5 1.5zM3 9a.998.998 0 0 1-.607-1.795C5.104 5.138 8.517 4 12.004 4c3.486 0 6.898 1.137 9.606 3.202a1 1 0 1 1-1.213 1.59C18.036 6.991 15.055 6 12.004 6c-3.052 0-6.034.992-8.398 2.795A.989.989 0 0 1 3 9zm2.204 2.584a1 1 0 0 1 .188-1.402c1.861-1.422 4.21-2.205 6.61-2.205 2.398 0 4.745.782 6.606 2.203a1 1 0 1 1-1.214 1.59c-1.515-1.156-3.43-1.793-5.393-1.793-1.964 0-3.88.638-5.396 1.795a.998.998 0 0 1-1.401-.188zM15 14.977a.995.995 0 0 1-.595-.197 4.058 4.058 0 0 0-4.808 0 1 1 0 0 1-1.193-1.606c2.11-1.565 5.083-1.566 7.193 0A1 1 0 0 1 15 14.977z"/>
    </defs>
    <use fill="#686A75" fill-rule="evenodd" xlink:href="#a"/>
</svg>
