<svg width="24" height="24" viewBox="0 0 24 24" fill="none" xmlns="http://www.w3.org/2000/svg">
<path d="M12.004 20C11.177 20 10.504 19.327 10.504 18.5C10.504 17.673 11.177 17 12.004 17C12.831 17 13.504 17.673 13.504 18.5C13.504 19.327 12.831 20 12.004 20ZM3 9C2.79019 9.00134 2.5853 8.93652 2.41444 8.81476C2.24358 8.69299 2.11544 8.52047 2.04823 8.32172C1.98102 8.12297 1.97816 7.90809 2.04005 7.70761C2.10194 7.50714 2.22544 7.33127 2.393 7.205C5.104 5.138 8.517 4 12.004 4C15.49 4 18.902 5.137 21.61 7.202C21.7161 7.28102 21.8055 7.38031 21.8729 7.49412C21.9404 7.60792 21.9846 7.73398 22.003 7.86498C22.0213 7.99599 22.0136 8.12934 21.98 8.25732C21.9465 8.3853 21.888 8.50535 21.8077 8.61053C21.7275 8.71571 21.6272 8.80392 21.5126 8.87006C21.398 8.93619 21.2715 8.97894 21.1402 8.99582C21.009 9.01269 20.8758 9.00337 20.7482 8.96838C20.6206 8.9334 20.5012 8.87345 20.397 8.792C18.036 6.991 15.055 6 12.004 6C8.952 6 5.97 6.992 3.606 8.795C3.43229 8.92858 3.21913 9.00069 3 9ZM5.204 11.584C5.12426 11.4796 5.06586 11.3605 5.03215 11.2336C4.99845 11.1066 4.99008 10.9742 5.00754 10.8441C5.025 10.7139 5.06794 10.5884 5.1339 10.4748C5.19987 10.3612 5.28757 10.2617 5.392 10.182C7.253 8.76 9.602 7.977 12.002 7.977C14.4 7.977 16.747 8.759 18.608 10.18C18.7124 10.2597 18.8001 10.3592 18.866 10.4728C18.932 10.5864 18.9749 10.7119 18.9924 10.8421C19.0098 10.9723 19.0015 11.1046 18.9678 11.2316C18.9341 11.3585 18.8757 11.4776 18.796 11.582C18.7163 11.6864 18.6168 11.7741 18.5032 11.84C18.3896 11.906 18.2641 11.9489 18.1339 11.9664C18.0037 11.9838 17.8714 11.9755 17.7444 11.9418C17.6175 11.9081 17.4984 11.8497 17.394 11.77C15.879 10.614 13.964 9.977 12.001 9.977C10.037 9.977 8.121 10.615 6.605 11.772C6.50074 11.8518 6.38175 11.9103 6.25485 11.9441C6.12795 11.9779 5.99563 11.9863 5.86548 11.9688C5.73533 11.9513 5.6099 11.9083 5.49639 11.8423C5.38288 11.7763 5.28352 11.6885 5.204 11.584ZM15 14.977C14.7856 14.9771 14.5769 14.908 14.405 14.78C13.7082 14.2676 12.8659 13.9913 12.001 13.9913C11.1361 13.9913 10.2938 14.2676 9.597 14.78C9.38403 14.9382 9.11694 15.0053 8.85448 14.9666C8.59203 14.9279 8.3557 14.7865 8.1975 14.5735C8.0393 14.3605 7.97218 14.0934 8.01091 13.831C8.04963 13.5685 8.19103 13.3322 8.404 13.174C10.514 11.609 13.487 11.608 15.597 13.174C15.766 13.2994 15.891 13.4749 15.9545 13.6755C16.0179 13.8761 16.0165 14.0916 15.9503 14.2913C15.8842 14.4911 15.7568 14.6649 15.5861 14.788C15.4155 14.9111 15.2104 14.9772 15 14.977Z" fill="#3A3A47"/>
</svg>
