<svg xmlns="http://www.w3.org/2000/svg" xmlns:xlink="http://www.w3.org/1999/xlink" width="24" height="24" viewBox="0 0 24 24">
    <defs>
        <path id="a" d="M10.004 13c.827 0 1.5.673 1.5 1.5s-.673 1.5-1.5 1.5-1.5-.673-1.5-1.5.673-1.5 1.5-1.5zm3.593-3.826a1 1 0 1 1-1.192 1.606 4.058 4.058 0 0 0-4.808 0 1 1 0 0 1-1.193-1.606c2.11-1.565 5.083-1.566 7.193 0zm-3.595-5.197c2.4 0 4.746.782 6.607 2.203a1 1 0 1 1-1.214 1.59c-1.515-1.156-3.43-1.793-5.393-1.793-1.964 0-3.88.638-5.396 1.795a.998.998 0 0 1-1.213-1.59c1.861-1.422 4.21-2.205 6.61-2.205zM10.004 0c3.486 0 6.898 1.137 9.606 3.202a1 1 0 1 1-1.213 1.59C16.036 2.991 13.055 2 10.004 2c-3.052 0-6.034.992-8.398 2.795a.998.998 0 0 1-1.212-1.59C3.104 1.138 6.517 0 10.004 0z"/>
    </defs>
    <use fill="#3A3A47" fill-rule="evenodd" transform="translate(2 4)" xlink:href="#a"/>
</svg>
