<svg width="24" height="24" viewBox="0 0 24 24" fill="none" xmlns="http://www.w3.org/2000/svg">
<path fill-rule="evenodd" clip-rule="evenodd" d="M21.9998 12C21.9998 17.5228 17.5227 22 11.9998 22C6.47695 22 1.9998 17.5228 1.9998 12C1.9998 6.47715 6.47695 2 11.9998 2C17.5227 2 21.9998 6.47715 21.9998 12ZM12.0684 15.9844C12.9909 15.9501 13.8569 15.5358 14.3485 14.9316C14.697 14.5032 15.3269 14.4385 15.7553 14.787C16.1837 15.1356 16.2484 15.7654 15.8999 16.1938C14.9969 17.3037 13.56 17.9303 12.1427 17.9831C10.7053 18.0365 9.17228 17.5005 8.17016 16.1347C7.84344 15.6894 7.93955 15.0636 8.38483 14.7369C8.8301 14.4102 9.45593 14.5063 9.78265 14.9515C10.3225 15.6873 11.166 16.018 12.0684 15.9844ZM9.86699 11.6875C9.86699 12.2398 9.41927 12.6875 8.86699 12.6875C8.3147 12.6875 7.86699 12.2398 7.86699 11.6875C7.86699 11.1352 8.3147 10.6875 8.86699 10.6875C9.41927 10.6875 9.86699 11.1352 9.86699 11.6875ZM8.6475 8.65538C8.25272 8.77259 7.94929 8.99349 7.82115 9.16419C7.57248 9.49546 7.10235 9.56242 6.77109 9.31375C6.43982 9.06509 6.37286 8.59496 6.62152 8.26369C6.98459 7.78002 7.59123 7.40427 8.22059 7.21742C8.85639 7.02865 9.64543 6.99555 10.3477 7.37793C10.7115 7.57602 10.8458 8.0315 10.6477 8.39528C10.4496 8.75906 9.99412 8.89338 9.63034 8.69529C9.38504 8.56172 9.03585 8.54009 8.6475 8.65538ZM15.6646 12.6293C15.6014 12.5511 15.399 12.4051 15.094 12.3288C14.8002 12.2554 14.5354 12.2781 14.352 12.3728C13.984 12.5629 13.5315 12.4186 13.3415 12.0506C13.1514 11.6826 13.2957 11.2301 13.6637 11.0401C14.2619 10.7312 14.9235 10.7401 15.4576 10.8736C15.9803 11.0042 16.5072 11.2856 16.8311 11.6862C17.0915 12.0083 17.0415 12.4805 16.7194 12.7409C16.3973 13.0014 15.9251 12.9514 15.6646 12.6293ZM15.8209 9.66222C16.2156 9.77943 16.5191 10.0003 16.6472 10.171C16.8959 10.5023 17.366 10.5693 17.6973 10.3206C18.0285 10.0719 18.0955 9.60179 17.8468 9.27053C17.4838 8.78686 16.8771 8.41111 16.2478 8.22426C15.612 8.03549 14.8229 8.00238 14.1207 8.38477C13.7569 8.58285 13.6226 9.03833 13.8207 9.40211C14.0188 9.76589 14.4742 9.90021 14.838 9.70213C15.0833 9.56856 15.4325 9.54692 15.8209 9.66222Z" fill="#3A3A47"/>
</svg>
