<svg width="24" height="24" viewBox="0 0 24 24" fill="none" xmlns="http://www.w3.org/2000/svg">
<path fill-rule="evenodd" clip-rule="evenodd" d="M14.605 13.1941L21.605 20.1921C21.7872 20.3807 21.888 20.6333 21.8857 20.8955C21.8834 21.1577 21.7782 21.4085 21.5928 21.5939C21.4074 21.7793 21.1566 21.8845 20.8944 21.8868C20.6322 21.8891 20.3796 21.7883 20.191 21.6061H20.19L13.193 14.6061C11.7758 15.6663 10.0096 16.1503 8.24991 15.9607C6.49022 15.7711 4.86768 14.9219 3.70887 13.5842C2.55007 12.2464 1.94103 10.5193 2.00434 8.75057C2.06765 6.98183 2.79862 5.30272 4.05011 4.05123C5.3016 2.79974 6.98071 2.06877 8.74945 2.00546C10.5182 1.94215 12.2453 2.55119 13.583 3.71C14.9208 4.8688 15.77 6.49134 15.9596 8.25103C16.1492 10.0107 15.6652 11.7769 14.605 13.1941ZM9 14.0001C10.3261 14.0001 11.5978 13.4733 12.5355 12.5357C13.4732 11.598 14 10.3262 14 9.00012C14 7.67404 13.4732 6.40227 12.5355 5.46459C11.5978 4.5269 10.3261 4.00012 9 4.00012C7.67392 4.00012 6.40215 4.5269 5.46446 5.46459C4.52678 6.40227 4 7.67404 4 9.00012C4 10.3262 4.52678 11.598 5.46446 12.5357C6.40215 13.4733 7.67392 14.0001 9 14.0001Z" fill="#3A3A47"/>
</svg>
