<svg width="24" height="24" viewBox="0 0 24 24" fill="none" xmlns="http://www.w3.org/2000/svg">
<path fill-rule="evenodd" clip-rule="evenodd" d="M14.605 13.194L21.605 20.192C21.7871 20.3806 21.8879 20.6332 21.8857 20.8954C21.8834 21.1576 21.7782 21.4084 21.5928 21.5938C21.4074 21.7792 21.1566 21.8844 20.8944 21.8867C20.6322 21.889 20.3796 21.7882 20.191 21.606H20.19L13.193 14.606C11.7758 15.6662 10.0096 16.1502 8.2499 15.9606C6.49021 15.771 4.86767 14.9218 3.70887 13.584C2.55006 12.2463 1.94102 10.5192 2.00433 8.75045C2.06765 6.98171 2.79861 5.3026 4.0501 4.05111C5.3016 2.79962 6.9807 2.06865 8.74944 2.00534C10.5182 1.94203 12.2453 2.55107 13.583 3.70987C14.9208 4.86868 15.7699 6.49122 15.9596 8.25091C16.1492 10.0106 15.6652 11.7768 14.605 13.194ZM8.99999 14C10.3261 14 11.5978 13.4732 12.5355 12.5355C13.4732 11.5978 14 10.3261 14 9C14 7.67391 13.4732 6.40215 12.5355 5.46446C11.5978 4.52678 10.3261 4 8.99999 4C7.67391 4 6.40214 4.52678 5.46446 5.46446C4.52677 6.40215 3.99999 7.67391 3.99999 9C3.99999 10.3261 4.52677 11.5978 5.46446 12.5355C6.40214 13.4732 7.67391 14 8.99999 14ZM9.99999 7V8H11C11.667 8.005 12 8.338 12 9C12 9.662 11.667 9.993 11 9.993L9.99999 10V11C10.001 11.667 9.66799 12 8.99999 12C8.33199 12 7.99899 11.667 7.99999 11L7.99399 10.017L6.99999 9.993C6.33299 9.993 5.99999 9.66 5.99999 8.993C5.99999 8.327 6.33299 7.995 6.99999 8H7.99999V7C7.99999 6.333 8.33399 6 9.00199 6C9.66999 6 10.002 6.333 9.99999 7Z" fill="#3A3A47"/>
</svg>
