<svg xmlns="http://www.w3.org/2000/svg" width="24" height="24" viewBox="0 0 24 24">
    <path fill="#53595E" fill-rule="evenodd" d="M12.89 11.478l1.936 1.936c.943-.943 1.886-.943 2.828 0l3.829 3.829c.943.942.943 1.885 0 2.828l-1.414 1.414c-.943.943-1.886.943-2.829 0l-3.828-3.828c-.943-.943-.942-1.887.002-2.831-.001.001-.647-.644-1.937-1.936a6 6 0 1 1 1.412-1.412zm1.99 4.744l3.83 3.829 1.414-1.415-3.829-3.828-1.414 1.414zM8 12a4 4 0 1 0 0-8 4 4 0 0 0 0 8zm1-6v1h1c.667.005 1 .338 1 1 0 .662-.333.993-1 .993L9 9v1c.001.667-.332 1-1 1-.668 0-1.001-.333-1-1l-.006-.983L6 8.993c-.667 0-1-.333-1-1 0-.666.333-.998 1-.993h1V6c0-.667.334-1 1.002-1 .668 0 1 .333.998 1z"/>
</svg>
