<?xml version="1.0" encoding="UTF-8"?>
<svg width="195px" height="38px" viewBox="0 0 195 38" version="1.1" xmlns="http://www.w3.org/2000/svg" xmlns:xlink="http://www.w3.org/1999/xlink">
    <!-- Generator: Sketch 53.2 (72643) - https://sketchapp.com -->
    <title>accessibility-focus</title>
    <desc>Created with Sketch.</desc>
    <defs>
        <path d="M5.1277704,-2.07168062e-16 L55.8722296,2.07168062e-16 C57.6552671,-1.2037061e-16 58.3018396,0.185651222 58.9536914,0.534265408 C59.6055433,0.882879593 60.1171204,1.39445674 60.4657346,2.04630859 C60.8143488,2.69816044 61,3.34473292 61,5.1277704 L61,26.8722296 C61,28.6552671 60.8143488,29.3018396 60.4657346,29.9536914 C60.1171204,30.6055433 59.6055433,31.1171204 58.9536914,31.4657346 C58.3018396,31.8143488 57.6552671,32 55.8722296,32 L5.1277704,32 C3.34473292,32 2.69816044,31.8143488 2.04630859,31.4657346 C1.39445674,31.1171204 0.882879593,30.6055433 0.534265408,29.9536914 C0.185651222,29.3018396 8.02470732e-17,28.6552671 -1.38112041e-16,26.8722296 L1.38112041e-16,5.1277704 C-8.02470732e-17,3.34473292 0.185651222,2.69816044 0.534265408,2.04630859 C0.882879593,1.39445674 1.39445674,0.882879593 2.04630859,0.534265408 C2.69816044,0.185651222 3.34473292,1.2037061e-16 5.1277704,-2.07168062e-16 Z" id="path-1"></path>
        <path d="M5.1277704,-2.07168062e-16 L55.8722296,2.07168062e-16 C57.6552671,-1.2037061e-16 58.3018396,0.185651222 58.9536914,0.534265408 C59.6055433,0.882879593 60.1171204,1.39445674 60.4657346,2.04630859 C60.8143488,2.69816044 61,3.34473292 61,5.1277704 L61,26.8722296 C61,28.6552671 60.8143488,29.3018396 60.4657346,29.9536914 C60.1171204,30.6055433 59.6055433,31.1171204 58.9536914,31.4657346 C58.3018396,31.8143488 57.6552671,32 55.8722296,32 L5.1277704,32 C3.34473292,32 2.69816044,31.8143488 2.04630859,31.4657346 C1.39445674,31.1171204 0.882879593,30.6055433 0.534265408,29.9536914 C0.185651222,29.3018396 8.02470732e-17,28.6552671 -1.38112041e-16,26.8722296 L1.38112041e-16,5.1277704 C-8.02470732e-17,3.34473292 0.185651222,2.69816044 0.534265408,2.04630859 C0.882879593,1.39445674 1.39445674,0.882879593 2.04630859,0.534265408 C2.69816044,0.185651222 3.34473292,1.2037061e-16 5.1277704,-2.07168062e-16 Z" id="path-3"></path>
    </defs>
    <g id="Conteúdo-site" stroke="none" stroke-width="1" fill="none" fill-rule="evenodd">
        <g id="Accessibility" transform="translate(-333.000000, -1979.000000)">
            <g id="Focus" transform="translate(336.000000, 1802.000000)">
                <g id="accessibility-focus" transform="translate(0.000000, 180.000000)">
                    <g id="Button-/-Outlined-/-Small-/-Text-/-Focus">
                        <rect id="Focus" stroke="#3491ED" stroke-width="2" x="-2" y="-2" width="65" height="36" rx="6"></rect>
                        <mask id="mask-2" fill="white">
                            <use xlink:href="#path-1"></use>
                        </mask>
                        <use id="Fill" fill="#FFFFFF" fill-rule="evenodd" xlink:href="#path-1"></use>
                        <mask id="mask-4" fill="white">
                            <use xlink:href="#path-3"></use>
                        </mask>
                        <path stroke="#53595E" stroke-width="1" d="M5.1277704,0.5 C3.5776195,0.5 2.94057806,0.623018378 2.28210802,0.975172007 C1.71739041,1.27718629 1.27718629,1.71739041 0.975172007,2.28210802 C0.623018378,2.94057806 0.5,3.5776195 0.5,5.1277704 L0.5,26.8722296 C0.5,28.4223805 0.623018378,29.0594219 0.975172007,29.717892 C1.27718629,30.2826096 1.71739041,30.7228137 2.28210802,31.024828 C2.94057806,31.3769816 3.5776195,31.5 5.1277704,31.5 L55.8722296,31.5 C57.4223805,31.5 58.0594219,31.3769816 58.717892,31.024828 C59.2826096,30.7228137 59.7228137,30.2826096 60.024828,29.717892 C60.3769816,29.0594219 60.5,28.4223805 60.5,26.8722296 L60.5,5.1277704 C60.5,3.5776195 60.3769816,2.94057806 60.024828,2.28210802 C59.7228137,1.71739041 59.2826096,1.27718629 58.717892,0.975172007 C58.0594219,0.623018378 57.4223805,0.5 55.8722296,0.5 L5.1277704,0.5 Z"></path>
                        <text id="✏️-Label" font-family="IBMPlexSans-Bold, IBM Plex Sans" font-size="14" font-weight="bold" line-spacing="20" fill="#53595E">
                            <tspan x="8.177" y="20">Button</tspan>
                        </text>
                    </g>
                    <g id="Checkbox-/-Text" transform="translate(85.000000, 6.000000)">
                        <text id="✏️-Label" font-family="IBMPlexSans, IBM Plex Sans" font-size="13" font-weight="normal" line-spacing="19.5" fill="#2D343B">
                            <tspan x="24" y="13">Checkbox text</tspan>
                        </text>
                        <g id="Checkbox-/-Off-Focus" transform="translate(0.000000, 2.000000)">
                            <rect id="Focus" stroke="#3491ED" stroke-width="2" x="-2" y="-2" width="20" height="20" rx="4"></rect>
                            <rect id="Fill" fill="#FFFFFF" fill-rule="evenodd" x="0" y="0" width="16" height="16" rx="2"></rect>
                            <rect id="Border" stroke="#818489" stroke-width="1" x="0.5" y="0.5" width="15" height="15" rx="2"></rect>
                        </g>
                    </g>
                </g>
            </g>
        </g>
    </g>
</svg>