<?xml version="1.0" encoding="UTF-8"?>
<svg width="457px" height="188px" viewBox="0 0 457 188" version="1.1" xmlns="http://www.w3.org/2000/svg" xmlns:xlink="http://www.w3.org/1999/xlink">
    <!-- Generator: Sketch 53.2 (72643) - https://sketchapp.com -->
    <title>Slice</title>
    <desc>Created with Sketch.</desc>
    <g id="Home" stroke="none" stroke-width="1" fill="none" fill-rule="evenodd">
        <g id="accessibility-contrast" transform="translate(0.000000, 8.000000)">
            <g id="Tag-/-Default" transform="translate(22.000000, 72.000000)">
                <g id="Fill" fill="#DCDCE0">
                    <path d="M2.5638852,-1.03584031e-16 L60.4361148,1.03584031e-16 C61.3276335,-6.01853049e-17 61.6509198,0.0928256111 61.9768457,0.267132704 C62.3027716,0.441439796 62.5585602,0.697228371 62.7328673,1.0231543 C62.9071744,1.34908022 63,1.67236646 63,2.5638852 L63,21.4361148 C63,22.3276335 62.9071744,22.6509198 62.7328673,22.9768457 C62.5585602,23.3027716 62.3027716,23.5585602 61.9768457,23.7328673 C61.6509198,23.9071744 61.3276335,24 60.4361148,24 L2.5638852,24 C1.67236646,24 1.34908022,23.9071744 1.0231543,23.7328673 C0.697228371,23.5585602 0.441439796,23.3027716 0.267132704,22.9768457 C0.0928256111,22.6509198 4.01235366e-17,22.3276335 -6.90560205e-17,21.4361148 L6.90560205e-17,2.5638852 C-4.01235366e-17,1.67236646 0.0928256111,1.34908022 0.267132704,1.0231543 C0.441439796,0.697228371 0.697228371,0.441439796 1.0231543,0.267132704 C1.34908022,0.0928256111 1.67236646,6.01853049e-17 2.5638852,-1.03584031e-16 Z" id="path-1"></path>
                </g>
                <g id="✏️-Label" transform="translate(4.000000, 2.000000)" fill="#2D343B" font-family="IBMPlexSans-Bold, IBM Plex Sans" font-size="13" font-weight="bold">
                    <text id="Tag-label">
                        <tspan x="0" y="13">Tag label</tspan>
                    </text>
                </g>
            </g>
            <g id="Tag-/-Default" transform="translate(287.000000, 72.000000)">
                <g id="Fill" fill="#F2F2F7">
                    <path d="M2.5638852,-1.03584031e-16 L60.4361148,1.03584031e-16 C61.3276335,-6.01853049e-17 61.6509198,0.0928256111 61.9768457,0.267132704 C62.3027716,0.441439796 62.5585602,0.697228371 62.7328673,1.0231543 C62.9071744,1.34908022 63,1.67236646 63,2.5638852 L63,21.4361148 C63,22.3276335 62.9071744,22.6509198 62.7328673,22.9768457 C62.5585602,23.3027716 62.3027716,23.5585602 61.9768457,23.7328673 C61.6509198,23.9071744 61.3276335,24 60.4361148,24 L2.5638852,24 C1.67236646,24 1.34908022,23.9071744 1.0231543,23.7328673 C0.697228371,23.5585602 0.441439796,23.3027716 0.267132704,22.9768457 C0.0928256111,22.6509198 4.01235366e-17,22.3276335 -6.90560205e-17,21.4361148 L6.90560205e-17,2.5638852 C-4.01235366e-17,1.67236646 0.0928256111,1.34908022 0.267132704,1.0231543 C0.441439796,0.697228371 0.697228371,0.441439796 1.0231543,0.267132704 C1.34908022,0.0928256111 1.67236646,6.01853049e-17 2.5638852,-1.03584031e-16 Z" id="path-3"></path>
                </g>
                <g id="✏️-Label" transform="translate(4.000000, 2.000000)" fill="#B9B9BD" font-family="IBMPlexSans-Bold, IBM Plex Sans" font-size="13" font-weight="bold">
                    <text id="Tag-label">
                        <tspan x="0.096" y="13">Tag label</tspan>
                    </text>
                </g>
            </g>
            <text id="AA-passed-9.22:1" fill="#2D343B" font-family="IBMPlexSans, IBM Plex Sans" font-size="13" font-weight="normal">
                <tspan x="0" y="57">AA passed 9.22:1</tspan>
            </text>
            <text id="AA-passed-5.42:1" fill="#2D343B" font-family="IBMPlexSans, IBM Plex Sans" font-size="13" font-weight="normal">
                <tspan x="0" y="133">AA passed 5.42:1</tspan>
            </text>
            <text id="AA-failed-1.75:1" fill="#2D343B" font-family="IBMPlexSans, IBM Plex Sans" font-size="13" font-weight="normal">
                <tspan x="265" y="57">AA failed 1.75:1</tspan>
            </text>
            <text id="AA-failed-1.86:1" fill="#2D343B" font-family="IBMPlexSans, IBM Plex Sans" font-size="13" font-weight="normal">
                <tspan x="265" y="133">AA failed 1.86:1</tspan>
            </text>
            <text id="Do" fill="#2D343B" font-family="IBMPlexSans-Bold, IBM Plex Sans" font-size="13" font-weight="bold">
                <tspan x="0" y="13">Do</tspan>
            </text>
            <text id="Don’t" fill="#2D343B" font-family="IBMPlexSans-Bold, IBM Plex Sans" font-size="13" font-weight="bold">
                <tspan x="265" y="13">Don’t</tspan>
            </text>
            <path d="M5.68434189e-14,28 L451,28" id="Line-5" stroke="#DCDCE0" stroke-linecap="square"></path>
            <g id="Button-/-Contained-/-Small-/-Text-/-Default" transform="translate(21.000000, 148.000000)">
                <g id="Fill" fill="#0A67D1">
                    <path d="M5.1277704,-2.07168062e-16 L55.8722296,2.07168062e-16 C57.6552671,-1.2037061e-16 58.3018396,0.185651222 58.9536914,0.534265408 C59.6055433,0.882879593 60.1171204,1.39445674 60.4657346,2.04630859 C60.8143488,2.69816044 61,3.34473292 61,5.1277704 L61,26.8722296 C61,28.6552671 60.8143488,29.3018396 60.4657346,29.9536914 C60.1171204,30.6055433 59.6055433,31.1171204 58.9536914,31.4657346 C58.3018396,31.8143488 57.6552671,32 55.8722296,32 L5.1277704,32 C3.34473292,32 2.69816044,31.8143488 2.04630859,31.4657346 C1.39445674,31.1171204 0.882879593,30.6055433 0.534265408,29.9536914 C0.185651222,29.3018396 8.02470732e-17,28.6552671 -1.38112041e-16,26.8722296 L1.38112041e-16,5.1277704 C-8.02470732e-17,3.34473292 0.185651222,2.69816044 0.534265408,2.04630859 C0.882879593,1.39445674 1.39445674,0.882879593 2.04630859,0.534265408 C2.69816044,0.185651222 3.34473292,1.2037061e-16 5.1277704,-2.07168062e-16 Z" id="path-5"></path>
                </g>
                <g id="✏️-Label" transform="translate(8.000000, 6.000000)" fill="#FFFFFF" font-family="IBMPlexSans-Bold, IBM Plex Sans" font-size="14" font-weight="bold">
                    <text id="Button">
                        <tspan x="0.177" y="14">Button</tspan>
                    </text>
                </g>
            </g>
            <g id="Button-/-Contained-/-Small-/-Text-/-Default" transform="translate(288.000000, 148.000000)">
                <g id="Fill" fill="#75C6FF">
                    <path d="M5.1277704,-2.07168062e-16 L55.8722296,2.07168062e-16 C57.6552671,-1.2037061e-16 58.3018396,0.185651222 58.9536914,0.534265408 C59.6055433,0.882879593 60.1171204,1.39445674 60.4657346,2.04630859 C60.8143488,2.69816044 61,3.34473292 61,5.1277704 L61,26.8722296 C61,28.6552671 60.8143488,29.3018396 60.4657346,29.9536914 C60.1171204,30.6055433 59.6055433,31.1171204 58.9536914,31.4657346 C58.3018396,31.8143488 57.6552671,32 55.8722296,32 L5.1277704,32 C3.34473292,32 2.69816044,31.8143488 2.04630859,31.4657346 C1.39445674,31.1171204 0.882879593,30.6055433 0.534265408,29.9536914 C0.185651222,29.3018396 8.02470732e-17,28.6552671 -1.38112041e-16,26.8722296 L1.38112041e-16,5.1277704 C-8.02470732e-17,3.34473292 0.185651222,2.69816044 0.534265408,2.04630859 C0.882879593,1.39445674 1.39445674,0.882879593 2.04630859,0.534265408 C2.69816044,0.185651222 3.34473292,1.2037061e-16 5.1277704,-2.07168062e-16 Z" id="path-7"></path>
                </g>
                <g id="✏️-Label" transform="translate(8.000000, 6.000000)" fill="#FFFFFF" font-family="IBMPlexSans-Bold, IBM Plex Sans" font-size="14" font-weight="bold">
                    <text id="Button">
                        <tspan x="0.177" y="14">Button</tspan>
                    </text>
                </g>
            </g>
        </g>
    </g>
</svg>