<?xml version="1.0" encoding="UTF-8"?>
<svg width="720px" height="152px" viewBox="0 0 720 152" version="1.1" xmlns="http://www.w3.org/2000/svg" xmlns:xlink="http://www.w3.org/1999/xlink">
    <!-- Generator: Sketch 53.2 (72643) - https://sketchapp.com -->
    <title>Group 4 Copy</title>
    <desc>Created with Sketch.</desc>
    <g id="Pages" stroke="none" stroke-width="1" fill="none" fill-rule="evenodd">
        <g id="Images---Light" transform="translate(-1352.000000, -148.000000)">
            <g id="Group-4-Copy" transform="translate(1352.000000, 148.000000)">
                <path d="M648,0 L716,0 C718.209139,-4.05812251e-16 720,1.790861 720,4 L720,68 C720,70.209139 718.209139,72 716,72 L648,72 L648,0 Z" id="Rectangle-Copy-219" fill="#171B1F"></path>
                <g id="Group-3" transform="translate(360.000000, 116.000000) scale(-1, 1) translate(-360.000000, -116.000000) translate(0.000000, 80.000000)">
                    <path d="M648,0 L716,0 C718.209139,-4.05812251e-16 720,1.790861 720,4 L720,68 C720,70.209139 718.209139,72 716,72 L648,72 L648,0 Z" id="Rectangle-Copy-229" fill="#171B1F"></path>
                    <polygon id="Rectangle-Copy-230" fill="#2D343B" points="576 0 648 0 648 72 576 72"></polygon>
                    <polygon id="Rectangle-Copy-231" fill="#41484F" points="504 0 576 0 576 72 504 72"></polygon>
                    <polygon id="Rectangle-Copy-232" fill="#53595E" points="432 0 504 0 504 72 432 72"></polygon>
                    <polygon id="Rectangle-Copy-233" fill="#676C70" points="360 0 432 0 432 72 360 72"></polygon>
                    <polygon id="Rectangle-Copy-234" fill="#818489" points="288 0 360 0 360 72 288 72"></polygon>
                    <polygon id="Rectangle-Copy-235" fill="#B9B9BD" points="216 0 288 0 288 72 216 72"></polygon>
                    <polygon id="Rectangle-Copy-236" fill="#DCDCE0" points="144 0 216 0 216 72 144 72"></polygon>
                    <polygon id="Rectangle-Copy-237" fill="#F2F2F7" points="72 0 144 0 144 72 72 72"></polygon>
                    <path d="M71.5,71.5 L71.5,0.5 L4,0.5 C2.06700338,0.5 0.5,2.06700338 0.5,4 L0.5,68 C0.5,69.9329966 2.06700338,71.5 4,71.5 L71.5,71.5 Z" id="Rectangle-Copy-238" stroke="#F2F2F7"></path>
                </g>
                <polygon id="Rectangle-Copy-220" fill="#2D343B" points="576 0 648 0 648 72 576 72"></polygon>
                <polygon id="Rectangle-Copy-221" fill="#41484F" points="504 0 576 0 576 72 504 72"></polygon>
                <polygon id="Rectangle-Copy-222" fill="#53595E" points="432 0 504 0 504 72 432 72"></polygon>
                <polygon id="Rectangle-Copy-223" fill="#676C70" points="360 0 432 0 432 72 360 72"></polygon>
                <polygon id="Rectangle-Copy-224" fill="#818489" points="288 0 360 0 360 72 288 72"></polygon>
                <polygon id="Rectangle-Copy-225" fill="#B9B9BD" points="216 0 288 0 288 72 216 72"></polygon>
                <polygon id="Rectangle-Copy-226" fill="#DCDCE0" points="144 0 216 0 216 72 144 72"></polygon>
                <polygon id="Rectangle-Copy-227" fill="#F2F2F7" points="72 0 144 0 144 72 72 72"></polygon>
                <path d="M71.5,71.7302158 L71.5,0.730215827 L4,0.730215827 C2.06700338,0.730215827 0.5,2.2972192 0.5,4.23021583 L0.5,68.2302158 C0.5,70.1632125 2.06700338,71.7302158 4,71.7302158 L71.5,71.7302158 Z" id="Rectangle-Copy-228" stroke="#F2F2F7"></path>
            </g>
        </g>
    </g>
</svg>