<?xml version="1.0" encoding="UTF-8"?>
<svg width="24px" height="24px" viewBox="0 0 24 24" version="1.1" xmlns="http://www.w3.org/2000/svg" xmlns:xlink="http://www.w3.org/1999/xlink">
    <!-- Generator: Sketch 55.1 (78136) - https://sketchapp.com -->
    <title>Instagram</title>
    <desc>Created with Sketch.</desc>
    <g id="Pages" stroke="none" stroke-width="1" fill="none" fill-rule="evenodd">
        <g id="Home-(Dark)" transform="translate(-1127.000000, -703.000000)" fill="#FFFFFF" fill-rule="nonzero">
            <g id="Group-4" transform="translate(288.000000, 676.000000)">
                <g id="instagram" transform="translate(839.000000, 27.000000)">
                    <path d="M14.1818182,12 C14.1818182,13.2050093 13.2050093,14.1818182 12,14.1818182 C10.7949907,14.1818182 9.81818182,13.2050093 9.81818182,12 C9.81818182,10.7949907 10.7949907,9.81818182 12,9.81818182 C13.2050093,9.81818182 14.1818182,10.7949907 14.1818182,12 Z M17.1866934,8.07601225 C17.2779222,8.31044904 17.3863006,8.66281144 17.4158262,9.31149066 C17.447827,10.0130331 17.4545455,10.2234251 17.4545455,12.0000884 C17.4545455,13.7765749 17.447827,13.9869669 17.4158262,14.6886861 C17.3861238,15.3373653 17.2777454,15.689551 17.1866934,15.9239878 C16.9628646,16.5042454 16.5042454,16.9628646 15.9239878,17.1866934 C15.689551,17.2779222 15.3371886,17.3863006 14.6885093,17.4158262 C13.9871437,17.4478271 13.7767517,17.4545455 11.9999116,17.4545455 C10.2232483,17.4545455 10.0130331,17.4478271 9.31149066,17.4158262 C8.66281144,17.3863006 8.31044904,17.2779222 8.0760122,17.1866934 C7.78694418,17.0800831 7.52563379,16.9100014 7.3109986,16.6890014 C7.08999857,16.4743662 6.92009377,16.2130558 6.81330657,15.9239878 C6.72225455,15.689551 6.61387616,15.3373653 6.58435055,14.6886861 C6.55234976,13.9869669 6.54545455,13.7765749 6.54545455,12.0000884 C6.54545455,10.2234251 6.55234976,10.0130331 6.58435055,9.31149066 C6.61387616,8.66281144 6.72225455,8.31044904 6.81330657,8.07601225 C6.92009377,7.78694422 7.09017536,7.52563379 7.31117539,7.3109986 C7.52563379,7.08999857 7.78712101,6.91991699 8.07618904,6.81330657 C8.31044904,6.72225455 8.66281144,6.61387616 9.31149066,6.58417376 C10.0130331,6.55217297 10.2234251,6.54545455 12.0000884,6.54545455 C13.7765749,6.54545455 13.9869669,6.55234976 14.6886861,6.58435055 C15.3373653,6.61387616 15.689551,6.72225455 15.9239878,6.81330657 C16.2130558,6.91991699 16.4743662,7.08999857 16.6890014,7.3109986 C16.9100014,7.52563379 17.080083,7.78712101 17.1866934,8.07601225 Z M12.0000884,15.416395 C13.8868981,15.416395 15.4165718,13.8868981 15.4165718,11.9999116 C15.4165718,10.1129251 13.8868981,8.58342825 12.0000884,8.58342825 C10.1131019,8.58342825 8.58342825,10.1129251 8.58342825,11.9999116 C8.58342825,13.8868981 10.1131019,15.416395 12.0000884,15.416395 Z M15.551647,9.24678188 C15.9925862,9.24678188 16.349899,8.88929229 16.3500758,8.44835304 C16.3500758,8.0074138 15.9925862,7.64992421 15.551647,7.64992421 C15.1107077,7.64992421 14.7532181,8.0074138 14.7532181,8.44835304 C14.7532181,8.88929229 15.1107077,9.24678188 15.551647,9.24678188 Z M12,0 C18.6264038,0 24,5.3735962 24,12 C24,18.6264038 18.6264038,24 12,24 C5.3735962,24 0,18.6264038 0,12 C0,5.3735962 5.3735962,0 12,0 Z M18.84906,14.8408814 C18.8827515,14.1060791 18.890625,13.8713379 18.890625,12 C18.890625,10.1286621 18.8827515,9.89392088 18.8492432,9.15911864 C18.8157349,8.42559816 18.6992798,7.92480469 18.5288086,7.48645022 C18.355957,7.02667238 18.0845947,6.61029052 17.7341309,6.26605223 C17.3898926,5.91540525 16.9733276,5.64404297 16.5135498,5.47100831 C16.0751953,5.30090334 15.5744018,5.18444822 14.8408814,5.15112305 C14.1060791,5.11743164 13.8713379,5.109375 12,5.109375 C10.1286621,5.109375 9.89392087,5.11743164 9.15911864,5.15093995 C8.42559816,5.18444822 7.92480469,5.30090334 7.48645022,5.47119141 C7.02667238,5.64422606 6.61010742,5.91540525 6.26605223,6.26605223 C5.91540525,6.61010742 5.64404297,7.02667238 5.47100831,7.48645022 C5.3007202,7.92480469 5.18426513,8.42559816 5.15093995,9.15911864 C5.11724855,9.89392088 5.109375,10.1286621 5.109375,12 C5.109375,13.8713379 5.11724855,14.1060791 5.15112305,14.8410645 C5.18444822,15.5744018 5.30108644,16.0753784 5.4713745,16.5135498 C5.64440916,16.9733276 5.91558839,17.3898926 6.26605223,17.7339478 C6.61029052,18.0845948 7.02667238,18.3557739 7.48663331,18.5288086 C7.92480469,18.6990967 8.42578125,18.8155518 9.15911864,18.84906 C9.89410402,18.8825684 10.1286621,18.890625 12.0001831,18.890625 C13.871521,18.890625 14.1062622,18.8825684 14.8410645,18.84906 C15.5744018,18.8155518 16.0753784,18.6990967 16.5135498,18.5288086 C17.4391479,18.1708374 18.1708374,17.4391479 18.5288086,16.5135498 C18.6990967,16.0751953 18.8157349,15.5744018 18.84906,14.8408814 Z" id="Combined-Shape"></path>
                </g>
            </g>
        </g>
    </g>
</svg>