<?xml version="1.0" encoding="UTF-8"?>
<svg width="299px" height="32px" viewBox="0 0 299 32" version="1.1" xmlns="http://www.w3.org/2000/svg" xmlns:xlink="http://www.w3.org/1999/xlink">
    <!-- Generator: Sketch 53.2 (72643) - https://sketchapp.com -->
    <title>accessibility-assistivetech</title>
    <desc>Created with Sketch.</desc>
    <defs>
        <path d="M5.1277704,-2.07168062e-16 L55.8722296,2.07168062e-16 C57.6552671,-1.2037061e-16 58.3018396,0.185651222 58.9536914,0.534265408 C59.6055433,0.882879593 60.1171204,1.39445674 60.4657346,2.04630859 C60.8143488,2.69816044 61,3.34473292 61,5.1277704 L61,26.8722296 C61,28.6552671 60.8143488,29.3018396 60.4657346,29.9536914 C60.1171204,30.6055433 59.6055433,31.1171204 58.9536914,31.4657346 C58.3018396,31.8143488 57.6552671,32 55.8722296,32 L5.1277704,32 C3.34473292,32 2.69816044,31.8143488 2.04630859,31.4657346 C1.39445674,31.1171204 0.882879593,30.6055433 0.534265408,29.9536914 C0.185651222,29.3018396 8.02470732e-17,28.6552671 -1.38112041e-16,26.8722296 L1.38112041e-16,5.1277704 C-8.02470732e-17,3.34473292 0.185651222,2.69816044 0.534265408,2.04630859 C0.882879593,1.39445674 1.39445674,0.882879593 2.04630859,0.534265408 C2.69816044,0.185651222 3.34473292,1.2037061e-16 5.1277704,-2.07168062e-16 Z" id="path-1"></path>
    </defs>
    <g id="Pages" stroke="none" stroke-width="1" fill="none" fill-rule="evenodd">
        <g id="Images---Dark" transform="translate(-1449.000000, -1622.000000)">
            <g id="accessibility-assistivetech" transform="translate(1449.000000, 1622.000000)">
                <g id="Button-/-Contained-/-Small-/-Text-/-Disabled-Copy" transform="translate(238.000000, 0.000000)">
                    <mask id="mask-2" fill="white">
                        <use xlink:href="#path-1"></use>
                    </mask>
                    <use id="Fill" fill="#074FB3" xlink:href="#path-1"></use>
                    <text id="âœï¸-Label" font-family="IBMPlexSans-Bold, IBM Plex Sans" font-size="14" font-weight="bold" line-spacing="20" fill="#171B1F">
                        <tspan x="8.177" y="20">Button</tspan>
                    </text>
                </g>
                <g id="Input-/-Search-/-Default--">
                    <g id="*-/-Surface-/-Interactive-/-Disabled">
                        <rect id="Fill" fill="#2D343B" fill-rule="evenodd" x="0" y="0" width="222" height="32" rx="2"></rect>
                        <rect id="Border" stroke="#41484F" stroke-width="1" x="0.5" y="0.5" width="221" height="31" rx="2"></rect>
                    </g>
                    <g id="*-/-Field-and-Input-/-Action" transform="translate(191.000000, 1.000000)">
                        <rect id="Fill" fill="#2D343B" x="0" y="0" width="30" height="30" rx="2"></rect>
                        <g id="Icon-/-Zoom-/-Zoom-Outline" transform="translate(3.000000, 3.000000)" fill="#41484F">
                            <path d="M12.8897509,11.477934 L14.8260304,13.4142136 C15.7688395,12.4714045 16.7116485,12.4714045 17.6544575,13.4142136 L21.4828847,17.2426407 C22.4256937,18.1854497 22.4256937,19.1282588 21.4828847,20.0710678 C20.0686711,21.4852814 21.4828847,20.0710678 20.0686711,21.4852814 C19.1258621,22.4280904 18.183053,22.4280904 17.240244,21.4852814 L13.4118169,17.6568542 C12.4690078,16.7140452 12.469824,15.77042 13.4142654,14.8259786 C13.4128035,14.8274405 12.7672016,14.1821439 11.4774597,12.8900889 C10.4964702,13.5889506 9.29623796,14 8,14 C4.6862915,14 2,11.3137085 2,8 C2,4.6862915 4.6862915,2 8,2 C11.3137085,2 14,4.6862915 14,8 C14,9.2964469 13.5888181,10.4968571 12.8897509,11.477934 Z M14.8809148,16.2221725 L18.7093419,20.0505996 L20.1235554,18.636386 L16.2951283,14.8079589 L14.8809148,16.2221725 Z M8,12 C10.209139,12 12,10.209139 12,8 C12,5.790861 10.209139,4 8,4 C5.790861,4 4,5.790861 4,8 C4,10.209139 5.790861,12 8,12 Z" id="ðŸŽ¨-Color"></path>
                        </g>
                    </g>
                </g>
            </g>
        </g>
    </g>
</svg>