<?xml version="1.0" encoding="UTF-8"?>
<svg width="82px" height="33px" viewBox="0 0 82 33" version="1.1" xmlns="http://www.w3.org/2000/svg" xmlns:xlink="http://www.w3.org/1999/xlink">
    <!-- Generator: Sketch 55.2 (78181) - https://sketchapp.com -->
    <title>Aplicações_Logo-15</title>
    <desc>Created with Sketch.</desc>
    <g id="Pages" stroke="none" stroke-width="1" fill="none" fill-rule="evenodd">
        <g id="Home-(Dark)" transform="translate(-506.000000, -700.000000)" fill="#FFFFFF">
            <g id="Group-4" transform="translate(288.000000, 676.000000)">
                <g id="Group-2" transform="translate(48.000000, 24.000000)">
                    <g id="Aplicações_Logo-15" transform="translate(170.000000, 6.000000)">
                        <path d="M3.52,7.22857143 C4.21142857,6.28571429 5.28,5.72 6.38,5.72 C9.30285714,5.72 10.56,8.01428571 10.56,11.6914286 C10.56,15.1485714 8.98857143,17.6942857 6.06571429,17.6942857 C4.93428571,17.6942857 3.96,17.2228571 3.3,16.3114286 L3.14285714,17.3171429 L0.125714286,17.3171429 L0.125714286,1.60285714 L3.52,1.25714286 L3.52,7.22857143 Z M7.04,11.6914286 C7.04,8.89428571 6.34857143,8.17142857 5.28,8.17142857 C4.55714286,8.17142857 3.99142857,8.64285714 3.48857143,9.46 L3.48857143,14.1742857 C3.89714286,14.8342857 4.4,15.18 5.09142857,15.18 C6.31714286,15.2114286 7.04,14.2057143 7.04,11.6914286 Z" id="Shape"></path>
                        <path d="M20.7742857,17.3171429 L12.2257143,17.3171429 L12.2257143,15.0228571 L14.5514286,15.0228571 L14.5514286,8.39142857 L12.2257143,8.39142857 L12.2257143,6.09714286 L17.5685714,6.09714286 L17.8514286,8.20285714 C18.3542857,6.69428571 19.58,5.78285714 20.9314286,5.78285714 C21.4971429,5.78285714 21.8428571,5.84571429 22.3142857,5.97142857 L21.78,9.24 C21.3714286,9.11428571 20.9628571,9.08285714 20.4914286,9.08285714 C19.1085714,9.08285714 18.3228571,10.2142857 17.9457143,11.6914286 L17.9457143,15.0228571 L20.8057143,15.0228571 L20.8057143,17.3171429 L20.7742857,17.3171429 Z" id="Path"></path>
                        <polygon id="Path" points="33.7228571 17.3171429 24.2942857 17.3171429 24.2942857 14.9914286 27.4685714 14.9914286 27.4685714 8.39142857 24.42 8.39142857 24.42 6.06571429 30.8628571 6.06571429 30.8628571 14.9914286 33.7228571 14.9914286"></polygon>
                        <path d="M27.1542857,2.07428571 C27.1542857,1.00571429 28.0028571,0.157142857 29.1657143,0.157142857 C30.3285714,0.157142857 31.1771429,0.974285714 31.1771429,2.07428571 C31.1771429,3.14285714 30.3285714,3.99142857 29.1657143,3.99142857 C28.0028571,3.99142857 27.1542857,3.14285714 27.1542857,2.07428571 Z" id="Path"></path>
                        <path d="M41.4857143,6.72571429 L41.4857143,1.25714286 L44.88,1.60285714 L44.88,17.2857143 L41.8628571,17.2857143 L41.7057143,16.06 C41.0771429,16.94 40.0714286,17.6314286 38.5942857,17.6314286 C35.7971429,17.6314286 34.4771429,15.2428571 34.4771429,11.6285714 C34.4771429,8.17142857 36.2057143,5.65714286 38.9714286,5.65714286 C39.9457143,5.68857143 40.7942857,6.06571429 41.4857143,6.72571429 Z M37.9342857,11.6914286 C37.9342857,14.4571429 38.6571429,15.2114286 39.6628571,15.2114286 C40.3857143,15.2114286 40.9828571,14.74 41.4542857,13.9228571 L41.4542857,9.08285714 C40.9828571,8.51714286 40.5114286,8.17142857 39.82,8.17142857 C38.72,8.17142857 37.9342857,9.17714286 37.9342857,11.6914286 Z" id="Shape"></path>
                        <path d="M49.6257143,18.04 C49.5314286,18.26 49.4685714,18.48 49.4685714,18.7314286 C49.4685714,19.36 50.16,19.7371429 51.9514286,19.7371429 C54.12,19.7371429 54.56,19.2657143 54.56,18.6685714 C54.56,18.0085714 54.0885714,17.6628571 52.0142857,17.5371429 C48.5885714,17.3171429 47.6457143,16.5314286 47.6457143,15.0542857 C47.6457143,14.3 48.1171429,13.64 48.8714286,13.1371429 C47.6771429,12.4457143 46.8914286,11.3457143 46.8914286,9.83714286 C46.8914286,7.35428571 48.7771429,5.68857143 51.92,5.68857143 C54.34,5.68857143 56.0685714,4.99714286 57.3885714,4.24285714 L58.2057143,6.75714286 C57.3885714,7.10285714 56.2571429,7.16571429 54.9685714,7.16571429 L54.9685714,7.26 C56.2257143,7.79428571 56.98,8.67428571 56.98,10.0885714 C56.98,12.2571429 55.1257143,13.8285714 52.1714286,13.8285714 C51.7314286,13.8285714 51.2285714,13.7971429 50.7885714,13.6714286 C50.6314286,13.8285714 50.5371429,14.0171429 50.5371429,14.1742857 C50.5371429,14.6457143 50.82,14.8342857 53.6485714,15.0228571 C56.4771429,15.2114286 57.9857143,16.4685714 57.9857143,18.4171429 C57.9857143,20.7742857 55.6914286,22 51.9828571,22 C47.9285714,22 46.4514286,20.7114286 46.4514286,19.14 C46.4514286,18.48 46.5457143,17.9771429 47.0485714,17.4114286 L49.6257143,18.04 Z M52.1085714,11.6285714 C53.1457143,11.6285714 53.7742857,10.9685714 53.7742857,9.74285714 C53.7742857,8.58 53.1771429,7.98285714 52.1085714,7.98285714 C51.04,7.98285714 50.3171429,8.67428571 50.3171429,9.77428571 C50.3171429,10.9685714 51.04,11.6285714 52.1085714,11.6285714 Z" id="Shape"></path>
                        <path d="M62.3857143,12.6657143 C62.6057143,14.4885714 63.6428571,15.2114286 65.0571429,15.2114286 C66,15.2114286 66.9114286,14.9285714 67.8857143,14.2057143 L69.3,16.1228571 C68.2,17.0028571 66.6285714,17.6628571 64.8057143,17.6628571 C60.8771429,17.6628571 58.9285714,15.18 58.9285714,11.6914286 C58.9285714,8.36 60.8771429,5.68857143 64.3971429,5.68857143 C67.6342857,5.68857143 69.74,7.82571429 69.74,11.4714286 C69.74,11.8485714 69.7085714,12.3514286 69.6771429,12.6657143 L62.3857143,12.6657143 L62.3857143,12.6657143 Z M62.3228571,10.6542857 L66.4085714,10.6542857 C66.3771429,9.08285714 65.8428571,7.98285714 64.3971429,7.98285714 C63.2342857,7.95142857 62.48,8.76857143 62.3228571,10.6542857 Z" id="Shape"></path>
                        <polygon id="Path" points="69.6457143 21.2457143 69.6457143 18.6057143 81.1485714 18.6057143 81.1485714 21.2457143"></polygon>
                    </g>
                </g>
            </g>
        </g>
    </g>
</svg>