<?xml version="1.0" encoding="UTF-8"?>
<svg width="195px" height="38px" viewBox="0 0 195 38" version="1.1" xmlns="http://www.w3.org/2000/svg" xmlns:xlink="http://www.w3.org/1999/xlink">
    <!-- Generator: Sketch 53.2 (72643) - https://sketchapp.com -->
    <title>accessibility-focus</title>
    <desc>Created with Sketch.</desc>
    <defs>
        <path d="M8.1277704,3 L58.8722296,3 C60.6552671,3 61.3018396,3.18565122 61.9536914,3.53426541 C62.6055433,3.88287959 63.1171204,4.39445674 63.4657346,5.04630859 C63.8143488,5.69816044 64,6.34473292 64,8.1277704 L64,29.8722296 C64,31.6552671 63.8143488,32.3018396 63.4657346,32.9536914 C63.1171204,33.6055433 62.6055433,34.1171204 61.9536914,34.4657346 C61.3018396,34.8143488 60.6552671,35 58.8722296,35 L8.1277704,35 C6.34473292,35 5.69816044,34.8143488 5.04630859,34.4657346 C4.39445674,34.1171204 3.88287959,33.6055433 3.53426541,32.9536914 C3.18565122,32.3018396 3,31.6552671 3,29.8722296 L3,8.1277704 C3,6.34473292 3.18565122,5.69816044 3.53426541,5.04630859 C3.88287959,4.39445674 4.39445674,3.88287959 5.04630859,3.53426541 C5.69816044,3.18565122 6.34473292,3 8.1277704,3 Z" id="path-1"></path>
        <path d="M8.1277704,3 L58.8722296,3 C60.6552671,3 61.3018396,3.18565122 61.9536914,3.53426541 C62.6055433,3.88287959 63.1171204,4.39445674 63.4657346,5.04630859 C63.8143488,5.69816044 64,6.34473292 64,8.1277704 L64,29.8722296 C64,31.6552671 63.8143488,32.3018396 63.4657346,32.9536914 C63.1171204,33.6055433 62.6055433,34.1171204 61.9536914,34.4657346 C61.3018396,34.8143488 60.6552671,35 58.8722296,35 L8.1277704,35 C6.34473292,35 5.69816044,34.8143488 5.04630859,34.4657346 C4.39445674,34.1171204 3.88287959,33.6055433 3.53426541,32.9536914 C3.18565122,32.3018396 3,31.6552671 3,29.8722296 L3,8.1277704 C3,6.34473292 3.18565122,5.69816044 3.53426541,5.04630859 C3.88287959,4.39445674 4.39445674,3.88287959 5.04630859,3.53426541 C5.69816044,3.18565122 6.34473292,3 8.1277704,3 Z" id="path-3"></path>
    </defs>
    <g id="Pages" stroke="none" stroke-width="1" fill="none" fill-rule="evenodd">
        <g id="Images---Dark" transform="translate(-1168.000000, -1622.000000)">
            <g id="accessibility-focus" transform="translate(1168.000000, 1622.000000)">
                <g id="Button-/-Contained-/-Small-/-Text-/-Disabled">
                    <rect id="Focus" stroke="#1079E3" stroke-width="2" x="1" y="1" width="65" height="36" rx="6"></rect>
                    <mask id="mask-2" fill="white">
                        <use xlink:href="#path-1"></use>
                    </mask>
                    <use id="Fill" fill="#171B1F" xlink:href="#path-1"></use>
                    <mask id="mask-4" fill="white">
                        <use xlink:href="#path-3"></use>
                    </mask>
                    <path stroke="#B9B9BD" d="M8.1277704,3.5 C6.5776195,3.5 5.94057806,3.62301838 5.28210802,3.97517201 C4.71739041,4.27718629 4.27718629,4.71739041 3.97517201,5.28210802 C3.62301838,5.94057806 3.5,6.5776195 3.5,8.1277704 L3.5,29.8722296 C3.5,31.4223805 3.62301838,32.0594219 3.97517201,32.717892 C4.27718629,33.2826096 4.71739041,33.7228137 5.28210802,34.024828 C5.94057806,34.3769816 6.5776195,34.5 8.1277704,34.5 L58.8722296,34.5 C60.4223805,34.5 61.0594219,34.3769816 61.717892,34.024828 C62.2826096,33.7228137 62.7228137,33.2826096 63.024828,32.717892 C63.3769816,32.0594219 63.5,31.4223805 63.5,29.8722296 L63.5,8.1277704 C63.5,6.5776195 63.3769816,5.94057806 63.024828,5.28210802 C62.7228137,4.71739041 62.2826096,4.27718629 61.717892,3.97517201 C61.0594219,3.62301838 60.4223805,3.5 58.8722296,3.5 L8.1277704,3.5 Z"></path>
                    <text id="✏️-Label" font-family="IBMPlexSans-Bold, IBM Plex Sans" font-size="14" font-weight="bold" line-spacing="20" fill="#B9B9BD">
                        <tspan x="11.177" y="23">Button</tspan>
                    </text>
                </g>
                <g id="Checkbox-/-Text" transform="translate(88.000000, 9.000000)">
                    <text id="✏️-Label" font-family="IBMPlexSans, IBM Plex Sans" font-size="13" font-weight="normal" line-spacing="19.5" fill="#F2F2F7">
                        <tspan x="24" y="13">Checkbox text</tspan>
                    </text>
                    <g id="Checkbox-/-Off-Focus" transform="translate(0.000000, 2.000000)">
                        <rect id="Focus" stroke="#1079E3" stroke-width="2" x="-2" y="-2" width="20" height="20" rx="4"></rect>
                        <rect id="Fill" fill="#171B1F" fill-rule="evenodd" x="0" y="0" width="16" height="16" rx="2"></rect>
                        <rect id="Border" stroke="#676C70" stroke-width="1" x="0.5" y="0.5" width="15" height="15" rx="2"></rect>
                    </g>
                </g>
            </g>
        </g>
    </g>
</svg>