<?xml version="1.0" encoding="UTF-8"?>
<svg width="288px" height="115px" viewBox="0 0 288 115" version="1.1" xmlns="http://www.w3.org/2000/svg" xmlns:xlink="http://www.w3.org/1999/xlink">
    <!-- Generator: Sketch 53.2 (72643) - https://sketchapp.com -->
    <title>Live area</title>
    <desc>Created with Sketch.</desc>
    <g id="Pages" stroke="none" stroke-width="1" fill="none" fill-rule="evenodd">
        <g id="Images---Dark" transform="translate(-243.000000, -831.000000)">
            <g id="Live-area" transform="translate(243.000000, 826.000000)">
                <g id="Group-2">
                    <polygon id="Fill-1" fill="#171B1F" points="224 91.84 288 91.84 288 28 224 28"></polygon>
                    <polygon id="Fill-3" fill="#0A67D1" points="229.333333 86.6666667 282.666667 86.6666667 282.666667 33.3333333 229.333333 33.3333333"></polygon>
                    <path d="M229.333333,86.6666667 L282.666667,86.6666667 L282.666667,33.3333333 L229.333333,33.3333333 L229.333333,86.6666667 Z M234.666667,81.3333333 L277.333333,81.3333333 L277.333333,38.6666667 L234.666667,38.6666667 L234.666667,81.3333333 Z M240,76 L272,76 L272,44 L240,44 L240,76 Z M256,76 C264.837333,76 272,68.8373333 272,60 C272,51.1626667 264.837333,44 256,44 C247.162667,44 240,51.1626667 240,60 C240,68.8373333 247.162667,76 256,76 Z M256,70.6666667 C261.890667,70.6666667 266.666667,65.8906667 266.666667,60 C266.666667,54.1093333 261.890667,49.3333333 256,49.3333333 C250.109333,49.3333333 245.333333,54.1093333 245.333333,60 C245.333333,65.8906667 250.109333,70.6666667 256,70.6666667 Z M256,65.3333333 C258.946667,65.3333333 261.333333,62.9466667 261.333333,60 C261.333333,57.0533333 258.946667,54.6666667 256,54.6666667 C253.053333,54.6666667 250.666667,57.0533333 250.666667,60 C250.666667,62.9466667 253.053333,65.3333333 256,65.3333333 Z M256,86.6666667 C270.728,86.6666667 282.666667,74.728 282.666667,60 C282.666667,45.272 270.728,33.3333333 256,33.3333333 C241.272,33.3333333 229.333333,45.272 229.333333,60 C229.333333,74.728 241.272,86.6666667 256,86.6666667 Z" id="Stroke-5" stroke="#B6E4FF" stroke-width="0.2"></path>
                    <polygon id="Fill-1" fill="#074FB3" points="112 91.84 176 91.84 176 28 112 28"></polygon>
                    <polygon id="Fill-3" fill="#171B1F" points="117.333333 86.6666667 170.666667 86.6666667 170.666667 33.3333333 117.333333 33.3333333"></polygon>
                    <path d="M117.333333,86.6666667 L170.666667,86.6666667 L170.666667,33.3333333 L117.333333,33.3333333 L117.333333,86.6666667 Z M122.666667,81.3333333 L165.333333,81.3333333 L165.333333,38.6666667 L122.666667,38.6666667 L122.666667,81.3333333 Z M128,76 L160,76 L160,44 L128,44 L128,76 Z M144,76 C152.837333,76 160,68.8373333 160,60 C160,51.1626667 152.837333,44 144,44 C135.162667,44 128,51.1626667 128,60 C128,68.8373333 135.162667,76 144,76 Z M144,70.6666667 C149.890667,70.6666667 154.666667,65.8906667 154.666667,60 C154.666667,54.1093333 149.890667,49.3333333 144,49.3333333 C138.109333,49.3333333 133.333333,54.1093333 133.333333,60 C133.333333,65.8906667 138.109333,70.6666667 144,70.6666667 Z M144,65.3333333 C146.946667,65.3333333 149.333333,62.9466667 149.333333,60 C149.333333,57.0533333 146.946667,54.6666667 144,54.6666667 C141.053333,54.6666667 138.666667,57.0533333 138.666667,60 C138.666667,62.9466667 141.053333,65.3333333 144,65.3333333 Z M144,86.6666667 C158.728,86.6666667 170.666667,74.728 170.666667,60 C170.666667,45.272 158.728,33.3333333 144,33.3333333 C129.272,33.3333333 117.333333,45.272 117.333333,60 C117.333333,74.728 129.272,86.6666667 144,86.6666667 Z" id="Stroke-5" stroke="#B6E4FF" stroke-width="0.2"></path>
                    <polygon id="Fill-1" fill="#074FB3" points="0 91.84 64 91.84 64 28 0 28"></polygon>
                    <path d="M5,86.3333333 L58.3333333,86.3333333 L58.3333333,33 L5,33 L5,86.3333333 Z M10.3333333,81 L53,81 L53,38.3333333 L10.3333333,38.3333333 L10.3333333,81 Z M15.6666667,75.6666667 L47.6666667,75.6666667 L47.6666667,43.6666667 L15.6666667,43.6666667 L15.6666667,75.6666667 Z M31.6666667,75.6666667 C40.504,75.6666667 47.6666667,68.504 47.6666667,59.6666667 C47.6666667,50.8293333 40.504,43.6666667 31.6666667,43.6666667 C22.8293333,43.6666667 15.6666667,50.8293333 15.6666667,59.6666667 C15.6666667,68.504 22.8293333,75.6666667 31.6666667,75.6666667 Z M31.6666667,70.3333333 C37.5573333,70.3333333 42.3333333,65.5573333 42.3333333,59.6666667 C42.3333333,53.776 37.5573333,49 31.6666667,49 C25.776,49 21,53.776 21,59.6666667 C21,65.5573333 25.776,70.3333333 31.6666667,70.3333333 Z M31.6666667,65 C34.6133333,65 37,62.6133333 37,59.6666667 C37,56.72 34.6133333,54.3333333 31.6666667,54.3333333 C28.72,54.3333333 26.3333333,56.72 26.3333333,59.6666667 C26.3333333,62.6133333 28.72,65 31.6666667,65 Z M31.6666667,86.3333333 C46.3946667,86.3333333 58.3333333,74.3946667 58.3333333,59.6666667 C58.3333333,44.9386667 46.3946667,33 31.6666667,33 C16.9386667,33 5,44.9386667 5,59.6666667 C5,74.3946667 16.9386667,86.3333333 31.6666667,86.3333333 Z" id="Stroke-3" stroke="#B6E4FF" stroke-width="0.2"></path>
                    <text id="24x24-px" font-family="IBMPlexSans, IBM Plex Sans" font-size="13" font-weight="normal" line-spacing="19.5" fill="#75C6FF">
                        <tspan x="0" y="113">24x24 px</tspan>
                    </text>
                    <text id="2px" font-family="IBMPlexSans, IBM Plex Sans" font-size="13" font-weight="normal" line-spacing="19.5" fill="#75C6FF">
                        <tspan x="112" y="115">2px</tspan>
                    </text>
                    <text id="20px" font-family="IBMPlexSans, IBM Plex Sans" font-size="13" font-weight="normal" line-spacing="19.5" fill="#75C6FF">
                        <tspan x="224" y="113">20px</tspan>
                    </text>
                    <text id="Canvas-size" font-family="IBMPlexSans, IBM Plex Sans" font-size="13" font-weight="normal" line-spacing="19.5" fill="#F2F2F7">
                        <tspan x="0.2325" y="13">Canvas size</tspan>
                    </text>
                    <text id="Padding" font-family="IBMPlexSans, IBM Plex Sans" font-size="13" font-weight="normal" line-spacing="19.5" fill="#F2F2F7">
                        <tspan x="112.366" y="13">Padding</tspan>
                    </text>
                    <text id="Live-area" font-family="IBMPlexSans, IBM Plex Sans" font-size="13" font-weight="normal" line-spacing="19.5" fill="#F2F2F7">
                        <tspan x="224.0065" y="13">Live area</tspan>
                    </text>
                </g>
            </g>
        </g>
    </g>
</svg>