<?xml version="1.0" encoding="UTF-8"?>
<svg width="225px" height="32px" viewBox="0 0 225 32" version="1.1" xmlns="http://www.w3.org/2000/svg" xmlns:xlink="http://www.w3.org/1999/xlink">
    <!-- Generator: Sketch 53.2 (72643) - https://sketchapp.com -->
    <title>Group 5</title>
    <desc>Created with Sketch.</desc>
    <defs>
        <path d="M5.1277704,-2.07168062e-16 L34.8722296,2.07168062e-16 C36.6552671,-1.2037061e-16 37.3018396,0.185651222 37.9536914,0.534265408 C38.6055433,0.882879593 39.1171204,1.39445674 39.4657346,2.04630859 C39.8143488,2.69816044 40,3.34473292 40,5.1277704 L40,26.8722296 C40,28.6552671 39.8143488,29.3018396 39.4657346,29.9536914 C39.1171204,30.6055433 38.6055433,31.1171204 37.9536914,31.4657346 C37.3018396,31.8143488 36.6552671,32 34.8722296,32 L5.1277704,32 C3.34473292,32 2.69816044,31.8143488 2.04630859,31.4657346 C1.39445674,31.1171204 0.882879593,30.6055433 0.534265408,29.9536914 C0.185651222,29.3018396 8.02470732e-17,28.6552671 -1.38112041e-16,26.8722296 L1.38112041e-16,5.1277704 C-8.02470732e-17,3.34473292 0.185651222,2.69816044 0.534265408,2.04630859 C0.882879593,1.39445674 1.39445674,0.882879593 2.04630859,0.534265408 C2.69816044,0.185651222 3.34473292,1.2037061e-16 5.1277704,-2.07168062e-16 Z" id="path-1"></path>
        <path d="M1.16666667,7 C1.16666667,3.77825 3.77825,1.16666667 7,1.16666667 C10.22175,1.16666667 12.8333333,3.77825 12.8333333,7 C12.8333333,10.2211667 10.22175,12.8333333 7,12.8333333 C3.77825,12.8333333 1.16666667,10.2211667 1.16666667,7 Z M8.92165885,4.83752104 L5.8341378,7.92504209 L4.49581229,6.58671658 C4.26800645,6.35891074 3.89866021,6.35891074 3.67085438,6.58671658 C3.44304854,6.81452241 3.44304854,7.18386865 3.67085438,7.41167449 L5.42165885,9.16247896 C5.64946468,9.39028479 6.01881092,9.39028479 6.24661676,9.16247896 L9.74661676,5.66247896 C9.97442259,5.43467312 9.97442259,5.06532688 9.74661676,4.83752104 C9.51881092,4.60971521 9.14946468,4.60971521 8.92165885,4.83752104 Z" id="path-3"></path>
    </defs>
    <g id="Conteúdo-site" stroke="none" stroke-width="1" fill="none" fill-rule="evenodd">
        <g id="Iconography---Usage" transform="translate(-336.000000, -932.000000)">
            <g id="Size-and-weight" transform="translate(336.000000, 750.000000)">
                <g id="Group-4" transform="translate(0.000000, 182.000000)">
                    <g id="Group-5">
                        <g id="Button-/-Outlined-(Only-border)-/-Small-/-Icon-/-Default--">
                            <mask id="mask-2" fill="white">
                                <use xlink:href="#path-1"></use>
                            </mask>
                            <path stroke="#0A67D1" stroke-width="1" d="M5.1277704,0.5 C3.5776195,0.5 2.94057806,0.623018378 2.28210802,0.975172007 C1.71739041,1.27718629 1.27718629,1.71739041 0.975172007,2.28210802 C0.623018378,2.94057806 0.5,3.5776195 0.5,5.1277704 L0.5,26.8722296 C0.5,28.4223805 0.623018378,29.0594219 0.975172007,29.717892 C1.27718629,30.2826096 1.71739041,30.7228137 2.28210802,31.024828 C2.94057806,31.3769816 3.5776195,31.5 5.1277704,31.5 L34.8722296,31.5 C36.4223805,31.5 37.0594219,31.3769816 37.717892,31.024828 C38.2826096,30.7228137 38.7228137,30.2826096 39.024828,29.717892 C39.3769816,29.0594219 39.5,28.4223805 39.5,26.8722296 L39.5,5.1277704 C39.5,3.5776195 39.3769816,2.94057806 39.024828,2.28210802 C38.7228137,1.71739041 38.2826096,1.27718629 37.717892,0.975172007 C37.0594219,0.623018378 36.4223805,0.5 34.8722296,0.5 L5.1277704,0.5 Z"></path>
                            <g id="Icon-/-Adjust-/-Adjust" mask="url(#mask-2)" fill="#0A67D1" fill-rule="evenodd">
                                <g transform="translate(8.000000, 4.000000)" id="🎨-Color">
                                    <path d="M16.0010108,12 C14.1407281,12 12.5770492,10.7300877 12.1295826,9.00987156 C12.1295826,9.00329982 9.75257647,9.00329982 4.99856417,9.00987156 C4.33189011,9.01501694 3.99903609,8.68132469 4.0000021,8.00879482 C4.00096811,7.33626494 4.33478445,7 5.00145111,7 C9.74872205,7.01221875 12.1223575,7.01832812 12.1223575,7.01832812 C12.5599933,5.28380888 14.1305773,4 16.0010108,4 C18.2101498,4 20.0010108,5.790861 20.0010108,8 C20.0010108,10.209139 18.2101498,12 16.0010108,12 Z M8,12 C9.86028276,12 11.4239616,13.2699123 11.8714282,14.9901284 C11.8714282,14.9967002 14.2484344,14.9967002 19.0024467,14.9901284 C19.6691207,14.9849831 20.0019748,15.3186753 20.0010088,15.9912052 C20.0000427,16.6637351 19.6662264,17 18.9995597,17 C14.2522888,16.9877813 11.8786533,16.9816719 11.8786533,16.9816719 C11.4410175,18.7161911 9.87043358,20 8,20 C5.790861,20 4,18.209139 4,16 C4,13.790861 5.790861,12 8,12 Z M16.0010108,10 C17.1055803,10 18.0010108,9.1045695 18.0010108,8 C18.0010108,6.8954305 17.1055803,6 16.0010108,6 C14.8964413,6 14.0010108,6.8954305 14.0010108,8 C14.0010108,9.1045695 14.8964413,10 16.0010108,10 Z M8.00101085,18 C9.10558035,18 10.0010108,17.1045695 10.0010108,16 C10.0010108,14.8954305 9.10558035,14 8.00101085,14 C6.89644135,14 6.00101085,14.8954305 6.00101085,16 C6.00101085,17.1045695 6.89644135,18 8.00101085,18 Z"></path>
                                </g>
                            </g>
                        </g>
                        <text id="40px" font-family="IBMPlexSans, IBM Plex Sans" font-size="16" font-weight="normal" line-spacing="19.5" fill="#2D343B">
                            <tspan x="48" y="21">40px</tspan>
                        </text>
                        <text id="Glyph-icon" font-family="IBMPlexSans, IBM Plex Sans" font-size="16" font-weight="normal" line-spacing="19.5" fill="#2D343B">
                            <tspan x="150" y="21">Glyph icon</tspan>
                        </text>
                        <g id="Icon-/-Alert-/-Check-/-Check-Circle-Filled" transform="translate(127.000000, 9.000000)">
                            <mask id="mask-4" fill="white">
                                <use xlink:href="#path-3"></use>
                            </mask>
                            <use id="🎨-Color" fill="#0A67D1" fill-rule="evenodd" xlink:href="#path-3"></use>
                        </g>
                    </g>
                </g>
            </g>
        </g>
    </g>
</svg>