<svg xmlns="http://www.w3.org/2000/svg" width="24" height="24" viewBox="0 0 24 24">
    <g fill="none" fill-rule="nonzero">
        <circle cx="11.81" cy="12.02" r="11.81" fill="#007AB9"/>
        <path fill="#F1F2F2" d="M18.867 12.97v4.87h-2.823v-4.543c0-1.14-.408-1.92-1.43-1.92-.78 0-1.243.525-1.448 1.033-.074.181-.094.433-.094.688v4.742H10.25s.038-7.694 0-8.49h2.824v1.202l-.02.028h.02v-.028c.375-.577 1.044-1.402 2.544-1.402 1.857 0 3.25 1.213 3.25 3.82zM7.296 5.258c-.966 0-1.597.634-1.597 1.466 0 .816.613 1.468 1.56 1.468h.018c.985 0 1.597-.652 1.597-1.468-.019-.832-.612-1.466-1.578-1.466zM5.866 17.84h2.822V9.35H5.866v8.49z"/>
    </g>
</svg>
