<?xml version="1.0" encoding="UTF-8"?>
<svg width="400px" height="87px" viewBox="0 0 400 87" version="1.1" xmlns="http://www.w3.org/2000/svg" xmlns:xlink="http://www.w3.org/1999/xlink">
    <!-- Generator: Sketch 53.2 (72643) - https://sketchapp.com -->
    <title>Keyline shapes export</title>
    <desc>Created with Sketch.</desc>
    <defs>
        <path d="M26.6666667,53.3333333 C11.9386667,53.3333333 0,41.3946667 0,26.6666667 C0,11.9386667 11.9386667,0 26.6666667,0 C41.3946667,0 53.3333333,11.9386667 53.3333333,26.6666667 C53.3333333,41.3946667 41.3946667,53.3333333 26.6666667,53.3333333 Z" id="path-1"></path>
    </defs>
    <g id="Pages" stroke="none" stroke-width="1" fill="none" fill-rule="evenodd">
        <g id="Images---Light" transform="translate(-903.000000, -831.000000)">
            <g id="Keyline-shapes-export" transform="translate(903.000000, 826.000000)">
                <g id="Horizontal" transform="translate(336.000000, 28.000000)">
                    <polygon id="Fill-1" fill="#B6E4FF" points="0 63.84 64 63.84 64 0 0 0"></polygon>
                    <polygon id="Fill-3" fill="#FFFFFF" points="5.33333333 53.3333333 58.6666667 53.3333333 58.6666667 10.6666667 5.33333333 10.6666667"></polygon>
                    <path d="M5.33333333,58.6666667 L58.6666667,58.6666667 L58.6666667,5.33333333 L5.33333333,5.33333333 L5.33333333,58.6666667 Z M10.6666667,53.3333333 L53.3333333,53.3333333 L53.3333333,10.6666667 L10.6666667,10.6666667 L10.6666667,53.3333333 Z M16,48 L48,48 L48,16 L16,16 L16,48 Z M16,32 C16,40.8373333 23.1626667,48 32,48 C40.8373333,48 48,40.8373333 48,32 C48,23.1626667 40.8373333,16 32,16 C23.1626667,16 16,23.1626667 16,32 Z M21.3333333,32 C21.3333333,37.8906667 26.1093333,42.6666667 32,42.6666667 C37.8906667,42.6666667 42.6666667,37.8906667 42.6666667,32 C42.6666667,26.1093333 37.8906667,21.3333333 32,21.3333333 C26.1093333,21.3333333 21.3333333,26.1093333 21.3333333,32 Z M26.6666667,32 C26.6666667,34.9466667 29.0533333,37.3333333 32,37.3333333 C34.9466667,37.3333333 37.3333333,34.9466667 37.3333333,32 C37.3333333,29.0533333 34.9466667,26.6666667 32,26.6666667 C29.0533333,26.6666667 26.6666667,29.0533333 26.6666667,32 Z M5.33333333,32 C5.33333333,46.728 17.272,58.6666667 32,58.6666667 C46.728,58.6666667 58.6666667,46.728 58.6666667,32 C58.6666667,17.272 46.728,5.33333333 32,5.33333333 C17.272,5.33333333 5.33333333,17.272 5.33333333,32 Z" id="Stroke-5" stroke="#006CD1" stroke-width="0.2"></path>
                </g>
                <g id="Vertical" transform="translate(224.000000, 28.000000)">
                    <polygon id="Fill-1" fill="#B6E4FF" points="0 63.84 64 63.84 64 0 0 0"></polygon>
                    <polygon id="Fill-3" fill="#FFFFFF" points="10.6666667 58.6666667 53.3333333 58.6666667 53.3333333 5.33333333 10.6666667 5.33333333"></polygon>
                    <path d="M5.33333333,58.6666667 L58.6666667,58.6666667 L58.6666667,5.33333333 L5.33333333,5.33333333 L5.33333333,58.6666667 Z M10.6666667,53.3333333 L53.3333333,53.3333333 L53.3333333,10.6666667 L10.6666667,10.6666667 L10.6666667,53.3333333 Z M16,48 L48,48 L48,16 L16,16 L16,48 Z M32,48 C40.8373333,48 48,40.8373333 48,32 C48,23.1626667 40.8373333,16 32,16 C23.1626667,16 16,23.1626667 16,32 C16,40.8373333 23.1626667,48 32,48 Z M32,42.6666667 C37.8906667,42.6666667 42.6666667,37.8906667 42.6666667,32 C42.6666667,26.1093333 37.8906667,21.3333333 32,21.3333333 C26.1093333,21.3333333 21.3333333,26.1093333 21.3333333,32 C21.3333333,37.8906667 26.1093333,42.6666667 32,42.6666667 Z M32,37.3333333 C34.9466667,37.3333333 37.3333333,34.9466667 37.3333333,32 C37.3333333,29.0533333 34.9466667,26.6666667 32,26.6666667 C29.0533333,26.6666667 26.6666667,29.0533333 26.6666667,32 C26.6666667,34.9466667 29.0533333,37.3333333 32,37.3333333 Z M32,58.6666667 C46.728,58.6666667 58.6666667,46.728 58.6666667,32 C58.6666667,17.272 46.728,5.33333333 32,5.33333333 C17.272,5.33333333 5.33333333,17.272 5.33333333,32 C5.33333333,46.728 17.272,58.6666667 32,58.6666667 Z" id="Stroke-5" stroke="#006CD1" stroke-width="0.2"></path>
                </g>
                <g id="Circle" transform="translate(112.000000, 28.000000)">
                    <polygon id="Fill-1" fill="#B6E4FF" points="0 63.84 64 63.84 64 0 0 0"></polygon>
                    <polygon id="Fill-3" fill="#B6E4FF" points="5.33333333 58.6666667 58.6666667 58.6666667 58.6666667 5.33333333 5.33333333 5.33333333"></polygon>
                    <g id="Group-7" transform="translate(5.333333, 5.333333)">
                        <mask id="mask-2" fill="white">
                            <use xlink:href="#path-1"></use>
                        </mask>
                        <g id="Clip-6"></g>
                        <polygon id="Fill-5" fill="#FFFFFF" mask="url(#mask-2)" points="-0.213333333 53.3866667 53.5466667 53.3866667 53.5466667 -0.0533333333 -0.213333333 -0.0533333333"></polygon>
                    </g>
                    <path d="M32,58.6666667 C46.728,58.6666667 58.6666667,46.728 58.6666667,32 C58.6666667,17.272 46.728,5.33333333 32,5.33333333 C17.272,5.33333333 5.33333333,17.272 5.33333333,32 C5.33333333,46.728 17.272,58.6666667 32,58.6666667 Z M5.33333333,58.6666667 L58.6666667,58.6666667 L58.6666667,5.33333333 L5.33333333,5.33333333 L5.33333333,58.6666667 Z M10.6666667,53.3333333 L53.3333333,53.3333333 L53.3333333,10.6666667 L10.6666667,10.6666667 L10.6666667,53.3333333 Z M16,48 L48,48 L48,16 L16,16 L16,48 Z M32,48 C40.8373333,48 48,40.8373333 48,32 C48,23.1626667 40.8373333,16 32,16 C23.1626667,16 16,23.1626667 16,32 C16,40.8373333 23.1626667,48 32,48 Z M32,42.6666667 C37.8906667,42.6666667 42.6666667,37.8906667 42.6666667,32 C42.6666667,26.1093333 37.8906667,21.3333333 32,21.3333333 C26.1093333,21.3333333 21.3333333,26.1093333 21.3333333,32 C21.3333333,37.8906667 26.1093333,42.6666667 32,42.6666667 Z M32,37.3333333 C34.9466667,37.3333333 37.3333333,34.9466667 37.3333333,32 C37.3333333,29.0533333 34.9466667,26.6666667 32,26.6666667 C29.0533333,26.6666667 26.6666667,29.0533333 26.6666667,32 C26.6666667,34.9466667 29.0533333,37.3333333 32,37.3333333 Z" id="Stroke-8" stroke="#006CD1" stroke-width="0.2"></path>
                </g>
                <g id="Square" transform="translate(0.000000, 28.000000)">
                    <polygon id="Fill-1" fill="#B6E4FF" points="0 63.84 64 63.84 64 0 0 0"></polygon>
                    <polygon id="Fill-3" fill="#FFFFFF" points="5.33333333 58.6666667 58.6666667 58.6666667 58.6666667 5.33333333 5.33333333 5.33333333"></polygon>
                    <path d="M5.33333333,58.6666667 L58.6666667,58.6666667 L58.6666667,5.33333333 L5.33333333,5.33333333 L5.33333333,58.6666667 Z M10.6666667,53.3333333 L53.3333333,53.3333333 L53.3333333,10.6666667 L10.6666667,10.6666667 L10.6666667,53.3333333 Z M16,48 L48,48 L48,16 L16,16 L16,48 Z M32,48 C40.8373333,48 48,40.8373333 48,32 C48,23.1626667 40.8373333,16 32,16 C23.1626667,16 16,23.1626667 16,32 C16,40.8373333 23.1626667,48 32,48 Z M32,42.6666667 C37.8906667,42.6666667 42.6666667,37.8906667 42.6666667,32 C42.6666667,26.1093333 37.8906667,21.3333333 32,21.3333333 C26.1093333,21.3333333 21.3333333,26.1093333 21.3333333,32 C21.3333333,37.8906667 26.1093333,42.6666667 32,42.6666667 Z M32,37.3333333 C34.9466667,37.3333333 37.3333333,34.9466667 37.3333333,32 C37.3333333,29.0533333 34.9466667,26.6666667 32,26.6666667 C29.0533333,26.6666667 26.6666667,29.0533333 26.6666667,32 C26.6666667,34.9466667 29.0533333,37.3333333 32,37.3333333 Z M32,58.6666667 C46.728,58.6666667 58.6666667,46.728 58.6666667,32 C58.6666667,17.272 46.728,5.33333333 32,5.33333333 C17.272,5.33333333 5.33333333,17.272 5.33333333,32 C5.33333333,46.728 17.272,58.6666667 32,58.6666667 Z" id="Stroke-5" stroke="#006CD1" stroke-width="0.2"></path>
                </g>
                <text id="Square" font-family="IBMPlexSans, IBM Plex Sans" font-size="13" font-weight="normal" line-spacing="19.5" fill="#2D343B">
                    <tspan x="0" y="13">Square</tspan>
                </text>
                <text id="Circle" font-family="IBMPlexSans, IBM Plex Sans" font-size="13" font-weight="normal" line-spacing="19.5" fill="#2D343B">
                    <tspan x="112" y="13">Circle</tspan>
                </text>
                <text id="Vertical" font-family="IBMPlexSans, IBM Plex Sans" font-size="13" font-weight="normal" line-spacing="19.5" fill="#2D343B">
                    <tspan x="224" y="13">Vertical</tspan>
                </text>
                <text id="Horizontal" font-family="IBMPlexSans, IBM Plex Sans" font-size="13" font-weight="normal" line-spacing="19.5" fill="#2D343B">
                    <tspan x="336" y="13">Horizontal</tspan>
                </text>
            </g>
        </g>
    </g>
</svg>