<?xml version="1.0" encoding="UTF-8"?>
<svg width="24px" height="25px" viewBox="0 0 24 25" version="1.1" xmlns="http://www.w3.org/2000/svg" xmlns:xlink="http://www.w3.org/1999/xlink">
    <!-- Generator: Sketch 55.1 (78136) - https://sketchapp.com -->
    <title>instagram</title>
    <desc>Created with Sketch.</desc>
    <defs>
        <linearGradient x1="50%" y1="99.7089109%" x2="50%" y2="0.776721582%" id="linearGradient-1">
            <stop stop-color="#E09B3D" offset="0%"></stop>
            <stop stop-color="#C74C4D" offset="30%"></stop>
            <stop stop-color="#C21975" offset="60%"></stop>
            <stop stop-color="#7024C4" offset="100%"></stop>
        </linearGradient>
    </defs>
    <g id="Pages" stroke="none" stroke-width="1" fill="none" fill-rule="evenodd">
        <g id="Home" transform="translate(-1127.000000, -702.000000)">
            <g id="Group-4" transform="translate(288.000000, 676.000000)">
                <g id="instagram" transform="translate(839.000000, 27.000000)">
                    <circle id="Oval" fill="url(#linearGradient-1)" cx="12" cy="12" r="12"></circle>
                    <path d="M14.8293245,5 C17.1290193,5 19,6.87095533 19,9.17067549 L19,14.8293245 C19,17.1290447 17.1290447,19 14.8293245,19 L9.17067549,19 C6.87095533,19 5,17.1290447 5,14.8293245 L5,9.17067549 C5,6.87095533 6.87095533,5 9.17067549,5 L14.8293245,5 Z M17.5916005,14.8293245 L17.5916005,9.17067549 C17.5916005,7.64509994 16.3548747,6.40839948 14.8293245,6.40839948 L9.17067549,6.40839948 C7.64512535,6.40839948 6.40839948,7.64509994 6.40839948,9.17067549 L6.40839948,14.8293245 C6.40839948,16.3548747 7.64512535,17.5916005 9.17067549,17.5916005 L14.8293245,17.5916005 C16.3548747,17.5916005 17.5916005,16.3548747 17.5916005,14.8293245 Z M11.6956522,8.04347826 C13.7094641,8.04347826 15.3478261,9.68182037 15.3478261,11.6956394 C15.3478261,13.7094584 13.7094641,15.3478261 11.6956522,15.3478261 C9.68184024,15.3478261 8.04347826,13.7094327 8.04347826,11.6956394 C8.04347826,9.68184599 9.68184024,8.04347826 11.6956522,8.04347826 Z M11.6956522,13.9272821 C12.9281202,13.9272821 13.9272615,12.9281374 13.9272615,11.695665 C13.9272615,10.463167 12.9281459,9.46404787 11.6956522,9.46404787 C10.4631841,9.46404787 9.46404289,10.463167 9.46404289,11.695665 C9.46404289,12.928163 10.4631585,13.9272821 11.6956522,13.9272821 Z M15.6521739,9.26086957 C15.1479139,9.26086957 14.7391304,8.85208608 14.7391304,8.34782609 C14.7391304,7.8435661 15.1479139,7.43478261 15.6521739,7.43478261 C16.1564339,7.43478261 16.5652174,7.8435661 16.5652174,8.34782609 C16.5652174,8.85208608 16.1564339,9.26086957 15.6521739,9.26086957 Z" id="Combined-Shape" fill="#FFFFFF" fill-rule="nonzero"></path>
                </g>
            </g>
        </g>
    </g>
</svg>