<svg xmlns="http://www.w3.org/2000/svg" width="25" height="24" viewBox="0 0 25 24">
    <path fill="#000" fill-rule="nonzero" d="M23.3 6.13a12.325 12.325 0 0 0-4.545-4.464C16.84.569 14.753.02 12.487.02c-2.265 0-4.355.549-6.268 1.646A12.324 12.324 0 0 0 1.675 6.13C.558 8.01 0 10.062 0 12.287c0 2.673.794 5.077 2.382 7.212s3.64 3.612 6.154 4.432c.293.053.51.016.65-.112a.62.62 0 0 0 .211-.479l-.008-.862c-.005-.544-.008-1.017-.008-1.422l-.374.064c-.238.043-.54.061-.902.056a6.995 6.995 0 0 1-1.13-.112 2.547 2.547 0 0 1-1.09-.479 2.028 2.028 0 0 1-.715-.982l-.162-.368a3.98 3.98 0 0 0-.513-.814c-.233-.298-.468-.5-.707-.607l-.114-.08a1.186 1.186 0 0 1-.211-.192.874.874 0 0 1-.146-.223c-.033-.075-.006-.136.081-.184.087-.048.244-.072.472-.072l.325.048c.216.043.485.17.804.383.32.213.583.49.789.83.25.437.55.77.902.999.353.229.708.343 1.065.343.358 0 .667-.026.927-.08.26-.053.504-.133.732-.24.097-.713.363-1.261.796-1.644a11.314 11.314 0 0 1-1.666-.288 6.702 6.702 0 0 1-1.529-.623 4.36 4.36 0 0 1-1.308-1.07c-.347-.426-.632-.985-.854-1.677-.222-.693-.333-1.491-.333-2.396 0-1.289.428-2.385 1.284-3.29-.4-.97-.363-2.056.114-3.259.314-.096.78-.024 1.398.216.618.24 1.07.445 1.358.615.287.17.518.314.691.431a11.74 11.74 0 0 1 3.122-.415c1.073 0 2.114.138 3.122.415l.618-.383a8.82 8.82 0 0 1 1.495-.703c.575-.213 1.014-.272 1.318-.176.487 1.204.53 2.29.13 3.259.856.905 1.284 2.002 1.284 3.29 0 .905-.111 1.706-.333 2.404-.222.697-.51 1.256-.861 1.677a4.53 4.53 0 0 1-1.318 1.062 6.715 6.715 0 0 1-1.528.623c-.493.128-1.049.224-1.667.288.564.479.846 1.235.846 2.268v3.37a.63.63 0 0 0 .203.479c.135.127.35.165.642.111 2.515-.82 4.566-2.297 6.154-4.432 1.588-2.135 2.382-4.538 2.382-7.211 0-2.225-.559-4.278-1.675-6.157z"/>
</svg>
