<svg xmlns="http://www.w3.org/2000/svg" width="82" height="33" viewBox="0 0 82 33">
    <g fill="none" fill-rule="nonzero">
        <path fill="#000" d="M3.52 13.229c.691-.943 1.76-1.509 2.86-1.509 2.923 0 4.18 2.294 4.18 5.971 0 3.458-1.571 6.003-4.494 6.003-1.132 0-2.106-.471-2.766-1.383l-.157 1.006H.126V7.603l3.394-.346v5.972zm3.52 4.462c0-2.797-.691-3.52-1.76-3.52-.723 0-1.289.472-1.791 1.289v4.714c.408.66.911 1.006 1.602 1.006 1.226.031 1.949-.974 1.949-3.489zM20.774 23.317h-8.548v-2.294h2.325V14.39h-2.325v-2.294h5.343l.282 2.106c.503-1.509 1.729-2.42 3.08-2.42.566 0 .912.063 1.383.188l-.534 3.269c-.409-.126-.817-.157-1.289-.157-1.382 0-2.168 1.131-2.545 2.608v3.332h2.86v2.294h-.032zM33.723 23.317h-9.429v-2.326h3.175v-6.6H24.42v-2.325h6.443v8.925h2.86zM27.154 8.074c0-1.068.849-1.917 2.012-1.917s2.011.817 2.011 1.917c0 1.069-.848 1.917-2.011 1.917-1.163 0-2.012-.848-2.012-1.917zM41.486 12.726V7.257l3.394.346v15.683h-3.017l-.157-1.226c-.629.88-1.635 1.571-3.112 1.571-2.797 0-4.117-2.388-4.117-6.002 0-3.458 1.729-5.972 4.494-5.972.975.032 1.823.409 2.515 1.069zm-3.552 4.965c0 2.766.723 3.52 1.729 3.52.723 0 1.32-.471 1.791-1.288v-4.84c-.471-.566-.943-.912-1.634-.912-1.1 0-1.886 1.006-1.886 3.52zM49.626 24.04c-.095.22-.157.44-.157.691 0 .629.691 1.006 2.482 1.006 2.169 0 2.609-.471 2.609-1.068 0-.66-.471-1.006-2.546-1.132-3.425-.22-4.368-1.006-4.368-2.483 0-.754.471-1.414 1.225-1.917-1.194-.691-1.98-1.791-1.98-3.3 0-2.483 1.886-4.148 5.029-4.148 2.42 0 4.149-.692 5.469-1.446l.817 2.514c-.817.346-1.949.409-3.237.409v.094c1.257.534 2.011 1.414 2.011 2.829 0 2.168-1.854 3.74-4.809 3.74-.44 0-.942-.032-1.382-.158-.158.158-.252.346-.252.503 0 .472.283.66 3.112.849 2.828.188 4.337 1.446 4.337 3.394 0 2.357-2.295 3.583-6.003 3.583-4.054 0-5.532-1.289-5.532-2.86 0-.66.095-1.163.598-1.729l2.577.629zm2.483-6.411c1.037 0 1.665-.66 1.665-1.886 0-1.163-.597-1.76-1.665-1.76-1.069 0-1.792.691-1.792 1.791 0 1.195.723 1.855 1.792 1.855zM62.386 18.666c.22 1.823 1.257 2.545 2.671 2.545.943 0 1.854-.282 2.829-1.005l1.414 1.917c-1.1.88-2.671 1.54-4.494 1.54-3.929 0-5.877-2.483-5.877-5.972 0-3.331 1.948-6.002 5.468-6.002 3.237 0 5.343 2.137 5.343 5.782 0 .378-.031.88-.063 1.195h-7.291zm-.063-2.012h4.086c-.032-1.571-.566-2.671-2.012-2.671-1.163-.032-1.917.786-2.074 2.671z"/>
        <path fill="#09F" d="M69.646 27.246v-2.64h11.503v2.64z"/>
    </g>
</svg>
