<?xml version="1.0" encoding="UTF-8"?>
<svg width="88px" height="79px" viewBox="0 0 88 79" version="1.1" xmlns="http://www.w3.org/2000/svg" xmlns:xlink="http://www.w3.org/1999/xlink">
    <!-- Generator: Sketch 53.2 (72643) - https://sketchapp.com -->
    <title>b_</title>
    <desc>Created with Sketch.</desc>
    <g id="Page-1" stroke="none" stroke-width="1" fill="none" fill-rule="evenodd">
        <g id="bold-en" transform="translate(-808.000000, -642.000000)" fill-rule="nonzero">
            <g id="b_" transform="translate(808.208000, 642.244000)">
                <path d="M25.284,17.724 C30.6040266,17.724 34.6919857,19.8099791 37.548,23.982 C40.4040143,28.1540209 41.832,33.9919625 41.832,41.496 C41.832,46.088023 41.1180071,50.1759821 39.69,53.76 C38.2619929,57.3440179 36.2180133,60.1439899 33.558,62.16 C30.8979867,64.1760101 27.7480182,65.184 24.108,65.184 C21.699988,65.184 19.5020099,64.680005 17.514,63.672 C15.5259901,62.663995 13.832007,61.264009 12.432,59.472 L11.76,63.756 L-2.84217094e-13,63.756 L-2.84217094e-13,1.428 L13.272,0 L13.272,23.688 C14.6160067,21.8399908 16.3379895,20.3840053 18.438,19.32 C20.5380105,18.2559947 22.8199877,17.724 25.284,17.724 Z M20.244,55.524 C25.452026,55.524 28.056,50.8480468 28.056,41.496 C28.056,36.1759734 27.4400062,32.5080101 26.208,30.492 C24.9759938,28.4759899 23.1840118,27.468 20.832,27.468 C17.8639852,27.468 15.3440104,29.2039826 13.272,32.676 L13.272,51.24 C14.1120042,52.5840067 15.133994,53.6339962 16.338,54.39 C17.542006,55.1460038 18.843993,55.524 20.244,55.524 Z" id="b" fill="#000000"></path>
                <polygon id="_" fill="#0099FF" points="45.78 78.12 45.78 67.704 87.78 67.704 87.78 78.12"></polygon>
            </g>
        </g>
    </g>
</svg>