<svg xmlns="http://www.w3.org/2000/svg" width="151" height="33" viewBox="0 0 151 33">
    <g fill="none" fill-rule="evenodd">
        <path fill="#FFF" d="M25.068 26.803l.802.273.31.095.33.103.16.057.17.056.16.076.152.075.141.085.142.094.056.048.057.056.056.057.047.066.048.066.037.066.038.075.028.075.02.076.018.094.01.085v.094l2.837 1.5-2.253.65.914 1.98-5.619-2.14-.047-.048-.056-.047-.047-.066-.048-.066-.103-.132-.094-.15-.104-.142-.094-.132-.048-.047-.047-.047-.047-.038-.047-.028-.207-.104-.198-.075-.198-.076-.189-.066-.189-.066-.198-.047-.198-.038-.207-.037-.217-.038-.226-.028-.245-.02-.264-.018-.585-.028-.697-.029-.038.085-.028.085-.029.094-.018.095-.01.094-.01.104v.103l.01.104.02.207.046.217.047.227.066.226.142.452.15.443.076.217.057.217.056.198.038.198-.264.01-.255.028-.245.037-.236.048-.235.047-.245.037-.255.029-.264.019-.066-.415-.075-.424-.038-.208-.057-.207-.047-.208-.066-.198-.075-.207-.085-.189-.094-.188-.104-.18-.122-.169-.142-.16-.066-.076-.085-.075-.085-.066-.084-.076-.01.02-.01.028-.009.047-.01.075-.018.17-.01.198-.009.386-.01.236.067.085.056.075.047.085.048.095.037.084.029.095.018.084.02.095.009.094v.189l-.01.084-.019.095-.018.094-.029.085-.037.085-.038.085-.047.075-.047.085-.057.075-.066.066-.066.066-.066.066-.075.057-.085.047-.085.047-.085.038-.094.028-.095.028-.103.02-.104.018h-.217l-.103-.019-.095-.019-.094-.019-.094-.037-.095-.038-.075-.047-.085-.047-.075-.057-.066-.066-.066-.066-.066-.066-.057-.075-.047-.076-.047-.075-.038-.085-.038-.085-.028-.094-.019-.085-.019-.094-.009-.085-.01-.094.01-.095v-.094l.019-.094.019-.085.028-.094.038-.085.037-.085.057-.085.057-.085.066-.084-.048-1.038-.132.142-.122.15-.104.161-.094.16-.094.17-.076.18-.066.178-.056.189-.057.188-.047.189-.047.188-.038.189-.066.377-.066.377-.141-.01-.142-.009-.132-.009-.132-.019-.245-.057-.235-.056-.246-.057-.245-.047-.122-.019-.132-.018-.132-.01h-.142l.057-.32.047-.321.066-.32.066-.312.085-.31.094-.312.057-.15.066-.152.075-.141.076-.15-.01-.086-.028-.094-.038-.104-.047-.094-.104-.207-.085-.17-.546.019-.538.047-.528.057-.518.075-.264.047-.255.047-.264.047-.254.066-.264.057-.255.075-.264.076-.254.085.01.113-.01.113-.02.113-.027.113-.048.104-.056.094-.076.094-.094.085-.707.274-.716.283-.707.273-.708.283-.707.273-.716.283-.707.283-.707.273.914-1.98L0 30.065l2.828-1.395.01-.16.01-.142.027-.123.048-.122.056-.113.076-.113.084-.104.113-.113.17-.104.18-.094.188-.085.198-.085.396-.16.424-.142.424-.132.425-.113.405-.113.386-.113-.066-.094-.075-.076-.066-.066-.066-.037-.075-.038-.066-.019-.066-.01h-.076l-.32.057-.434.094-.094-.075-.104-.066-.104-.066-.103-.047-.236-.085-.245-.075-.255-.085-.264-.095-.141-.066-.132-.066-.142-.084-.14-.095-.142-.113-.142-.141-.066-.076-.056-.075-.066-.085-.047-.085-.048-.085-.037-.094-.029-.094-.028-.094-.01-.095.01-.094.019-.094.028-.095.029-.037.037-.038.038-.019.057-.019.122-.01h.264l.123-.009.056-.009.047-.028.038-.029.028-.047.01-.019v-.018l-.01-.029-.01-.028-.027-.057-.038-.075-.132-.16-.15-.17-.161-.18-.142-.169-.066-.085-.056-.066-.038-.075-.028-.057-.038-.16-.047-.16-.038-.17-.056-.16-.057-.113-.066-.113-.075-.113-.057-.114-.047-.141-.038-.141L2 21.165l-.047-.141-.038-.113-.038-.114-.01-.028-.009-.028-.019-.019-.018-.019-.066-.01h-.132l-.029-.018-.019-.019-.01-.028-.008-.038.009-.038.01-.037.028-.076.019-.075.009-.076.01-.075.018-.075.01-.066.028-.208.028-.207.029-.198.037-.198.02-.142v-.113l-.01-.113-.02-.104-.075-.188-.084-.189-.038-.103-.028-.104-.029-.123-.01-.132.01-.141.02-.16.046-.18.066-.207.01-.01.01-.009H1.705l.038.02.038.018.047.019.038.019H1.895l.019-.01.01-.01.009-.046.01-.057-.01-.047-.02-.057-.037-.113-.028-.103-.02-.123-.027-.113-.01-.028-.01-.038-.018-.038-.019-.019-.056-.019-.066-.009-.029-.01h-.028l-.019-.018-.019-.02-.01-.027v-.038l.01-.028.02-.038.027-.066.029-.066.019-.076.018-.075.029-.066.019-.075.047-.198.028-.208.028-.103.029-.095.037-.094.057-.085.132-.047.188-.047.038-.028.019-.02.019-.037-.01-.028-.019-.047-.047-.057-.066-.057-.094-.075-.066-.057-.047-.065-.038-.076-.028-.075-.01-.085v-.189l.02-.094.028-.094.028-.104.038-.094.047-.104.094-.189.104-.17.01-.018.018-.01h.047l.047.02.047.028.057.028.057.028.056.028h.076l-.01-.009-.019-.01-.037-.018-.029-.02-.037-.018-.029-.028-.019-.02-.037-.14-.02-.133-.018-.15-.019-.142-.019-.103-.019-.104-.018-.057-.02-.056-.018-.047-.038-.048-.038-.018-.047-.01-.028-.01h-.019l-.01-.009-.009-.019.01-.075.01-.075.018-.066.028-.076.057-.141.047-.151.047-.17.028-.17.029-.084.019-.085.037-.085.038-.075.01-.01H2.507l.019.019.047.028.037.02.057.027.066.038.028.01.029.009.028-.01.019-.009.019-.028v-.066l-.01-.028-.028-.076-.019-.066-.019-.094-.028-.094-.01-.048-.018-.056-.02-.047-.028-.038-.075-.028-.075-.038v-.038l.009-.047.028-.038.02-.047h-.01l.113-.377.188-.67.02-.046.282.122.717.189.414-.01.085.038.076-.5.122-.433.208-.415.292-.405.368-.198.763-.755.98.943-.14.189.018.094.057.198.198.509-.236.622-.066.057.547-.311V7.137h5.524l-.066-.038-.075-.038-.066-.047-.066-.056-.057-.057-.056-.057-.047-.056-.047-.066-.095-.132-.066-.132-.047-.15-.037-.152-.01-.066-.01-.075v-.076l.01-.075v-.075l.019-.066.019-.076.019-.066.028-.066.038-.066.037-.056.048-.057.056-.057.057-.056.056-.047.066-.047.104-.274.094-.283.076-.273.066-.283.018-.15.02-.151.009-.151v-.32l-.01-.17-.019-.17-.028-.18.802.151V2.63l.018-.122.02-.113.028-.114.028-.103.038-.104.037-.094.085-.17.085-.15.075-.123.057-.085.075.028.076.01.085.009h.15l.076-.019.075-.019.076-.019.141-.066.15-.084.142-.095.132-.113.142-.122.132-.132.132-.142.122-.141.245-.283.227-.264.141.255.123.264.113.264.094.282.085.274.066.283.057.282.047.283.179.349.15.33.067.16.066.151.047.16.037.151.038.16.019.16.01.161v.17l-.02.17-.028.188-.037.189-.057.207v.066l.01.057.018.066.029.066.056.122.066.132.085.132.075.132.076.132.066.141.028.066.019.076.019.066.01.075V6.364l-.01.075-.028.066-.029.076-.047.075-.047.075-.066.076-.075.066-.095.075-.103.076-.123.084-.066.029h5.44v2.602l.113.085.094.056.085.038.085.028.179.02.264.008-.066-.103-.057-.095-.047-.094-.037-.103-.038-.095-.028-.103-.029-.095-.019-.103-.018-.095-.01-.103v-.198l.01-.095.018-.094.01-.094.028-.094.028-.095.029-.094.037-.094.048-.085.047-.085.056-.085.057-.085.056-.085.066-.075.076-.075.075-.076.076-.075.085-.066.094-.066.085-.066.103-.057.33.283.33.292.16.16.142.151.141.17.114.17.056.085.047.085.038.094.038.085.028.094.028.094.01.104.01.094v.104l-.01.104-.01.103-.028.113-.038.104-.037.113-.057.123-.066.113.245-.085.217-.066.207-.047.208-.047.207-.047.217-.057.113-.038.113-.047.123-.056.122-.057.029.255.028.245.019.235.01.217-.01.217-.019.226-.047.227-.066.245.82-.038-.066.236-.057.226-.056.217-.047.217-.047.217-.057.216-.066.217-.085.226.076-.037.075-.029.057-.018.047-.01h.085l.066.01.075.018h.075l.057-.009.057-.019.066-.028.084-.038-.084.292-.066.293-.066.283-.057.282-.057.283-.066.283-.084.283-.095.292.132-.047.113-.028.085-.01.076-.01.075-.009.085-.018.104-.029.141-.047-.18.604-.197.584-.094.264-.085.255-.066.226-.047.198-.02.085-.018.075v.123l.01.047.018.038.029.018.037.01.047-.01.057-.018.066-.029.075-.056.095-.057.103-.085.114-.103.132-.114-.123.368-.113.311-.085.255-.085.235-.085.236-.094.264-.123.292-.141.368.104-.019.094-.01.075.01.066.01.048.018.047.029.037.028.038.028.038.029.038.028.047.019.056.028.057.01H29.132l.113-.02-1.085 1.518.048.038.037.057.038.047.038.056.056.123.047.132.048.123.056.122.038.057.038.056.037.047.057.038-.255.283-.198.226-.179.198-.15.189-.16.179-.18.188-.207.208-.274.245.094.028.085.038.085.028.076.038.141.085.132.094.132.094.141.085.076.038.075.038.085.028.094.028-.207.113-.198.123-.198.132-.18.15-.357.293-.34.292-.16.132-.17.123-.17.103-.179.095-.084.028-.095.038-.085.019-.094.028-.094.01h-.198l-.104-.01-1.037-.057-.104.142-.075.122-.047.104-.038.085-.01.066v.056l.01.029.019.018.019.02.019.009.056.028.076.028.094.02.113.027.255.057.32.085zm-8.475-.849h-.01l.02.01.037.01h.226l.236-.01.631-.019.792-.028.443-.01h.915l.462.01.462.019.443.028.415.038.386.056.208-.226.198-.217.188-.236.189-.235-.123-.029-.103-.047-.104-.047-.104-.056-.085-.076-.085-.075-.084-.085-.066-.085-.076-.104-.066-.103-.066-.123-.056-.123-.123-.264-.113-.292-.132.104-.141.094-.142.094-.141.095-.293.17-.31.15-.312.151-.32.132-.32.132-.33.123-.66.245-.651.245-.32.132-.312.141-.311.151-.292.16zm-7.439-2.196l-.066.028-.075.057-.094.075-.085.094-.198.217-.198.236-.189.245-.16.226-.113.18-.066.112-.066.038-.047.038-.02.028-.009.019v.057l.01.056.028.057.038.056.047.057.264.245.236.207.594-.084.603-.066.632-.057.65-.038.66-.019.688-.009h.707l.726.019-.565-.208-.557-.226-.565-.236-.557-.254-.565-.264-.556-.283-.566-.292-.566-.311z"/>
        <path fill="#00478F" d="M38.324 11.671v.142l-.01.132-.019.132-.019.122-.018.123-.029.123-.037.113-.038.113-.047.103-.057.104-.056.094-.057.095-.066.085-.075.084-.076.085-.085.076-.085.075-.094.066-.104.066-.103.057-.104.056-.113.047-.123.048-.122.037-.132.038-.132.028-.142.029-.141.018-.15.02-.152.009-.16.01h-.33l-.16-.01-.151-.01-.15-.019-.142-.018-.142-.029-.132-.028-.132-.038-.122-.037-.123-.048-.113-.047-.104-.056-.103-.057-.104-.066-.094-.066-.085-.075-.085-.076-.075-.085-.076-.084-.066-.085-.056-.095-.057-.094-.057-.104-.037-.103-.047-.113-.029-.113-.028-.123-.028-.113-.02-.132-.008-.132-.01-.132-.01-.142V7.787h1.584V11.737l.02.142.018.132.028.122.038.114.047.103.047.095.066.084.066.076.085.056.095.057.103.047.113.028.123.029.132.01.141.008.151-.009.132-.01.113-.028.113-.028.104-.038.094-.056.085-.057.076-.075.056-.076.057-.094.047-.104.038-.113.028-.122.028-.142.01-.141v-3.96h1.584zM45.319 13.878H43.81L41.227 9.7v4.177h-1.442v-6.09h1.876l2.225 3.487V7.787h1.433zM50.165 13.878H46.6v-1.085h1V8.871h-1V7.787h3.564v1.084h-1v3.922h1zM56.962 7.787l-2.225 6.09h-1.753l-2.216-6.09h1.64l1.471 4.28 1.47-4.28zM62.232 13.878h-4.393v-6.09h4.393v1.178h-2.837v1.046h2.639v1.179h-2.64v1.508h2.838zM66.965 9.654l-.01-.113-.01-.104-.037-.094-.038-.085-.056-.075-.066-.066-.094-.066-.104-.048-.085-.028-.085-.028-.103-.01-.104-.018h-.104l-.122-.01h-.83v1.64h.48l.18-.009h.16l.15-.019.142-.01.123-.027.104-.038.103-.047.095-.057.075-.066.066-.066.047-.075.047-.076.038-.075.019-.104.019-.104v-.122zm2.45 4.224h-1.922l-1.66-2.235h-.716v2.235h-1.565v-6.09h2.63l.264.009.236.01.226.018.208.028.188.038.189.057.084.037.095.038.085.047.084.047.085.047.076.057.075.066.066.066.066.066.066.066.057.075.056.085.047.085.038.085.038.094.028.104.019.104.019.113.01.113V9.626l-.02.15-.028.151-.028.142-.047.132-.057.132-.056.113-.076.113-.085.104-.085.103-.103.095-.104.085-.123.084-.122.085-.132.076-.142.075 2.037 2.612zM74.969 11.964v.113l-.01.104-.018.103-.02.104-.028.104-.028.094-.037.094-.048.094-.047.095-.056.085-.066.084-.066.085-.076.076-.085.075-.085.076-.094.075-.094.066-.104.066-.104.057-.112.056-.114.047-.113.047-.122.038-.132.038-.133.038-.132.028-.14.019-.142.028-.302.019-.32.01-.368-.01-.34-.019-.16-.019-.16-.028-.15-.028-.142-.029-.274-.066-.273-.085-.255-.084-.254-.104v-1.452h.18l.122.094.122.085.132.085.132.075.142.076.141.066.141.056.151.057.15.047.152.047.141.028.151.038.141.02.142.018.141.01H72.263l.094-.01h.094l.114-.019.113-.01.094-.018.095-.02.075-.027.085-.038.085-.047.066-.047.066-.057.019-.028.028-.028.019-.038.019-.038.018-.094.01-.094v-.057l-.01-.047-.018-.047-.02-.038-.018-.047-.028-.038-.038-.038-.038-.037-.094-.066-.114-.066-.132-.047-.16-.048-.17-.037-.178-.038-.189-.038-.189-.037-.188-.038-.179-.047-.18-.047-.17-.048-.178-.066-.18-.075-.15-.075-.15-.076-.133-.094-.113-.085-.104-.104-.094-.103-.075-.113-.076-.114-.056-.122-.048-.132-.038-.132-.018-.142-.019-.15-.01-.16.01-.104.01-.104.009-.094.018-.095.029-.103.037-.085.038-.094.048-.085.046-.085.057-.085.057-.085.075-.075.075-.076.076-.075.085-.066.094-.076.095-.056.103-.066.104-.057.103-.056.114-.047.113-.038.123-.047.112-.028.132-.038.123-.028.132-.02.132-.018.283-.028.292-.01.302.01.292.018.302.038.292.057.283.056.264.076.245.075.226.085v1.395h-.17l-.094-.066-.103-.075-.104-.066-.113-.057-.114-.066-.122-.056-.122-.047-.132-.057-.132-.047-.132-.038-.142-.038-.132-.028-.132-.019-.142-.019-.14-.009h-.236l-.095.01-.094.009-.104.01-.094.018-.094.019-.095.028-.084.038-.085.028-.066.047-.066.048-.057.056-.056.066-.029.066-.028.076-.01.075.01.066.01.047.009.057.02.047.027.047.028.038.038.037.047.038.047.028.066.029.076.037.075.029.198.056.236.057.16.028.17.038.15.028.161.038.16.037.16.038.17.047.17.057.17.056.16.066.15.076.133.075.122.076.113.085.095.094.094.094.075.104.066.113.057.113.047.123.038.132.028.141.019.141zM79.334 13.878H75.77v-1.085h1V8.871h-1V7.787h3.564v1.084h-1v3.922h1zM86.367 10.832l-.01.217-.018.198-.028.198-.048.198-.047.189-.066.179-.085.179-.094.17-.094.16-.104.16-.113.142-.123.132-.122.122-.132.113-.142.104-.15.094-.104.066-.123.066-.113.047-.122.057-.123.038-.132.047-.122.028-.132.028-.283.048-.302.037-.32.02-.359.009h-2.14v-6.09h2.206l.359.009.33.019.16.018.15.02.142.028.141.028.255.075.245.076.104.047.113.047.094.057.094.056.151.094.151.114.132.113.132.132.123.132.103.141.104.15.094.161.085.16.076.18.066.179.047.188.038.198.028.198.019.208.01.216zm-1.622-.009l-.009-.15-.01-.142-.018-.132-.02-.132-.027-.123-.038-.122-.047-.113-.057-.114-.056-.103-.066-.095-.076-.094-.085-.085-.084-.085-.104-.075-.104-.066-.113-.066-.123-.047-.122-.047-.123-.038-.122-.028-.142-.02-.179-.009-.207-.009h-.632v3.809h.396l.264-.01.226-.009.189-.01.141-.028.132-.028.132-.038.123-.056.132-.057.104-.066.094-.075.085-.076.085-.075.075-.085.066-.085.066-.104.047-.094.047-.104.047-.113.029-.122.028-.123.028-.132.01-.132.01-.141.008-.151zM93.183 13.878h-1.621l-.425-1.235h-2.253l-.424 1.235h-1.575l2.244-6.09h1.81l2.244 6.09zM90.76 11.53l-.745-2.187-.754 2.187h1.5zM99.81 10.832l-.009.217-.019.198-.028.198-.047.198-.047.189-.066.179-.085.179-.085.17-.103.16-.104.16-.113.142-.123.132-.122.122-.132.113-.142.104-.141.094-.113.066-.123.066-.113.047-.123.057-.122.038-.123.047-.132.028-.132.028-.283.048-.301.037-.32.02-.36.009h-2.14v-6.09h2.207l.358.009.33.019.16.018.151.02.142.028.141.028.264.075.236.076.103.047.114.047.094.057.094.056.16.094.142.114.132.113.132.132.122.132.104.141.104.15.094.161.085.16.075.18.066.179.047.188.038.198.028.198.02.208.009.216zm-1.62-.009l-.01-.15-.01-.142-.019-.132-.018-.132-.029-.123-.037-.122-.048-.113-.047-.114-.066-.103-.066-.095-.075-.094-.076-.085-.094-.085-.103-.075-.104-.066-.113-.066-.123-.047-.122-.047-.123-.038-.123-.028-.141-.02-.18-.009-.197-.009h-.641v3.809h.396l.264-.01.226-.009.189-.01.15-.028.123-.028.132-.038.123-.056.132-.057.103-.066.094-.075.085-.076.085-.075.076-.085.066-.085.066-.104.047-.094.047-.104.047-.113.028-.122.029-.123.028-.132.01-.132.009-.141.01-.151zM105.41 13.878h-4.402v-6.09h4.403v1.178h-2.847v1.046h2.64v1.179h-2.64v1.508h2.847zM113.943 8.966h-2.8v1.131h2.602v1.178h-2.602v2.603h-1.555v-6.09h4.355zM119.43 13.878h-4.403v-6.09h4.403v1.178h-2.838v1.046h2.63v1.179h-2.63v1.508h2.838zM126.491 10.832v.217l-.019.198-.028.198-.047.198-.057.189-.066.179-.075.179-.094.17-.095.16-.113.16-.113.142-.113.132-.132.122-.132.113-.132.104-.15.094-.114.066-.113.066-.123.047-.113.057-.122.038-.132.047-.123.028-.132.028-.283.048-.301.037-.33.02-.35.009h-2.14v-6.09h2.207l.358.009.33.019.16.018.151.02.142.028.141.028.255.075.235.076.113.047.104.047.104.057.094.056.15.094.152.114.132.113.132.132.113.132.113.141.104.15.094.161.085.16.075.18.057.179.056.188.038.198.028.198.02.208v.216zm-1.621-.009v-.15l-.01-.142-.019-.132-.018-.132-.038-.123-.038-.122-.038-.113-.056-.114-.057-.103-.066-.095-.075-.094-.085-.085-.085-.085-.104-.075-.103-.066-.113-.066-.123-.047-.123-.047-.122-.038-.132-.028-.141-.02-.17-.009-.208-.009h-.631v3.809h.396l.264-.01.226-.009.18-.01.15-.028.132-.028.132-.038.122-.056.123-.057.104-.066.103-.075.085-.076.085-.075.076-.085.066-.085.056-.104.057-.094.047-.104.038-.113.037-.122.029-.123.018-.132.02-.132.009-.141v-.151zM132.091 13.878h-4.402v-6.09h4.402v1.178h-2.838v1.046h2.631v1.179h-2.63v1.508h2.837zM136.824 9.654l-.01-.113-.018-.104-.028-.094-.038-.085-.057-.075-.075-.066-.085-.066-.104-.048-.085-.028-.094-.028-.094-.01-.104-.018h-.113l-.113-.01h-.839v1.64h.49l.18-.009h.16l.15-.019.132-.01.123-.027.113-.038.104-.047.085-.057.075-.066.066-.066.057-.075.047-.076.028-.075.028-.104.01-.104.009-.122zm2.451 4.224h-1.923l-1.66-2.235h-.725v2.235h-1.556v-6.09h2.63l.265.009.235.01.227.018.198.028.197.038.18.057.094.037.085.038.094.047.085.047.075.047.085.057.076.066.066.066.066.066.066.066.056.075.047.085.047.085.047.085.038.094.028.104.02.104.018.113.01.113v.113l-.01.17-.01.15-.028.151-.028.142-.047.132-.057.132-.056.113-.075.113-.085.104-.095.103-.094.095-.113.085-.113.084-.123.085-.132.076-.141.075 2.036 2.612z"/>
        <path fill="#00478F" d="M145.582 13.878h-1.621l-.425-1.235h-2.253l-.424 1.235h-1.584l2.253-6.09h1.801l2.253 6.09zm-2.423-2.348l-.754-2.187-.745 2.187h1.5zM150.843 13.878h-4.384v-6.09h1.565v4.911h2.819zM48.317 20.298l-.01.207-.009.208-.038.198-.037.198-.057.188-.066.18-.085.178-.085.17-.103.16-.104.151-.113.151-.123.132-.122.123-.132.113-.142.103-.141.095-.113.066-.113.056-.123.057-.122.047-.123.047-.123.038-.132.038-.132.028-.273.047-.302.038-.33.019H42.566v-6.081h2.206l.358.01.34.018.15.019.151.019.151.028.132.028.264.066.236.085.113.047.104.047.103.057.095.047.15.104.142.113.141.113.123.123.123.141.113.141.103.151.095.151.085.17.065.179.066.179.048.189.047.188.028.208.01.207.009.217zm-1.622-.01v-.15l-.01-.142-.018-.132-.028-.132-.028-.132-.038-.113-.047-.113-.047-.113-.057-.104-.075-.094-.066-.094-.085-.085-.095-.085-.094-.076-.113-.066-.113-.066-.123-.056-.122-.047-.123-.029-.122-.028-.142-.019-.17-.019h-.207l-.236-.009h-.396v3.809h.651l.226-.01.189-.018.15-.02.133-.028.122-.047.132-.047.123-.066.103-.066.095-.066.094-.075.075-.076.076-.085.075-.094.057-.094.056-.094.048-.114.037-.103.038-.123.028-.122.02-.132.018-.132.01-.142v-.15zM53.917 23.334h-4.403v-6.081h4.403v1.178h-2.838v1.047h2.63v1.178h-2.63v1.499h2.838zM62.967 21.42l-.01.113-.008.113-.01.104-.018.103-.029.104-.037.094-.038.095-.048.094-.046.085-.057.094-.066.085-.066.075-.075.085-.076.076-.085.075-.094.066-.104.075-.094.057-.113.066-.104.047-.113.057-.123.047-.122.038-.123.037-.132.038-.141.028-.142.02-.141.018-.302.028-.32.01-.368-.01-.34-.028-.16-.019-.15-.019-.151-.028-.142-.028-.283-.076-.264-.075-.264-.085-.245-.104v-1.461h.17l.123.094.132.095.122.084.142.076.132.066.141.066.15.066.152.056.14.048.152.037.15.038.142.028.15.029.142.009.142.01.142.009h.075l.085-.01.103-.01.104-.008.113-.01.104-.019.085-.028.085-.028.084-.038.076-.038.066-.047.066-.056.028-.029.028-.037.019-.029.01-.037.028-.095.01-.103-.01-.048-.01-.047-.009-.047-.02-.038-.027-.047-.028-.037-.029-.038-.047-.038-.094-.075-.113-.057-.132-.047-.151-.047-.179-.038-.18-.038-.178-.037-.19-.038-.188-.038-.178-.047-.18-.047-.17-.047-.188-.066-.17-.076-.16-.075-.141-.085-.132-.085-.123-.094-.104-.094-.094-.104-.075-.113-.066-.113-.057-.123-.047-.132-.038-.132-.028-.15-.019-.142v-.264l.01-.104.018-.094.02-.104.028-.094.028-.094.038-.085.047-.094.047-.085.056-.076.066-.084.066-.076.076-.075.085-.076.084-.075.095-.066.094-.066.104-.057.104-.056.103-.057.113-.047.114-.047.113-.038.122-.037.123-.029.132-.028.132-.019.132-.019.273-.028.293-.01.3.01.303.019.292.038.292.047.283.066.264.066.245.085.227.084v1.396h-.17l-.094-.076-.095-.066-.103-.066-.114-.066-.113-.056-.122-.057-.123-.056-.132-.048-.132-.047-.141-.037-.132-.038-.132-.028-.142-.02-.132-.018-.14-.01h-.237l-.104.01h-.094l-.094.019-.094.01-.094.027-.095.029-.094.028-.075.038-.076.037-.066.057-.056.057-.048.066-.037.066-.02.075-.009.075v.057l.01.057.019.056.019.047.028.038.028.047.038.038.047.028.047.038.056.028.076.028.085.029.188.066.236.047.17.037.16.038.16.028.151.038.16.028.16.048.17.047.18.056.169.057.151.066.15.066.133.075.123.085.112.085.104.094.085.095.085.103.066.104.056.122.048.123.038.132.018.141.019.142zM69.661 23.334H68.04l-.424-1.226h-2.254l-.414 1.226h-1.584l2.243-6.081h1.81l2.244 6.08zm-2.423-2.348l-.744-2.178-.755 2.178h1.5zM76.072 23.334h-1.518l-2.574-4.177v4.177h-1.442v-6.081h1.876l2.215 3.488v-3.488h1.443zM82.388 18.431h-1.904v4.903H78.92V18.43h-1.904v-1.178h5.373zM88.95 23.334H87.33l-.424-1.226H84.65l-.414 1.226h-1.584l2.243-6.081h1.81l2.244 6.08zm-2.423-2.348l-.744-2.178-.755 2.178h1.5zM95.437 23.456h-.17l-.16-.01-.16-.018-.161-.02-.15-.027-.161-.038-.142-.038-.15-.047-.142-.056-.132-.057-.132-.066-.122-.075-.123-.076-.113-.085-.113-.085-.104-.103-.103-.095-.095-.113-.085-.113-.084-.122-.076-.123-.075-.132-.066-.141-.057-.151-.057-.151-.047-.15-.037-.161-.029-.17-.028-.179-.02-.18-.008-.188v-.368l.009-.17.02-.169.018-.17.038-.16.037-.16.038-.15.057-.152.056-.141.057-.141.075-.132.076-.132.084-.123.085-.123.095-.113.094-.103.104-.095.113-.094.113-.085.122-.085.123-.075.132-.066.132-.066.15-.057.142-.056.16-.047.151-.038.16-.028.16-.02.161-.018.17-.01.179-.009.18.01h.178l.17.018.16.02.151.018.15.028.133.029.141.037.132.038.123.038.123.047.112.047.114.047.094.047.094.047.094.038v1.48h-.188l-.057-.056-.066-.057-.075-.056-.085-.066-.094-.066-.095-.066-.094-.066-.113-.066-.113-.066-.122-.057-.123-.056-.132-.048-.132-.037-.132-.029-.141-.018h-.312l-.16.018-.16.038-.151.047-.141.057-.142.075-.132.095-.132.113-.056.066-.057.066-.057.066-.046.075-.095.16-.075.189-.038.094-.028.104-.029.113-.019.113-.018.113-.01.132-.01.123v.273l.01.142.01.122.018.123.02.122.028.104.037.113.038.094.085.18.094.16.057.075.056.066.057.066.056.057.132.104.132.094.142.066.15.056.152.048.15.028.151.019h.293l.14-.02.142-.027.142-.038.14-.047.133-.047.123-.066.122-.066.094-.066.095-.057.094-.066.085-.066.16-.132.123-.104h.17v1.452l-.114.057-.113.047-.113.047-.104.047-.103.038-.104.047-.113.038-.113.028-.151.047-.141.028-.132.029-.142.028-.142.019-.16.019-.198.01zM104.365 23.334h-1.622l-.415-1.226h-2.262l-.415 1.226h-1.584l2.244-6.081h1.81l2.244 6.08zm-2.423-2.348l-.745-2.178-.745 2.178h1.49zM110.002 18.431h-1.904v4.903h-1.565V18.43h-1.904v-1.178h5.373zM116.574 23.334h-1.622l-.424-1.226h-2.253l-.425 1.226h-1.584l2.254-6.081h1.8l2.254 6.08zm-2.423-2.348l-.755-2.178-.744 2.178h1.499zM120.854 19.12v-.114l-.02-.103-.027-.095-.038-.085-.057-.075-.075-.075-.094-.057-.104-.047-.085-.038-.085-.019-.094-.019-.104-.009-.113-.01h-.952v1.632H119.666l.17-.01.15-.01.132-.009.123-.028.113-.038.094-.047.095-.056.075-.066.066-.066.057-.076.037-.075.038-.085.019-.094.019-.113v-.114zm2.45 4.214h-1.913l-1.66-2.225h-.725v2.225h-1.556v-6.081h2.885l.245.01.217.018.208.028.188.047.189.057.085.028.094.047.085.038.084.047.085.057.076.056.075.066.076.057.066.075.056.066.057.076.056.085.047.075.038.094.038.095.028.103.019.104.019.104.01.113.009.122-.01.17-.019.15-.018.152-.038.141-.038.132-.056.132-.066.113-.076.113-.075.104-.095.094-.103.095-.104.094-.113.085-.123.085-.132.075-.141.075 2.027 2.603zM127.283 23.334h-3.563v-1.075h1v-3.932h-1v-1.074h3.563v1.074h-1v3.932h1zM134.09 23.334h-1.509L130 19.157v4.177h-1.443v-6.081h1.876l2.225 3.488v-3.488h1.433zM141.274 23.334h-1.63l-.416-1.226h-2.253l-.424 1.226h-1.584l2.253-6.081h1.8l2.254 6.08zm-2.423-2.348l-.754-2.178-.745 2.178h1.5z"/>
        <path fill="#1F1A17" d="M14.528 6.844l-.141.18-.123.15h.528l-.113-.15-.151-.18zm1.094 24.362l.084.047.066.056.057.066.057.066.037.085.038.085.019.094.01.095-.01.066-.01.066-.018.066-.02.056-.028.066-.037.047-.038.057-.038.047-.047.047-.056.038-.057.028-.056.028-.057.029-.066.01-.066.009-.075.009-.066-.01-.066-.009-.066-.01-.057-.028-.057-.028-.056-.028-.057-.038-.047-.047-.038-.047-.047-.057-.028-.047-.028-.066-.02-.056-.018-.066-.01-.066-.009-.066.01-.095.018-.094.029-.085.037-.075.057-.076.057-.066.066-.056.075-.047-.217-5.43-.179-.123-.189-.123-.207-.122-.226-.114-.236-.113-.245-.113-.255-.113-.273-.113-.556-.226-.585-.236-.603-.245-.594-.274-.283-.132-.264-.14-.245-.142-.236-.151-.216-.151-.198-.16-.18-.16-.17-.16-.15-.17-.132-.17-.113-.17-.085-.18-.047-.084-.029-.094-.028-.085-.028-.094-.019-.095-.01-.094-.009-.094-.01-.094v-5.959l-.009-.848V7.627h5.864V6.76h-.141l-.047-.01-.038-.019-.038-.018-.037-.038-.02-.038-.027-.038-.01-.047V6.45l.01-.048.028-.047v-.01h-.283l-.038-.009-.028-.018-.038-.01-.028-.019-.028-.019-.029-.028-.018-.028-.029-.028-.019-.029-.009-.028-.01-.038-.009-.028-.01-.038V5.78l.01-.037.01-.029.01-.037.008-.029.02-.028.028-.028.018-.029.029-.028.028-.019.028-.019.038-.01.028-.018.038-.01h.245v-.282h3.31v.283h.329l.038.01.038.018.028.01.028.018.029.02.028.027.028.029.019.028.019.028.019.029.01.037.008.029v.037l.01.038v.17l-.01.037v.038l-.009.028-.01.038-.018.028-.02.029-.018.028-.028.028-.028.028-.029.02-.028.018-.028.01-.038.018-.038.01h-.349v.01l.02.046.009.048.01.047v.01l-.01.046-.01.047-.019.038-.028.038-.028.038-.038.018-.047.02-.038.009h-.103v.867h5.807v13.698l-.01.095-.018.094-.029.094-.028.095-.038.094-.037.094-.047.104-.104.188-.132.189-.15.18-.161.188-.189.179-.198.17-.217.17-.226.16-.245.15-.254.142-.264.132-.283.122-.613.245-.594.227-.575.216-.538.208-.5.207-.442.208-.208.103-.188.104-.17.104-.15.113-.255 5.506zm-.302-24.37l-.15.188-.123.15h.546l-.122-.15-.151-.189zm.83-.01l-.151.188-.123.16h.528l-.104-.16-.15-.188z"/>
        <path fill="#00478F" d="M8.268 7.74h14.104v6.222H8.268z"/>
        <path fill="#DA251D" d="M16.291 5.204l-1.942.01-.047-.132-.029-.123-.018-.113v-.094l.018-.085.029-.085.047-.085.066-.085.01.113.009.095.019.066.028.047.019.028.028.01h.028l.02-.02.018-.131.038-.123.037-.123.048-.113.094-.198.104-.17.103-.15.085-.123.038-.047.019-.047.019-.038.009-.028.085.537.066-.028.056-.038.057-.047.047-.047.038-.047.038-.057.037-.056.028-.057.048-.113.028-.113.019-.113v-.094l.028-.123.01-.123.009-.103-.01-.085.01.104.01.103.018.113.02.114.046.226.038.236.019.122v.236l-.02.113-.027.104-.048.103-.056.104-.085.094.085-.037.075-.048.066-.056.057-.057.047-.056.047-.066.038-.066.028-.066-.038.103-.056.114-.066.094-.085.094-.038.038-.047.038-.056.037-.048.029-.056.018-.047.02-.057.009h-.056l.075-.085.066-.085.047-.085.038-.094.028-.094.02-.095.018-.085V3.762l-.019-.189-.019-.188-.01-.189-.018.085-.028.075-.038.085-.047.076-.047.066-.057.056-.075.057-.076.037-.094-.556v.038l-.019.038-.028.047-.047.056-.095.132-.113.151-.066.094-.056.095-.066.103-.047.113-.057.114-.038.132-.037.122-.029.142-.019.018h-.009l-.019-.009-.01-.028-.018-.123-.01-.226-.084.132-.076.113-.047.113-.038.104-.01.056-.008.057v.132l.018.15.047.17h-.207l-.056-.084-.038-.085-.047-.085-.029-.075-.028-.076-.019-.075-.019-.066-.009-.076V4.46l.01-.122.018-.113.02-.114.065-.207.057-.198.01-.094v-.094l-.01-.048-.01-.047-.019-.056-.018-.047.075.047.085.047.075.038.085.047.066-.01.085-.028.047-.019.047-.028.047-.038.047-.056.038-.066.038-.085.028-.104.019-.123.01-.141-.01-.17-.01-.198-.028-.226.5.283.038-.16.056-.151.057-.132.075-.123.085-.113.094-.104.095-.094.094-.094.207-.16.198-.151.095-.076.084-.066.085-.075.076-.075-.047.056-.029.057-.028.056-.028.057-.029.122-.009.132v.132l.01.132.018.132.02.132.018.142.019.132.01.132.009.122-.02.123-.018.122-.019.047-.028.057-.028.057-.038.047.056.028.048.01.056.009.047-.019.038-.028.047-.057.038-.085.047-.122.075.103.066.114.029.066.019.056.018.066.01.066.01.066v.076l-.01.075-.019.085-.028.075-.038.095-.047.084-.057.095.029.01.028-.01h.038l.028-.01.066-.037.056-.057.066-.057.057-.075.047-.066.038-.075-.02.235-.018.227-.028.216-.038.217-.028.104-.038.113-.047.104-.057.113-.066.122-.084.114-.095.122-.113.132h-.094l.066-.094.047-.094.038-.085.037-.085.02-.085.018-.085.01-.066.009-.075v-.113l-.01-.085-.009-.057-.01-.019-.028.066-.028.057-.038.056-.047.048.01.037.01.047v.066l-.02.085-.019.095-.047.113-.066.132-.094.141zm-.113-1.263l.028.056.028.047.02.057.009.047.01.104-.01.094-.038.198-.028.208.094-.038.075-.047.038-.029.028-.037.029-.038.028-.038-.075.057-.076.038.038-.123.028-.132.01-.113-.01-.123-.019-.122-.047-.113-.056-.123-.076-.113-.01.066v.075l-.009.066-.01.076z"/>
        <path fill="#FFF" d="M12.793 12.247l-.179.584.49.377-.622.019-.207.575-.208-.575-.622-.028.49-.368-.16-.603.5.367.518-.348zm-.301-2.225h2.441l.048.01.047.018.019.028.018.028.01.038v.057l-.01.047-.028.038-.038.018-.047.01h-.905l-.047.01-.028.009-.028.028-.029.019-.01.038-.009.028v.028l.01.028.019.029.019.019.018.009.029.019h8.381v1.753H14.01l-.029-.009-.019-.01-.018-.018-.02-.02-.009-.046-.01-.038v-.594h-1.64l.726-.716-.5-.858zm.019-1.763l-.255.556.443.434-.613-.048-.283.557-.122-.613-.622-.085.537-.311-.104-.622.472.415.547-.283zm-2.348-.113l-.255.556.453.433-.622-.056-.274.566-.132-.623-.612-.085.528-.301-.095-.622.462.405.547-.273zm-.613 2.413l-.085.575.49.274-.556.084-.132.566-.254-.51-.575.058.415-.406-.227-.518.5.254.424-.377zm2.395-.273l-.217.48.368.35-.51-.038-.216.462-.113-.51-.519-.084.443-.255-.085-.5.387.34.462-.245z"/>
        <path fill="#FEE300" d="M8.277 14.085h14.085v3.13l.01.443v3.564l-.047.273-.076.264-.113.236-.132.236-.16.216-.189.198-.207.189-.226.179-.245.18-.255.16-.273.15-.283.142-.292.141-.293.132-.31.132-.302.123-.613.235-.604.236-.292.123-.283.113-.264.122-.254.123-.245.122-.227.132-.198.132-.188.142-.151.15-.141.151-.104.17-.076.17-.084-.17-.114-.17-.14-.16-.17-.15-.19-.142-.216-.142-.226-.131-.245-.123-.264-.132-.274-.123-.292-.122-.292-.123-.613-.235-.613-.246-.311-.132-.302-.132-.301-.132-.283-.14-.283-.142-.264-.16-.255-.16-.245-.161-.217-.18-.198-.188-.179-.198-.15-.207-.123-.217-.094-.236-.066-.245-.038-.264-.01-7.146zM14.52 6.75l.198.245.198.236h-.773l.197-.236.18-.245zm-.792-1.499h3.196v.208h-3.196V5.25zm-.217.255h3.733l.066.01.057.018.056.028.048.038.037.047.028.047.02.057V6.043l-.02.057-.028.056-.037.038-.048.038-.056.028-.057.019-.066.01H13.51l-.066-.01-.057-.019-.056-.028-.047-.038-.038-.038-.028-.056-.02-.057-.009-.066v-.16l.01-.066.019-.057.028-.047.038-.047.047-.038.056-.028.057-.019.066-.01zm.386.839H16.81l.028.01.028.018.028.019.02.028.018.038.01.028V6.571l-.01.028-.019.038-.019.028-.028.02-.028.018-.028.01-.038.009h-.151v.905h-2.536v-.905h-.189l-.037-.01-.029-.009-.028-.019-.028-.019-.019-.028-.019-.038-.01-.028V6.486l.01-.028.019-.038.019-.028.028-.019.028-.019.029-.01h.037zm1.914 19.459l-.245 5.43.075.047.076.047.056.066.057.066.038.076.037.084.02.085.009.095-.01.056-.01.066-.009.057-.028.056-.019.057-.037.047-.029.047-.037.047-.048.038-.047.038-.056.028-.047.028-.057.02-.056.009-.066.009-.066.01-.057-.01-.066-.01-.057-.009-.056-.019-.057-.028-.047-.028-.047-.038-.047-.038-.038-.047-.038-.047-.028-.047-.028-.057-.019-.056-.01-.057-.009-.066-.01-.056.01-.095.019-.085.028-.084.047-.066.048-.076.056-.056.066-.057.076-.038-.217-5.44.085.085.075.085.066.085.066.094.113.198.104.217.085-.188.085-.17.037-.085.057-.075.056-.085.066-.085.085-.075zM15.32 6.74l.198.254.198.236h-.783l.189-.236.198-.254zm.83 0l.198.235.17.255h-.764l.198-.255.198-.235z"/>
        <path fill="#DA251D" d="M14.453 19.204l.047-.028.056-.019.066-.01.066-.018.18-.02.188-.008.132.009h.123l.103.019.095.019.084.019.057.028.019.01.019.018.01.01v.038l-.01.009-.02.019-.018.009-.057.028-.084.02-.095.018-.103.019-.123.01h-.255l-.122-.01-.113-.02-.095-.018-.075-.019-.066-.028-.019-.01-.019-.018-.01-.01v-.019l.01-.028z"/>
        <path fill="#1F1A17" d="M14.952 10.314h-.905l-.037.01-.029.009-.019.01-.018.018-.038.038-.01.047.01.047.019.047.019.01.018.018.029.01h1.084l.01-.396-.01.019-.01.028-.009.019-.01.028-.018.01-.029.018-.018.01z"/>
        <path fill="#DA251D" d="M14.113 12.626l.245-1.6h.095l.273 1.6h-.104l-.075-.478h-.273l-.076.478h-.085zm.189-.66h.217l-.066-.445-.029-.182-.018-.148-.02.148-.018.149-.066.478zm.5.66v-1.6h.292l.075.016.057.033.019.017.018.033.02.05.018.032.019.132.01.116-.01.082v.083l-.019.066-.019.066-.028.05-.028.032-.038.033-.047.033.028.033.028.05.038.082.028.116.114.445h-.104l-.085-.33-.038-.132-.028-.099-.019-.066-.028-.033-.019-.033-.019-.016H14.896v.71H14.8zm.094-.89h.179l.056-.017.038-.017.028-.033.02-.066.018-.066v-.082l-.01-.1-.018-.082-.019-.033-.028-.016-.029-.017-.037-.016h-.198v.544zm.547.379l.084-.017.01.1.019.098.028.066.038.05.047.033.056.016.038-.016.047-.017.029-.05.018-.049.02-.066V12.115l-.02-.05L15.84 12l-.029-.033-.047-.033-.075-.05-.076-.049-.047-.05-.047-.065-.028-.083-.02-.099V11.323l.03-.116.009-.05.018-.032.029-.05.028-.016.047-.05.066-.016.076.016.056.05.028.033.02.033.018.05.019.049.019.115.01.132-.086.017v-.066l-.009-.066-.019-.05-.01-.05-.028-.032-.018-.017-.038-.016-.028-.017-.038.017-.038.016-.019.017-.019.033-.018.033-.01.033-.01.05v.131l.029.066.038.05.085.05.094.065.056.05.048.066.028.099.028.099v.247l-.028.116-.019.05-.019.049-.019.05-.028.032-.057.033-.066.017-.084-.017-.066-.033-.029-.05-.028-.032-.019-.05-.019-.066-.01-.066-.018-.066-.01-.082v-.066zm1.018.511v-1.6h.471v.181h-.377v.495h.358v.182h-.358v.56h.396v.182h-.49zm.792 0v-1.419h-.217v-.181h.518v.181h-.216v1.42h-.085zm.735-.511l.085-.017.01.1.018.098.028.066.038.05.047.033.047.016.048-.016.047-.017.028-.05.028-.049.01-.066.01-.066-.01-.082-.01-.05-.028-.066-.028-.033-.047-.033-.076-.05-.075-.049-.047-.05-.048-.065-.028-.083-.01-.099-.009-.099.01-.115.019-.116.018-.05.02-.032.018-.05.028-.016.057-.05.057-.016.075.016.057.05.047.066.037.099.02.115.018.132-.085.017-.01-.066-.009-.066-.009-.05-.019-.05-.019-.032-.028-.017-.028-.016-.038-.017-.038.017-.028.016-.028.017-.02.033-.018.033-.01.033-.009.05v.049l.01.082.009.066.047.05.085.05.094.065.057.05.047.066.038.099.019.099.009.115-.01.132-.028.116-.019.05-.018.049-.02.05-.028.032-.056.033-.066.017-.085-.017-.066-.033-.028-.05-.029-.032-.018-.05-.02-.066-.009-.066-.019-.066v-.082l-.009-.066zm1.122-.05l.085.05-.02.132-.018.099-.028.099-.038.066-.038.066-.037.033-.047.033h-.095l-.047-.017-.038-.033-.037-.05-.029-.065-.028-.066-.019-.083-.019-.082-.028-.215-.01-.214v-.132l.01-.1.01-.115.018-.099.02-.082.028-.083.028-.066.028-.05.038-.049.047-.016.038-.033h.037l.048.016.047.017.037.033.038.066.028.066.029.066.019.099.018.099-.084.05-.02-.067-.009-.082-.019-.05-.018-.05-.029-.032-.019-.033-.028-.017h-.075l-.029.017-.028.033-.028.033-.019.05-.028.065-.01.066-.019.066-.009.149-.01.148.01.198.01.165.018.066.02.066.018.066.028.033.029.033.018.017.029.016.028.017.038-.017.028-.016.038-.033.019-.05.028-.05.019-.065.019-.083.009-.099zm.217.561v-1.6h.085v1.6h-.085zm.254 0v-1.6h.472v.181h-.387v.495h.358v.182h-.358v.56h.406v.182h-.49zm.623 0v-1.6h.084l.34 1.254v-1.254h.085v1.6h-.085l-.349-1.27v1.27h-.075zm.83 0v-1.419h-.218v-.181h.528v.181h-.217v1.42h-.094zm.423 0v-1.6h.085v1.6h-.085zm.18 0l.245-1.6h.094l.273 1.6h-.103l-.076-.478h-.273l-.076.478h-.084zm.188-.66h.217l-.066-.445-.028-.182-.02-.148-.009.148-.028.149-.066.478zM19.383 19.176l.095.075.084.076.076.085.075.084.066.104.057.113.047.113.038.132-.01-.198-.037-.188-.038-.18-.066-.16-.066-.15-.085-.132-.104-.132-.113-.104-.01.453zM17.017 19.902l2.338-.717V19.167l.01-.462-3.036.923.66.264zM20.892 18.874v.858l-.198.236v-.028l-.01-.02v-.046l-.01-.048-.018-.113-.019-.113-.028-.113-.028-.113zM20.486 20.873v.764l-.037.103-.057.095-.075.094-.076.094-.094.094-.104.104-.113.094-.113.104-.132-.679.123-.103.122-.095.113-.113.104-.104.094-.113.085-.103.085-.123zM21.25 20.628v.735l-.726.217-.01-.754zM21.24 20.609h.01v.01zM18.403 23.334l-.594-.444-.047-.848.622.415.019.858zM19.035 22.966v-.811l.754.292h.01v.82l-.764-.292zM18.422 22.457l.584-.292-.01.791v.02l-.565.358v-.02zM16.093 20.496l-.104.047-.094.047-.113.038-.104.037-.113.029-.122.028-.123.019-.123.01-.122.009h-.123l-.122-.01-.132-.01-.123-.018-.132-.019-.122-.028-.123-.038.01-.537-.236-.189.01-.509.037.057.057.047.056.038.066.037.066.029.076.028.075.028.085.019.16.028.15.02.152.009.122.009h.302l.17-.019.16-.028.085-.019.075-.028.076-.02.066-.037.066-.028.056-.038.057-.047.037-.047.01.396-.15.104v.537z"/>
        <path fill="#DA251D" d="M18.573 21.665l-2.442-1.17v-.499l2.913 1.348-.104.095-.141.094-.132.085zM18.252 18.591l-.273-.132-.274-.122-.283-.104-.292-.094-.302-.076-.301-.056-.311-.047-.33-.02-.33-.009-.34.01-.349.038-.358.047-.358.075-.377.094-.396.114-.396.132-.679-.293.226-.103.227-.095.235-.085.227-.075.245-.075.245-.057.236-.057.245-.037.31-.047.312-.029.311-.018h.311l.302.009.31.028.303.038.292.047.292.057.292.075.283.085.283.104.273.103.264.123.255.132.255.141-.151.047-.142.048-.15.037zM11.822 18.978l-.085.075-.084.085-.076.095-.075.084-.057.085-.056.094-.048.095-.047.094-.028.094-.028.095-.029.094-.009.104-.01.103v.208l.01.103-.066-.15-.057-.142-.047-.141-.028-.142-.01-.132v-.141l.02-.132.028-.132.047-.123.066-.132.075-.122.085-.123.104-.122.122-.123.132-.122.151-.114zM13.953 19.26l-.01.02v.019l-.009.424-.094.028-1.98-.792v-.575l2.093.867zM14.17 20.628h-.01l-2.187.697h-.01l-.018-.009-.113-.085-.113-.085-.104-.094-.113-.094 2.677-.83zM9.437 20.713v-.726l.624.358v.735l-.624-.367zm.658-.32l.011.018.078.122.1.16.123.18.123.15.133.152.134.141.145.123.145.122-.312.443-.112-.094-.111-.094-.09-.104-.088-.104-.09-.113-.066-.113-.067-.123-.056-.122v-.745zM11.38 22.919l-.783.019-.02-.905.812-.01-.01.83zM12.115 22.447l-.02.877-.678-.396V22.032zM12.803 21.835l-.066.857-.604.623v-.066l.01-.792z"/>
        <path fill="#DA251D" d="M14.264 18.997l-.104.056-.094.057-.056.057-.048.056-2.111-.877h-.02l-.16.123-.141.122-.123.123-.113.123-.094.132-.075.132-.066.132-.047.132-.038.14-.019.133v.141l.019.142.028.141.038.15.066.152.075.15.01.02.01.009h.008l2.621-.754.114-.029v.171l.216.169-2.687.83-.028.009.019.019.113.113.123.104.113.084.113.085.207.132.217.123.217.104.226.103-.66.613-.726-.424v-.01l-.8.01.263-.424.01-.02-.01-.009-.132-.113-.122-.132-.114-.141-.113-.151-.103-.15-.095-.161-.094-.17-.085-.18-.019-.027v-.01h-.01l-.536-.349.66-.15.056-.16.085-.18.094-.179.113-.18.132-.188.151-.188.16-.189.18-.198-.01-.452.641.132.18-.104.178-.094.189-.095.18-.084.188-.085.188-.076.189-.066.198-.066.188-.056.198-.057.198-.047.198-.038.208-.037.207-.029.207-.018.208-.02.207-.009.217-.01.217.01.217.01.217.01.226.018.226.028.226.038.227.038.235.056.236.047.236.066.245.066.245.076.245.085.245.084.49-.066v.33l.18.085.16.085.16.104.151.113.141.113.142.132.132.132.132.142.707.009-.33.519v.019l.038.112.028.123.019.123.019.122.028.226v.18l.556.33-.735.197h-.01v.01l-.084.132-.085.122-.095.123-.103.113-.104.113-.113.104-.123.104-.122.094-.01.01v.009l.132.67-.744-.284-.02.01-.612.301-.622-.414.81-.32.151-.086.151-.103.113-.095.076-.066.009-.019-.019-.009-2.95-1.358.15-.103.01-.01v-.01l-.01-.188.698.274.32.132.33.122.32.132.33.123.321.132.33.132.32.132.33.122.067-.094.066-.094.066-.104.056-.113.048-.113.037-.123.029-.132.018-.141v-.189l-.01-.094-.018-.094-.019-.095-.019-.094-.028-.094-.028-.085-.038-.094-.047-.085-.047-.085-.047-.075-.057-.076-.066-.075-.056-.066-.076-.066-.01-.01-.018-.009-3.102.962v-.095l-.01-.094V19.213l1.962-.584.66-.198.028-.01-.028-.018-.255-.151-.254-.132-.274-.123-.273-.113-.283-.094-.283-.085-.302-.085-.292-.056-.302-.057-.301-.037-.311-.02-.311-.009h-.312l-.32.01-.311.037-.311.038-.245.047-.246.047-.245.066-.245.076-.236.075-.235.085-.245.104-.236.103v.01l-.028.01.028.018.255.104.245.104.254.103.255.104.245.104.254.103.255.104zM13.915 27.161v-.113l-.019-.104-.028-.094-.047-.066-.047-.057-.057-.047-.066-.028-.066-.01-.81-.028-.755-.01h-.707l-.66.02-.32.019-.311.028-.302.028-.292.028-.293.038-.282.038-.283.047-.283.047-.547.113-.556.132-.547.151-.566.17-.584.188-.613.208-.632.226-.678.245-.047.028-.048.029-.037.037-.038.048-.028.047-.02.066v.066l.01.085.18.471-2.169.943 1.904.198-1.122 1.716 4.252-1.886.057-.047.038-.047.028-.047.01-.057v-.047l-.01-.047-.019-.047-.019-.029-.17-.396.35-.132.358-.113.348-.113.35-.094.339-.094.348-.076.34-.075.349-.057.349-.056.348-.048.35-.037.348-.038.358-.028.368-.02.368-.009.367-.009.302.754.047.057.038.038.047.009.066.01.358-.076.368-.057.358-.056.358-.038.359-.038.358-.018.358-.02h.358l.359.01.358.01.358.028.358.028.359.047.358.057.358.056.368.076.066-.01.047-.009.038-.038.047-.056.302-.755.367.01.368.019.368.019.358.028.349.028.358.038.349.047.34.057.348.066.34.066.348.084.349.085.34.104.358.104.348.122.359.132-.18.387-.018.037-.01.038-.01.047-.009.047.01.057.028.047.038.047.056.047 4.252 1.886-1.122-1.706 1.905-.198-2.169-.953.18-.471.018-.066-.009-.057-.01-.066-.028-.056-.037-.047-.048-.047-.047-.038-.047-.028-.679-.246-.631-.226-.613-.207-.585-.189-.565-.17-.547-.15-.556-.132-.547-.113-.283-.048-.283-.047-.283-.037-.292-.038-.292-.028-.302-.029-.31-.019-.321-.018-.66-.02-.707-.009-.755.01-.81.028-.066.01-.057.028-.057.047-.047.056-.047.076-.028.085-.028.103v.123l-.406-.028-.367-.02-.33-.009h-.952l-.368.02z"/>
        <path fill="#DA251D" d="M15.131 19.713h.246l.103-.01.104-.018.104-.01.094-.028.085-.019.075-.028.066-.028.066-.038.047-.038.047-.028.038-.047.019-.038.019-.037v-.047l-.01-.038-.018-.047-.029-.038-.047-.038-.047-.037-.056-.029-.066-.028-.076-.028-.17-.057-.188-.028-.217-.028-.226-.01-.227.01-.207.028-.189.038-.16.047-.075.028-.057.038-.056.028-.047.038-.038.037-.028.038-.02.038-.009.038.01.037.01.038.027.038.038.037.047.038.057.028.066.038.075.028.17.047.198.038.217.028z"/>
        <path fill="#1F1A17" d="M14.453 19.204l.047-.028.056-.019.066-.01.066-.018.18-.02.188-.008.132.009h.123l.103.019.095.019.084.019.057.028.019.01.019.018.01.01v.038l-.01.009-.02.019-.018.009-.057.028-.084.02-.095.018-.103.019-.123.01h-.255l-.122-.01-.113-.02-.095-.018-.075-.019-.066-.028-.019-.01-.019-.018-.01-.01v-.019l.01-.028z"/>
        <path fill="#FFF" d="M17.752 27.161h.274l.028.01h.019l.01.009h.009l.01.01.027.018.029.029.01.009.009.01v.009l.018.038.01.037h.01v.199l-.01.046-.019.038-.019.038-.01.028-.018.028-.028.02-.02.018-.018.019-.028.01-.02.009-.028.01h-.056l-.028.009h-.237l.01-.02.047-.612v-.019h.02zm.123.142l-.038.367h.133l.009-.01h.01l.008-.009.02-.009.009-.01v-.009l.01-.01.009-.018v-.01l.009-.009v-.01l.01-.037v-.161l-.01-.009v-.019l-.019-.01-.019-.018-.019-.01h-.122zm.377.48l.057-.612v-.02h.453v.02l-.01.103v.02h-.311l-.01.103H18.723v.019l-.009.094-.01.019H18.423l-.01.132h.321v.019l-.01.103-.009.02h-.462v-.02zm.99-.207h.113l.019-.01v.048l.01.019v.018l.009.02h.01v.009h.009l.028.01.028.009H19.497l.018-.01.029-.01v-.009h.009l.01-.019.009-.018v-.02l-.01-.009-.009-.01-.01-.009h-.009l-.01-.009-.018-.01h-.028l-.029-.018h-.01l-.018-.01h-.019l-.047-.028-.038-.028-.018-.038-.01-.028-.01-.038v-.038l.01-.028.01-.019.009-.028.01-.019.009-.01.01-.009h.009l.028-.028.028-.019.028-.01h.151l.047.02.038.018.028.02.02.037.018.038v.094H19.59v-.038h-.009V27.331l-.01-.01-.009-.009h-.018l-.01-.01h-.075l-.02.02h-.009v.009l-.009.01v.009l.01.01v.009h.009v.009l.038.019.047.01.037.018.038.01.019.018.028.01.02.019.018.01.01.018.009.028.01.01v.019l.009.037-.01.038V27.671l-.019.037-.018.038-.01.01v.009h-.01l-.009.009-.028.028-.038.02H19.553l-.01.009h-.15l-.047-.02-.038-.018-.028-.028-.01-.01-.01-.01-.009-.018v-.01l-.018-.056-.01-.066.01-.019h.009zm1.028.302l-.123-.01h-.01v-.01l-.028-.131-.198-.02-.066.133-.01.01h-.009l-.122-.01h-.019l.01-.028.31-.594.01-.01h.01l.113.01h.018v.01l.132.63.01.02h-.028zm-.189-.293l-.028-.16-.076.151.104.01zm.245.274l.094-.604.01-.018h.01l.112.009h.01v.01l.141.377.057-.35.01-.018.009.01.103.009h.02v.019l-.105.603v.019h-.018l-.114-.01h-.009v-.01l-.141-.367-.057.34v.019l-.019-.01-.103-.01h-.02l.01-.018zm.688.075l.095-.49-.151-.019h-.02l.01-.019.02-.103v-.01h.018l.443.057h.019l-.01.019-.018.103v.02l-.02-.01-.15-.02-.094.491v.019h-.02l-.112-.019h-.02l.01-.019zm.811.132l-.122-.019h-.02v-.018l-.018-.132-.198-.029-.066.123-.01.01h-.009l-.123-.02-.018-.01.009-.018.349-.575.01-.01h.009l.113.02.019.009v.01l.094.64v.02h-.019zm-.179-.31l-.019-.161-.085.15.104.01zm1.056.207l.094.066.019.009-.01.01-.028.047-.028.037-.038.029-.037.018-.01.01h-.01l-.009.01h-.019l-.056.009-.066-.01h-.01l-.018-.01h-.02l-.009-.009-.037-.018-.029-.029-.019-.028-.028-.028v-.02l-.01-.018-.009-.019v-.01l-.01-.046v-.038l.01-.057.01-.047.01-.019v-.019l.009-.018.01-.02.018-.046.028-.038.028-.038.038-.028.047-.028.057-.02.056-.009.057.01h.019l.01.01h.018l.01.009.028.018.028.02.028.018.02.028.009.029.01.037.009.029V27.803h-.02l-.112.009h-.02v-.047l-.009-.029-.01-.019-.009-.01-.009-.008-.019-.01-.019-.01H22.617l-.038.01-.028.019h-.01l-.009.01v.009l-.01.01-.028.046-.018.066-.01.048-.01.047v.037l.01.029h.01v.019h.01l.018.028.038.01h.038l.018-.01h.02v-.01h.008v-.01h.01l.019-.027.019-.038.009-.019.019.01zm.622.424l-.122-.029-.01-.009v-.01l-.01-.131-.188-.057-.075.123-.01.01-.01-.01-.122-.029h-.019l.01-.028.396-.537v-.01h.019l.113.029.01.009v.01l.037.65v.019h-.019zm-.141-.33l-.01-.17-.094.15.104.02zm.264.33l.15-.481-.15-.038h-.01v-.019l.029-.103.009-.01h.019l.424.123h.019l-.01.019-.028.103-.01.01h-.009l-.15-.038-.151.471v.02h-.02l-.103-.038h-.019l.01-.02zm.763.235l-.113-.028-.01-.01v-.009l-.009-.132-.188-.056-.085.103v.01h-.01l-.122-.028-.019-.01.01-.019.405-.537h.019l.113.028.019.01v.01l.019.659v.019l-.029-.01zm-.132-.33v-.17l-.103.142.103.028zm.18.33l.216-.584.01-.019.01.01.225.075h.02l.009.01h.019l.047.028.028.019.01.009.009.01.019.037.01.028.009.029-.01.028v.028l-.01.028v.01l-.009.01v.009l-.01.01-.027.037-.038.028-.01.01h-.009l-.01.009h-.037l-.028.01.009.018.01.02.009.018v.028l.01.038.009.038.019.132.009.028-.028-.01-.132-.037-.01-.01v-.009l-.028-.15-.01-.039v-.028l-.009-.019-.01-.019v-.019h-.009v-.009h-.01l-.009-.01-.018-.009h-.02l-.084.227-.01.018-.009-.009-.113-.038h-.01v-.019zm.273-.31l.056.028.038.01.028.008h.057v-.009h.01v-.01l.009-.009.01-.01v-.056l-.01-.01h-.01v-.009H24.7l-.018-.01-.038-.018-.075-.019-.038.113zm.264.48l.217-.584v-.02l.019.01.103.038h.02l-.01.019-.217.584v.02l-.02-.01-.103-.038h-.019l.01-.019zm.207.076l.227-.585v-.01h.018l.104.038.01.01v.01l.056.405.123-.33.01-.02.018.01.094.028.02.01-.01.019-.227.575v.019l-.019-.01-.103-.037h-.01v-.01l-.056-.396-.123.32-.01.02-.018-.01-.094-.028-.02-.01.01-.018zm1.009.396l-.113-.048h-.019v-.018l.01-.132-.19-.076-.084.113-.01.01-.009-.01-.113-.037-.019-.01.02-.019.433-.5.01-.009h.009l.113.047h.01v.01l-.03.66v.028l-.018-.01zm-.113-.34l.01-.179-.114.132.104.047zM10.06 27.83l-.048-.622v-.019h.01l.386-.028h.019v.019l.01.104v.019h-.02l-.254.018.01.114.216-.02h.02v.02l.009.103v.02h-.02l-.216.018.019.245.01.01-.02.009-.113.01h-.019v-.02zm.47-.037l-.037-.613v-.019h.01l.424-.028h.01v.019l.009.103v.02h-.01l-.292.018.01.104.263-.019h.02v.019l.009.104v.009l-.02.01-.263.009.01.141.291-.019h.02v.01l.009.104v.018h-.02l-.423.029h-.02v-.02zm.52-.679H11.35l.019.01h.01l.009.009h.009l.038.019.028.028.01.01v.009h.009v.01l.028.037.019.047.01.028v.038l.009.038v.141l-.01.038-.009.01v.019l-.01.009-.018.047-.028.038-.02.009-.018.019-.02.01-.027.018h-.02l-.009.01h-.075l-.217.009h-.01v-.019l-.028-.622v-.019h.02zm.131.141l.02.378h.084l.019-.01h.038l.009-.01.01-.009h.009v-.01l.01-.009.009-.018v-.02l.009-.009v-.141l-.01-.038v-.028l-.009-.019-.01-.01-.009-.009-.01-.01-.008-.009-.01-.01-.01-.009h-.141zm.443.481l-.01-.613v-.018h.453v.132h-.301v.113H12.049V27.482H11.766v.141h.321V27.756h-.463v-.02zm.67-.377h.17v-.01h.009l.01-.009v-.01l.009-.009v-.047l-.01-.01-.01-.009-.009-.009h-.009l-.01-.01h-.15v.123zm.942.424l-.122-.009h-.01v-.01l-.047-.131-.198-.01-.047.132-.01.01h-.009l-.122-.01H12.529l-.009-.01-.085-.131-.019-.038-.019-.019-.009-.019-.01-.019-.009-.009-.01-.01h-.019l-.009-.009h-.038v.265h-.131l-.01-.01v-.651h.01l.245.01H12.463l.048.009.028.01h.019v.009h.01l.027.028.02.028.009.029.01.019.009.028v.066l-.01.038-.01.009-.009.019-.019.028-.01.01-.008.009-.029.019-.037.01.018.018.02.019.018.019.01.019.018.028.02.038.056.094.217-.585.01-.009h.122l.018.01v.009l.217.622.01.028h-.029zm-.226-.292l-.047-.16-.057.16h.104zm.274.283l.009-.613v-.019h.151v.02l-.01.499.264.01h.02v.132h-.02l-.396-.01h-.018v-.019zm-9.372.99l.114-.038.009-.01.01.02.103.32.01.019v.019l.018.038.01.018v.01h.01l.009.019.019.01h.047l.019-.01h.009l.01-.01h.009l.019-.01.01-.018v-.01l.009-.009v-.047l-.01-.028-.01-.02-.009-.037-.103-.32-.01-.02h.019l.104-.046h.019v.01l.103.31.02.047.009.047.009.038v.028l.01.02-.01.028v.018l-.01.02v.019l-.009.009-.01.028-.028.028-.018.019-.029.01-.019.018-.037.01-.01.01h-.019l-.009.009-.047.009h-.038l-.028-.01h-.019l-.019-.009-.019-.01-.01-.009H4.11v-.01l-.028-.018-.01-.028-.018-.02-.019-.037-.01-.038-.018-.047-.104-.32v-.01l.01-.01zm.717.405l-.18-.594-.009-.01.02-.009.103-.037h.01l.301.273-.104-.33-.01-.019h.02l.094-.037.019-.01.01.02.178.593.01.01-.019.009-.104.038H4.95l-.292-.274.104.33v.019h-.01l-.103.038-.01.01-.009-.02zm.528-.198l-.18-.594-.009-.01.02-.009.103-.037.019-.01.01.02.178.593.01.01-.02.009-.103.038-.019.01-.01-.02zm.349-.122l-.368-.528-.01-.02.02-.009.122-.037.01-.01.009.01.226.349.01-.425v-.018h.009l.113-.038.019-.01v.029l-.019.66v.009h-.01l-.112.038-.01.01-.01-.01zm.358-.132l-.15-.604v-.01l.009-.008.405-.123h.01l.009.019.028.094v.019l-.01.01-.282.075.028.103.255-.075.019-.01v.02l.028.103v.02h-.01l-.254.074.028.132.292-.084h.01l.01.01.018.103.01.019h-.02l-.405.122-.019.01-.009-.02zm.51-.16l-.152-.594v-.02l.01-.009.235-.056.02-.01h.019l.009-.01H6.628l.037.02.029.019.019.028.009.019.01.028.009.028v.01l.01.01v.065l-.02.047v.01h-.01v.01l-.008.009-.02.028-.028.019.02.01.018.008.019.02.019.018.028.02.019.027.094.095.019.028h-.019l-.132.038h-.019l-.113-.114-.028-.028-.019-.019-.019-.01-.01-.009-.009-.009h-.01v-.01H6.496l-.018.01h-.02l.058.236v.019l-.02.01-.103.027h-.019v-.019zm.046-.396l.066-.02.038-.009.028-.01.02-.009.009-.01h.009v-.008l.01-.01V28.03l-.01-.01-.01-.01L6.572 28h-.038l-.028.01-.038.01-.075.018.028.123zm.443.037l.104-.037.01-.01.009.019.01.019.018.028.01.01.009.009h.01v.01h.075l.01-.01h.009l.028-.01.01-.018.009-.02v-.009l.01-.01-.01-.018v-.019h-.01l-.009-.01-.019-.009h-.151l-.01-.01-.046-.008-.038-.01-.01-.01-.009-.009h-.01l-.009-.01-.028-.046-.019-.047-.01-.029v-.019l.01-.028v-.038h.01v-.019l.028-.028.019-.028h.01l.018-.019.028-.01.029-.009.028-.01.056-.009.038-.009.047.01.038.018.028.02.029.027.018.038.02.047v.01l-.01.01-.113.027-.02.01v-.019l-.009-.01v-.009l-.018-.019-.01-.01-.01-.009h-.037l-.019.01h-.019v.01l-.028.009-.01.01v.009h-.009v.019l.01.018.009.01h.01l.009.01h.16l.028.009.029.009h.019l.028.019.019.01.019.018v.01h.009v.009l.019.038.019.037v.076l-.01.037-.01.029-.018.028-.01.019-.028.019-.019.019-.028.018-.038.01-.028.01-.056.009h-.095l-.037-.02-.01-.009-.01-.009H6.93l-.01-.01-.037-.056-.028-.066-.01-.01.02-.009zm.566.085l-.132-.613v-.019h.019l.104-.028h.018l.01.019.122.603v.02h-.009l-.113.027h-.019v-.009zm.104-.679l.207-.047.038-.01H7.88v.01l.038.01.038.018v.01h.01l.009.01v.009l.028.028.028.038v.01l.01.009v.009l.01.01.009.047.018.066V27.859l.01.01v.094l-.01.037-.009.029-.01.037-.018.029-.01.018-.019.02-.018.018-.02.01-.028.009-.018.01-.029.009-.028.01-.207.046h-.02v-.019l-.122-.603v-.019h.01zm.16.104l.066.377.066-.019h.028l.01-.01h.018l.01-.009.01-.01h.009l.01-.008.009-.01v-.01l.01-.009v-.103l-.01-.048v-.018l-.01-.02-.01-.037-.009-.028-.009-.01-.019-.019-.01-.009-.009-.01-.01-.009h-.066l-.018.01h-.038l-.028.009zm1.018.32l-.122.02-.01.009-.01-.02-.056-.112-.198.028-.028.142v.009h-.01l-.122.028h-.019v-.028l.123-.65v-.01h.01l.122-.019H8.4l.01.01.31.575.02.019H8.71zm-.273-.235l-.076-.151-.028.17.104-.02zm.254-.424l.208-.029h.028l.028-.01h.029l.028.01h.019l.01.01.037.01.028.027.01.01.009.01.028.037.02.038h.009v.019l.009.009v.01l.01.056.009.057.01.037V27.756l-.01.018v.028l-.019.038-.01.028-.018.029-.01.018-.019.02-.028.009-.019.019h-.01l-.009.009H9.06l-.038.01-.037.009-.208.028h-.019V28l-.085-.613v-.018h.02zm.142.122l.047.368.066-.01h.047l.01-.009h.009l.01-.01h.009l.01-.009.009-.01.009-.009v-.01l.01-.018v-.132l-.01-.019v-.01l-.01-.037-.009-.028v-.01l-.01-.01-.009-.018-.019-.019h-.009l-.01-.01h-.009l-.019-.009H8.928l-.028.01H8.87l-.037.01zm.48.424l-.056-.622v-.019h.01l.414-.037h.02v.009l.009.104v.019H9.7l-.292.028.019.104.264-.02.01-.009v.02l.018.103v.019H9.7l-.264.028.01.132.301-.028h.01l.01.019.008.103v.02h-.018l-.425.037h-.018v-.01z"/>
        <path fill="#00923F" d="M5.411 10.286l-.066.282-.066.293-.065.292-.048.245-.018-.01-.01-.009-.019-.037v-.029l-.01-.019-.009-.01h-.066l.02-.056.018-.066.01-.075v-.075l-.01-.076-.01-.066-.018-.066-.028-.056-.048-.085-.056-.076-.057-.056-.056-.066-.132-.113-.113-.123-.066-.066-.066-.057-.076-.037-.075-.02-.066-.018-.057-.028-.066-.029-.056-.037-.048-.029-.047-.009-.047-.01h-.037l-.095.02-.085.037-.047.01-.047-.01-.066-.019-.056-.019-.132-.047-.132-.037h-.01v.01h.01l.122.056.113.066.113.056.104.066.189.142.16.141.15.141.133.151.122.151.113.142.076.094.132.141.113.142.057.075h.056v.01l-.01.009-.037.019-.038.019-.019.01-.018.009-.01.009v.038l.019.01.019.018.019.01.037.009.038.028.028.047.01.057.01.019.009.028.01.01.018.009.019-.01.019-.01.019-.018.009-.028.019-.047.028-.047-.019.197-.028.198-.019.198-.028.189-.019.198-.019.188-.028.19-.019.188H4.94l-.028.01h-.028l-.02.018-.009.028-.019.028-.009.029-.01.028-.018.019-.02.019-.018-.02-.01-.018v-.038l.01-.037.01-.085.018-.104.02-.104V12.784l-.01-.047-.02-.029-.018-.028-.047-.085-.057-.084-.066-.066-.075-.066-.142-.123-.122-.141-.066-.057-.076-.057-.084-.047-.076-.037-.132-.057-.141-.066-.047-.019-.047-.01-.048-.009h-.047l-.094.02-.104.027-.047.01h-.047l-.066-.01-.066-.018-.15-.057-.152-.057h-.01v.01l.01.01.142.056.132.066.122.075.123.066.104.076.103.075.095.076.094.075.16.16.15.17.142.16.123.16.094.114.094.113.095.113.094.104.019.018.01.02h.009l-.01.018v.038l.02.01.018.018.028.01.047.018.048.029.037.103.047.095-.028.235-.028.236-.019.226-.019.236-.028.226-.019.227-.019.226-.019.226-.019-.019-.018-.01-.01-.037-.01-.047-.009-.01-.019-.018H4.544l.028-.076.02-.066.009-.056v-.057l-.01-.047-.01-.038-.018-.037-.028-.029-.057-.066-.066-.075-.056-.076-.066-.084-.038-.076-.066-.066-.066-.066-.085-.047-.094-.047-.076-.047-.075-.057-.066-.056-.057-.047-.066-.038-.075-.028-.075-.01-.095.019-.094.01-.104-.01-.094-.01-.132-.018-.132-.038-.123-.028-.132-.047-.037.009-.02.019.01.019.029.019.141.056.132.057.132.056.113.066.113.066.113.066.095.076.094.066.17.15.16.151.15.151.133.16.094.095.094.103.095.095.094.094v.019l-.01.01-.018.009-.029-.01-.094-.094-.085-.094-.094-.095-.085-.094-.141-.15-.142-.152-.15-.15-.17-.151-.095-.066-.094-.076-.113-.066-.104-.066-.122-.056-.123-.057-.132-.056-.141-.057h-.029l-.009.019v.028l.019.029.028.075.038.075.028.066.028.076.02.075.018.066.01.076.009.075.019.085.019.075.01.085.009.085.037.057.047.037.057.038.066.028.453.095.056.028.057.047.028.047.028.066v.094l.01.085.01.029.018.028.019.028.028.019.085.028.085.057.085.037.075.029.085.01.075.009.038-.029.028-.028.029-.038.018-.037.048-.085.056-.066.038-.019h.028l.019.01.01.018.018.02v.027l.029.057.018.066.01.028.01.028.018.02h.047l.02-.02.009-.028.018-.028.029-.066.028-.047h.01v-.01l-.01.236-.019.226-.01.227-.018.226-.01.226-.009.217-.01.226v.217l-.037-.028-.01-.02-.009-.027-.01-.02-.009-.027-.01-.01-.037-.01H4.44l-.028-.009-.019-.028-.028-.047-.01-.057-.009-.066-.01-.085v-.273l-.009-.057-.019-.047-.028-.047-.038-.038-.037-.028-.057-.019-.066-.019-.047-.018-.047-.029-.038-.028-.038-.028-.028-.038-.028-.038-.028-.047-.029-.047-.037-.047-.038-.047-.038-.029-.037-.028-.038-.028-.047-.019-.047-.01-.048-.009-.075-.019-.066-.019-.075-.047-.076-.047-.047-.019-.057-.009-.047-.01H2.923l-.048.02-.056.009-.047.028h-.057l-.066-.01-.066-.009-.066-.019-.15-.047-.16-.066h-.03l-.009.01v.037l.02.038.16.057.15.066.132.056.132.076.123.066.122.075.104.075.104.085.198.16.17.16.16.17.15.17.104.113.104.114.113.103.113.104.01.019V17.659l-.01.008-.028-.009-.038-.01-.103-.103-.104-.104-.104-.113-.103-.113-.151-.16-.151-.17-.17-.16-.188-.16-.104-.076-.104-.075-.122-.076-.114-.075-.132-.066-.14-.057-.142-.066-.16-.056h-.02l-.018.01.01.027.008.038.038.075.028.076.038.075.028.085.029.076.019.075.01.075.008.085v.085l.01.085.019.094.028.085.038.057.047.047.066.038.066.028.122.038.123.028.123.019.122.019.038.018.028.01.028.019.029.028.019.028.018.029.01.037.01.038-.01.047-.01.038.01.037.01.038.009.038.028.038.019.028.028.028.057.01.047.018.047.029.038.037.037.029.048.028.037.019.047.019.038.01H3.856l.047-.01.038-.038.028-.028.028-.038.029-.047.018-.047.02-.038.028-.038.037-.028h.076l.066.028.037.02.02.018.018.01.01.018.028.057.01.066.009.028.01.028.018.02h.047l.019-.02.019-.028.019-.028.028-.066.028-.047.01-.01.01-.01V18.828l.009.198.009.198.01.189-.029-.02-.028-.018-.019-.038v-.038l-.01-.018-.018-.01-.029-.01H4.46l-.028.01-.019.01-.01.018-.018.029-.019.047-.019.047.019-.113.01-.104v-.085l-.01-.066-.019-.066-.019-.047-.028-.047-.028-.028-.085-.057-.076-.066-.075-.075-.057-.094-.028-.048-.038-.037-.037-.038-.038-.028-.075-.057-.095-.038-.084-.028-.085-.038-.085-.056-.094-.057-.066-.056-.076-.029-.085-.018h-.075l-.104.028-.094.019-.104.01h-.104l-.14-.01-.152-.02-.141-.027-.142-.029h-.018l-.02.01-.009.019V18.1l.02.01.009.009.17.038.15.037.141.048.142.047.132.056.122.047.114.066.113.057.217.132.188.141.18.142.169.141.122.095.114.094.113.085.122.084.01.029v.019h-.029l-.047-.02-.113-.075-.104-.085-.113-.094-.113-.085-.17-.141-.179-.141-.188-.132-.208-.132-.103-.057-.123-.066-.122-.047-.123-.057-.141-.047-.142-.047-.15-.038-.16-.028h-.02V18.214l.01.02.037.075.038.075.047.075.038.066.038.076.028.085.028.075.01.076.01.084.018.085.028.085.038.085.047.056.057.038.066.028.066.029.122.019.123.018.122.01h.123l.047.01.047.009.028.01.029.027.028.02.01.028.009.037.01.047-.01.057v.057l.01.047.018.037.019.029.019.028.028.01.028.018.104.029.094.037.085.038.085.019.094.01.085-.01.038-.019.028-.028.028-.047.01-.057.019-.057.019-.047.028-.037.028-.029.038-.028.047-.019h.047l.047.01.02.009.009.019.028.047.019.066.01.028.009.029.009.018.028.01.02-.01.018-.018.019-.02.019-.037.028-.057.028-.056.029-.019.028-.01.01.227.018.236.028.226.02.226.028.226.028.227.038.226.037.217-.037-.02-.029-.027-.01-.029-.009-.037-.009-.01-.019-.01-.019-.009h-.037l-.038.01-.019.01-.019.018v.019l-.01.038-.009.037-.028.02-.028.009v-.076l.01-.094v-.085l-.01-.085-.01-.075-.019-.076-.028-.066-.038-.047-.084-.056-.076-.066-.066-.076-.075-.094-.066-.076-.066-.065-.085-.057-.094-.038-.085-.028-.094-.028-.085-.057-.085-.056-.076-.048-.075-.037-.085-.01h-.075l-.104.029-.104.018-.094.01-.104.01-.141-.01-.142-.019-.15-.019-.142-.028h-.019l-.009.01-.01.009-.009.019v.018l.01.02.009.018.019.01.16.028.16.038.142.047.141.047.132.056.132.057.113.056.113.066.217.132.189.132.179.142.18.141.112.104.113.094.113.104.123.085.01.01.009.018v.01l-.01.009-.009.01H4.469l-.02-.01-.122-.094-.103-.095-.114-.094-.113-.104-.17-.132-.178-.14-.198-.142-.208-.132-.113-.057-.113-.057-.123-.056-.132-.057-.132-.047-.15-.037-.151-.048-.16-.028H2.14l-.01.01.01.018.019.029.047.075.047.076.038.065.028.076.038.085.028.075.02.076.027.066.029.094.018.094.02.076.028.075.047.057.056.047.066.028.066.01h.132l.132.009.123.019.113.019.094.028.057.038.028.028.01.028.009.028.01.029v.132l.018.037.02.038.018.028.028.029.038.019.047.009.057.01.047.018.047.029.094.028.085.019.085.01.085-.01.037-.038.029-.038.019-.037.018-.048.02-.047.018-.047.028-.038.029-.037.047-.02.056-.018.057-.01.057-.009.028.019.019.019.019.038.018.056v.028l.01.02.019.018.019.01.018-.01.02-.019.018-.019.01-.018.028-.057.019-.047.037-.028.038-.02.066.33.076.33.084.321.095.32-.02-.009-.018-.019-.085-.056-.075-.066-.076-.076-.056-.094-.066-.075-.076-.066-.085-.057-.084-.037-.104-.029-.085-.037-.085-.048-.085-.056-.066-.047-.066-.029-.085-.018h-.084l-.104.028-.104.019-.103.01-.095.009-.141-.01-.151-.019-.141-.019-.142-.028h-.019l-.019.01-.018.018v.048l.009.028.01.019.018.01.17.027.16.038.151.047.142.047.132.047.132.057.122.057.113.066.217.132.198.141.18.141.169.151.094.076.104.066.104.056.103.057.01.028-.01.028-.01.01h-.037l-.094-.057-.104-.066-.104-.066-.094-.085-.17-.141-.179-.141-.188-.142-.217-.132-.113-.056-.123-.066-.122-.057-.132-.047-.142-.047-.15-.038-.151-.038-.17-.037h-.01l-.009.01.01.009.009.009.038.066.047.066.037.075.038.085.113.302.029.085.028.085.028.084.01.085.056.057.066.038.057.037.066.01.056.028.066.01h.066l.057-.01h.188l.057.019.066.028.056.047.029.028.01.029.018.037v.038l.019.085.028.085.02.028.018.02.028.018.038.019h.047l.047.01.057.018.047.038.085.028.085.019.094.01.085-.01h.019l.018-.019.02-.01.009-.028.019-.047.018-.056.038-.085.047-.085.047-.038.066-.038.029-.009h.028l.019.019.019.019.019.047.009.056.01.02.009.028.01.01.018.008.019-.009.019-.01.01-.009.009-.028.028-.038.019-.047.113.302.132.301.132.293.15.292-.037.085-.057.066-.009-.066-.01-.057-.028-.056-.028-.057-.038-.047-.037-.047-.057-.047-.057-.029-.094-.028-.094-.028-.094-.038-.104-.056-.094-.038-.085-.028-.104-.02h-.094l-.104.01h-.094l-.104-.01-.094-.018-.076-.019H4.29l-.076.019-.085.038-.075.075-.085.057-.085.056-.094.038-.15.038-.133.037-.141.047-.132.038-.02.019v.028l.02.029.019.009.17-.038.16-.028.15-.028.142-.01.141-.01h.274l.132.01.245.029.235.047.227.047.217.056.113.029.122.028.113.028.113.029.02.018-.01.02-.019.009h-.047l-.104-.029-.104-.018-.103-.029-.113-.028-.208-.057-.226-.047-.226-.037-.245-.038-.132-.01h-.264l-.142.01-.141.019-.151.019-.16.028-.16.047-.02.01v.018l.01.02.028.018.274.198.066.047.056.057.047.066.048.066.047.075.056.075.057.057.066.057.066.018.075.02H4.29l.113-.029.122-.038.113-.047.114-.047.047-.01h.066l.037.01.029.01.028.018.028.02.029.027.018.048.02.047.028.028.028.038.028.019.038.018.028.01.038.01.056-.02.048-.009h.056l.047.01h.085l.085-.02.085-.028.085-.056.028-.038.01-.047v-.047l-.01-.047-.01-.066v-.048l.01-.047.019-.028.103-.085.01.047.019.038.01.019.009.01.009.009.019.01.019-.01.028-.02.019-.027.01-.029.037-.075.028-.047.16.273.151.255.16.245.16.236.17.235.17.226.189.227.207.235.132-.037.142-.029.132-.028.141-.028-.236-.208-.207-.216-.207-.208-.189-.217-.18-.226-.178-.236-.17-.254-.17-.283.048-.085.047-.085.037-.028.038-.019.028-.019.02-.037.028.028.028.028.01.01.018.019.01.018v.029l.009.01.019.009h.075l.047-.02.038-.009.047-.028.038-.019.066-.047.075-.019.047-.047.038-.038.01-.028.009-.028.01-.029v-.066l.009-.028.01-.028.009-.019.047-.038.047-.028.104-.01.094-.018.094-.01.085-.028.057-.019.047-.028.038-.038.037-.038.029-.066.018-.066.01-.066v-.075l.01-.057.009-.066.019-.056.028-.057.066-.122.047-.113.019-.029V23.456h-.028l-.123.038-.113.056-.104.047-.104.057-.179.113-.16.123-.15.122-.133.132-.122.132-.114.123-.075.085-.066.075-.075.076-.066.066-.029.018-.018-.009-.01-.019.01-.019.075-.075.066-.076.075-.075.066-.075.123-.132.132-.132.132-.132.15-.132.161-.123.189-.113.103-.057.104-.056.113-.047.123-.048.028-.018v-.038h-.01l-.009-.01-.019.01-.103.038-.123.028-.113.019-.104.01-.085-.02-.075-.009-.076-.01-.084.01-.104.047-.123.038-.066.028-.066.028-.066.047-.066.057-.056.057-.047.047-.066.056-.066.038-.057.047-.056.057-.057.066-.038.075-.028.094-.01.104-.009.113.01.123h-.01l-.019.01h-.019l-.018.018-.02.019-.009.019-.019.047-.028.047-.019.019-.037.01-.16-.312-.161-.32-.141-.32-.132-.321h.009l.019.01.019-.01.028-.02.01-.028.018-.028.029-.056.028-.057.075-.038.047-.047.029.076.028.066.019.019.019.018.019.02h.094l.066-.01.066-.019.075-.028.076-.038.066-.028.047-.038.028-.047.01-.066v-.094l.009-.029.01-.019.018-.018.047-.038.066-.028.085-.02.094-.009.104-.01.094-.018.066-.019.048-.028.037-.038.029-.047.028-.123.028-.132.028-.122.038-.132.047-.113.066-.123.01-.01v-.009h-.01l-.122.038-.113.028-.104.048-.104.037-.188.095-.17.103-.15.104-.142.113-.142.113-.122.113-.085.076-.094.075-.085.066-.085.076h-.019l-.01-.02-.009-.018.01-.019.084-.066.085-.066.085-.075.085-.076.132-.113.132-.113.15-.113.161-.104.17-.104.188-.094.104-.047.104-.038.122-.037.113-.029.029-.028v-.028l-.02-.029-.027-.018-.057.009-.057.01-.056.009-.057.019-.113.037-.104.01h-.16l-.075-.01-.085-.018H6.73l-.056.018-.057.029-.056.047-.057.047-.066.038-.066.037-.075.029-.066.037-.066.048-.057.056-.047.066-.047.066-.047.066-.057.057-.056.047-.029.037-.019.038-.009.047v.047l.01.095.018.094H5.78l-.038.01-.028.009-.019.028-.028.057-.028.056-.029.01-.028.019-.056-.189-.066-.189-.057-.179-.047-.188-.057-.198-.047-.189-.047-.188-.038-.198.029-.066.037-.057.029-.019h.056l.038.01.028.028.029.028.018.038.02.047.009.038.018.038.029.028.037.019.076.01.075-.01.076-.029.066-.037.037-.02.048-.018.037-.019.038-.01.028-.009.02-.01.018-.018.019-.028.01-.029v-.188l.009-.028.019-.029.018-.019.048-.037.066-.02.424-.065.066-.019.056-.028.02-.02.018-.018.019-.028.01-.029.009-.075.019-.075.018-.066.02-.076.075-.264.019-.066.028-.066.038-.066.037-.066.01-.019v-.009l-.01-.01-.01-.009-.122.047-.113.038-.113.047-.104.047-.188.104-.17.104-.16.122-.142.123-.141.113-.132.122-.094.095-.104.094-.104.094-.113.076v.01H5.29l-.019-.01v-.01l.01-.019.103-.084.104-.085.113-.095.104-.103.132-.123.132-.122.15-.123.16-.113.18-.113.189-.104.103-.056.113-.038.113-.047.123-.038.019-.019v-.028l-.01-.028-.028-.01-.066.019-.132.038-.066.019-.075.018-.076.01-.066-.01-.084-.009-.085-.019-.047-.01H6.298l-.047.01-.123.057-.132.047-.075.028-.076.038-.075.047-.066.057-.123.113-.132.103-.066.057-.056.066-.057.066-.056.075-.029.095-.019.094v.094l.02.094H5.1l-.018.02-.057-.33-.047-.321-.047-.33-.038-.33.019.01.019.009.028-.01.019-.01.019-.027.01-.029.027-.066.038-.047.028-.038.029-.028.037-.01.029-.018H5.28l.037.01.047.018.029.028.028.029.019.037.01.048.009.037.019.038.028.028.037.029h.085l.085-.01.076-.019.075-.037.038-.029.047-.019.038-.018.047-.01.028-.01.028-.018.02-.028.009-.029.009-.075v-.132l.01-.028.018-.029.02-.019.018-.028.028-.01.038-.018.038-.01.047.01h.17l.113-.028.103-.047.057-.029.047-.037.057-.038.047-.038.028-.085.019-.075.019-.076v-.075l.01-.075.009-.066.028-.066.028-.076.057-.141.075-.123-.141.038-.132.038-.123.047-.122.047-.104.056-.104.048-.103.056-.095.066-.17.123-.16.132-.15.122-.142.132-.104.095-.103.094-.095.094-.113.085-.019.01H5.204l-.01-.01v-.019l.029-.028.104-.085.103-.085.104-.094.094-.094.151-.132.151-.132.16-.132.17-.123.094-.057.104-.066.104-.056.113-.047.122-.047.123-.048.132-.047.141-.037.029-.02.018-.028v-.047l-.009-.019-.01-.018-.028-.01h-.028l-.132.057-.123.028-.122.019h-.132l-.085-.028-.085-.02-.047-.009-.047.01h-.057l-.047.019-.066.037-.066.038-.066.019-.066.01-.085.018-.084.038-.066.056-.066.066-.057.076-.066.066-.066.047-.075.047-.057.019-.047.028-.038.029-.037.028-.02.038-.028.037-.009.047-.01.048v.132l-.009.132-.019.122-.019.141-.028.01H5.1l-.018-.01-.02-.037-.009-.038-.01-.038-.009-.019-.018-.009-.029-.01-.056.01-.029.01-.018.018-.02.029-.009.028-.019-.226-.009-.227-.01-.226-.009-.226-.01-.226v-.689l.076.038.076.038.018.056.02.066.009.029.01.028.018.019h.047l.019-.02.028-.018.02-.028.027-.066.02-.057.009-.028.028-.019.028-.01.038-.009-.028.047-.01.038.01.047.01.047.046.02.047.018h.048l.056-.01h.028l.02.01.018.019.01.019.018.037v.057l.01.057.01.047.018.019.019.009h.047l.075-.038.076-.028.075-.01.076.01.056.01.047-.01.038-.028.038-.047.038-.123.047-.132.037-.057.038-.047.047-.047.047-.028.114-.019.113-.019.103-.019.113-.01.066-.018.048-.028.047-.047.037-.047.029-.085.019-.076.018-.075.01-.076.028-.141.047-.141.057-.132.066-.132v-.029l-.132.038-.123.038-.122.047-.113.047-.198.104-.189.113-.16.122-.16.123-.142.132-.132.123-.104.094-.103.094-.104.085-.104.085-.028.019H5.374V17.62l.028-.028.104-.085.094-.085.104-.094.103-.094.142-.132.141-.123.16-.132.16-.122.19-.113.207-.104.113-.047.122-.047.123-.048.132-.037.028-.01.02-.019.009-.028v-.019l-.01-.019-.019-.009-.019-.01h-.028l-.066.029-.056.028-.057.019-.066.01-.132.018H6.77l-.094-.028-.094-.01h-.085l-.095.01-.122.057-.142.047-.094.037-.075.038-.076.047-.056.057-.142.132-.122.104-.076.066-.056.066-.057.066-.056.075-.02.047-.018.047-.01.047-.009.048V17.375l.01.047.018.057-.028-.019-.038-.01-.018-.018-.02-.01-.009-.028-.01-.019-.018-.037-.01-.048v-.01l-.018-.018H5.044l-.028.01-.02.009-.009.019-.01.028-.018.047-.028.038-.066.038-.066.037v-.207l.01-.207v-.208l.009-.207.009-.208.01-.207.009-.208.01-.207.037.019.038.019.019.056.018.066.01.029.01.028.018.019h.047l.02-.02.018-.027.01-.029.028-.066.037-.047.02-.019.018-.018.028-.01.029-.01.047-.009h.047l.047.01.047.028.057.066.038.075.018.047.02.038.027.028.038.02.076.009h.075l.075-.029.076-.047.047-.028.038-.019.047-.019.047-.009.019-.019.028-.019.019-.028.01-.028.009-.076v-.085l.028-.066.047-.047.047-.037.057-.029.104-.01.113-.009.113-.018.104-.029.066-.019.047-.037.047-.038.047-.047.019-.076.01-.075.018-.085.02-.075.027-.142.047-.132.057-.141.066-.132.019-.019v-.01l-.01-.009h-.018l-.123.038-.123.038-.122.047-.104.047-.207.104-.18.113-.169.122-.15.123-.142.122-.132.132-.104.095-.104.094-.103.085-.104.085-.028.01-.01.009-.019-.01v-.028l.02-.028.112-.076.095-.094.103-.085.104-.094.132-.132.15-.123.152-.132.17-.122.188-.114.207-.103.104-.057.123-.037.122-.048.132-.037.01-.01.01-.019v-.038l-.01-.009-.01-.019-.01-.01H7.26l-.141.048-.132.028-.123.02-.113.009h-.094l-.085-.01-.094-.01-.094-.009-.066.01-.066.019-.066.037-.066.038-.076.057-.075.037-.076.047-.075.038-.076.038-.066.056-.066.066-.056.076-.075.056-.066.066-.057.076-.047.075-.02.057-.008.075v.377l-.02.038-.028-.019-.028-.01-.028-.027-.019-.029-.019-.047-.01-.038v-.009l-.018-.019H5.025l-.028.01-.02.009-.009.019-.009.019-.019.056-.028.038-.019.019-.028.01.019-.246.018-.245.02-.245.018-.245.028-.245.02-.245.028-.246.028-.245.056.02.048.037.028.047.019.066.01.028.009.029.009.018.028.01.02-.01.027-.018.02-.02.009-.028.028-.066.028-.056.029-.028.037-.01.047-.01h.048l.047.02.047.018.056.066.038.085.019.038.019.028.028.038.038.028h.075l.085-.01.075-.018.066-.038.038-.028.038-.019.047-.019.047-.01.028-.018.02-.019.018-.019.01-.028.018-.075v-.132l.01-.02.01-.028.018-.018.057-.048.075-.028.113-.019.104-.01.113-.009.113-.028.047-.028.057-.028.047-.038.047-.057.028-.066.02-.075.009-.085.01-.085.009-.066.018-.075.029-.066.019-.066.075-.132.057-.142.009-.009v-.019l-.019-.01-.132.038-.122.048-.114.047-.113.047-.207.104-.18.113-.169.122-.15.123-.142.132-.142.122-.103.095-.104.094-.104.085-.103.085-.02.009-.018.01h-.01l-.009-.01v-.019l.028-.028.104-.085.104-.085.103-.094.095-.094.141-.132.142-.123.16-.132.17-.123.188-.113.207-.103.114-.057.113-.038.132-.047.132-.037.019-.02.009-.009v-.037l-.01-.01-.009-.019-.019-.01h-.019l-.122.048-.132.028-.123.02-.122.009-.095-.029-.094-.01-.085-.009-.094.02-.16.056-.151.075-.15.076-.142.094-.142.104-.122.113-.057.056-.056.066-.057.076-.047.066-.01.037-.018.029-.01.037v.038l-.01.076.01.084.01.066.009.066v.048l-.019.018-.019-.009-.028-.01-.01-.018-.018-.02v-.046l-.01-.038-.01-.01-.018-.009-.038-.01h-.047l-.028.01-.019.01-.01.018-.018.029-.01.047-.028.047-.038.019-.047.019.01-.066.037-.029.038-.018.019-.01.01-.01.009-.018v-.028l-.01-.038-.018-.028-.029-.02-.037-.028.028-.207.028-.207.019-.208.028-.217.029-.207.028-.207.019-.208.028-.217.047.02.038.027.019.038.019.057v.028l.009.019.019.01.019.009.019-.01.009-.01.019-.018.01-.028.018-.047.028-.038.038-.028.038-.02-.01.048-.01.047-.009.019v.038h.066l.048.009.056.01.047.009.038.028.028.038.02.038.009.047v.066l.018.047.01.019h.066l.075-.029.085-.028.076-.01h.132l.047-.009.037-.028.029-.038.094-.264.028-.056.038-.047.047-.038.057-.028.433-.066.085-.02.057-.027.019-.029.018-.019.02-.028.009-.028.066-.311.075-.274.019-.075.028-.066.038-.066.047-.066v-.01h-.01l-.131.038-.123.038-.113.047-.113.047-.208.104-.179.122-.17.114-.16.132-.141.122-.132.132-.104.094-.103.095-.104.085-.104.084-.028.01-.01.01-.018-.01v-.029l.018-.028.114-.075.094-.094.104-.085.103-.095.142-.132.141-.132.16-.122.17-.123.189-.122.207-.104.113-.047.113-.047.132-.038.132-.047.029-.01.009-.028.01-.019v-.028l-.01-.019-.019-.01-.019-.009h-.028l-.132.057-.123.038-.066.009-.056.01h-.066l-.057-.01-.094-.019-.094-.01-.095-.009-.084.01-.132.037-.142.066-.113.057-.113.075-.113.066-.104.085-.104.085-.094.094-.085.104-.085.123-.018.028-.02.047-.009.038-.01.047v.113l.01.066.02.076-.048-.038-.047-.038-.01-.028-.009-.038v-.01l-.019-.009-.019-.01-.037.01H5.43l-.01.01-.008.019-.01.018-.019.038-.019.038-.028.019-.028.009.038-.292.037-.292.038-.293.038-.292h.009v.01l.028-.01.02-.019.018-.028.019-.028.028-.057.029-.057.037-.028.038-.019.019-.01.019-.018.009-.019v-.047l-.01-.019-.018-.019-.02-.019-.046-.037-.038-.029-.019-.037v-.029l.038.02.038.037.018.01.029.009h.028l.028-.01.066-.047.057-.056.047-.057.057-.066.047-.075.056-.076.01-.037.01-.029v-.037l-.01-.029-.029-.066-.047-.066-.019-.018-.009-.029V9.164l.028-.066.047-.076.076-.085.085-.075.085-.066.084-.066.029-.028.028-.02.019-.027.01-.029.009-.066-.01-.066-.019-.075-.018-.066-.038-.075-.038-.076-.047-.141-.038-.132-.01-.076-.009-.075-.009-.076-.01-.075v-.019l-.009-.01h-.019l-.085.123-.066.113-.066.104-.056.113-.047.113-.047.104-.038.104-.038.104-.047.207-.038.198-.028.188-.028.189-.02.141-.018.132-.019.142-.028.132-.028-.01h-.029v-.01l.029-.122.028-.141.019-.132.01-.132.028-.198.028-.189.047-.207.047-.207.038-.104.037-.104.048-.113.047-.113.056-.113.066-.113.076-.113.085-.123.009-.019v-.038l-.01-.009-.018-.01-.02-.009-.018.01-.019.009-.094.075-.094.095-.095.094-.085.094-.075.066-.085.047-.085.038-.075.028-.047.01-.028.028-.029.019-.028.028-.01.038-.018.028-.01.038v.038l-.019.085-.037.075-.047.075-.057.085-.047.085-.028.085-.02.085v.085l.01.094-.01.094-.018.085-.028.085-.02.104-.009.084.02.085.027.076.048.075.066.066.084.057.095.047h.047l.047-.02.047-.027.047-.038.01-.01.019.02h-.01l-.019.009-.019.01-.018.018-.01.028-.019.047-.028.048-.038.028-.056.019-.02.01-.018.009-.01.018v.02l.01.028.028.018.029.01.037.019.029.01.028.027.028.048.01.066zM5.29 23.164l.01.038.018.047-.066.037-.01-.01.03-.037.027-.075h-.01zm8.966-2.517l-1.471 2.866.104.17 1.527-2.99-.085-.018-.075-.028zm-3.979-5.534l-.01-.057-.018-.047h.113l.038.094.019.085.075.038-.019-.113-.019-.104h.076l.037.056.029.076.028.085.019.075.066.028-.028-.122-.01-.104h.066l.038.057.028.075.028.085.02.075.028.01-.029-.113-.01-.104h.076l.029.057.037.084.029.076.018.075.029.02-.029-.123-.009-.114h.075l.038.066.028.085.029.085.019.076.028.009-.028-.273.028-.02.028-.018.047.094.038.094.028.095.02.103.037.029-.076-.311H11.445l.029.037.018.047.02.048.018.047.028.103.02.095.009.018-.076-.377H11.596l.038.048.019.056.028.057.01.066.028.122.018.104.02.01-.067-.34h.076l.047.085.038.113.018.113.02.104.028.01-.076-.387h.076l.028.047.028.047.019.066.01.066.028.122.019.114-.132-.066.084.047.085.047-.075-.387H12.096l.028.047.019.048.019.066.019.066.028.122.019.113.01.01-.076-.434h.094l.028.057.029.056.018.066.02.076.028.141.018.132.038.028-.085-.471h.095l.037.056.029.076.018.066.029.085.028.15.019.142h.01l-.01-.51.047.01h.057l.018.066.02.076.009.075.01.085v.302l.009.01.084-.529.047.01.048.018.01.066.008.076v.075l-.009.085-.019.151-.028.141.019.01.075-.519.047.02.047.009.01.066.01.075v.075l-.01.085-.019.151-.028.142.019.009.075-.5.047.02.047.018.02.057V16.508l-.03.15-.018.142.038.028.066-.49.047.019.056.019.01.056V16.65l-.019.151-.028.132.037.028.076-.49.047.019.047.019.01.066.009.066v.075l-.01.076-.018.15-.029.142.02.019.075-.472.047.01.047.019.01.066.009.066v.075l-.01.075-.018.151-.02.132.02.02.056-.397.047.01.038.019.019.047v.188l-.019.132-.019.123.01.01.056-.397.047.01.047.018.01.057v.179l-.019.132-.019.123.028.028.057-.396.047.019.047.01.01.056v.188l-.02.142-.018.122.01.01.065-.377.038.019.047.009.02.113-.01.132-.01.132-.019.123.01.01.056-.35.048.02.037.018.02.104v.113l-.02.122-.019.123.029.028.056-.349.047.01.038.019.01.047.009.056v.057l-.01.066-.009.123-.028.122.01.01.046-.321.047.019.048.01.01.103v.104l-.02.122-.019.113.02.02.046-.321.057.047.047.047.01.094-.01.095-.01.103-.028.104.01.019.103-.311.038.028.028.028v.095l-.009.103-.028.104-.029.094.02.038.056-.302.066.085.047.066V18.591l.01-.019v-.009l.047-.066.066-.085.047.302.028-.038-.038-.094-.019-.104-.018-.103v-.095l.037-.028.029-.028.103.31.01-.018-.02-.104-.018-.103v-.095l.01-.094.047-.047.047-.047.056.32.02-.019-.03-.113-.009-.122v-.104l.01-.104.047-.01.038-.018.056.32v-.009l-.019-.122-.018-.123v-.179l.009-.047.047-.02.047-.009.057.35.019-.029-.02-.123-.009-.122v-.113l.01-.104.047-.019.047-.019.047.35.02-.01-.02-.123-.019-.132v-.132l.02-.113.037-.01.047-.018.057.377.01-.01-.02-.122-.019-.142v-.132l.01-.056.01-.057.037-.01.047-.018.066.396.019-.028-.019-.123-.01-.132-.009-.056v-.066l.01-.057.009-.057.047-.018.038-.01.066.396.01-.01-.029-.122-.01-.132-.009-.066v-.056l.01-.066.009-.047.047-.02.047-.009.057.396.019-.019-.029-.132-.018-.15v-.217l.018-.066.048-.02.047-.009.066.472.019-.02-.02-.14-.018-.151-.01-.076V16.574l.02-.066.046-.019.048-.019.075.49.038-.028-.029-.132-.018-.15-.01-.076v-.066l.01-.076.009-.056.047-.019.047-.019.076.49.037-.028-.028-.141-.019-.151-.01-.076v-.075l.01-.075.01-.057.047-.019.047-.019.075.5.02-.01-.02-.14-.028-.152v-.235l.01-.066.047-.01.056-.019.076.519.01-.01-.02-.141-.019-.15-.01-.086v-.151l.02-.066.047-.018.047-.01.076.528.009-.01v-.14l.01-.161v-.085l.018-.075.01-.076.028-.066h.047l.057-.01-.01.51h.01l.018-.141.029-.151.019-.085.028-.066.028-.076.028-.056H17.903l-.094.471.038-.028.028-.132.028-.141.02-.076.018-.066.028-.056.028-.057h.095l-.085.434.019-.01.019-.113.018-.122.02-.066.018-.066.028-.048.029-.047h.075l-.075.387.028-.019.019-.01.019-.113.019-.122.018-.066.02-.066.018-.047.028-.047H18.412l-.075.386.028-.01.01-.103.028-.113.038-.113.037-.085H18.563l-.066.34.01-.01.018-.104.029-.122.019-.066.018-.057.029-.056.028-.048h.094l-.085.377.02-.018.018-.095.019-.103.019-.047.019-.048.028-.047.028-.037H18.893l-.085.31.066-.028.02-.019.027-.094.02-.094.018-.094.028-.085.02.019.028.019-.02.273.02-.01.028-.084.028-.085.028-.085.038-.066H19.242l-.019.123-.038.132.057-.029.019-.075.019-.085.028-.085.028-.056h.076l-.02.113-.037.132.038-.02.019-.027.009-.038.01-.057.009-.037.01-.038.028-.047.028-.057h.075l-.01.104-.027.122.066-.028.018-.075.029-.085.028-.076.038-.056h.066l-.01.104-.028.113.075-.038.029-.085.028-.094h.113l-.01.038-.009.047.038-.02.028-.009.01.02-.038.028.141.094-.028.038-.17-.104-.037.019.066.056.056.047-.037.029-.151-.085-.038.019.075.047.048.047-.029.038-.16-.095-.038.02.066.046.057.048-.038.037-.16-.094-.019.01.085.056.066.066-.047.047-.198-.122-.029.018.057.029.038.037.037.029.029.037-.038.038-.217-.122-.028.018.094.085.104.076-.047.056-.264-.16-.057.028.085.047.075.047.057.057.057.047-.057.066-.32-.207-.029.019.076.047.056.047.057.056.047.048-.066.066-.311-.189-.019.01.085.065.075.066.066.066.085.066-.094.029-.368-.208-.01.01.086.056.066.057.066.066.084.075-.094.02-.245-.133.094.085.113.104-.094.019-.349-.189-.028.019.094.047.066.057.076.056.094.066-.085.047-.386-.198v.01l.103.066.085.066.094.066.104.085-.104.056-.443-.245-.037.028.113.057.085.066.084.075.114.076-.104.066-.434-.255-.019.019.113.066.104.066.094.075.114.085-.114.057-.48-.236.113.066.085.066.094.076.113.084-.113.057-.453-.236-.01.01.142.075.113.085.114.085.141.094-.132.066-.415-.217.085.057.075.056.085.066.095.066-.114.066-.264-.132.104.066.132.076-.113.066-.226-.094.103.065.114.076-.114.075-.527-.226-.01.01.132.056.113.066.104.075.132.076-.113.075-.519-.217.132.057.104.066.113.075.132.076-.113.075-.51-.217-.018.02.132.046.113.057.113.066.132.075-.113.066-.528-.17-.028.029.141.038.113.037.123.038.141.057-.103.085-.406-.085.066.019.066.028.066.038.085.037-.085.095-.462-.123-.028.028.15.038.123.038.132.056.142.057-.104.085-.528-.113.113.028.085.038.094.047.123.056-.094.085-.481-.113.122.038.095.037.103.048.123.056-.094.085-.49-.113-.02.019.123.037.104.038.094.047.123.057-.085.094-.471-.113h-.01l.123.038.084.028.095.038.113.066-.094.075-.227-.047.076.038.094.056-.075.076-.377-.095.009-.019-.019.038.104.028.075.029.076.037.094.057-.076.085-.367-.094-.01.01.104.027.076.029.084.037.095.057-.085.085-.368-.095-.038.066-.047.076.085.132.076.141-.085.01h-.095l-.037-.057-.038-.066-.038.066-.028.066h-.104l-.094-.01.085-.14.085-.142-.038-.076-.047-.066-.368.095-.075-.085.094-.057.075-.037.076-.029.104-.028v-.01l-.368.095-.085-.085.104-.057.075-.037.076-.029.103-.028-.028-.038.019.02-.377.094-.085-.076.104-.056.075-.038-.226.047-.094-.075.113-.066.085-.038.094-.028.113-.038h-.01l-.47.113-.086-.094.123-.057.104-.047.094-.038.122-.037-.018-.02-.49.114-.086-.085.123-.056.094-.048.095-.037.122-.038-.48.113-.086-.085.114-.056.094-.047.094-.038.113-.028-.537.113-.104-.085.151-.057.123-.056.122-.038.151-.038-.028-.028-.453.123-.094-.095.085-.037.075-.038.066-.028.066-.02-.415.086-.103-.085.15-.057.114-.038.122-.037.142-.038-.029-.028-.528.17-.113-.067.132-.075.113-.066.113-.057.132-.047-.018-.019-.51.217-.113-.075.123-.076.113-.075.113-.066.123-.057-.519.217-.113-.075.132-.076.113-.075.113-.066.123-.057-.01-.009-.528.226-.113-.075.123-.076.104-.066-.227.095-.113-.066.123-.076.103-.066-.254.132-.123-.066.104-.066.076-.066.084-.056.076-.057-.415.217-.123-.066.132-.094.114-.085.122-.085.132-.075v-.01l-.462.236-.104-.057.114-.084.084-.076.095-.066.103-.066-.48.236-.114-.057.123-.085.094-.075.095-.066.113-.066-.02-.019-.433.255-.094-.066.104-.076.094-.075.085-.066.103-.057-.037-.028-.443.245-.104-.056.113-.085.085-.066.085-.066.113-.066-.01-.01-.377.198-.085-.047.095-.066.066-.056.075-.057.094-.047-.028-.019-.358.189-.085-.02.113-.103.094-.085-.254.132-.085-.019.076-.075.066-.066.065-.057.085-.056-.01-.01h.01l-.377.208-.094-.029.094-.066.066-.066.066-.066.094-.066-.028-.009-.31.189-.057-.066.047-.048.047-.056.066-.047.075-.047-.028-.01-.302.18-.066-.067.047-.047.048-.047.066-.047.066-.047-.02-.02-.263.161-.057-.056.047-.038.038-.038.047-.047.066-.038-.047-.028-.217.132-.038-.047.066-.066.095-.066-.02-.01-.197.114-.038-.038.057-.066.085-.066h-.01l-.16.094-.028-.037.047-.048.075-.047-.047-.028-.16.094-.029-.028.048-.057.066-.047-.029-.019-.15.095-.029-.029.038-.047.056-.037-.094-.085.028.01.038.009zm5.666 5.458l1.132 2.197-.104.179-1.16-2.32.066-.028.066-.028zm7.59-6.26l.179.424.17.368.075.151.085.141.047.057.047.057.047.056.057.047.047.038.056.038.066.028.066.028.066.02.066.018.076.01.085.009.084-.01h.095l.094-.019.113-.018.226-.048.255-.084-.123-.076-.141-.066-.15-.066-.161-.066-.18-.066-.178-.085-.189-.084-.189-.104-.103-.066-.094-.066-.095-.066-.094-.085-.104-.085-.094-.094-.094-.104-.095-.113-.009-.01-.01-.009zm3.667 10.154l-.368.32-.33.274-.141.103-.151.095-.066.037-.066.029-.075.028-.066.019-.076.019-.066.01H25.653l-.076-.01-.075-.02-.075-.027-.076-.029-.085-.037-.085-.048-.084-.056-.085-.066-.189-.151-.207-.188.132-.01.132.01.15.009.142.019.198.019.207.01.217.009.236-.01.122-.019.132-.019.132-.028.132-.038.151-.037.142-.057.16-.056.15-.076.01-.019h.02l.018-.01zm-2.612.273l-.018-.019.15-.113.142-.103.132-.085.122-.066.123-.066.113-.047.104-.038.094-.038.094-.019.095-.01.075-.009h.16l.066.02.066.009.066.019.245.113.227.113.113.047.132.028.056.01H27.086l.075-.01-.15.066-.151.066-.142.047-.141.048-.132.028-.132.028-.123.019-.122.01-.227.009h-.217l-.207-.019-.188-.019-.17-.019-.16-.01h-.16l-.152.01zm3.008-2.611l-.255.405-.226.34-.113.15-.104.123-.056.057-.057.056-.056.038-.057.047-.066.028-.066.028-.066.029-.066.01-.075.018h-.151l-.085-.01-.085-.018-.094-.02-.095-.027-.103-.038-.227-.085-.245-.122.085-.02.094-.018.095-.02.094-.018.207-.038.227-.047.226-.056.245-.085.123-.057.122-.056.132-.066.132-.076.132-.094.132-.094.132-.113.142-.123v-.019l.009-.01h.019zm-2.385.98l.103-.15.104-.123.104-.123.094-.103.094-.095.095-.075.084-.066.085-.057.076-.047.085-.038.075-.028.066-.028.075-.01.076-.009.066-.01h.066l.254.029.246.047.122.01.123-.01.066-.01.066-.018.066-.02.066-.037-.132.123-.132.103-.132.095-.132.085-.123.075-.132.066-.122.057-.123.056-.236.076-.226.066-.217.037-.207.038-.113.028-.114.02-.113.018-.103.028zm2.81-2.988l-.01.028-.01.01-.217.424-.188.358-.094.15-.104.142-.047.057-.057.056-.047.047-.056.048-.057.037-.066.029-.066.028-.066.028-.066.019-.075.01h-.255l-.094-.02-.104-.018-.104-.029-.235-.066-.255-.094.066-.028.075-.019.066-.019.076-.028.226-.057.226-.075.246-.094.245-.114.132-.066.122-.075.132-.075.123-.095.132-.094.122-.113.132-.123.123-.132V20.138l.01-.01.018-.01zm-2.32 1.216l.094-.151.085-.15.094-.123.085-.114.085-.103.085-.085.085-.085.075-.066.076-.047.084-.047.066-.038.076-.038.075-.018.066-.02.066-.009.066-.01.264.01.255.02h.122l.123-.02.066-.019.066-.018.066-.029.056-.037-.113.132-.122.113-.123.103-.122.104-.132.085-.123.075-.122.076-.123.066-.245.103-.236.095-.236.066-.216.066-.095.028-.094.028-.094.029-.085.028zm2.48-3.432l-.17.49-.151.415-.076.18-.084.16-.048.066-.047.075-.047.057-.056.056-.057.047-.057.047-.066.048-.066.028-.075.028-.075.028-.085.02-.085.009h-.311l-.113-.01-.255-.047-.292-.066.085-.038.085-.037.084-.047.095-.038.217-.104.226-.104.236-.132.245-.15.113-.085.122-.095.123-.094.113-.113.123-.122.113-.132.113-.142.104-.15v-.02l-.104.142-.113.141-.113.123-.114.122-.113.104-.113.104-.122.085-.114.084-.235.151-.236.123-.226.104-.217.103-.113.047-.113.057-.104.047-.094.057h-.01l.076-.189.085-.17.075-.14.075-.142.076-.114.075-.113.076-.085.075-.084.076-.066.075-.066.075-.047.076-.038.075-.038.066-.019.076-.028.066-.01.282-.028.274-.019.132-.018.132-.048.066-.028.066-.038.056-.037.066-.057zM28.131 16l-.16.462-.15.396-.076.17-.076.15-.047.076-.038.056-.056.066-.047.047-.057.048-.056.047-.057.037-.066.029-.066.028-.075.019-.085.019-.085.009-.094.01h-.095l-.103-.01-.113-.01-.246-.047-.282-.066.084-.037.095-.047.103-.047.104-.048.198-.094.217-.104.217-.122.226-.142.113-.075.113-.094.104-.095.113-.103.113-.104.104-.123.104-.132.103-.14v-.01l.01-.01.01-.01zm-2.15 1.518l.076-.17.076-.15.066-.142.075-.123.066-.113.075-.094.066-.085.076-.076.066-.066.066-.056.066-.047.066-.038.075-.038.066-.019.066-.028.066-.01.255-.028.254-.018.123-.02.122-.028.057-.018.057-.029.066-.037.056-.048-.094.132-.104.123-.104.113-.103.104-.104.104-.113.084-.104.085-.113.076-.217.132-.217.122-.207.104-.189.085-.122.056-.113.048-.104.056-.094.057zm1.896-3.46l-.151.443-.142.377-.066.16-.075.142-.047.066-.038.056-.047.057-.047.047-.047.047-.057.038-.056.037-.066.029-.066.028-.066.019-.076.019-.085.01h-.282l-.104-.02-.236-.037-.264-.066.132-.085.142-.085.15-.076.16-.066.17-.075.18-.085.17-.094.178-.113.095-.066.094-.076.085-.075.094-.085.085-.094.085-.104.094-.113.085-.113-.01-.02.02-.018.009-.01zm-2.037 1.442l.076-.16.066-.142.066-.132.075-.122.066-.104.066-.094.066-.085.066-.066.066-.066.066-.057.066-.037.066-.038.066-.038.057-.018.066-.02.066-.018.245-.028.235-.01.123-.019.113-.028.057-.028.056-.029.057-.037.056-.038-.075.113-.085.104-.085.104-.094.084-.085.085-.085.076-.085.066-.094.066-.179.113-.17.094-.17.075-.169.076-.17.085-.17.075-.075.047-.075.047-.066.048-.076.056zm1.839-3.488l-.01.01v.009l-.141.415-.132.358-.066.15-.076.142-.075.123-.085.103-.037.047-.057.038-.047.038-.057.038-.056.028-.066.019-.066.019-.066.018-.076.01-.085.01h-.084l-.095-.01-.198-.019-.226-.038-.104-.028-.113-.028.132-.095.142-.094.16-.075.17-.085.17-.076.178-.094.17-.094.18-.113.094-.066.084-.076.095-.075.084-.085.085-.085.085-.094.085-.113.075-.113.01-.01h.01l.009-.01zm-2.037 1.442l.066-.16.076-.141.066-.132.066-.123.066-.104.066-.094.066-.075.066-.076.066-.066.066-.047.056-.047.066-.038.066-.028.066-.028.057-.02.066-.018.245-.028.236-.01.113-.019.113-.028.056-.019.057-.028.057-.028.056-.038-.075.104-.085.094-.076.085-.084.085-.17.15-.17.123-.17.113-.17.094-.169.085-.16.076-.18.085-.178.094-.076.047-.075.047-.076.057-.066.056zm-3.497 9.635l.141.425.132.358.066.16.075.132.038.066.038.057.047.047.047.056.047.038.057.038.047.037.066.029.066.028.066.019.075.01.076.009.085.01h.085l.103-.01.104-.01.226-.037.255-.066-.01-.01-.01-.019-.056-.075-.066-.066-.075-.047-.085-.047-.17-.085-.188-.066-.142-.057-.15-.056-.151-.076-.16-.094-.085-.057-.085-.066-.076-.066-.085-.075-.084-.094-.076-.094-.085-.104-.084-.123-.01-.01-.01-.009zm1.904 1.32l-.066-.15-.056-.133-.066-.113-.066-.103-.057-.095-.066-.085-.066-.075-.057-.066-.056-.057-.066-.047-.057-.037-.066-.038-.113-.047-.122-.028-.227-.029-.226-.019-.104-.01-.113-.027-.047-.029-.056-.018-.048-.038-.056-.038.075.113.076.095.084.084.076.085.075.076.085.056.076.066.075.047.15.085.152.076.15.056.142.057.18.066.169.075.085.047.075.057.066.066.066.075zm-1.188-2.696l.17.415.16.34.076.15.084.132.085.113.095.094.047.038.056.038.057.028.056.028.066.02.066.018.076.01h.16l.085-.01.094-.01.094-.018.217-.047.245-.076-.075-.047-.104-.047-.113-.038-.122-.047-.17-.066-.17-.066-.188-.085-.198-.113-.104-.056-.104-.076-.103-.075-.104-.085-.104-.094-.104-.104-.103-.123-.104-.122-.01-.01-.009-.01zm2.008 1.254l.029-.01-.104.274-.104.264-.113.264-.123.264-.132.254-.14.255-.142.254-.151.245-.16.246-.17.245-.18.245-.188.236-.188.226-.208.226-.207.226-.227.227.114.018.113.029.113.019.113.018.34-.377.32-.386.292-.396.264-.396.255-.396.226-.406.207-.414.189-.415.17-.424.15-.434.133-.434.122-.443.104-.443.085-.462.066-.462.056-.471.047-.481.029-.48.018-.5.01-.5v-.519l-.01-.518-.028-.538-.028-.537-.038-.556-.047-.556-.047-.576-.057-.584-.132-1.197-.15-1.245-.029-.217-.056-.367-.066-.377-.047-.255-.02-.094-.018-.085-.019-.066-.019-.047.142-.198.122-.18.047-.075.047-.085.038-.075.028-.075.02-.066.018-.066.01-.066v-.132l-.01-.057-.01-.066-.018-.057-.057-.113-.066-.113-.094-.122-.104-.114-.264-.245-.31-.282.178.282.123.245.056.104.038.104.028.094.029.085.019.085.009.085.01.085v.084l-.01.17-.01.189-.009.113-.01.122-.009.132-.01.151-.009-.019-.009-.019V9.71l.01-.131.009-.114.01-.103.018-.198v-.255l-.01-.085-.009-.085-.019-.084-.028-.095-.038-.103-.037-.104-.057-.104-.141-.254-.189-.302-.019-.019.02.076.018.056.01.066v.057l-.02.113-.028.113-.085.217-.075.226-.01.057-.009.066-.01.056v.066l.01.076.01.075.018.075.029.076.037.085.048.094.056.094.066.095.076.103.094.113.104.113.113.123.01.057.093.697.095.698.085.698.084.697.085.698.066.688.066.688.047.689-.075-.151-.076-.132-.075-.123-.075-.113-.076-.094-.075-.085-.066-.076-.076-.066-.066-.056-.066-.047-.066-.038-.066-.038-.132-.047-.122-.019-.245-.01h-.236l-.113-.009-.113-.018-.066-.02-.057-.018-.056-.028-.057-.038.085.104.094.094.095.085.084.085.095.075.094.066.094.057.085.056.189.104.179.085.179.075.17.066.17.066.16.066.15.085.132.085.029.49.028.48.01.482v.961l-.01.472-.028.471-.038.462-.038.462-.066.452-.066.453-.085.443-.094.443-.113.434-.132.424-.141.424-.076-.141-.075-.141-.076-.114-.066-.113-.075-.094-.066-.085-.076-.075-.066-.066-.065-.057-.066-.047-.066-.038-.057-.028-.132-.047-.113-.019-.236-.019-.226.01-.113-.01-.113-.019-.057-.019-.057-.018-.056-.029-.057-.037.104.122.094.104.104.094.094.094.104.076.104.075.094.066.094.057.189.104.188.084.17.066.16.057.142.047.122.057.104.056.094.057zm-11.454 6.137l-.142.113-.132.113-.132.114-.122.122-.123.132-.113.142-.104.141-.103.16-.095.16-.085.17-.075.18-.075.188-.066.198-.057.198-.047.217-.038.235.076.01.085.038.084.047.095.056.094.066.085.047.047.02.038.018.047.01h.028l.066-.302.066-.283.066-.273.075-.246.085-.235.085-.217.094-.198.095-.189.103-.17.114-.16.113-.141.113-.132.132-.123.122-.113.142-.103.132-.095-.189.02-.198.018-.188.028-.198.02zm9.804-9.296l.18.434.16.358.085.16.085.133.047.066.047.056.047.047.047.048.057.047.056.037.057.029.066.028.066.019.075.019.076.009h.169l.095-.01.094-.009.104-.019.226-.056.264-.076-.057-.084-.056-.066-.076-.057-.085-.057-.179-.084-.217-.066-.141-.057-.15-.057-.161-.066-.16-.075-.17-.104-.16-.122-.085-.066-.085-.076-.075-.085-.085-.094-.085-.047-.076-.057zm2.122 1.31h.01l-.076-.15-.076-.132-.066-.113-.075-.113-.066-.094-.066-.085-.066-.076-.066-.066-.066-.066-.066-.047-.066-.047-.057-.038-.122-.056-.123-.029-.113-.018-.113-.01h-.443l-.113-.019-.104-.037.075.084.076.076.085.075.075.057.16.113.151.094.16.076.151.066.142.047.141.047.113.047.113.038.104.038.104.056.085.047.075.066.066.076.057.094zm-1.905-3.063l.18.424.17.368.084.15.085.142.038.066.047.057.056.047.047.047.057.038.057.037.056.038.066.019.066.019.075.019.076.01h.17l.094-.01.104-.01.103-.019.236-.056.254-.085-.056-.066-.066-.057-.066-.047-.085-.047-.179-.075-.198-.057-.16-.047-.16-.057-.17-.075-.18-.085-.084-.047-.085-.057-.094-.066-.085-.075-.094-.075-.085-.085-.095-.104-.084-.104v-.01l-.048-.037-.047-.028zm2.103 1.235l-.076-.141-.075-.132-.076-.114-.075-.113-.066-.085-.075-.084-.066-.076-.066-.066-.066-.056-.066-.048-.066-.037-.066-.029-.123-.047-.123-.028-.235-.019-.226.01-.114-.01-.113-.01-.056-.009-.057-.018-.056-.029-.057-.028.085.104.085.094.085.075.084.076.095.066.085.066.084.056.085.047.17.085.16.066.17.047.15.048.199.066.17.066.084.047.076.047.066.047.066.066zm-1.99-3.13l.18.434.17.358.084.16.085.132.038.066.047.057.056.047.048.047.056.047.057.038.056.028.066.028.066.02.076.018.075.01h.17l.094-.01.104-.01.103-.018.227-.057.264-.085-.123-.075-.132-.057-.15-.066-.161-.056-.18-.066-.188-.076-.188-.084-.198-.104-.094-.057-.104-.066-.094-.075-.104-.085-.094-.085-.095-.094-.103-.113-.095-.113.01-.02.085.114.094.104.094.094.094.085.095.075.103.066.095.066.094.057.198.103.188.085.18.076.179.066.17.066.15.056.142.076.132.075-.085-.15-.076-.142-.075-.132-.085-.113-.075-.095-.076-.094-.066-.075-.075-.066-.066-.057-.076-.047-.066-.038-.066-.028-.066-.028-.066-.02-.066-.008-.066-.01-.254-.01h-.236l-.122-.009-.123-.028-.056-.019-.057-.028-.066-.038-.057-.047zm-.254-3.979l.179.434.17.368.075.15.094.142.038.057.047.056.057.057.047.047.057.038.056.037.057.029.066.028.066.019.075.019.085.009H24.635l.094-.01.094-.018.104-.02.236-.056.264-.084-.01-.01-.094-.047-.113-.047-.123-.047-.132-.047-.179-.076-.198-.075-.198-.095-.207-.103-.104-.066-.104-.066-.103-.076-.104-.085-.104-.094-.104-.094-.094-.113-.104-.113-.028-.02-.028-.028zm2.102 1.245l-.075-.141-.076-.132-.075-.114-.075-.113-.066-.094-.076-.085-.066-.066-.066-.066-.066-.056-.066-.048-.066-.037-.066-.038-.132-.047-.122-.028-.236-.01h-.339l-.114-.019-.056-.01-.057-.018-.056-.028-.057-.029.094.114.095.094.094.094.104.085.094.075.104.066.094.066.104.057.198.104.198.085.179.075.179.066.132.057.122.047.114.047.103.047zm-2.385-3.092l.189.424.16.368.085.15.085.142.047.056.047.057.047.057.047.047.057.037.056.038.057.028.066.029.066.028.075.01.076.009.075.01h.094l.085-.01.104-.01.104-.019.226-.056.254-.085.038-.01-.01-.018-.009-.019-.15-.094-.17-.095-.189-.103-.207-.113-.33-.17-.34-.189-.17-.103-.178-.104-.17-.123-.18-.122-.018-.038h-.01l-.009-.01zm2.093 1.225l-.066-.141-.075-.123-.066-.113-.076-.094-.066-.094-.066-.076-.066-.075-.066-.066-.056-.057-.066-.047-.066-.038-.057-.028-.122-.056-.114-.029-.113-.019h-.443l-.104-.01-.113-.018-.103-.028-.048-.028-.047-.02.16.104.17.114.16.094.16.103.33.17.302.16.208.114.188.103.17.095.151.103zm2.159-1.386l-.019.076-.01-.019-.009-.019.02-.019.018-.019zm-.028.123l-.123.387-.113.33-.057.14-.066.123-.066.114-.084.094-.038.038-.047.037-.057.038-.047.028-.057.029-.066.018-.066.02-.066.009-.15.01-.18-.01-.198-.02-.216-.046-.047-.01-.048-.01.085-.075.085-.066.075-.056.085-.047.17-.085.17-.066.132-.057.132-.056.132-.066.141-.095.076-.047.066-.066.075-.066.066-.075.075-.085.076-.094.075-.104.076-.113zm-1.782 1.226l.056-.142.066-.132.057-.113.056-.113.057-.094.057-.085.056-.076.057-.056.056-.066.066-.047.057-.038.056-.038.114-.047.103-.038.227-.028.207-.019.113-.019.094-.028.057-.028.047-.02.057-.037.047-.037-.076.122-.075.104-.075.094-.076.085-.066.075-.075.066-.066.066-.076.047-.132.095-.141.066-.132.066-.132.047-.16.066-.16.075-.086.047-.075.048-.075.066-.085.066zm-8.806 17.526l.151.103.142.113.141.114.132.132.123.132.122.15.113.16.104.17.104.18.094.197.085.208.075.226.076.245.066.255.056.273.057.293.075-.01.076-.028.084-.038.076-.047.085-.047.085-.047.075-.029.075-.01-.047-.244-.056-.226-.057-.217-.066-.208-.075-.198-.085-.179-.085-.17-.094-.16-.104-.15-.113-.142-.113-.141-.113-.123-.132-.123-.123-.113-.141-.103-.142-.104-.179-.028-.179-.029-.189-.018-.179-.02zM4.601 13.397h-.038l-.038.028-.028.038-.028.037-.01.048v.066l-.01.018-.018.02-.01.018-.018.01h-.057l-.075-.038-.076-.028-.085-.01-.075-.01-.047-.009-.047-.019-.038-.028-.047-.028-.047-.142-.038-.141-.028-.066-.038-.047-.047-.047-.057-.029-.113-.037-.113-.029-.113-.018-.113-.01-.038-.01-.028-.009-.038-.019-.028-.018-.038-.048-.028-.056-.019-.057-.01-.085-.018-.094-.01-.094-.028-.151-.038-.15-.047-.142-.075-.142-.02-.066v-.037l.01-.02.02-.009h.009l.019.01.14.056.133.066.122.066.114.066.103.076.104.075.094.076.085.075.17.16.141.16.132.16.132.161.094.113.085.113.095.114.103.103.01.01zm.235-1.99l-.028.029-.028.028-.019.038-.019.037-.01.038-.018.047-.01.02-.018.009-.02.009h-.018l-.076-.019-.075-.019-.075-.019-.066-.018-.085-.029-.076-.056-.047-.038-.019-.066-.018-.066.009-.085-.028-.066-.029-.047-.047-.038-.056-.019-.104-.018-.104-.02-.103-.018-.104-.028-.066-.029-.047-.037-.047-.038-.029-.047-.028-.066-.01-.066-.009-.085v-.085l-.028-.132-.038-.141-.047-.132-.057-.132-.018-.057V9.9l.009-.01.01-.009H3.167l.122.066.113.057.114.056.094.066.188.132.16.142.142.141.132.15.123.142.113.151.094.104.104.122.094.114.075.084z"/>
        <path fill="#1F1A17" d="M12.482 29.292l-.037-.01-.038-.009-.038-.028-.028-.029-.028-.028-.02-.038-.009-.047v-.075l.01-.038.019-.038.018-.028.029-.019.037-.019.029-.009h.037l1.49-.16H14l.038-.02.028-.018.028-.028.029-.029.019-.037.009-.038.01-.038-.01-.037-.01-.038-.018-.038-.02-.028-.037-.019-.028-.019-.038-.01-.038-.009H13.906l-1.961.113.302.764.028.038.028.028.028.019.029.01.066.009zM6.477 30.13l.019-.046.019-.038.009-.038v-.075l-.01-.028-.018-.029-.01-.028-.028-.028-.019-.02-.028-.009-.038-.018h-.028l-.028-.01-.038.01-.028.009-1.895.632-.029.019H4.28l-.038-.02-.028-.018-.028-.019-.028-.028-.02-.029-.009-.037-.01-.038.01-.038.01-.028.01-.028.018-.029.028-.028.02-.019.027-.01.029-.009 2.055-.64.198.414.019.057v.122l-.01.038-.018.028-.02.029zM24.21 30.15l-.028-.047-.019-.038-.01-.038v-.075l.01-.029.019-.028.019-.028.019-.028.028-.02.028-.009.029-.019h.028l.028-.009.038.01.028.009 1.895.632.028.018h.02l.027-.009.038-.01.028-.018.029-.02.028-.027.019-.029.01-.037.009-.038-.01-.038-.01-.028-.009-.028-.018-.029-.02-.028-.028-.019-.028-.01-.028-.009-2.055-.64-.198.414-.02.057v.122l.01.038.02.028.018.028zM18.167 29.292l.038-.01.038-.009.037-.028.029-.029.028-.028.019-.038.01-.047.009-.037-.01-.038-.01-.038-.018-.038-.019-.028-.028-.019-.029-.019-.037-.009h-.029l-1.499-.16h-.037l-.038-.02-.038-.018-.028-.028-.028-.029-.02-.037-.009-.038v-.075l.01-.038.019-.038.028-.028.028-.019.029-.019.037-.01.047-.009h.048l1.96.113-.301.764-.028.038-.029.028-.028.019-.028.01-.066.009z"/>
    </g>
</svg>
