<?xml version="1.0" encoding="UTF-8"?>
<svg width="25px" height="24px" viewBox="0 0 25 24" version="1.1" xmlns="http://www.w3.org/2000/svg" xmlns:xlink="http://www.w3.org/1999/xlink">
    <!-- Generator: Sketch 55.1 (78136) - https://sketchapp.com -->
    <title>github-logo</title>
    <desc>Created with Sketch.</desc>
    <g id="Pages" stroke="none" stroke-width="1" fill="none" fill-rule="evenodd">
        <g id="Home-(Dark)" transform="translate(-1167.000000, -703.000000)" fill="#FFFFFF">
            <g id="Group-4" transform="translate(288.000000, 676.000000)">
                <g id="github-logo" transform="translate(879.000000, 27.000000)">
                    <path d="M23.2990888,6.12995804 C22.1824601,4.25046154 20.6678246,2.76246154 18.7547836,1.66562238 C16.8414579,0.568727273 14.7526765,0.0204195804 12.486959,0.0204195804 C10.2215262,0.0204195804 8.1320615,0.568895105 6.2191344,1.66562238 C4.30592255,2.76240559 2.79134396,4.25046154 1.67471526,6.12995804 C0.558257403,8.0093986 0,10.0617622 0,12.286993 C0,14.96 0.793849658,17.3636364 2.38194761,19.4985175 C3.96987472,21.6335664 6.02124146,23.1109371 8.53587699,23.9307972 C8.8285877,23.9841678 9.04527335,23.9466294 9.18616173,23.8191329 C9.32710706,23.6914685 9.39749431,23.5315804 9.39749431,23.3401399 C9.39749431,23.3081958 9.39470387,23.0208112 9.38929385,22.4776503 C9.38371298,21.9344895 9.38109339,21.4606434 9.38109339,21.0563357 L9.00711845,21.1198881 C8.76867882,21.1627972 8.46788155,21.180979 8.10472665,21.1758322 C7.7417426,21.1708531 7.36492027,21.1334825 6.97477221,21.064 C6.5844533,20.9951329 6.2214123,20.8354126 5.88536446,20.5851748 C5.54948747,20.3349371 5.31104784,20.0073846 5.17010251,19.603021 L5.00751708,19.2354685 C4.89914579,18.9907692 4.72853075,18.7189371 4.49544419,18.420979 C4.26235763,18.1227413 4.02665148,17.9205594 3.78821185,17.8140979 L3.67437358,17.734042 C3.59851936,17.6808392 3.52813212,17.6166713 3.463041,17.5422098 C3.39800683,17.4677483 3.34931663,17.3932308 3.31679954,17.3186014 C3.28422551,17.2439161 3.31121868,17.1826573 3.39806378,17.1346014 C3.48490888,17.0865455 3.64185649,17.0632168 3.86958998,17.0632168 L4.19464692,17.1109371 C4.41144647,17.1536224 4.67961276,17.2811189 4.99948747,17.4942098 C5.31919134,17.7071329 5.58200456,17.9839441 5.78798405,18.3245315 C6.03741458,18.7612308 6.33792711,19.093986 6.69037585,19.322965 C7.04253986,19.5519441 7.3976082,19.6662378 7.75523918,19.6662378 C8.11287016,19.6662378 8.42175399,19.6396084 8.68200456,19.5866294 C8.94197039,19.5333706 9.18587699,19.4533147 9.41361048,19.3469091 C9.51116173,18.6331748 9.77676538,18.0848671 10.2101936,17.7015944 C9.59242597,17.6378182 9.03701595,17.5417622 8.54367882,17.414042 C8.05062642,17.2861538 7.54111617,17.0786014 7.01548975,16.7908252 C6.48957859,16.5034406 6.05330296,16.1465734 5.70654897,15.7208392 C5.35973804,15.2948811 5.0751139,14.7356643 4.85307517,14.0436923 C4.63092255,13.3514406 4.51981777,12.5528951 4.51981777,11.6478322 C4.51981777,10.3591608 4.94806378,9.26254545 5.80438497,8.35737063 C5.40324601,7.38853147 5.44111617,6.30243357 5.91810934,5.09918881 C6.23246014,5.00324476 6.69863326,5.07524476 7.31640091,5.31474126 C7.93428246,5.55434965 8.38667426,5.75960839 8.67403189,5.92979021 C8.96138952,6.09991608 9.1916287,6.24408392 9.36509112,6.36100699 C10.3733485,6.08425175 11.4138383,5.94584615 12.4868451,5.94584615 C13.5598519,5.94584615 14.6005695,6.08425175 15.6088838,6.36100699 L16.2267084,5.97784615 C16.6492027,5.72218182 17.1481207,5.48788811 17.7222665,5.27490909 C18.296754,5.06204196 18.7360478,5.00341259 19.0396925,5.09935664 C19.5272779,6.30265734 19.5707289,7.3886993 19.1694761,8.35753846 C20.0257403,9.26271329 20.4541572,10.3596084 20.4541572,11.648 C20.4541572,12.5530629 20.3426538,13.3541259 20.1208428,14.0516923 C19.8987472,14.7493706 19.6116743,15.308028 19.2595103,15.7288392 C18.9069476,16.1495944 18.4678815,16.5036643 17.9422551,16.790993 C17.4165148,17.0785455 16.9068337,17.2860979 16.4137813,17.413986 C15.9205011,17.5418741 15.3650911,17.637986 14.7473235,17.7018741 C15.3107631,18.1808671 15.5925399,18.936951 15.5925399,19.9697902 L15.5925399,23.3396923 C15.5925399,23.5311329 15.6603075,23.690965 15.7959567,23.8186853 C15.9314351,23.9461818 16.1453872,23.9837203 16.4380979,23.9302937 C18.9530752,23.1105455 21.0044419,21.6331189 22.5923121,19.4980699 C24.1800114,17.3631888 24.9741458,14.9595524 24.9741458,12.2865455 C24.9735763,10.0615944 24.4150342,8.0093986 23.2990888,6.12995804 Z" id="Path"></path>
                </g>
            </g>
        </g>
    </g>
</svg>