<?xml version="1.0" encoding="UTF-8"?>
<svg width="24px" height="24px" viewBox="0 0 24 24" version="1.1" xmlns="http://www.w3.org/2000/svg" xmlns:xlink="http://www.w3.org/1999/xlink">
    <!-- Generator: Sketch 55.1 (78136) - https://sketchapp.com -->
    <title>facebook</title>
    <desc>Created with Sketch.</desc>
    <g id="Pages" stroke="none" stroke-width="1" fill="none" fill-rule="evenodd">
        <g id="Home-(Dark)" transform="translate(-1087.000000, -703.000000)" fill="#FFFFFF">
            <g id="Group-4" transform="translate(288.000000, 676.000000)">
                <g id="facebook" transform="translate(799.000000, 27.000000)">
                    <path d="M11.9146195,23.8292389 C5.33435684,23.8292389 -1.77635684e-15,18.4948821 -1.77635684e-15,11.9146195 C-1.77635684e-15,5.33435684 5.33435684,-1.77635684e-15 11.9146195,-1.77635684e-15 C18.4948821,-1.77635684e-15 23.8292389,5.33435684 23.8292389,11.9146195 C23.8292389,18.4948821 18.4948821,23.8292389 11.9146195,23.8292389 Z M14.9099469,12.3810265 L15.1913628,9.64630088 L12.7841416,9.64630088 L12.7841416,8.03532743 C12.7841416,7.43107965 13.1834336,7.28920354 13.4673982,7.28920354 L15.1985841,7.28920354 L15.1985841,4.63221239 L12.8126018,4.62223009 C10.164531,4.62223009 9.56283186,6.60573451 9.56283186,7.87242478 L9.56283186,9.64375221 L8.03086726,9.64375221 L8.03086726,12.3810265 L9.56283186,12.3810265 L9.56283186,20.1697699 L12.7839292,20.1697699 L12.7839292,12.3810265 L14.9099469,12.3810265 Z" id="Combined-Shape"></path>
                </g>
            </g>
        </g>
    </g>
</svg>