<?xml version="1.0" encoding="UTF-8"?>
<svg width="24px" height="24px" viewBox="0 0 24 24" version="1.1" xmlns="http://www.w3.org/2000/svg" xmlns:xlink="http://www.w3.org/1999/xlink">
    <!-- Generator: Sketch 55.1 (78136) - https://sketchapp.com -->
    <title>linkedin</title>
    <desc>Created with Sketch.</desc>
    <g id="Pages" stroke="none" stroke-width="1" fill="none" fill-rule="evenodd">
        <g id="Home-(Dark)" transform="translate(-1047.000000, -703.000000)" fill="#FFFFFF">
            <g id="Group-4" transform="translate(288.000000, 676.000000)">
                <g id="linkedin" transform="translate(759.000000, 27.000000)">
                    <path d="M11.8101053,23.8305263 C5.28756423,23.8305263 3.25073302e-13,18.5429621 3.25073302e-13,12.0204211 C3.25073302e-13,5.49788002 5.28756423,0.210315789 11.8101053,0.210315789 C18.3326463,0.210315789 23.6202105,5.49788002 23.6202105,12.0204211 C23.6202105,18.5429621 18.3326463,23.8305263 11.8101053,23.8305263 Z M18.8665263,12.9707368 C18.8665263,10.3633684 17.4741053,9.14989474 15.6168421,9.14989474 C14.1168421,9.14989474 13.4477895,9.97515789 13.0726316,10.5524211 L13.0726316,10.5802105 L13.0538947,10.5802105 C13.0589474,10.5711579 13.0669474,10.5618947 13.0726316,10.5524211 L13.0726316,9.34926316 L10.2492632,9.34926316 C10.2871579,10.1456842 10.2492632,17.8395789 10.2492632,17.8395789 L13.0724211,17.8395789 L13.0724211,13.0976842 C13.0724211,12.8431579 13.0915789,12.5911579 13.1658947,12.4096842 C13.3705263,11.9018947 13.8338947,11.3774737 14.6138947,11.3774737 C15.636,11.3774737 16.0435789,12.1564211 16.0435789,13.2970526 L16.0435789,17.8397895 L18.8665263,17.8397895 L18.8665263,12.9707368 Z M7.296,5.25663158 C6.33031579,5.25663158 5.69852632,5.89052632 5.69852632,6.72336842 C5.69852632,7.53852632 6.312,8.19073684 7.25894737,8.19073684 L7.27726316,8.19073684 C8.26189474,8.19073684 8.87410526,7.53852632 8.87410526,6.72336842 C8.85536842,5.89052632 8.26189474,5.25663158 7.296,5.25663158 Z M5.86631579,17.8397895 L8.68842105,17.8397895 L8.68842105,9.34926316 L5.86631579,9.34926316 L5.86631579,17.8397895 Z" id="Combined-Shape"></path>
                </g>
            </g>
        </g>
    </g>
</svg>