<?xml version="1.0" encoding="UTF-8"?>
<svg width="64px" height="64px" viewBox="0 0 64 64" version="1.1" xmlns="http://www.w3.org/2000/svg" xmlns:xlink="http://www.w3.org/1999/xlink">
    <!-- Generator: Sketch 53.2 (72643) - https://sketchapp.com -->
    <title>Grid</title>
    <desc>Created with Sketch.</desc>
    <g id="Conteúdo-site" stroke="none" stroke-width="1" fill="none" fill-rule="evenodd">
        <g id="Iconography---Usage" transform="translate(-337.000000, -454.000000)">
            <rect fill="#FFFFFF" x="0" y="0" width="1280" height="1636"></rect>
            <g id="Grid" transform="translate(336.000000, 344.000000)">
                <g transform="translate(1.000000, 110.000000)">
                    <polygon id="Fill-1" fill="#B6E4FF" points="0 63.84 64 63.84 64 0 0 0"></polygon>
                    <path d="M5.33333333,58.6666667 L58.6666667,58.6666667 L58.6666667,5.33333333 L5.33333333,5.33333333 L5.33333333,58.6666667 Z M10.6666667,53.3333333 L53.3333333,53.3333333 L53.3333333,10.6666667 L10.6666667,10.6666667 L10.6666667,53.3333333 Z M16,48 L48,48 L48,16 L16,16 L16,48 Z M32,48 C40.8373333,48 48,40.8373333 48,32 C48,23.1626667 40.8373333,16 32,16 C23.1626667,16 16,23.1626667 16,32 C16,40.8373333 23.1626667,48 32,48 Z M32,42.6666667 C37.8906667,42.6666667 42.6666667,37.8906667 42.6666667,32 C42.6666667,26.1093333 37.8906667,21.3333333 32,21.3333333 C26.1093333,21.3333333 21.3333333,26.1093333 21.3333333,32 C21.3333333,37.8906667 26.1093333,42.6666667 32,42.6666667 Z M32,37.3333333 C34.9466667,37.3333333 37.3333333,34.9466667 37.3333333,32 C37.3333333,29.0533333 34.9466667,26.6666667 32,26.6666667 C29.0533333,26.6666667 26.6666667,29.0533333 26.6666667,32 C26.6666667,34.9466667 29.0533333,37.3333333 32,37.3333333 Z M32,58.6666667 C46.728,58.6666667 58.6666667,46.728 58.6666667,32 C58.6666667,17.272 46.728,5.33333333 32,5.33333333 C17.272,5.33333333 5.33333333,17.272 5.33333333,32 C5.33333333,46.728 17.272,58.6666667 32,58.6666667 Z" id="Stroke-3" stroke="#006CD1" stroke-width="0.2"></path>
                </g>
            </g>
        </g>
    </g>
</svg>