<?xml version="1.0" encoding="UTF-8"?>
<svg width="320px" height="117px" viewBox="0 0 320 117" version="1.1" xmlns="http://www.w3.org/2000/svg" xmlns:xlink="http://www.w3.org/1999/xlink">
    <!-- Generator: Sketch 53.2 (72643) - https://sketchapp.com -->
    <title>Group 6</title>
    <desc>Created with Sketch.</desc>
    <g id="Conteúdo-site" stroke="none" stroke-width="1" fill="none" fill-rule="evenodd">
        <g id="Iconography---Usage" transform="translate(-336.000000, -599.000000)">
            <g id="Canvas---Padding---Live-area" transform="translate(336.000000, 550.000000)">
                <g id="Group-6" transform="translate(0.000000, 46.000000)">
                    <polygon id="Fill-1" fill="#EBF4FA" points="256 91.84 320 91.84 320 28 256 28"></polygon>
                    <polygon id="Fill-3" fill="#B6E4FF" points="261.333333 86.6666667 314.666667 86.6666667 314.666667 33.3333333 261.333333 33.3333333"></polygon>
                    <path d="M261.333333,86.6666667 L314.666667,86.6666667 L314.666667,33.3333333 L261.333333,33.3333333 L261.333333,86.6666667 Z M266.666667,81.3333333 L309.333333,81.3333333 L309.333333,38.6666667 L266.666667,38.6666667 L266.666667,81.3333333 Z M272,76 L304,76 L304,44 L272,44 L272,76 Z M288,76 C296.837333,76 304,68.8373333 304,60 C304,51.1626667 296.837333,44 288,44 C279.162667,44 272,51.1626667 272,60 C272,68.8373333 279.162667,76 288,76 Z M288,70.6666667 C293.890667,70.6666667 298.666667,65.8906667 298.666667,60 C298.666667,54.1093333 293.890667,49.3333333 288,49.3333333 C282.109333,49.3333333 277.333333,54.1093333 277.333333,60 C277.333333,65.8906667 282.109333,70.6666667 288,70.6666667 Z M288,65.3333333 C290.946667,65.3333333 293.333333,62.9466667 293.333333,60 C293.333333,57.0533333 290.946667,54.6666667 288,54.6666667 C285.053333,54.6666667 282.666667,57.0533333 282.666667,60 C282.666667,62.9466667 285.053333,65.3333333 288,65.3333333 Z M288,86.6666667 C302.728,86.6666667 314.666667,74.728 314.666667,60 C314.666667,45.272 302.728,33.3333333 288,33.3333333 C273.272,33.3333333 261.333333,45.272 261.333333,60 C261.333333,74.728 273.272,86.6666667 288,86.6666667 Z" id="Stroke-5" stroke="#006CD1" stroke-width="0.2"></path>
                    <text id="20px" font-family="IBMPlexSans, IBM Plex Sans" font-size="13" font-weight="normal" line-spacing="19.5" fill="#0A67D1">
                        <tspan x="256" y="113">20px</tspan>
                    </text>
                    <polygon id="Fill-1" fill="#B6E4FF" points="128 91.84 192 91.84 192 28 128 28"></polygon>
                    <polygon id="Fill-3" fill="#FFFFFF" points="133.333333 86.6666667 186.666667 86.6666667 186.666667 33.3333333 133.333333 33.3333333"></polygon>
                    <path d="M133.333333,86.6666667 L186.666667,86.6666667 L186.666667,33.3333333 L133.333333,33.3333333 L133.333333,86.6666667 Z M138.666667,81.3333333 L181.333333,81.3333333 L181.333333,38.6666667 L138.666667,38.6666667 L138.666667,81.3333333 Z M144,76 L176,76 L176,44 L144,44 L144,76 Z M160,76 C168.837333,76 176,68.8373333 176,60 C176,51.1626667 168.837333,44 160,44 C151.162667,44 144,51.1626667 144,60 C144,68.8373333 151.162667,76 160,76 Z M160,70.6666667 C165.890667,70.6666667 170.666667,65.8906667 170.666667,60 C170.666667,54.1093333 165.890667,49.3333333 160,49.3333333 C154.109333,49.3333333 149.333333,54.1093333 149.333333,60 C149.333333,65.8906667 154.109333,70.6666667 160,70.6666667 Z M160,65.3333333 C162.946667,65.3333333 165.333333,62.9466667 165.333333,60 C165.333333,57.0533333 162.946667,54.6666667 160,54.6666667 C157.053333,54.6666667 154.666667,57.0533333 154.666667,60 C154.666667,62.9466667 157.053333,65.3333333 160,65.3333333 Z M160,86.6666667 C174.728,86.6666667 186.666667,74.728 186.666667,60 C186.666667,45.272 174.728,33.3333333 160,33.3333333 C145.272,33.3333333 133.333333,45.272 133.333333,60 C133.333333,74.728 145.272,86.6666667 160,86.6666667 Z" id="Stroke-5" stroke="#006CD1" stroke-width="0.2"></path>
                    <text id="2px" font-family="IBMPlexSans, IBM Plex Sans" font-size="13" font-weight="normal" line-spacing="19.5" fill="#0A67D1">
                        <tspan x="128" y="115">2px</tspan>
                    </text>
                    <polygon id="Fill-1" fill="#B6E4FF" points="0 91.84 64 91.84 64 28 0 28"></polygon>
                    <path d="M5,86.3333333 L58.3333333,86.3333333 L58.3333333,33 L5,33 L5,86.3333333 Z M10.3333333,81 L53,81 L53,38.3333333 L10.3333333,38.3333333 L10.3333333,81 Z M15.6666667,75.6666667 L47.6666667,75.6666667 L47.6666667,43.6666667 L15.6666667,43.6666667 L15.6666667,75.6666667 Z M31.6666667,75.6666667 C40.504,75.6666667 47.6666667,68.504 47.6666667,59.6666667 C47.6666667,50.8293333 40.504,43.6666667 31.6666667,43.6666667 C22.8293333,43.6666667 15.6666667,50.8293333 15.6666667,59.6666667 C15.6666667,68.504 22.8293333,75.6666667 31.6666667,75.6666667 Z M31.6666667,70.3333333 C37.5573333,70.3333333 42.3333333,65.5573333 42.3333333,59.6666667 C42.3333333,53.776 37.5573333,49 31.6666667,49 C25.776,49 21,53.776 21,59.6666667 C21,65.5573333 25.776,70.3333333 31.6666667,70.3333333 Z M31.6666667,65 C34.6133333,65 37,62.6133333 37,59.6666667 C37,56.72 34.6133333,54.3333333 31.6666667,54.3333333 C28.72,54.3333333 26.3333333,56.72 26.3333333,59.6666667 C26.3333333,62.6133333 28.72,65 31.6666667,65 Z M31.6666667,86.3333333 C46.3946667,86.3333333 58.3333333,74.3946667 58.3333333,59.6666667 C58.3333333,44.9386667 46.3946667,33 31.6666667,33 C16.9386667,33 5,44.9386667 5,59.6666667 C5,74.3946667 16.9386667,86.3333333 31.6666667,86.3333333 Z" id="Stroke-3" stroke="#006CD1" stroke-width="0.2"></path>
                    <text id="24x24-px" font-family="IBMPlexSans, IBM Plex Sans" font-size="13" font-weight="normal" line-spacing="19.5" fill="#0A67D1">
                        <tspan x="0" y="113">24x24 px</tspan>
                    </text>
                    <text id="Canvas-size" font-family="IBMPlexSans, IBM Plex Sans" font-size="16" font-weight="normal" line-spacing="19.5" fill="#2D343B">
                        <tspan x="0" y="16">Canvas size</tspan>
                    </text>
                    <text id="Padding" font-family="IBMPlexSans, IBM Plex Sans" font-size="16" font-weight="normal" line-spacing="19.5" fill="#2D343B">
                        <tspan x="128" y="16">Padding</tspan>
                    </text>
                    <text id="Live-area" font-family="IBMPlexSans, IBM Plex Sans" font-size="16" font-weight="normal" line-spacing="19.5" fill="#2D343B">
                        <tspan x="256" y="16">Live area</tspan>
                    </text>
                </g>
            </g>
        </g>
    </g>
</svg>