<?xml version="1.0" encoding="UTF-8"?>
<svg width="448px" height="48px" viewBox="0 0 448 48" version="1.1" xmlns="http://www.w3.org/2000/svg" xmlns:xlink="http://www.w3.org/1999/xlink">
    <!-- Generator: Sketch 53.2 (72643) - https://sketchapp.com -->
    <title>Examples</title>
    <desc>Created with Sketch.</desc>
    <defs>
        <path d="M1.8189894e-12,12.0003578 C1.81926689e-12,10.1406877 1.30864647,9.09611908 1.30864647,9.09611908 C7.71007918,3.0320583 13.9783456,0.0106872849 19.9905519,2.79094446e-05 C26.0027582,-0.010631466 32.328162,3.03205668 38.7295927,9.09611423 C38.7295927,9.09611423 39.9905519,10.1400279 39.9905519,12.0000279 C39.9905519,13.8600279 38.7747847,14.861092 38.7747847,14.861092 C32.3549859,20.9537159 26,23.9897675 19.9905519,24.0000279 C13.9811038,24.0102883 7.70616768,20.9659166 1.30205713,14.8976938 C1.30205713,14.8976938 1.8189894e-12,13.8600279 1.8189894e-12,12.0003578 Z M19.9905519,20.0000279 C24.4177177,20.0000279 27.9905519,16.4271937 27.9905519,12.0000279 C27.9905519,7.57286208 24.4177177,4.00002791 19.9905519,4.00002791 C15.5633861,4.00002791 11.9905519,7.57286208 11.9905519,12.0000279 C11.9905519,16.4271937 15.5633861,20.0000279 19.9905519,20.0000279 Z M23.9905519,12.0000279 C23.9905519,14.2080279 22.1985519,16.0000279 19.9905519,16.0000279 C17.7825519,16.0000279 15.9905519,14.2080279 15.9905519,12.0000279 C15.9905519,9.79202791 17.7825519,8.00002791 19.9905519,8.00002791 C22.1985519,8.00002791 23.9905519,9.79202791 23.9905519,12.0000279 Z" id="path-1"></path>
        <path d="M1.8189894e-12,6.0001789 C1.81912815e-12,5.07034385 0.654323235,4.54805954 0.654323235,4.54805954 C3.85503959,1.51602915 6.98917281,0.00534364247 9.99527595,1.39547223e-05 C13.0013791,-0.00531573302 16.164081,1.51602834 19.3647963,4.54805712 C19.3647963,4.54805712 19.9952759,5.07001395 19.9952759,6.00001395 C19.9952759,6.93001395 19.3873923,7.43054601 19.3873923,7.43054601 C16.1774929,10.476858 13,11.9948837 9.99527595,12.000014 C6.9905519,12.0051442 3.85308384,10.4829583 0.651028563,7.44884692 C0.651028563,7.44884692 1.8189894e-12,6.93001395 1.8189894e-12,6.0001789 Z M9.99527595,10.000014 C12.2088589,10.000014 13.9952759,8.21359687 13.9952759,6.00001395 C13.9952759,3.78643104 12.2088589,2.00001395 9.99527595,2.00001395 C7.78169304,2.00001395 5.99527595,3.78643104 5.99527595,6.00001395 C5.99527595,8.21359687 7.78169304,10.000014 9.99527595,10.000014 Z M11.9952759,6.00001395 C11.9952759,7.10401395 11.0992759,8.00001395 9.99527595,8.00001395 C8.89127595,8.00001395 7.99527595,7.10401395 7.99527595,6.00001395 C7.99527595,4.89601395 8.89127595,4.00001395 9.99527595,4.00001395 C11.0992759,4.00001395 11.9952759,4.89601395 11.9952759,6.00001395 Z" id="path-3"></path>
        <path d="M28,8 C30.6666667,8 33.3333333,8 36,8 C38.6666667,8 40,9.33333333 40,12 L40,36 C40,38.6685055 38.6666667,40.0018388 36,40 C32,39.9972418 20,39.9972418 16,40 C13.3333333,40.0018388 12,38.6683463 12,35.9995226 L12,32 C9.33333333,32 6.66666667,32 4,32 C1.33333333,32 -2.72848411e-12,30.6666667 -2.72848411e-12,28 L-7.27595761e-12,4 C-7.27595761e-12,1.33333333 1.33333333,0 4,0 C10.6666667,0 20,3.41109499e-12 24,0 C26.6666667,-2.27373675e-12 28,1.33333333 28,4 L28,8 Z M16,36 L36,36 L36,12 L16,12 L16,36 Z M12,28 L12,12 C12,9.33333333 13.3333333,8 16,8 C18.6666667,8 21.3333333,8 24,8 L24,4 L4,4 L4,28 L12,28 Z" id="path-5"></path>
        <path d="M14,4 C15.3333333,4 16.6666667,4 18,4 C19.3333333,4 20,4.66666667 20,6 L20,18 C20,19.3342527 19.3333333,20.0009194 18,20 C16,19.9986209 10,19.9986209 8,20 C6.66666667,20.0009194 6,19.3341732 6,17.9997613 L6,16 C4.66666667,16 3.33333333,16 2,16 C0.666666667,16 -1.36424205e-12,15.3333333 -1.36424205e-12,14 L-3.63797881e-12,2 C-3.63797881e-12,0.666666667 0.666666667,0 2,0 C5.33333333,0 10,1.7055475e-12 12,0 C13.3333333,-1.13686838e-12 14,0.666666667 14,2 L14,4 Z M8,18 L18,18 L18,6 L8,6 L8,18 Z M6,14 L6,6 C6,4.66666667 6.66666667,4 8,4 C9.33333333,4 10.6666667,4 12,4 L12,2 L2,2 L2,14 L6,14 Z" id="path-7"></path>
        <path d="M28,28 L30,28 C31.3333333,28 32,28.6666667 32,30 C32,31.3333333 31.3333333,32 30,32 L28,32 L4,32 L2,32 C0.666666667,32 0,31.3333333 0,30 C8.16431199e-17,28.6666667 0.666666667,28 2,28 L4,28 L4,16.078 C4,10.842 7.338,6.396 12,4.724 L12,4 C12,1.792 13.792,0 16,0 C18.208,0 20,1.792 20,4 L20,4.68 C24.656,6.3 28,10.712 28,15.922 L28,28 Z M24,28 L24,16 C24,11.582 20.418,8 16,8 C11.582,8 8,11.582 8,16 L8,28 L24,28 Z M12,36 C12,38.208 13.792,40 16,40 C18.208,40 20,38.208 20,36 L12,36 Z" id="path-9"></path>
        <path d="M14,14 L15,14 C15.6666667,14 16,14.3333333 16,15 C16,15.6666667 15.6666667,16 15,16 L14,16 L2,16 L1,16 C0.333333333,16 0,15.6666667 0,15 C4.082156e-17,14.3333333 0.333333333,14 1,14 L2,14 L2,8.039 C2,5.421 3.669,3.198 6,2.362 L6,2 C6,0.896 6.896,0 8,0 C9.104,0 10,0.896 10,2 L10,2.34 C12.328,3.15 14,5.356 14,7.961 L14,14 Z M12,14 L12,8 C12,5.791 10.209,4 8,4 C5.791,4 4,5.791 4,8 L4,14 L12,14 Z M6,18 C6,19.104 6.896,20 8,20 C9.104,20 10,19.104 10,18 L6,18 Z" id="path-11"></path>
    </defs>
    <g id="Pages" stroke="none" stroke-width="1" fill="none" fill-rule="evenodd">
        <g id="Images---Light" transform="translate(-1383.000000, -826.000000)">
            <g id="Examples" transform="translate(1383.000000, 826.000000)">
                <g id="Grid" transform="translate(424.000000, 24.000000) rotate(-270.000000) translate(-424.000000, -24.000000) translate(400.000000, 0.000000)">
                    <rect id="Rectangle" fill="#B8E2FF" x="-1.15960574e-11" y="1.04591891e-11" width="48" height="48"></rect>
                    <rect id="Rectangle" stroke="#0A67D1" stroke-width="0.2" x="4" y="4" width="40" height="40"></rect>
                    <rect id="Rectangle" stroke="#0A67D1" stroke-width="0.2" x="8" y="8" width="32" height="32"></rect>
                    <rect id="Rectangle" stroke="#0A67D1" stroke-width="0.2" x="12" y="12" width="24" height="24"></rect>
                    <circle id="Oval" stroke="#0A67D1" stroke-width="0.2" cx="24" cy="24" r="12"></circle>
                    <circle id="Oval" stroke="#0A67D1" stroke-width="0.2" cx="24" cy="24" r="8"></circle>
                    <circle id="Oval" stroke="#0A67D1" stroke-width="0.2" cx="24" cy="24" r="4"></circle>
                    <circle id="Oval" stroke="#0A67D1" stroke-width="0.2" cx="24" cy="24" r="20"></circle>
                </g>
                <g id="Icon-/-Gear-/-Gear-Filled" transform="translate(404.000000, 4.000000)" fill="#53595E">
                    <path d="M8.74113941,33.2876762 C6.84308702,34.3295974 4.46054992,33.6720811 3.36553747,31.8041544 L1.31569699,28.3074344 C0.198476456,26.401624 0.837754871,23.9509732 2.7435653,22.8337527 C2.76676662,22.8202213 2.76676662,22.8202213 2.79008816,22.8068982 L4.14310987,22.0379577 C3.95308245,20.5947644 3.93997507,19.2367115 4.10907465,17.9656114 L2.77138592,17.1987943 C0.854813693,16.1001378 0.191761952,13.655812 1.29041841,11.7392398 C1.29897069,11.7243699 1.29897069,11.7243699 1.30760785,11.7095492 L3.35155524,8.21378284 C4.45614617,6.3245993 6.87385274,5.67378204 8.77754751,6.75317158 L10.0713493,7.48675355 C11.2134235,6.51983453 12.5454304,5.72977617 14.0593066,5.11545261 C14.0569295,4.76270824 14.0536697,4.40616822 14.0495268,4.04582568 C14.0242443,1.8369085 15.7943519,0.0256607386 18.0032787,0.000264339699 C18.0262707,4.40573453e-05 18.0262707,4.40573453e-05 18.0492637,1.91846539e-13 L22.0177137,6.04671868e-12 C24.2268527,8.16413603e-12 26.0177137,1.790861 26.0177137,4 L26.0177137,5.14316329 C27.454693,5.75835947 28.7603773,6.54449445 29.9295285,7.50018055 L31.1740657,6.77970648 C33.0710839,5.6815051 35.4986007,6.31463089 36.6176112,8.19944911 L38.6927031,11.6946538 C39.8204794,13.5942368 39.1948065,16.0483965 37.2952235,17.1761728 C37.2703334,17.190869 37.2703334,17.190869 37.2453029,17.2053247 L35.8827104,17.9878823 C36.0475741,19.3447445 36.0488381,20.6956479 35.8861218,22.0371701 L37.2264985,22.8003526 C39.1462607,23.8934253 39.8164251,26.3358106 38.7233524,28.2555729 C38.7041285,28.2890844 38.7041285,28.2890844 38.6844747,28.3223457 L36.6032597,31.8187395 C35.4940809,33.6821345 33.1020966,34.3223354 31.2104251,33.2621008 L29.907541,32.5318667 C28.6167796,33.5577906 27.3211722,34.3347937 26.0177137,34.8549454 L26.0177137,36.0099201 C26.0177137,38.2190591 24.2268527,40.0099201 22.0177137,40.0099201 L22.0110574,40.0099146 L17.9878871,40.0031784 C15.7831182,39.9995321 13.9970422,38.2124907 13.9945873,36.0077201 C13.9941576,35.6217307 13.9956886,35.2209393 13.9991778,34.8053228 C12.5106804,34.2088077 11.2037522,33.4578779 10.0851787,32.5498763 L8.74113941,33.2876762 Z M20.0174978,11.9995943 C15.6054978,11.9995943 12.0174978,15.5875943 12.0174978,19.9995943 C12.0174978,24.4115943 15.6054978,27.9995943 20.0174978,27.9995943 C24.4294978,27.9995943 28.0174978,24.4115943 28.0174978,19.9995943 C28.0174978,15.5875943 24.4294978,11.9995943 20.0174978,11.9995943 Z M20.0174978,23.9995943 C17.8114978,23.9995943 16.0174978,22.2055943 16.0174978,19.9995943 C16.0174978,17.7935943 17.8114978,15.9995943 20.0174978,15.9995943 C22.2234978,15.9995943 24.0174978,17.7935943 24.0174978,19.9995943 C24.0174978,22.2055943 22.2234978,23.9995943 20.0174978,23.9995943 Z" id="🎨-Color"></path>
                </g>
                <g id="Grid" transform="translate(372.000000, 12.000000) rotate(-270.000000) translate(-372.000000, -12.000000) translate(360.000000, 0.000000)">
                    <rect id="Rectangle" fill="#B8E2FF" x="-1.15960574e-11" y="1.04591891e-11" width="24" height="24"></rect>
                    <rect id="Rectangle" stroke="#0A67D1" stroke-width="0.2" x="2" y="2" width="20" height="20"></rect>
                    <rect id="Rectangle" stroke="#0A67D1" stroke-width="0.2" x="4" y="4" width="16" height="16"></rect>
                    <rect id="Rectangle" stroke="#0A67D1" stroke-width="0.2" x="6" y="6" width="12" height="12"></rect>
                    <circle id="Oval" stroke="#0A67D1" stroke-width="0.2" cx="12" cy="12" r="6"></circle>
                    <circle id="Oval" stroke="#0A67D1" stroke-width="0.2" cx="12" cy="12" r="4"></circle>
                    <circle id="Oval" stroke="#0A67D1" stroke-width="0.2" cx="12" cy="12" r="2"></circle>
                    <circle id="Oval" stroke="#0A67D1" stroke-width="0.2" cx="12" cy="12" r="10"></circle>
                </g>
                <g id="Icon-/-Gear-/-Gear-Filled" transform="translate(362.000000, 2.000000)" fill="#53595E">
                    <path d="M4.3705697,16.6438381 C3.42154351,17.1647987 2.23027496,16.8360406 1.68276874,15.9020772 L0.657848497,14.1537172 C0.0992382279,13.200812 0.418877436,11.9754866 1.37178265,11.4168763 C1.38338331,11.4101107 1.38338331,11.4101107 1.39504408,11.4034491 L2.07155494,11.0189788 C1.97654123,10.2973822 1.96998753,9.61835574 2.05453732,8.98280568 L1.38569296,8.59939713 C0.427406847,8.0500689 0.0958809761,6.827906 0.645209204,5.86961989 C0.649485343,5.86218495 0.649485343,5.86218495 0.653803924,5.85477458 L1.67577762,4.10689142 C2.22807309,3.16229965 3.43692637,2.83689102 4.38877375,3.37658579 L5.03567467,3.74337677 C5.60671173,3.25991727 6.27271519,2.86488808 7.02965328,2.55772631 C7.02846476,2.38135412 7.02683486,2.20308411 7.02476341,2.02291284 C7.01212217,0.91845425 7.89717593,0.0128303693 9.00163934,0.000132169849 C9.01313533,2.20286727e-05 9.01313533,2.20286727e-05 9.02463183,9.9475983e-14 L11.0088569,3.02691205e-12 C12.1134264,4.08206802e-12 13.0088569,0.8954305 13.0088569,2 L13.0088569,2.57158165 C13.7273465,2.87917974 14.3801887,3.27224722 14.9647643,3.75009028 L15.5870328,3.38985324 C16.5355419,2.84075255 17.7493003,3.15731545 18.3088056,4.09972456 L19.3463515,5.8473269 C19.9102397,6.79711841 19.5974032,8.02419824 18.6476117,8.58808642 C18.6351667,8.59543452 18.6351667,8.59543452 18.6226514,8.60266237 L17.9413552,8.99394114 C18.0237871,9.67237223 18.0244191,10.3478239 17.9430609,11.018585 L18.6132492,11.4001763 C19.5731304,11.9467127 19.9082125,13.1679053 19.3616762,14.1277865 C19.3520643,14.1445422 19.3520643,14.1445422 19.3422373,14.1611728 L18.3016298,15.9093697 C17.7470405,16.8410673 16.5510483,17.1611677 15.6052126,16.6310504 L14.9537705,16.2659334 C14.3083898,16.7788953 13.6605861,17.1673968 13.0088569,17.4274727 L13.0088569,18.0049601 C13.0088569,19.1095296 12.1134264,20.0049601 11.0088569,20.0049601 L11.0055287,20.0049573 L8.99394357,20.0015892 C7.89155908,19.9997661 6.99852109,19.1062454 6.99729367,18.00386 C6.99707879,17.8108654 6.9978443,17.6104697 6.99958892,17.4026614 C6.25534019,17.1044039 5.60187608,16.728939 5.04258933,16.2749381 L4.3705697,16.6438381 Z M10.0087489,5.99979714 C7.80274888,5.99979714 6.00874888,7.79379714 6.00874888,9.99979714 C6.00874888,12.2057971 7.80274888,13.9997971 10.0087489,13.9997971 C12.2147489,13.9997971 14.0087489,12.2057971 14.0087489,9.99979714 C14.0087489,7.79379714 12.2147489,5.99979714 10.0087489,5.99979714 Z M10.0087489,11.9997971 C8.90574888,11.9997971 8.00874888,11.1027971 8.00874888,9.99979714 C8.00874888,8.89679714 8.90574888,7.99979714 10.0087489,7.99979714 C11.1117489,7.99979714 12.0087489,8.89679714 12.0087489,9.99979714 C12.0087489,11.1027971 11.1117489,11.9997971 10.0087489,11.9997971 Z" id="🎨-Color"></path>
                </g>
                <g id="Grid" transform="translate(304.000000, 24.000000) rotate(-270.000000) translate(-304.000000, -24.000000) translate(280.000000, 0.000000)">
                    <rect id="Rectangle" fill="#B8E2FF" x="-1.15960574e-11" y="1.04591891e-11" width="48" height="48"></rect>
                    <rect id="Rectangle" stroke="#0A67D1" stroke-width="0.2" x="4" y="4" width="40" height="40"></rect>
                    <rect id="Rectangle" stroke="#0A67D1" stroke-width="0.2" x="8" y="8" width="32" height="32"></rect>
                    <rect id="Rectangle" stroke="#0A67D1" stroke-width="0.2" x="12" y="12" width="24" height="24"></rect>
                    <circle id="Oval" stroke="#0A67D1" stroke-width="0.2" cx="24" cy="24" r="12"></circle>
                    <circle id="Oval" stroke="#0A67D1" stroke-width="0.2" cx="24" cy="24" r="8"></circle>
                    <circle id="Oval" stroke="#0A67D1" stroke-width="0.2" cx="24" cy="24" r="4"></circle>
                    <circle id="Oval" stroke="#0A67D1" stroke-width="0.2" cx="24" cy="24" r="20"></circle>
                </g>
                <g id="Icon-/-Eye" transform="translate(284.000000, 12.000000)">
                    <mask id="mask-2" fill="white">
                        <use xlink:href="#path-1"></use>
                    </mask>
                    <use id="🎨-Color" fill="#53595E" xlink:href="#path-1"></use>
                </g>
                <g id="Grid" transform="translate(252.000000, 12.000000) rotate(-270.000000) translate(-252.000000, -12.000000) translate(240.000000, 0.000000)">
                    <rect id="Rectangle" fill="#B8E2FF" x="-1.15960574e-11" y="1.04591891e-11" width="24" height="24"></rect>
                    <rect id="Rectangle" stroke="#0A67D1" stroke-width="0.2" x="2" y="2" width="20" height="20"></rect>
                    <rect id="Rectangle" stroke="#0A67D1" stroke-width="0.2" x="4" y="4" width="16" height="16"></rect>
                    <rect id="Rectangle" stroke="#0A67D1" stroke-width="0.2" x="6" y="6" width="12" height="12"></rect>
                    <circle id="Oval" stroke="#0A67D1" stroke-width="0.2" cx="12" cy="12" r="6"></circle>
                    <circle id="Oval" stroke="#0A67D1" stroke-width="0.2" cx="12" cy="12" r="4"></circle>
                    <circle id="Oval" stroke="#0A67D1" stroke-width="0.2" cx="12" cy="12" r="2"></circle>
                    <circle id="Oval" stroke="#0A67D1" stroke-width="0.2" cx="12" cy="12" r="10"></circle>
                </g>
                <g id="Icon-/-Eye" transform="translate(242.000000, 6.000000)">
                    <mask id="mask-4" fill="white">
                        <use xlink:href="#path-3"></use>
                    </mask>
                    <use id="🎨-Color" fill="#53595E" xlink:href="#path-3"></use>
                </g>
                <g id="Grid" transform="translate(184.000000, 24.000000) rotate(-270.000000) translate(-184.000000, -24.000000) translate(160.000000, 0.000000)">
                    <rect id="Rectangle" fill="#B8E2FF" x="-1.15960574e-11" y="1.04591891e-11" width="48" height="48"></rect>
                    <rect id="Rectangle" stroke="#0A67D1" stroke-width="0.2" x="4" y="4" width="40" height="40"></rect>
                    <rect id="Rectangle" stroke="#0A67D1" stroke-width="0.2" x="8" y="8" width="32" height="32"></rect>
                    <rect id="Rectangle" stroke="#0A67D1" stroke-width="0.2" x="12" y="12" width="24" height="24"></rect>
                    <circle id="Oval" stroke="#0A67D1" stroke-width="0.2" cx="24" cy="24" r="12"></circle>
                    <circle id="Oval" stroke="#0A67D1" stroke-width="0.2" cx="24" cy="24" r="8"></circle>
                    <circle id="Oval" stroke="#0A67D1" stroke-width="0.2" cx="24" cy="24" r="4"></circle>
                    <circle id="Oval" stroke="#0A67D1" stroke-width="0.2" cx="24" cy="24" r="20"></circle>
                </g>
                <g id="Icon-/-Copy" transform="translate(164.000000, 4.000000)">
                    <mask id="mask-6" fill="white">
                        <use xlink:href="#path-5"></use>
                    </mask>
                    <use id="🎨-Color" fill="#53595E" xlink:href="#path-5"></use>
                </g>
                <g id="Grid" transform="translate(132.000000, 12.000000) rotate(-270.000000) translate(-132.000000, -12.000000) translate(120.000000, 0.000000)">
                    <rect id="Rectangle" fill="#B8E2FF" x="-1.15960574e-11" y="1.04591891e-11" width="24" height="24"></rect>
                    <rect id="Rectangle" stroke="#0A67D1" stroke-width="0.2" x="2" y="2" width="20" height="20"></rect>
                    <rect id="Rectangle" stroke="#0A67D1" stroke-width="0.2" x="4" y="4" width="16" height="16"></rect>
                    <rect id="Rectangle" stroke="#0A67D1" stroke-width="0.2" x="6" y="6" width="12" height="12"></rect>
                    <circle id="Oval" stroke="#0A67D1" stroke-width="0.2" cx="12" cy="12" r="6"></circle>
                    <circle id="Oval" stroke="#0A67D1" stroke-width="0.2" cx="12" cy="12" r="4"></circle>
                    <circle id="Oval" stroke="#0A67D1" stroke-width="0.2" cx="12" cy="12" r="2"></circle>
                    <circle id="Oval" stroke="#0A67D1" stroke-width="0.2" cx="12" cy="12" r="10"></circle>
                </g>
                <g id="Icon-/-Copy" transform="translate(122.000000, 2.000000)">
                    <mask id="mask-8" fill="white">
                        <use xlink:href="#path-7"></use>
                    </mask>
                    <use id="🎨-Color" fill="#53595E" xlink:href="#path-7"></use>
                </g>
                <g id="Grid" transform="translate(64.000000, 24.000000) rotate(-270.000000) translate(-64.000000, -24.000000) translate(40.000000, 0.000000)">
                    <rect id="Rectangle" fill="#B8E2FF" x="-1.15960574e-11" y="1.04591891e-11" width="48" height="48"></rect>
                    <rect id="Rectangle" stroke="#0A67D1" stroke-width="0.2" x="4" y="4" width="40" height="40"></rect>
                    <rect id="Rectangle" stroke="#0A67D1" stroke-width="0.2" x="8" y="8" width="32" height="32"></rect>
                    <rect id="Rectangle" stroke="#0A67D1" stroke-width="0.2" x="12" y="12" width="24" height="24"></rect>
                    <circle id="Oval" stroke="#0A67D1" stroke-width="0.2" cx="24" cy="24" r="12"></circle>
                    <circle id="Oval" stroke="#0A67D1" stroke-width="0.2" cx="24" cy="24" r="8"></circle>
                    <circle id="Oval" stroke="#0A67D1" stroke-width="0.2" cx="24" cy="24" r="4"></circle>
                    <circle id="Oval" stroke="#0A67D1" stroke-width="0.2" cx="24" cy="24" r="20"></circle>
                </g>
                <g id="Icon-/-Bell" transform="translate(48.000000, 4.000000)">
                    <mask id="mask-10" fill="white">
                        <use xlink:href="#path-9"></use>
                    </mask>
                    <use id="🎨-Color" fill="#53595E" xlink:href="#path-9"></use>
                </g>
                <g id="Grid" transform="translate(12.000000, 12.000000) rotate(-270.000000) translate(-12.000000, -12.000000) ">
                    <rect id="Rectangle" fill="#B8E2FF" x="-1.15960574e-11" y="1.04591891e-11" width="24" height="24"></rect>
                    <rect id="Rectangle" stroke="#0A67D1" stroke-width="0.2" x="2" y="2" width="20" height="20"></rect>
                    <rect id="Rectangle" stroke="#0A67D1" stroke-width="0.2" x="4" y="4" width="16" height="16"></rect>
                    <rect id="Rectangle" stroke="#0A67D1" stroke-width="0.2" x="6" y="6" width="12" height="12"></rect>
                    <circle id="Oval" stroke="#0A67D1" stroke-width="0.2" cx="12" cy="12" r="6"></circle>
                    <circle id="Oval" stroke="#0A67D1" stroke-width="0.2" cx="12" cy="12" r="4"></circle>
                    <circle id="Oval" stroke="#0A67D1" stroke-width="0.2" cx="12" cy="12" r="2"></circle>
                    <circle id="Oval" stroke="#0A67D1" stroke-width="0.2" cx="12" cy="12" r="10"></circle>
                </g>
                <g id="Icon-/-Bell" transform="translate(4.000000, 2.000000)">
                    <mask id="mask-12" fill="white">
                        <use xlink:href="#path-11"></use>
                    </mask>
                    <use id="🎨-Color" fill="#53595E" xlink:href="#path-11"></use>
                </g>
            </g>
        </g>
    </g>
</svg>